G04 #@! TF.GenerationSoftware,KiCad,Pcbnew,8.0.1*
G04 #@! TF.CreationDate,2025-04-04T11:27:09-04:00*
G04 #@! TF.ProjectId,cutdown,63757464-6f77-46e2-9e6b-696361645f70,V1.0*
G04 #@! TF.SameCoordinates,Original*
G04 #@! TF.FileFunction,Copper,L4,Bot*
G04 #@! TF.FilePolarity,Positive*
%FSLAX46Y46*%
G04 Gerber Fmt 4.6, Leading zero omitted, Abs format (unit mm)*
G04 Created by KiCad (PCBNEW 8.0.1) date 2025-04-04 11:27:09*
%MOMM*%
%LPD*%
G01*
G04 APERTURE LIST*
G04 Aperture macros list*
%AMFreePoly0*
4,1,93,-1.755578,2.630679,-1.440813,2.572996,-1.135297,2.477793,-0.843484,2.346458,-0.569628,2.180907,-0.317725,1.983553,-0.091447,1.757275,0.105907,1.505372,0.271458,1.231516,0.402793,0.939703,0.497996,0.634187,0.555679,0.319422,0.575000,0.000000,0.555679,-0.319422,0.497996,-0.634187,0.402793,-0.939703,0.271458,-1.231516,0.105907,-1.505372,-0.091447,-1.757275,-0.317725,-1.983553,
-0.569628,-2.180907,-0.843484,-2.346458,-1.135297,-2.477793,-1.440813,-2.572996,-1.755578,-2.630679,-2.075000,-2.650000,-2.394422,-2.630679,-2.709187,-2.572996,-3.014703,-2.477793,-3.306516,-2.346458,-3.580372,-2.180907,-3.832275,-1.983553,-4.058553,-1.757275,-4.255907,-1.505372,-4.421458,-1.231516,-4.552793,-0.939703,-4.647996,-0.634187,-4.705679,-0.319422,-4.725000,0.000000,-3.580141,0.000000,
-3.559613,-0.247738,-3.498588,-0.488718,-3.398732,-0.716368,-3.262768,-0.924477,-3.094404,-1.107368,-2.898234,-1.260054,-2.679608,-1.378368,-2.444490,-1.459084,-2.199294,-1.500000,-1.950706,-1.500000,-1.705510,-1.459084,-1.470392,-1.378368,-1.251766,-1.260054,-1.055596,-1.107368,-0.887232,-0.924477,-0.751268,-0.716368,-0.651412,-0.488718,-0.590387,-0.247738,-0.569859,0.000000,-0.590387,0.247738,
-0.651412,0.488718,-0.751268,0.716368,-0.887232,0.924477,-1.055596,1.107368,-1.251766,1.260054,-1.470392,1.378368,-1.705510,1.459084,-1.950706,1.500000,-2.199294,1.500000,-2.444490,1.459084,-2.679608,1.378368,-2.898234,1.260054,-3.094404,1.107368,-3.262768,0.924477,-3.398732,0.716368,-3.498588,0.488718,-3.559613,0.247738,-3.580141,0.000000,-4.725000,0.000000,-4.705679,0.319422,
-4.647996,0.634187,-4.552793,0.939703,-4.421458,1.231516,-4.255907,1.505372,-4.058553,1.757275,-3.832275,1.983553,-3.580372,2.180907,-3.306516,2.346458,-3.014703,2.477793,-2.709187,2.572996,-2.394422,2.630679,-2.075000,2.650000,-1.755578,2.630679,-1.755578,2.630679,$1*%
G04 Aperture macros list end*
G04 #@! TA.AperFunction,ComponentPad*
%ADD10C,2.000000*%
G04 #@! TD*
G04 #@! TA.AperFunction,ComponentPad*
%ADD11R,1.700000X1.700000*%
G04 #@! TD*
G04 #@! TA.AperFunction,ComponentPad*
%ADD12O,1.700000X1.700000*%
G04 #@! TD*
G04 #@! TA.AperFunction,ComponentPad*
%ADD13C,3.800000*%
G04 #@! TD*
G04 #@! TA.AperFunction,ComponentPad*
%ADD14R,3.800000X3.800000*%
G04 #@! TD*
G04 #@! TA.AperFunction,ComponentPad*
%ADD15C,4.000000*%
G04 #@! TD*
G04 #@! TA.AperFunction,SMDPad,CuDef*
%ADD16C,0.750000*%
G04 #@! TD*
G04 #@! TA.AperFunction,SMDPad,CuDef*
%ADD17FreePoly0,180.000000*%
G04 #@! TD*
G04 #@! TA.AperFunction,SMDPad,CuDef*
%ADD18C,1.000000*%
G04 #@! TD*
G04 #@! TA.AperFunction,ViaPad*
%ADD19C,0.600000*%
G04 #@! TD*
G04 #@! TA.AperFunction,Conductor*
%ADD20C,0.500000*%
G04 #@! TD*
G04 #@! TA.AperFunction,Conductor*
%ADD21C,0.200000*%
G04 #@! TD*
G04 #@! TA.AperFunction,Conductor*
%ADD22C,0.800000*%
G04 #@! TD*
G04 #@! TA.AperFunction,Conductor*
%ADD23C,0.400000*%
G04 #@! TD*
G04 #@! TA.AperFunction,Conductor*
%ADD24C,1.500000*%
G04 #@! TD*
G04 APERTURE END LIST*
D10*
X132500000Y-93500000D03*
D11*
X117650000Y-96380000D03*
D12*
X117650000Y-98920000D03*
X117650000Y-101460000D03*
X117650000Y-104000000D03*
X117650000Y-106540000D03*
X117650000Y-109080000D03*
X117650000Y-111620000D03*
D13*
X160000000Y-91000000D03*
D10*
X147000000Y-107900000D03*
X136000000Y-93500000D03*
D13*
X160000000Y-117000000D03*
D14*
X154600000Y-92000000D03*
D15*
X149600000Y-92000000D03*
D13*
X118000000Y-117000000D03*
D16*
X162075000Y-97400000D03*
X160000000Y-99475000D03*
X160000000Y-95325000D03*
D17*
X157925000Y-97400000D03*
D16*
X126575000Y-91000000D03*
X124500000Y-93075000D03*
X124500000Y-88925000D03*
D17*
X122425000Y-91000000D03*
D16*
X151075000Y-97400000D03*
X149000000Y-99475000D03*
X149000000Y-95325000D03*
D17*
X146925000Y-97400000D03*
D18*
X138100000Y-111000000D03*
X138400000Y-103100000D03*
D16*
X162075000Y-111400000D03*
X160000000Y-113475000D03*
X160000000Y-109325000D03*
D17*
X157925000Y-111400000D03*
D16*
X151075000Y-111400000D03*
X149000000Y-113475000D03*
X149000000Y-109325000D03*
D17*
X146925000Y-111400000D03*
D16*
X126575000Y-116575000D03*
X124500000Y-118650000D03*
X124500000Y-114500000D03*
D17*
X122425000Y-116575000D03*
D19*
X127000000Y-113200000D03*
X125125000Y-97900000D03*
X128300000Y-90900000D03*
X122800000Y-111900000D03*
X128300000Y-89900000D03*
X122100000Y-93200000D03*
X128300000Y-92000000D03*
X160000000Y-107000000D03*
X116000000Y-107000000D03*
X148000000Y-88974136D03*
X138100000Y-115500000D03*
X142000000Y-117000000D03*
X132300000Y-108000000D03*
X155989875Y-95000000D03*
X128000000Y-89000000D03*
X156000000Y-111000000D03*
X150000000Y-115000000D03*
X134300000Y-110400000D03*
X138000000Y-119000000D03*
X156000000Y-117000000D03*
X152000000Y-119000000D03*
X136000000Y-119000000D03*
X116000000Y-97000000D03*
X148000000Y-119000000D03*
X144000000Y-117000000D03*
X131219773Y-110362711D03*
X140500000Y-101000000D03*
X128000000Y-119000000D03*
X156000000Y-113000000D03*
X138000000Y-117000000D03*
X125900000Y-98300000D03*
X140200000Y-113800000D03*
X120300000Y-95400000D03*
X146000000Y-89000000D03*
X116000000Y-103000000D03*
X140500000Y-98000000D03*
X145400000Y-100200000D03*
X122100000Y-101800000D03*
X122000000Y-113700000D03*
X162000000Y-101000000D03*
X156000000Y-105000000D03*
X154000000Y-109000000D03*
X158000000Y-107000000D03*
X142000000Y-119000000D03*
X156000000Y-101000000D03*
X146000000Y-119000000D03*
X158000000Y-109000000D03*
X162000000Y-109000000D03*
X148000000Y-117000000D03*
X140000000Y-117000000D03*
X130650000Y-104950000D03*
X156000000Y-89000000D03*
X129800000Y-93800000D03*
X154500000Y-106200000D03*
X116000000Y-101000000D03*
X123500000Y-104000000D03*
X116000000Y-115000000D03*
X154200000Y-101700000D03*
X132000000Y-117000000D03*
X156000000Y-99000000D03*
X134000000Y-119000000D03*
X160000000Y-101000000D03*
X152000000Y-89000000D03*
X132000000Y-119000000D03*
X121000000Y-117500000D03*
X154500000Y-107100000D03*
X154000000Y-119000000D03*
X116000000Y-109000000D03*
X150000000Y-89000000D03*
X116000000Y-99000000D03*
X142000000Y-115000000D03*
X138000000Y-89000000D03*
X156000000Y-107000000D03*
X140000000Y-119000000D03*
X140500000Y-99000000D03*
X130000000Y-89000000D03*
X144000000Y-89000000D03*
X144000000Y-115000000D03*
X158000000Y-119000000D03*
X131000000Y-109000000D03*
X158000000Y-89000000D03*
X127000000Y-101100000D03*
X156000000Y-103000000D03*
X156000000Y-109000000D03*
X116000000Y-111000000D03*
X130000000Y-117000000D03*
X160000000Y-105000000D03*
X144100000Y-100200000D03*
X119200000Y-100300000D03*
X150000000Y-117000000D03*
X156000000Y-119000000D03*
X158000000Y-105000000D03*
X133200000Y-110400000D03*
X162000000Y-107000000D03*
X160000000Y-103000000D03*
X122000000Y-119000000D03*
X136000000Y-117000000D03*
X135600000Y-110400000D03*
X162000000Y-103000000D03*
X150000000Y-119000000D03*
X152000000Y-109000000D03*
X154000000Y-117000000D03*
X140500000Y-100000000D03*
X134000000Y-89000000D03*
X154500000Y-108000000D03*
X136000000Y-89000000D03*
X162000000Y-105000000D03*
X154000000Y-115000000D03*
X144000000Y-119000000D03*
X156000000Y-115000000D03*
X130000000Y-119000000D03*
X156000000Y-97000000D03*
X116000000Y-105000000D03*
X154000000Y-89000000D03*
X140500000Y-102000000D03*
X162000000Y-115000000D03*
X162000000Y-93000000D03*
X142000000Y-89000000D03*
X131300000Y-97300000D03*
X140000000Y-89000000D03*
X116000000Y-113000000D03*
X132000000Y-89000000D03*
X146000000Y-113000000D03*
X158000000Y-103000000D03*
X127800000Y-105700000D03*
X137000000Y-116500000D03*
X124100000Y-105900000D03*
X131100000Y-107200000D03*
X126700000Y-100200000D03*
X134500000Y-115400000D03*
X132600000Y-114800000D03*
X143000000Y-99300000D03*
X121100000Y-106100000D03*
X154000000Y-96000000D03*
X153000000Y-98000000D03*
X154000000Y-98000000D03*
X153000000Y-97000000D03*
X154000000Y-97000000D03*
X153000000Y-99000000D03*
X153000000Y-96000000D03*
X153000000Y-100000000D03*
X154000000Y-99000000D03*
X154000000Y-100000000D03*
X120400000Y-104200000D03*
X123000000Y-111000000D03*
X124000000Y-110000000D03*
X124000000Y-111000000D03*
X121400000Y-98000000D03*
X121400000Y-99000000D03*
X120400000Y-99000000D03*
X125000000Y-111000000D03*
X123000000Y-110000000D03*
X120400000Y-98000000D03*
X134700000Y-116200000D03*
X137000000Y-102700000D03*
X130500000Y-102000000D03*
X138400000Y-109600000D03*
X130900000Y-104000000D03*
X153000000Y-110000000D03*
X153000000Y-111000000D03*
X153000000Y-112000000D03*
X152000000Y-113000000D03*
X152000000Y-111000000D03*
X152000000Y-112000000D03*
X153000000Y-113000000D03*
X152000000Y-110000000D03*
D20*
X128300000Y-92000000D02*
X128300000Y-90900000D01*
X122800000Y-111900000D02*
X125800000Y-111900000D01*
D21*
X127000000Y-113200000D02*
X126300000Y-112500000D01*
D20*
X142200000Y-98400000D02*
X148400000Y-92200000D01*
X124100000Y-95200000D02*
X122100000Y-93200000D01*
X125200000Y-95200000D02*
X128000000Y-92400000D01*
X140700000Y-112400000D02*
X142200000Y-110900000D01*
X128300000Y-90900000D02*
X128300000Y-89900000D01*
X125200000Y-97825000D02*
X125200000Y-95200000D01*
X125200000Y-95200000D02*
X124100000Y-95200000D01*
X126300000Y-112400000D02*
X140700000Y-112400000D01*
X128300000Y-92000000D02*
X128300000Y-92100000D01*
X125125000Y-97900000D02*
X125200000Y-97825000D01*
X125800000Y-111900000D02*
X126300000Y-112400000D01*
D21*
X126300000Y-112500000D02*
X126300000Y-112400000D01*
D20*
X142200000Y-110900000D02*
X142200000Y-98400000D01*
D21*
X124575000Y-89000000D02*
X124500000Y-88925000D01*
X159675000Y-109000000D02*
X160000000Y-109325000D01*
X121000000Y-117500000D02*
X121500000Y-117500000D01*
X156000000Y-111000000D02*
X157525000Y-111000000D01*
X128000000Y-89000000D02*
X124575000Y-89000000D01*
X160000000Y-101000000D02*
X160000000Y-99475000D01*
X121500000Y-117500000D02*
X122425000Y-116575000D01*
X162000000Y-109000000D02*
X160325000Y-109000000D01*
X160325000Y-109000000D02*
X160000000Y-109325000D01*
X157525000Y-111000000D02*
X157925000Y-111400000D01*
X158000000Y-109000000D02*
X159675000Y-109000000D01*
D22*
X126500000Y-102600000D02*
X128450000Y-104550000D01*
D21*
X134500000Y-115400000D02*
X135900000Y-115400000D01*
D22*
X125300000Y-101400000D02*
X126500000Y-102600000D01*
X125400000Y-100200000D02*
X125300000Y-100300000D01*
X127800000Y-105200000D02*
X127800000Y-105700000D01*
X128450000Y-104550000D02*
X127800000Y-105200000D01*
X125300000Y-101400000D02*
X125300000Y-104700000D01*
X128450000Y-104550000D02*
X131100000Y-107200000D01*
X125300000Y-100300000D02*
X125300000Y-101400000D01*
X125300000Y-104700000D02*
X124100000Y-105900000D01*
D21*
X135900000Y-115400000D02*
X137000000Y-116500000D01*
D22*
X126700000Y-100200000D02*
X125400000Y-100200000D01*
D21*
X143400000Y-99700000D02*
X143400000Y-112600000D01*
X143000000Y-99300000D02*
X143400000Y-99700000D01*
X141200000Y-114800000D02*
X132600000Y-114800000D01*
X143400000Y-112600000D02*
X141200000Y-114800000D01*
X121100000Y-103100000D02*
X119460000Y-101460000D01*
X121100000Y-106100000D02*
X121100000Y-103100000D01*
X119460000Y-101460000D02*
X117650000Y-101460000D01*
X118060000Y-106540000D02*
X120400000Y-104200000D01*
X117650000Y-106540000D02*
X118060000Y-106540000D01*
D22*
X123000000Y-111000000D02*
X124000000Y-111000000D01*
X125000000Y-111000000D02*
X124000000Y-111000000D01*
X120400000Y-98000000D02*
X121400000Y-98000000D01*
X124000000Y-110000000D02*
X122300000Y-108300000D01*
X120400000Y-98000000D02*
X121400000Y-99000000D01*
X123000000Y-111000000D02*
X123000000Y-110000000D01*
X121400000Y-99000000D02*
X121400000Y-98000000D01*
X122300000Y-108300000D02*
X122300000Y-103300000D01*
X120400000Y-101400000D02*
X120400000Y-99000000D01*
X121400000Y-99000000D02*
X120400000Y-99000000D01*
X120400000Y-98000000D02*
X120400000Y-99000000D01*
X124000000Y-110000000D02*
X123000000Y-111000000D01*
X124000000Y-111000000D02*
X124000000Y-110000000D01*
X122300000Y-103300000D02*
X120400000Y-101400000D01*
X124000000Y-110000000D02*
X125000000Y-111000000D01*
X123000000Y-110000000D02*
X124000000Y-111000000D01*
X123000000Y-110000000D02*
X124000000Y-110000000D01*
D23*
X132900000Y-118000000D02*
X134700000Y-116200000D01*
X118480000Y-109080000D02*
X122800000Y-113400000D01*
X129700000Y-118000000D02*
X132900000Y-118000000D01*
X127600000Y-115300000D02*
X127600000Y-115900000D01*
X125700000Y-113400000D02*
X127600000Y-115300000D01*
X117650000Y-109080000D02*
X118480000Y-109080000D01*
X127600000Y-115900000D02*
X129700000Y-118000000D01*
X122800000Y-113400000D02*
X125700000Y-113400000D01*
D21*
X137000000Y-102700000D02*
X136100000Y-101800000D01*
X138000000Y-102700000D02*
X138400000Y-103100000D01*
X136100000Y-101800000D02*
X130700000Y-101800000D01*
X130700000Y-101800000D02*
X130500000Y-102000000D01*
X137000000Y-102700000D02*
X138000000Y-102700000D01*
X138400000Y-110700000D02*
X138100000Y-111000000D01*
X138400000Y-109600000D02*
X138400000Y-110700000D01*
X138400000Y-109600000D02*
X136500000Y-109600000D01*
X136500000Y-109600000D02*
X130900000Y-104000000D01*
D24*
X152000000Y-111000000D02*
X152000000Y-110250000D01*
X152000000Y-113000000D02*
X153000000Y-112000000D01*
X152000000Y-111000000D02*
X152000000Y-113000000D01*
X153000000Y-110000000D02*
X152000000Y-111000000D01*
X151850000Y-111000000D02*
X151450000Y-111400000D01*
X152000000Y-112000000D02*
X153000000Y-113000000D01*
X152000000Y-111000000D02*
X151850000Y-111000000D01*
X153000000Y-113000000D02*
X153000000Y-110000000D01*
X153000000Y-113000000D02*
X152000000Y-113000000D01*
G04 #@! TA.AperFunction,Conductor*
G36*
X161883641Y-108727050D02*
G01*
X161889503Y-108733148D01*
X161999115Y-108995489D01*
X161999142Y-109004444D01*
X161999115Y-109004511D01*
X161889503Y-109266851D01*
X161883151Y-109273163D01*
X161874694Y-109273329D01*
X161740947Y-109224493D01*
X161407687Y-109102806D01*
X161401091Y-109096750D01*
X161400000Y-109091816D01*
X161400000Y-108908183D01*
X161403427Y-108899910D01*
X161407687Y-108897193D01*
X161874697Y-108726669D01*
X161883641Y-108727050D01*
G37*
G04 #@! TD.AperFunction*
G04 #@! TA.AperFunction,Conductor*
G36*
X138497815Y-110114091D02*
G01*
X138501169Y-110121057D01*
X138598540Y-110987019D01*
X138596059Y-110995623D01*
X138588220Y-110999953D01*
X138586936Y-111000026D01*
X138104868Y-111000990D01*
X138096590Y-110997581D01*
X137924111Y-110824613D01*
X137754832Y-110654855D01*
X137751417Y-110646577D01*
X137754856Y-110638309D01*
X137754922Y-110638243D01*
X138196279Y-110211054D01*
X138296598Y-110113957D01*
X138304735Y-110110664D01*
X138489542Y-110110664D01*
X138497815Y-110114091D01*
G37*
G04 #@! TD.AperFunction*
G04 #@! TA.AperFunction,Conductor*
G36*
X127883641Y-88727050D02*
G01*
X127889503Y-88733148D01*
X127999115Y-88995489D01*
X127999142Y-89004444D01*
X127999115Y-89004511D01*
X127889503Y-89266851D01*
X127883151Y-89273163D01*
X127874694Y-89273329D01*
X127740947Y-89224493D01*
X127407687Y-89102806D01*
X127401091Y-89096750D01*
X127400000Y-89091816D01*
X127400000Y-88908183D01*
X127403427Y-88899910D01*
X127407687Y-88897193D01*
X127874697Y-88726669D01*
X127883641Y-88727050D01*
G37*
G04 #@! TD.AperFunction*
G04 #@! TA.AperFunction,Conductor*
G36*
X149588901Y-92002926D02*
G01*
X149592472Y-92011138D01*
X149591037Y-92016960D01*
X148650901Y-93734694D01*
X148643923Y-93740306D01*
X148640219Y-93740770D01*
X147266741Y-93691574D01*
X147258887Y-93688154D01*
X146914723Y-93343990D01*
X146911296Y-93335717D01*
X146912674Y-93330209D01*
X147601675Y-92040253D01*
X147608595Y-92034571D01*
X147611784Y-92034068D01*
X149580569Y-91999645D01*
X149588901Y-92002926D01*
G37*
G04 #@! TD.AperFunction*
G04 #@! TA.AperFunction,Conductor*
G36*
X160100090Y-100403427D02*
G01*
X160102807Y-100407687D01*
X160273330Y-100874694D01*
X160272949Y-100883641D01*
X160266851Y-100889503D01*
X160004511Y-100999115D01*
X159995556Y-100999142D01*
X159995489Y-100999115D01*
X159733148Y-100889503D01*
X159726836Y-100883151D01*
X159726669Y-100874697D01*
X159897193Y-100407686D01*
X159903249Y-100401091D01*
X159908183Y-100400000D01*
X160091817Y-100400000D01*
X160100090Y-100403427D01*
G37*
G04 #@! TD.AperFunction*
G04 #@! TA.AperFunction,Conductor*
G36*
X121200090Y-105503427D02*
G01*
X121202807Y-105507687D01*
X121373330Y-105974694D01*
X121372949Y-105983641D01*
X121366851Y-105989503D01*
X121104511Y-106099115D01*
X121095556Y-106099142D01*
X121095489Y-106099115D01*
X120833148Y-105989503D01*
X120826836Y-105983151D01*
X120826669Y-105974697D01*
X120997193Y-105507686D01*
X121003249Y-105501091D01*
X121008183Y-105500000D01*
X121191817Y-105500000D01*
X121200090Y-105503427D01*
G37*
G04 #@! TD.AperFunction*
G04 #@! TA.AperFunction,Conductor*
G36*
X117985766Y-100679959D02*
G01*
X117986492Y-100680291D01*
X119343521Y-101356770D01*
X119349395Y-101363527D01*
X119350000Y-101367240D01*
X119350000Y-101552759D01*
X119346573Y-101561032D01*
X119343520Y-101563230D01*
X117986497Y-102239706D01*
X117977564Y-102240330D01*
X117970806Y-102234455D01*
X117970472Y-102233724D01*
X117650865Y-101464489D01*
X117650856Y-101455534D01*
X117650865Y-101455511D01*
X117970472Y-100686274D01*
X117976811Y-100679950D01*
X117985766Y-100679959D01*
G37*
G04 #@! TD.AperFunction*
G04 #@! TA.AperFunction,Conductor*
G36*
X138396596Y-102603427D02*
G01*
X138400023Y-102611677D01*
X138400990Y-103095131D01*
X138397580Y-103103409D01*
X138397559Y-103103430D01*
X138397551Y-103103439D01*
X138056075Y-103443951D01*
X138047797Y-103447366D01*
X138039529Y-103443927D01*
X138038389Y-103442599D01*
X137567960Y-102803092D01*
X137565685Y-102796159D01*
X137565685Y-102611700D01*
X137569112Y-102603427D01*
X137577385Y-102600000D01*
X138388323Y-102600000D01*
X138396596Y-102603427D01*
G37*
G04 #@! TD.AperFunction*
G04 #@! TA.AperFunction,Conductor*
G36*
X126653864Y-112708475D02*
G01*
X127104671Y-112918123D01*
X127110726Y-112924718D01*
X127110559Y-112933175D01*
X127002563Y-113196184D01*
X126996251Y-113202536D01*
X126996184Y-113202563D01*
X126733175Y-113310559D01*
X126724220Y-113310532D01*
X126718123Y-113304671D01*
X126508475Y-112853865D01*
X126508095Y-112844920D01*
X126510810Y-112840662D01*
X126640661Y-112710811D01*
X126648933Y-112707385D01*
X126653864Y-112708475D01*
G37*
G04 #@! TD.AperFunction*
G04 #@! TA.AperFunction,Conductor*
G36*
X121143817Y-117233060D02*
G01*
X121497495Y-117357696D01*
X121501879Y-117360458D01*
X121630190Y-117488769D01*
X121633617Y-117497042D01*
X121630190Y-117505315D01*
X121627366Y-117507396D01*
X121126120Y-117771208D01*
X121117203Y-117772028D01*
X121110317Y-117766303D01*
X121109875Y-117765365D01*
X121001171Y-117505204D01*
X121001145Y-117496251D01*
X121110555Y-117233058D01*
X121116894Y-117226736D01*
X121125247Y-117226516D01*
X121143817Y-117233060D01*
G37*
G04 #@! TD.AperFunction*
G04 #@! TA.AperFunction,Conductor*
G36*
X138666851Y-109710496D02*
G01*
X138673163Y-109716848D01*
X138673330Y-109725305D01*
X138502807Y-110192313D01*
X138496751Y-110198909D01*
X138491817Y-110200000D01*
X138308183Y-110200000D01*
X138299910Y-110196573D01*
X138297193Y-110192313D01*
X138126669Y-109725302D01*
X138127050Y-109716358D01*
X138133147Y-109710496D01*
X138395490Y-109600883D01*
X138404444Y-109600857D01*
X138666851Y-109710496D01*
G37*
G04 #@! TD.AperFunction*
G04 #@! TA.AperFunction,Conductor*
G36*
X133192313Y-114697193D02*
G01*
X133198909Y-114703249D01*
X133200000Y-114708183D01*
X133200000Y-114891816D01*
X133196573Y-114900089D01*
X133192313Y-114902806D01*
X132725305Y-115073330D01*
X132716358Y-115072949D01*
X132710496Y-115066851D01*
X132600883Y-114804509D01*
X132600857Y-114795556D01*
X132600862Y-114795542D01*
X132710496Y-114533147D01*
X132716848Y-114526836D01*
X132725302Y-114526669D01*
X133192313Y-114697193D01*
G37*
G04 #@! TD.AperFunction*
G04 #@! TA.AperFunction,Conductor*
G36*
X136653864Y-116008475D02*
G01*
X137104671Y-116218123D01*
X137110726Y-116224718D01*
X137110559Y-116233175D01*
X137002563Y-116496184D01*
X136996251Y-116502536D01*
X136996184Y-116502563D01*
X136733175Y-116610559D01*
X136724220Y-116610532D01*
X136718123Y-116604671D01*
X136508475Y-116153865D01*
X136508095Y-116144920D01*
X136510810Y-116140662D01*
X136640661Y-116010811D01*
X136648933Y-116007385D01*
X136653864Y-116008475D01*
G37*
G04 #@! TD.AperFunction*
G04 #@! TA.AperFunction,Conductor*
G36*
X131016811Y-101703427D02*
G01*
X131020238Y-101711700D01*
X131020238Y-101895198D01*
X131016865Y-101903417D01*
X130720386Y-102203770D01*
X130712135Y-102207251D01*
X130703840Y-102203878D01*
X130703805Y-102203844D01*
X130502462Y-102003446D01*
X130499016Y-101995181D01*
X130499016Y-101995114D01*
X130499961Y-101711661D01*
X130503415Y-101703399D01*
X130511661Y-101700000D01*
X131008538Y-101700000D01*
X131016811Y-101703427D01*
G37*
G04 #@! TD.AperFunction*
G04 #@! TA.AperFunction,Conductor*
G36*
X118258948Y-108487596D02*
G01*
X118259288Y-108487951D01*
X119231570Y-109548043D01*
X119234636Y-109556456D01*
X119231220Y-109564224D01*
X118959396Y-109836048D01*
X118951935Y-109839447D01*
X117662501Y-109929130D01*
X117654010Y-109926285D01*
X117650017Y-109918270D01*
X117649989Y-109917485D01*
X117649297Y-109084152D01*
X117652717Y-109075877D01*
X117652734Y-109075860D01*
X118242404Y-108487574D01*
X118250679Y-108484159D01*
X118258948Y-108487596D01*
G37*
G04 #@! TD.AperFunction*
G04 #@! TA.AperFunction,Conductor*
G36*
X143275251Y-99189684D02*
G01*
X143281563Y-99196036D01*
X143281581Y-99196081D01*
X143493467Y-99718216D01*
X143493403Y-99727170D01*
X143487025Y-99733456D01*
X143482626Y-99734315D01*
X143302142Y-99734315D01*
X143297997Y-99733556D01*
X142896461Y-99581432D01*
X142889938Y-99575297D01*
X142889665Y-99566346D01*
X142889779Y-99566055D01*
X142998141Y-99303503D01*
X143004460Y-99297168D01*
X143266297Y-99189657D01*
X143275251Y-99189684D01*
G37*
G04 #@! TD.AperFunction*
G04 #@! TA.AperFunction,Conductor*
G36*
X155459191Y-95118907D02*
G01*
X155495155Y-95168407D01*
X155500000Y-95199000D01*
X155500000Y-96953644D01*
X155498992Y-96967733D01*
X155494353Y-96999998D01*
X155494353Y-97000001D01*
X155498992Y-97032264D01*
X155500000Y-97046354D01*
X155500000Y-98953644D01*
X155498992Y-98967733D01*
X155494353Y-98999998D01*
X155494353Y-99000001D01*
X155498992Y-99032264D01*
X155500000Y-99046354D01*
X155500000Y-99658992D01*
X155481093Y-99717183D01*
X155471004Y-99728996D01*
X154428996Y-100771004D01*
X154374479Y-100798781D01*
X154358992Y-100800000D01*
X146541008Y-100800000D01*
X146482817Y-100781093D01*
X146471004Y-100771004D01*
X146228996Y-100528996D01*
X146201219Y-100474479D01*
X146200000Y-100458992D01*
X146200000Y-97511457D01*
X147299500Y-97511457D01*
X147328595Y-97732455D01*
X147328595Y-97732460D01*
X147386290Y-97947782D01*
X147471592Y-98153722D01*
X147471595Y-98153727D01*
X147579540Y-98340691D01*
X147583052Y-98346774D01*
X147718753Y-98523624D01*
X147876376Y-98681247D01*
X148053226Y-98816948D01*
X148053228Y-98816949D01*
X148246272Y-98928404D01*
X148246277Y-98928407D01*
X148341220Y-98967733D01*
X148452219Y-99013710D01*
X148667537Y-99071404D01*
X148888543Y-99100500D01*
X148888544Y-99100500D01*
X149111456Y-99100500D01*
X149111457Y-99100500D01*
X149332463Y-99071404D01*
X149547781Y-99013710D01*
X149692794Y-98953644D01*
X149753722Y-98928407D01*
X149753723Y-98928405D01*
X149753726Y-98928405D01*
X149946774Y-98816948D01*
X150123624Y-98681247D01*
X150281247Y-98523624D01*
X150416948Y-98346774D01*
X150528405Y-98153726D01*
X150613710Y-97947781D01*
X150671404Y-97732463D01*
X150700500Y-97511457D01*
X150700500Y-97288543D01*
X150671404Y-97067537D01*
X150613710Y-96852219D01*
X150597953Y-96814179D01*
X150528407Y-96646277D01*
X150528404Y-96646272D01*
X150416949Y-96453228D01*
X150416948Y-96453226D01*
X150281247Y-96276376D01*
X150123624Y-96118753D01*
X149946774Y-95983052D01*
X149946771Y-95983050D01*
X149753727Y-95871595D01*
X149753722Y-95871592D01*
X149547782Y-95786290D01*
X149452839Y-95760850D01*
X149332463Y-95728596D01*
X149332460Y-95728595D01*
X149332458Y-95728595D01*
X149111457Y-95699500D01*
X148888543Y-95699500D01*
X148888542Y-95699500D01*
X148667544Y-95728595D01*
X148667539Y-95728595D01*
X148452217Y-95786290D01*
X148246277Y-95871592D01*
X148246272Y-95871595D01*
X148053228Y-95983050D01*
X147876379Y-96118750D01*
X147718750Y-96276379D01*
X147583050Y-96453228D01*
X147471595Y-96646272D01*
X147471592Y-96646277D01*
X147386290Y-96852217D01*
X147328595Y-97067539D01*
X147328595Y-97067544D01*
X147299500Y-97288542D01*
X147299500Y-97511457D01*
X146200000Y-97511457D01*
X146200000Y-96241008D01*
X146218907Y-96182817D01*
X146228996Y-96171004D01*
X147271004Y-95128996D01*
X147325521Y-95101219D01*
X147341008Y-95100000D01*
X155401000Y-95100000D01*
X155459191Y-95118907D01*
G37*
G04 #@! TD.AperFunction*
G04 #@! TA.AperFunction,Conductor*
G36*
X134496187Y-115996348D02*
G01*
X134497633Y-115997568D01*
X134700707Y-116199293D01*
X134700762Y-116199348D01*
X134902431Y-116402366D01*
X134905830Y-116410651D01*
X134902376Y-116418913D01*
X134900930Y-116420133D01*
X134425222Y-116759924D01*
X134416499Y-116761944D01*
X134410149Y-116758676D01*
X134141323Y-116489850D01*
X134137896Y-116481577D01*
X134140074Y-116474778D01*
X134479868Y-115999067D01*
X134487464Y-115994328D01*
X134496187Y-115996348D01*
G37*
G04 #@! TD.AperFunction*
G04 #@! TA.AperFunction,Conductor*
G36*
X138283641Y-109327050D02*
G01*
X138289503Y-109333148D01*
X138399115Y-109595489D01*
X138399142Y-109604444D01*
X138399115Y-109604511D01*
X138289503Y-109866851D01*
X138283151Y-109873163D01*
X138274694Y-109873329D01*
X138140947Y-109824493D01*
X137807687Y-109702806D01*
X137801091Y-109696750D01*
X137800000Y-109691816D01*
X137800000Y-109508183D01*
X137803427Y-109499910D01*
X137807687Y-109497193D01*
X138274697Y-109326669D01*
X138283641Y-109327050D01*
G37*
G04 #@! TD.AperFunction*
G04 #@! TA.AperFunction,Conductor*
G36*
X120133174Y-104089439D02*
G01*
X120296804Y-104156629D01*
X120396184Y-104197436D01*
X120402536Y-104203748D01*
X120402563Y-104203815D01*
X120510559Y-104466824D01*
X120510532Y-104475779D01*
X120504670Y-104481877D01*
X120053867Y-104691523D01*
X120044920Y-104691904D01*
X120040660Y-104689187D01*
X119910812Y-104559339D01*
X119907385Y-104551066D01*
X119908474Y-104546136D01*
X120118124Y-104095327D01*
X120124718Y-104089273D01*
X120133174Y-104089439D01*
G37*
G04 #@! TD.AperFunction*
G04 #@! TA.AperFunction,Conductor*
G36*
X136653864Y-102208475D02*
G01*
X137104671Y-102418123D01*
X137110726Y-102424718D01*
X137110559Y-102433175D01*
X137002563Y-102696184D01*
X136996251Y-102702536D01*
X136996184Y-102702563D01*
X136733175Y-102810559D01*
X136724220Y-102810532D01*
X136718123Y-102804671D01*
X136508475Y-102353865D01*
X136508095Y-102344920D01*
X136510810Y-102340662D01*
X136640661Y-102210811D01*
X136648933Y-102207385D01*
X136653864Y-102208475D01*
G37*
G04 #@! TD.AperFunction*
G04 #@! TA.AperFunction,Conductor*
G36*
X118948502Y-105516045D02*
G01*
X118949698Y-105517089D01*
X119080860Y-105648251D01*
X119084287Y-105656524D01*
X119082890Y-105662069D01*
X118440303Y-106855980D01*
X118433364Y-106861641D01*
X118425534Y-106861249D01*
X117656533Y-106543696D01*
X117650194Y-106537371D01*
X117649299Y-106532874D01*
X117649991Y-105700199D01*
X117653425Y-105691931D01*
X117660106Y-105688619D01*
X118939843Y-105513770D01*
X118948502Y-105516045D01*
G37*
G04 #@! TD.AperFunction*
G04 #@! TA.AperFunction,Conductor*
G36*
X135092313Y-115297193D02*
G01*
X135098909Y-115303249D01*
X135100000Y-115308183D01*
X135100000Y-115491816D01*
X135096573Y-115500089D01*
X135092313Y-115502806D01*
X134625305Y-115673330D01*
X134616358Y-115672949D01*
X134610496Y-115666851D01*
X134500883Y-115404509D01*
X134500857Y-115395556D01*
X134500862Y-115395542D01*
X134610496Y-115133147D01*
X134616848Y-115126836D01*
X134625302Y-115126669D01*
X135092313Y-115297193D01*
G37*
G04 #@! TD.AperFunction*
G04 #@! TA.AperFunction,Conductor*
G36*
X122812618Y-111601051D02*
G01*
X123389272Y-111649106D01*
X123397232Y-111653208D01*
X123400000Y-111660766D01*
X123400000Y-112139234D01*
X123396573Y-112147507D01*
X123389272Y-112150894D01*
X122812629Y-112198947D01*
X122804099Y-112196219D01*
X122799997Y-112188259D01*
X122799957Y-112187345D01*
X122799000Y-111900000D01*
X122799957Y-111612671D01*
X122803411Y-111604411D01*
X122811696Y-111601012D01*
X122812618Y-111601051D01*
G37*
G04 #@! TD.AperFunction*
G04 #@! TA.AperFunction,Conductor*
G36*
X158592313Y-108897193D02*
G01*
X158598909Y-108903249D01*
X158600000Y-108908183D01*
X158600000Y-109091816D01*
X158596573Y-109100089D01*
X158592313Y-109102806D01*
X158125305Y-109273330D01*
X158116358Y-109272949D01*
X158110496Y-109266851D01*
X158000883Y-109004509D01*
X158000857Y-108995556D01*
X158000862Y-108995542D01*
X158110496Y-108733147D01*
X158116848Y-108726836D01*
X158125302Y-108726669D01*
X158592313Y-108897193D01*
G37*
G04 #@! TD.AperFunction*
G04 #@! TA.AperFunction,Conductor*
G36*
X156592313Y-110897193D02*
G01*
X156598909Y-110903249D01*
X156600000Y-110908183D01*
X156600000Y-111091816D01*
X156596573Y-111100089D01*
X156592313Y-111102806D01*
X156125305Y-111273330D01*
X156116358Y-111272949D01*
X156110496Y-111266851D01*
X156000883Y-111004509D01*
X156000857Y-110995556D01*
X156000862Y-110995542D01*
X156110496Y-110733147D01*
X156116848Y-110726836D01*
X156125302Y-110726669D01*
X156592313Y-110897193D01*
G37*
G04 #@! TD.AperFunction*
G04 #@! TA.AperFunction,Conductor*
G36*
X137592313Y-102597193D02*
G01*
X137598909Y-102603249D01*
X137600000Y-102608183D01*
X137600000Y-102791816D01*
X137596573Y-102800089D01*
X137592313Y-102802806D01*
X137125305Y-102973330D01*
X137116358Y-102972949D01*
X137110496Y-102966851D01*
X137000883Y-102704509D01*
X137000857Y-102695556D01*
X137000862Y-102695542D01*
X137110496Y-102433147D01*
X137116848Y-102426836D01*
X137125302Y-102426669D01*
X137592313Y-102597193D01*
G37*
G04 #@! TD.AperFunction*
G04 #@! TA.AperFunction,Conductor*
G36*
X131175779Y-103889467D02*
G01*
X131181877Y-103895329D01*
X131391523Y-104346132D01*
X131391904Y-104355079D01*
X131389187Y-104359339D01*
X131259339Y-104489187D01*
X131251066Y-104492614D01*
X131246132Y-104491523D01*
X130952736Y-104355079D01*
X130795328Y-104281876D01*
X130789273Y-104275281D01*
X130789439Y-104266825D01*
X130897436Y-104003814D01*
X130903746Y-103997464D01*
X131166825Y-103889440D01*
X131175779Y-103889467D01*
G37*
G04 #@! TD.AperFunction*
M02*
