G04 #@! TF.GenerationSoftware,KiCad,Pcbnew,8.0.1*
G04 #@! TF.CreationDate,2025-04-04T11:27:09-04:00*
G04 #@! TF.ProjectId,cutdown,63757464-6f77-46e2-9e6b-696361645f70,V1.0*
G04 #@! TF.SameCoordinates,Original*
G04 #@! TF.FileFunction,Paste,Top*
G04 #@! TF.FilePolarity,Positive*
%FSLAX46Y46*%
G04 Gerber Fmt 4.6, Leading zero omitted, Abs format (unit mm)*
G04 Created by KiCad (PCBNEW 8.0.1) date 2025-04-04 11:27:09*
%MOMM*%
%LPD*%
G01*
G04 APERTURE LIST*
G04 Aperture macros list*
%AMRoundRect*
0 Rectangle with rounded corners*
0 $1 Rounding radius*
0 $2 $3 $4 $5 $6 $7 $8 $9 X,Y pos of 4 corners*
0 Add a 4 corners polygon primitive as box body*
4,1,4,$2,$3,$4,$5,$6,$7,$8,$9,$2,$3,0*
0 Add four circle primitives for the rounded corners*
1,1,$1+$1,$2,$3*
1,1,$1+$1,$4,$5*
1,1,$1+$1,$6,$7*
1,1,$1+$1,$8,$9*
0 Add four rect primitives between the rounded corners*
20,1,$1+$1,$2,$3,$4,$5,0*
20,1,$1+$1,$4,$5,$6,$7,0*
20,1,$1+$1,$6,$7,$8,$9,0*
20,1,$1+$1,$8,$9,$2,$3,0*%
G04 Aperture macros list end*
%ADD10C,0.000000*%
%ADD11RoundRect,0.250000X-0.650000X0.325000X-0.650000X-0.325000X0.650000X-0.325000X0.650000X0.325000X0*%
%ADD12RoundRect,0.225000X-0.250000X0.225000X-0.250000X-0.225000X0.250000X-0.225000X0.250000X0.225000X0*%
%ADD13RoundRect,0.135000X-0.185000X0.135000X-0.185000X-0.135000X0.185000X-0.135000X0.185000X0.135000X0*%
%ADD14RoundRect,0.250000X0.250000X0.475000X-0.250000X0.475000X-0.250000X-0.475000X0.250000X-0.475000X0*%
%ADD15RoundRect,0.135000X-0.135000X-0.185000X0.135000X-0.185000X0.135000X0.185000X-0.135000X0.185000X0*%
%ADD16R,4.400000X4.300000*%
%ADD17R,0.650000X0.630000*%
%ADD18RoundRect,0.250000X0.650000X-0.325000X0.650000X0.325000X-0.650000X0.325000X-0.650000X-0.325000X0*%
%ADD19RoundRect,0.500000X0.500000X0.895000X-0.500000X0.895000X-0.500000X-0.895000X0.500000X-0.895000X0*%
%ADD20RoundRect,0.225000X-0.225000X-0.250000X0.225000X-0.250000X0.225000X0.250000X-0.225000X0.250000X0*%
%ADD21RoundRect,0.225000X0.250000X-0.225000X0.250000X0.225000X-0.250000X0.225000X-0.250000X-0.225000X0*%
%ADD22RoundRect,0.250000X-0.375000X-1.075000X0.375000X-1.075000X0.375000X1.075000X-0.375000X1.075000X0*%
%ADD23RoundRect,0.167500X-0.167500X-0.407500X0.167500X-0.407500X0.167500X0.407500X-0.167500X0.407500X0*%
%ADD24RoundRect,0.100000X-0.625000X-0.100000X0.625000X-0.100000X0.625000X0.100000X-0.625000X0.100000X0*%
%ADD25RoundRect,0.100000X0.100000X-0.225000X0.100000X0.225000X-0.100000X0.225000X-0.100000X-0.225000X0*%
%ADD26RoundRect,0.250000X-0.325000X-0.650000X0.325000X-0.650000X0.325000X0.650000X-0.325000X0.650000X0*%
%ADD27RoundRect,0.135000X0.185000X-0.135000X0.185000X0.135000X-0.185000X0.135000X-0.185000X-0.135000X0*%
%ADD28RoundRect,0.250000X-1.425000X0.362500X-1.425000X-0.362500X1.425000X-0.362500X1.425000X0.362500X0*%
%ADD29RoundRect,0.135000X0.135000X0.185000X-0.135000X0.185000X-0.135000X-0.185000X0.135000X-0.185000X0*%
%ADD30RoundRect,0.100000X0.100000X-0.712500X0.100000X0.712500X-0.100000X0.712500X-0.100000X-0.712500X0*%
%ADD31RoundRect,0.250000X-0.362500X-1.425000X0.362500X-1.425000X0.362500X1.425000X-0.362500X1.425000X0*%
%ADD32RoundRect,0.237500X0.250000X0.237500X-0.250000X0.237500X-0.250000X-0.237500X0.250000X-0.237500X0*%
%ADD33RoundRect,0.100000X0.225000X0.100000X-0.225000X0.100000X-0.225000X-0.100000X0.225000X-0.100000X0*%
%ADD34RoundRect,0.250000X-0.475000X0.250000X-0.475000X-0.250000X0.475000X-0.250000X0.475000X0.250000X0*%
%ADD35RoundRect,0.250000X1.075000X-0.375000X1.075000X0.375000X-1.075000X0.375000X-1.075000X-0.375000X0*%
%ADD36RoundRect,0.250000X0.300000X-0.300000X0.300000X0.300000X-0.300000X0.300000X-0.300000X-0.300000X0*%
%ADD37RoundRect,0.237500X-0.250000X-0.237500X0.250000X-0.237500X0.250000X0.237500X-0.250000X0.237500X0*%
G04 APERTURE END LIST*
D10*
G36*
X134705120Y-106370704D02*
G01*
X133135400Y-106370704D01*
X133135400Y-104785744D01*
X134705120Y-104785744D01*
X134705120Y-106370704D01*
G37*
G36*
X134705120Y-108105778D02*
G01*
X133135400Y-108105778D01*
X133135400Y-106870830D01*
X134705120Y-106870830D01*
X134705120Y-108105778D01*
G37*
G36*
X136894600Y-106370704D02*
G01*
X135324880Y-106370704D01*
X135324880Y-104785744D01*
X136894600Y-104785744D01*
X136894600Y-106370704D01*
G37*
G36*
X136894600Y-108105778D02*
G01*
X135324880Y-108105778D01*
X135324880Y-106870830D01*
X136894600Y-106870830D01*
X136894600Y-108105778D01*
G37*
G36*
X134695120Y-98800560D02*
G01*
X133125400Y-98800560D01*
X133125400Y-97215600D01*
X134695120Y-97215600D01*
X134695120Y-98800560D01*
G37*
G36*
X134695120Y-100535634D02*
G01*
X133125400Y-100535634D01*
X133125400Y-99300686D01*
X134695120Y-99300686D01*
X134695120Y-100535634D01*
G37*
G36*
X136884600Y-98800560D02*
G01*
X135314880Y-98800560D01*
X135314880Y-97215600D01*
X136884600Y-97215600D01*
X136884600Y-98800560D01*
G37*
G36*
X136884600Y-100535634D02*
G01*
X135314880Y-100535634D01*
X135314880Y-99300686D01*
X136884600Y-99300686D01*
X136884600Y-100535634D01*
G37*
D11*
X144800000Y-98425000D03*
X144800000Y-101375000D03*
D12*
X122200000Y-94425000D03*
X122200000Y-95975000D03*
X131400000Y-99300000D03*
X131400000Y-100850000D03*
D13*
X132305000Y-112757500D03*
X132305000Y-113777500D03*
D14*
X122199998Y-100500000D03*
X120300000Y-100500000D03*
D15*
X120090000Y-114000000D03*
X121110000Y-114000000D03*
D16*
X135015000Y-106108228D03*
D17*
X133110000Y-103955672D03*
X134380000Y-103955672D03*
X135650000Y-103955672D03*
X136920000Y-103955672D03*
X136920000Y-109425816D03*
X133110000Y-109425816D03*
X134380000Y-109425816D03*
X135650000Y-109425816D03*
D18*
X149700000Y-104650000D03*
X149700000Y-101700000D03*
D19*
X139350000Y-105700000D03*
X143850000Y-105700000D03*
D20*
X139725000Y-93400000D03*
X141275000Y-93400000D03*
D21*
X123700000Y-108775000D03*
X123700000Y-107225000D03*
D22*
X138800000Y-95900000D03*
X141600000Y-95900000D03*
D23*
X126590000Y-102315000D03*
X126590000Y-103735000D03*
X127410000Y-102315000D03*
X127410000Y-103735000D03*
D24*
X124850000Y-101400000D03*
X124850000Y-102050000D03*
X124850000Y-102700000D03*
X124850000Y-103350000D03*
X124850000Y-104000000D03*
X124850000Y-104650000D03*
X129150000Y-104650000D03*
X129150000Y-104000000D03*
X129150000Y-103350000D03*
X129150000Y-102700000D03*
X129150000Y-102050000D03*
X129150000Y-101400000D03*
D25*
X129600000Y-114300000D03*
X130250000Y-114300000D03*
X130900000Y-114300000D03*
X130900000Y-112400000D03*
X129600000Y-112400000D03*
D16*
X135005000Y-98620600D03*
D17*
X133100000Y-96385528D03*
X134370000Y-96385528D03*
X135640000Y-96385528D03*
X136910000Y-96385528D03*
X136910000Y-101855672D03*
X133100000Y-101855672D03*
X134370000Y-101855672D03*
X135640000Y-101855672D03*
D26*
X150125000Y-106800000D03*
X153075000Y-106800000D03*
D27*
X120800000Y-97010000D03*
X120800000Y-95990000D03*
D28*
X144500000Y-90537500D03*
X144500000Y-96462500D03*
D29*
X121110000Y-113000000D03*
X120090000Y-113000000D03*
D30*
X123825000Y-99612500D03*
X124475000Y-99612500D03*
X125125000Y-99612500D03*
X125775000Y-99612500D03*
X125775000Y-95387500D03*
X125125000Y-95387500D03*
X124475000Y-95387500D03*
X123825000Y-95387500D03*
D31*
X146737500Y-115800000D03*
X152662500Y-115800000D03*
D32*
X137212500Y-112500000D03*
X135387500Y-112500000D03*
D18*
X152100000Y-104675000D03*
X152100000Y-101725000D03*
D11*
X129300000Y-106625000D03*
X129300000Y-109575000D03*
D33*
X139050000Y-115450000D03*
X139050000Y-114800000D03*
X139050000Y-114150000D03*
X137150000Y-114150000D03*
X137150000Y-115450000D03*
D34*
X129800000Y-91050000D03*
X129800000Y-92950000D03*
D35*
X126200000Y-109500000D03*
X126200000Y-106700000D03*
D21*
X127500000Y-97675000D03*
X127500000Y-96125000D03*
D15*
X129095000Y-115567500D03*
X130115000Y-115567500D03*
D36*
X129500000Y-99800000D03*
X129500000Y-97000000D03*
D26*
X138825000Y-98800000D03*
X141775000Y-98800000D03*
D27*
X122500000Y-98210000D03*
X122500000Y-97190000D03*
D13*
X120800000Y-93380000D03*
X120800000Y-94400000D03*
D37*
X138887500Y-112500000D03*
X140712500Y-112500000D03*
D27*
X128205000Y-114377500D03*
X128205000Y-113357500D03*
D26*
X138825000Y-101200000D03*
X141775000Y-101200000D03*
D18*
X147200000Y-104650000D03*
X147200000Y-101700000D03*
D15*
X131095000Y-115567500D03*
X132115000Y-115567500D03*
M02*
