M48
; DRILL file {KiCad 8.0.1} date 2025-04-04T11:27:11-0400
; FORMAT={-:-/ absolute / metric / decimal}
; #@! TF.CreationDate,2025-04-04T11:27:11-04:00
; #@! TF.GenerationSoftware,Kicad,Pcbnew,8.0.1
; #@! TF.FileFunction,Plated,1,4,PTH
FMAT,2
METRIC
; #@! TA.AperFunction,Plated,PTH,ViaDrill
T1C0.300
; #@! TA.AperFunction,Plated,PTH,ViaDrill
T2C0.450
; #@! TA.AperFunction,Plated,PTH,ComponentDrill
T3C1.000
; #@! TA.AperFunction,Plated,PTH,ComponentDrill
T4C2.200
; #@! TA.AperFunction,Plated,PTH,ComponentDrill
T5C2.700
%
G90
G05
T1
X119.2Y-100.3
X120.3Y-95.4
X120.4Y-98.0
X120.4Y-99.0
X120.4Y-104.2
X121.1Y-106.1
X121.4Y-98.0
X121.4Y-99.0
X122.0Y-113.7
X122.1Y-93.2
X122.1Y-101.8
X122.8Y-111.9
X123.0Y-110.0
X123.0Y-111.0
X123.5Y-104.0
X124.0Y-110.0
X124.0Y-111.0
X124.1Y-105.9
X125.0Y-111.0
X125.125Y-97.9
X126.7Y-100.2
X127.0Y-101.1
X127.0Y-113.2
X127.8Y-105.7
X128.3Y-89.9
X128.3Y-90.9
X128.3Y-92.0
X130.5Y-102.0
X130.65Y-104.95
X130.9Y-104.0
X131.0Y-109.0
X131.1Y-107.2
X132.3Y-108.0
X132.6Y-114.8
X133.2Y-110.4
X134.3Y-110.4
X134.5Y-115.4
X134.7Y-116.2
X135.6Y-110.4
X137.0Y-102.7
X137.0Y-116.5
X138.1Y-115.5
X138.4Y-109.6
X140.2Y-113.8
X143.0Y-99.3
X154.2Y-101.7
X154.5Y-106.2
X154.5Y-107.1
X154.5Y-108.0
T2
X116.0Y-97.0
X116.0Y-99.0
X116.0Y-101.0
X116.0Y-103.0
X116.0Y-105.0
X116.0Y-107.0
X116.0Y-109.0
X116.0Y-111.0
X116.0Y-113.0
X116.0Y-115.0
X121.0Y-117.5
X122.0Y-119.0
X125.9Y-98.3
X128.0Y-89.0
X128.0Y-119.0
X129.8Y-93.8
X130.0Y-89.0
X130.0Y-117.0
X130.0Y-119.0
X131.22Y-110.363
X131.3Y-97.3
X132.0Y-89.0
X132.0Y-117.0
X132.0Y-119.0
X134.0Y-89.0
X134.0Y-119.0
X136.0Y-89.0
X136.0Y-117.0
X136.0Y-119.0
X138.0Y-89.0
X138.0Y-117.0
X138.0Y-119.0
X140.0Y-89.0
X140.0Y-117.0
X140.0Y-119.0
X140.5Y-98.0
X140.5Y-99.0
X140.5Y-100.0
X140.5Y-101.0
X140.5Y-102.0
X142.0Y-89.0
X142.0Y-115.0
X142.0Y-117.0
X142.0Y-119.0
X144.0Y-89.0
X144.0Y-115.0
X144.0Y-117.0
X144.0Y-119.0
X144.1Y-100.2
X145.4Y-100.2
X146.0Y-89.0
X146.0Y-113.0
X146.0Y-119.0
X148.0Y-88.974
X148.0Y-117.0
X148.0Y-119.0
X150.0Y-89.0
X150.0Y-115.0
X150.0Y-117.0
X150.0Y-119.0
X152.0Y-89.0
X152.0Y-109.0
X152.0Y-110.0
X152.0Y-111.0
X152.0Y-112.0
X152.0Y-113.0
X152.0Y-119.0
X153.0Y-96.0
X153.0Y-97.0
X153.0Y-98.0
X153.0Y-99.0
X153.0Y-100.0
X153.0Y-110.0
X153.0Y-111.0
X153.0Y-112.0
X153.0Y-113.0
X154.0Y-89.0
X154.0Y-96.0
X154.0Y-97.0
X154.0Y-98.0
X154.0Y-99.0
X154.0Y-100.0
X154.0Y-109.0
X154.0Y-115.0
X154.0Y-117.0
X154.0Y-119.0
X155.99Y-95.0
X156.0Y-89.0
X156.0Y-97.0
X156.0Y-99.0
X156.0Y-101.0
X156.0Y-103.0
X156.0Y-105.0
X156.0Y-107.0
X156.0Y-109.0
X156.0Y-111.0
X156.0Y-113.0
X156.0Y-115.0
X156.0Y-117.0
X156.0Y-119.0
X158.0Y-89.0
X158.0Y-103.0
X158.0Y-105.0
X158.0Y-107.0
X158.0Y-109.0
X158.0Y-119.0
X160.0Y-101.0
X160.0Y-103.0
X160.0Y-105.0
X160.0Y-107.0
X162.0Y-93.0
X162.0Y-101.0
X162.0Y-103.0
X162.0Y-105.0
X162.0Y-107.0
X162.0Y-109.0
X162.0Y-115.0
T3
X117.65Y-96.38
X117.65Y-98.92
X117.65Y-101.46
X117.65Y-104.0
X117.65Y-106.54
X117.65Y-109.08
X117.65Y-111.62
X132.5Y-93.5
X136.0Y-93.5
X147.0Y-107.9
T4
X118.0Y-117.0
X160.0Y-91.0
X160.0Y-117.0
T5
X149.6Y-92.0
X154.6Y-92.0
M30
