G04 #@! TF.GenerationSoftware,KiCad,Pcbnew,8.0.1*
G04 #@! TF.CreationDate,2025-04-04T11:27:09-04:00*
G04 #@! TF.ProjectId,cutdown,63757464-6f77-46e2-9e6b-696361645f70,V1.0*
G04 #@! TF.SameCoordinates,Original*
G04 #@! TF.FileFunction,Soldermask,Top*
G04 #@! TF.FilePolarity,Negative*
%FSLAX46Y46*%
G04 Gerber Fmt 4.6, Leading zero omitted, Abs format (unit mm)*
G04 Created by KiCad (PCBNEW 8.0.1) date 2025-04-04 11:27:09*
%MOMM*%
%LPD*%
G01*
G04 APERTURE LIST*
G04 Aperture macros list*
%AMRoundRect*
0 Rectangle with rounded corners*
0 $1 Rounding radius*
0 $2 $3 $4 $5 $6 $7 $8 $9 X,Y pos of 4 corners*
0 Add a 4 corners polygon primitive as box body*
4,1,4,$2,$3,$4,$5,$6,$7,$8,$9,$2,$3,0*
0 Add four circle primitives for the rounded corners*
1,1,$1+$1,$2,$3*
1,1,$1+$1,$4,$5*
1,1,$1+$1,$6,$7*
1,1,$1+$1,$8,$9*
0 Add four rect primitives between the rounded corners*
20,1,$1+$1,$2,$3,$4,$5,0*
20,1,$1+$1,$4,$5,$6,$7,0*
20,1,$1+$1,$6,$7,$8,$9,0*
20,1,$1+$1,$8,$9,$2,$3,0*%
G04 Aperture macros list end*
%ADD10C,0.000000*%
%ADD11C,0.182463*%
%ADD12C,0.002645*%
%ADD13RoundRect,0.250000X-0.650000X0.325000X-0.650000X-0.325000X0.650000X-0.325000X0.650000X0.325000X0*%
%ADD14RoundRect,0.225000X-0.250000X0.225000X-0.250000X-0.225000X0.250000X-0.225000X0.250000X0.225000X0*%
%ADD15C,2.000000*%
%ADD16RoundRect,0.135000X-0.185000X0.135000X-0.185000X-0.135000X0.185000X-0.135000X0.185000X0.135000X0*%
%ADD17RoundRect,0.250000X0.250000X0.475000X-0.250000X0.475000X-0.250000X-0.475000X0.250000X-0.475000X0*%
%ADD18RoundRect,0.135000X-0.135000X-0.185000X0.135000X-0.185000X0.135000X0.185000X-0.135000X0.185000X0*%
%ADD19R,4.400000X4.300000*%
%ADD20R,0.650000X0.630000*%
%ADD21RoundRect,0.250000X0.650000X-0.325000X0.650000X0.325000X-0.650000X0.325000X-0.650000X-0.325000X0*%
%ADD22RoundRect,0.500000X0.500000X0.895000X-0.500000X0.895000X-0.500000X-0.895000X0.500000X-0.895000X0*%
%ADD23RoundRect,0.225000X-0.225000X-0.250000X0.225000X-0.250000X0.225000X0.250000X-0.225000X0.250000X0*%
%ADD24RoundRect,0.225000X0.250000X-0.225000X0.250000X0.225000X-0.250000X0.225000X-0.250000X-0.225000X0*%
%ADD25R,1.700000X1.700000*%
%ADD26O,1.700000X1.700000*%
%ADD27C,3.800000*%
%ADD28RoundRect,0.250000X-0.375000X-1.075000X0.375000X-1.075000X0.375000X1.075000X-0.375000X1.075000X0*%
%ADD29RoundRect,0.100000X-0.625000X-0.100000X0.625000X-0.100000X0.625000X0.100000X-0.625000X0.100000X0*%
%ADD30R,1.650000X2.850000*%
%ADD31RoundRect,0.100000X0.100000X-0.225000X0.100000X0.225000X-0.100000X0.225000X-0.100000X-0.225000X0*%
%ADD32RoundRect,0.250000X-0.325000X-0.650000X0.325000X-0.650000X0.325000X0.650000X-0.325000X0.650000X0*%
%ADD33RoundRect,0.135000X0.185000X-0.135000X0.185000X0.135000X-0.185000X0.135000X-0.185000X-0.135000X0*%
%ADD34RoundRect,0.250000X-1.425000X0.362500X-1.425000X-0.362500X1.425000X-0.362500X1.425000X0.362500X0*%
%ADD35RoundRect,0.135000X0.135000X0.185000X-0.135000X0.185000X-0.135000X-0.185000X0.135000X-0.185000X0*%
%ADD36RoundRect,0.100000X0.100000X-0.712500X0.100000X0.712500X-0.100000X0.712500X-0.100000X-0.712500X0*%
%ADD37RoundRect,0.250000X-0.362500X-1.425000X0.362500X-1.425000X0.362500X1.425000X-0.362500X1.425000X0*%
%ADD38RoundRect,0.237500X0.250000X0.237500X-0.250000X0.237500X-0.250000X-0.237500X0.250000X-0.237500X0*%
%ADD39R,3.800000X3.800000*%
%ADD40C,4.000000*%
%ADD41RoundRect,0.100000X0.225000X0.100000X-0.225000X0.100000X-0.225000X-0.100000X0.225000X-0.100000X0*%
%ADD42RoundRect,0.250000X-0.475000X0.250000X-0.475000X-0.250000X0.475000X-0.250000X0.475000X0.250000X0*%
%ADD43RoundRect,0.250000X1.075000X-0.375000X1.075000X0.375000X-1.075000X0.375000X-1.075000X-0.375000X0*%
%ADD44RoundRect,0.250000X0.300000X-0.300000X0.300000X0.300000X-0.300000X0.300000X-0.300000X-0.300000X0*%
%ADD45RoundRect,0.237500X-0.250000X-0.237500X0.250000X-0.237500X0.250000X0.237500X-0.250000X0.237500X0*%
%ADD46C,3.000000*%
G04 APERTURE END LIST*
D10*
G36*
X133505000Y-104340672D02*
G01*
X132715000Y-104340672D01*
X132715000Y-103570672D01*
X133505000Y-103570672D01*
X133505000Y-104340672D01*
G37*
G36*
X133505000Y-109810816D02*
G01*
X132715000Y-109810816D01*
X132715000Y-109040816D01*
X133505000Y-109040816D01*
X133505000Y-109810816D01*
G37*
G36*
X134775000Y-104340672D02*
G01*
X133985000Y-104340672D01*
X133985000Y-103570672D01*
X134775000Y-103570672D01*
X134775000Y-104340672D01*
G37*
G36*
X134775000Y-109810816D02*
G01*
X133985000Y-109810816D01*
X133985000Y-109040816D01*
X134775000Y-109040816D01*
X134775000Y-109810816D01*
G37*
G36*
X136045000Y-104340672D02*
G01*
X135255000Y-104340672D01*
X135255000Y-103570672D01*
X136045000Y-103570672D01*
X136045000Y-104340672D01*
G37*
G36*
X136045000Y-109810816D02*
G01*
X135255000Y-109810816D01*
X135255000Y-109040816D01*
X136045000Y-109040816D01*
X136045000Y-109810816D01*
G37*
G36*
X137315000Y-104340672D02*
G01*
X136525000Y-104340672D01*
X136525000Y-103570672D01*
X137315000Y-103570672D01*
X137315000Y-104340672D01*
G37*
G36*
X137315000Y-109810816D02*
G01*
X136525000Y-109810816D01*
X136525000Y-109040816D01*
X137315000Y-109040816D01*
X137315000Y-109810816D01*
G37*
G36*
X137244999Y-108235943D02*
G01*
X135015000Y-108235943D01*
X135015000Y-103945543D01*
X137244999Y-103945543D01*
X137244999Y-108235943D01*
G37*
D11*
X156436956Y-104475593D02*
X156369585Y-104526903D01*
X156507407Y-104418148D02*
X156436956Y-104475593D01*
X156547810Y-104383430D02*
X156507407Y-104418148D01*
X156590135Y-104345459D02*
X156547810Y-104383430D01*
X156633236Y-104304792D02*
X156590135Y-104345459D01*
X156675965Y-104261987D02*
X156633236Y-104304792D01*
X156717176Y-104217601D02*
X156675965Y-104261987D01*
X156755722Y-104172194D02*
X156717176Y-104217601D01*
X156790456Y-104126321D02*
X156755722Y-104172194D01*
X156806035Y-104103385D02*
X156790456Y-104126321D01*
X156820230Y-104080542D02*
X156806035Y-104103385D01*
X156832900Y-104057861D02*
X156820230Y-104080542D01*
X156843899Y-104035413D02*
X156832900Y-104057861D01*
X156853086Y-104013267D02*
X156843899Y-104035413D01*
X156860315Y-103991492D02*
X156853086Y-104013267D01*
X156860315Y-103991492D02*
X156860315Y-103991492D01*
X156869889Y-103953233D02*
X156860315Y-103991492D01*
X156878070Y-103910685D02*
X156869889Y-103953233D01*
X156885018Y-103864555D02*
X156878070Y-103910685D01*
X156890887Y-103815554D02*
X156885018Y-103864555D01*
X156900017Y-103711777D02*
X156890887Y-103815554D01*
X156906715Y-103605029D02*
X156900017Y-103711777D01*
X156917827Y-103405318D02*
X156906715Y-103605029D01*
X156924747Y-103323706D02*
X156917827Y-103405318D01*
X156929096Y-103289945D02*
X156924747Y-103323706D01*
X156934248Y-103261824D02*
X156929096Y-103289945D01*
X156934248Y-103261824D02*
X156934248Y-103261824D01*
X156938942Y-103242098D02*
X156934248Y-103261824D01*
X156944093Y-103222761D02*
X156938942Y-103242098D01*
X156949661Y-103203829D02*
X156944093Y-103222761D01*
X156955605Y-103185316D02*
X156949661Y-103203829D01*
X156961887Y-103167240D02*
X156955605Y-103185316D01*
X156968467Y-103149615D02*
X156961887Y-103167240D01*
X156975304Y-103132457D02*
X156968467Y-103149615D01*
X156982359Y-103115781D02*
X156975304Y-103132457D01*
X156989593Y-103099604D02*
X156982359Y-103115781D01*
X156996965Y-103083940D02*
X156989593Y-103099604D01*
X157004437Y-103068805D02*
X156996965Y-103083940D01*
X157011968Y-103054214D02*
X157004437Y-103068805D01*
X157027049Y-103026730D02*
X157011968Y-103054214D01*
X157041891Y-103001610D02*
X157027049Y-103026730D01*
X157056176Y-102978980D02*
X157041891Y-103001610D01*
X157069587Y-102958964D02*
X157056176Y-102978980D01*
X157081806Y-102941686D02*
X157069587Y-102958964D01*
X157092516Y-102927270D02*
X157081806Y-102941686D01*
X157108136Y-102907524D02*
X157092516Y-102927270D01*
X157113908Y-102900721D02*
X157108136Y-102907524D01*
D12*
X157326125Y-102659209D02*
X157263874Y-103031478D01*
X156928141Y-102885296D01*
X157158257Y-102586105D01*
X157326125Y-102659209D01*
G36*
X157326125Y-102659209D02*
G01*
X157263874Y-103031478D01*
X156928141Y-102885296D01*
X157158257Y-102586105D01*
X157326125Y-102659209D01*
G37*
X157866044Y-100183588D02*
X157892913Y-100184655D01*
X157919800Y-100186395D01*
X157946690Y-100188812D01*
X157973574Y-100191912D01*
X158000439Y-100195700D01*
X158027274Y-100200180D01*
X158054067Y-100205358D01*
X158080806Y-100211238D01*
X158107480Y-100217826D01*
X158134077Y-100225126D01*
X158160585Y-100233144D01*
X158186993Y-100241883D01*
X158213289Y-100251350D01*
X158239462Y-100261549D01*
X158265499Y-100272486D01*
X158316543Y-100296307D01*
X158365782Y-100322482D01*
X158413183Y-100350917D01*
X158458708Y-100381517D01*
X158502322Y-100414189D01*
X158543990Y-100448837D01*
X158583674Y-100485369D01*
X158621341Y-100523689D01*
X158656953Y-100563704D01*
X158690476Y-100605319D01*
X158721872Y-100648440D01*
X158751108Y-100692973D01*
X158778146Y-100738823D01*
X158802951Y-100785897D01*
X158825488Y-100834101D01*
X158845720Y-100883339D01*
X158863612Y-100933518D01*
X158879128Y-100984544D01*
X158892232Y-101036322D01*
X158902889Y-101088759D01*
X158911062Y-101141760D01*
X158916716Y-101195230D01*
X158919815Y-101249076D01*
X158920324Y-101303204D01*
X158918206Y-101357518D01*
X158913426Y-101411926D01*
X158905949Y-101466333D01*
X158895737Y-101520644D01*
X158882756Y-101574766D01*
X158866970Y-101628604D01*
X158848343Y-101682064D01*
X158826839Y-101735052D01*
X158775155Y-101839981D01*
X158711341Y-101946035D01*
X158636576Y-102051709D01*
X158552043Y-102155499D01*
X158458922Y-102255901D01*
X158358395Y-102351411D01*
X158251643Y-102440525D01*
X158139848Y-102521739D01*
X158024191Y-102593550D01*
X157965283Y-102625458D01*
X157905853Y-102654452D01*
X157846048Y-102680342D01*
X157786016Y-102702942D01*
X157725904Y-102722062D01*
X157665860Y-102737516D01*
X157606033Y-102749114D01*
X157546568Y-102756669D01*
X157487615Y-102759994D01*
X157429320Y-102758899D01*
X157371832Y-102753197D01*
X157315299Y-102742701D01*
X157259866Y-102727221D01*
X157205684Y-102706570D01*
X157153656Y-102680974D01*
X157104562Y-102650940D01*
X157058364Y-102616705D01*
X157015027Y-102578505D01*
X156974513Y-102536576D01*
X156936785Y-102491155D01*
X156901805Y-102442477D01*
X156869538Y-102390779D01*
X156839945Y-102336297D01*
X156812990Y-102279267D01*
X156766846Y-102158507D01*
X156730809Y-102030389D01*
X156704584Y-101896803D01*
X156687873Y-101759637D01*
X156680382Y-101620782D01*
X156681813Y-101482125D01*
X156691871Y-101345557D01*
X156710259Y-101212967D01*
X156736682Y-101086245D01*
X156770843Y-100967278D01*
X156812447Y-100857958D01*
X156849526Y-100780864D01*
X156891688Y-100707828D01*
X156938617Y-100638979D01*
X156989997Y-100574444D01*
X157045516Y-100514351D01*
X157104856Y-100458830D01*
X157167704Y-100408008D01*
X157233745Y-100362012D01*
X157302662Y-100320971D01*
X157374143Y-100285014D01*
X157447871Y-100254268D01*
X157523532Y-100228861D01*
X157600810Y-100208922D01*
X157679391Y-100194578D01*
X157758960Y-100185957D01*
X157839202Y-100183189D01*
X157866044Y-100183588D01*
G36*
X157866044Y-100183588D02*
G01*
X157892913Y-100184655D01*
X157919800Y-100186395D01*
X157946690Y-100188812D01*
X157973574Y-100191912D01*
X158000439Y-100195700D01*
X158027274Y-100200180D01*
X158054067Y-100205358D01*
X158080806Y-100211238D01*
X158107480Y-100217826D01*
X158134077Y-100225126D01*
X158160585Y-100233144D01*
X158186993Y-100241883D01*
X158213289Y-100251350D01*
X158239462Y-100261549D01*
X158265499Y-100272486D01*
X158316543Y-100296307D01*
X158365782Y-100322482D01*
X158413183Y-100350917D01*
X158458708Y-100381517D01*
X158502322Y-100414189D01*
X158543990Y-100448837D01*
X158583674Y-100485369D01*
X158621341Y-100523689D01*
X158656953Y-100563704D01*
X158690476Y-100605319D01*
X158721872Y-100648440D01*
X158751108Y-100692973D01*
X158778146Y-100738823D01*
X158802951Y-100785897D01*
X158825488Y-100834101D01*
X158845720Y-100883339D01*
X158863612Y-100933518D01*
X158879128Y-100984544D01*
X158892232Y-101036322D01*
X158902889Y-101088759D01*
X158911062Y-101141760D01*
X158916716Y-101195230D01*
X158919815Y-101249076D01*
X158920324Y-101303204D01*
X158918206Y-101357518D01*
X158913426Y-101411926D01*
X158905949Y-101466333D01*
X158895737Y-101520644D01*
X158882756Y-101574766D01*
X158866970Y-101628604D01*
X158848343Y-101682064D01*
X158826839Y-101735052D01*
X158775155Y-101839981D01*
X158711341Y-101946035D01*
X158636576Y-102051709D01*
X158552043Y-102155499D01*
X158458922Y-102255901D01*
X158358395Y-102351411D01*
X158251643Y-102440525D01*
X158139848Y-102521739D01*
X158024191Y-102593550D01*
X157965283Y-102625458D01*
X157905853Y-102654452D01*
X157846048Y-102680342D01*
X157786016Y-102702942D01*
X157725904Y-102722062D01*
X157665860Y-102737516D01*
X157606033Y-102749114D01*
X157546568Y-102756669D01*
X157487615Y-102759994D01*
X157429320Y-102758899D01*
X157371832Y-102753197D01*
X157315299Y-102742701D01*
X157259866Y-102727221D01*
X157205684Y-102706570D01*
X157153656Y-102680974D01*
X157104562Y-102650940D01*
X157058364Y-102616705D01*
X157015027Y-102578505D01*
X156974513Y-102536576D01*
X156936785Y-102491155D01*
X156901805Y-102442477D01*
X156869538Y-102390779D01*
X156839945Y-102336297D01*
X156812990Y-102279267D01*
X156766846Y-102158507D01*
X156730809Y-102030389D01*
X156704584Y-101896803D01*
X156687873Y-101759637D01*
X156680382Y-101620782D01*
X156681813Y-101482125D01*
X156691871Y-101345557D01*
X156710259Y-101212967D01*
X156736682Y-101086245D01*
X156770843Y-100967278D01*
X156812447Y-100857958D01*
X156849526Y-100780864D01*
X156891688Y-100707828D01*
X156938617Y-100638979D01*
X156989997Y-100574444D01*
X157045516Y-100514351D01*
X157104856Y-100458830D01*
X157167704Y-100408008D01*
X157233745Y-100362012D01*
X157302662Y-100320971D01*
X157374143Y-100285014D01*
X157447871Y-100254268D01*
X157523532Y-100228861D01*
X157600810Y-100208922D01*
X157679391Y-100194578D01*
X157758960Y-100185957D01*
X157839202Y-100183189D01*
X157866044Y-100183588D01*
G37*
D10*
G36*
X133495000Y-96770528D02*
G01*
X132705000Y-96770528D01*
X132705000Y-96000528D01*
X133495000Y-96000528D01*
X133495000Y-96770528D01*
G37*
G36*
X133495000Y-102240672D02*
G01*
X132705000Y-102240672D01*
X132705000Y-101470672D01*
X133495000Y-101470672D01*
X133495000Y-102240672D01*
G37*
G36*
X135005000Y-100665799D02*
G01*
X132775001Y-100665799D01*
X132775001Y-96375399D01*
X135005000Y-96375399D01*
X135005000Y-100665799D01*
G37*
G36*
X134765000Y-96770528D02*
G01*
X133975000Y-96770528D01*
X133975000Y-96000528D01*
X134765000Y-96000528D01*
X134765000Y-96770528D01*
G37*
G36*
X134765000Y-102240672D02*
G01*
X133975000Y-102240672D01*
X133975000Y-101470672D01*
X134765000Y-101470672D01*
X134765000Y-102240672D01*
G37*
G36*
X136035000Y-96770528D02*
G01*
X135245000Y-96770528D01*
X135245000Y-96000528D01*
X136035000Y-96000528D01*
X136035000Y-96770528D01*
G37*
G36*
X136035000Y-102240672D02*
G01*
X135245000Y-102240672D01*
X135245000Y-101470672D01*
X136035000Y-101470672D01*
X136035000Y-102240672D01*
G37*
G36*
X137305000Y-96770528D02*
G01*
X136515000Y-96770528D01*
X136515000Y-96000528D01*
X137305000Y-96000528D01*
X137305000Y-96770528D01*
G37*
G36*
X137305000Y-102240672D02*
G01*
X136515000Y-102240672D01*
X136515000Y-101470672D01*
X137305000Y-101470672D01*
X137305000Y-102240672D01*
G37*
G36*
X137234999Y-100665799D02*
G01*
X135005000Y-100665799D01*
X135005000Y-96375399D01*
X137234999Y-96375399D01*
X137234999Y-100665799D01*
G37*
D13*
X144800000Y-98425000D03*
X144800000Y-101375000D03*
D14*
X122200000Y-94425000D03*
X122200000Y-95975000D03*
X131400000Y-99300000D03*
X131400000Y-100850000D03*
D15*
X132500000Y-93500000D03*
D16*
X132305000Y-112757500D03*
X132305000Y-113777500D03*
D17*
X122199998Y-100500000D03*
X120300000Y-100500000D03*
D18*
X120090000Y-114000000D03*
X121110000Y-114000000D03*
D19*
X135015000Y-106108228D03*
D20*
X133110000Y-103955672D03*
X134380000Y-103955672D03*
X135650000Y-103955672D03*
X136920000Y-103955672D03*
X136920000Y-109425816D03*
X133110000Y-109425816D03*
X134380000Y-109425816D03*
X135650000Y-109425816D03*
D21*
X149700000Y-104650000D03*
X149700000Y-101700000D03*
D22*
X139350000Y-105700000D03*
X143850000Y-105700000D03*
D23*
X139725000Y-93400000D03*
X141275000Y-93400000D03*
D24*
X123700000Y-108775000D03*
X123700000Y-107225000D03*
D25*
X117650000Y-96380000D03*
D26*
X117650000Y-98920000D03*
X117650000Y-101460000D03*
X117650000Y-104000000D03*
X117650000Y-106540000D03*
X117650000Y-109080000D03*
X117650000Y-111620000D03*
D27*
X160000000Y-91000000D03*
D28*
X138800000Y-95900000D03*
X141600000Y-95900000D03*
D29*
X124850000Y-101400000D03*
X124850000Y-102050000D03*
X124850000Y-102700000D03*
X124850000Y-103350000D03*
X124850000Y-104000000D03*
X124850000Y-104650000D03*
X129150000Y-104650000D03*
X129150000Y-104000000D03*
X129150000Y-103350000D03*
X129150000Y-102700000D03*
X129150000Y-102050000D03*
X129150000Y-101400000D03*
D30*
X127000000Y-103025000D03*
D31*
X129600000Y-114300000D03*
X130250000Y-114300000D03*
X130900000Y-114300000D03*
X130900000Y-112400000D03*
X129600000Y-112400000D03*
D19*
X135005000Y-98620600D03*
D20*
X133100000Y-96385528D03*
X134370000Y-96385528D03*
X135640000Y-96385528D03*
X136910000Y-96385528D03*
X136910000Y-101855672D03*
X133100000Y-101855672D03*
X134370000Y-101855672D03*
X135640000Y-101855672D03*
D32*
X150125000Y-106800000D03*
X153075000Y-106800000D03*
D33*
X120800000Y-97010000D03*
X120800000Y-95990000D03*
D34*
X144500000Y-90537500D03*
X144500000Y-96462500D03*
D35*
X121110000Y-113000000D03*
X120090000Y-113000000D03*
D15*
X147000000Y-107900000D03*
X136000000Y-93500000D03*
D36*
X123825000Y-99612500D03*
X124475000Y-99612500D03*
X125125000Y-99612500D03*
X125775000Y-99612500D03*
X125775000Y-95387500D03*
X125125000Y-95387500D03*
X124475000Y-95387500D03*
X123825000Y-95387500D03*
D37*
X146737500Y-115800000D03*
X152662500Y-115800000D03*
D38*
X137212500Y-112500000D03*
X135387500Y-112500000D03*
D27*
X160000000Y-117000000D03*
D21*
X152100000Y-104675000D03*
X152100000Y-101725000D03*
D13*
X129300000Y-106625000D03*
X129300000Y-109575000D03*
D39*
X154600000Y-92000000D03*
D40*
X149600000Y-92000000D03*
D41*
X139050000Y-115450000D03*
X139050000Y-114800000D03*
X139050000Y-114150000D03*
X137150000Y-114150000D03*
X137150000Y-115450000D03*
D27*
X118000000Y-117000000D03*
D42*
X129800000Y-91050000D03*
X129800000Y-92950000D03*
D43*
X126200000Y-109500000D03*
X126200000Y-106700000D03*
D24*
X127500000Y-97675000D03*
X127500000Y-96125000D03*
D18*
X129095000Y-115567500D03*
X130115000Y-115567500D03*
D44*
X129500000Y-99800000D03*
X129500000Y-97000000D03*
D32*
X138825000Y-98800000D03*
X141775000Y-98800000D03*
D33*
X122500000Y-98210000D03*
X122500000Y-97190000D03*
D16*
X120800000Y-93380000D03*
X120800000Y-94400000D03*
D45*
X138887500Y-112500000D03*
X140712500Y-112500000D03*
D33*
X128205000Y-114377500D03*
X128205000Y-113357500D03*
D32*
X138825000Y-101200000D03*
X141775000Y-101200000D03*
D21*
X147200000Y-104650000D03*
X147200000Y-101700000D03*
D18*
X131095000Y-115567500D03*
X132115000Y-115567500D03*
D46*
X160000000Y-97400000D03*
X124500000Y-91000000D03*
X149000000Y-97400000D03*
X160000000Y-111400000D03*
X149000000Y-111400000D03*
X124500000Y-116575000D03*
M02*
