G04 #@! TF.GenerationSoftware,KiCad,Pcbnew,8.0.1*
G04 #@! TF.CreationDate,2025-04-04T11:27:09-04:00*
G04 #@! TF.ProjectId,cutdown,63757464-6f77-46e2-9e6b-696361645f70,V1.0*
G04 #@! TF.SameCoordinates,Original*
G04 #@! TF.FileFunction,Legend,Top*
G04 #@! TF.FilePolarity,Positive*
%FSLAX46Y46*%
G04 Gerber Fmt 4.6, Leading zero omitted, Abs format (unit mm)*
G04 Created by KiCad (PCBNEW 8.0.1) date 2025-04-04 11:27:09*
%MOMM*%
%LPD*%
G01*
G04 APERTURE LIST*
G04 Aperture macros list*
%AMRoundRect*
0 Rectangle with rounded corners*
0 $1 Rounding radius*
0 $2 $3 $4 $5 $6 $7 $8 $9 X,Y pos of 4 corners*
0 Add a 4 corners polygon primitive as box body*
4,1,4,$2,$3,$4,$5,$6,$7,$8,$9,$2,$3,0*
0 Add four circle primitives for the rounded corners*
1,1,$1+$1,$2,$3*
1,1,$1+$1,$4,$5*
1,1,$1+$1,$6,$7*
1,1,$1+$1,$8,$9*
0 Add four rect primitives between the rounded corners*
20,1,$1+$1,$2,$3,$4,$5,0*
20,1,$1+$1,$4,$5,$6,$7,0*
20,1,$1+$1,$6,$7,$8,$9,0*
20,1,$1+$1,$8,$9,$2,$3,0*%
G04 Aperture macros list end*
%ADD10C,0.120000*%
%ADD11C,0.125000*%
%ADD12C,0.150000*%
%ADD13C,0.152400*%
%ADD14C,0.000000*%
%ADD15C,0.182463*%
%ADD16C,0.002645*%
%ADD17RoundRect,0.250000X-0.650000X0.325000X-0.650000X-0.325000X0.650000X-0.325000X0.650000X0.325000X0*%
%ADD18RoundRect,0.225000X-0.250000X0.225000X-0.250000X-0.225000X0.250000X-0.225000X0.250000X0.225000X0*%
%ADD19C,2.000000*%
%ADD20RoundRect,0.135000X-0.185000X0.135000X-0.185000X-0.135000X0.185000X-0.135000X0.185000X0.135000X0*%
%ADD21RoundRect,0.250000X0.250000X0.475000X-0.250000X0.475000X-0.250000X-0.475000X0.250000X-0.475000X0*%
%ADD22RoundRect,0.135000X-0.135000X-0.185000X0.135000X-0.185000X0.135000X0.185000X-0.135000X0.185000X0*%
%ADD23R,4.400000X4.300000*%
%ADD24R,0.650000X0.630000*%
%ADD25RoundRect,0.250000X0.650000X-0.325000X0.650000X0.325000X-0.650000X0.325000X-0.650000X-0.325000X0*%
%ADD26RoundRect,0.500000X0.500000X0.895000X-0.500000X0.895000X-0.500000X-0.895000X0.500000X-0.895000X0*%
%ADD27RoundRect,0.225000X-0.225000X-0.250000X0.225000X-0.250000X0.225000X0.250000X-0.225000X0.250000X0*%
%ADD28RoundRect,0.225000X0.250000X-0.225000X0.250000X0.225000X-0.250000X0.225000X-0.250000X-0.225000X0*%
%ADD29R,1.700000X1.700000*%
%ADD30O,1.700000X1.700000*%
%ADD31C,3.800000*%
%ADD32RoundRect,0.250000X-0.375000X-1.075000X0.375000X-1.075000X0.375000X1.075000X-0.375000X1.075000X0*%
%ADD33RoundRect,0.100000X-0.625000X-0.100000X0.625000X-0.100000X0.625000X0.100000X-0.625000X0.100000X0*%
%ADD34R,1.650000X2.850000*%
%ADD35RoundRect,0.100000X0.100000X-0.225000X0.100000X0.225000X-0.100000X0.225000X-0.100000X-0.225000X0*%
%ADD36RoundRect,0.250000X-0.325000X-0.650000X0.325000X-0.650000X0.325000X0.650000X-0.325000X0.650000X0*%
%ADD37RoundRect,0.135000X0.185000X-0.135000X0.185000X0.135000X-0.185000X0.135000X-0.185000X-0.135000X0*%
%ADD38RoundRect,0.250000X-1.425000X0.362500X-1.425000X-0.362500X1.425000X-0.362500X1.425000X0.362500X0*%
%ADD39RoundRect,0.135000X0.135000X0.185000X-0.135000X0.185000X-0.135000X-0.185000X0.135000X-0.185000X0*%
%ADD40RoundRect,0.100000X0.100000X-0.712500X0.100000X0.712500X-0.100000X0.712500X-0.100000X-0.712500X0*%
%ADD41RoundRect,0.250000X-0.362500X-1.425000X0.362500X-1.425000X0.362500X1.425000X-0.362500X1.425000X0*%
%ADD42RoundRect,0.237500X0.250000X0.237500X-0.250000X0.237500X-0.250000X-0.237500X0.250000X-0.237500X0*%
%ADD43R,3.800000X3.800000*%
%ADD44C,4.000000*%
%ADD45RoundRect,0.100000X0.225000X0.100000X-0.225000X0.100000X-0.225000X-0.100000X0.225000X-0.100000X0*%
%ADD46RoundRect,0.250000X-0.475000X0.250000X-0.475000X-0.250000X0.475000X-0.250000X0.475000X0.250000X0*%
%ADD47RoundRect,0.250000X1.075000X-0.375000X1.075000X0.375000X-1.075000X0.375000X-1.075000X-0.375000X0*%
%ADD48RoundRect,0.250000X0.300000X-0.300000X0.300000X0.300000X-0.300000X0.300000X-0.300000X-0.300000X0*%
%ADD49RoundRect,0.237500X-0.250000X-0.237500X0.250000X-0.237500X0.250000X0.237500X-0.250000X0.237500X0*%
%ADD50C,3.000000*%
G04 APERTURE END LIST*
D10*
X119436089Y-109225069D02*
X119197994Y-109225069D01*
X119197994Y-109225069D02*
X119197994Y-108725069D01*
X119483709Y-109272688D02*
X119864661Y-109272688D01*
X119983708Y-109225069D02*
X119983708Y-108725069D01*
X120197994Y-109201260D02*
X120269422Y-109225069D01*
X120269422Y-109225069D02*
X120388470Y-109225069D01*
X120388470Y-109225069D02*
X120436089Y-109201260D01*
X120436089Y-109201260D02*
X120459898Y-109177450D01*
X120459898Y-109177450D02*
X120483708Y-109129831D01*
X120483708Y-109129831D02*
X120483708Y-109082212D01*
X120483708Y-109082212D02*
X120459898Y-109034593D01*
X120459898Y-109034593D02*
X120436089Y-109010783D01*
X120436089Y-109010783D02*
X120388470Y-108986974D01*
X120388470Y-108986974D02*
X120293232Y-108963164D01*
X120293232Y-108963164D02*
X120245613Y-108939355D01*
X120245613Y-108939355D02*
X120221803Y-108915545D01*
X120221803Y-108915545D02*
X120197994Y-108867926D01*
X120197994Y-108867926D02*
X120197994Y-108820307D01*
X120197994Y-108820307D02*
X120221803Y-108772688D01*
X120221803Y-108772688D02*
X120245613Y-108748879D01*
X120245613Y-108748879D02*
X120293232Y-108725069D01*
X120293232Y-108725069D02*
X120412279Y-108725069D01*
X120412279Y-108725069D02*
X120483708Y-108748879D01*
X120697993Y-109225069D02*
X120697993Y-108725069D01*
X120697993Y-108725069D02*
X120983707Y-109225069D01*
X120983707Y-109225069D02*
X120983707Y-108725069D01*
X121197994Y-109201260D02*
X121269422Y-109225069D01*
X121269422Y-109225069D02*
X121388470Y-109225069D01*
X121388470Y-109225069D02*
X121436089Y-109201260D01*
X121436089Y-109201260D02*
X121459898Y-109177450D01*
X121459898Y-109177450D02*
X121483708Y-109129831D01*
X121483708Y-109129831D02*
X121483708Y-109082212D01*
X121483708Y-109082212D02*
X121459898Y-109034593D01*
X121459898Y-109034593D02*
X121436089Y-109010783D01*
X121436089Y-109010783D02*
X121388470Y-108986974D01*
X121388470Y-108986974D02*
X121293232Y-108963164D01*
X121293232Y-108963164D02*
X121245613Y-108939355D01*
X121245613Y-108939355D02*
X121221803Y-108915545D01*
X121221803Y-108915545D02*
X121197994Y-108867926D01*
X121197994Y-108867926D02*
X121197994Y-108820307D01*
X121197994Y-108820307D02*
X121221803Y-108772688D01*
X121221803Y-108772688D02*
X121245613Y-108748879D01*
X121245613Y-108748879D02*
X121293232Y-108725069D01*
X121293232Y-108725069D02*
X121412279Y-108725069D01*
X121412279Y-108725069D02*
X121483708Y-108748879D01*
X119364661Y-102063164D02*
X119436089Y-102086974D01*
X119436089Y-102086974D02*
X119459899Y-102110783D01*
X119459899Y-102110783D02*
X119483708Y-102158402D01*
X119483708Y-102158402D02*
X119483708Y-102229831D01*
X119483708Y-102229831D02*
X119459899Y-102277450D01*
X119459899Y-102277450D02*
X119436089Y-102301260D01*
X119436089Y-102301260D02*
X119388470Y-102325069D01*
X119388470Y-102325069D02*
X119197994Y-102325069D01*
X119197994Y-102325069D02*
X119197994Y-101825069D01*
X119197994Y-101825069D02*
X119364661Y-101825069D01*
X119364661Y-101825069D02*
X119412280Y-101848879D01*
X119412280Y-101848879D02*
X119436089Y-101872688D01*
X119436089Y-101872688D02*
X119459899Y-101920307D01*
X119459899Y-101920307D02*
X119459899Y-101967926D01*
X119459899Y-101967926D02*
X119436089Y-102015545D01*
X119436089Y-102015545D02*
X119412280Y-102039355D01*
X119412280Y-102039355D02*
X119364661Y-102063164D01*
X119364661Y-102063164D02*
X119197994Y-102063164D01*
X119674185Y-102182212D02*
X119912280Y-102182212D01*
X119626566Y-102325069D02*
X119793232Y-101825069D01*
X119793232Y-101825069D02*
X119959899Y-102325069D01*
X120055137Y-101825069D02*
X120340851Y-101825069D01*
X120197994Y-102325069D02*
X120197994Y-101825069D01*
X120436089Y-101825069D02*
X120721803Y-101825069D01*
X120578946Y-102325069D02*
X120578946Y-101825069D01*
X120769422Y-102372688D02*
X121150374Y-102372688D01*
X121197993Y-101825069D02*
X121364659Y-102325069D01*
X121364659Y-102325069D02*
X121531326Y-101825069D01*
X119364661Y-103563164D02*
X119436089Y-103586974D01*
X119436089Y-103586974D02*
X119459899Y-103610783D01*
X119459899Y-103610783D02*
X119483708Y-103658402D01*
X119483708Y-103658402D02*
X119483708Y-103729831D01*
X119483708Y-103729831D02*
X119459899Y-103777450D01*
X119459899Y-103777450D02*
X119436089Y-103801260D01*
X119436089Y-103801260D02*
X119388470Y-103825069D01*
X119388470Y-103825069D02*
X119197994Y-103825069D01*
X119197994Y-103825069D02*
X119197994Y-103325069D01*
X119197994Y-103325069D02*
X119364661Y-103325069D01*
X119364661Y-103325069D02*
X119412280Y-103348879D01*
X119412280Y-103348879D02*
X119436089Y-103372688D01*
X119436089Y-103372688D02*
X119459899Y-103420307D01*
X119459899Y-103420307D02*
X119459899Y-103467926D01*
X119459899Y-103467926D02*
X119436089Y-103515545D01*
X119436089Y-103515545D02*
X119412280Y-103539355D01*
X119412280Y-103539355D02*
X119364661Y-103563164D01*
X119364661Y-103563164D02*
X119197994Y-103563164D01*
X119697994Y-103825069D02*
X119697994Y-103325069D01*
X119697994Y-103325069D02*
X119888470Y-103325069D01*
X119888470Y-103325069D02*
X119936089Y-103348879D01*
X119936089Y-103348879D02*
X119959899Y-103372688D01*
X119959899Y-103372688D02*
X119983708Y-103420307D01*
X119983708Y-103420307D02*
X119983708Y-103491736D01*
X119983708Y-103491736D02*
X119959899Y-103539355D01*
X119959899Y-103539355D02*
X119936089Y-103563164D01*
X119936089Y-103563164D02*
X119888470Y-103586974D01*
X119888470Y-103586974D02*
X119697994Y-103586974D01*
X120150375Y-103325069D02*
X120269423Y-103825069D01*
X120269423Y-103825069D02*
X120364661Y-103467926D01*
X120364661Y-103467926D02*
X120459899Y-103825069D01*
X120459899Y-103825069D02*
X120578947Y-103325069D01*
X120769423Y-103825069D02*
X120769423Y-103325069D01*
X120769423Y-103325069D02*
X120936090Y-103682212D01*
X120936090Y-103682212D02*
X121102756Y-103325069D01*
X121102756Y-103325069D02*
X121102756Y-103825069D01*
X119159899Y-96148879D02*
X119112280Y-96125069D01*
X119112280Y-96125069D02*
X119040851Y-96125069D01*
X119040851Y-96125069D02*
X118969423Y-96148879D01*
X118969423Y-96148879D02*
X118921804Y-96196498D01*
X118921804Y-96196498D02*
X118897994Y-96244117D01*
X118897994Y-96244117D02*
X118874185Y-96339355D01*
X118874185Y-96339355D02*
X118874185Y-96410783D01*
X118874185Y-96410783D02*
X118897994Y-96506021D01*
X118897994Y-96506021D02*
X118921804Y-96553640D01*
X118921804Y-96553640D02*
X118969423Y-96601260D01*
X118969423Y-96601260D02*
X119040851Y-96625069D01*
X119040851Y-96625069D02*
X119088470Y-96625069D01*
X119088470Y-96625069D02*
X119159899Y-96601260D01*
X119159899Y-96601260D02*
X119183708Y-96577450D01*
X119183708Y-96577450D02*
X119183708Y-96410783D01*
X119183708Y-96410783D02*
X119088470Y-96410783D01*
X119397994Y-96625069D02*
X119397994Y-96125069D01*
X119397994Y-96125069D02*
X119683708Y-96625069D01*
X119683708Y-96625069D02*
X119683708Y-96125069D01*
X119921804Y-96625069D02*
X119921804Y-96125069D01*
X119921804Y-96125069D02*
X120040852Y-96125069D01*
X120040852Y-96125069D02*
X120112280Y-96148879D01*
X120112280Y-96148879D02*
X120159899Y-96196498D01*
X120159899Y-96196498D02*
X120183709Y-96244117D01*
X120183709Y-96244117D02*
X120207518Y-96339355D01*
X120207518Y-96339355D02*
X120207518Y-96410783D01*
X120207518Y-96410783D02*
X120183709Y-96506021D01*
X120183709Y-96506021D02*
X120159899Y-96553640D01*
X120159899Y-96553640D02*
X120112280Y-96601260D01*
X120112280Y-96601260D02*
X120040852Y-96625069D01*
X120040852Y-96625069D02*
X119921804Y-96625069D01*
X119364661Y-111963164D02*
X119436089Y-111986974D01*
X119436089Y-111986974D02*
X119459899Y-112010783D01*
X119459899Y-112010783D02*
X119483708Y-112058402D01*
X119483708Y-112058402D02*
X119483708Y-112129831D01*
X119483708Y-112129831D02*
X119459899Y-112177450D01*
X119459899Y-112177450D02*
X119436089Y-112201260D01*
X119436089Y-112201260D02*
X119388470Y-112225069D01*
X119388470Y-112225069D02*
X119197994Y-112225069D01*
X119197994Y-112225069D02*
X119197994Y-111725069D01*
X119197994Y-111725069D02*
X119364661Y-111725069D01*
X119364661Y-111725069D02*
X119412280Y-111748879D01*
X119412280Y-111748879D02*
X119436089Y-111772688D01*
X119436089Y-111772688D02*
X119459899Y-111820307D01*
X119459899Y-111820307D02*
X119459899Y-111867926D01*
X119459899Y-111867926D02*
X119436089Y-111915545D01*
X119436089Y-111915545D02*
X119412280Y-111939355D01*
X119412280Y-111939355D02*
X119364661Y-111963164D01*
X119364661Y-111963164D02*
X119197994Y-111963164D01*
X119674185Y-112082212D02*
X119912280Y-112082212D01*
X119626566Y-112225069D02*
X119793232Y-111725069D01*
X119793232Y-111725069D02*
X119959899Y-112225069D01*
X120055137Y-111725069D02*
X120340851Y-111725069D01*
X120197994Y-112225069D02*
X120197994Y-111725069D01*
X120436089Y-111725069D02*
X120721803Y-111725069D01*
X120578946Y-112225069D02*
X120578946Y-111725069D01*
X120769422Y-112272688D02*
X121150374Y-112272688D01*
X121269421Y-112225069D02*
X121269421Y-111725069D01*
X121483707Y-112201260D02*
X121555135Y-112225069D01*
X121555135Y-112225069D02*
X121674183Y-112225069D01*
X121674183Y-112225069D02*
X121721802Y-112201260D01*
X121721802Y-112201260D02*
X121745611Y-112177450D01*
X121745611Y-112177450D02*
X121769421Y-112129831D01*
X121769421Y-112129831D02*
X121769421Y-112082212D01*
X121769421Y-112082212D02*
X121745611Y-112034593D01*
X121745611Y-112034593D02*
X121721802Y-112010783D01*
X121721802Y-112010783D02*
X121674183Y-111986974D01*
X121674183Y-111986974D02*
X121578945Y-111963164D01*
X121578945Y-111963164D02*
X121531326Y-111939355D01*
X121531326Y-111939355D02*
X121507516Y-111915545D01*
X121507516Y-111915545D02*
X121483707Y-111867926D01*
X121483707Y-111867926D02*
X121483707Y-111820307D01*
X121483707Y-111820307D02*
X121507516Y-111772688D01*
X121507516Y-111772688D02*
X121531326Y-111748879D01*
X121531326Y-111748879D02*
X121578945Y-111725069D01*
X121578945Y-111725069D02*
X121697992Y-111725069D01*
X121697992Y-111725069D02*
X121769421Y-111748879D01*
X121983706Y-112225069D02*
X121983706Y-111725069D01*
X121983706Y-111725069D02*
X122269420Y-112225069D01*
X122269420Y-112225069D02*
X122269420Y-111725069D01*
X122483707Y-112201260D02*
X122555135Y-112225069D01*
X122555135Y-112225069D02*
X122674183Y-112225069D01*
X122674183Y-112225069D02*
X122721802Y-112201260D01*
X122721802Y-112201260D02*
X122745611Y-112177450D01*
X122745611Y-112177450D02*
X122769421Y-112129831D01*
X122769421Y-112129831D02*
X122769421Y-112082212D01*
X122769421Y-112082212D02*
X122745611Y-112034593D01*
X122745611Y-112034593D02*
X122721802Y-112010783D01*
X122721802Y-112010783D02*
X122674183Y-111986974D01*
X122674183Y-111986974D02*
X122578945Y-111963164D01*
X122578945Y-111963164D02*
X122531326Y-111939355D01*
X122531326Y-111939355D02*
X122507516Y-111915545D01*
X122507516Y-111915545D02*
X122483707Y-111867926D01*
X122483707Y-111867926D02*
X122483707Y-111820307D01*
X122483707Y-111820307D02*
X122507516Y-111772688D01*
X122507516Y-111772688D02*
X122531326Y-111748879D01*
X122531326Y-111748879D02*
X122578945Y-111725069D01*
X122578945Y-111725069D02*
X122697992Y-111725069D01*
X122697992Y-111725069D02*
X122769421Y-111748879D01*
X119226566Y-106325069D02*
X119512280Y-106325069D01*
X119369423Y-106825069D02*
X119369423Y-106325069D01*
X119678946Y-106825069D02*
X119678946Y-106325069D01*
X119678946Y-106325069D02*
X119869422Y-106325069D01*
X119869422Y-106325069D02*
X119917041Y-106348879D01*
X119917041Y-106348879D02*
X119940851Y-106372688D01*
X119940851Y-106372688D02*
X119964660Y-106420307D01*
X119964660Y-106420307D02*
X119964660Y-106491736D01*
X119964660Y-106491736D02*
X119940851Y-106539355D01*
X119940851Y-106539355D02*
X119917041Y-106563164D01*
X119917041Y-106563164D02*
X119869422Y-106586974D01*
X119869422Y-106586974D02*
X119678946Y-106586974D01*
X120131327Y-106325069D02*
X120250375Y-106825069D01*
X120250375Y-106825069D02*
X120345613Y-106467926D01*
X120345613Y-106467926D02*
X120440851Y-106825069D01*
X120440851Y-106825069D02*
X120559899Y-106325069D01*
X120750375Y-106825069D02*
X120750375Y-106325069D01*
X120750375Y-106325069D02*
X120917042Y-106682212D01*
X120917042Y-106682212D02*
X121083708Y-106325069D01*
X121083708Y-106325069D02*
X121083708Y-106825069D01*
X119197994Y-98963164D02*
X119364661Y-98963164D01*
X119436089Y-99225069D02*
X119197994Y-99225069D01*
X119197994Y-99225069D02*
X119197994Y-98725069D01*
X119197994Y-98725069D02*
X119436089Y-98725069D01*
X119650375Y-99225069D02*
X119650375Y-98725069D01*
X119650375Y-98725069D02*
X119936089Y-99225069D01*
X119936089Y-99225069D02*
X119936089Y-98725069D01*
X119128947Y-98586260D02*
X120005138Y-98586260D01*
D11*
X146416666Y-99677190D02*
X146392857Y-99701000D01*
X146392857Y-99701000D02*
X146321428Y-99724809D01*
X146321428Y-99724809D02*
X146273809Y-99724809D01*
X146273809Y-99724809D02*
X146202381Y-99701000D01*
X146202381Y-99701000D02*
X146154762Y-99653380D01*
X146154762Y-99653380D02*
X146130952Y-99605761D01*
X146130952Y-99605761D02*
X146107143Y-99510523D01*
X146107143Y-99510523D02*
X146107143Y-99439095D01*
X146107143Y-99439095D02*
X146130952Y-99343857D01*
X146130952Y-99343857D02*
X146154762Y-99296238D01*
X146154762Y-99296238D02*
X146202381Y-99248619D01*
X146202381Y-99248619D02*
X146273809Y-99224809D01*
X146273809Y-99224809D02*
X146321428Y-99224809D01*
X146321428Y-99224809D02*
X146392857Y-99248619D01*
X146392857Y-99248619D02*
X146416666Y-99272428D01*
X146892857Y-99724809D02*
X146607143Y-99724809D01*
X146750000Y-99724809D02*
X146750000Y-99224809D01*
X146750000Y-99224809D02*
X146702381Y-99296238D01*
X146702381Y-99296238D02*
X146654762Y-99343857D01*
X146654762Y-99343857D02*
X146607143Y-99367666D01*
X121878571Y-93477190D02*
X121854762Y-93501000D01*
X121854762Y-93501000D02*
X121783333Y-93524809D01*
X121783333Y-93524809D02*
X121735714Y-93524809D01*
X121735714Y-93524809D02*
X121664286Y-93501000D01*
X121664286Y-93501000D02*
X121616667Y-93453380D01*
X121616667Y-93453380D02*
X121592857Y-93405761D01*
X121592857Y-93405761D02*
X121569048Y-93310523D01*
X121569048Y-93310523D02*
X121569048Y-93239095D01*
X121569048Y-93239095D02*
X121592857Y-93143857D01*
X121592857Y-93143857D02*
X121616667Y-93096238D01*
X121616667Y-93096238D02*
X121664286Y-93048619D01*
X121664286Y-93048619D02*
X121735714Y-93024809D01*
X121735714Y-93024809D02*
X121783333Y-93024809D01*
X121783333Y-93024809D02*
X121854762Y-93048619D01*
X121854762Y-93048619D02*
X121878571Y-93072428D01*
X122354762Y-93524809D02*
X122069048Y-93524809D01*
X122211905Y-93524809D02*
X122211905Y-93024809D01*
X122211905Y-93024809D02*
X122164286Y-93096238D01*
X122164286Y-93096238D02*
X122116667Y-93143857D01*
X122116667Y-93143857D02*
X122069048Y-93167666D01*
X122830952Y-93524809D02*
X122545238Y-93524809D01*
X122688095Y-93524809D02*
X122688095Y-93024809D01*
X122688095Y-93024809D02*
X122640476Y-93096238D01*
X122640476Y-93096238D02*
X122592857Y-93143857D01*
X122592857Y-93143857D02*
X122545238Y-93167666D01*
X131316666Y-98277190D02*
X131292857Y-98301000D01*
X131292857Y-98301000D02*
X131221428Y-98324809D01*
X131221428Y-98324809D02*
X131173809Y-98324809D01*
X131173809Y-98324809D02*
X131102381Y-98301000D01*
X131102381Y-98301000D02*
X131054762Y-98253380D01*
X131054762Y-98253380D02*
X131030952Y-98205761D01*
X131030952Y-98205761D02*
X131007143Y-98110523D01*
X131007143Y-98110523D02*
X131007143Y-98039095D01*
X131007143Y-98039095D02*
X131030952Y-97943857D01*
X131030952Y-97943857D02*
X131054762Y-97896238D01*
X131054762Y-97896238D02*
X131102381Y-97848619D01*
X131102381Y-97848619D02*
X131173809Y-97824809D01*
X131173809Y-97824809D02*
X131221428Y-97824809D01*
X131221428Y-97824809D02*
X131292857Y-97848619D01*
X131292857Y-97848619D02*
X131316666Y-97872428D01*
X131507143Y-97872428D02*
X131530952Y-97848619D01*
X131530952Y-97848619D02*
X131578571Y-97824809D01*
X131578571Y-97824809D02*
X131697619Y-97824809D01*
X131697619Y-97824809D02*
X131745238Y-97848619D01*
X131745238Y-97848619D02*
X131769047Y-97872428D01*
X131769047Y-97872428D02*
X131792857Y-97920047D01*
X131792857Y-97920047D02*
X131792857Y-97967666D01*
X131792857Y-97967666D02*
X131769047Y-98039095D01*
X131769047Y-98039095D02*
X131483333Y-98324809D01*
X131483333Y-98324809D02*
X131792857Y-98324809D01*
X131869048Y-91124809D02*
X132154762Y-91124809D01*
X132011905Y-91624809D02*
X132011905Y-91124809D01*
X132321428Y-91624809D02*
X132321428Y-91124809D01*
X132321428Y-91124809D02*
X132511904Y-91124809D01*
X132511904Y-91124809D02*
X132559523Y-91148619D01*
X132559523Y-91148619D02*
X132583333Y-91172428D01*
X132583333Y-91172428D02*
X132607142Y-91220047D01*
X132607142Y-91220047D02*
X132607142Y-91291476D01*
X132607142Y-91291476D02*
X132583333Y-91339095D01*
X132583333Y-91339095D02*
X132559523Y-91362904D01*
X132559523Y-91362904D02*
X132511904Y-91386714D01*
X132511904Y-91386714D02*
X132321428Y-91386714D01*
X133035714Y-91291476D02*
X133035714Y-91624809D01*
X132916666Y-91101000D02*
X132797619Y-91458142D01*
X132797619Y-91458142D02*
X133107142Y-91458142D01*
X132378571Y-112124809D02*
X132211905Y-111886714D01*
X132092857Y-112124809D02*
X132092857Y-111624809D01*
X132092857Y-111624809D02*
X132283333Y-111624809D01*
X132283333Y-111624809D02*
X132330952Y-111648619D01*
X132330952Y-111648619D02*
X132354762Y-111672428D01*
X132354762Y-111672428D02*
X132378571Y-111720047D01*
X132378571Y-111720047D02*
X132378571Y-111791476D01*
X132378571Y-111791476D02*
X132354762Y-111839095D01*
X132354762Y-111839095D02*
X132330952Y-111862904D01*
X132330952Y-111862904D02*
X132283333Y-111886714D01*
X132283333Y-111886714D02*
X132092857Y-111886714D01*
X132854762Y-112124809D02*
X132569048Y-112124809D01*
X132711905Y-112124809D02*
X132711905Y-111624809D01*
X132711905Y-111624809D02*
X132664286Y-111696238D01*
X132664286Y-111696238D02*
X132616667Y-111743857D01*
X132616667Y-111743857D02*
X132569048Y-111767666D01*
X133045238Y-111672428D02*
X133069047Y-111648619D01*
X133069047Y-111648619D02*
X133116666Y-111624809D01*
X133116666Y-111624809D02*
X133235714Y-111624809D01*
X133235714Y-111624809D02*
X133283333Y-111648619D01*
X133283333Y-111648619D02*
X133307142Y-111672428D01*
X133307142Y-111672428D02*
X133330952Y-111720047D01*
X133330952Y-111720047D02*
X133330952Y-111767666D01*
X133330952Y-111767666D02*
X133307142Y-111839095D01*
X133307142Y-111839095D02*
X133021428Y-112124809D01*
X133021428Y-112124809D02*
X133330952Y-112124809D01*
X123016666Y-102277190D02*
X122992857Y-102301000D01*
X122992857Y-102301000D02*
X122921428Y-102324809D01*
X122921428Y-102324809D02*
X122873809Y-102324809D01*
X122873809Y-102324809D02*
X122802381Y-102301000D01*
X122802381Y-102301000D02*
X122754762Y-102253380D01*
X122754762Y-102253380D02*
X122730952Y-102205761D01*
X122730952Y-102205761D02*
X122707143Y-102110523D01*
X122707143Y-102110523D02*
X122707143Y-102039095D01*
X122707143Y-102039095D02*
X122730952Y-101943857D01*
X122730952Y-101943857D02*
X122754762Y-101896238D01*
X122754762Y-101896238D02*
X122802381Y-101848619D01*
X122802381Y-101848619D02*
X122873809Y-101824809D01*
X122873809Y-101824809D02*
X122921428Y-101824809D01*
X122921428Y-101824809D02*
X122992857Y-101848619D01*
X122992857Y-101848619D02*
X123016666Y-101872428D01*
X123445238Y-101991476D02*
X123445238Y-102324809D01*
X123326190Y-101801000D02*
X123207143Y-102158142D01*
X123207143Y-102158142D02*
X123516666Y-102158142D01*
X120306666Y-115224809D02*
X120140000Y-114986714D01*
X120020952Y-115224809D02*
X120020952Y-114724809D01*
X120020952Y-114724809D02*
X120211428Y-114724809D01*
X120211428Y-114724809D02*
X120259047Y-114748619D01*
X120259047Y-114748619D02*
X120282857Y-114772428D01*
X120282857Y-114772428D02*
X120306666Y-114820047D01*
X120306666Y-114820047D02*
X120306666Y-114891476D01*
X120306666Y-114891476D02*
X120282857Y-114939095D01*
X120282857Y-114939095D02*
X120259047Y-114962904D01*
X120259047Y-114962904D02*
X120211428Y-114986714D01*
X120211428Y-114986714D02*
X120020952Y-114986714D01*
X120473333Y-114724809D02*
X120806666Y-114724809D01*
X120806666Y-114724809D02*
X120592381Y-115224809D01*
X135052380Y-111072428D02*
X135004761Y-111048619D01*
X135004761Y-111048619D02*
X134957142Y-111001000D01*
X134957142Y-111001000D02*
X134885714Y-110929571D01*
X134885714Y-110929571D02*
X134838095Y-110905761D01*
X134838095Y-110905761D02*
X134790476Y-110905761D01*
X134814285Y-111024809D02*
X134766666Y-111001000D01*
X134766666Y-111001000D02*
X134719047Y-110953380D01*
X134719047Y-110953380D02*
X134695238Y-110858142D01*
X134695238Y-110858142D02*
X134695238Y-110691476D01*
X134695238Y-110691476D02*
X134719047Y-110596238D01*
X134719047Y-110596238D02*
X134766666Y-110548619D01*
X134766666Y-110548619D02*
X134814285Y-110524809D01*
X134814285Y-110524809D02*
X134909523Y-110524809D01*
X134909523Y-110524809D02*
X134957142Y-110548619D01*
X134957142Y-110548619D02*
X135004761Y-110596238D01*
X135004761Y-110596238D02*
X135028571Y-110691476D01*
X135028571Y-110691476D02*
X135028571Y-110858142D01*
X135028571Y-110858142D02*
X135004761Y-110953380D01*
X135004761Y-110953380D02*
X134957142Y-111001000D01*
X134957142Y-111001000D02*
X134909523Y-111024809D01*
X134909523Y-111024809D02*
X134814285Y-111024809D01*
X135219048Y-110572428D02*
X135242857Y-110548619D01*
X135242857Y-110548619D02*
X135290476Y-110524809D01*
X135290476Y-110524809D02*
X135409524Y-110524809D01*
X135409524Y-110524809D02*
X135457143Y-110548619D01*
X135457143Y-110548619D02*
X135480952Y-110572428D01*
X135480952Y-110572428D02*
X135504762Y-110620047D01*
X135504762Y-110620047D02*
X135504762Y-110667666D01*
X135504762Y-110667666D02*
X135480952Y-110739095D01*
X135480952Y-110739095D02*
X135195238Y-111024809D01*
X135195238Y-111024809D02*
X135504762Y-111024809D01*
X149616666Y-100577190D02*
X149592857Y-100601000D01*
X149592857Y-100601000D02*
X149521428Y-100624809D01*
X149521428Y-100624809D02*
X149473809Y-100624809D01*
X149473809Y-100624809D02*
X149402381Y-100601000D01*
X149402381Y-100601000D02*
X149354762Y-100553380D01*
X149354762Y-100553380D02*
X149330952Y-100505761D01*
X149330952Y-100505761D02*
X149307143Y-100410523D01*
X149307143Y-100410523D02*
X149307143Y-100339095D01*
X149307143Y-100339095D02*
X149330952Y-100243857D01*
X149330952Y-100243857D02*
X149354762Y-100196238D01*
X149354762Y-100196238D02*
X149402381Y-100148619D01*
X149402381Y-100148619D02*
X149473809Y-100124809D01*
X149473809Y-100124809D02*
X149521428Y-100124809D01*
X149521428Y-100124809D02*
X149592857Y-100148619D01*
X149592857Y-100148619D02*
X149616666Y-100172428D01*
X149902381Y-100339095D02*
X149854762Y-100315285D01*
X149854762Y-100315285D02*
X149830952Y-100291476D01*
X149830952Y-100291476D02*
X149807143Y-100243857D01*
X149807143Y-100243857D02*
X149807143Y-100220047D01*
X149807143Y-100220047D02*
X149830952Y-100172428D01*
X149830952Y-100172428D02*
X149854762Y-100148619D01*
X149854762Y-100148619D02*
X149902381Y-100124809D01*
X149902381Y-100124809D02*
X149997619Y-100124809D01*
X149997619Y-100124809D02*
X150045238Y-100148619D01*
X150045238Y-100148619D02*
X150069047Y-100172428D01*
X150069047Y-100172428D02*
X150092857Y-100220047D01*
X150092857Y-100220047D02*
X150092857Y-100243857D01*
X150092857Y-100243857D02*
X150069047Y-100291476D01*
X150069047Y-100291476D02*
X150045238Y-100315285D01*
X150045238Y-100315285D02*
X149997619Y-100339095D01*
X149997619Y-100339095D02*
X149902381Y-100339095D01*
X149902381Y-100339095D02*
X149854762Y-100362904D01*
X149854762Y-100362904D02*
X149830952Y-100386714D01*
X149830952Y-100386714D02*
X149807143Y-100434333D01*
X149807143Y-100434333D02*
X149807143Y-100529571D01*
X149807143Y-100529571D02*
X149830952Y-100577190D01*
X149830952Y-100577190D02*
X149854762Y-100601000D01*
X149854762Y-100601000D02*
X149902381Y-100624809D01*
X149902381Y-100624809D02*
X149997619Y-100624809D01*
X149997619Y-100624809D02*
X150045238Y-100601000D01*
X150045238Y-100601000D02*
X150069047Y-100577190D01*
X150069047Y-100577190D02*
X150092857Y-100529571D01*
X150092857Y-100529571D02*
X150092857Y-100434333D01*
X150092857Y-100434333D02*
X150069047Y-100386714D01*
X150069047Y-100386714D02*
X150045238Y-100362904D01*
X150045238Y-100362904D02*
X149997619Y-100339095D01*
X143516666Y-109324809D02*
X143278571Y-109324809D01*
X143278571Y-109324809D02*
X143278571Y-108824809D01*
X143635714Y-108824809D02*
X143945238Y-108824809D01*
X143945238Y-108824809D02*
X143778571Y-109015285D01*
X143778571Y-109015285D02*
X143850000Y-109015285D01*
X143850000Y-109015285D02*
X143897619Y-109039095D01*
X143897619Y-109039095D02*
X143921428Y-109062904D01*
X143921428Y-109062904D02*
X143945238Y-109110523D01*
X143945238Y-109110523D02*
X143945238Y-109229571D01*
X143945238Y-109229571D02*
X143921428Y-109277190D01*
X143921428Y-109277190D02*
X143897619Y-109301000D01*
X143897619Y-109301000D02*
X143850000Y-109324809D01*
X143850000Y-109324809D02*
X143707143Y-109324809D01*
X143707143Y-109324809D02*
X143659524Y-109301000D01*
X143659524Y-109301000D02*
X143635714Y-109277190D01*
X140416666Y-92424809D02*
X140250000Y-92186714D01*
X140130952Y-92424809D02*
X140130952Y-91924809D01*
X140130952Y-91924809D02*
X140321428Y-91924809D01*
X140321428Y-91924809D02*
X140369047Y-91948619D01*
X140369047Y-91948619D02*
X140392857Y-91972428D01*
X140392857Y-91972428D02*
X140416666Y-92020047D01*
X140416666Y-92020047D02*
X140416666Y-92091476D01*
X140416666Y-92091476D02*
X140392857Y-92139095D01*
X140392857Y-92139095D02*
X140369047Y-92162904D01*
X140369047Y-92162904D02*
X140321428Y-92186714D01*
X140321428Y-92186714D02*
X140130952Y-92186714D01*
X140892857Y-92424809D02*
X140607143Y-92424809D01*
X140750000Y-92424809D02*
X140750000Y-91924809D01*
X140750000Y-91924809D02*
X140702381Y-91996238D01*
X140702381Y-91996238D02*
X140654762Y-92043857D01*
X140654762Y-92043857D02*
X140607143Y-92067666D01*
X122916666Y-106224809D02*
X122750000Y-105986714D01*
X122630952Y-106224809D02*
X122630952Y-105724809D01*
X122630952Y-105724809D02*
X122821428Y-105724809D01*
X122821428Y-105724809D02*
X122869047Y-105748619D01*
X122869047Y-105748619D02*
X122892857Y-105772428D01*
X122892857Y-105772428D02*
X122916666Y-105820047D01*
X122916666Y-105820047D02*
X122916666Y-105891476D01*
X122916666Y-105891476D02*
X122892857Y-105939095D01*
X122892857Y-105939095D02*
X122869047Y-105962904D01*
X122869047Y-105962904D02*
X122821428Y-105986714D01*
X122821428Y-105986714D02*
X122630952Y-105986714D01*
X123107143Y-105772428D02*
X123130952Y-105748619D01*
X123130952Y-105748619D02*
X123178571Y-105724809D01*
X123178571Y-105724809D02*
X123297619Y-105724809D01*
X123297619Y-105724809D02*
X123345238Y-105748619D01*
X123345238Y-105748619D02*
X123369047Y-105772428D01*
X123369047Y-105772428D02*
X123392857Y-105820047D01*
X123392857Y-105820047D02*
X123392857Y-105867666D01*
X123392857Y-105867666D02*
X123369047Y-105939095D01*
X123369047Y-105939095D02*
X123083333Y-106224809D01*
X123083333Y-106224809D02*
X123392857Y-106224809D01*
X117433333Y-113424809D02*
X117433333Y-113781952D01*
X117433333Y-113781952D02*
X117409524Y-113853380D01*
X117409524Y-113853380D02*
X117361905Y-113901000D01*
X117361905Y-113901000D02*
X117290476Y-113924809D01*
X117290476Y-113924809D02*
X117242857Y-113924809D01*
X117933333Y-113924809D02*
X117647619Y-113924809D01*
X117790476Y-113924809D02*
X117790476Y-113424809D01*
X117790476Y-113424809D02*
X117742857Y-113496238D01*
X117742857Y-113496238D02*
X117695238Y-113543857D01*
X117695238Y-113543857D02*
X117647619Y-113567666D01*
X138216666Y-94124809D02*
X137978571Y-94124809D01*
X137978571Y-94124809D02*
X137978571Y-93624809D01*
X138645238Y-94124809D02*
X138359524Y-94124809D01*
X138502381Y-94124809D02*
X138502381Y-93624809D01*
X138502381Y-93624809D02*
X138454762Y-93696238D01*
X138454762Y-93696238D02*
X138407143Y-93743857D01*
X138407143Y-93743857D02*
X138359524Y-93767666D01*
X130319047Y-102724809D02*
X130319047Y-103129571D01*
X130319047Y-103129571D02*
X130342857Y-103177190D01*
X130342857Y-103177190D02*
X130366666Y-103201000D01*
X130366666Y-103201000D02*
X130414285Y-103224809D01*
X130414285Y-103224809D02*
X130509523Y-103224809D01*
X130509523Y-103224809D02*
X130557142Y-103201000D01*
X130557142Y-103201000D02*
X130580952Y-103177190D01*
X130580952Y-103177190D02*
X130604761Y-103129571D01*
X130604761Y-103129571D02*
X130604761Y-102724809D01*
X130819048Y-102772428D02*
X130842857Y-102748619D01*
X130842857Y-102748619D02*
X130890476Y-102724809D01*
X130890476Y-102724809D02*
X131009524Y-102724809D01*
X131009524Y-102724809D02*
X131057143Y-102748619D01*
X131057143Y-102748619D02*
X131080952Y-102772428D01*
X131080952Y-102772428D02*
X131104762Y-102820047D01*
X131104762Y-102820047D02*
X131104762Y-102867666D01*
X131104762Y-102867666D02*
X131080952Y-102939095D01*
X131080952Y-102939095D02*
X130795238Y-103224809D01*
X130795238Y-103224809D02*
X131104762Y-103224809D01*
X127919047Y-111924809D02*
X127919047Y-112329571D01*
X127919047Y-112329571D02*
X127942857Y-112377190D01*
X127942857Y-112377190D02*
X127966666Y-112401000D01*
X127966666Y-112401000D02*
X128014285Y-112424809D01*
X128014285Y-112424809D02*
X128109523Y-112424809D01*
X128109523Y-112424809D02*
X128157142Y-112401000D01*
X128157142Y-112401000D02*
X128180952Y-112377190D01*
X128180952Y-112377190D02*
X128204761Y-112329571D01*
X128204761Y-112329571D02*
X128204761Y-111924809D01*
X128657143Y-112091476D02*
X128657143Y-112424809D01*
X128538095Y-111901000D02*
X128419048Y-112258142D01*
X128419048Y-112258142D02*
X128728571Y-112258142D01*
X134352380Y-95272428D02*
X134304761Y-95248619D01*
X134304761Y-95248619D02*
X134257142Y-95201000D01*
X134257142Y-95201000D02*
X134185714Y-95129571D01*
X134185714Y-95129571D02*
X134138095Y-95105761D01*
X134138095Y-95105761D02*
X134090476Y-95105761D01*
X134114285Y-95224809D02*
X134066666Y-95201000D01*
X134066666Y-95201000D02*
X134019047Y-95153380D01*
X134019047Y-95153380D02*
X133995238Y-95058142D01*
X133995238Y-95058142D02*
X133995238Y-94891476D01*
X133995238Y-94891476D02*
X134019047Y-94796238D01*
X134019047Y-94796238D02*
X134066666Y-94748619D01*
X134066666Y-94748619D02*
X134114285Y-94724809D01*
X134114285Y-94724809D02*
X134209523Y-94724809D01*
X134209523Y-94724809D02*
X134257142Y-94748619D01*
X134257142Y-94748619D02*
X134304761Y-94796238D01*
X134304761Y-94796238D02*
X134328571Y-94891476D01*
X134328571Y-94891476D02*
X134328571Y-95058142D01*
X134328571Y-95058142D02*
X134304761Y-95153380D01*
X134304761Y-95153380D02*
X134257142Y-95201000D01*
X134257142Y-95201000D02*
X134209523Y-95224809D01*
X134209523Y-95224809D02*
X134114285Y-95224809D01*
X134804762Y-95224809D02*
X134519048Y-95224809D01*
X134661905Y-95224809D02*
X134661905Y-94724809D01*
X134661905Y-94724809D02*
X134614286Y-94796238D01*
X134614286Y-94796238D02*
X134566667Y-94843857D01*
X134566667Y-94843857D02*
X134519048Y-94867666D01*
X148616666Y-106977190D02*
X148592857Y-107001000D01*
X148592857Y-107001000D02*
X148521428Y-107024809D01*
X148521428Y-107024809D02*
X148473809Y-107024809D01*
X148473809Y-107024809D02*
X148402381Y-107001000D01*
X148402381Y-107001000D02*
X148354762Y-106953380D01*
X148354762Y-106953380D02*
X148330952Y-106905761D01*
X148330952Y-106905761D02*
X148307143Y-106810523D01*
X148307143Y-106810523D02*
X148307143Y-106739095D01*
X148307143Y-106739095D02*
X148330952Y-106643857D01*
X148330952Y-106643857D02*
X148354762Y-106596238D01*
X148354762Y-106596238D02*
X148402381Y-106548619D01*
X148402381Y-106548619D02*
X148473809Y-106524809D01*
X148473809Y-106524809D02*
X148521428Y-106524809D01*
X148521428Y-106524809D02*
X148592857Y-106548619D01*
X148592857Y-106548619D02*
X148616666Y-106572428D01*
X149045238Y-106524809D02*
X148950000Y-106524809D01*
X148950000Y-106524809D02*
X148902381Y-106548619D01*
X148902381Y-106548619D02*
X148878571Y-106572428D01*
X148878571Y-106572428D02*
X148830952Y-106643857D01*
X148830952Y-106643857D02*
X148807143Y-106739095D01*
X148807143Y-106739095D02*
X148807143Y-106929571D01*
X148807143Y-106929571D02*
X148830952Y-106977190D01*
X148830952Y-106977190D02*
X148854762Y-107001000D01*
X148854762Y-107001000D02*
X148902381Y-107024809D01*
X148902381Y-107024809D02*
X148997619Y-107024809D01*
X148997619Y-107024809D02*
X149045238Y-107001000D01*
X149045238Y-107001000D02*
X149069047Y-106977190D01*
X149069047Y-106977190D02*
X149092857Y-106929571D01*
X149092857Y-106929571D02*
X149092857Y-106810523D01*
X149092857Y-106810523D02*
X149069047Y-106762904D01*
X149069047Y-106762904D02*
X149045238Y-106739095D01*
X149045238Y-106739095D02*
X148997619Y-106715285D01*
X148997619Y-106715285D02*
X148902381Y-106715285D01*
X148902381Y-106715285D02*
X148854762Y-106739095D01*
X148854762Y-106739095D02*
X148830952Y-106762904D01*
X148830952Y-106762904D02*
X148807143Y-106810523D01*
X119716666Y-97924809D02*
X119550000Y-97686714D01*
X119430952Y-97924809D02*
X119430952Y-97424809D01*
X119430952Y-97424809D02*
X119621428Y-97424809D01*
X119621428Y-97424809D02*
X119669047Y-97448619D01*
X119669047Y-97448619D02*
X119692857Y-97472428D01*
X119692857Y-97472428D02*
X119716666Y-97520047D01*
X119716666Y-97520047D02*
X119716666Y-97591476D01*
X119716666Y-97591476D02*
X119692857Y-97639095D01*
X119692857Y-97639095D02*
X119669047Y-97662904D01*
X119669047Y-97662904D02*
X119621428Y-97686714D01*
X119621428Y-97686714D02*
X119430952Y-97686714D01*
X120169047Y-97424809D02*
X119930952Y-97424809D01*
X119930952Y-97424809D02*
X119907143Y-97662904D01*
X119907143Y-97662904D02*
X119930952Y-97639095D01*
X119930952Y-97639095D02*
X119978571Y-97615285D01*
X119978571Y-97615285D02*
X120097619Y-97615285D01*
X120097619Y-97615285D02*
X120145238Y-97639095D01*
X120145238Y-97639095D02*
X120169047Y-97662904D01*
X120169047Y-97662904D02*
X120192857Y-97710523D01*
X120192857Y-97710523D02*
X120192857Y-97829571D01*
X120192857Y-97829571D02*
X120169047Y-97877190D01*
X120169047Y-97877190D02*
X120145238Y-97901000D01*
X120145238Y-97901000D02*
X120097619Y-97924809D01*
X120097619Y-97924809D02*
X119978571Y-97924809D01*
X119978571Y-97924809D02*
X119930952Y-97901000D01*
X119930952Y-97901000D02*
X119907143Y-97877190D01*
X141478571Y-90424809D02*
X141311905Y-90186714D01*
X141192857Y-90424809D02*
X141192857Y-89924809D01*
X141192857Y-89924809D02*
X141383333Y-89924809D01*
X141383333Y-89924809D02*
X141430952Y-89948619D01*
X141430952Y-89948619D02*
X141454762Y-89972428D01*
X141454762Y-89972428D02*
X141478571Y-90020047D01*
X141478571Y-90020047D02*
X141478571Y-90091476D01*
X141478571Y-90091476D02*
X141454762Y-90139095D01*
X141454762Y-90139095D02*
X141430952Y-90162904D01*
X141430952Y-90162904D02*
X141383333Y-90186714D01*
X141383333Y-90186714D02*
X141192857Y-90186714D01*
X141954762Y-90424809D02*
X141669048Y-90424809D01*
X141811905Y-90424809D02*
X141811905Y-89924809D01*
X141811905Y-89924809D02*
X141764286Y-89996238D01*
X141764286Y-89996238D02*
X141716667Y-90043857D01*
X141716667Y-90043857D02*
X141669048Y-90067666D01*
X142430952Y-90424809D02*
X142145238Y-90424809D01*
X142288095Y-90424809D02*
X142288095Y-89924809D01*
X142288095Y-89924809D02*
X142240476Y-89996238D01*
X142240476Y-89996238D02*
X142192857Y-90043857D01*
X142192857Y-90043857D02*
X142145238Y-90067666D01*
X122306666Y-113224809D02*
X122140000Y-112986714D01*
X122020952Y-113224809D02*
X122020952Y-112724809D01*
X122020952Y-112724809D02*
X122211428Y-112724809D01*
X122211428Y-112724809D02*
X122259047Y-112748619D01*
X122259047Y-112748619D02*
X122282857Y-112772428D01*
X122282857Y-112772428D02*
X122306666Y-112820047D01*
X122306666Y-112820047D02*
X122306666Y-112891476D01*
X122306666Y-112891476D02*
X122282857Y-112939095D01*
X122282857Y-112939095D02*
X122259047Y-112962904D01*
X122259047Y-112962904D02*
X122211428Y-112986714D01*
X122211428Y-112986714D02*
X122020952Y-112986714D01*
X122735238Y-112891476D02*
X122735238Y-113224809D01*
X122616190Y-112701000D02*
X122497143Y-113058142D01*
X122497143Y-113058142D02*
X122806666Y-113058142D01*
X144469048Y-109424809D02*
X144754762Y-109424809D01*
X144611905Y-109924809D02*
X144611905Y-109424809D01*
X144921428Y-109924809D02*
X144921428Y-109424809D01*
X144921428Y-109424809D02*
X145111904Y-109424809D01*
X145111904Y-109424809D02*
X145159523Y-109448619D01*
X145159523Y-109448619D02*
X145183333Y-109472428D01*
X145183333Y-109472428D02*
X145207142Y-109520047D01*
X145207142Y-109520047D02*
X145207142Y-109591476D01*
X145207142Y-109591476D02*
X145183333Y-109639095D01*
X145183333Y-109639095D02*
X145159523Y-109662904D01*
X145159523Y-109662904D02*
X145111904Y-109686714D01*
X145111904Y-109686714D02*
X144921428Y-109686714D01*
X145397619Y-109472428D02*
X145421428Y-109448619D01*
X145421428Y-109448619D02*
X145469047Y-109424809D01*
X145469047Y-109424809D02*
X145588095Y-109424809D01*
X145588095Y-109424809D02*
X145635714Y-109448619D01*
X145635714Y-109448619D02*
X145659523Y-109472428D01*
X145659523Y-109472428D02*
X145683333Y-109520047D01*
X145683333Y-109520047D02*
X145683333Y-109567666D01*
X145683333Y-109567666D02*
X145659523Y-109639095D01*
X145659523Y-109639095D02*
X145373809Y-109924809D01*
X145373809Y-109924809D02*
X145683333Y-109924809D01*
X135369048Y-91124809D02*
X135654762Y-91124809D01*
X135511905Y-91624809D02*
X135511905Y-91124809D01*
X135821428Y-91624809D02*
X135821428Y-91124809D01*
X135821428Y-91124809D02*
X136011904Y-91124809D01*
X136011904Y-91124809D02*
X136059523Y-91148619D01*
X136059523Y-91148619D02*
X136083333Y-91172428D01*
X136083333Y-91172428D02*
X136107142Y-91220047D01*
X136107142Y-91220047D02*
X136107142Y-91291476D01*
X136107142Y-91291476D02*
X136083333Y-91339095D01*
X136083333Y-91339095D02*
X136059523Y-91362904D01*
X136059523Y-91362904D02*
X136011904Y-91386714D01*
X136011904Y-91386714D02*
X135821428Y-91386714D01*
X136273809Y-91124809D02*
X136583333Y-91124809D01*
X136583333Y-91124809D02*
X136416666Y-91315285D01*
X136416666Y-91315285D02*
X136488095Y-91315285D01*
X136488095Y-91315285D02*
X136535714Y-91339095D01*
X136535714Y-91339095D02*
X136559523Y-91362904D01*
X136559523Y-91362904D02*
X136583333Y-91410523D01*
X136583333Y-91410523D02*
X136583333Y-91529571D01*
X136583333Y-91529571D02*
X136559523Y-91577190D01*
X136559523Y-91577190D02*
X136535714Y-91601000D01*
X136535714Y-91601000D02*
X136488095Y-91624809D01*
X136488095Y-91624809D02*
X136345238Y-91624809D01*
X136345238Y-91624809D02*
X136297619Y-91601000D01*
X136297619Y-91601000D02*
X136273809Y-91577190D01*
X123119047Y-93524809D02*
X123119047Y-93929571D01*
X123119047Y-93929571D02*
X123142857Y-93977190D01*
X123142857Y-93977190D02*
X123166666Y-94001000D01*
X123166666Y-94001000D02*
X123214285Y-94024809D01*
X123214285Y-94024809D02*
X123309523Y-94024809D01*
X123309523Y-94024809D02*
X123357142Y-94001000D01*
X123357142Y-94001000D02*
X123380952Y-93977190D01*
X123380952Y-93977190D02*
X123404761Y-93929571D01*
X123404761Y-93929571D02*
X123404761Y-93524809D01*
X123904762Y-94024809D02*
X123619048Y-94024809D01*
X123761905Y-94024809D02*
X123761905Y-93524809D01*
X123761905Y-93524809D02*
X123714286Y-93596238D01*
X123714286Y-93596238D02*
X123666667Y-93643857D01*
X123666667Y-93643857D02*
X123619048Y-93667666D01*
X151116666Y-118724809D02*
X150950000Y-118486714D01*
X150830952Y-118724809D02*
X150830952Y-118224809D01*
X150830952Y-118224809D02*
X151021428Y-118224809D01*
X151021428Y-118224809D02*
X151069047Y-118248619D01*
X151069047Y-118248619D02*
X151092857Y-118272428D01*
X151092857Y-118272428D02*
X151116666Y-118320047D01*
X151116666Y-118320047D02*
X151116666Y-118391476D01*
X151116666Y-118391476D02*
X151092857Y-118439095D01*
X151092857Y-118439095D02*
X151069047Y-118462904D01*
X151069047Y-118462904D02*
X151021428Y-118486714D01*
X151021428Y-118486714D02*
X150830952Y-118486714D01*
X151545238Y-118224809D02*
X151450000Y-118224809D01*
X151450000Y-118224809D02*
X151402381Y-118248619D01*
X151402381Y-118248619D02*
X151378571Y-118272428D01*
X151378571Y-118272428D02*
X151330952Y-118343857D01*
X151330952Y-118343857D02*
X151307143Y-118439095D01*
X151307143Y-118439095D02*
X151307143Y-118629571D01*
X151307143Y-118629571D02*
X151330952Y-118677190D01*
X151330952Y-118677190D02*
X151354762Y-118701000D01*
X151354762Y-118701000D02*
X151402381Y-118724809D01*
X151402381Y-118724809D02*
X151497619Y-118724809D01*
X151497619Y-118724809D02*
X151545238Y-118701000D01*
X151545238Y-118701000D02*
X151569047Y-118677190D01*
X151569047Y-118677190D02*
X151592857Y-118629571D01*
X151592857Y-118629571D02*
X151592857Y-118510523D01*
X151592857Y-118510523D02*
X151569047Y-118462904D01*
X151569047Y-118462904D02*
X151545238Y-118439095D01*
X151545238Y-118439095D02*
X151497619Y-118415285D01*
X151497619Y-118415285D02*
X151402381Y-118415285D01*
X151402381Y-118415285D02*
X151354762Y-118439095D01*
X151354762Y-118439095D02*
X151330952Y-118462904D01*
X151330952Y-118462904D02*
X151307143Y-118510523D01*
X135216666Y-113924809D02*
X135050000Y-113686714D01*
X134930952Y-113924809D02*
X134930952Y-113424809D01*
X134930952Y-113424809D02*
X135121428Y-113424809D01*
X135121428Y-113424809D02*
X135169047Y-113448619D01*
X135169047Y-113448619D02*
X135192857Y-113472428D01*
X135192857Y-113472428D02*
X135216666Y-113520047D01*
X135216666Y-113520047D02*
X135216666Y-113591476D01*
X135216666Y-113591476D02*
X135192857Y-113639095D01*
X135192857Y-113639095D02*
X135169047Y-113662904D01*
X135169047Y-113662904D02*
X135121428Y-113686714D01*
X135121428Y-113686714D02*
X134930952Y-113686714D01*
X135454762Y-113924809D02*
X135550000Y-113924809D01*
X135550000Y-113924809D02*
X135597619Y-113901000D01*
X135597619Y-113901000D02*
X135621428Y-113877190D01*
X135621428Y-113877190D02*
X135669047Y-113805761D01*
X135669047Y-113805761D02*
X135692857Y-113710523D01*
X135692857Y-113710523D02*
X135692857Y-113520047D01*
X135692857Y-113520047D02*
X135669047Y-113472428D01*
X135669047Y-113472428D02*
X135645238Y-113448619D01*
X135645238Y-113448619D02*
X135597619Y-113424809D01*
X135597619Y-113424809D02*
X135502381Y-113424809D01*
X135502381Y-113424809D02*
X135454762Y-113448619D01*
X135454762Y-113448619D02*
X135430952Y-113472428D01*
X135430952Y-113472428D02*
X135407143Y-113520047D01*
X135407143Y-113520047D02*
X135407143Y-113639095D01*
X135407143Y-113639095D02*
X135430952Y-113686714D01*
X135430952Y-113686714D02*
X135454762Y-113710523D01*
X135454762Y-113710523D02*
X135502381Y-113734333D01*
X135502381Y-113734333D02*
X135597619Y-113734333D01*
X135597619Y-113734333D02*
X135645238Y-113710523D01*
X135645238Y-113710523D02*
X135669047Y-113686714D01*
X135669047Y-113686714D02*
X135692857Y-113639095D01*
X152016666Y-100577190D02*
X151992857Y-100601000D01*
X151992857Y-100601000D02*
X151921428Y-100624809D01*
X151921428Y-100624809D02*
X151873809Y-100624809D01*
X151873809Y-100624809D02*
X151802381Y-100601000D01*
X151802381Y-100601000D02*
X151754762Y-100553380D01*
X151754762Y-100553380D02*
X151730952Y-100505761D01*
X151730952Y-100505761D02*
X151707143Y-100410523D01*
X151707143Y-100410523D02*
X151707143Y-100339095D01*
X151707143Y-100339095D02*
X151730952Y-100243857D01*
X151730952Y-100243857D02*
X151754762Y-100196238D01*
X151754762Y-100196238D02*
X151802381Y-100148619D01*
X151802381Y-100148619D02*
X151873809Y-100124809D01*
X151873809Y-100124809D02*
X151921428Y-100124809D01*
X151921428Y-100124809D02*
X151992857Y-100148619D01*
X151992857Y-100148619D02*
X152016666Y-100172428D01*
X152254762Y-100624809D02*
X152350000Y-100624809D01*
X152350000Y-100624809D02*
X152397619Y-100601000D01*
X152397619Y-100601000D02*
X152421428Y-100577190D01*
X152421428Y-100577190D02*
X152469047Y-100505761D01*
X152469047Y-100505761D02*
X152492857Y-100410523D01*
X152492857Y-100410523D02*
X152492857Y-100220047D01*
X152492857Y-100220047D02*
X152469047Y-100172428D01*
X152469047Y-100172428D02*
X152445238Y-100148619D01*
X152445238Y-100148619D02*
X152397619Y-100124809D01*
X152397619Y-100124809D02*
X152302381Y-100124809D01*
X152302381Y-100124809D02*
X152254762Y-100148619D01*
X152254762Y-100148619D02*
X152230952Y-100172428D01*
X152230952Y-100172428D02*
X152207143Y-100220047D01*
X152207143Y-100220047D02*
X152207143Y-100339095D01*
X152207143Y-100339095D02*
X152230952Y-100386714D01*
X152230952Y-100386714D02*
X152254762Y-100410523D01*
X152254762Y-100410523D02*
X152302381Y-100434333D01*
X152302381Y-100434333D02*
X152397619Y-100434333D01*
X152397619Y-100434333D02*
X152445238Y-100410523D01*
X152445238Y-100410523D02*
X152469047Y-100386714D01*
X152469047Y-100386714D02*
X152492857Y-100339095D01*
X129916666Y-111077190D02*
X129892857Y-111101000D01*
X129892857Y-111101000D02*
X129821428Y-111124809D01*
X129821428Y-111124809D02*
X129773809Y-111124809D01*
X129773809Y-111124809D02*
X129702381Y-111101000D01*
X129702381Y-111101000D02*
X129654762Y-111053380D01*
X129654762Y-111053380D02*
X129630952Y-111005761D01*
X129630952Y-111005761D02*
X129607143Y-110910523D01*
X129607143Y-110910523D02*
X129607143Y-110839095D01*
X129607143Y-110839095D02*
X129630952Y-110743857D01*
X129630952Y-110743857D02*
X129654762Y-110696238D01*
X129654762Y-110696238D02*
X129702381Y-110648619D01*
X129702381Y-110648619D02*
X129773809Y-110624809D01*
X129773809Y-110624809D02*
X129821428Y-110624809D01*
X129821428Y-110624809D02*
X129892857Y-110648619D01*
X129892857Y-110648619D02*
X129916666Y-110672428D01*
X130369047Y-110624809D02*
X130130952Y-110624809D01*
X130130952Y-110624809D02*
X130107143Y-110862904D01*
X130107143Y-110862904D02*
X130130952Y-110839095D01*
X130130952Y-110839095D02*
X130178571Y-110815285D01*
X130178571Y-110815285D02*
X130297619Y-110815285D01*
X130297619Y-110815285D02*
X130345238Y-110839095D01*
X130345238Y-110839095D02*
X130369047Y-110862904D01*
X130369047Y-110862904D02*
X130392857Y-110910523D01*
X130392857Y-110910523D02*
X130392857Y-111029571D01*
X130392857Y-111029571D02*
X130369047Y-111077190D01*
X130369047Y-111077190D02*
X130345238Y-111101000D01*
X130345238Y-111101000D02*
X130297619Y-111124809D01*
X130297619Y-111124809D02*
X130178571Y-111124809D01*
X130178571Y-111124809D02*
X130130952Y-111101000D01*
X130130952Y-111101000D02*
X130107143Y-111077190D01*
X157707143Y-94962904D02*
X157778571Y-94986714D01*
X157778571Y-94986714D02*
X157802381Y-95010523D01*
X157802381Y-95010523D02*
X157826190Y-95058142D01*
X157826190Y-95058142D02*
X157826190Y-95129571D01*
X157826190Y-95129571D02*
X157802381Y-95177190D01*
X157802381Y-95177190D02*
X157778571Y-95201000D01*
X157778571Y-95201000D02*
X157730952Y-95224809D01*
X157730952Y-95224809D02*
X157540476Y-95224809D01*
X157540476Y-95224809D02*
X157540476Y-94724809D01*
X157540476Y-94724809D02*
X157707143Y-94724809D01*
X157707143Y-94724809D02*
X157754762Y-94748619D01*
X157754762Y-94748619D02*
X157778571Y-94772428D01*
X157778571Y-94772428D02*
X157802381Y-94820047D01*
X157802381Y-94820047D02*
X157802381Y-94867666D01*
X157802381Y-94867666D02*
X157778571Y-94915285D01*
X157778571Y-94915285D02*
X157754762Y-94939095D01*
X157754762Y-94939095D02*
X157707143Y-94962904D01*
X157707143Y-94962904D02*
X157540476Y-94962904D01*
X157969048Y-94724809D02*
X158254762Y-94724809D01*
X158111905Y-95224809D02*
X158111905Y-94724809D01*
X158683333Y-95224809D02*
X158397619Y-95224809D01*
X158540476Y-95224809D02*
X158540476Y-94724809D01*
X158540476Y-94724809D02*
X158492857Y-94796238D01*
X158492857Y-94796238D02*
X158445238Y-94843857D01*
X158445238Y-94843857D02*
X158397619Y-94867666D01*
D12*
X154528571Y-95614700D02*
X155671429Y-95614700D01*
X146428571Y-95714700D02*
X147571429Y-95714700D01*
X147000000Y-96286128D02*
X147000000Y-95143271D01*
D11*
X140019047Y-115424809D02*
X140019047Y-115829571D01*
X140019047Y-115829571D02*
X140042857Y-115877190D01*
X140042857Y-115877190D02*
X140066666Y-115901000D01*
X140066666Y-115901000D02*
X140114285Y-115924809D01*
X140114285Y-115924809D02*
X140209523Y-115924809D01*
X140209523Y-115924809D02*
X140257142Y-115901000D01*
X140257142Y-115901000D02*
X140280952Y-115877190D01*
X140280952Y-115877190D02*
X140304761Y-115829571D01*
X140304761Y-115829571D02*
X140304761Y-115424809D01*
X140495238Y-115424809D02*
X140804762Y-115424809D01*
X140804762Y-115424809D02*
X140638095Y-115615285D01*
X140638095Y-115615285D02*
X140709524Y-115615285D01*
X140709524Y-115615285D02*
X140757143Y-115639095D01*
X140757143Y-115639095D02*
X140780952Y-115662904D01*
X140780952Y-115662904D02*
X140804762Y-115710523D01*
X140804762Y-115710523D02*
X140804762Y-115829571D01*
X140804762Y-115829571D02*
X140780952Y-115877190D01*
X140780952Y-115877190D02*
X140757143Y-115901000D01*
X140757143Y-115901000D02*
X140709524Y-115924809D01*
X140709524Y-115924809D02*
X140566667Y-115924809D01*
X140566667Y-115924809D02*
X140519048Y-115901000D01*
X140519048Y-115901000D02*
X140495238Y-115877190D01*
X131316666Y-90777190D02*
X131292857Y-90801000D01*
X131292857Y-90801000D02*
X131221428Y-90824809D01*
X131221428Y-90824809D02*
X131173809Y-90824809D01*
X131173809Y-90824809D02*
X131102381Y-90801000D01*
X131102381Y-90801000D02*
X131054762Y-90753380D01*
X131054762Y-90753380D02*
X131030952Y-90705761D01*
X131030952Y-90705761D02*
X131007143Y-90610523D01*
X131007143Y-90610523D02*
X131007143Y-90539095D01*
X131007143Y-90539095D02*
X131030952Y-90443857D01*
X131030952Y-90443857D02*
X131054762Y-90396238D01*
X131054762Y-90396238D02*
X131102381Y-90348619D01*
X131102381Y-90348619D02*
X131173809Y-90324809D01*
X131173809Y-90324809D02*
X131221428Y-90324809D01*
X131221428Y-90324809D02*
X131292857Y-90348619D01*
X131292857Y-90348619D02*
X131316666Y-90372428D01*
X131483333Y-90324809D02*
X131792857Y-90324809D01*
X131792857Y-90324809D02*
X131626190Y-90515285D01*
X131626190Y-90515285D02*
X131697619Y-90515285D01*
X131697619Y-90515285D02*
X131745238Y-90539095D01*
X131745238Y-90539095D02*
X131769047Y-90562904D01*
X131769047Y-90562904D02*
X131792857Y-90610523D01*
X131792857Y-90610523D02*
X131792857Y-90729571D01*
X131792857Y-90729571D02*
X131769047Y-90777190D01*
X131769047Y-90777190D02*
X131745238Y-90801000D01*
X131745238Y-90801000D02*
X131697619Y-90824809D01*
X131697619Y-90824809D02*
X131554762Y-90824809D01*
X131554762Y-90824809D02*
X131507143Y-90801000D01*
X131507143Y-90801000D02*
X131483333Y-90777190D01*
X126916666Y-111224809D02*
X126678571Y-111224809D01*
X126678571Y-111224809D02*
X126678571Y-110724809D01*
X127059524Y-110772428D02*
X127083333Y-110748619D01*
X127083333Y-110748619D02*
X127130952Y-110724809D01*
X127130952Y-110724809D02*
X127250000Y-110724809D01*
X127250000Y-110724809D02*
X127297619Y-110748619D01*
X127297619Y-110748619D02*
X127321428Y-110772428D01*
X127321428Y-110772428D02*
X127345238Y-110820047D01*
X127345238Y-110820047D02*
X127345238Y-110867666D01*
X127345238Y-110867666D02*
X127321428Y-110939095D01*
X127321428Y-110939095D02*
X127035714Y-111224809D01*
X127035714Y-111224809D02*
X127345238Y-111224809D01*
X127078571Y-95177190D02*
X127054762Y-95201000D01*
X127054762Y-95201000D02*
X126983333Y-95224809D01*
X126983333Y-95224809D02*
X126935714Y-95224809D01*
X126935714Y-95224809D02*
X126864286Y-95201000D01*
X126864286Y-95201000D02*
X126816667Y-95153380D01*
X126816667Y-95153380D02*
X126792857Y-95105761D01*
X126792857Y-95105761D02*
X126769048Y-95010523D01*
X126769048Y-95010523D02*
X126769048Y-94939095D01*
X126769048Y-94939095D02*
X126792857Y-94843857D01*
X126792857Y-94843857D02*
X126816667Y-94796238D01*
X126816667Y-94796238D02*
X126864286Y-94748619D01*
X126864286Y-94748619D02*
X126935714Y-94724809D01*
X126935714Y-94724809D02*
X126983333Y-94724809D01*
X126983333Y-94724809D02*
X127054762Y-94748619D01*
X127054762Y-94748619D02*
X127078571Y-94772428D01*
X127554762Y-95224809D02*
X127269048Y-95224809D01*
X127411905Y-95224809D02*
X127411905Y-94724809D01*
X127411905Y-94724809D02*
X127364286Y-94796238D01*
X127364286Y-94796238D02*
X127316667Y-94843857D01*
X127316667Y-94843857D02*
X127269048Y-94867666D01*
X127864285Y-94724809D02*
X127911904Y-94724809D01*
X127911904Y-94724809D02*
X127959523Y-94748619D01*
X127959523Y-94748619D02*
X127983333Y-94772428D01*
X127983333Y-94772428D02*
X128007142Y-94820047D01*
X128007142Y-94820047D02*
X128030952Y-94915285D01*
X128030952Y-94915285D02*
X128030952Y-95034333D01*
X128030952Y-95034333D02*
X128007142Y-95129571D01*
X128007142Y-95129571D02*
X127983333Y-95177190D01*
X127983333Y-95177190D02*
X127959523Y-95201000D01*
X127959523Y-95201000D02*
X127911904Y-95224809D01*
X127911904Y-95224809D02*
X127864285Y-95224809D01*
X127864285Y-95224809D02*
X127816666Y-95201000D01*
X127816666Y-95201000D02*
X127792857Y-95177190D01*
X127792857Y-95177190D02*
X127769047Y-95129571D01*
X127769047Y-95129571D02*
X127745238Y-95034333D01*
X127745238Y-95034333D02*
X127745238Y-94915285D01*
X127745238Y-94915285D02*
X127769047Y-94820047D01*
X127769047Y-94820047D02*
X127792857Y-94772428D01*
X127792857Y-94772428D02*
X127816666Y-94748619D01*
X127816666Y-94748619D02*
X127864285Y-94724809D01*
X128578571Y-116724809D02*
X128411905Y-116486714D01*
X128292857Y-116724809D02*
X128292857Y-116224809D01*
X128292857Y-116224809D02*
X128483333Y-116224809D01*
X128483333Y-116224809D02*
X128530952Y-116248619D01*
X128530952Y-116248619D02*
X128554762Y-116272428D01*
X128554762Y-116272428D02*
X128578571Y-116320047D01*
X128578571Y-116320047D02*
X128578571Y-116391476D01*
X128578571Y-116391476D02*
X128554762Y-116439095D01*
X128554762Y-116439095D02*
X128530952Y-116462904D01*
X128530952Y-116462904D02*
X128483333Y-116486714D01*
X128483333Y-116486714D02*
X128292857Y-116486714D01*
X129054762Y-116724809D02*
X128769048Y-116724809D01*
X128911905Y-116724809D02*
X128911905Y-116224809D01*
X128911905Y-116224809D02*
X128864286Y-116296238D01*
X128864286Y-116296238D02*
X128816667Y-116343857D01*
X128816667Y-116343857D02*
X128769048Y-116367666D01*
X129507142Y-116224809D02*
X129269047Y-116224809D01*
X129269047Y-116224809D02*
X129245238Y-116462904D01*
X129245238Y-116462904D02*
X129269047Y-116439095D01*
X129269047Y-116439095D02*
X129316666Y-116415285D01*
X129316666Y-116415285D02*
X129435714Y-116415285D01*
X129435714Y-116415285D02*
X129483333Y-116439095D01*
X129483333Y-116439095D02*
X129507142Y-116462904D01*
X129507142Y-116462904D02*
X129530952Y-116510523D01*
X129530952Y-116510523D02*
X129530952Y-116629571D01*
X129530952Y-116629571D02*
X129507142Y-116677190D01*
X129507142Y-116677190D02*
X129483333Y-116701000D01*
X129483333Y-116701000D02*
X129435714Y-116724809D01*
X129435714Y-116724809D02*
X129316666Y-116724809D01*
X129316666Y-116724809D02*
X129269047Y-116701000D01*
X129269047Y-116701000D02*
X129245238Y-116677190D01*
X127530952Y-100024809D02*
X127530952Y-99524809D01*
X127530952Y-99524809D02*
X127650000Y-99524809D01*
X127650000Y-99524809D02*
X127721428Y-99548619D01*
X127721428Y-99548619D02*
X127769047Y-99596238D01*
X127769047Y-99596238D02*
X127792857Y-99643857D01*
X127792857Y-99643857D02*
X127816666Y-99739095D01*
X127816666Y-99739095D02*
X127816666Y-99810523D01*
X127816666Y-99810523D02*
X127792857Y-99905761D01*
X127792857Y-99905761D02*
X127769047Y-99953380D01*
X127769047Y-99953380D02*
X127721428Y-100001000D01*
X127721428Y-100001000D02*
X127650000Y-100024809D01*
X127650000Y-100024809D02*
X127530952Y-100024809D01*
X128292857Y-100024809D02*
X128007143Y-100024809D01*
X128150000Y-100024809D02*
X128150000Y-99524809D01*
X128150000Y-99524809D02*
X128102381Y-99596238D01*
X128102381Y-99596238D02*
X128054762Y-99643857D01*
X128054762Y-99643857D02*
X128007143Y-99667666D01*
X143277190Y-98521428D02*
X143301000Y-98545237D01*
X143301000Y-98545237D02*
X143324809Y-98616666D01*
X143324809Y-98616666D02*
X143324809Y-98664285D01*
X143324809Y-98664285D02*
X143301000Y-98735713D01*
X143301000Y-98735713D02*
X143253380Y-98783332D01*
X143253380Y-98783332D02*
X143205761Y-98807142D01*
X143205761Y-98807142D02*
X143110523Y-98830951D01*
X143110523Y-98830951D02*
X143039095Y-98830951D01*
X143039095Y-98830951D02*
X142943857Y-98807142D01*
X142943857Y-98807142D02*
X142896238Y-98783332D01*
X142896238Y-98783332D02*
X142848619Y-98735713D01*
X142848619Y-98735713D02*
X142824809Y-98664285D01*
X142824809Y-98664285D02*
X142824809Y-98616666D01*
X142824809Y-98616666D02*
X142848619Y-98545237D01*
X142848619Y-98545237D02*
X142872428Y-98521428D01*
X143324809Y-98045237D02*
X143324809Y-98330951D01*
X143324809Y-98188094D02*
X142824809Y-98188094D01*
X142824809Y-98188094D02*
X142896238Y-98235713D01*
X142896238Y-98235713D02*
X142943857Y-98283332D01*
X142943857Y-98283332D02*
X142967666Y-98330951D01*
X142824809Y-97878571D02*
X142824809Y-97569047D01*
X142824809Y-97569047D02*
X143015285Y-97735714D01*
X143015285Y-97735714D02*
X143015285Y-97664285D01*
X143015285Y-97664285D02*
X143039095Y-97616666D01*
X143039095Y-97616666D02*
X143062904Y-97592857D01*
X143062904Y-97592857D02*
X143110523Y-97569047D01*
X143110523Y-97569047D02*
X143229571Y-97569047D01*
X143229571Y-97569047D02*
X143277190Y-97592857D01*
X143277190Y-97592857D02*
X143301000Y-97616666D01*
X143301000Y-97616666D02*
X143324809Y-97664285D01*
X143324809Y-97664285D02*
X143324809Y-97807142D01*
X143324809Y-97807142D02*
X143301000Y-97854761D01*
X143301000Y-97854761D02*
X143277190Y-97878571D01*
X122416666Y-99324809D02*
X122250000Y-99086714D01*
X122130952Y-99324809D02*
X122130952Y-98824809D01*
X122130952Y-98824809D02*
X122321428Y-98824809D01*
X122321428Y-98824809D02*
X122369047Y-98848619D01*
X122369047Y-98848619D02*
X122392857Y-98872428D01*
X122392857Y-98872428D02*
X122416666Y-98920047D01*
X122416666Y-98920047D02*
X122416666Y-98991476D01*
X122416666Y-98991476D02*
X122392857Y-99039095D01*
X122392857Y-99039095D02*
X122369047Y-99062904D01*
X122369047Y-99062904D02*
X122321428Y-99086714D01*
X122321428Y-99086714D02*
X122130952Y-99086714D01*
X122583333Y-98824809D02*
X122892857Y-98824809D01*
X122892857Y-98824809D02*
X122726190Y-99015285D01*
X122726190Y-99015285D02*
X122797619Y-99015285D01*
X122797619Y-99015285D02*
X122845238Y-99039095D01*
X122845238Y-99039095D02*
X122869047Y-99062904D01*
X122869047Y-99062904D02*
X122892857Y-99110523D01*
X122892857Y-99110523D02*
X122892857Y-99229571D01*
X122892857Y-99229571D02*
X122869047Y-99277190D01*
X122869047Y-99277190D02*
X122845238Y-99301000D01*
X122845238Y-99301000D02*
X122797619Y-99324809D01*
X122797619Y-99324809D02*
X122654762Y-99324809D01*
X122654762Y-99324809D02*
X122607143Y-99301000D01*
X122607143Y-99301000D02*
X122583333Y-99277190D01*
X121278571Y-92624809D02*
X121111905Y-92386714D01*
X120992857Y-92624809D02*
X120992857Y-92124809D01*
X120992857Y-92124809D02*
X121183333Y-92124809D01*
X121183333Y-92124809D02*
X121230952Y-92148619D01*
X121230952Y-92148619D02*
X121254762Y-92172428D01*
X121254762Y-92172428D02*
X121278571Y-92220047D01*
X121278571Y-92220047D02*
X121278571Y-92291476D01*
X121278571Y-92291476D02*
X121254762Y-92339095D01*
X121254762Y-92339095D02*
X121230952Y-92362904D01*
X121230952Y-92362904D02*
X121183333Y-92386714D01*
X121183333Y-92386714D02*
X120992857Y-92386714D01*
X121754762Y-92624809D02*
X121469048Y-92624809D01*
X121611905Y-92624809D02*
X121611905Y-92124809D01*
X121611905Y-92124809D02*
X121564286Y-92196238D01*
X121564286Y-92196238D02*
X121516667Y-92243857D01*
X121516667Y-92243857D02*
X121469048Y-92267666D01*
X122064285Y-92124809D02*
X122111904Y-92124809D01*
X122111904Y-92124809D02*
X122159523Y-92148619D01*
X122159523Y-92148619D02*
X122183333Y-92172428D01*
X122183333Y-92172428D02*
X122207142Y-92220047D01*
X122207142Y-92220047D02*
X122230952Y-92315285D01*
X122230952Y-92315285D02*
X122230952Y-92434333D01*
X122230952Y-92434333D02*
X122207142Y-92529571D01*
X122207142Y-92529571D02*
X122183333Y-92577190D01*
X122183333Y-92577190D02*
X122159523Y-92601000D01*
X122159523Y-92601000D02*
X122111904Y-92624809D01*
X122111904Y-92624809D02*
X122064285Y-92624809D01*
X122064285Y-92624809D02*
X122016666Y-92601000D01*
X122016666Y-92601000D02*
X121992857Y-92577190D01*
X121992857Y-92577190D02*
X121969047Y-92529571D01*
X121969047Y-92529571D02*
X121945238Y-92434333D01*
X121945238Y-92434333D02*
X121945238Y-92315285D01*
X121945238Y-92315285D02*
X121969047Y-92220047D01*
X121969047Y-92220047D02*
X121992857Y-92172428D01*
X121992857Y-92172428D02*
X122016666Y-92148619D01*
X122016666Y-92148619D02*
X122064285Y-92124809D01*
X140616666Y-113924809D02*
X140450000Y-113686714D01*
X140330952Y-113924809D02*
X140330952Y-113424809D01*
X140330952Y-113424809D02*
X140521428Y-113424809D01*
X140521428Y-113424809D02*
X140569047Y-113448619D01*
X140569047Y-113448619D02*
X140592857Y-113472428D01*
X140592857Y-113472428D02*
X140616666Y-113520047D01*
X140616666Y-113520047D02*
X140616666Y-113591476D01*
X140616666Y-113591476D02*
X140592857Y-113639095D01*
X140592857Y-113639095D02*
X140569047Y-113662904D01*
X140569047Y-113662904D02*
X140521428Y-113686714D01*
X140521428Y-113686714D02*
X140330952Y-113686714D01*
X140902381Y-113639095D02*
X140854762Y-113615285D01*
X140854762Y-113615285D02*
X140830952Y-113591476D01*
X140830952Y-113591476D02*
X140807143Y-113543857D01*
X140807143Y-113543857D02*
X140807143Y-113520047D01*
X140807143Y-113520047D02*
X140830952Y-113472428D01*
X140830952Y-113472428D02*
X140854762Y-113448619D01*
X140854762Y-113448619D02*
X140902381Y-113424809D01*
X140902381Y-113424809D02*
X140997619Y-113424809D01*
X140997619Y-113424809D02*
X141045238Y-113448619D01*
X141045238Y-113448619D02*
X141069047Y-113472428D01*
X141069047Y-113472428D02*
X141092857Y-113520047D01*
X141092857Y-113520047D02*
X141092857Y-113543857D01*
X141092857Y-113543857D02*
X141069047Y-113591476D01*
X141069047Y-113591476D02*
X141045238Y-113615285D01*
X141045238Y-113615285D02*
X140997619Y-113639095D01*
X140997619Y-113639095D02*
X140902381Y-113639095D01*
X140902381Y-113639095D02*
X140854762Y-113662904D01*
X140854762Y-113662904D02*
X140830952Y-113686714D01*
X140830952Y-113686714D02*
X140807143Y-113734333D01*
X140807143Y-113734333D02*
X140807143Y-113829571D01*
X140807143Y-113829571D02*
X140830952Y-113877190D01*
X140830952Y-113877190D02*
X140854762Y-113901000D01*
X140854762Y-113901000D02*
X140902381Y-113924809D01*
X140902381Y-113924809D02*
X140997619Y-113924809D01*
X140997619Y-113924809D02*
X141045238Y-113901000D01*
X141045238Y-113901000D02*
X141069047Y-113877190D01*
X141069047Y-113877190D02*
X141092857Y-113829571D01*
X141092857Y-113829571D02*
X141092857Y-113734333D01*
X141092857Y-113734333D02*
X141069047Y-113686714D01*
X141069047Y-113686714D02*
X141045238Y-113662904D01*
X141045238Y-113662904D02*
X140997619Y-113639095D01*
X127378571Y-115524809D02*
X127211905Y-115286714D01*
X127092857Y-115524809D02*
X127092857Y-115024809D01*
X127092857Y-115024809D02*
X127283333Y-115024809D01*
X127283333Y-115024809D02*
X127330952Y-115048619D01*
X127330952Y-115048619D02*
X127354762Y-115072428D01*
X127354762Y-115072428D02*
X127378571Y-115120047D01*
X127378571Y-115120047D02*
X127378571Y-115191476D01*
X127378571Y-115191476D02*
X127354762Y-115239095D01*
X127354762Y-115239095D02*
X127330952Y-115262904D01*
X127330952Y-115262904D02*
X127283333Y-115286714D01*
X127283333Y-115286714D02*
X127092857Y-115286714D01*
X127854762Y-115524809D02*
X127569048Y-115524809D01*
X127711905Y-115524809D02*
X127711905Y-115024809D01*
X127711905Y-115024809D02*
X127664286Y-115096238D01*
X127664286Y-115096238D02*
X127616667Y-115143857D01*
X127616667Y-115143857D02*
X127569048Y-115167666D01*
X128021428Y-115024809D02*
X128330952Y-115024809D01*
X128330952Y-115024809D02*
X128164285Y-115215285D01*
X128164285Y-115215285D02*
X128235714Y-115215285D01*
X128235714Y-115215285D02*
X128283333Y-115239095D01*
X128283333Y-115239095D02*
X128307142Y-115262904D01*
X128307142Y-115262904D02*
X128330952Y-115310523D01*
X128330952Y-115310523D02*
X128330952Y-115429571D01*
X128330952Y-115429571D02*
X128307142Y-115477190D01*
X128307142Y-115477190D02*
X128283333Y-115501000D01*
X128283333Y-115501000D02*
X128235714Y-115524809D01*
X128235714Y-115524809D02*
X128092857Y-115524809D01*
X128092857Y-115524809D02*
X128045238Y-115501000D01*
X128045238Y-115501000D02*
X128021428Y-115477190D01*
X143177190Y-101521428D02*
X143201000Y-101545237D01*
X143201000Y-101545237D02*
X143224809Y-101616666D01*
X143224809Y-101616666D02*
X143224809Y-101664285D01*
X143224809Y-101664285D02*
X143201000Y-101735713D01*
X143201000Y-101735713D02*
X143153380Y-101783332D01*
X143153380Y-101783332D02*
X143105761Y-101807142D01*
X143105761Y-101807142D02*
X143010523Y-101830951D01*
X143010523Y-101830951D02*
X142939095Y-101830951D01*
X142939095Y-101830951D02*
X142843857Y-101807142D01*
X142843857Y-101807142D02*
X142796238Y-101783332D01*
X142796238Y-101783332D02*
X142748619Y-101735713D01*
X142748619Y-101735713D02*
X142724809Y-101664285D01*
X142724809Y-101664285D02*
X142724809Y-101616666D01*
X142724809Y-101616666D02*
X142748619Y-101545237D01*
X142748619Y-101545237D02*
X142772428Y-101521428D01*
X143224809Y-101045237D02*
X143224809Y-101330951D01*
X143224809Y-101188094D02*
X142724809Y-101188094D01*
X142724809Y-101188094D02*
X142796238Y-101235713D01*
X142796238Y-101235713D02*
X142843857Y-101283332D01*
X142843857Y-101283332D02*
X142867666Y-101330951D01*
X142891476Y-100616666D02*
X143224809Y-100616666D01*
X142701000Y-100735714D02*
X143058142Y-100854761D01*
X143058142Y-100854761D02*
X143058142Y-100545238D01*
X147216666Y-100577190D02*
X147192857Y-100601000D01*
X147192857Y-100601000D02*
X147121428Y-100624809D01*
X147121428Y-100624809D02*
X147073809Y-100624809D01*
X147073809Y-100624809D02*
X147002381Y-100601000D01*
X147002381Y-100601000D02*
X146954762Y-100553380D01*
X146954762Y-100553380D02*
X146930952Y-100505761D01*
X146930952Y-100505761D02*
X146907143Y-100410523D01*
X146907143Y-100410523D02*
X146907143Y-100339095D01*
X146907143Y-100339095D02*
X146930952Y-100243857D01*
X146930952Y-100243857D02*
X146954762Y-100196238D01*
X146954762Y-100196238D02*
X147002381Y-100148619D01*
X147002381Y-100148619D02*
X147073809Y-100124809D01*
X147073809Y-100124809D02*
X147121428Y-100124809D01*
X147121428Y-100124809D02*
X147192857Y-100148619D01*
X147192857Y-100148619D02*
X147216666Y-100172428D01*
X147383333Y-100124809D02*
X147716666Y-100124809D01*
X147716666Y-100124809D02*
X147502381Y-100624809D01*
X131378571Y-116724809D02*
X131211905Y-116486714D01*
X131092857Y-116724809D02*
X131092857Y-116224809D01*
X131092857Y-116224809D02*
X131283333Y-116224809D01*
X131283333Y-116224809D02*
X131330952Y-116248619D01*
X131330952Y-116248619D02*
X131354762Y-116272428D01*
X131354762Y-116272428D02*
X131378571Y-116320047D01*
X131378571Y-116320047D02*
X131378571Y-116391476D01*
X131378571Y-116391476D02*
X131354762Y-116439095D01*
X131354762Y-116439095D02*
X131330952Y-116462904D01*
X131330952Y-116462904D02*
X131283333Y-116486714D01*
X131283333Y-116486714D02*
X131092857Y-116486714D01*
X131854762Y-116724809D02*
X131569048Y-116724809D01*
X131711905Y-116724809D02*
X131711905Y-116224809D01*
X131711905Y-116224809D02*
X131664286Y-116296238D01*
X131664286Y-116296238D02*
X131616667Y-116343857D01*
X131616667Y-116343857D02*
X131569048Y-116367666D01*
X132283333Y-116391476D02*
X132283333Y-116724809D01*
X132164285Y-116201000D02*
X132045238Y-116558142D01*
X132045238Y-116558142D02*
X132354761Y-116558142D01*
D10*
X143890000Y-99188748D02*
X143890000Y-100611252D01*
X145710000Y-99188748D02*
X145710000Y-100611252D01*
X121690000Y-95059420D02*
X121690000Y-95340580D01*
X122710000Y-95059420D02*
X122710000Y-95340580D01*
X130890000Y-99934420D02*
X130890000Y-100215580D01*
X131910000Y-99934420D02*
X131910000Y-100215580D01*
D12*
X133900000Y-93500000D02*
G75*
G02*
X131100000Y-93500000I-1400000J0D01*
G01*
X131100000Y-93500000D02*
G75*
G02*
X133900000Y-93500000I1400000J0D01*
G01*
D10*
X131925000Y-113113859D02*
X131925000Y-113421141D01*
X132685000Y-113113859D02*
X132685000Y-113421141D01*
X121511252Y-99765000D02*
X120988746Y-99765000D01*
X121511252Y-101235000D02*
X120988746Y-101235000D01*
X120446359Y-113620000D02*
X120753641Y-113620000D01*
X120446359Y-114380000D02*
X120753641Y-114380000D01*
D13*
X132515000Y-108430405D02*
X132515000Y-108916353D01*
X137515000Y-108916353D02*
X137515000Y-108430405D01*
X133186200Y-110782145D02*
G75*
G02*
X133033800Y-110782145I-76200J0D01*
G01*
X133033800Y-110782145D02*
G75*
G02*
X133186200Y-110782145I76200J0D01*
G01*
D10*
X148790000Y-103886252D02*
X148790000Y-102463748D01*
X150610000Y-103886252D02*
X150610000Y-102463748D01*
X138350000Y-102950000D02*
X144850000Y-102950000D01*
X138350000Y-104200000D02*
X138350000Y-102950000D01*
X138350000Y-108450000D02*
X138350000Y-107200000D01*
X144850000Y-102950000D02*
X144850000Y-104200000D01*
X144850000Y-107200000D02*
X144850000Y-108450000D01*
X144850000Y-108450000D02*
X138350000Y-108450000D01*
X140359420Y-92890000D02*
X140640580Y-92890000D01*
X140359420Y-93910000D02*
X140640580Y-93910000D01*
X123190000Y-108140580D02*
X123190000Y-107859420D01*
X124210000Y-108140580D02*
X124210000Y-107859420D01*
X116320000Y-95050000D02*
X117650000Y-95050000D01*
X116320000Y-96380000D02*
X116320000Y-95050000D01*
X116320000Y-97650000D02*
X116320000Y-112950000D01*
X116320000Y-97650000D02*
X118980000Y-97650000D01*
X116320000Y-112950000D02*
X118980000Y-112950000D01*
X118980000Y-97650000D02*
X118980000Y-112950000D01*
X139597936Y-94540000D02*
X140802064Y-94540000D01*
X139597936Y-97260000D02*
X140802064Y-97260000D01*
X127000000Y-100915000D02*
X125500000Y-100915000D01*
X127000000Y-100915000D02*
X128500000Y-100915000D01*
X127000000Y-105135000D02*
X125500000Y-105135000D01*
X127000000Y-105135000D02*
X128500000Y-105135000D01*
X124812500Y-100940000D02*
X124572500Y-100610000D01*
X125052500Y-100610000D01*
X124812500Y-100940000D01*
G36*
X124812500Y-100940000D02*
G01*
X124572500Y-100610000D01*
X125052500Y-100610000D01*
X124812500Y-100940000D01*
G37*
X129090000Y-114060000D02*
X129090000Y-112650000D01*
X131410000Y-114050000D02*
X131410000Y-112650000D01*
X129140000Y-114430000D02*
X128810000Y-114670000D01*
X128810000Y-114190000D01*
X129140000Y-114430000D01*
G36*
X129140000Y-114430000D02*
G01*
X128810000Y-114670000D01*
X128810000Y-114190000D01*
X129140000Y-114430000D01*
G37*
D13*
X132505000Y-100860261D02*
X132505000Y-101346209D01*
X137505000Y-101346209D02*
X137505000Y-100860261D01*
X133176200Y-103212001D02*
G75*
G02*
X133023800Y-103212001I-76200J0D01*
G01*
X133023800Y-103212001D02*
G75*
G02*
X133176200Y-103212001I76200J0D01*
G01*
D10*
X150888748Y-105890000D02*
X152311252Y-105890000D01*
X150888748Y-107710000D02*
X152311252Y-107710000D01*
X120420000Y-96653641D02*
X120420000Y-96346359D01*
X121180000Y-96653641D02*
X121180000Y-96346359D01*
X142790000Y-91322936D02*
X142790000Y-95677064D01*
X146210000Y-91322936D02*
X146210000Y-95677064D01*
X120753641Y-112620000D02*
X120446359Y-112620000D01*
X120753641Y-113380000D02*
X120446359Y-113380000D01*
D12*
X148400000Y-107900000D02*
G75*
G02*
X145600000Y-107900000I-1400000J0D01*
G01*
X145600000Y-107900000D02*
G75*
G02*
X148400000Y-107900000I1400000J0D01*
G01*
X137400000Y-93500000D02*
G75*
G02*
X134600000Y-93500000I-1400000J0D01*
G01*
X134600000Y-93500000D02*
G75*
G02*
X137400000Y-93500000I1400000J0D01*
G01*
D10*
X123190000Y-97500000D02*
X123190000Y-96000000D01*
X123190000Y-97500000D02*
X123190000Y-99000000D01*
X126410000Y-97500000D02*
X126410000Y-96000000D01*
X126410000Y-97500000D02*
X126410000Y-99000000D01*
X123365000Y-99712500D02*
X123035000Y-99952500D01*
X123035000Y-99472500D01*
X123365000Y-99712500D01*
G36*
X123365000Y-99712500D02*
G01*
X123035000Y-99952500D01*
X123035000Y-99472500D01*
X123365000Y-99712500D01*
G37*
X147522936Y-114090000D02*
X151877064Y-114090000D01*
X147522936Y-117510000D02*
X151877064Y-117510000D01*
X136554724Y-111977500D02*
X136045276Y-111977500D01*
X136554724Y-113022500D02*
X136045276Y-113022500D01*
X151190000Y-103911252D02*
X151190000Y-102488748D01*
X153010000Y-103911252D02*
X153010000Y-102488748D01*
X128390000Y-107388748D02*
X128390000Y-108811252D01*
X130210000Y-107388748D02*
X130210000Y-108811252D01*
X146890000Y-94710000D02*
X146890000Y-89290000D01*
X155610000Y-89290000D02*
X146890000Y-89290000D01*
X155610000Y-94710000D02*
X146890000Y-94710000D01*
X157310000Y-90590000D02*
X155610000Y-89290000D01*
X157310000Y-93410000D02*
X155610000Y-94710000D01*
X157310000Y-93410000D02*
X157310000Y-90590000D01*
X138800000Y-113640000D02*
X137400000Y-113640000D01*
X138810000Y-115960000D02*
X137400000Y-115960000D01*
X139420000Y-116240000D02*
X138940000Y-116240000D01*
X139180000Y-115910000D01*
X139420000Y-116240000D01*
G36*
X139420000Y-116240000D02*
G01*
X138940000Y-116240000D01*
X139180000Y-115910000D01*
X139420000Y-116240000D01*
G37*
X129065000Y-91738748D02*
X129065000Y-92261252D01*
X130535000Y-91738748D02*
X130535000Y-92261252D01*
X124840000Y-108702064D02*
X124840000Y-107497936D01*
X127560000Y-108702064D02*
X127560000Y-107497936D01*
X126990000Y-97040580D02*
X126990000Y-96759420D01*
X128010000Y-97040580D02*
X128010000Y-96759420D01*
X129451359Y-115187500D02*
X129758641Y-115187500D01*
X129451359Y-115947500D02*
X129758641Y-115947500D01*
X128500000Y-100610000D02*
X128500000Y-96750000D01*
X128500000Y-100610000D02*
X130500000Y-100610000D01*
X130500000Y-100610000D02*
X130500000Y-96750000D01*
X139588748Y-97890000D02*
X141011252Y-97890000D01*
X139588748Y-99710000D02*
X141011252Y-99710000D01*
X122120000Y-97853641D02*
X122120000Y-97546359D01*
X122880000Y-97853641D02*
X122880000Y-97546359D01*
X120420000Y-93736359D02*
X120420000Y-94043641D01*
X121180000Y-93736359D02*
X121180000Y-94043641D01*
X139545276Y-111977500D02*
X140054724Y-111977500D01*
X139545276Y-113022500D02*
X140054724Y-113022500D01*
X127825000Y-114021141D02*
X127825000Y-113713859D01*
X128585000Y-114021141D02*
X128585000Y-113713859D01*
X139588748Y-100290000D02*
X141011252Y-100290000D01*
X139588748Y-102110000D02*
X141011252Y-102110000D01*
X146290000Y-103886252D02*
X146290000Y-102463748D01*
X148110000Y-103886252D02*
X148110000Y-102463748D01*
X131451359Y-115187500D02*
X131758641Y-115187500D01*
X131451359Y-115947500D02*
X131758641Y-115947500D01*
%LPC*%
D14*
G36*
X133505000Y-104340672D02*
G01*
X132715000Y-104340672D01*
X132715000Y-103570672D01*
X133505000Y-103570672D01*
X133505000Y-104340672D01*
G37*
G36*
X133505000Y-109810816D02*
G01*
X132715000Y-109810816D01*
X132715000Y-109040816D01*
X133505000Y-109040816D01*
X133505000Y-109810816D01*
G37*
G36*
X134775000Y-104340672D02*
G01*
X133985000Y-104340672D01*
X133985000Y-103570672D01*
X134775000Y-103570672D01*
X134775000Y-104340672D01*
G37*
G36*
X134775000Y-109810816D02*
G01*
X133985000Y-109810816D01*
X133985000Y-109040816D01*
X134775000Y-109040816D01*
X134775000Y-109810816D01*
G37*
G36*
X136045000Y-104340672D02*
G01*
X135255000Y-104340672D01*
X135255000Y-103570672D01*
X136045000Y-103570672D01*
X136045000Y-104340672D01*
G37*
G36*
X136045000Y-109810816D02*
G01*
X135255000Y-109810816D01*
X135255000Y-109040816D01*
X136045000Y-109040816D01*
X136045000Y-109810816D01*
G37*
G36*
X137315000Y-104340672D02*
G01*
X136525000Y-104340672D01*
X136525000Y-103570672D01*
X137315000Y-103570672D01*
X137315000Y-104340672D01*
G37*
G36*
X137315000Y-109810816D02*
G01*
X136525000Y-109810816D01*
X136525000Y-109040816D01*
X137315000Y-109040816D01*
X137315000Y-109810816D01*
G37*
G36*
X137244999Y-108235943D02*
G01*
X135015000Y-108235943D01*
X135015000Y-103945543D01*
X137244999Y-103945543D01*
X137244999Y-108235943D01*
G37*
D15*
X156436956Y-104475593D02*
X156369585Y-104526903D01*
X156507407Y-104418148D02*
X156436956Y-104475593D01*
X156547810Y-104383430D02*
X156507407Y-104418148D01*
X156590135Y-104345459D02*
X156547810Y-104383430D01*
X156633236Y-104304792D02*
X156590135Y-104345459D01*
X156675965Y-104261987D02*
X156633236Y-104304792D01*
X156717176Y-104217601D02*
X156675965Y-104261987D01*
X156755722Y-104172194D02*
X156717176Y-104217601D01*
X156790456Y-104126321D02*
X156755722Y-104172194D01*
X156806035Y-104103385D02*
X156790456Y-104126321D01*
X156820230Y-104080542D02*
X156806035Y-104103385D01*
X156832900Y-104057861D02*
X156820230Y-104080542D01*
X156843899Y-104035413D02*
X156832900Y-104057861D01*
X156853086Y-104013267D02*
X156843899Y-104035413D01*
X156860315Y-103991492D02*
X156853086Y-104013267D01*
X156860315Y-103991492D02*
X156860315Y-103991492D01*
X156869889Y-103953233D02*
X156860315Y-103991492D01*
X156878070Y-103910685D02*
X156869889Y-103953233D01*
X156885018Y-103864555D02*
X156878070Y-103910685D01*
X156890887Y-103815554D02*
X156885018Y-103864555D01*
X156900017Y-103711777D02*
X156890887Y-103815554D01*
X156906715Y-103605029D02*
X156900017Y-103711777D01*
X156917827Y-103405318D02*
X156906715Y-103605029D01*
X156924747Y-103323706D02*
X156917827Y-103405318D01*
X156929096Y-103289945D02*
X156924747Y-103323706D01*
X156934248Y-103261824D02*
X156929096Y-103289945D01*
X156934248Y-103261824D02*
X156934248Y-103261824D01*
X156938942Y-103242098D02*
X156934248Y-103261824D01*
X156944093Y-103222761D02*
X156938942Y-103242098D01*
X156949661Y-103203829D02*
X156944093Y-103222761D01*
X156955605Y-103185316D02*
X156949661Y-103203829D01*
X156961887Y-103167240D02*
X156955605Y-103185316D01*
X156968467Y-103149615D02*
X156961887Y-103167240D01*
X156975304Y-103132457D02*
X156968467Y-103149615D01*
X156982359Y-103115781D02*
X156975304Y-103132457D01*
X156989593Y-103099604D02*
X156982359Y-103115781D01*
X156996965Y-103083940D02*
X156989593Y-103099604D01*
X157004437Y-103068805D02*
X156996965Y-103083940D01*
X157011968Y-103054214D02*
X157004437Y-103068805D01*
X157027049Y-103026730D02*
X157011968Y-103054214D01*
X157041891Y-103001610D02*
X157027049Y-103026730D01*
X157056176Y-102978980D02*
X157041891Y-103001610D01*
X157069587Y-102958964D02*
X157056176Y-102978980D01*
X157081806Y-102941686D02*
X157069587Y-102958964D01*
X157092516Y-102927270D02*
X157081806Y-102941686D01*
X157108136Y-102907524D02*
X157092516Y-102927270D01*
X157113908Y-102900721D02*
X157108136Y-102907524D01*
D16*
X157326125Y-102659209D02*
X157263874Y-103031478D01*
X156928141Y-102885296D01*
X157158257Y-102586105D01*
X157326125Y-102659209D01*
G36*
X157326125Y-102659209D02*
G01*
X157263874Y-103031478D01*
X156928141Y-102885296D01*
X157158257Y-102586105D01*
X157326125Y-102659209D01*
G37*
X157866044Y-100183588D02*
X157892913Y-100184655D01*
X157919800Y-100186395D01*
X157946690Y-100188812D01*
X157973574Y-100191912D01*
X158000439Y-100195700D01*
X158027274Y-100200180D01*
X158054067Y-100205358D01*
X158080806Y-100211238D01*
X158107480Y-100217826D01*
X158134077Y-100225126D01*
X158160585Y-100233144D01*
X158186993Y-100241883D01*
X158213289Y-100251350D01*
X158239462Y-100261549D01*
X158265499Y-100272486D01*
X158316543Y-100296307D01*
X158365782Y-100322482D01*
X158413183Y-100350917D01*
X158458708Y-100381517D01*
X158502322Y-100414189D01*
X158543990Y-100448837D01*
X158583674Y-100485369D01*
X158621341Y-100523689D01*
X158656953Y-100563704D01*
X158690476Y-100605319D01*
X158721872Y-100648440D01*
X158751108Y-100692973D01*
X158778146Y-100738823D01*
X158802951Y-100785897D01*
X158825488Y-100834101D01*
X158845720Y-100883339D01*
X158863612Y-100933518D01*
X158879128Y-100984544D01*
X158892232Y-101036322D01*
X158902889Y-101088759D01*
X158911062Y-101141760D01*
X158916716Y-101195230D01*
X158919815Y-101249076D01*
X158920324Y-101303204D01*
X158918206Y-101357518D01*
X158913426Y-101411926D01*
X158905949Y-101466333D01*
X158895737Y-101520644D01*
X158882756Y-101574766D01*
X158866970Y-101628604D01*
X158848343Y-101682064D01*
X158826839Y-101735052D01*
X158775155Y-101839981D01*
X158711341Y-101946035D01*
X158636576Y-102051709D01*
X158552043Y-102155499D01*
X158458922Y-102255901D01*
X158358395Y-102351411D01*
X158251643Y-102440525D01*
X158139848Y-102521739D01*
X158024191Y-102593550D01*
X157965283Y-102625458D01*
X157905853Y-102654452D01*
X157846048Y-102680342D01*
X157786016Y-102702942D01*
X157725904Y-102722062D01*
X157665860Y-102737516D01*
X157606033Y-102749114D01*
X157546568Y-102756669D01*
X157487615Y-102759994D01*
X157429320Y-102758899D01*
X157371832Y-102753197D01*
X157315299Y-102742701D01*
X157259866Y-102727221D01*
X157205684Y-102706570D01*
X157153656Y-102680974D01*
X157104562Y-102650940D01*
X157058364Y-102616705D01*
X157015027Y-102578505D01*
X156974513Y-102536576D01*
X156936785Y-102491155D01*
X156901805Y-102442477D01*
X156869538Y-102390779D01*
X156839945Y-102336297D01*
X156812990Y-102279267D01*
X156766846Y-102158507D01*
X156730809Y-102030389D01*
X156704584Y-101896803D01*
X156687873Y-101759637D01*
X156680382Y-101620782D01*
X156681813Y-101482125D01*
X156691871Y-101345557D01*
X156710259Y-101212967D01*
X156736682Y-101086245D01*
X156770843Y-100967278D01*
X156812447Y-100857958D01*
X156849526Y-100780864D01*
X156891688Y-100707828D01*
X156938617Y-100638979D01*
X156989997Y-100574444D01*
X157045516Y-100514351D01*
X157104856Y-100458830D01*
X157167704Y-100408008D01*
X157233745Y-100362012D01*
X157302662Y-100320971D01*
X157374143Y-100285014D01*
X157447871Y-100254268D01*
X157523532Y-100228861D01*
X157600810Y-100208922D01*
X157679391Y-100194578D01*
X157758960Y-100185957D01*
X157839202Y-100183189D01*
X157866044Y-100183588D01*
G36*
X157866044Y-100183588D02*
G01*
X157892913Y-100184655D01*
X157919800Y-100186395D01*
X157946690Y-100188812D01*
X157973574Y-100191912D01*
X158000439Y-100195700D01*
X158027274Y-100200180D01*
X158054067Y-100205358D01*
X158080806Y-100211238D01*
X158107480Y-100217826D01*
X158134077Y-100225126D01*
X158160585Y-100233144D01*
X158186993Y-100241883D01*
X158213289Y-100251350D01*
X158239462Y-100261549D01*
X158265499Y-100272486D01*
X158316543Y-100296307D01*
X158365782Y-100322482D01*
X158413183Y-100350917D01*
X158458708Y-100381517D01*
X158502322Y-100414189D01*
X158543990Y-100448837D01*
X158583674Y-100485369D01*
X158621341Y-100523689D01*
X158656953Y-100563704D01*
X158690476Y-100605319D01*
X158721872Y-100648440D01*
X158751108Y-100692973D01*
X158778146Y-100738823D01*
X158802951Y-100785897D01*
X158825488Y-100834101D01*
X158845720Y-100883339D01*
X158863612Y-100933518D01*
X158879128Y-100984544D01*
X158892232Y-101036322D01*
X158902889Y-101088759D01*
X158911062Y-101141760D01*
X158916716Y-101195230D01*
X158919815Y-101249076D01*
X158920324Y-101303204D01*
X158918206Y-101357518D01*
X158913426Y-101411926D01*
X158905949Y-101466333D01*
X158895737Y-101520644D01*
X158882756Y-101574766D01*
X158866970Y-101628604D01*
X158848343Y-101682064D01*
X158826839Y-101735052D01*
X158775155Y-101839981D01*
X158711341Y-101946035D01*
X158636576Y-102051709D01*
X158552043Y-102155499D01*
X158458922Y-102255901D01*
X158358395Y-102351411D01*
X158251643Y-102440525D01*
X158139848Y-102521739D01*
X158024191Y-102593550D01*
X157965283Y-102625458D01*
X157905853Y-102654452D01*
X157846048Y-102680342D01*
X157786016Y-102702942D01*
X157725904Y-102722062D01*
X157665860Y-102737516D01*
X157606033Y-102749114D01*
X157546568Y-102756669D01*
X157487615Y-102759994D01*
X157429320Y-102758899D01*
X157371832Y-102753197D01*
X157315299Y-102742701D01*
X157259866Y-102727221D01*
X157205684Y-102706570D01*
X157153656Y-102680974D01*
X157104562Y-102650940D01*
X157058364Y-102616705D01*
X157015027Y-102578505D01*
X156974513Y-102536576D01*
X156936785Y-102491155D01*
X156901805Y-102442477D01*
X156869538Y-102390779D01*
X156839945Y-102336297D01*
X156812990Y-102279267D01*
X156766846Y-102158507D01*
X156730809Y-102030389D01*
X156704584Y-101896803D01*
X156687873Y-101759637D01*
X156680382Y-101620782D01*
X156681813Y-101482125D01*
X156691871Y-101345557D01*
X156710259Y-101212967D01*
X156736682Y-101086245D01*
X156770843Y-100967278D01*
X156812447Y-100857958D01*
X156849526Y-100780864D01*
X156891688Y-100707828D01*
X156938617Y-100638979D01*
X156989997Y-100574444D01*
X157045516Y-100514351D01*
X157104856Y-100458830D01*
X157167704Y-100408008D01*
X157233745Y-100362012D01*
X157302662Y-100320971D01*
X157374143Y-100285014D01*
X157447871Y-100254268D01*
X157523532Y-100228861D01*
X157600810Y-100208922D01*
X157679391Y-100194578D01*
X157758960Y-100185957D01*
X157839202Y-100183189D01*
X157866044Y-100183588D01*
G37*
D14*
G36*
X133495000Y-96770528D02*
G01*
X132705000Y-96770528D01*
X132705000Y-96000528D01*
X133495000Y-96000528D01*
X133495000Y-96770528D01*
G37*
G36*
X133495000Y-102240672D02*
G01*
X132705000Y-102240672D01*
X132705000Y-101470672D01*
X133495000Y-101470672D01*
X133495000Y-102240672D01*
G37*
G36*
X135005000Y-100665799D02*
G01*
X132775001Y-100665799D01*
X132775001Y-96375399D01*
X135005000Y-96375399D01*
X135005000Y-100665799D01*
G37*
G36*
X134765000Y-96770528D02*
G01*
X133975000Y-96770528D01*
X133975000Y-96000528D01*
X134765000Y-96000528D01*
X134765000Y-96770528D01*
G37*
G36*
X134765000Y-102240672D02*
G01*
X133975000Y-102240672D01*
X133975000Y-101470672D01*
X134765000Y-101470672D01*
X134765000Y-102240672D01*
G37*
G36*
X136035000Y-96770528D02*
G01*
X135245000Y-96770528D01*
X135245000Y-96000528D01*
X136035000Y-96000528D01*
X136035000Y-96770528D01*
G37*
G36*
X136035000Y-102240672D02*
G01*
X135245000Y-102240672D01*
X135245000Y-101470672D01*
X136035000Y-101470672D01*
X136035000Y-102240672D01*
G37*
G36*
X137305000Y-96770528D02*
G01*
X136515000Y-96770528D01*
X136515000Y-96000528D01*
X137305000Y-96000528D01*
X137305000Y-96770528D01*
G37*
G36*
X137305000Y-102240672D02*
G01*
X136515000Y-102240672D01*
X136515000Y-101470672D01*
X137305000Y-101470672D01*
X137305000Y-102240672D01*
G37*
G36*
X137234999Y-100665799D02*
G01*
X135005000Y-100665799D01*
X135005000Y-96375399D01*
X137234999Y-96375399D01*
X137234999Y-100665799D01*
G37*
D17*
X144800000Y-98425000D03*
X144800000Y-101375000D03*
D18*
X122200000Y-94425000D03*
X122200000Y-95975000D03*
X131400000Y-99300000D03*
X131400000Y-100850000D03*
D19*
X132500000Y-93500000D03*
D20*
X132305000Y-112757500D03*
X132305000Y-113777500D03*
D21*
X122199998Y-100500000D03*
X120300000Y-100500000D03*
D22*
X120090000Y-114000000D03*
X121110000Y-114000000D03*
D23*
X135015000Y-106108228D03*
D24*
X133110000Y-103955672D03*
X134380000Y-103955672D03*
X135650000Y-103955672D03*
X136920000Y-103955672D03*
X136920000Y-109425816D03*
X133110000Y-109425816D03*
X134380000Y-109425816D03*
X135650000Y-109425816D03*
D25*
X149700000Y-104650000D03*
X149700000Y-101700000D03*
D26*
X139350000Y-105700000D03*
X143850000Y-105700000D03*
D27*
X139725000Y-93400000D03*
X141275000Y-93400000D03*
D28*
X123700000Y-108775000D03*
X123700000Y-107225000D03*
D29*
X117650000Y-96380000D03*
D30*
X117650000Y-98920000D03*
X117650000Y-101460000D03*
X117650000Y-104000000D03*
X117650000Y-106540000D03*
X117650000Y-109080000D03*
X117650000Y-111620000D03*
D31*
X160000000Y-91000000D03*
D32*
X138800000Y-95900000D03*
X141600000Y-95900000D03*
D33*
X124850000Y-101400000D03*
X124850000Y-102050000D03*
X124850000Y-102700000D03*
X124850000Y-103350000D03*
X124850000Y-104000000D03*
X124850000Y-104650000D03*
X129150000Y-104650000D03*
X129150000Y-104000000D03*
X129150000Y-103350000D03*
X129150000Y-102700000D03*
X129150000Y-102050000D03*
X129150000Y-101400000D03*
D34*
X127000000Y-103025000D03*
D35*
X129600000Y-114300000D03*
X130250000Y-114300000D03*
X130900000Y-114300000D03*
X130900000Y-112400000D03*
X129600000Y-112400000D03*
D23*
X135005000Y-98620600D03*
D24*
X133100000Y-96385528D03*
X134370000Y-96385528D03*
X135640000Y-96385528D03*
X136910000Y-96385528D03*
X136910000Y-101855672D03*
X133100000Y-101855672D03*
X134370000Y-101855672D03*
X135640000Y-101855672D03*
D36*
X150125000Y-106800000D03*
X153075000Y-106800000D03*
D37*
X120800000Y-97010000D03*
X120800000Y-95990000D03*
D38*
X144500000Y-90537500D03*
X144500000Y-96462500D03*
D39*
X121110000Y-113000000D03*
X120090000Y-113000000D03*
D19*
X147000000Y-107900000D03*
X136000000Y-93500000D03*
D40*
X123825000Y-99612500D03*
X124475000Y-99612500D03*
X125125000Y-99612500D03*
X125775000Y-99612500D03*
X125775000Y-95387500D03*
X125125000Y-95387500D03*
X124475000Y-95387500D03*
X123825000Y-95387500D03*
D41*
X146737500Y-115800000D03*
X152662500Y-115800000D03*
D42*
X137212500Y-112500000D03*
X135387500Y-112500000D03*
D31*
X160000000Y-117000000D03*
D25*
X152100000Y-104675000D03*
X152100000Y-101725000D03*
D17*
X129300000Y-106625000D03*
X129300000Y-109575000D03*
D43*
X154600000Y-92000000D03*
D44*
X149600000Y-92000000D03*
D45*
X139050000Y-115450000D03*
X139050000Y-114800000D03*
X139050000Y-114150000D03*
X137150000Y-114150000D03*
X137150000Y-115450000D03*
D31*
X118000000Y-117000000D03*
D46*
X129800000Y-91050000D03*
X129800000Y-92950000D03*
D47*
X126200000Y-109500000D03*
X126200000Y-106700000D03*
D28*
X127500000Y-97675000D03*
X127500000Y-96125000D03*
D22*
X129095000Y-115567500D03*
X130115000Y-115567500D03*
D48*
X129500000Y-99800000D03*
X129500000Y-97000000D03*
D36*
X138825000Y-98800000D03*
X141775000Y-98800000D03*
D37*
X122500000Y-98210000D03*
X122500000Y-97190000D03*
D20*
X120800000Y-93380000D03*
X120800000Y-94400000D03*
D49*
X138887500Y-112500000D03*
X140712500Y-112500000D03*
D37*
X128205000Y-114377500D03*
X128205000Y-113357500D03*
D36*
X138825000Y-101200000D03*
X141775000Y-101200000D03*
D25*
X147200000Y-104650000D03*
X147200000Y-101700000D03*
D22*
X131095000Y-115567500D03*
X132115000Y-115567500D03*
D50*
X160000000Y-97400000D03*
X124500000Y-91000000D03*
X149000000Y-97400000D03*
X160000000Y-111400000D03*
X149000000Y-111400000D03*
X124500000Y-116575000D03*
%LPD*%
M02*
