G04 #@! TF.GenerationSoftware,KiCad,Pcbnew,8.0.1*
G04 #@! TF.CreationDate,2025-04-04T11:24:11-04:00*
G04 #@! TF.ProjectId,Digital,44696769-7461-46c2-9e6b-696361645f70,rev?*
G04 #@! TF.SameCoordinates,Original*
G04 #@! TF.FileFunction,Copper,L5,Inr*
G04 #@! TF.FilePolarity,Positive*
%FSLAX46Y46*%
G04 Gerber Fmt 4.6, Leading zero omitted, Abs format (unit mm)*
G04 Created by KiCad (PCBNEW 8.0.1) date 2025-04-04 11:24:11*
%MOMM*%
%LPD*%
G01*
G04 APERTURE LIST*
G04 #@! TA.AperFunction,ComponentPad*
%ADD10R,1.700000X1.700000*%
G04 #@! TD*
G04 #@! TA.AperFunction,ComponentPad*
%ADD11O,1.700000X1.700000*%
G04 #@! TD*
G04 #@! TA.AperFunction,ComponentPad*
%ADD12C,0.600000*%
G04 #@! TD*
G04 #@! TA.AperFunction,ComponentPad*
%ADD13O,2.100000X1.000000*%
G04 #@! TD*
G04 #@! TA.AperFunction,ComponentPad*
%ADD14O,1.800000X1.000000*%
G04 #@! TD*
G04 #@! TA.AperFunction,ViaPad*
%ADD15C,0.600000*%
G04 #@! TD*
G04 #@! TA.AperFunction,Conductor*
%ADD16C,0.600000*%
G04 #@! TD*
G04 APERTURE END LIST*
D10*
X192700000Y-142840000D03*
D11*
X192700000Y-140300000D03*
X192700000Y-137760000D03*
X192700000Y-135220000D03*
X192700000Y-132680000D03*
X192700000Y-130140000D03*
X192700000Y-127600000D03*
D10*
X173900000Y-147100000D03*
D11*
X176440000Y-147100000D03*
X178980000Y-147100000D03*
X181520000Y-147100000D03*
X184060000Y-147100000D03*
D12*
X172100000Y-124800000D03*
X173100000Y-124800000D03*
D10*
X173900000Y-151100000D03*
D11*
X176440000Y-151100000D03*
X178980000Y-151100000D03*
X181520000Y-151100000D03*
X184060000Y-151100000D03*
D13*
X156105000Y-129680000D03*
D14*
X151925000Y-129680000D03*
D13*
X156105000Y-138320000D03*
D14*
X151925000Y-138320000D03*
D10*
X153000000Y-144000000D03*
D11*
X153000000Y-146540000D03*
D15*
X180000000Y-123000000D03*
X197000000Y-129000000D03*
X153000000Y-135000000D03*
X197000000Y-127000000D03*
X187000000Y-145000000D03*
X187000000Y-127000000D03*
X170400000Y-134800000D03*
X159800000Y-135700000D03*
X190000000Y-142000000D03*
X155000000Y-115000000D03*
X157000000Y-127000000D03*
X156200000Y-115100000D03*
X171000000Y-117000000D03*
X160500000Y-129400000D03*
X172700000Y-130700000D03*
X161000000Y-117000000D03*
X157100000Y-117800000D03*
X186000000Y-135000000D03*
X154300000Y-122300000D03*
X183000000Y-127400000D03*
X163900000Y-135100000D03*
X159400000Y-125500000D03*
X159000000Y-153000000D03*
X180200000Y-136000000D03*
X165600000Y-122900000D03*
X151000000Y-149000000D03*
X195000000Y-133000000D03*
X195000000Y-147000000D03*
X157500000Y-120900000D03*
X167000000Y-125000000D03*
X184000000Y-138000000D03*
X155000000Y-127000000D03*
X169000000Y-151000000D03*
X166800000Y-151000000D03*
X178000000Y-122000000D03*
X166000000Y-116700000D03*
X175300000Y-131100000D03*
X165000000Y-140100000D03*
X170600000Y-127300000D03*
X175500000Y-127600000D03*
X197000000Y-135000000D03*
X177200000Y-127600000D03*
X168200000Y-136525000D03*
X195000000Y-143000000D03*
X195000000Y-135000000D03*
X151000000Y-137000000D03*
X179000000Y-153000000D03*
X151000000Y-143000000D03*
X188100000Y-141700000D03*
X195000000Y-129000000D03*
X174900000Y-141900000D03*
X171000000Y-119000000D03*
X155000000Y-135000000D03*
X155000000Y-125000000D03*
X195000000Y-131000000D03*
X175000000Y-118000000D03*
X174300000Y-135600000D03*
X191000000Y-127000000D03*
X177000000Y-149000000D03*
X195000000Y-141000000D03*
X163000000Y-119000000D03*
X151000000Y-119000000D03*
X189000000Y-127000000D03*
X187000000Y-153000000D03*
X158600000Y-126900000D03*
X177000000Y-120000000D03*
X170000000Y-131900000D03*
X169000000Y-121000000D03*
X180200000Y-134800000D03*
X173000000Y-118000000D03*
X181000000Y-127400000D03*
X174000000Y-119000000D03*
X197000000Y-143000000D03*
X193000000Y-145000000D03*
X195000000Y-137000000D03*
X184142231Y-140680277D03*
X164000000Y-151200000D03*
X162200000Y-134000000D03*
X161900000Y-151200000D03*
X183000000Y-149000000D03*
X171000000Y-121000000D03*
X197000000Y-131000000D03*
X188000000Y-143600000D03*
X175000000Y-149000000D03*
X166900000Y-143100000D03*
X182000000Y-115000000D03*
X161000000Y-119000000D03*
X173000000Y-153000000D03*
X183000000Y-153000000D03*
X151000000Y-123000000D03*
X173000000Y-145000000D03*
X193000000Y-153000000D03*
X195000000Y-145000000D03*
X167600000Y-137500000D03*
X195000000Y-139000000D03*
X171000000Y-115000000D03*
X174000000Y-117000000D03*
X166400000Y-144500000D03*
X153000000Y-131000000D03*
X161000000Y-121000000D03*
X165000000Y-125000000D03*
X191000000Y-153000000D03*
X179000000Y-149000000D03*
X154800000Y-132700000D03*
X182000000Y-118000000D03*
X185000000Y-116000000D03*
X166700000Y-139900000D03*
X190800000Y-139900000D03*
X173200000Y-127600000D03*
X165000000Y-133000000D03*
X169600000Y-142500000D03*
X184000000Y-120000000D03*
X169900000Y-133100000D03*
X169000000Y-119000000D03*
X153000000Y-133000000D03*
X167000000Y-153000000D03*
X174300000Y-127000000D03*
X151000000Y-135000000D03*
X193000000Y-149000000D03*
X177000000Y-115000000D03*
X160900000Y-130900000D03*
X158600000Y-123500000D03*
X185800000Y-140900000D03*
X160000000Y-147100000D03*
X197000000Y-139000000D03*
X186000000Y-138000000D03*
X185500000Y-132800000D03*
X151000000Y-127000000D03*
X175300000Y-122400000D03*
X159000000Y-151000000D03*
X184000000Y-136000000D03*
X153000000Y-137000000D03*
X173000000Y-149000000D03*
X161000000Y-153000000D03*
X160000000Y-143390000D03*
X197000000Y-141000000D03*
X183000000Y-119000000D03*
X178000000Y-138000000D03*
X197000000Y-147000000D03*
X175000000Y-145000000D03*
X179000000Y-115000000D03*
X160000000Y-145400000D03*
X171000000Y-125000000D03*
X185000000Y-124000000D03*
X181000000Y-149000000D03*
X151000000Y-147000000D03*
X197000000Y-137000000D03*
X159000000Y-121000000D03*
X159200000Y-131100000D03*
X193000000Y-147000000D03*
X153000000Y-123000000D03*
X195000000Y-127000000D03*
X157000000Y-153000000D03*
X151000000Y-125000000D03*
X185000000Y-127400000D03*
X182500000Y-136100000D03*
X197000000Y-133000000D03*
X151000000Y-133000000D03*
X166400000Y-136800000D03*
X173400000Y-142600000D03*
X191000000Y-145000000D03*
X169000000Y-153000000D03*
X187000000Y-147000000D03*
X155000000Y-153000000D03*
X182400000Y-133600000D03*
X175000000Y-115000000D03*
X151000000Y-121000000D03*
X174300000Y-138800000D03*
X153000000Y-127000000D03*
X163000000Y-123000000D03*
X181000000Y-153000000D03*
X171200000Y-135400000D03*
X180300000Y-139900000D03*
X161000000Y-128000000D03*
X171000000Y-153000000D03*
X170500000Y-137800000D03*
X197000000Y-149000000D03*
X151000000Y-139000000D03*
X177000000Y-153000000D03*
X185000000Y-118000000D03*
X191102525Y-143000000D03*
X160000000Y-146200000D03*
X197000000Y-145000000D03*
X176000000Y-124000000D03*
X159000000Y-119000000D03*
X163000000Y-153000000D03*
X176500000Y-144100000D03*
X187000000Y-151000000D03*
X163000000Y-121000000D03*
X151000000Y-145000000D03*
X151000000Y-131000000D03*
X175000000Y-153000000D03*
X159000000Y-117000000D03*
X165000000Y-153000000D03*
X189000000Y-153000000D03*
X187000000Y-130700000D03*
X156000000Y-140800000D03*
X185000000Y-153000000D03*
X153000000Y-125000000D03*
X178100000Y-140200000D03*
X177800000Y-134200000D03*
X169000000Y-123000000D03*
X155000000Y-119000000D03*
X157700000Y-145000000D03*
X163725000Y-137100000D03*
X159800000Y-134000000D03*
X166600000Y-137600000D03*
X160625000Y-136600000D03*
X157700000Y-131600000D03*
X156680000Y-136400000D03*
X160400000Y-124300000D03*
X172100000Y-144100000D03*
X169800000Y-135200000D03*
X163100000Y-135400000D03*
X171400000Y-140300000D03*
X171800000Y-121900000D03*
X167300000Y-134800000D03*
X163800000Y-116800000D03*
X169500000Y-145700000D03*
X168400000Y-145100000D03*
X157100000Y-119200000D03*
X182200000Y-127300000D03*
X171500000Y-142800000D03*
X168700000Y-141500000D03*
X173100000Y-121500000D03*
X168900000Y-146600000D03*
X176300000Y-131900000D03*
X183900000Y-127300000D03*
X178100000Y-133000000D03*
X162300000Y-129500000D03*
X168800000Y-143200000D03*
X169100000Y-145100000D03*
X157000000Y-128100000D03*
X171100000Y-145500000D03*
X175400000Y-131900000D03*
X165300000Y-142400000D03*
X181500000Y-145300000D03*
X181100000Y-135900000D03*
X180700000Y-136700000D03*
X177300000Y-143400000D03*
X178400000Y-128200000D03*
X176700000Y-117800000D03*
X172300000Y-126900000D03*
X180100000Y-140800000D03*
X173300000Y-128700000D03*
X172500000Y-128800000D03*
X180500000Y-128300000D03*
X179500000Y-139800000D03*
X171600000Y-126800000D03*
X174000000Y-140900000D03*
X170600000Y-139700000D03*
X171400000Y-119900000D03*
X181700000Y-134700000D03*
X172100000Y-130100000D03*
X171800000Y-132500000D03*
X182300000Y-140900000D03*
X165900000Y-128900000D03*
X168185000Y-116715000D03*
X174700000Y-137900000D03*
X171700000Y-134300000D03*
X183300000Y-144400000D03*
X184400000Y-144300000D03*
X186400000Y-133300000D03*
X186300000Y-134200000D03*
X181900000Y-132600000D03*
X183500000Y-139200000D03*
X169500000Y-144000200D03*
X166000000Y-143610000D03*
X160062500Y-148400000D03*
X155720000Y-145100000D03*
X158600000Y-143000000D03*
X152600000Y-141400000D03*
X160500000Y-139550000D03*
X159700000Y-139550000D03*
X159300000Y-145900000D03*
X162610000Y-142600000D03*
X171300000Y-128500000D03*
X169100000Y-149200000D03*
X171600000Y-150000000D03*
X171500000Y-147600000D03*
X178600000Y-124200000D03*
X177500000Y-124000000D03*
D16*
X163225000Y-136600000D02*
X163725000Y-137100000D01*
X160625000Y-136600000D02*
X160625000Y-135900000D01*
X160625000Y-135900000D02*
X160625000Y-134825000D01*
X159800000Y-134000000D02*
X159800000Y-133700000D01*
X157400000Y-136400000D02*
X156680000Y-136400000D01*
X160625000Y-134825000D02*
X159800000Y-134000000D01*
X159800000Y-133700000D02*
X157700000Y-131600000D01*
X159800000Y-134000000D02*
X157400000Y-136400000D01*
X163725000Y-137100000D02*
X164225000Y-137600000D01*
X160625000Y-136600000D02*
X163225000Y-136600000D01*
X164225000Y-137600000D02*
X166600000Y-137600000D01*
G04 #@! TA.AperFunction,Conductor*
G36*
X175974075Y-150907007D02*
G01*
X175940000Y-151034174D01*
X175940000Y-151165826D01*
X175974075Y-151292993D01*
X176006988Y-151350000D01*
X174333012Y-151350000D01*
X174365925Y-151292993D01*
X174400000Y-151165826D01*
X174400000Y-151034174D01*
X174365925Y-150907007D01*
X174333012Y-150850000D01*
X176006988Y-150850000D01*
X175974075Y-150907007D01*
G37*
G04 #@! TD.AperFunction*
G04 #@! TA.AperFunction,Conductor*
G36*
X185419191Y-114519407D02*
G01*
X185455155Y-114568907D01*
X185460000Y-114599500D01*
X185460000Y-126370000D01*
X191788981Y-126370000D01*
X191847172Y-126388907D01*
X191883136Y-126438407D01*
X191883136Y-126499593D01*
X191847172Y-126549093D01*
X191845765Y-126550096D01*
X191828926Y-126561886D01*
X191661886Y-126728926D01*
X191526398Y-126922424D01*
X191526394Y-126922432D01*
X191426570Y-127136505D01*
X191369364Y-127350000D01*
X192266988Y-127350000D01*
X192234075Y-127407007D01*
X192200000Y-127534174D01*
X192200000Y-127665826D01*
X192234075Y-127792993D01*
X192266988Y-127850000D01*
X191369364Y-127850000D01*
X191426569Y-128063489D01*
X191526399Y-128277577D01*
X191661886Y-128471073D01*
X191828926Y-128638113D01*
X192022422Y-128773600D01*
X192236509Y-128873430D01*
X192443213Y-128928816D01*
X192494527Y-128962140D01*
X192516454Y-129019261D01*
X192500619Y-129078362D01*
X192453069Y-129116867D01*
X192446329Y-129119180D01*
X192371231Y-129141961D01*
X192296046Y-129164768D01*
X192296044Y-129164768D01*
X192296044Y-129164769D01*
X192113547Y-129262316D01*
X191953595Y-129393585D01*
X191953585Y-129393595D01*
X191822316Y-129553547D01*
X191724768Y-129736045D01*
X191664699Y-129934065D01*
X191664698Y-129934070D01*
X191644417Y-130139996D01*
X191644417Y-130140003D01*
X191664698Y-130345929D01*
X191664699Y-130345934D01*
X191724768Y-130543954D01*
X191822316Y-130726452D01*
X191827470Y-130732732D01*
X191953590Y-130886410D01*
X191953595Y-130886414D01*
X192113547Y-131017683D01*
X192113548Y-131017683D01*
X192113550Y-131017685D01*
X192296046Y-131115232D01*
X192433997Y-131157078D01*
X192494065Y-131175300D01*
X192494070Y-131175301D01*
X192699997Y-131195583D01*
X192700000Y-131195583D01*
X192700003Y-131195583D01*
X192905929Y-131175301D01*
X192905934Y-131175300D01*
X192936533Y-131166018D01*
X193103954Y-131115232D01*
X193286450Y-131017685D01*
X193446410Y-130886410D01*
X193577685Y-130726450D01*
X193675232Y-130543954D01*
X193735300Y-130345934D01*
X193735301Y-130345929D01*
X193755583Y-130140003D01*
X193755583Y-130139996D01*
X193735301Y-129934070D01*
X193735300Y-129934065D01*
X193702709Y-129826627D01*
X193675232Y-129736046D01*
X193577685Y-129553550D01*
X193533735Y-129499997D01*
X193446414Y-129393595D01*
X193446410Y-129393590D01*
X193439969Y-129388304D01*
X193286452Y-129262316D01*
X193103954Y-129164768D01*
X192953671Y-129119180D01*
X192903474Y-129084195D01*
X192883428Y-129026387D01*
X192901189Y-128967836D01*
X192949974Y-128930907D01*
X192956786Y-128928816D01*
X193163490Y-128873430D01*
X193377577Y-128773600D01*
X193571073Y-128638113D01*
X193738113Y-128471073D01*
X193873600Y-128277577D01*
X193973430Y-128063489D01*
X194030636Y-127850000D01*
X193133012Y-127850000D01*
X193165925Y-127792993D01*
X193200000Y-127665826D01*
X193200000Y-127534174D01*
X193165925Y-127407007D01*
X193133012Y-127350000D01*
X194030636Y-127350000D01*
X193973429Y-127136505D01*
X193873605Y-126922432D01*
X193873601Y-126922424D01*
X193738113Y-126728926D01*
X193571073Y-126561886D01*
X193554235Y-126550096D01*
X193517413Y-126501231D01*
X193516345Y-126440055D01*
X193551439Y-126389935D01*
X193609291Y-126370015D01*
X193611019Y-126370000D01*
X197400500Y-126370000D01*
X197458691Y-126388907D01*
X197494655Y-126438407D01*
X197499500Y-126469000D01*
X197499500Y-151996460D01*
X197499248Y-152003523D01*
X197484742Y-152206337D01*
X197482732Y-152220318D01*
X197440264Y-152415542D01*
X197436284Y-152429095D01*
X197366466Y-152616284D01*
X197360598Y-152629133D01*
X197264854Y-152804474D01*
X197257218Y-152816356D01*
X197137493Y-152976290D01*
X197128243Y-152986966D01*
X196986966Y-153128243D01*
X196976290Y-153137493D01*
X196816356Y-153257218D01*
X196804474Y-153264854D01*
X196629133Y-153360598D01*
X196616284Y-153366466D01*
X196429095Y-153436284D01*
X196415542Y-153440264D01*
X196220318Y-153482732D01*
X196206337Y-153484742D01*
X196003523Y-153499248D01*
X195996460Y-153499500D01*
X152003540Y-153499500D01*
X151996477Y-153499248D01*
X151793662Y-153484742D01*
X151779681Y-153482732D01*
X151584457Y-153440264D01*
X151570904Y-153436284D01*
X151383715Y-153366466D01*
X151370875Y-153360602D01*
X151195525Y-153264854D01*
X151183643Y-153257218D01*
X151023709Y-153137493D01*
X151013033Y-153128243D01*
X150871756Y-152986966D01*
X150862506Y-152976290D01*
X150742781Y-152816356D01*
X150735145Y-152804474D01*
X150702815Y-152745266D01*
X150639394Y-152629118D01*
X150633537Y-152616292D01*
X150563713Y-152429088D01*
X150559737Y-152415549D01*
X150517265Y-152220308D01*
X150515258Y-152206345D01*
X150500752Y-152003522D01*
X150500500Y-151996460D01*
X150500500Y-150625965D01*
X151899500Y-150625965D01*
X151938908Y-150874780D01*
X152016759Y-151114379D01*
X152114125Y-151305472D01*
X152131130Y-151338845D01*
X152279207Y-151542656D01*
X152457344Y-151720793D01*
X152661155Y-151868870D01*
X152885621Y-151983241D01*
X153125215Y-152061090D01*
X153125216Y-152061090D01*
X153125219Y-152061091D01*
X153374035Y-152100500D01*
X153374038Y-152100500D01*
X153625965Y-152100500D01*
X153874780Y-152061091D01*
X153874781Y-152061090D01*
X153874785Y-152061090D01*
X154069497Y-151997824D01*
X172549999Y-151997824D01*
X172556401Y-152057370D01*
X172556403Y-152057381D01*
X172606646Y-152192088D01*
X172606647Y-152192090D01*
X172692807Y-152307184D01*
X172692815Y-152307192D01*
X172807909Y-152393352D01*
X172807911Y-152393353D01*
X172942618Y-152443596D01*
X172942629Y-152443598D01*
X173002176Y-152450000D01*
X173649999Y-152450000D01*
X173650000Y-152449999D01*
X173650000Y-151533012D01*
X173707007Y-151565925D01*
X173834174Y-151600000D01*
X173965826Y-151600000D01*
X174092993Y-151565925D01*
X174150000Y-151533012D01*
X174150000Y-152449999D01*
X174150001Y-152450000D01*
X174797824Y-152450000D01*
X174857370Y-152443598D01*
X174857381Y-152443596D01*
X174992088Y-152393353D01*
X174992090Y-152393352D01*
X175107184Y-152307192D01*
X175107192Y-152307184D01*
X175193352Y-152192090D01*
X175193353Y-152192088D01*
X175243596Y-152057381D01*
X175243598Y-152057370D01*
X175245222Y-152042269D01*
X175270241Y-151986432D01*
X175323301Y-151955965D01*
X175384136Y-151962504D01*
X175413659Y-151982846D01*
X175568926Y-152138113D01*
X175762422Y-152273600D01*
X175976509Y-152373430D01*
X176190000Y-152430634D01*
X176190000Y-151533012D01*
X176247007Y-151565925D01*
X176374174Y-151600000D01*
X176505826Y-151600000D01*
X176632993Y-151565925D01*
X176690000Y-151533012D01*
X176690000Y-152430633D01*
X176903490Y-152373430D01*
X177117577Y-152273600D01*
X177311073Y-152138113D01*
X177478113Y-151971073D01*
X177613600Y-151777577D01*
X177713430Y-151563490D01*
X177768816Y-151356786D01*
X177802140Y-151305472D01*
X177859261Y-151283545D01*
X177918362Y-151299380D01*
X177956867Y-151346930D01*
X177959180Y-151353671D01*
X178004768Y-151503954D01*
X178102316Y-151686452D01*
X178233585Y-151846404D01*
X178233590Y-151846410D01*
X178233595Y-151846414D01*
X178393547Y-151977683D01*
X178393548Y-151977683D01*
X178393550Y-151977685D01*
X178576046Y-152075232D01*
X178713997Y-152117078D01*
X178774065Y-152135300D01*
X178774070Y-152135301D01*
X178979997Y-152155583D01*
X178980000Y-152155583D01*
X178980003Y-152155583D01*
X179185929Y-152135301D01*
X179185934Y-152135300D01*
X179383954Y-152075232D01*
X179566450Y-151977685D01*
X179726410Y-151846410D01*
X179857685Y-151686450D01*
X179955232Y-151503954D01*
X180015300Y-151305934D01*
X180015301Y-151305929D01*
X180035583Y-151100003D01*
X180464417Y-151100003D01*
X180484698Y-151305929D01*
X180484699Y-151305934D01*
X180544768Y-151503954D01*
X180642316Y-151686452D01*
X180773585Y-151846404D01*
X180773590Y-151846410D01*
X180773595Y-151846414D01*
X180933547Y-151977683D01*
X180933548Y-151977683D01*
X180933550Y-151977685D01*
X181116046Y-152075232D01*
X181253997Y-152117078D01*
X181314065Y-152135300D01*
X181314070Y-152135301D01*
X181519997Y-152155583D01*
X181520000Y-152155583D01*
X181520003Y-152155583D01*
X181725929Y-152135301D01*
X181725934Y-152135300D01*
X181923954Y-152075232D01*
X182106450Y-151977685D01*
X182266410Y-151846410D01*
X182397685Y-151686450D01*
X182495232Y-151503954D01*
X182555300Y-151305934D01*
X182555301Y-151305929D01*
X182575583Y-151100003D01*
X183004417Y-151100003D01*
X183024698Y-151305929D01*
X183024699Y-151305934D01*
X183084768Y-151503954D01*
X183182316Y-151686452D01*
X183313585Y-151846404D01*
X183313590Y-151846410D01*
X183313595Y-151846414D01*
X183473547Y-151977683D01*
X183473548Y-151977683D01*
X183473550Y-151977685D01*
X183656046Y-152075232D01*
X183793997Y-152117078D01*
X183854065Y-152135300D01*
X183854070Y-152135301D01*
X184059997Y-152155583D01*
X184060000Y-152155583D01*
X184060003Y-152155583D01*
X184265929Y-152135301D01*
X184265934Y-152135300D01*
X184463954Y-152075232D01*
X184646450Y-151977685D01*
X184806410Y-151846410D01*
X184937685Y-151686450D01*
X185035232Y-151503954D01*
X185095300Y-151305934D01*
X185095301Y-151305929D01*
X185115583Y-151100003D01*
X185115583Y-151099996D01*
X185095301Y-150894070D01*
X185095300Y-150894065D01*
X185036401Y-150699901D01*
X185035232Y-150696046D01*
X184997773Y-150625965D01*
X192899500Y-150625965D01*
X192938908Y-150874780D01*
X193016759Y-151114379D01*
X193114125Y-151305472D01*
X193131130Y-151338845D01*
X193279207Y-151542656D01*
X193457344Y-151720793D01*
X193661155Y-151868870D01*
X193885621Y-151983241D01*
X194125215Y-152061090D01*
X194125216Y-152061090D01*
X194125219Y-152061091D01*
X194374035Y-152100500D01*
X194374038Y-152100500D01*
X194625965Y-152100500D01*
X194874780Y-152061091D01*
X194874781Y-152061090D01*
X194874785Y-152061090D01*
X195114379Y-151983241D01*
X195338845Y-151868870D01*
X195542656Y-151720793D01*
X195720793Y-151542656D01*
X195868870Y-151338845D01*
X195983241Y-151114379D01*
X196061090Y-150874785D01*
X196074045Y-150792993D01*
X196100500Y-150625965D01*
X196100500Y-150374034D01*
X196061091Y-150125219D01*
X196061090Y-150125215D01*
X195983241Y-149885621D01*
X195868870Y-149661155D01*
X195720793Y-149457344D01*
X195542656Y-149279207D01*
X195338845Y-149131130D01*
X195338844Y-149131129D01*
X195338842Y-149131128D01*
X195114379Y-149016759D01*
X194874780Y-148938908D01*
X194625965Y-148899500D01*
X194625962Y-148899500D01*
X194374038Y-148899500D01*
X194374035Y-148899500D01*
X194125219Y-148938908D01*
X193885620Y-149016759D01*
X193661157Y-149131128D01*
X193457345Y-149279206D01*
X193279206Y-149457345D01*
X193131128Y-149661157D01*
X193016759Y-149885620D01*
X192938908Y-150125219D01*
X192899500Y-150374034D01*
X192899500Y-150625965D01*
X184997773Y-150625965D01*
X184937685Y-150513550D01*
X184926975Y-150500500D01*
X184806414Y-150353595D01*
X184806410Y-150353590D01*
X184708665Y-150273373D01*
X184646452Y-150222316D01*
X184463954Y-150124768D01*
X184265934Y-150064699D01*
X184265929Y-150064698D01*
X184060003Y-150044417D01*
X184059997Y-150044417D01*
X183854070Y-150064698D01*
X183854065Y-150064699D01*
X183656045Y-150124768D01*
X183473547Y-150222316D01*
X183313595Y-150353585D01*
X183313585Y-150353595D01*
X183182316Y-150513547D01*
X183084768Y-150696045D01*
X183024699Y-150894065D01*
X183024698Y-150894070D01*
X183004417Y-151099996D01*
X183004417Y-151100003D01*
X182575583Y-151100003D01*
X182575583Y-151099996D01*
X182555301Y-150894070D01*
X182555300Y-150894065D01*
X182496401Y-150699901D01*
X182495232Y-150696046D01*
X182397685Y-150513550D01*
X182386975Y-150500500D01*
X182266414Y-150353595D01*
X182266410Y-150353590D01*
X182168665Y-150273373D01*
X182106452Y-150222316D01*
X181923954Y-150124768D01*
X181725934Y-150064699D01*
X181725929Y-150064698D01*
X181520003Y-150044417D01*
X181519997Y-150044417D01*
X181314070Y-150064698D01*
X181314065Y-150064699D01*
X181116045Y-150124768D01*
X180933547Y-150222316D01*
X180773595Y-150353585D01*
X180773585Y-150353595D01*
X180642316Y-150513547D01*
X180544768Y-150696045D01*
X180484699Y-150894065D01*
X180484698Y-150894070D01*
X180464417Y-151099996D01*
X180464417Y-151100003D01*
X180035583Y-151100003D01*
X180035583Y-151099996D01*
X180015301Y-150894070D01*
X180015300Y-150894065D01*
X179956401Y-150699901D01*
X179955232Y-150696046D01*
X179857685Y-150513550D01*
X179846975Y-150500500D01*
X179726414Y-150353595D01*
X179726410Y-150353590D01*
X179628665Y-150273373D01*
X179566452Y-150222316D01*
X179383954Y-150124768D01*
X179185934Y-150064699D01*
X179185929Y-150064698D01*
X178980003Y-150044417D01*
X178979997Y-150044417D01*
X178774070Y-150064698D01*
X178774065Y-150064699D01*
X178576045Y-150124768D01*
X178393547Y-150222316D01*
X178233595Y-150353585D01*
X178233585Y-150353595D01*
X178102316Y-150513547D01*
X178004769Y-150696044D01*
X177959180Y-150846329D01*
X177924195Y-150896525D01*
X177866386Y-150916571D01*
X177807836Y-150898810D01*
X177770907Y-150850025D01*
X177768816Y-150843213D01*
X177713429Y-150636504D01*
X177613605Y-150422432D01*
X177613601Y-150422424D01*
X177478113Y-150228926D01*
X177311073Y-150061886D01*
X177117577Y-149926399D01*
X176903489Y-149826569D01*
X176690000Y-149769364D01*
X176690000Y-150666988D01*
X176632993Y-150634075D01*
X176505826Y-150600000D01*
X176374174Y-150600000D01*
X176247007Y-150634075D01*
X176190000Y-150666988D01*
X176190000Y-149769364D01*
X175976505Y-149826570D01*
X175762432Y-149926394D01*
X175762424Y-149926398D01*
X175568925Y-150061887D01*
X175568921Y-150061890D01*
X175413658Y-150217153D01*
X175359142Y-150244930D01*
X175298710Y-150235359D01*
X175255445Y-150192094D01*
X175245222Y-150157731D01*
X175243598Y-150142629D01*
X175243596Y-150142618D01*
X175193353Y-150007911D01*
X175193352Y-150007909D01*
X175107192Y-149892815D01*
X175107184Y-149892807D01*
X174992090Y-149806647D01*
X174992088Y-149806646D01*
X174857381Y-149756403D01*
X174857370Y-149756401D01*
X174797824Y-149750000D01*
X174150001Y-149750000D01*
X174150000Y-149750001D01*
X174150000Y-150666988D01*
X174092993Y-150634075D01*
X173965826Y-150600000D01*
X173834174Y-150600000D01*
X173707007Y-150634075D01*
X173650000Y-150666988D01*
X173650000Y-149750001D01*
X173649999Y-149750000D01*
X173002176Y-149750000D01*
X172942629Y-149756401D01*
X172942618Y-149756403D01*
X172807911Y-149806646D01*
X172807909Y-149806647D01*
X172692815Y-149892807D01*
X172692807Y-149892815D01*
X172606647Y-150007909D01*
X172606646Y-150007911D01*
X172556403Y-150142618D01*
X172556401Y-150142629D01*
X172550000Y-150202175D01*
X172550000Y-150849999D01*
X172550001Y-150850000D01*
X173466988Y-150850000D01*
X173434075Y-150907007D01*
X173400000Y-151034174D01*
X173400000Y-151165826D01*
X173434075Y-151292993D01*
X173466988Y-151350000D01*
X172550001Y-151350000D01*
X172550000Y-151350001D01*
X172550000Y-151997824D01*
X172549999Y-151997824D01*
X154069497Y-151997824D01*
X154114379Y-151983241D01*
X154338845Y-151868870D01*
X154542656Y-151720793D01*
X154720793Y-151542656D01*
X154868870Y-151338845D01*
X154983241Y-151114379D01*
X155061090Y-150874785D01*
X155074045Y-150792993D01*
X155100500Y-150625965D01*
X155100500Y-150374034D01*
X155061091Y-150125219D01*
X155061090Y-150125215D01*
X155020406Y-150000002D01*
X171094353Y-150000002D01*
X171114834Y-150142456D01*
X171157262Y-150235359D01*
X171174623Y-150273373D01*
X171261846Y-150374034D01*
X171268873Y-150382144D01*
X171331563Y-150422432D01*
X171389947Y-150459953D01*
X171496403Y-150491211D01*
X171528035Y-150500499D01*
X171528036Y-150500499D01*
X171528039Y-150500500D01*
X171528041Y-150500500D01*
X171671959Y-150500500D01*
X171671961Y-150500500D01*
X171810053Y-150459953D01*
X171931128Y-150382143D01*
X172025377Y-150273373D01*
X172085165Y-150142457D01*
X172105647Y-150000000D01*
X172085165Y-149857543D01*
X172025377Y-149726627D01*
X171931128Y-149617857D01*
X171931127Y-149617856D01*
X171931126Y-149617855D01*
X171810057Y-149540049D01*
X171810054Y-149540047D01*
X171810053Y-149540047D01*
X171810050Y-149540046D01*
X171671964Y-149499500D01*
X171671961Y-149499500D01*
X171528039Y-149499500D01*
X171528035Y-149499500D01*
X171389949Y-149540046D01*
X171389942Y-149540049D01*
X171268873Y-149617855D01*
X171174622Y-149726628D01*
X171114834Y-149857543D01*
X171094353Y-149999997D01*
X171094353Y-150000002D01*
X155020406Y-150000002D01*
X154983241Y-149885621D01*
X154868870Y-149661155D01*
X154720793Y-149457344D01*
X154542656Y-149279207D01*
X154433639Y-149200002D01*
X168594353Y-149200002D01*
X168614834Y-149342456D01*
X168667303Y-149457344D01*
X168674623Y-149473373D01*
X168732395Y-149540046D01*
X168768873Y-149582144D01*
X168824441Y-149617855D01*
X168889947Y-149659953D01*
X168996403Y-149691211D01*
X169028035Y-149700499D01*
X169028036Y-149700499D01*
X169028039Y-149700500D01*
X169028041Y-149700500D01*
X169171959Y-149700500D01*
X169171961Y-149700500D01*
X169310053Y-149659953D01*
X169431128Y-149582143D01*
X169525377Y-149473373D01*
X169585165Y-149342457D01*
X169605647Y-149200000D01*
X169585165Y-149057543D01*
X169525377Y-148926627D01*
X169431128Y-148817857D01*
X169431127Y-148817856D01*
X169431126Y-148817855D01*
X169310057Y-148740049D01*
X169310054Y-148740047D01*
X169310053Y-148740047D01*
X169310050Y-148740046D01*
X169171964Y-148699500D01*
X169171961Y-148699500D01*
X169028039Y-148699500D01*
X169028035Y-148699500D01*
X168889949Y-148740046D01*
X168889942Y-148740049D01*
X168768873Y-148817855D01*
X168674622Y-148926628D01*
X168614834Y-149057543D01*
X168594353Y-149199997D01*
X168594353Y-149200002D01*
X154433639Y-149200002D01*
X154338845Y-149131130D01*
X154338844Y-149131129D01*
X154338842Y-149131128D01*
X154114379Y-149016759D01*
X153874780Y-148938908D01*
X153625965Y-148899500D01*
X153625962Y-148899500D01*
X153374038Y-148899500D01*
X153374035Y-148899500D01*
X153125219Y-148938908D01*
X152885620Y-149016759D01*
X152661157Y-149131128D01*
X152457345Y-149279206D01*
X152279206Y-149457345D01*
X152131128Y-149661157D01*
X152016759Y-149885620D01*
X151938908Y-150125219D01*
X151899500Y-150374034D01*
X151899500Y-150625965D01*
X150500500Y-150625965D01*
X150500500Y-148400002D01*
X159556853Y-148400002D01*
X159577334Y-148542456D01*
X159637122Y-148673371D01*
X159637123Y-148673373D01*
X159694895Y-148740046D01*
X159731373Y-148782144D01*
X159786941Y-148817855D01*
X159852447Y-148859953D01*
X159958903Y-148891211D01*
X159990535Y-148900499D01*
X159990536Y-148900499D01*
X159990539Y-148900500D01*
X159990541Y-148900500D01*
X160134459Y-148900500D01*
X160134461Y-148900500D01*
X160272553Y-148859953D01*
X160393628Y-148782143D01*
X160487877Y-148673373D01*
X160547665Y-148542457D01*
X160568147Y-148400000D01*
X160567191Y-148393353D01*
X160547665Y-148257543D01*
X160491838Y-148135301D01*
X160487877Y-148126627D01*
X160393628Y-148017857D01*
X160393627Y-148017856D01*
X160393626Y-148017855D01*
X160272557Y-147940049D01*
X160272554Y-147940047D01*
X160272553Y-147940047D01*
X160272550Y-147940046D01*
X160134464Y-147899500D01*
X160134461Y-147899500D01*
X159990539Y-147899500D01*
X159990535Y-147899500D01*
X159852449Y-147940046D01*
X159852442Y-147940049D01*
X159731373Y-148017855D01*
X159637122Y-148126628D01*
X159577334Y-148257543D01*
X159556853Y-148399997D01*
X159556853Y-148400002D01*
X150500500Y-148400002D01*
X150500500Y-146790000D01*
X151669364Y-146790000D01*
X151726569Y-147003489D01*
X151826399Y-147217577D01*
X151961886Y-147411073D01*
X152128926Y-147578113D01*
X152322422Y-147713600D01*
X152536509Y-147813430D01*
X152750000Y-147870634D01*
X152750000Y-146973012D01*
X152807007Y-147005925D01*
X152934174Y-147040000D01*
X153065826Y-147040000D01*
X153192993Y-147005925D01*
X153250000Y-146973012D01*
X153250000Y-147870633D01*
X153463490Y-147813430D01*
X153677577Y-147713600D01*
X153839812Y-147600002D01*
X170994353Y-147600002D01*
X171014834Y-147742456D01*
X171062309Y-147846410D01*
X171074623Y-147873373D01*
X171165009Y-147977685D01*
X171168873Y-147982144D01*
X171285945Y-148057381D01*
X171289947Y-148059953D01*
X171396403Y-148091211D01*
X171428035Y-148100499D01*
X171428036Y-148100499D01*
X171428039Y-148100500D01*
X171428041Y-148100500D01*
X171571959Y-148100500D01*
X171571961Y-148100500D01*
X171710053Y-148059953D01*
X171806728Y-147997824D01*
X172549999Y-147997824D01*
X172556401Y-148057370D01*
X172556403Y-148057381D01*
X172606646Y-148192088D01*
X172606647Y-148192090D01*
X172692807Y-148307184D01*
X172692815Y-148307192D01*
X172807909Y-148393352D01*
X172807911Y-148393353D01*
X172942618Y-148443596D01*
X172942629Y-148443598D01*
X173002176Y-148450000D01*
X173649999Y-148450000D01*
X173650000Y-148449999D01*
X173650000Y-147533012D01*
X173707007Y-147565925D01*
X173834174Y-147600000D01*
X173965826Y-147600000D01*
X174092993Y-147565925D01*
X174150000Y-147533012D01*
X174150000Y-148449999D01*
X174150001Y-148450000D01*
X174797824Y-148450000D01*
X174857370Y-148443598D01*
X174857381Y-148443596D01*
X174992088Y-148393353D01*
X174992090Y-148393352D01*
X175107184Y-148307192D01*
X175107192Y-148307184D01*
X175193352Y-148192090D01*
X175193353Y-148192088D01*
X175243596Y-148057381D01*
X175243598Y-148057370D01*
X175250000Y-147997824D01*
X175250000Y-147463361D01*
X175268907Y-147405170D01*
X175318407Y-147369206D01*
X175379593Y-147369206D01*
X175429093Y-147405170D01*
X175443737Y-147434623D01*
X175464768Y-147503954D01*
X175562316Y-147686452D01*
X175608278Y-147742457D01*
X175693590Y-147846410D01*
X175693595Y-147846414D01*
X175853547Y-147977683D01*
X175853548Y-147977683D01*
X175853550Y-147977685D01*
X176036046Y-148075232D01*
X176173997Y-148117078D01*
X176234065Y-148135300D01*
X176234070Y-148135301D01*
X176439997Y-148155583D01*
X176440000Y-148155583D01*
X176440003Y-148155583D01*
X176645929Y-148135301D01*
X176645934Y-148135300D01*
X176674525Y-148126627D01*
X176843954Y-148075232D01*
X177026450Y-147977685D01*
X177186410Y-147846410D01*
X177317685Y-147686450D01*
X177415232Y-147503954D01*
X177475300Y-147305934D01*
X177475301Y-147305929D01*
X177495583Y-147100003D01*
X177924417Y-147100003D01*
X177944698Y-147305929D01*
X177944699Y-147305934D01*
X178004768Y-147503954D01*
X178102316Y-147686452D01*
X178148278Y-147742457D01*
X178233590Y-147846410D01*
X178233595Y-147846414D01*
X178393547Y-147977683D01*
X178393548Y-147977683D01*
X178393550Y-147977685D01*
X178576046Y-148075232D01*
X178713997Y-148117078D01*
X178774065Y-148135300D01*
X178774070Y-148135301D01*
X178979997Y-148155583D01*
X178980000Y-148155583D01*
X178980003Y-148155583D01*
X179185929Y-148135301D01*
X179185934Y-148135300D01*
X179214525Y-148126627D01*
X179383954Y-148075232D01*
X179566450Y-147977685D01*
X179726410Y-147846410D01*
X179857685Y-147686450D01*
X179955232Y-147503954D01*
X180015300Y-147305934D01*
X180015301Y-147305929D01*
X180035583Y-147100003D01*
X180464417Y-147100003D01*
X180484698Y-147305929D01*
X180484699Y-147305934D01*
X180544768Y-147503954D01*
X180642316Y-147686452D01*
X180688278Y-147742457D01*
X180773590Y-147846410D01*
X180773595Y-147846414D01*
X180933547Y-147977683D01*
X180933548Y-147977683D01*
X180933550Y-147977685D01*
X181116046Y-148075232D01*
X181253997Y-148117078D01*
X181314065Y-148135300D01*
X181314070Y-148135301D01*
X181519997Y-148155583D01*
X181520000Y-148155583D01*
X181520003Y-148155583D01*
X181725929Y-148135301D01*
X181725934Y-148135300D01*
X181754525Y-148126627D01*
X181923954Y-148075232D01*
X182106450Y-147977685D01*
X182266410Y-147846410D01*
X182397685Y-147686450D01*
X182495232Y-147503954D01*
X182555300Y-147305934D01*
X182555301Y-147305929D01*
X182575583Y-147100003D01*
X183004417Y-147100003D01*
X183024698Y-147305929D01*
X183024699Y-147305934D01*
X183084768Y-147503954D01*
X183182316Y-147686452D01*
X183228278Y-147742457D01*
X183313590Y-147846410D01*
X183313595Y-147846414D01*
X183473547Y-147977683D01*
X183473548Y-147977683D01*
X183473550Y-147977685D01*
X183656046Y-148075232D01*
X183793997Y-148117078D01*
X183854065Y-148135300D01*
X183854070Y-148135301D01*
X184059997Y-148155583D01*
X184060000Y-148155583D01*
X184060003Y-148155583D01*
X184265929Y-148135301D01*
X184265934Y-148135300D01*
X184294525Y-148126627D01*
X184463954Y-148075232D01*
X184646450Y-147977685D01*
X184806410Y-147846410D01*
X184937685Y-147686450D01*
X185035232Y-147503954D01*
X185095300Y-147305934D01*
X185095301Y-147305929D01*
X185115583Y-147100003D01*
X185115583Y-147099996D01*
X185095301Y-146894070D01*
X185095300Y-146894065D01*
X185064640Y-146792993D01*
X185035232Y-146696046D01*
X184937685Y-146513550D01*
X184806410Y-146353590D01*
X184798389Y-146347007D01*
X184646452Y-146222316D01*
X184463954Y-146124768D01*
X184265934Y-146064699D01*
X184265929Y-146064698D01*
X184060003Y-146044417D01*
X184059997Y-146044417D01*
X183854070Y-146064698D01*
X183854065Y-146064699D01*
X183656045Y-146124768D01*
X183473547Y-146222316D01*
X183313595Y-146353585D01*
X183313585Y-146353595D01*
X183182316Y-146513547D01*
X183084768Y-146696045D01*
X183024699Y-146894065D01*
X183024698Y-146894070D01*
X183004417Y-147099996D01*
X183004417Y-147100003D01*
X182575583Y-147100003D01*
X182575583Y-147099996D01*
X182555301Y-146894070D01*
X182555300Y-146894065D01*
X182524640Y-146792993D01*
X182495232Y-146696046D01*
X182397685Y-146513550D01*
X182266410Y-146353590D01*
X182258389Y-146347007D01*
X182106452Y-146222316D01*
X181923954Y-146124768D01*
X181725934Y-146064699D01*
X181725929Y-146064698D01*
X181520003Y-146044417D01*
X181519997Y-146044417D01*
X181314070Y-146064698D01*
X181314065Y-146064699D01*
X181116045Y-146124768D01*
X180933547Y-146222316D01*
X180773595Y-146353585D01*
X180773585Y-146353595D01*
X180642316Y-146513547D01*
X180544768Y-146696045D01*
X180484699Y-146894065D01*
X180484698Y-146894070D01*
X180464417Y-147099996D01*
X180464417Y-147100003D01*
X180035583Y-147100003D01*
X180035583Y-147099996D01*
X180015301Y-146894070D01*
X180015300Y-146894065D01*
X179984640Y-146792993D01*
X179955232Y-146696046D01*
X179857685Y-146513550D01*
X179726410Y-146353590D01*
X179718389Y-146347007D01*
X179566452Y-146222316D01*
X179383954Y-146124768D01*
X179185934Y-146064699D01*
X179185929Y-146064698D01*
X178980003Y-146044417D01*
X178979997Y-146044417D01*
X178774070Y-146064698D01*
X178774065Y-146064699D01*
X178576045Y-146124768D01*
X178393547Y-146222316D01*
X178233595Y-146353585D01*
X178233585Y-146353595D01*
X178102316Y-146513547D01*
X178004768Y-146696045D01*
X177944699Y-146894065D01*
X177944698Y-146894070D01*
X177924417Y-147099996D01*
X177924417Y-147100003D01*
X177495583Y-147100003D01*
X177495583Y-147099996D01*
X177475301Y-146894070D01*
X177475300Y-146894065D01*
X177444640Y-146792993D01*
X177415232Y-146696046D01*
X177317685Y-146513550D01*
X177186410Y-146353590D01*
X177178389Y-146347007D01*
X177026452Y-146222316D01*
X176843954Y-146124768D01*
X176645934Y-146064699D01*
X176645929Y-146064698D01*
X176440003Y-146044417D01*
X176439997Y-146044417D01*
X176234070Y-146064698D01*
X176234065Y-146064699D01*
X176036045Y-146124768D01*
X175853547Y-146222316D01*
X175693595Y-146353585D01*
X175693585Y-146353595D01*
X175562316Y-146513547D01*
X175464768Y-146696045D01*
X175443737Y-146765376D01*
X175408752Y-146815573D01*
X175350943Y-146835619D01*
X175292393Y-146817858D01*
X175255464Y-146769073D01*
X175250000Y-146736638D01*
X175250000Y-146202175D01*
X175243598Y-146142629D01*
X175243596Y-146142618D01*
X175193353Y-146007911D01*
X175193352Y-146007909D01*
X175107192Y-145892815D01*
X175107184Y-145892807D01*
X174992090Y-145806647D01*
X174992088Y-145806646D01*
X174857381Y-145756403D01*
X174857370Y-145756401D01*
X174797824Y-145750000D01*
X174150001Y-145750000D01*
X174150000Y-145750001D01*
X174150000Y-146666988D01*
X174092993Y-146634075D01*
X173965826Y-146600000D01*
X173834174Y-146600000D01*
X173707007Y-146634075D01*
X173650000Y-146666988D01*
X173650000Y-145750001D01*
X173649999Y-145750000D01*
X173002176Y-145750000D01*
X172942629Y-145756401D01*
X172942618Y-145756403D01*
X172807911Y-145806646D01*
X172807909Y-145806647D01*
X172692815Y-145892807D01*
X172692807Y-145892815D01*
X172606647Y-146007909D01*
X172606646Y-146007911D01*
X172556403Y-146142618D01*
X172556401Y-146142629D01*
X172550000Y-146202175D01*
X172550000Y-146849999D01*
X172550001Y-146850000D01*
X173466988Y-146850000D01*
X173434075Y-146907007D01*
X173400000Y-147034174D01*
X173400000Y-147165826D01*
X173434075Y-147292993D01*
X173466988Y-147350000D01*
X172550001Y-147350000D01*
X172550000Y-147350001D01*
X172550000Y-147997824D01*
X172549999Y-147997824D01*
X171806728Y-147997824D01*
X171831128Y-147982143D01*
X171925377Y-147873373D01*
X171985165Y-147742457D01*
X172005647Y-147600000D01*
X172002500Y-147578113D01*
X171985165Y-147457543D01*
X171974698Y-147434623D01*
X171925377Y-147326627D01*
X171831128Y-147217857D01*
X171831127Y-147217856D01*
X171831126Y-147217855D01*
X171710057Y-147140049D01*
X171710054Y-147140047D01*
X171710053Y-147140047D01*
X171710050Y-147140046D01*
X171571964Y-147099500D01*
X171571961Y-147099500D01*
X171428039Y-147099500D01*
X171428035Y-147099500D01*
X171289949Y-147140046D01*
X171289942Y-147140049D01*
X171168873Y-147217855D01*
X171074622Y-147326628D01*
X171014834Y-147457543D01*
X170994353Y-147599997D01*
X170994353Y-147600002D01*
X153839812Y-147600002D01*
X153871073Y-147578113D01*
X154038113Y-147411073D01*
X154173600Y-147217577D01*
X154273430Y-147003489D01*
X154330636Y-146790000D01*
X153433012Y-146790000D01*
X153465925Y-146732993D01*
X153500000Y-146605826D01*
X153500000Y-146474174D01*
X153465925Y-146347007D01*
X153433012Y-146290000D01*
X154330636Y-146290000D01*
X154273429Y-146076505D01*
X154191124Y-145900002D01*
X158794353Y-145900002D01*
X158814834Y-146042456D01*
X158868493Y-146159950D01*
X158874623Y-146173373D01*
X158968872Y-146282143D01*
X158968873Y-146282144D01*
X159089942Y-146359950D01*
X159089947Y-146359953D01*
X159196403Y-146391211D01*
X159228035Y-146400499D01*
X159228036Y-146400499D01*
X159228039Y-146400500D01*
X159228041Y-146400500D01*
X159371959Y-146400500D01*
X159371961Y-146400500D01*
X159510053Y-146359953D01*
X159631128Y-146282143D01*
X159725377Y-146173373D01*
X159785165Y-146042457D01*
X159805647Y-145900000D01*
X159800244Y-145862424D01*
X159785165Y-145757543D01*
X159758887Y-145700003D01*
X159725377Y-145626627D01*
X159631128Y-145517857D01*
X159631127Y-145517856D01*
X159631126Y-145517855D01*
X159510057Y-145440049D01*
X159510054Y-145440047D01*
X159510053Y-145440047D01*
X159510050Y-145440046D01*
X159371964Y-145399500D01*
X159371961Y-145399500D01*
X159228039Y-145399500D01*
X159228035Y-145399500D01*
X159089949Y-145440046D01*
X159089942Y-145440049D01*
X158968873Y-145517855D01*
X158874622Y-145626628D01*
X158814834Y-145757543D01*
X158794353Y-145899997D01*
X158794353Y-145900002D01*
X154191124Y-145900002D01*
X154173605Y-145862432D01*
X154173601Y-145862424D01*
X154038113Y-145668926D01*
X153871073Y-145501886D01*
X153677577Y-145366399D01*
X153463489Y-145266569D01*
X153383467Y-145245127D01*
X153332153Y-145211803D01*
X153310226Y-145154681D01*
X153324877Y-145100002D01*
X155214353Y-145100002D01*
X155234834Y-145242456D01*
X155291438Y-145366399D01*
X155294623Y-145373373D01*
X155370000Y-145460363D01*
X155388873Y-145482144D01*
X155423523Y-145504412D01*
X155509947Y-145559953D01*
X155616403Y-145591211D01*
X155648035Y-145600499D01*
X155648036Y-145600499D01*
X155648039Y-145600500D01*
X155648041Y-145600500D01*
X155791959Y-145600500D01*
X155791961Y-145600500D01*
X155930053Y-145559953D01*
X156051128Y-145482143D01*
X156145377Y-145373373D01*
X156205165Y-145242457D01*
X156212047Y-145194590D01*
X156225647Y-145100002D01*
X156225647Y-145099997D01*
X156211270Y-145000002D01*
X157194353Y-145000002D01*
X157214834Y-145142456D01*
X157260504Y-145242457D01*
X157274623Y-145273373D01*
X157347556Y-145357543D01*
X157368873Y-145382144D01*
X157489942Y-145459950D01*
X157489947Y-145459953D01*
X157588386Y-145488857D01*
X157628035Y-145500499D01*
X157628036Y-145500499D01*
X157628039Y-145500500D01*
X157628041Y-145500500D01*
X157771959Y-145500500D01*
X157771961Y-145500500D01*
X157910053Y-145459953D01*
X158031128Y-145382143D01*
X158125377Y-145273373D01*
X158185165Y-145142457D01*
X158191269Y-145100002D01*
X167894353Y-145100002D01*
X167914834Y-145242456D01*
X167971438Y-145366399D01*
X167974623Y-145373373D01*
X168050000Y-145460363D01*
X168068873Y-145482144D01*
X168103523Y-145504412D01*
X168189947Y-145559953D01*
X168296403Y-145591211D01*
X168328035Y-145600499D01*
X168328036Y-145600499D01*
X168328039Y-145600500D01*
X168328041Y-145600500D01*
X168471959Y-145600500D01*
X168471961Y-145600500D01*
X168610053Y-145559953D01*
X168696477Y-145504412D01*
X168755652Y-145488857D01*
X168803523Y-145504412D01*
X168889947Y-145559953D01*
X168927135Y-145570872D01*
X168977641Y-145605408D01*
X168998203Y-145663035D01*
X168997236Y-145679945D01*
X168994354Y-145699997D01*
X168994353Y-145700003D01*
X169014834Y-145842456D01*
X169068229Y-145959373D01*
X169075204Y-146020160D01*
X169045118Y-146073437D01*
X168989462Y-146098855D01*
X168978176Y-146099500D01*
X168828035Y-146099500D01*
X168689949Y-146140046D01*
X168689942Y-146140049D01*
X168568873Y-146217855D01*
X168474622Y-146326628D01*
X168414834Y-146457543D01*
X168394353Y-146599997D01*
X168394353Y-146600002D01*
X168414834Y-146742456D01*
X168437914Y-146792993D01*
X168474623Y-146873373D01*
X168503767Y-146907007D01*
X168568873Y-146982144D01*
X168649834Y-147034174D01*
X168689947Y-147059953D01*
X168796403Y-147091211D01*
X168828035Y-147100499D01*
X168828036Y-147100499D01*
X168828039Y-147100500D01*
X168828041Y-147100500D01*
X168971959Y-147100500D01*
X168971961Y-147100500D01*
X169110053Y-147059953D01*
X169231128Y-146982143D01*
X169325377Y-146873373D01*
X169385165Y-146742457D01*
X169400748Y-146634075D01*
X169405647Y-146600002D01*
X169405647Y-146599997D01*
X169385165Y-146457543D01*
X169331771Y-146340627D01*
X169324796Y-146279840D01*
X169354882Y-146226563D01*
X169410538Y-146201145D01*
X169421824Y-146200500D01*
X169571959Y-146200500D01*
X169571961Y-146200500D01*
X169710053Y-146159953D01*
X169831128Y-146082143D01*
X169925377Y-145973373D01*
X169985165Y-145842457D01*
X170005647Y-145700000D01*
X170002764Y-145679950D01*
X169985165Y-145557543D01*
X169967040Y-145517855D01*
X169958887Y-145500002D01*
X170594353Y-145500002D01*
X170614834Y-145642456D01*
X170668493Y-145759950D01*
X170674623Y-145773373D01*
X170768872Y-145882143D01*
X170768873Y-145882144D01*
X170889942Y-145959950D01*
X170889947Y-145959953D01*
X170996403Y-145991211D01*
X171028035Y-146000499D01*
X171028036Y-146000499D01*
X171028039Y-146000500D01*
X171028041Y-146000500D01*
X171171959Y-146000500D01*
X171171961Y-146000500D01*
X171310053Y-145959953D01*
X171431128Y-145882143D01*
X171525377Y-145773373D01*
X171585165Y-145642457D01*
X171605575Y-145500500D01*
X171605647Y-145500002D01*
X171605647Y-145499997D01*
X171585165Y-145357543D01*
X171567040Y-145317855D01*
X171558887Y-145300002D01*
X180994353Y-145300002D01*
X181014834Y-145442456D01*
X181068493Y-145559950D01*
X181074623Y-145573373D01*
X181166972Y-145679950D01*
X181168873Y-145682144D01*
X181274461Y-145750001D01*
X181289947Y-145759953D01*
X181396403Y-145791211D01*
X181428035Y-145800499D01*
X181428036Y-145800499D01*
X181428039Y-145800500D01*
X181428041Y-145800500D01*
X181571959Y-145800500D01*
X181571961Y-145800500D01*
X181710053Y-145759953D01*
X181831128Y-145682143D01*
X181925377Y-145573373D01*
X181985165Y-145442457D01*
X182005647Y-145300000D01*
X182001818Y-145273371D01*
X181985165Y-145157543D01*
X181967040Y-145117855D01*
X181925377Y-145026627D01*
X181831128Y-144917857D01*
X181831127Y-144917856D01*
X181831126Y-144917855D01*
X181710057Y-144840049D01*
X181710054Y-144840047D01*
X181710053Y-144840047D01*
X181710050Y-144840046D01*
X181571964Y-144799500D01*
X181571961Y-144799500D01*
X181428039Y-144799500D01*
X181428035Y-144799500D01*
X181289949Y-144840046D01*
X181289942Y-144840049D01*
X181168873Y-144917855D01*
X181074622Y-145026628D01*
X181014834Y-145157543D01*
X180994353Y-145299997D01*
X180994353Y-145300002D01*
X171558887Y-145300002D01*
X171525377Y-145226627D01*
X171431128Y-145117857D01*
X171431127Y-145117856D01*
X171431126Y-145117855D01*
X171310057Y-145040049D01*
X171310054Y-145040047D01*
X171310053Y-145040047D01*
X171310050Y-145040046D01*
X171171964Y-144999500D01*
X171171961Y-144999500D01*
X171028039Y-144999500D01*
X171028035Y-144999500D01*
X170889949Y-145040046D01*
X170889942Y-145040049D01*
X170768873Y-145117855D01*
X170674622Y-145226628D01*
X170614834Y-145357543D01*
X170594353Y-145499997D01*
X170594353Y-145500002D01*
X169958887Y-145500002D01*
X169925377Y-145426627D01*
X169831128Y-145317857D01*
X169831127Y-145317856D01*
X169831126Y-145317855D01*
X169710054Y-145240047D01*
X169672864Y-145229127D01*
X169622357Y-145194590D01*
X169601796Y-145136963D01*
X169602763Y-145120055D01*
X169605647Y-145100000D01*
X169601248Y-145069407D01*
X169585165Y-144957543D01*
X169571779Y-144928233D01*
X169525377Y-144826627D01*
X169431128Y-144717857D01*
X169431127Y-144717856D01*
X169431126Y-144717855D01*
X169376865Y-144682984D01*
X169338133Y-144635618D01*
X169334640Y-144574532D01*
X169367720Y-144523060D01*
X169424736Y-144500861D01*
X169430388Y-144500700D01*
X169571959Y-144500700D01*
X169571961Y-144500700D01*
X169710053Y-144460153D01*
X169831128Y-144382343D01*
X169925377Y-144273573D01*
X169985165Y-144142657D01*
X169991298Y-144100002D01*
X171594353Y-144100002D01*
X171614834Y-144242456D01*
X171629044Y-144273571D01*
X171674623Y-144373373D01*
X171768872Y-144482143D01*
X171768873Y-144482144D01*
X171870845Y-144547677D01*
X171889947Y-144559953D01*
X171996403Y-144591211D01*
X172028035Y-144600499D01*
X172028036Y-144600499D01*
X172028039Y-144600500D01*
X172028041Y-144600500D01*
X172171959Y-144600500D01*
X172171961Y-144600500D01*
X172310053Y-144559953D01*
X172431128Y-144482143D01*
X172502303Y-144400002D01*
X182794353Y-144400002D01*
X182814834Y-144542456D01*
X182859403Y-144640046D01*
X182874623Y-144673373D01*
X182968872Y-144782143D01*
X182968873Y-144782144D01*
X183086197Y-144857543D01*
X183089947Y-144859953D01*
X183196403Y-144891211D01*
X183228035Y-144900499D01*
X183228036Y-144900499D01*
X183228039Y-144900500D01*
X183228041Y-144900500D01*
X183371959Y-144900500D01*
X183371961Y-144900500D01*
X183510053Y-144859953D01*
X183631128Y-144782143D01*
X183725377Y-144673373D01*
X183782782Y-144547674D01*
X183824152Y-144502599D01*
X183884119Y-144490448D01*
X183939775Y-144515866D01*
X183962887Y-144547676D01*
X183974621Y-144573371D01*
X184068873Y-144682144D01*
X184138092Y-144726628D01*
X184189947Y-144759953D01*
X184296403Y-144791211D01*
X184328035Y-144800499D01*
X184328036Y-144800499D01*
X184328039Y-144800500D01*
X184328041Y-144800500D01*
X184471959Y-144800500D01*
X184471961Y-144800500D01*
X184610053Y-144759953D01*
X184731128Y-144682143D01*
X184825377Y-144573373D01*
X184885165Y-144442457D01*
X184905647Y-144300000D01*
X184901847Y-144273573D01*
X184885165Y-144157543D01*
X184863680Y-144110499D01*
X184825377Y-144026627D01*
X184731128Y-143917857D01*
X184731127Y-143917856D01*
X184731126Y-143917855D01*
X184610057Y-143840049D01*
X184610054Y-143840047D01*
X184610053Y-143840047D01*
X184610050Y-143840046D01*
X184471964Y-143799500D01*
X184471961Y-143799500D01*
X184328039Y-143799500D01*
X184328035Y-143799500D01*
X184189949Y-143840046D01*
X184189942Y-143840049D01*
X184068873Y-143917855D01*
X183974622Y-144026628D01*
X183917218Y-144152323D01*
X183875846Y-144197400D01*
X183815879Y-144209551D01*
X183760223Y-144184133D01*
X183737112Y-144152323D01*
X183725377Y-144126627D01*
X183631128Y-144017857D01*
X183631127Y-144017856D01*
X183631126Y-144017855D01*
X183510057Y-143940049D01*
X183510054Y-143940047D01*
X183510053Y-143940047D01*
X183510050Y-143940046D01*
X183371964Y-143899500D01*
X183371961Y-143899500D01*
X183228039Y-143899500D01*
X183228035Y-143899500D01*
X183089949Y-143940046D01*
X183089942Y-143940049D01*
X182968873Y-144017855D01*
X182874622Y-144126628D01*
X182814834Y-144257543D01*
X182794353Y-144399997D01*
X182794353Y-144400002D01*
X172502303Y-144400002D01*
X172525377Y-144373373D01*
X172585165Y-144242457D01*
X172601819Y-144126627D01*
X172605647Y-144100002D01*
X172605647Y-144099997D01*
X172585165Y-143957543D01*
X172559114Y-143900500D01*
X172525377Y-143826627D01*
X172431128Y-143717857D01*
X172431127Y-143717856D01*
X172431126Y-143717855D01*
X172310057Y-143640049D01*
X172310054Y-143640047D01*
X172310053Y-143640047D01*
X172310050Y-143640046D01*
X172171964Y-143599500D01*
X172171961Y-143599500D01*
X172028039Y-143599500D01*
X172028035Y-143599500D01*
X171889949Y-143640046D01*
X171889942Y-143640049D01*
X171768873Y-143717855D01*
X171674622Y-143826628D01*
X171614834Y-143957543D01*
X171594353Y-144099997D01*
X171594353Y-144100002D01*
X169991298Y-144100002D01*
X170001847Y-144026628D01*
X170005647Y-144000202D01*
X170005647Y-144000197D01*
X169985165Y-143857743D01*
X169958566Y-143799500D01*
X169925377Y-143726827D01*
X169831128Y-143618057D01*
X169831127Y-143618056D01*
X169831126Y-143618055D01*
X169710057Y-143540249D01*
X169710054Y-143540247D01*
X169710053Y-143540247D01*
X169710050Y-143540246D01*
X169571964Y-143499700D01*
X169571961Y-143499700D01*
X169428039Y-143499700D01*
X169428035Y-143499700D01*
X169388106Y-143511425D01*
X169326946Y-143509677D01*
X169278493Y-143472314D01*
X169261255Y-143413607D01*
X169264419Y-143400002D01*
X176794353Y-143400002D01*
X176814834Y-143542456D01*
X176859403Y-143640046D01*
X176874623Y-143673373D01*
X176943149Y-143752457D01*
X176968873Y-143782144D01*
X177086508Y-143857743D01*
X177089947Y-143859953D01*
X177193975Y-143890498D01*
X177228035Y-143900499D01*
X177228036Y-143900499D01*
X177228039Y-143900500D01*
X177228041Y-143900500D01*
X177371959Y-143900500D01*
X177371961Y-143900500D01*
X177510053Y-143859953D01*
X177631128Y-143782143D01*
X177693860Y-143709746D01*
X191649500Y-143709746D01*
X191649501Y-143709758D01*
X191661132Y-143768227D01*
X191661134Y-143768233D01*
X191700153Y-143826628D01*
X191705448Y-143834552D01*
X191771769Y-143878867D01*
X191816231Y-143887711D01*
X191830241Y-143890498D01*
X191830246Y-143890498D01*
X191830252Y-143890500D01*
X191830253Y-143890500D01*
X193569747Y-143890500D01*
X193569748Y-143890500D01*
X193628231Y-143878867D01*
X193694552Y-143834552D01*
X193738867Y-143768231D01*
X193750500Y-143709748D01*
X193750500Y-141970252D01*
X193738867Y-141911769D01*
X193694552Y-141845448D01*
X193694548Y-141845445D01*
X193628233Y-141801134D01*
X193628231Y-141801133D01*
X193628228Y-141801132D01*
X193628227Y-141801132D01*
X193569758Y-141789501D01*
X193569748Y-141789500D01*
X191830252Y-141789500D01*
X191830251Y-141789500D01*
X191830241Y-141789501D01*
X191771772Y-141801132D01*
X191771766Y-141801134D01*
X191705451Y-141845445D01*
X191705445Y-141845451D01*
X191661134Y-141911766D01*
X191661132Y-141911772D01*
X191649501Y-141970241D01*
X191649500Y-141970253D01*
X191649500Y-143709746D01*
X177693860Y-143709746D01*
X177725377Y-143673373D01*
X177785165Y-143542457D01*
X177805647Y-143400000D01*
X177796535Y-143336627D01*
X177785165Y-143257543D01*
X177771607Y-143227855D01*
X177725377Y-143126627D01*
X177631128Y-143017857D01*
X177631127Y-143017856D01*
X177631126Y-143017855D01*
X177510057Y-142940049D01*
X177510054Y-142940047D01*
X177510053Y-142940047D01*
X177510050Y-142940046D01*
X177371964Y-142899500D01*
X177371961Y-142899500D01*
X177228039Y-142899500D01*
X177228035Y-142899500D01*
X177089949Y-142940046D01*
X177089942Y-142940049D01*
X176968873Y-143017855D01*
X176874622Y-143126628D01*
X176814834Y-143257543D01*
X176794353Y-143399997D01*
X176794353Y-143400002D01*
X169264419Y-143400002D01*
X169270161Y-143375310D01*
X169285165Y-143342457D01*
X169285165Y-143342455D01*
X169285166Y-143342454D01*
X169305647Y-143200002D01*
X169305647Y-143199997D01*
X169285165Y-143057543D01*
X169261372Y-143005445D01*
X169225377Y-142926627D01*
X169131128Y-142817857D01*
X169131127Y-142817856D01*
X169131126Y-142817855D01*
X169103346Y-142800002D01*
X170994353Y-142800002D01*
X171014834Y-142942456D01*
X171068493Y-143059950D01*
X171074623Y-143073373D01*
X171141060Y-143150046D01*
X171168873Y-143182144D01*
X171286197Y-143257543D01*
X171289947Y-143259953D01*
X171396403Y-143291211D01*
X171428035Y-143300499D01*
X171428036Y-143300499D01*
X171428039Y-143300500D01*
X171428041Y-143300500D01*
X171571959Y-143300500D01*
X171571961Y-143300500D01*
X171710053Y-143259953D01*
X171831128Y-143182143D01*
X171925377Y-143073373D01*
X171985165Y-142942457D01*
X172005647Y-142800000D01*
X171997027Y-142740049D01*
X171985165Y-142657543D01*
X171967040Y-142617855D01*
X171925377Y-142526627D01*
X171831128Y-142417857D01*
X171831127Y-142417856D01*
X171831126Y-142417855D01*
X171710057Y-142340049D01*
X171710054Y-142340047D01*
X171710053Y-142340047D01*
X171710050Y-142340046D01*
X171571964Y-142299500D01*
X171571961Y-142299500D01*
X171428039Y-142299500D01*
X171428035Y-142299500D01*
X171289949Y-142340046D01*
X171289942Y-142340049D01*
X171168873Y-142417855D01*
X171074622Y-142526628D01*
X171014834Y-142657543D01*
X170994353Y-142799997D01*
X170994353Y-142800002D01*
X169103346Y-142800002D01*
X169010057Y-142740049D01*
X169010054Y-142740047D01*
X169010053Y-142740047D01*
X169010050Y-142740046D01*
X168871964Y-142699500D01*
X168871961Y-142699500D01*
X168728039Y-142699500D01*
X168728035Y-142699500D01*
X168589949Y-142740046D01*
X168589942Y-142740049D01*
X168468873Y-142817855D01*
X168374622Y-142926628D01*
X168314834Y-143057543D01*
X168294353Y-143199997D01*
X168294353Y-143200002D01*
X168314834Y-143342456D01*
X168341113Y-143399997D01*
X168374623Y-143473373D01*
X168468872Y-143582143D01*
X168468873Y-143582144D01*
X168589942Y-143659950D01*
X168589947Y-143659953D01*
X168688107Y-143688775D01*
X168728035Y-143700499D01*
X168728036Y-143700499D01*
X168728039Y-143700500D01*
X168728041Y-143700500D01*
X168871959Y-143700500D01*
X168871961Y-143700500D01*
X168911892Y-143688775D01*
X168973051Y-143690521D01*
X169021505Y-143727882D01*
X169038744Y-143786589D01*
X169029838Y-143824889D01*
X169014834Y-143857743D01*
X168994353Y-144000197D01*
X168994353Y-144000202D01*
X169014834Y-144142656D01*
X169067302Y-144257543D01*
X169074623Y-144273573D01*
X169097524Y-144300002D01*
X169168873Y-144382344D01*
X169223135Y-144417216D01*
X169261867Y-144464582D01*
X169265360Y-144525668D01*
X169232280Y-144577140D01*
X169175264Y-144599339D01*
X169169612Y-144599500D01*
X169028035Y-144599500D01*
X168889949Y-144640046D01*
X168889947Y-144640047D01*
X168803523Y-144695588D01*
X168744347Y-144711141D01*
X168696477Y-144695588D01*
X168661906Y-144673371D01*
X168610053Y-144640047D01*
X168610050Y-144640046D01*
X168471964Y-144599500D01*
X168471961Y-144599500D01*
X168328039Y-144599500D01*
X168328035Y-144599500D01*
X168189949Y-144640046D01*
X168189942Y-144640049D01*
X168068873Y-144717855D01*
X167974622Y-144826628D01*
X167914834Y-144957543D01*
X167894353Y-145099997D01*
X167894353Y-145100002D01*
X158191269Y-145100002D01*
X158205647Y-145000000D01*
X158205575Y-144999500D01*
X158185165Y-144857543D01*
X158159114Y-144800500D01*
X158125377Y-144726627D01*
X158031128Y-144617857D01*
X158031127Y-144617856D01*
X158031126Y-144617855D01*
X157910057Y-144540049D01*
X157910054Y-144540047D01*
X157910053Y-144540047D01*
X157910050Y-144540046D01*
X157771964Y-144499500D01*
X157771961Y-144499500D01*
X157628039Y-144499500D01*
X157628035Y-144499500D01*
X157489949Y-144540046D01*
X157489942Y-144540049D01*
X157368873Y-144617855D01*
X157274622Y-144726628D01*
X157214834Y-144857543D01*
X157194353Y-144999997D01*
X157194353Y-145000002D01*
X156211270Y-145000002D01*
X156205165Y-144957543D01*
X156191779Y-144928233D01*
X156145377Y-144826627D01*
X156051128Y-144717857D01*
X156051127Y-144717856D01*
X156051126Y-144717855D01*
X155930057Y-144640049D01*
X155930054Y-144640047D01*
X155930053Y-144640047D01*
X155930050Y-144640046D01*
X155791964Y-144599500D01*
X155791961Y-144599500D01*
X155648039Y-144599500D01*
X155648035Y-144599500D01*
X155509949Y-144640046D01*
X155509942Y-144640049D01*
X155388873Y-144717855D01*
X155294622Y-144826628D01*
X155234834Y-144957543D01*
X155214353Y-145099997D01*
X155214353Y-145100002D01*
X153324877Y-145100002D01*
X153326062Y-145095581D01*
X153373612Y-145057076D01*
X153409090Y-145050500D01*
X153869747Y-145050500D01*
X153869748Y-145050500D01*
X153928231Y-145038867D01*
X153994552Y-144994552D01*
X154038867Y-144928231D01*
X154050500Y-144869748D01*
X154050500Y-143610002D01*
X165494353Y-143610002D01*
X165514834Y-143752456D01*
X165548708Y-143826628D01*
X165574623Y-143883373D01*
X165623730Y-143940046D01*
X165668873Y-143992144D01*
X165789942Y-144069950D01*
X165789947Y-144069953D01*
X165892269Y-144099997D01*
X165928035Y-144110499D01*
X165928036Y-144110499D01*
X165928039Y-144110500D01*
X165928041Y-144110500D01*
X166071959Y-144110500D01*
X166071961Y-144110500D01*
X166210053Y-144069953D01*
X166331128Y-143992143D01*
X166425377Y-143883373D01*
X166485165Y-143752457D01*
X166492635Y-143700499D01*
X166505647Y-143610002D01*
X166505647Y-143609997D01*
X166485165Y-143467543D01*
X166460533Y-143413607D01*
X166425377Y-143336627D01*
X166331128Y-143227857D01*
X166331127Y-143227856D01*
X166331126Y-143227855D01*
X166210057Y-143150049D01*
X166210054Y-143150047D01*
X166210053Y-143150047D01*
X166184204Y-143142457D01*
X166071964Y-143109500D01*
X166071961Y-143109500D01*
X165928039Y-143109500D01*
X165928035Y-143109500D01*
X165789949Y-143150046D01*
X165789942Y-143150049D01*
X165668873Y-143227855D01*
X165574622Y-143336628D01*
X165514834Y-143467543D01*
X165494353Y-143609997D01*
X165494353Y-143610002D01*
X154050500Y-143610002D01*
X154050500Y-143130252D01*
X154038867Y-143071769D01*
X153994552Y-143005448D01*
X153986402Y-143000002D01*
X158094353Y-143000002D01*
X158114834Y-143142456D01*
X158168493Y-143259950D01*
X158174623Y-143273373D01*
X158262949Y-143375307D01*
X158268873Y-143382144D01*
X158296653Y-143399997D01*
X158389947Y-143459953D01*
X158496403Y-143491211D01*
X158528035Y-143500499D01*
X158528036Y-143500499D01*
X158528039Y-143500500D01*
X158528041Y-143500500D01*
X158671959Y-143500500D01*
X158671961Y-143500500D01*
X158810053Y-143459953D01*
X158931128Y-143382143D01*
X159025377Y-143273373D01*
X159085165Y-143142457D01*
X159103080Y-143017855D01*
X159105647Y-143000002D01*
X159105647Y-142999997D01*
X159085165Y-142857543D01*
X159067040Y-142817855D01*
X159025377Y-142726627D01*
X158931128Y-142617857D01*
X158931127Y-142617856D01*
X158931126Y-142617855D01*
X158903346Y-142600002D01*
X162104353Y-142600002D01*
X162124834Y-142742456D01*
X162178493Y-142859950D01*
X162184623Y-142873373D01*
X162250587Y-142949500D01*
X162278873Y-142982144D01*
X162315135Y-143005448D01*
X162399947Y-143059953D01*
X162506403Y-143091211D01*
X162538035Y-143100499D01*
X162538036Y-143100499D01*
X162538039Y-143100500D01*
X162538041Y-143100500D01*
X162681959Y-143100500D01*
X162681961Y-143100500D01*
X162820053Y-143059953D01*
X162941128Y-142982143D01*
X163035377Y-142873373D01*
X163095165Y-142742457D01*
X163115647Y-142600000D01*
X163107027Y-142540049D01*
X163095165Y-142457543D01*
X163077040Y-142417855D01*
X163068887Y-142400002D01*
X164794353Y-142400002D01*
X164814834Y-142542456D01*
X164874622Y-142673371D01*
X164874623Y-142673373D01*
X164968872Y-142782143D01*
X164968873Y-142782144D01*
X164996653Y-142799997D01*
X165089947Y-142859953D01*
X165196403Y-142891211D01*
X165228035Y-142900499D01*
X165228036Y-142900499D01*
X165228039Y-142900500D01*
X165228041Y-142900500D01*
X165371959Y-142900500D01*
X165371961Y-142900500D01*
X165510053Y-142859953D01*
X165631128Y-142782143D01*
X165725377Y-142673373D01*
X165785165Y-142542457D01*
X165805647Y-142400000D01*
X165797027Y-142340049D01*
X165785165Y-142257543D01*
X165767040Y-142217855D01*
X165725377Y-142126627D01*
X165631128Y-142017857D01*
X165631127Y-142017856D01*
X165631126Y-142017855D01*
X165510057Y-141940049D01*
X165510054Y-141940047D01*
X165510053Y-141940047D01*
X165510050Y-141940046D01*
X165371964Y-141899500D01*
X165371961Y-141899500D01*
X165228039Y-141899500D01*
X165228035Y-141899500D01*
X165089949Y-141940046D01*
X165089942Y-141940049D01*
X164968873Y-142017855D01*
X164874622Y-142126628D01*
X164814834Y-142257543D01*
X164794353Y-142399997D01*
X164794353Y-142400002D01*
X163068887Y-142400002D01*
X163035377Y-142326627D01*
X162941128Y-142217857D01*
X162941127Y-142217856D01*
X162941126Y-142217855D01*
X162820057Y-142140049D01*
X162820054Y-142140047D01*
X162820053Y-142140047D01*
X162820050Y-142140046D01*
X162681964Y-142099500D01*
X162681961Y-142099500D01*
X162538039Y-142099500D01*
X162538035Y-142099500D01*
X162399949Y-142140046D01*
X162399942Y-142140049D01*
X162278873Y-142217855D01*
X162184622Y-142326628D01*
X162124834Y-142457543D01*
X162104353Y-142599997D01*
X162104353Y-142600002D01*
X158903346Y-142600002D01*
X158810057Y-142540049D01*
X158810054Y-142540047D01*
X158810053Y-142540047D01*
X158810050Y-142540046D01*
X158671964Y-142499500D01*
X158671961Y-142499500D01*
X158528039Y-142499500D01*
X158528035Y-142499500D01*
X158389949Y-142540046D01*
X158389942Y-142540049D01*
X158268873Y-142617855D01*
X158174622Y-142726628D01*
X158114834Y-142857543D01*
X158094353Y-142999997D01*
X158094353Y-143000002D01*
X153986402Y-143000002D01*
X153986399Y-143000000D01*
X153928233Y-142961134D01*
X153928231Y-142961133D01*
X153928228Y-142961132D01*
X153928227Y-142961132D01*
X153869758Y-142949501D01*
X153869748Y-142949500D01*
X152130252Y-142949500D01*
X152130251Y-142949500D01*
X152130241Y-142949501D01*
X152071772Y-142961132D01*
X152071766Y-142961134D01*
X152005451Y-143005445D01*
X152005445Y-143005451D01*
X151961134Y-143071766D01*
X151961132Y-143071772D01*
X151949501Y-143130241D01*
X151949500Y-143130253D01*
X151949500Y-144869746D01*
X151949501Y-144869758D01*
X151959069Y-144917855D01*
X151961133Y-144928231D01*
X152005448Y-144994552D01*
X152071769Y-145038867D01*
X152116231Y-145047711D01*
X152130241Y-145050498D01*
X152130246Y-145050498D01*
X152130252Y-145050500D01*
X152130253Y-145050500D01*
X152590910Y-145050500D01*
X152649101Y-145069407D01*
X152685065Y-145118907D01*
X152685065Y-145180093D01*
X152649101Y-145229593D01*
X152616533Y-145245127D01*
X152536505Y-145266570D01*
X152322432Y-145366394D01*
X152322424Y-145366398D01*
X152128926Y-145501886D01*
X151961886Y-145668926D01*
X151826398Y-145862424D01*
X151826394Y-145862432D01*
X151726570Y-146076505D01*
X151669364Y-146290000D01*
X152566988Y-146290000D01*
X152534075Y-146347007D01*
X152500000Y-146474174D01*
X152500000Y-146605826D01*
X152534075Y-146732993D01*
X152566988Y-146790000D01*
X151669364Y-146790000D01*
X150500500Y-146790000D01*
X150500500Y-141400002D01*
X152094353Y-141400002D01*
X152114834Y-141542456D01*
X152160504Y-141642457D01*
X152174623Y-141673373D01*
X152261271Y-141773371D01*
X152268873Y-141782144D01*
X152367381Y-141845451D01*
X152389947Y-141859953D01*
X152496403Y-141891211D01*
X152528035Y-141900499D01*
X152528036Y-141900499D01*
X152528039Y-141900500D01*
X152528041Y-141900500D01*
X152671959Y-141900500D01*
X152671961Y-141900500D01*
X152810053Y-141859953D01*
X152931128Y-141782143D01*
X153025377Y-141673373D01*
X153085165Y-141542457D01*
X153091269Y-141500002D01*
X168194353Y-141500002D01*
X168214834Y-141642456D01*
X168228953Y-141673371D01*
X168274623Y-141773373D01*
X168368872Y-141882143D01*
X168368873Y-141882144D01*
X168489942Y-141959950D01*
X168489947Y-141959953D01*
X168596403Y-141991211D01*
X168628035Y-142000499D01*
X168628036Y-142000499D01*
X168628039Y-142000500D01*
X168628041Y-142000500D01*
X168771959Y-142000500D01*
X168771961Y-142000500D01*
X168910053Y-141959953D01*
X169031128Y-141882143D01*
X169125377Y-141773373D01*
X169185165Y-141642457D01*
X169205647Y-141500000D01*
X169185165Y-141357543D01*
X169125377Y-141226627D01*
X169031128Y-141117857D01*
X169031127Y-141117856D01*
X169031126Y-141117855D01*
X168910057Y-141040049D01*
X168910054Y-141040047D01*
X168910053Y-141040047D01*
X168910050Y-141040046D01*
X168771964Y-140999500D01*
X168771961Y-140999500D01*
X168628039Y-140999500D01*
X168628035Y-140999500D01*
X168489949Y-141040046D01*
X168489942Y-141040049D01*
X168368873Y-141117855D01*
X168274622Y-141226628D01*
X168214834Y-141357543D01*
X168194353Y-141499997D01*
X168194353Y-141500002D01*
X153091269Y-141500002D01*
X153105575Y-141400500D01*
X153105647Y-141400002D01*
X153105647Y-141399997D01*
X153085165Y-141257543D01*
X153050731Y-141182144D01*
X153025377Y-141126627D01*
X152931128Y-141017857D01*
X152931127Y-141017856D01*
X152931126Y-141017855D01*
X152810057Y-140940049D01*
X152810054Y-140940047D01*
X152810053Y-140940047D01*
X152810050Y-140940046D01*
X152673674Y-140900002D01*
X173494353Y-140900002D01*
X173514834Y-141042456D01*
X173553275Y-141126628D01*
X173574623Y-141173373D01*
X173662883Y-141275231D01*
X173668873Y-141282144D01*
X173783147Y-141355583D01*
X173789947Y-141359953D01*
X173896403Y-141391211D01*
X173928035Y-141400499D01*
X173928036Y-141400499D01*
X173928039Y-141400500D01*
X173928041Y-141400500D01*
X174071959Y-141400500D01*
X174071961Y-141400500D01*
X174210053Y-141359953D01*
X174331128Y-141282143D01*
X174425377Y-141173373D01*
X174485165Y-141042457D01*
X174505647Y-140900000D01*
X174505575Y-140899500D01*
X174485165Y-140757543D01*
X174450731Y-140682144D01*
X174425377Y-140626627D01*
X174331128Y-140517857D01*
X174331127Y-140517856D01*
X174331126Y-140517855D01*
X174210057Y-140440049D01*
X174210054Y-140440047D01*
X174210053Y-140440047D01*
X174202101Y-140437712D01*
X174071964Y-140399500D01*
X174071961Y-140399500D01*
X173928039Y-140399500D01*
X173928035Y-140399500D01*
X173789949Y-140440046D01*
X173789942Y-140440049D01*
X173668873Y-140517855D01*
X173574622Y-140626628D01*
X173514834Y-140757543D01*
X173494353Y-140899997D01*
X173494353Y-140900002D01*
X152673674Y-140900002D01*
X152671964Y-140899500D01*
X152671961Y-140899500D01*
X152528039Y-140899500D01*
X152528035Y-140899500D01*
X152389949Y-140940046D01*
X152389942Y-140940049D01*
X152268873Y-141017855D01*
X152174622Y-141126628D01*
X152114834Y-141257543D01*
X152094353Y-141399997D01*
X152094353Y-141400002D01*
X150500500Y-141400002D01*
X150500500Y-139550002D01*
X159194353Y-139550002D01*
X159214834Y-139692456D01*
X159227222Y-139719581D01*
X159274623Y-139823373D01*
X159365840Y-139928644D01*
X159368873Y-139932144D01*
X159415525Y-139962125D01*
X159489947Y-140009953D01*
X159596403Y-140041211D01*
X159628035Y-140050499D01*
X159628036Y-140050499D01*
X159628039Y-140050500D01*
X159628041Y-140050500D01*
X159771959Y-140050500D01*
X159771961Y-140050500D01*
X159910053Y-140009953D01*
X160031128Y-139932143D01*
X160031136Y-139932133D01*
X160035165Y-139928644D01*
X160091523Y-139904824D01*
X160151119Y-139918679D01*
X160164835Y-139928644D01*
X160168866Y-139932137D01*
X160168872Y-139932143D01*
X160289947Y-140009953D01*
X160396403Y-140041211D01*
X160428035Y-140050499D01*
X160428036Y-140050499D01*
X160428039Y-140050500D01*
X160428041Y-140050500D01*
X160571959Y-140050500D01*
X160571961Y-140050500D01*
X160710053Y-140009953D01*
X160831128Y-139932143D01*
X160925377Y-139823373D01*
X160981719Y-139700002D01*
X170094353Y-139700002D01*
X170114834Y-139842456D01*
X170160504Y-139942457D01*
X170174623Y-139973373D01*
X170261271Y-140073371D01*
X170268873Y-140082144D01*
X170386197Y-140157543D01*
X170389947Y-140159953D01*
X170496403Y-140191211D01*
X170528035Y-140200499D01*
X170528036Y-140200499D01*
X170528039Y-140200500D01*
X170528041Y-140200500D01*
X170671959Y-140200500D01*
X170671961Y-140200500D01*
X170771285Y-140171336D01*
X170832445Y-140173083D01*
X170880898Y-140210446D01*
X170898136Y-140269153D01*
X170897169Y-140280413D01*
X170894354Y-140299997D01*
X170894353Y-140300001D01*
X170894353Y-140300002D01*
X170914834Y-140442456D01*
X170953275Y-140526628D01*
X170974623Y-140573373D01*
X171047556Y-140657543D01*
X171068873Y-140682144D01*
X171186197Y-140757543D01*
X171189947Y-140759953D01*
X171296403Y-140791211D01*
X171328035Y-140800499D01*
X171328036Y-140800499D01*
X171328039Y-140800500D01*
X171328041Y-140800500D01*
X171471959Y-140800500D01*
X171471961Y-140800500D01*
X171610053Y-140759953D01*
X171731128Y-140682143D01*
X171825377Y-140573373D01*
X171885165Y-140442457D01*
X171905575Y-140300500D01*
X171905647Y-140300002D01*
X171905647Y-140299997D01*
X171885165Y-140157543D01*
X171825377Y-140026627D01*
X171731128Y-139917857D01*
X171731127Y-139917856D01*
X171731126Y-139917855D01*
X171610057Y-139840049D01*
X171610054Y-139840047D01*
X171610053Y-139840047D01*
X171610050Y-139840046D01*
X171473674Y-139800002D01*
X178994353Y-139800002D01*
X179014834Y-139942456D01*
X179053275Y-140026628D01*
X179074623Y-140073373D01*
X179151666Y-140162286D01*
X179168873Y-140182144D01*
X179289942Y-140259950D01*
X179289947Y-140259953D01*
X179396403Y-140291211D01*
X179428035Y-140300499D01*
X179428036Y-140300499D01*
X179428039Y-140300500D01*
X179428041Y-140300500D01*
X179571959Y-140300500D01*
X179571961Y-140300500D01*
X179648957Y-140277892D01*
X179710114Y-140279639D01*
X179758567Y-140317002D01*
X179775806Y-140375708D01*
X179755245Y-140433336D01*
X179751666Y-140437712D01*
X179674623Y-140526626D01*
X179614834Y-140657543D01*
X179594353Y-140799997D01*
X179594353Y-140800002D01*
X179614834Y-140942456D01*
X179662309Y-141046410D01*
X179674623Y-141073373D01*
X179765009Y-141177685D01*
X179768873Y-141182144D01*
X179838092Y-141226628D01*
X179889947Y-141259953D01*
X179996403Y-141291211D01*
X180028035Y-141300499D01*
X180028036Y-141300499D01*
X180028039Y-141300500D01*
X180028041Y-141300500D01*
X180171959Y-141300500D01*
X180171961Y-141300500D01*
X180310053Y-141259953D01*
X180431128Y-141182143D01*
X180525377Y-141073373D01*
X180585165Y-140942457D01*
X180591269Y-140900002D01*
X181794353Y-140900002D01*
X181814834Y-141042456D01*
X181853275Y-141126628D01*
X181874623Y-141173373D01*
X181962883Y-141275231D01*
X181968873Y-141282144D01*
X182083147Y-141355583D01*
X182089947Y-141359953D01*
X182196403Y-141391211D01*
X182228035Y-141400499D01*
X182228036Y-141400499D01*
X182228039Y-141400500D01*
X182228041Y-141400500D01*
X182371959Y-141400500D01*
X182371961Y-141400500D01*
X182510053Y-141359953D01*
X182631128Y-141282143D01*
X182725377Y-141173373D01*
X182785165Y-141042457D01*
X182805647Y-140900000D01*
X182805575Y-140899500D01*
X182785165Y-140757543D01*
X182750731Y-140682144D01*
X182725377Y-140626627D01*
X182631128Y-140517857D01*
X182631127Y-140517856D01*
X182631126Y-140517855D01*
X182510057Y-140440049D01*
X182510054Y-140440047D01*
X182510053Y-140440047D01*
X182502101Y-140437712D01*
X182371964Y-140399500D01*
X182371961Y-140399500D01*
X182228039Y-140399500D01*
X182228035Y-140399500D01*
X182089949Y-140440046D01*
X182089942Y-140440049D01*
X181968873Y-140517855D01*
X181874622Y-140626628D01*
X181814834Y-140757543D01*
X181794353Y-140899997D01*
X181794353Y-140900002D01*
X180591269Y-140900002D01*
X180605575Y-140800500D01*
X180605647Y-140800002D01*
X180605647Y-140799997D01*
X180585165Y-140657543D01*
X180546725Y-140573373D01*
X180525377Y-140526627D01*
X180431128Y-140417857D01*
X180431127Y-140417856D01*
X180431126Y-140417855D01*
X180310057Y-140340049D01*
X180310054Y-140340047D01*
X180310053Y-140340047D01*
X180310050Y-140340046D01*
X180173677Y-140300003D01*
X191644417Y-140300003D01*
X191664698Y-140505929D01*
X191664699Y-140505934D01*
X191724768Y-140703954D01*
X191822316Y-140886452D01*
X191930157Y-141017857D01*
X191953590Y-141046410D01*
X191953595Y-141046414D01*
X192113547Y-141177683D01*
X192113548Y-141177683D01*
X192113550Y-141177685D01*
X192296046Y-141275232D01*
X192433997Y-141317078D01*
X192494065Y-141335300D01*
X192494070Y-141335301D01*
X192699997Y-141355583D01*
X192700000Y-141355583D01*
X192700003Y-141355583D01*
X192905929Y-141335301D01*
X192905934Y-141335300D01*
X193103954Y-141275232D01*
X193286450Y-141177685D01*
X193446410Y-141046410D01*
X193577685Y-140886450D01*
X193675232Y-140703954D01*
X193735300Y-140505934D01*
X193735301Y-140505929D01*
X193755583Y-140300003D01*
X193755583Y-140299996D01*
X193735301Y-140094070D01*
X193735300Y-140094065D01*
X193709784Y-140009950D01*
X193675232Y-139896046D01*
X193577685Y-139713550D01*
X193566975Y-139700500D01*
X193446414Y-139553595D01*
X193446410Y-139553590D01*
X193413557Y-139526628D01*
X193286452Y-139422316D01*
X193103954Y-139324768D01*
X192905934Y-139264699D01*
X192905929Y-139264698D01*
X192700003Y-139244417D01*
X192699997Y-139244417D01*
X192494070Y-139264698D01*
X192494065Y-139264699D01*
X192296045Y-139324768D01*
X192113547Y-139422316D01*
X191953595Y-139553585D01*
X191953585Y-139553595D01*
X191822316Y-139713547D01*
X191724768Y-139896045D01*
X191664699Y-140094065D01*
X191664698Y-140094070D01*
X191644417Y-140299996D01*
X191644417Y-140300003D01*
X180173677Y-140300003D01*
X180171964Y-140299500D01*
X180171961Y-140299500D01*
X180028039Y-140299500D01*
X180028035Y-140299500D01*
X179951044Y-140322107D01*
X179889883Y-140320359D01*
X179841431Y-140282996D01*
X179824193Y-140224289D01*
X179844755Y-140166662D01*
X179848334Y-140162286D01*
X179852444Y-140157543D01*
X179925377Y-140073373D01*
X179985165Y-139942457D01*
X180005647Y-139800000D01*
X180005575Y-139799501D01*
X179985165Y-139657543D01*
X179950731Y-139582144D01*
X179925377Y-139526627D01*
X179831128Y-139417857D01*
X179831127Y-139417856D01*
X179831126Y-139417855D01*
X179710057Y-139340049D01*
X179710054Y-139340047D01*
X179710053Y-139340047D01*
X179710050Y-139340046D01*
X179571964Y-139299500D01*
X179571961Y-139299500D01*
X179428039Y-139299500D01*
X179428035Y-139299500D01*
X179289949Y-139340046D01*
X179289942Y-139340049D01*
X179168873Y-139417855D01*
X179074622Y-139526628D01*
X179014834Y-139657543D01*
X178994353Y-139799997D01*
X178994353Y-139800002D01*
X171473674Y-139800002D01*
X171471964Y-139799500D01*
X171471961Y-139799500D01*
X171328039Y-139799500D01*
X171328037Y-139799500D01*
X171328033Y-139799501D01*
X171228713Y-139828663D01*
X171167553Y-139826915D01*
X171119101Y-139789552D01*
X171101863Y-139730845D01*
X171102829Y-139719593D01*
X171105647Y-139700000D01*
X171104562Y-139692457D01*
X171085165Y-139557543D01*
X171046725Y-139473373D01*
X171025377Y-139426627D01*
X170931128Y-139317857D01*
X170931127Y-139317856D01*
X170931126Y-139317855D01*
X170810057Y-139240049D01*
X170810054Y-139240047D01*
X170810053Y-139240047D01*
X170810050Y-139240046D01*
X170673674Y-139200002D01*
X182994353Y-139200002D01*
X183014834Y-139342456D01*
X183053275Y-139426628D01*
X183074623Y-139473373D01*
X183147556Y-139557543D01*
X183168873Y-139582144D01*
X183286197Y-139657543D01*
X183289947Y-139659953D01*
X183396403Y-139691211D01*
X183428035Y-139700499D01*
X183428036Y-139700499D01*
X183428039Y-139700500D01*
X183428041Y-139700500D01*
X183571959Y-139700500D01*
X183571961Y-139700500D01*
X183710053Y-139659953D01*
X183831128Y-139582143D01*
X183925377Y-139473373D01*
X183985165Y-139342457D01*
X184005647Y-139200000D01*
X184005575Y-139199500D01*
X183985165Y-139057543D01*
X183925377Y-138926628D01*
X183925377Y-138926627D01*
X183831128Y-138817857D01*
X183831127Y-138817856D01*
X183831126Y-138817855D01*
X183710057Y-138740049D01*
X183710054Y-138740047D01*
X183710053Y-138740047D01*
X183710050Y-138740046D01*
X183571964Y-138699500D01*
X183571961Y-138699500D01*
X183428039Y-138699500D01*
X183428035Y-138699500D01*
X183289949Y-138740046D01*
X183289942Y-138740049D01*
X183168873Y-138817855D01*
X183074622Y-138926628D01*
X183014834Y-139057543D01*
X182994353Y-139199997D01*
X182994353Y-139200002D01*
X170673674Y-139200002D01*
X170671964Y-139199500D01*
X170671961Y-139199500D01*
X170528039Y-139199500D01*
X170528035Y-139199500D01*
X170389949Y-139240046D01*
X170389942Y-139240049D01*
X170268873Y-139317855D01*
X170174622Y-139426628D01*
X170114834Y-139557543D01*
X170094353Y-139699997D01*
X170094353Y-139700002D01*
X160981719Y-139700002D01*
X160985165Y-139692457D01*
X160991992Y-139644971D01*
X161005647Y-139550002D01*
X161005647Y-139549997D01*
X160985165Y-139407543D01*
X160954340Y-139340046D01*
X160925377Y-139276627D01*
X160831128Y-139167857D01*
X160831127Y-139167856D01*
X160831126Y-139167855D01*
X160710057Y-139090049D01*
X160710054Y-139090047D01*
X160710053Y-139090047D01*
X160710050Y-139090046D01*
X160571964Y-139049500D01*
X160571961Y-139049500D01*
X160428039Y-139049500D01*
X160428035Y-139049500D01*
X160289949Y-139090046D01*
X160289942Y-139090049D01*
X160168872Y-139167856D01*
X160164830Y-139171359D01*
X160108471Y-139195176D01*
X160048876Y-139181317D01*
X160035170Y-139171359D01*
X160031127Y-139167856D01*
X159910057Y-139090049D01*
X159910054Y-139090047D01*
X159910053Y-139090047D01*
X159910050Y-139090046D01*
X159771964Y-139049500D01*
X159771961Y-139049500D01*
X159628039Y-139049500D01*
X159628035Y-139049500D01*
X159489949Y-139090046D01*
X159489942Y-139090049D01*
X159368873Y-139167855D01*
X159274622Y-139276628D01*
X159214834Y-139407543D01*
X159194353Y-139549997D01*
X159194353Y-139550002D01*
X150500500Y-139550002D01*
X150500500Y-138913040D01*
X150519407Y-138854849D01*
X150568907Y-138818885D01*
X150630093Y-138818885D01*
X150679593Y-138854849D01*
X150681815Y-138858038D01*
X150748249Y-138957462D01*
X150748252Y-138957466D01*
X150887533Y-139096747D01*
X150887537Y-139096750D01*
X151051314Y-139206185D01*
X151051326Y-139206191D01*
X151233310Y-139281570D01*
X151426506Y-139319999D01*
X151426510Y-139320000D01*
X151674999Y-139320000D01*
X151675000Y-139319999D01*
X151675000Y-138620000D01*
X152175000Y-138620000D01*
X152175000Y-139319999D01*
X152175001Y-139320000D01*
X152423490Y-139320000D01*
X152423493Y-139319999D01*
X152616688Y-139281570D01*
X152616690Y-139281570D01*
X152798673Y-139206191D01*
X152798685Y-139206185D01*
X152962462Y-139096750D01*
X152962466Y-139096747D01*
X153101747Y-138957466D01*
X153101750Y-138957462D01*
X153211185Y-138793685D01*
X153211191Y-138793673D01*
X153286568Y-138611695D01*
X153286571Y-138611684D01*
X153294863Y-138570000D01*
X154585137Y-138570000D01*
X154593428Y-138611684D01*
X154593431Y-138611695D01*
X154668808Y-138793673D01*
X154668814Y-138793685D01*
X154778249Y-138957462D01*
X154778252Y-138957466D01*
X154917533Y-139096747D01*
X154917537Y-139096750D01*
X155081314Y-139206185D01*
X155081326Y-139206191D01*
X155263310Y-139281570D01*
X155456506Y-139319999D01*
X155456510Y-139320000D01*
X155854999Y-139320000D01*
X155855000Y-139319999D01*
X155855000Y-138620000D01*
X156355000Y-138620000D01*
X156355000Y-139319999D01*
X156355001Y-139320000D01*
X156753490Y-139320000D01*
X156753493Y-139319999D01*
X156946688Y-139281570D01*
X156946690Y-139281570D01*
X157128673Y-139206191D01*
X157128685Y-139206185D01*
X157292462Y-139096750D01*
X157292466Y-139096747D01*
X157431747Y-138957466D01*
X157431750Y-138957462D01*
X157541185Y-138793685D01*
X157541191Y-138793673D01*
X157616568Y-138611695D01*
X157616571Y-138611684D01*
X157624863Y-138570000D01*
X156821988Y-138570000D01*
X156839205Y-138560060D01*
X156895060Y-138504205D01*
X156934556Y-138435796D01*
X156955000Y-138359496D01*
X156955000Y-138280504D01*
X156934556Y-138204204D01*
X156895060Y-138135795D01*
X156839205Y-138079940D01*
X156821988Y-138070000D01*
X157624862Y-138070000D01*
X157616571Y-138028315D01*
X157616568Y-138028304D01*
X157541191Y-137846326D01*
X157541185Y-137846314D01*
X157431750Y-137682537D01*
X157431747Y-137682533D01*
X157292466Y-137543252D01*
X157292462Y-137543249D01*
X157128685Y-137433814D01*
X157128673Y-137433808D01*
X156946689Y-137358429D01*
X156753493Y-137320000D01*
X156355001Y-137320000D01*
X156355000Y-137320001D01*
X156355000Y-138020000D01*
X155855000Y-138020000D01*
X155855000Y-137282755D01*
X155873907Y-137224564D01*
X155883990Y-137212757D01*
X155945485Y-137151263D01*
X155996232Y-137063367D01*
X156001501Y-137054241D01*
X156001501Y-137054239D01*
X156001503Y-137054237D01*
X156030500Y-136946018D01*
X156030500Y-136833982D01*
X156001503Y-136725763D01*
X156001501Y-136725760D01*
X156001501Y-136725758D01*
X155945486Y-136628739D01*
X155945485Y-136628737D01*
X155866263Y-136549515D01*
X155866260Y-136549513D01*
X155769240Y-136493498D01*
X155769242Y-136493498D01*
X155727251Y-136482247D01*
X155661018Y-136464500D01*
X155548982Y-136464500D01*
X155482748Y-136482247D01*
X155440758Y-136493498D01*
X155343739Y-136549513D01*
X155264513Y-136628739D01*
X155208498Y-136725758D01*
X155200380Y-136756057D01*
X155179500Y-136833982D01*
X155179500Y-136946018D01*
X155197606Y-137013590D01*
X155208498Y-137054241D01*
X155258039Y-137140047D01*
X155264515Y-137151263D01*
X155306391Y-137193139D01*
X155334167Y-137247654D01*
X155324596Y-137308086D01*
X155281331Y-137351351D01*
X155265141Y-137357873D01*
X155263316Y-137358426D01*
X155081326Y-137433808D01*
X155081314Y-137433814D01*
X154917537Y-137543249D01*
X154917533Y-137543252D01*
X154778252Y-137682533D01*
X154778249Y-137682537D01*
X154668814Y-137846314D01*
X154668808Y-137846326D01*
X154593431Y-138028304D01*
X154593428Y-138028315D01*
X154585137Y-138070000D01*
X155388012Y-138070000D01*
X155370795Y-138079940D01*
X155314940Y-138135795D01*
X155275444Y-138204204D01*
X155255000Y-138280504D01*
X155255000Y-138359496D01*
X155275444Y-138435796D01*
X155314940Y-138504205D01*
X155370795Y-138560060D01*
X155388012Y-138570000D01*
X154585137Y-138570000D01*
X153294863Y-138570000D01*
X152491988Y-138570000D01*
X152509205Y-138560060D01*
X152565060Y-138504205D01*
X152604556Y-138435796D01*
X152625000Y-138359496D01*
X152625000Y-138280504D01*
X152604556Y-138204204D01*
X152565060Y-138135795D01*
X152509205Y-138079940D01*
X152491988Y-138070000D01*
X153294862Y-138070000D01*
X153286571Y-138028315D01*
X153286568Y-138028304D01*
X153211191Y-137846326D01*
X153211185Y-137846314D01*
X153101750Y-137682537D01*
X153101747Y-137682533D01*
X152962466Y-137543252D01*
X152962462Y-137543249D01*
X152798685Y-137433814D01*
X152798673Y-137433808D01*
X152616689Y-137358429D01*
X152423493Y-137320000D01*
X152175001Y-137320000D01*
X152175000Y-137320001D01*
X152175000Y-138020000D01*
X151675000Y-138020000D01*
X151675000Y-137320001D01*
X151674999Y-137320000D01*
X151426506Y-137320000D01*
X151233311Y-137358429D01*
X151233309Y-137358429D01*
X151051326Y-137433808D01*
X151051314Y-137433814D01*
X150887537Y-137543249D01*
X150887533Y-137543252D01*
X150748248Y-137682537D01*
X150681815Y-137781961D01*
X150633765Y-137819840D01*
X150572626Y-137822242D01*
X150521753Y-137788248D01*
X150500576Y-137730845D01*
X150500500Y-137726959D01*
X150500500Y-136400000D01*
X156174353Y-136400000D01*
X156178181Y-136426627D01*
X156178492Y-136428786D01*
X156179500Y-136442876D01*
X156179500Y-136465893D01*
X156187310Y-136495042D01*
X156189675Y-136506572D01*
X156194835Y-136542457D01*
X156203937Y-136562388D01*
X156209506Y-136577881D01*
X156213608Y-136593186D01*
X156232277Y-136625523D01*
X156236592Y-136633893D01*
X156254622Y-136673373D01*
X156264259Y-136684494D01*
X156275172Y-136699820D01*
X156279497Y-136707310D01*
X156279498Y-136707311D01*
X156279500Y-136707314D01*
X156296884Y-136724698D01*
X156310961Y-136738775D01*
X156315764Y-136743934D01*
X156348872Y-136782143D01*
X156355186Y-136786201D01*
X156371662Y-136799476D01*
X156372686Y-136800500D01*
X156413256Y-136823923D01*
X156417392Y-136826311D01*
X156421414Y-136828763D01*
X156469942Y-136859950D01*
X156469947Y-136859953D01*
X156470046Y-136859982D01*
X156470215Y-136860032D01*
X156480584Y-136864474D01*
X156480819Y-136863909D01*
X156486809Y-136866389D01*
X156486814Y-136866392D01*
X156543579Y-136881601D01*
X156545813Y-136882228D01*
X156546112Y-136882316D01*
X156608033Y-136900499D01*
X156608038Y-136900499D01*
X156608039Y-136900500D01*
X156608040Y-136900500D01*
X157465890Y-136900500D01*
X157465892Y-136900500D01*
X157593186Y-136866392D01*
X157593188Y-136866390D01*
X157593190Y-136866390D01*
X157707309Y-136800503D01*
X157707309Y-136800502D01*
X157707314Y-136800500D01*
X159729996Y-134777816D01*
X159784513Y-134750040D01*
X159844945Y-134759611D01*
X159870004Y-134777817D01*
X160095504Y-135003317D01*
X160123281Y-135057834D01*
X160124500Y-135073321D01*
X160124500Y-136557122D01*
X160123492Y-136571211D01*
X160119353Y-136599998D01*
X160119353Y-136600001D01*
X160123492Y-136628786D01*
X160124500Y-136642876D01*
X160124500Y-136665893D01*
X160132310Y-136695042D01*
X160134675Y-136706572D01*
X160139835Y-136742457D01*
X160148937Y-136762388D01*
X160154506Y-136777881D01*
X160156736Y-136786199D01*
X160158608Y-136793186D01*
X160177277Y-136825523D01*
X160181592Y-136833893D01*
X160199622Y-136873373D01*
X160209259Y-136884494D01*
X160220172Y-136899820D01*
X160224497Y-136907310D01*
X160224498Y-136907311D01*
X160224500Y-136907314D01*
X160255961Y-136938775D01*
X160260764Y-136943934D01*
X160293872Y-136982143D01*
X160300186Y-136986201D01*
X160316662Y-136999476D01*
X160317686Y-137000500D01*
X160358256Y-137023923D01*
X160362392Y-137026311D01*
X160366414Y-137028763D01*
X160406059Y-137054241D01*
X160414947Y-137059953D01*
X160415046Y-137059982D01*
X160415215Y-137060032D01*
X160425584Y-137064474D01*
X160425819Y-137063909D01*
X160431809Y-137066389D01*
X160431814Y-137066392D01*
X160488579Y-137081601D01*
X160490813Y-137082228D01*
X160501814Y-137085458D01*
X160553033Y-137100499D01*
X160553038Y-137100499D01*
X160553039Y-137100500D01*
X160559108Y-137100500D01*
X162976678Y-137100500D01*
X163034869Y-137119407D01*
X163046682Y-137129496D01*
X163355961Y-137438775D01*
X163360777Y-137443949D01*
X163393871Y-137482142D01*
X163393872Y-137482143D01*
X163400183Y-137486199D01*
X163416666Y-137499480D01*
X163824500Y-137907314D01*
X163824499Y-137907314D01*
X163917685Y-138000499D01*
X163917690Y-138000503D01*
X164031810Y-138066390D01*
X164031808Y-138066390D01*
X164031812Y-138066391D01*
X164031814Y-138066392D01*
X164159108Y-138100500D01*
X164159110Y-138100500D01*
X166671958Y-138100500D01*
X166671961Y-138100500D01*
X166734190Y-138082227D01*
X166736393Y-138081608D01*
X166793186Y-138066392D01*
X166793192Y-138066388D01*
X166799188Y-138063906D01*
X166799424Y-138064476D01*
X166809792Y-138060029D01*
X166810053Y-138059953D01*
X166858605Y-138028749D01*
X166862580Y-138026326D01*
X166907314Y-138000500D01*
X166908326Y-137999487D01*
X166924808Y-137986203D01*
X166931128Y-137982143D01*
X166964236Y-137943932D01*
X166969025Y-137938787D01*
X167000500Y-137907314D01*
X167004720Y-137900002D01*
X174194353Y-137900002D01*
X174214834Y-138042456D01*
X174270321Y-138163954D01*
X174274623Y-138173373D01*
X174367452Y-138280504D01*
X174368873Y-138282144D01*
X174468936Y-138346450D01*
X174489947Y-138359953D01*
X174596403Y-138391211D01*
X174628035Y-138400499D01*
X174628036Y-138400499D01*
X174628039Y-138400500D01*
X174628041Y-138400500D01*
X174771959Y-138400500D01*
X174771961Y-138400500D01*
X174910053Y-138359953D01*
X175031128Y-138282143D01*
X175125377Y-138173373D01*
X175185165Y-138042457D01*
X175199714Y-137941267D01*
X175205647Y-137900002D01*
X175205647Y-137899997D01*
X175185519Y-137760003D01*
X191644417Y-137760003D01*
X191664698Y-137965929D01*
X191664699Y-137965934D01*
X191724768Y-138163954D01*
X191822316Y-138346452D01*
X191866672Y-138400500D01*
X191953590Y-138506410D01*
X191953595Y-138506414D01*
X192113547Y-138637683D01*
X192113548Y-138637683D01*
X192113550Y-138637685D01*
X192296046Y-138735232D01*
X192433997Y-138777078D01*
X192494065Y-138795300D01*
X192494070Y-138795301D01*
X192699997Y-138815583D01*
X192700000Y-138815583D01*
X192700003Y-138815583D01*
X192905929Y-138795301D01*
X192905934Y-138795300D01*
X192911258Y-138793685D01*
X193103954Y-138735232D01*
X193286450Y-138637685D01*
X193446410Y-138506410D01*
X193577685Y-138346450D01*
X193675232Y-138163954D01*
X193735300Y-137965934D01*
X193735301Y-137965929D01*
X193755583Y-137760003D01*
X193755583Y-137759996D01*
X193735301Y-137554070D01*
X193735300Y-137554065D01*
X193701083Y-137441267D01*
X193675232Y-137356046D01*
X193577685Y-137173550D01*
X193576833Y-137172512D01*
X193446414Y-137013595D01*
X193446410Y-137013590D01*
X193413034Y-136986199D01*
X193286452Y-136882316D01*
X193103954Y-136784768D01*
X192905934Y-136724699D01*
X192905929Y-136724698D01*
X192700003Y-136704417D01*
X192699997Y-136704417D01*
X192494070Y-136724698D01*
X192494065Y-136724699D01*
X192296045Y-136784768D01*
X192113547Y-136882316D01*
X191953595Y-137013585D01*
X191953585Y-137013595D01*
X191822316Y-137173547D01*
X191724768Y-137356045D01*
X191664699Y-137554065D01*
X191664698Y-137554070D01*
X191644417Y-137759996D01*
X191644417Y-137760003D01*
X175185519Y-137760003D01*
X175185165Y-137757543D01*
X175172972Y-137730845D01*
X175125377Y-137626627D01*
X175031128Y-137517857D01*
X175031127Y-137517856D01*
X175031126Y-137517855D01*
X174910057Y-137440049D01*
X174910054Y-137440047D01*
X174910053Y-137440047D01*
X174901791Y-137437621D01*
X174771964Y-137399500D01*
X174771961Y-137399500D01*
X174628039Y-137399500D01*
X174628035Y-137399500D01*
X174489949Y-137440046D01*
X174489942Y-137440049D01*
X174368873Y-137517855D01*
X174274622Y-137626628D01*
X174214834Y-137757543D01*
X174194353Y-137899997D01*
X174194353Y-137900002D01*
X167004720Y-137900002D01*
X167004818Y-137899833D01*
X167015744Y-137884489D01*
X167025377Y-137873373D01*
X167043412Y-137833880D01*
X167047713Y-137825537D01*
X167066392Y-137793186D01*
X167070491Y-137777885D01*
X167076064Y-137762383D01*
X167077151Y-137760003D01*
X167085165Y-137742457D01*
X167090326Y-137706557D01*
X167092683Y-137695061D01*
X167100500Y-137665892D01*
X167100500Y-137642876D01*
X167101508Y-137628786D01*
X167101819Y-137626627D01*
X167105647Y-137600000D01*
X167101508Y-137571211D01*
X167100500Y-137557122D01*
X167100500Y-137534109D01*
X167100500Y-137534108D01*
X167092688Y-137504953D01*
X167090324Y-137493431D01*
X167085165Y-137457543D01*
X167076058Y-137437603D01*
X167070489Y-137422106D01*
X167066394Y-137406819D01*
X167066391Y-137406813D01*
X167047720Y-137374472D01*
X167043404Y-137366099D01*
X167025377Y-137326627D01*
X167019635Y-137320001D01*
X167015741Y-137315506D01*
X167004823Y-137300174D01*
X167000500Y-137292686D01*
X166969044Y-137261230D01*
X166964230Y-137256058D01*
X166931129Y-137217858D01*
X166931127Y-137217856D01*
X166924807Y-137213794D01*
X166908338Y-137200523D01*
X166907318Y-137199503D01*
X166907309Y-137199496D01*
X166862613Y-137173691D01*
X166858589Y-137171239D01*
X166810054Y-137140047D01*
X166809770Y-137139964D01*
X166799408Y-137135528D01*
X166799176Y-137136089D01*
X166793187Y-137133608D01*
X166736421Y-137118398D01*
X166734153Y-137117761D01*
X166671964Y-137099500D01*
X166671961Y-137099500D01*
X166665892Y-137099500D01*
X164473322Y-137099500D01*
X164415131Y-137080593D01*
X164403318Y-137070504D01*
X164094044Y-136761230D01*
X164089229Y-136756057D01*
X164056129Y-136717858D01*
X164056127Y-136717856D01*
X164049810Y-136713796D01*
X164033332Y-136700518D01*
X164032816Y-136700002D01*
X180194353Y-136700002D01*
X180214834Y-136842456D01*
X180261184Y-136943947D01*
X180274623Y-136973373D01*
X180353562Y-137064474D01*
X180368873Y-137082144D01*
X180476420Y-137151260D01*
X180489947Y-137159953D01*
X180596403Y-137191211D01*
X180628035Y-137200499D01*
X180628036Y-137200499D01*
X180628039Y-137200500D01*
X180628041Y-137200500D01*
X180771959Y-137200500D01*
X180771961Y-137200500D01*
X180910053Y-137159953D01*
X181031128Y-137082143D01*
X181125377Y-136973373D01*
X181185165Y-136842457D01*
X181197587Y-136756057D01*
X181205647Y-136700002D01*
X181205647Y-136699997D01*
X181185165Y-136557543D01*
X181167827Y-136519578D01*
X181160852Y-136458791D01*
X181190938Y-136405514D01*
X181229986Y-136383462D01*
X181310053Y-136359953D01*
X181431128Y-136282143D01*
X181525377Y-136173373D01*
X181585165Y-136042457D01*
X181595052Y-135973688D01*
X181605647Y-135900002D01*
X181605647Y-135899997D01*
X181585165Y-135757543D01*
X181559114Y-135700500D01*
X181525377Y-135626627D01*
X181431128Y-135517857D01*
X181431127Y-135517856D01*
X181431126Y-135517855D01*
X181310057Y-135440049D01*
X181310054Y-135440047D01*
X181310053Y-135440047D01*
X181310050Y-135440046D01*
X181171964Y-135399500D01*
X181171961Y-135399500D01*
X181028039Y-135399500D01*
X181028035Y-135399500D01*
X180889949Y-135440046D01*
X180889942Y-135440049D01*
X180768873Y-135517855D01*
X180674622Y-135626628D01*
X180614834Y-135757543D01*
X180594353Y-135899997D01*
X180594353Y-135900002D01*
X180614833Y-136042454D01*
X180632173Y-136080422D01*
X180639147Y-136141209D01*
X180609060Y-136194485D01*
X180570011Y-136216538D01*
X180489947Y-136240047D01*
X180489942Y-136240049D01*
X180368873Y-136317855D01*
X180274622Y-136426628D01*
X180214834Y-136557543D01*
X180194353Y-136699997D01*
X180194353Y-136700002D01*
X164032816Y-136700002D01*
X164032314Y-136699500D01*
X163791605Y-136458791D01*
X163532314Y-136199500D01*
X163532311Y-136199498D01*
X163532310Y-136199497D01*
X163532309Y-136199496D01*
X163418189Y-136133609D01*
X163418191Y-136133609D01*
X163350590Y-136115496D01*
X163290892Y-136099500D01*
X163290890Y-136099500D01*
X161224500Y-136099500D01*
X161166309Y-136080593D01*
X161130345Y-136031093D01*
X161125500Y-136000500D01*
X161125500Y-135400002D01*
X162594353Y-135400002D01*
X162614834Y-135542456D01*
X162653275Y-135626628D01*
X162674623Y-135673373D01*
X162747556Y-135757543D01*
X162768873Y-135782144D01*
X162849731Y-135834108D01*
X162889947Y-135859953D01*
X162996403Y-135891211D01*
X163028035Y-135900499D01*
X163028036Y-135900499D01*
X163028039Y-135900500D01*
X163028041Y-135900500D01*
X163171959Y-135900500D01*
X163171961Y-135900500D01*
X163310053Y-135859953D01*
X163431128Y-135782143D01*
X163525377Y-135673373D01*
X163585165Y-135542457D01*
X163599889Y-135440046D01*
X163605647Y-135400002D01*
X163605647Y-135399997D01*
X163585165Y-135257543D01*
X163559114Y-135200500D01*
X163525377Y-135126627D01*
X163431128Y-135017857D01*
X163431127Y-135017856D01*
X163431126Y-135017855D01*
X163310057Y-134940049D01*
X163310054Y-134940047D01*
X163310053Y-134940047D01*
X163310050Y-134940046D01*
X163171964Y-134899500D01*
X163171961Y-134899500D01*
X163028039Y-134899500D01*
X163028035Y-134899500D01*
X162889949Y-134940046D01*
X162889942Y-134940049D01*
X162768873Y-135017855D01*
X162674622Y-135126628D01*
X162614834Y-135257543D01*
X162594353Y-135399997D01*
X162594353Y-135400002D01*
X161125500Y-135400002D01*
X161125500Y-134800002D01*
X166794353Y-134800002D01*
X166814834Y-134942456D01*
X166867526Y-135057834D01*
X166874623Y-135073373D01*
X166968872Y-135182143D01*
X166968873Y-135182144D01*
X167027783Y-135220003D01*
X167089947Y-135259953D01*
X167196403Y-135291211D01*
X167228035Y-135300499D01*
X167228036Y-135300499D01*
X167228039Y-135300500D01*
X167228041Y-135300500D01*
X167371959Y-135300500D01*
X167371961Y-135300500D01*
X167510053Y-135259953D01*
X167603339Y-135200002D01*
X169294353Y-135200002D01*
X169314834Y-135342456D01*
X169340886Y-135399500D01*
X169374623Y-135473373D01*
X169468872Y-135582143D01*
X169468873Y-135582144D01*
X169538092Y-135626628D01*
X169589947Y-135659953D01*
X169696403Y-135691211D01*
X169728035Y-135700499D01*
X169728036Y-135700499D01*
X169728039Y-135700500D01*
X169728041Y-135700500D01*
X169871959Y-135700500D01*
X169871961Y-135700500D01*
X170010053Y-135659953D01*
X170131128Y-135582143D01*
X170225377Y-135473373D01*
X170285165Y-135342457D01*
X170302771Y-135220003D01*
X191644417Y-135220003D01*
X191664698Y-135425929D01*
X191664699Y-135425934D01*
X191724768Y-135623954D01*
X191822316Y-135806452D01*
X191931955Y-135940048D01*
X191953590Y-135966410D01*
X191953595Y-135966414D01*
X192113547Y-136097683D01*
X192113548Y-136097683D01*
X192113550Y-136097685D01*
X192296046Y-136195232D01*
X192410979Y-136230096D01*
X192494065Y-136255300D01*
X192494070Y-136255301D01*
X192699997Y-136275583D01*
X192700000Y-136275583D01*
X192700003Y-136275583D01*
X192905929Y-136255301D01*
X192905934Y-136255300D01*
X192956210Y-136240049D01*
X193103954Y-136195232D01*
X193286450Y-136097685D01*
X193446410Y-135966410D01*
X193577685Y-135806450D01*
X193675232Y-135623954D01*
X193735300Y-135425934D01*
X193735301Y-135425929D01*
X193755583Y-135220003D01*
X193755583Y-135219996D01*
X193735301Y-135014070D01*
X193735300Y-135014065D01*
X193712847Y-134940047D01*
X193675232Y-134816046D01*
X193577685Y-134633550D01*
X193576261Y-134631815D01*
X193446414Y-134473595D01*
X193446410Y-134473590D01*
X193408473Y-134442456D01*
X193286452Y-134342316D01*
X193103954Y-134244768D01*
X192905934Y-134184699D01*
X192905929Y-134184698D01*
X192700003Y-134164417D01*
X192699997Y-134164417D01*
X192494070Y-134184698D01*
X192494065Y-134184699D01*
X192296045Y-134244768D01*
X192113547Y-134342316D01*
X191953595Y-134473585D01*
X191953585Y-134473595D01*
X191822316Y-134633547D01*
X191724768Y-134816045D01*
X191664699Y-135014065D01*
X191664698Y-135014070D01*
X191644417Y-135219996D01*
X191644417Y-135220003D01*
X170302771Y-135220003D01*
X170305647Y-135200002D01*
X170305647Y-135199997D01*
X170285165Y-135057543D01*
X170265309Y-135014065D01*
X170225377Y-134926627D01*
X170131128Y-134817857D01*
X170131127Y-134817856D01*
X170131126Y-134817855D01*
X170010057Y-134740049D01*
X170010054Y-134740047D01*
X170010053Y-134740047D01*
X170010050Y-134740046D01*
X169871964Y-134699500D01*
X169871961Y-134699500D01*
X169728039Y-134699500D01*
X169728035Y-134699500D01*
X169589949Y-134740046D01*
X169589942Y-134740049D01*
X169468873Y-134817855D01*
X169374622Y-134926628D01*
X169314834Y-135057543D01*
X169294353Y-135199997D01*
X169294353Y-135200002D01*
X167603339Y-135200002D01*
X167631128Y-135182143D01*
X167725377Y-135073373D01*
X167785165Y-134942457D01*
X167805575Y-134800500D01*
X167805647Y-134800002D01*
X167805647Y-134799997D01*
X167785165Y-134657543D01*
X167750731Y-134582144D01*
X167725377Y-134526627D01*
X167631128Y-134417857D01*
X167631127Y-134417856D01*
X167631126Y-134417855D01*
X167510057Y-134340049D01*
X167510054Y-134340047D01*
X167510053Y-134340047D01*
X167510050Y-134340046D01*
X167373674Y-134300002D01*
X171194353Y-134300002D01*
X171214834Y-134442456D01*
X171274622Y-134573371D01*
X171274623Y-134573373D01*
X171368871Y-134682142D01*
X171368872Y-134682143D01*
X171458975Y-134740049D01*
X171489947Y-134759953D01*
X171596403Y-134791211D01*
X171628035Y-134800499D01*
X171628036Y-134800499D01*
X171628039Y-134800500D01*
X171628041Y-134800500D01*
X171771959Y-134800500D01*
X171771961Y-134800500D01*
X171910053Y-134759953D01*
X172003339Y-134700002D01*
X181194353Y-134700002D01*
X181214834Y-134842456D01*
X181260504Y-134942457D01*
X181274623Y-134973373D01*
X181361228Y-135073321D01*
X181368873Y-135082144D01*
X181438092Y-135126628D01*
X181489947Y-135159953D01*
X181596403Y-135191211D01*
X181628035Y-135200499D01*
X181628036Y-135200499D01*
X181628039Y-135200500D01*
X181628041Y-135200500D01*
X181771959Y-135200500D01*
X181771961Y-135200500D01*
X181910053Y-135159953D01*
X182031128Y-135082143D01*
X182125377Y-134973373D01*
X182185165Y-134842457D01*
X182197149Y-134759108D01*
X182205647Y-134700002D01*
X182205647Y-134699997D01*
X182185165Y-134557543D01*
X182146827Y-134473595D01*
X182125377Y-134426627D01*
X182031128Y-134317857D01*
X182031127Y-134317856D01*
X182031126Y-134317855D01*
X181910057Y-134240049D01*
X181910054Y-134240047D01*
X181910053Y-134240047D01*
X181910050Y-134240046D01*
X181773674Y-134200002D01*
X185794353Y-134200002D01*
X185814834Y-134342456D01*
X185860504Y-134442457D01*
X185874623Y-134473373D01*
X185947556Y-134557543D01*
X185968873Y-134582144D01*
X186046163Y-134631815D01*
X186089947Y-134659953D01*
X186196403Y-134691211D01*
X186228035Y-134700499D01*
X186228036Y-134700499D01*
X186228039Y-134700500D01*
X186228041Y-134700500D01*
X186371959Y-134700500D01*
X186371961Y-134700500D01*
X186510053Y-134659953D01*
X186631128Y-134582143D01*
X186725377Y-134473373D01*
X186785165Y-134342457D01*
X186791992Y-134294971D01*
X186805647Y-134200002D01*
X186805647Y-134199997D01*
X186785165Y-134057543D01*
X186725377Y-133926628D01*
X186725377Y-133926627D01*
X186666179Y-133858308D01*
X186642363Y-133801950D01*
X186656222Y-133742355D01*
X186687475Y-133710196D01*
X186731128Y-133682143D01*
X186825377Y-133573373D01*
X186885165Y-133442457D01*
X186905647Y-133300000D01*
X186905575Y-133299500D01*
X186885165Y-133157543D01*
X186859114Y-133100500D01*
X186825377Y-133026627D01*
X186731128Y-132917857D01*
X186731127Y-132917856D01*
X186731126Y-132917855D01*
X186610057Y-132840049D01*
X186610054Y-132840047D01*
X186610053Y-132840047D01*
X186610050Y-132840046D01*
X186471964Y-132799500D01*
X186471961Y-132799500D01*
X186328039Y-132799500D01*
X186328035Y-132799500D01*
X186189949Y-132840046D01*
X186189942Y-132840049D01*
X186068873Y-132917855D01*
X185974622Y-133026628D01*
X185914834Y-133157543D01*
X185894353Y-133299997D01*
X185894353Y-133300002D01*
X185914834Y-133442456D01*
X185967458Y-133557685D01*
X185974623Y-133573373D01*
X186027250Y-133634108D01*
X186033819Y-133641689D01*
X186057636Y-133698049D01*
X186043777Y-133757644D01*
X186012523Y-133789804D01*
X185968872Y-133817857D01*
X185874622Y-133926628D01*
X185814834Y-134057543D01*
X185794353Y-134199997D01*
X185794353Y-134200002D01*
X181773674Y-134200002D01*
X181771964Y-134199500D01*
X181771961Y-134199500D01*
X181628039Y-134199500D01*
X181628035Y-134199500D01*
X181489949Y-134240046D01*
X181489942Y-134240049D01*
X181368873Y-134317855D01*
X181274622Y-134426628D01*
X181214834Y-134557543D01*
X181194353Y-134699997D01*
X181194353Y-134700002D01*
X172003339Y-134700002D01*
X172031128Y-134682143D01*
X172125377Y-134573373D01*
X172185165Y-134442457D01*
X172205647Y-134300000D01*
X172205575Y-134299500D01*
X172185165Y-134157543D01*
X172125377Y-134026628D01*
X172125377Y-134026627D01*
X172031128Y-133917857D01*
X172031127Y-133917856D01*
X172031126Y-133917855D01*
X171910057Y-133840049D01*
X171910054Y-133840047D01*
X171910053Y-133840047D01*
X171891206Y-133834513D01*
X171771964Y-133799500D01*
X171771961Y-133799500D01*
X171628039Y-133799500D01*
X171628035Y-133799500D01*
X171489949Y-133840046D01*
X171489942Y-133840049D01*
X171368873Y-133917855D01*
X171274622Y-134026628D01*
X171214834Y-134157543D01*
X171194353Y-134299997D01*
X171194353Y-134300002D01*
X167373674Y-134300002D01*
X167371964Y-134299500D01*
X167371961Y-134299500D01*
X167228039Y-134299500D01*
X167228035Y-134299500D01*
X167089949Y-134340046D01*
X167089942Y-134340049D01*
X166968873Y-134417855D01*
X166874622Y-134526628D01*
X166814834Y-134657543D01*
X166794353Y-134799997D01*
X166794353Y-134800002D01*
X161125500Y-134800002D01*
X161125500Y-134759108D01*
X161104877Y-134682143D01*
X161104877Y-134682142D01*
X161091392Y-134631815D01*
X161091391Y-134631812D01*
X161089219Y-134628050D01*
X161025500Y-134517686D01*
X160932314Y-134424500D01*
X160932311Y-134424498D01*
X160329496Y-133821682D01*
X160301719Y-133767165D01*
X160300500Y-133751678D01*
X160300500Y-133634109D01*
X160284226Y-133573373D01*
X160266392Y-133506814D01*
X160266390Y-133506811D01*
X160266390Y-133506809D01*
X160200503Y-133392690D01*
X160200499Y-133392685D01*
X160107314Y-133299499D01*
X160107314Y-133299500D01*
X159307816Y-132500002D01*
X171294353Y-132500002D01*
X171314834Y-132642456D01*
X171360504Y-132742457D01*
X171374623Y-132773373D01*
X171432395Y-132840046D01*
X171468873Y-132882144D01*
X171524441Y-132917855D01*
X171589947Y-132959953D01*
X171696403Y-132991211D01*
X171728035Y-133000499D01*
X171728036Y-133000499D01*
X171728039Y-133000500D01*
X171728041Y-133000500D01*
X171871959Y-133000500D01*
X171871961Y-133000500D01*
X171873657Y-133000002D01*
X177594353Y-133000002D01*
X177614834Y-133142456D01*
X177671461Y-133266450D01*
X177674623Y-133273373D01*
X177768872Y-133382143D01*
X177768873Y-133382144D01*
X177889942Y-133459950D01*
X177889947Y-133459953D01*
X177996403Y-133491211D01*
X178028035Y-133500499D01*
X178028036Y-133500499D01*
X178028039Y-133500500D01*
X178028041Y-133500500D01*
X178171959Y-133500500D01*
X178171961Y-133500500D01*
X178310053Y-133459953D01*
X178431128Y-133382143D01*
X178525377Y-133273373D01*
X178585165Y-133142457D01*
X178605575Y-133000500D01*
X178605647Y-133000002D01*
X178605647Y-132999997D01*
X178585165Y-132857543D01*
X178546725Y-132773373D01*
X178525377Y-132726627D01*
X178431128Y-132617857D01*
X178431127Y-132617856D01*
X178431126Y-132617855D01*
X178403346Y-132600002D01*
X181394353Y-132600002D01*
X181414834Y-132742456D01*
X181474622Y-132873371D01*
X181474623Y-132873373D01*
X181568872Y-132982143D01*
X181568873Y-132982144D01*
X181638092Y-133026628D01*
X181689947Y-133059953D01*
X181771688Y-133083954D01*
X181828035Y-133100499D01*
X181828036Y-133100499D01*
X181828039Y-133100500D01*
X181828041Y-133100500D01*
X181971959Y-133100500D01*
X181971961Y-133100500D01*
X182110053Y-133059953D01*
X182231128Y-132982143D01*
X182325377Y-132873373D01*
X182385165Y-132742457D01*
X182394144Y-132680003D01*
X191644417Y-132680003D01*
X191664698Y-132885929D01*
X191664699Y-132885934D01*
X191724768Y-133083954D01*
X191822316Y-133266452D01*
X191925917Y-133392690D01*
X191953590Y-133426410D01*
X191953595Y-133426414D01*
X192113547Y-133557683D01*
X192113548Y-133557683D01*
X192113550Y-133557685D01*
X192296046Y-133655232D01*
X192433997Y-133697078D01*
X192494065Y-133715300D01*
X192494070Y-133715301D01*
X192699997Y-133735583D01*
X192700000Y-133735583D01*
X192700003Y-133735583D01*
X192905929Y-133715301D01*
X192905934Y-133715300D01*
X192922766Y-133710194D01*
X193103954Y-133655232D01*
X193286450Y-133557685D01*
X193446410Y-133426410D01*
X193577685Y-133266450D01*
X193675232Y-133083954D01*
X193735300Y-132885934D01*
X193735301Y-132885929D01*
X193755583Y-132680003D01*
X193755583Y-132679996D01*
X193735301Y-132474070D01*
X193735300Y-132474065D01*
X193712984Y-132400499D01*
X193675232Y-132276046D01*
X193577685Y-132093550D01*
X193535754Y-132042457D01*
X193446414Y-131933595D01*
X193446410Y-131933590D01*
X193446404Y-131933585D01*
X193286452Y-131802316D01*
X193103954Y-131704768D01*
X192905934Y-131644699D01*
X192905929Y-131644698D01*
X192700003Y-131624417D01*
X192699997Y-131624417D01*
X192494070Y-131644698D01*
X192494065Y-131644699D01*
X192296045Y-131704768D01*
X192113547Y-131802316D01*
X191953595Y-131933585D01*
X191953585Y-131933595D01*
X191822316Y-132093547D01*
X191724768Y-132276045D01*
X191664699Y-132474065D01*
X191664698Y-132474070D01*
X191644417Y-132679996D01*
X191644417Y-132680003D01*
X182394144Y-132680003D01*
X182405647Y-132600000D01*
X182397027Y-132540049D01*
X182385165Y-132457543D01*
X182359114Y-132400500D01*
X182325377Y-132326627D01*
X182231128Y-132217857D01*
X182231127Y-132217856D01*
X182231126Y-132217855D01*
X182110057Y-132140049D01*
X182110054Y-132140047D01*
X182110053Y-132140047D01*
X182110050Y-132140046D01*
X181971964Y-132099500D01*
X181971961Y-132099500D01*
X181828039Y-132099500D01*
X181828035Y-132099500D01*
X181689949Y-132140046D01*
X181689942Y-132140049D01*
X181568873Y-132217855D01*
X181474622Y-132326628D01*
X181414834Y-132457543D01*
X181394353Y-132599997D01*
X181394353Y-132600002D01*
X178403346Y-132600002D01*
X178310057Y-132540049D01*
X178310054Y-132540047D01*
X178310053Y-132540047D01*
X178310050Y-132540046D01*
X178171964Y-132499500D01*
X178171961Y-132499500D01*
X178028039Y-132499500D01*
X178028035Y-132499500D01*
X177889949Y-132540046D01*
X177889942Y-132540049D01*
X177768873Y-132617855D01*
X177674622Y-132726628D01*
X177614834Y-132857543D01*
X177594353Y-132999997D01*
X177594353Y-133000002D01*
X171873657Y-133000002D01*
X172010053Y-132959953D01*
X172131128Y-132882143D01*
X172225377Y-132773373D01*
X172285165Y-132642457D01*
X172305647Y-132500000D01*
X172305575Y-132499500D01*
X172285165Y-132357543D01*
X172250731Y-132282144D01*
X172225377Y-132226627D01*
X172131128Y-132117857D01*
X172131127Y-132117856D01*
X172131126Y-132117855D01*
X172010057Y-132040049D01*
X172010054Y-132040047D01*
X172010053Y-132040047D01*
X172010050Y-132040046D01*
X171871964Y-131999500D01*
X171871961Y-131999500D01*
X171728039Y-131999500D01*
X171728035Y-131999500D01*
X171589949Y-132040046D01*
X171589942Y-132040049D01*
X171468873Y-132117855D01*
X171374622Y-132226628D01*
X171314834Y-132357543D01*
X171294353Y-132499997D01*
X171294353Y-132500002D01*
X159307816Y-132500002D01*
X158707816Y-131900002D01*
X174894353Y-131900002D01*
X174914834Y-132042456D01*
X174959403Y-132140046D01*
X174974623Y-132173373D01*
X175063588Y-132276045D01*
X175068873Y-132282144D01*
X175138092Y-132326628D01*
X175189947Y-132359953D01*
X175296403Y-132391211D01*
X175328035Y-132400499D01*
X175328036Y-132400499D01*
X175328039Y-132400500D01*
X175328041Y-132400500D01*
X175471959Y-132400500D01*
X175471961Y-132400500D01*
X175610053Y-132359953D01*
X175731128Y-132282143D01*
X175775181Y-132231302D01*
X175827576Y-132199707D01*
X175888537Y-132204942D01*
X175924817Y-132231301D01*
X175963588Y-132276045D01*
X175968873Y-132282144D01*
X176038092Y-132326628D01*
X176089947Y-132359953D01*
X176196403Y-132391211D01*
X176228035Y-132400499D01*
X176228036Y-132400499D01*
X176228039Y-132400500D01*
X176228041Y-132400500D01*
X176371959Y-132400500D01*
X176371961Y-132400500D01*
X176510053Y-132359953D01*
X176631128Y-132282143D01*
X176725377Y-132173373D01*
X176785165Y-132042457D01*
X176793837Y-131982143D01*
X176805647Y-131900002D01*
X176805647Y-131899997D01*
X176785165Y-131757543D01*
X176743309Y-131665892D01*
X176725377Y-131626627D01*
X176631128Y-131517857D01*
X176631127Y-131517856D01*
X176631126Y-131517855D01*
X176510057Y-131440049D01*
X176510054Y-131440047D01*
X176510053Y-131440047D01*
X176510050Y-131440046D01*
X176371964Y-131399500D01*
X176371961Y-131399500D01*
X176228039Y-131399500D01*
X176228035Y-131399500D01*
X176089949Y-131440046D01*
X176089942Y-131440049D01*
X175968872Y-131517856D01*
X175968870Y-131517858D01*
X175924819Y-131568696D01*
X175872423Y-131600292D01*
X175811462Y-131595056D01*
X175775181Y-131568696D01*
X175731129Y-131517858D01*
X175731127Y-131517856D01*
X175610057Y-131440049D01*
X175610054Y-131440047D01*
X175610053Y-131440047D01*
X175610050Y-131440046D01*
X175471964Y-131399500D01*
X175471961Y-131399500D01*
X175328039Y-131399500D01*
X175328035Y-131399500D01*
X175189949Y-131440046D01*
X175189942Y-131440049D01*
X175068873Y-131517855D01*
X174974622Y-131626628D01*
X174914834Y-131757543D01*
X174894353Y-131899997D01*
X174894353Y-131900002D01*
X158707816Y-131900002D01*
X158069044Y-131261230D01*
X158064229Y-131256057D01*
X158031129Y-131217858D01*
X158031127Y-131217856D01*
X158024807Y-131213794D01*
X158008338Y-131200523D01*
X158007318Y-131199503D01*
X158007309Y-131199496D01*
X157962613Y-131173691D01*
X157958589Y-131171239D01*
X157958587Y-131171238D01*
X157950462Y-131166016D01*
X157910054Y-131140047D01*
X157909770Y-131139964D01*
X157899408Y-131135528D01*
X157899176Y-131136089D01*
X157893187Y-131133608D01*
X157836421Y-131118398D01*
X157834153Y-131117761D01*
X157771964Y-131099500D01*
X157771961Y-131099500D01*
X157628039Y-131099500D01*
X157628035Y-131099500D01*
X157565845Y-131117761D01*
X157563579Y-131118397D01*
X157506815Y-131133607D01*
X157500818Y-131136091D01*
X157500589Y-131135539D01*
X157490245Y-131139958D01*
X157489954Y-131140043D01*
X157489944Y-131140048D01*
X157441410Y-131171238D01*
X157437391Y-131173688D01*
X157392684Y-131199500D01*
X157392682Y-131199502D01*
X157391658Y-131200527D01*
X157375200Y-131213789D01*
X157368872Y-131217856D01*
X157368871Y-131217857D01*
X157335768Y-131256059D01*
X157330956Y-131261227D01*
X157299500Y-131292685D01*
X157299499Y-131292686D01*
X157295172Y-131300180D01*
X157284266Y-131315496D01*
X157274622Y-131326627D01*
X157274621Y-131326628D01*
X157256591Y-131366107D01*
X157252277Y-131374475D01*
X157233608Y-131406813D01*
X157233607Y-131406813D01*
X157229507Y-131422117D01*
X157223938Y-131437608D01*
X157222825Y-131440047D01*
X157214835Y-131457543D01*
X157209674Y-131493430D01*
X157207310Y-131504953D01*
X157199500Y-131534104D01*
X157199500Y-131557122D01*
X157198492Y-131571211D01*
X157194353Y-131600000D01*
X157198181Y-131626627D01*
X157198492Y-131628786D01*
X157199500Y-131642876D01*
X157199500Y-131665893D01*
X157207310Y-131695042D01*
X157209675Y-131706572D01*
X157214835Y-131742457D01*
X157223937Y-131762388D01*
X157229506Y-131777881D01*
X157233608Y-131793186D01*
X157252277Y-131825523D01*
X157256592Y-131833893D01*
X157274622Y-131873373D01*
X157284259Y-131884494D01*
X157295172Y-131899820D01*
X157299497Y-131907310D01*
X157299498Y-131907311D01*
X157299500Y-131907314D01*
X157325771Y-131933585D01*
X157330961Y-131938775D01*
X157335764Y-131943934D01*
X157368872Y-131982143D01*
X157368873Y-131982144D01*
X157375183Y-131986199D01*
X157391666Y-131999480D01*
X159172182Y-133779996D01*
X159199959Y-133834513D01*
X159190388Y-133894945D01*
X159172182Y-133920004D01*
X157221682Y-135870504D01*
X157167165Y-135898281D01*
X157151678Y-135899500D01*
X156608035Y-135899500D01*
X156545845Y-135917761D01*
X156543579Y-135918397D01*
X156486815Y-135933607D01*
X156480818Y-135936091D01*
X156480589Y-135935539D01*
X156470245Y-135939958D01*
X156469954Y-135940043D01*
X156469944Y-135940048D01*
X156421410Y-135971238D01*
X156417391Y-135973688D01*
X156372684Y-135999500D01*
X156372682Y-135999502D01*
X156371658Y-136000527D01*
X156355200Y-136013789D01*
X156348872Y-136017856D01*
X156348871Y-136017857D01*
X156315768Y-136056059D01*
X156310956Y-136061227D01*
X156279500Y-136092685D01*
X156279499Y-136092686D01*
X156275172Y-136100180D01*
X156264266Y-136115496D01*
X156254622Y-136126627D01*
X156254621Y-136126628D01*
X156236591Y-136166107D01*
X156232277Y-136174475D01*
X156213608Y-136206813D01*
X156213607Y-136206813D01*
X156209507Y-136222117D01*
X156203938Y-136237608D01*
X156202825Y-136240047D01*
X156194835Y-136257543D01*
X156189674Y-136293430D01*
X156187310Y-136304953D01*
X156179500Y-136334104D01*
X156179500Y-136357122D01*
X156178492Y-136371211D01*
X156174353Y-136400000D01*
X150500500Y-136400000D01*
X150500500Y-130273040D01*
X150519407Y-130214849D01*
X150568907Y-130178885D01*
X150630093Y-130178885D01*
X150679593Y-130214849D01*
X150681815Y-130218038D01*
X150748249Y-130317462D01*
X150748252Y-130317466D01*
X150887533Y-130456747D01*
X150887537Y-130456750D01*
X151051314Y-130566185D01*
X151051326Y-130566191D01*
X151233310Y-130641570D01*
X151426506Y-130679999D01*
X151426510Y-130680000D01*
X151674999Y-130680000D01*
X151675000Y-130679999D01*
X151675000Y-129980000D01*
X152175000Y-129980000D01*
X152175000Y-130679999D01*
X152175001Y-130680000D01*
X152423490Y-130680000D01*
X152423493Y-130679999D01*
X152616688Y-130641570D01*
X152616690Y-130641570D01*
X152798673Y-130566191D01*
X152798685Y-130566185D01*
X152962462Y-130456750D01*
X152962466Y-130456747D01*
X153101747Y-130317466D01*
X153101750Y-130317462D01*
X153211185Y-130153685D01*
X153211191Y-130153673D01*
X153286568Y-129971695D01*
X153286571Y-129971684D01*
X153294863Y-129930000D01*
X154585137Y-129930000D01*
X154593428Y-129971684D01*
X154593431Y-129971695D01*
X154668808Y-130153673D01*
X154668814Y-130153685D01*
X154778249Y-130317462D01*
X154778252Y-130317466D01*
X154917533Y-130456747D01*
X154917537Y-130456750D01*
X155081314Y-130566185D01*
X155081326Y-130566191D01*
X155263309Y-130641570D01*
X155265128Y-130642122D01*
X155265840Y-130642618D01*
X155267804Y-130643432D01*
X155267625Y-130643862D01*
X155315323Y-130677109D01*
X155335367Y-130734918D01*
X155317604Y-130793468D01*
X155306390Y-130806861D01*
X155264514Y-130848737D01*
X155208498Y-130945758D01*
X155208497Y-130945763D01*
X155179500Y-131053982D01*
X155179500Y-131166018D01*
X155203626Y-131256057D01*
X155208498Y-131274241D01*
X155261538Y-131366107D01*
X155264515Y-131371263D01*
X155343737Y-131450485D01*
X155343739Y-131450486D01*
X155440759Y-131506501D01*
X155440757Y-131506501D01*
X155440761Y-131506502D01*
X155440763Y-131506503D01*
X155548982Y-131535500D01*
X155548984Y-131535500D01*
X155661016Y-131535500D01*
X155661018Y-131535500D01*
X155769237Y-131506503D01*
X155769239Y-131506501D01*
X155769241Y-131506501D01*
X155798064Y-131489859D01*
X155866263Y-131450485D01*
X155945485Y-131371263D01*
X155986525Y-131300180D01*
X156001501Y-131274241D01*
X156001501Y-131274239D01*
X156001503Y-131274237D01*
X156030500Y-131166018D01*
X156030500Y-131053982D01*
X156001503Y-130945763D01*
X156001501Y-130945760D01*
X156001501Y-130945758D01*
X155945486Y-130848739D01*
X155945485Y-130848737D01*
X155883994Y-130787246D01*
X155856219Y-130732732D01*
X155855000Y-130717245D01*
X155855000Y-129980000D01*
X156355000Y-129980000D01*
X156355000Y-130679999D01*
X156355001Y-130680000D01*
X156753490Y-130680000D01*
X156753493Y-130679999D01*
X156946688Y-130641570D01*
X156946690Y-130641570D01*
X157128673Y-130566191D01*
X157128685Y-130566185D01*
X157292462Y-130456750D01*
X157292466Y-130456747D01*
X157431747Y-130317466D01*
X157431750Y-130317462D01*
X157541185Y-130153685D01*
X157541191Y-130153673D01*
X157563422Y-130100002D01*
X171594353Y-130100002D01*
X171614834Y-130242456D01*
X171662092Y-130345934D01*
X171674623Y-130373373D01*
X171746869Y-130456750D01*
X171768873Y-130482144D01*
X171865052Y-130543954D01*
X171889947Y-130559953D01*
X171996403Y-130591211D01*
X172028035Y-130600499D01*
X172028036Y-130600499D01*
X172028039Y-130600500D01*
X172028041Y-130600500D01*
X172171959Y-130600500D01*
X172171961Y-130600500D01*
X172310053Y-130559953D01*
X172431128Y-130482143D01*
X172525377Y-130373373D01*
X172585165Y-130242457D01*
X172597930Y-130153673D01*
X172605647Y-130100002D01*
X172605647Y-130099997D01*
X172585165Y-129957543D01*
X172550731Y-129882144D01*
X172525377Y-129826627D01*
X172431128Y-129717857D01*
X172431127Y-129717856D01*
X172431126Y-129717855D01*
X172310057Y-129640049D01*
X172310054Y-129640047D01*
X172310053Y-129640047D01*
X172310050Y-129640046D01*
X172171964Y-129599500D01*
X172171961Y-129599500D01*
X172028039Y-129599500D01*
X172028035Y-129599500D01*
X171889949Y-129640046D01*
X171889942Y-129640049D01*
X171768873Y-129717855D01*
X171674622Y-129826628D01*
X171614834Y-129957543D01*
X171594353Y-130099997D01*
X171594353Y-130100002D01*
X157563422Y-130100002D01*
X157616568Y-129971695D01*
X157616571Y-129971684D01*
X157624863Y-129930000D01*
X156821988Y-129930000D01*
X156839205Y-129920060D01*
X156895060Y-129864205D01*
X156934556Y-129795796D01*
X156955000Y-129719496D01*
X156955000Y-129640504D01*
X156934556Y-129564204D01*
X156897489Y-129500002D01*
X161794353Y-129500002D01*
X161814834Y-129642456D01*
X161857576Y-129736046D01*
X161874623Y-129773373D01*
X161953329Y-129864205D01*
X161968873Y-129882144D01*
X162049664Y-129934065D01*
X162089947Y-129959953D01*
X162158222Y-129980000D01*
X162228035Y-130000499D01*
X162228036Y-130000499D01*
X162228039Y-130000500D01*
X162228041Y-130000500D01*
X162371959Y-130000500D01*
X162371961Y-130000500D01*
X162510053Y-129959953D01*
X162631128Y-129882143D01*
X162725377Y-129773373D01*
X162785165Y-129642457D01*
X162805647Y-129500000D01*
X162805042Y-129495795D01*
X162785165Y-129357543D01*
X162759114Y-129300500D01*
X162725377Y-129226627D01*
X162631128Y-129117857D01*
X162631127Y-129117856D01*
X162631126Y-129117855D01*
X162510057Y-129040049D01*
X162510054Y-129040047D01*
X162510053Y-129040047D01*
X162510050Y-129040046D01*
X162371964Y-128999500D01*
X162371961Y-128999500D01*
X162228039Y-128999500D01*
X162228035Y-128999500D01*
X162089949Y-129040046D01*
X162089942Y-129040049D01*
X161968873Y-129117855D01*
X161874622Y-129226628D01*
X161814834Y-129357543D01*
X161794353Y-129499997D01*
X161794353Y-129500002D01*
X156897489Y-129500002D01*
X156895060Y-129495795D01*
X156839205Y-129439940D01*
X156821988Y-129430000D01*
X157624862Y-129430000D01*
X157616571Y-129388315D01*
X157616568Y-129388304D01*
X157541191Y-129206326D01*
X157541185Y-129206314D01*
X157431750Y-129042537D01*
X157431747Y-129042533D01*
X157292466Y-128903252D01*
X157292462Y-128903249D01*
X157287603Y-128900002D01*
X165394353Y-128900002D01*
X165414834Y-129042456D01*
X165468493Y-129159950D01*
X165474623Y-129173373D01*
X165551691Y-129262315D01*
X165568873Y-129282144D01*
X165597436Y-129300500D01*
X165689947Y-129359953D01*
X165758222Y-129380000D01*
X165828035Y-129400499D01*
X165828036Y-129400499D01*
X165828039Y-129400500D01*
X165828041Y-129400500D01*
X165971959Y-129400500D01*
X165971961Y-129400500D01*
X166110053Y-129359953D01*
X166231128Y-129282143D01*
X166325377Y-129173373D01*
X166385165Y-129042457D01*
X166401504Y-128928816D01*
X166405647Y-128900002D01*
X166405647Y-128899997D01*
X166385165Y-128757543D01*
X166325377Y-128626627D01*
X166231128Y-128517857D01*
X166231127Y-128517856D01*
X166231126Y-128517855D01*
X166203346Y-128500002D01*
X170794353Y-128500002D01*
X170814834Y-128642456D01*
X170868493Y-128759950D01*
X170874623Y-128773373D01*
X170961322Y-128873430D01*
X170968873Y-128882144D01*
X171089942Y-128959950D01*
X171089947Y-128959953D01*
X171196403Y-128991211D01*
X171228035Y-129000499D01*
X171228036Y-129000499D01*
X171228039Y-129000500D01*
X171228041Y-129000500D01*
X171371959Y-129000500D01*
X171371961Y-129000500D01*
X171510053Y-128959953D01*
X171631128Y-128882143D01*
X171702303Y-128800002D01*
X171994353Y-128800002D01*
X172014834Y-128942456D01*
X172062233Y-129046244D01*
X172074623Y-129073373D01*
X172168871Y-129182142D01*
X172168873Y-129182144D01*
X172238092Y-129226628D01*
X172289947Y-129259953D01*
X172396403Y-129291211D01*
X172428035Y-129300499D01*
X172428036Y-129300499D01*
X172428039Y-129300500D01*
X172428041Y-129300500D01*
X172571959Y-129300500D01*
X172571961Y-129300500D01*
X172710053Y-129259953D01*
X172831128Y-129182143D01*
X172879876Y-129125883D01*
X172932272Y-129094287D01*
X172993233Y-129099522D01*
X173008219Y-129107430D01*
X173089942Y-129159950D01*
X173089947Y-129159953D01*
X173196403Y-129191211D01*
X173228035Y-129200499D01*
X173228036Y-129200499D01*
X173228039Y-129200500D01*
X173228041Y-129200500D01*
X173371959Y-129200500D01*
X173371961Y-129200500D01*
X173510053Y-129159953D01*
X173631128Y-129082143D01*
X173725377Y-128973373D01*
X173785165Y-128842457D01*
X173800098Y-128738597D01*
X173805647Y-128700002D01*
X173805647Y-128699997D01*
X173785165Y-128557543D01*
X173767040Y-128517855D01*
X173725377Y-128426627D01*
X173631128Y-128317857D01*
X173631127Y-128317856D01*
X173631126Y-128317855D01*
X173510057Y-128240049D01*
X173510054Y-128240047D01*
X173510053Y-128240047D01*
X173510050Y-128240046D01*
X173373674Y-128200002D01*
X177894353Y-128200002D01*
X177914834Y-128342456D01*
X177960504Y-128442457D01*
X177974623Y-128473373D01*
X178061271Y-128573371D01*
X178068873Y-128582144D01*
X178186197Y-128657543D01*
X178189947Y-128659953D01*
X178296403Y-128691211D01*
X178328035Y-128700499D01*
X178328036Y-128700499D01*
X178328039Y-128700500D01*
X178328041Y-128700500D01*
X178471959Y-128700500D01*
X178471961Y-128700500D01*
X178610053Y-128659953D01*
X178731128Y-128582143D01*
X178825377Y-128473373D01*
X178885165Y-128342457D01*
X178891269Y-128300002D01*
X179994353Y-128300002D01*
X180014834Y-128442456D01*
X180068493Y-128559950D01*
X180074623Y-128573373D01*
X180166238Y-128679103D01*
X180168873Y-128682144D01*
X180197436Y-128700500D01*
X180289947Y-128759953D01*
X180396403Y-128791211D01*
X180428035Y-128800499D01*
X180428036Y-128800499D01*
X180428039Y-128800500D01*
X180428041Y-128800500D01*
X180571959Y-128800500D01*
X180571961Y-128800500D01*
X180710053Y-128759953D01*
X180831128Y-128682143D01*
X180925377Y-128573373D01*
X180985165Y-128442457D01*
X181005647Y-128300000D01*
X181005575Y-128299500D01*
X180985165Y-128157543D01*
X180967040Y-128117855D01*
X180925377Y-128026627D01*
X180831128Y-127917857D01*
X180831127Y-127917856D01*
X180831126Y-127917855D01*
X180710057Y-127840049D01*
X180710054Y-127840047D01*
X180710053Y-127840047D01*
X180710050Y-127840046D01*
X180571964Y-127799500D01*
X180571961Y-127799500D01*
X180428039Y-127799500D01*
X180428035Y-127799500D01*
X180289949Y-127840046D01*
X180289942Y-127840049D01*
X180168873Y-127917855D01*
X180074622Y-128026628D01*
X180014834Y-128157543D01*
X179994353Y-128299997D01*
X179994353Y-128300002D01*
X178891269Y-128300002D01*
X178905647Y-128200000D01*
X178905575Y-128199500D01*
X178885165Y-128057543D01*
X178825377Y-127926628D01*
X178825377Y-127926627D01*
X178731128Y-127817857D01*
X178731127Y-127817856D01*
X178731126Y-127817855D01*
X178610057Y-127740049D01*
X178610054Y-127740047D01*
X178610053Y-127740047D01*
X178610050Y-127740046D01*
X178471964Y-127699500D01*
X178471961Y-127699500D01*
X178328039Y-127699500D01*
X178328035Y-127699500D01*
X178189949Y-127740046D01*
X178189942Y-127740049D01*
X178068873Y-127817855D01*
X177974622Y-127926628D01*
X177914834Y-128057543D01*
X177894353Y-128199997D01*
X177894353Y-128200002D01*
X173373674Y-128200002D01*
X173371964Y-128199500D01*
X173371961Y-128199500D01*
X173228039Y-128199500D01*
X173228035Y-128199500D01*
X173089949Y-128240046D01*
X173089942Y-128240049D01*
X172968872Y-128317856D01*
X172920122Y-128374117D01*
X172867726Y-128405712D01*
X172806765Y-128400476D01*
X172791780Y-128392569D01*
X172710057Y-128340049D01*
X172710054Y-128340047D01*
X172710053Y-128340047D01*
X172710050Y-128340046D01*
X172571964Y-128299500D01*
X172571961Y-128299500D01*
X172428039Y-128299500D01*
X172428035Y-128299500D01*
X172289949Y-128340046D01*
X172289942Y-128340049D01*
X172168873Y-128417855D01*
X172074622Y-128526628D01*
X172014834Y-128657543D01*
X171994353Y-128799997D01*
X171994353Y-128800002D01*
X171702303Y-128800002D01*
X171725377Y-128773373D01*
X171785165Y-128642457D01*
X171797374Y-128557543D01*
X171805647Y-128500002D01*
X171805647Y-128499997D01*
X171785165Y-128357543D01*
X171767040Y-128317855D01*
X171725377Y-128226627D01*
X171631128Y-128117857D01*
X171631127Y-128117856D01*
X171631126Y-128117855D01*
X171510057Y-128040049D01*
X171510054Y-128040047D01*
X171510053Y-128040047D01*
X171510050Y-128040046D01*
X171371964Y-127999500D01*
X171371961Y-127999500D01*
X171228039Y-127999500D01*
X171228035Y-127999500D01*
X171089949Y-128040046D01*
X171089942Y-128040049D01*
X170968873Y-128117855D01*
X170874622Y-128226628D01*
X170814834Y-128357543D01*
X170794353Y-128499997D01*
X170794353Y-128500002D01*
X166203346Y-128500002D01*
X166110057Y-128440049D01*
X166110054Y-128440047D01*
X166110053Y-128440047D01*
X166110050Y-128440046D01*
X165971964Y-128399500D01*
X165971961Y-128399500D01*
X165828039Y-128399500D01*
X165828035Y-128399500D01*
X165689949Y-128440046D01*
X165689942Y-128440049D01*
X165568873Y-128517855D01*
X165474622Y-128626628D01*
X165414834Y-128757543D01*
X165394353Y-128899997D01*
X165394353Y-128900002D01*
X157287603Y-128900002D01*
X157128685Y-128793814D01*
X157128679Y-128793811D01*
X157091316Y-128778335D01*
X157044791Y-128738597D01*
X157030508Y-128679103D01*
X157053923Y-128622575D01*
X157101309Y-128591882D01*
X157210053Y-128559953D01*
X157331128Y-128482143D01*
X157425377Y-128373373D01*
X157485165Y-128242457D01*
X157505647Y-128100000D01*
X157497027Y-128040049D01*
X157485165Y-127957543D01*
X157436051Y-127850000D01*
X157425377Y-127826627D01*
X157331128Y-127717857D01*
X157331127Y-127717856D01*
X157331126Y-127717855D01*
X157210057Y-127640049D01*
X157210054Y-127640047D01*
X157210053Y-127640047D01*
X157210050Y-127640046D01*
X157071964Y-127599500D01*
X157071961Y-127599500D01*
X156928039Y-127599500D01*
X156928035Y-127599500D01*
X156789949Y-127640046D01*
X156789942Y-127640049D01*
X156668873Y-127717855D01*
X156574622Y-127826628D01*
X156514834Y-127957543D01*
X156494353Y-128099997D01*
X156494353Y-128100002D01*
X156514834Y-128242456D01*
X156574622Y-128373371D01*
X156574623Y-128373373D01*
X156644274Y-128453755D01*
X156668873Y-128482144D01*
X156693104Y-128497716D01*
X156731835Y-128545081D01*
X156735329Y-128606167D01*
X156702250Y-128657640D01*
X156645233Y-128679839D01*
X156639581Y-128680000D01*
X156355001Y-128680000D01*
X156355000Y-128680001D01*
X156355000Y-129380000D01*
X155855000Y-129380000D01*
X155855000Y-128680001D01*
X155854999Y-128680000D01*
X155456506Y-128680000D01*
X155263311Y-128718429D01*
X155263309Y-128718429D01*
X155081326Y-128793808D01*
X155081314Y-128793814D01*
X154917537Y-128903249D01*
X154917533Y-128903252D01*
X154778252Y-129042533D01*
X154778249Y-129042537D01*
X154668814Y-129206314D01*
X154668808Y-129206326D01*
X154593431Y-129388304D01*
X154593428Y-129388315D01*
X154585137Y-129430000D01*
X155388012Y-129430000D01*
X155370795Y-129439940D01*
X155314940Y-129495795D01*
X155275444Y-129564204D01*
X155255000Y-129640504D01*
X155255000Y-129719496D01*
X155275444Y-129795796D01*
X155314940Y-129864205D01*
X155370795Y-129920060D01*
X155388012Y-129930000D01*
X154585137Y-129930000D01*
X153294863Y-129930000D01*
X152491988Y-129930000D01*
X152509205Y-129920060D01*
X152565060Y-129864205D01*
X152604556Y-129795796D01*
X152625000Y-129719496D01*
X152625000Y-129640504D01*
X152604556Y-129564204D01*
X152565060Y-129495795D01*
X152509205Y-129439940D01*
X152491988Y-129430000D01*
X153294862Y-129430000D01*
X153286571Y-129388315D01*
X153286568Y-129388304D01*
X153211191Y-129206326D01*
X153211185Y-129206314D01*
X153101750Y-129042537D01*
X153101747Y-129042533D01*
X152962466Y-128903252D01*
X152962462Y-128903249D01*
X152798685Y-128793814D01*
X152798673Y-128793808D01*
X152616689Y-128718429D01*
X152423493Y-128680000D01*
X152175001Y-128680000D01*
X152175000Y-128680001D01*
X152175000Y-129380000D01*
X151675000Y-129380000D01*
X151675000Y-128680001D01*
X151674999Y-128680000D01*
X151426506Y-128680000D01*
X151233311Y-128718429D01*
X151233309Y-128718429D01*
X151051326Y-128793808D01*
X151051314Y-128793814D01*
X150887537Y-128903249D01*
X150887533Y-128903252D01*
X150748248Y-129042537D01*
X150681815Y-129141961D01*
X150633765Y-129179840D01*
X150572626Y-129182242D01*
X150521753Y-129148248D01*
X150500576Y-129090845D01*
X150500500Y-129086959D01*
X150500500Y-126800002D01*
X171094353Y-126800002D01*
X171114834Y-126942456D01*
X171160504Y-127042457D01*
X171174623Y-127073373D01*
X171229327Y-127136505D01*
X171268873Y-127182144D01*
X171382786Y-127255351D01*
X171389947Y-127259953D01*
X171496403Y-127291211D01*
X171528035Y-127300499D01*
X171528036Y-127300499D01*
X171528039Y-127300500D01*
X171528041Y-127300500D01*
X171671959Y-127300500D01*
X171671961Y-127300500D01*
X171810053Y-127259953D01*
X171827548Y-127248709D01*
X171886720Y-127233154D01*
X171943737Y-127255351D01*
X171955890Y-127267161D01*
X171968872Y-127282143D01*
X171997434Y-127300499D01*
X172089947Y-127359953D01*
X172196403Y-127391211D01*
X172228035Y-127400499D01*
X172228036Y-127400499D01*
X172228039Y-127400500D01*
X172228041Y-127400500D01*
X172371959Y-127400500D01*
X172371961Y-127400500D01*
X172510053Y-127359953D01*
X172603339Y-127300002D01*
X181694353Y-127300002D01*
X181714834Y-127442456D01*
X181756721Y-127534174D01*
X181774623Y-127573373D01*
X181868872Y-127682143D01*
X181868873Y-127682144D01*
X181989942Y-127759950D01*
X181989947Y-127759953D01*
X182096403Y-127791211D01*
X182128035Y-127800499D01*
X182128036Y-127800499D01*
X182128039Y-127800500D01*
X182128041Y-127800500D01*
X182271959Y-127800500D01*
X182271961Y-127800500D01*
X182410053Y-127759953D01*
X182531128Y-127682143D01*
X182625377Y-127573373D01*
X182685165Y-127442457D01*
X182705575Y-127300500D01*
X182705647Y-127300002D01*
X183394353Y-127300002D01*
X183414834Y-127442456D01*
X183456721Y-127534174D01*
X183474623Y-127573373D01*
X183568872Y-127682143D01*
X183568873Y-127682144D01*
X183689942Y-127759950D01*
X183689947Y-127759953D01*
X183796403Y-127791211D01*
X183828035Y-127800499D01*
X183828036Y-127800499D01*
X183828039Y-127800500D01*
X183828041Y-127800500D01*
X183971959Y-127800500D01*
X183971961Y-127800500D01*
X184110053Y-127759953D01*
X184231128Y-127682143D01*
X184325377Y-127573373D01*
X184385165Y-127442457D01*
X184405575Y-127300500D01*
X184405647Y-127300002D01*
X184405647Y-127299997D01*
X184385165Y-127157543D01*
X184374447Y-127134075D01*
X184325377Y-127026627D01*
X184231128Y-126917857D01*
X184231127Y-126917856D01*
X184231126Y-126917855D01*
X184110057Y-126840049D01*
X184110054Y-126840047D01*
X184110053Y-126840047D01*
X184110050Y-126840046D01*
X183971964Y-126799500D01*
X183971961Y-126799500D01*
X183828039Y-126799500D01*
X183828035Y-126799500D01*
X183689949Y-126840046D01*
X183689942Y-126840049D01*
X183568873Y-126917855D01*
X183474622Y-127026628D01*
X183414834Y-127157543D01*
X183394353Y-127299997D01*
X183394353Y-127300002D01*
X182705647Y-127300002D01*
X182705647Y-127299997D01*
X182685165Y-127157543D01*
X182674447Y-127134075D01*
X182625377Y-127026627D01*
X182531128Y-126917857D01*
X182531127Y-126917856D01*
X182531126Y-126917855D01*
X182410057Y-126840049D01*
X182410054Y-126840047D01*
X182410053Y-126840047D01*
X182410050Y-126840046D01*
X182271964Y-126799500D01*
X182271961Y-126799500D01*
X182128039Y-126799500D01*
X182128035Y-126799500D01*
X181989949Y-126840046D01*
X181989942Y-126840049D01*
X181868873Y-126917855D01*
X181774622Y-127026628D01*
X181714834Y-127157543D01*
X181694353Y-127299997D01*
X181694353Y-127300002D01*
X172603339Y-127300002D01*
X172631128Y-127282143D01*
X172725377Y-127173373D01*
X172785165Y-127042457D01*
X172805647Y-126900000D01*
X172797027Y-126840049D01*
X172785165Y-126757543D01*
X172725377Y-126626628D01*
X172725377Y-126626627D01*
X172631128Y-126517857D01*
X172631127Y-126517856D01*
X172631126Y-126517855D01*
X172510057Y-126440049D01*
X172510054Y-126440047D01*
X172510053Y-126440047D01*
X172504468Y-126438407D01*
X172371964Y-126399500D01*
X172371961Y-126399500D01*
X172228039Y-126399500D01*
X172228035Y-126399500D01*
X172089949Y-126440046D01*
X172089943Y-126440049D01*
X172072450Y-126451291D01*
X172013274Y-126466844D01*
X171956258Y-126444645D01*
X171944109Y-126432837D01*
X171931129Y-126417858D01*
X171931127Y-126417856D01*
X171810057Y-126340049D01*
X171810054Y-126340047D01*
X171810053Y-126340047D01*
X171810050Y-126340046D01*
X171671964Y-126299500D01*
X171671961Y-126299500D01*
X171528039Y-126299500D01*
X171528035Y-126299500D01*
X171389949Y-126340046D01*
X171389942Y-126340049D01*
X171268873Y-126417855D01*
X171174622Y-126526628D01*
X171114834Y-126657543D01*
X171094353Y-126799997D01*
X171094353Y-126800002D01*
X150500500Y-126800002D01*
X150500500Y-125516661D01*
X171736892Y-125516661D01*
X171750692Y-125525333D01*
X171750703Y-125525338D01*
X171920849Y-125584875D01*
X171920862Y-125584878D01*
X172099996Y-125605062D01*
X172100004Y-125605062D01*
X172279137Y-125584878D01*
X172279144Y-125584876D01*
X172449301Y-125525336D01*
X172463105Y-125516661D01*
X172736892Y-125516661D01*
X172750692Y-125525333D01*
X172750703Y-125525338D01*
X172920849Y-125584875D01*
X172920862Y-125584878D01*
X173099996Y-125605062D01*
X173100004Y-125605062D01*
X173279137Y-125584878D01*
X173279144Y-125584876D01*
X173449301Y-125525336D01*
X173463107Y-125516660D01*
X173100000Y-125153553D01*
X172736892Y-125516661D01*
X172463105Y-125516661D01*
X172463107Y-125516660D01*
X172100000Y-125153553D01*
X171736892Y-125516661D01*
X150500500Y-125516661D01*
X150500500Y-124300002D01*
X159894353Y-124300002D01*
X159914834Y-124442456D01*
X159974622Y-124573371D01*
X159974623Y-124573373D01*
X160062683Y-124675000D01*
X160068873Y-124682144D01*
X160097436Y-124700500D01*
X160189947Y-124759953D01*
X160296403Y-124791211D01*
X160328035Y-124800499D01*
X160328036Y-124800499D01*
X160328039Y-124800500D01*
X160328041Y-124800500D01*
X160471959Y-124800500D01*
X160471961Y-124800500D01*
X160473650Y-124800004D01*
X171294938Y-124800004D01*
X171315121Y-124979137D01*
X171315124Y-124979150D01*
X171374662Y-125149298D01*
X171374667Y-125149308D01*
X171383337Y-125163106D01*
X171383338Y-125163106D01*
X171721581Y-124824864D01*
X171975000Y-124824864D01*
X171994030Y-124870807D01*
X172029193Y-124905970D01*
X172075136Y-124925000D01*
X172124864Y-124925000D01*
X172170807Y-124905970D01*
X172205970Y-124870807D01*
X172225000Y-124824864D01*
X172225000Y-124800000D01*
X172453553Y-124800000D01*
X172599999Y-124946445D01*
X172721581Y-124824864D01*
X172975000Y-124824864D01*
X172994030Y-124870807D01*
X173029193Y-124905970D01*
X173075136Y-124925000D01*
X173124864Y-124925000D01*
X173170807Y-124905970D01*
X173205970Y-124870807D01*
X173225000Y-124824864D01*
X173225000Y-124800000D01*
X173453553Y-124800000D01*
X173816660Y-125163106D01*
X173825336Y-125149301D01*
X173884876Y-124979144D01*
X173884878Y-124979137D01*
X173905062Y-124800004D01*
X173905062Y-124799995D01*
X173884878Y-124620862D01*
X173884875Y-124620849D01*
X173825338Y-124450703D01*
X173825333Y-124450692D01*
X173816661Y-124436892D01*
X173453553Y-124800000D01*
X173225000Y-124800000D01*
X173225000Y-124775136D01*
X173205970Y-124729193D01*
X173170807Y-124694030D01*
X173124864Y-124675000D01*
X173075136Y-124675000D01*
X173029193Y-124694030D01*
X172994030Y-124729193D01*
X172975000Y-124775136D01*
X172975000Y-124824864D01*
X172721581Y-124824864D01*
X172746446Y-124799999D01*
X172600000Y-124653553D01*
X172453553Y-124800000D01*
X172225000Y-124800000D01*
X172225000Y-124775136D01*
X172205970Y-124729193D01*
X172170807Y-124694030D01*
X172124864Y-124675000D01*
X172075136Y-124675000D01*
X172029193Y-124694030D01*
X171994030Y-124729193D01*
X171975000Y-124775136D01*
X171975000Y-124824864D01*
X171721581Y-124824864D01*
X171746445Y-124800000D01*
X171383337Y-124436892D01*
X171374663Y-124450698D01*
X171315124Y-124620850D01*
X171315121Y-124620862D01*
X171294938Y-124799995D01*
X171294938Y-124800004D01*
X160473650Y-124800004D01*
X160610053Y-124759953D01*
X160731128Y-124682143D01*
X160825377Y-124573373D01*
X160885165Y-124442457D01*
X160905647Y-124300000D01*
X160901818Y-124273371D01*
X160885165Y-124157543D01*
X160851276Y-124083337D01*
X171736892Y-124083337D01*
X172100000Y-124446445D01*
X172463106Y-124083338D01*
X172463106Y-124083337D01*
X172736892Y-124083337D01*
X173100000Y-124446445D01*
X173463106Y-124083338D01*
X173463106Y-124083337D01*
X173449308Y-124074667D01*
X173449298Y-124074662D01*
X173279150Y-124015124D01*
X173279137Y-124015121D01*
X173144949Y-124000002D01*
X176994353Y-124000002D01*
X177014834Y-124142456D01*
X177068169Y-124259241D01*
X177074623Y-124273373D01*
X177168872Y-124382143D01*
X177168873Y-124382144D01*
X177289942Y-124459950D01*
X177289947Y-124459953D01*
X177396403Y-124491211D01*
X177428035Y-124500499D01*
X177428036Y-124500499D01*
X177428039Y-124500500D01*
X177428041Y-124500500D01*
X177571959Y-124500500D01*
X177571961Y-124500500D01*
X177710053Y-124459953D01*
X177831128Y-124382143D01*
X177925377Y-124273373D01*
X177925381Y-124273363D01*
X177928576Y-124268393D01*
X177975941Y-124229660D01*
X178037026Y-124226164D01*
X178088500Y-124259241D01*
X178109855Y-124307824D01*
X178114834Y-124342456D01*
X178164270Y-124450703D01*
X178174623Y-124473373D01*
X178261271Y-124573371D01*
X178268873Y-124582144D01*
X178329101Y-124620850D01*
X178389947Y-124659953D01*
X178496403Y-124691211D01*
X178528035Y-124700499D01*
X178528036Y-124700499D01*
X178528039Y-124700500D01*
X178528041Y-124700500D01*
X178671959Y-124700500D01*
X178671961Y-124700500D01*
X178810053Y-124659953D01*
X178931128Y-124582143D01*
X179025377Y-124473373D01*
X179085165Y-124342457D01*
X179105647Y-124200000D01*
X179087626Y-124074663D01*
X179085165Y-124057543D01*
X179065791Y-124015121D01*
X179025377Y-123926627D01*
X178931128Y-123817857D01*
X178931127Y-123817856D01*
X178931126Y-123817855D01*
X178810057Y-123740049D01*
X178810054Y-123740047D01*
X178810053Y-123740047D01*
X178810050Y-123740046D01*
X178671964Y-123699500D01*
X178671961Y-123699500D01*
X178528039Y-123699500D01*
X178528035Y-123699500D01*
X178389949Y-123740046D01*
X178389942Y-123740049D01*
X178268873Y-123817855D01*
X178174618Y-123926632D01*
X178171417Y-123931614D01*
X178124048Y-123970343D01*
X178062963Y-123973832D01*
X178011492Y-123940750D01*
X177990144Y-123892176D01*
X177985165Y-123857543D01*
X177925377Y-123726627D01*
X177831128Y-123617857D01*
X177831127Y-123617856D01*
X177831126Y-123617855D01*
X177710057Y-123540049D01*
X177710054Y-123540047D01*
X177710053Y-123540047D01*
X177710050Y-123540046D01*
X177571964Y-123499500D01*
X177571961Y-123499500D01*
X177428039Y-123499500D01*
X177428035Y-123499500D01*
X177289949Y-123540046D01*
X177289942Y-123540049D01*
X177168873Y-123617855D01*
X177074622Y-123726628D01*
X177014834Y-123857543D01*
X176994353Y-123999997D01*
X176994353Y-124000002D01*
X173144949Y-124000002D01*
X173100004Y-123994938D01*
X173099996Y-123994938D01*
X172920862Y-124015121D01*
X172920850Y-124015124D01*
X172750698Y-124074663D01*
X172736892Y-124083337D01*
X172463106Y-124083337D01*
X172449308Y-124074667D01*
X172449298Y-124074662D01*
X172279150Y-124015124D01*
X172279137Y-124015121D01*
X172100004Y-123994938D01*
X172099996Y-123994938D01*
X171920862Y-124015121D01*
X171920850Y-124015124D01*
X171750698Y-124074663D01*
X171736892Y-124083337D01*
X160851276Y-124083337D01*
X160847316Y-124074667D01*
X160825377Y-124026627D01*
X160731128Y-123917857D01*
X160731127Y-123917856D01*
X160731126Y-123917855D01*
X160610057Y-123840049D01*
X160610054Y-123840047D01*
X160610053Y-123840047D01*
X160610050Y-123840046D01*
X160471964Y-123799500D01*
X160471961Y-123799500D01*
X160328039Y-123799500D01*
X160328035Y-123799500D01*
X160189949Y-123840046D01*
X160189942Y-123840049D01*
X160068873Y-123917855D01*
X159974622Y-124026628D01*
X159914834Y-124157543D01*
X159894353Y-124299997D01*
X159894353Y-124300002D01*
X150500500Y-124300002D01*
X150500500Y-121900002D01*
X171294353Y-121900002D01*
X171314834Y-122042456D01*
X171374622Y-122173371D01*
X171374623Y-122173373D01*
X171468872Y-122282143D01*
X171468873Y-122282144D01*
X171589942Y-122359950D01*
X171589947Y-122359953D01*
X171696403Y-122391211D01*
X171728035Y-122400499D01*
X171728036Y-122400499D01*
X171728039Y-122400500D01*
X171728041Y-122400500D01*
X171871959Y-122400500D01*
X171871961Y-122400500D01*
X172010053Y-122359953D01*
X172131128Y-122282143D01*
X172225377Y-122173373D01*
X172285165Y-122042457D01*
X172305647Y-121900000D01*
X172285165Y-121757543D01*
X172225377Y-121626627D01*
X172131128Y-121517857D01*
X172131127Y-121517856D01*
X172131126Y-121517855D01*
X172103346Y-121500002D01*
X172594353Y-121500002D01*
X172614834Y-121642456D01*
X172674622Y-121773371D01*
X172674623Y-121773373D01*
X172768872Y-121882143D01*
X172768873Y-121882144D01*
X172796653Y-121899997D01*
X172889947Y-121959953D01*
X172996403Y-121991211D01*
X173028035Y-122000499D01*
X173028036Y-122000499D01*
X173028039Y-122000500D01*
X173028041Y-122000500D01*
X173171959Y-122000500D01*
X173171961Y-122000500D01*
X173310053Y-121959953D01*
X173431128Y-121882143D01*
X173525377Y-121773373D01*
X173585165Y-121642457D01*
X173605647Y-121500000D01*
X173597027Y-121440049D01*
X173585165Y-121357543D01*
X173525377Y-121226628D01*
X173525377Y-121226627D01*
X173431128Y-121117857D01*
X173431127Y-121117856D01*
X173431126Y-121117855D01*
X173310057Y-121040049D01*
X173310054Y-121040047D01*
X173310053Y-121040047D01*
X173310050Y-121040046D01*
X173171964Y-120999500D01*
X173171961Y-120999500D01*
X173028039Y-120999500D01*
X173028035Y-120999500D01*
X172889949Y-121040046D01*
X172889942Y-121040049D01*
X172768873Y-121117855D01*
X172674622Y-121226628D01*
X172614834Y-121357543D01*
X172594353Y-121499997D01*
X172594353Y-121500002D01*
X172103346Y-121500002D01*
X172010057Y-121440049D01*
X172010054Y-121440047D01*
X172010053Y-121440047D01*
X172010050Y-121440046D01*
X171871964Y-121399500D01*
X171871961Y-121399500D01*
X171728039Y-121399500D01*
X171728035Y-121399500D01*
X171589949Y-121440046D01*
X171589942Y-121440049D01*
X171468873Y-121517855D01*
X171374622Y-121626628D01*
X171314834Y-121757543D01*
X171294353Y-121899997D01*
X171294353Y-121900002D01*
X150500500Y-121900002D01*
X150500500Y-119900002D01*
X170894353Y-119900002D01*
X170914834Y-120042456D01*
X170974622Y-120173371D01*
X170974623Y-120173373D01*
X171068872Y-120282143D01*
X171068873Y-120282144D01*
X171189942Y-120359950D01*
X171189947Y-120359953D01*
X171296403Y-120391211D01*
X171328035Y-120400499D01*
X171328036Y-120400499D01*
X171328039Y-120400500D01*
X171328041Y-120400500D01*
X171471959Y-120400500D01*
X171471961Y-120400500D01*
X171610053Y-120359953D01*
X171731128Y-120282143D01*
X171825377Y-120173373D01*
X171885165Y-120042457D01*
X171905647Y-119900000D01*
X171885165Y-119757543D01*
X171825377Y-119626627D01*
X171731128Y-119517857D01*
X171731127Y-119517856D01*
X171731126Y-119517855D01*
X171610057Y-119440049D01*
X171610054Y-119440047D01*
X171610053Y-119440047D01*
X171610050Y-119440046D01*
X171471964Y-119399500D01*
X171471961Y-119399500D01*
X171328039Y-119399500D01*
X171328035Y-119399500D01*
X171189949Y-119440046D01*
X171189942Y-119440049D01*
X171068873Y-119517855D01*
X170974622Y-119626628D01*
X170914834Y-119757543D01*
X170894353Y-119899997D01*
X170894353Y-119900002D01*
X150500500Y-119900002D01*
X150500500Y-119200002D01*
X156594353Y-119200002D01*
X156614834Y-119342456D01*
X156640886Y-119399500D01*
X156674623Y-119473373D01*
X156768872Y-119582143D01*
X156768873Y-119582144D01*
X156838092Y-119626628D01*
X156889947Y-119659953D01*
X156996403Y-119691211D01*
X157028035Y-119700499D01*
X157028036Y-119700499D01*
X157028039Y-119700500D01*
X157028041Y-119700500D01*
X157171959Y-119700500D01*
X157171961Y-119700500D01*
X157310053Y-119659953D01*
X157431128Y-119582143D01*
X157525377Y-119473373D01*
X157585165Y-119342457D01*
X157605647Y-119200000D01*
X157585165Y-119057543D01*
X157525377Y-118926627D01*
X157431128Y-118817857D01*
X157431127Y-118817856D01*
X157431126Y-118817855D01*
X157310057Y-118740049D01*
X157310054Y-118740047D01*
X157310053Y-118740047D01*
X157310050Y-118740046D01*
X157171964Y-118699500D01*
X157171961Y-118699500D01*
X157028039Y-118699500D01*
X157028035Y-118699500D01*
X156889949Y-118740046D01*
X156889942Y-118740049D01*
X156768873Y-118817855D01*
X156674622Y-118926628D01*
X156614834Y-119057543D01*
X156594353Y-119199997D01*
X156594353Y-119200002D01*
X150500500Y-119200002D01*
X150500500Y-117625965D01*
X151899500Y-117625965D01*
X151938908Y-117874780D01*
X152016759Y-118114379D01*
X152111591Y-118300499D01*
X152131130Y-118338845D01*
X152279207Y-118542656D01*
X152457344Y-118720793D01*
X152661155Y-118868870D01*
X152885621Y-118983241D01*
X153125215Y-119061090D01*
X153125216Y-119061090D01*
X153125219Y-119061091D01*
X153374035Y-119100500D01*
X153374038Y-119100500D01*
X153625965Y-119100500D01*
X153874780Y-119061091D01*
X153874781Y-119061090D01*
X153874785Y-119061090D01*
X154114379Y-118983241D01*
X154338845Y-118868870D01*
X154542656Y-118720793D01*
X154720793Y-118542656D01*
X154868870Y-118338845D01*
X154983241Y-118114379D01*
X155061090Y-117874785D01*
X155072935Y-117800002D01*
X176194353Y-117800002D01*
X176214834Y-117942456D01*
X176274622Y-118073371D01*
X176274623Y-118073373D01*
X176310155Y-118114379D01*
X176368873Y-118182144D01*
X176489942Y-118259950D01*
X176489947Y-118259953D01*
X176596403Y-118291211D01*
X176628035Y-118300499D01*
X176628036Y-118300499D01*
X176628039Y-118300500D01*
X176628041Y-118300500D01*
X176771959Y-118300500D01*
X176771961Y-118300500D01*
X176910053Y-118259953D01*
X177031128Y-118182143D01*
X177125377Y-118073373D01*
X177185165Y-117942457D01*
X177205647Y-117800000D01*
X177185165Y-117657543D01*
X177125377Y-117526627D01*
X177031128Y-117417857D01*
X177031127Y-117417856D01*
X177031126Y-117417855D01*
X176910057Y-117340049D01*
X176910054Y-117340047D01*
X176910053Y-117340047D01*
X176910050Y-117340046D01*
X176771964Y-117299500D01*
X176771961Y-117299500D01*
X176628039Y-117299500D01*
X176628035Y-117299500D01*
X176489949Y-117340046D01*
X176489942Y-117340049D01*
X176368873Y-117417855D01*
X176274622Y-117526628D01*
X176214834Y-117657543D01*
X176194353Y-117799997D01*
X176194353Y-117800002D01*
X155072935Y-117800002D01*
X155072935Y-117800000D01*
X155100500Y-117625965D01*
X155100500Y-117374034D01*
X155061091Y-117125219D01*
X155051969Y-117097144D01*
X154983241Y-116885621D01*
X154939616Y-116800002D01*
X163294353Y-116800002D01*
X163314834Y-116942456D01*
X163335803Y-116988371D01*
X163374623Y-117073373D01*
X163462639Y-117174950D01*
X163468873Y-117182144D01*
X163589942Y-117259950D01*
X163589947Y-117259953D01*
X163696403Y-117291211D01*
X163728035Y-117300499D01*
X163728036Y-117300499D01*
X163728039Y-117300500D01*
X163728041Y-117300500D01*
X163871959Y-117300500D01*
X163871961Y-117300500D01*
X164010053Y-117259953D01*
X164131128Y-117182143D01*
X164225377Y-117073373D01*
X164285165Y-116942457D01*
X164305647Y-116800000D01*
X164293426Y-116715002D01*
X167679353Y-116715002D01*
X167699834Y-116857456D01*
X167759622Y-116988371D01*
X167759623Y-116988373D01*
X167853872Y-117097143D01*
X167853873Y-117097144D01*
X167897553Y-117125215D01*
X167974947Y-117174953D01*
X168081403Y-117206211D01*
X168113035Y-117215499D01*
X168113036Y-117215499D01*
X168113039Y-117215500D01*
X168113041Y-117215500D01*
X168256959Y-117215500D01*
X168256961Y-117215500D01*
X168395053Y-117174953D01*
X168516128Y-117097143D01*
X168610377Y-116988373D01*
X168670165Y-116857457D01*
X168690647Y-116715000D01*
X168682905Y-116661155D01*
X168670165Y-116572543D01*
X168649196Y-116526628D01*
X168610377Y-116441627D01*
X168516128Y-116332857D01*
X168516127Y-116332856D01*
X168516126Y-116332855D01*
X168395057Y-116255049D01*
X168395054Y-116255047D01*
X168395053Y-116255047D01*
X168395050Y-116255046D01*
X168256964Y-116214500D01*
X168256961Y-116214500D01*
X168113039Y-116214500D01*
X168113035Y-116214500D01*
X167974949Y-116255046D01*
X167974942Y-116255049D01*
X167853873Y-116332855D01*
X167759622Y-116441628D01*
X167699834Y-116572543D01*
X167679353Y-116714997D01*
X167679353Y-116715002D01*
X164293426Y-116715002D01*
X164285165Y-116657543D01*
X164225377Y-116526627D01*
X164131128Y-116417857D01*
X164131127Y-116417856D01*
X164131126Y-116417855D01*
X164010057Y-116340049D01*
X164010054Y-116340047D01*
X164010053Y-116340047D01*
X164010050Y-116340046D01*
X163871964Y-116299500D01*
X163871961Y-116299500D01*
X163728039Y-116299500D01*
X163728035Y-116299500D01*
X163589949Y-116340046D01*
X163589942Y-116340049D01*
X163468873Y-116417855D01*
X163374622Y-116526628D01*
X163314834Y-116657543D01*
X163294353Y-116799997D01*
X163294353Y-116800002D01*
X154939616Y-116800002D01*
X154868870Y-116661155D01*
X154720793Y-116457344D01*
X154542656Y-116279207D01*
X154338845Y-116131130D01*
X154338844Y-116131129D01*
X154338842Y-116131128D01*
X154114379Y-116016759D01*
X153874780Y-115938908D01*
X153625965Y-115899500D01*
X153625962Y-115899500D01*
X153374038Y-115899500D01*
X153374035Y-115899500D01*
X153125219Y-115938908D01*
X152885620Y-116016759D01*
X152661157Y-116131128D01*
X152457345Y-116279206D01*
X152279206Y-116457345D01*
X152131128Y-116661157D01*
X152016759Y-116885620D01*
X151938908Y-117125219D01*
X151899500Y-117374034D01*
X151899500Y-117625965D01*
X150500500Y-117625965D01*
X150500500Y-116003539D01*
X150500752Y-115996477D01*
X150507688Y-115899500D01*
X150515258Y-115793652D01*
X150517265Y-115779693D01*
X150559737Y-115584447D01*
X150563711Y-115570914D01*
X150633539Y-115383701D01*
X150639391Y-115370886D01*
X150735150Y-115195516D01*
X150742777Y-115183648D01*
X150862515Y-115023698D01*
X150871749Y-115013040D01*
X151013040Y-114871749D01*
X151023698Y-114862515D01*
X151183648Y-114742777D01*
X151195516Y-114735150D01*
X151370886Y-114639391D01*
X151383701Y-114633539D01*
X151570914Y-114563711D01*
X151584447Y-114559737D01*
X151779693Y-114517265D01*
X151793652Y-114515258D01*
X151973568Y-114502390D01*
X151996478Y-114500752D01*
X152003540Y-114500500D01*
X152065892Y-114500500D01*
X185361000Y-114500500D01*
X185419191Y-114519407D01*
G37*
G04 #@! TD.AperFunction*
M02*
