G04 #@! TF.GenerationSoftware,KiCad,Pcbnew,8.0.1*
G04 #@! TF.CreationDate,2025-04-04T11:24:11-04:00*
G04 #@! TF.ProjectId,Digital,44696769-7461-46c2-9e6b-696361645f70,rev?*
G04 #@! TF.SameCoordinates,Original*
G04 #@! TF.FileFunction,Legend,Bot*
G04 #@! TF.FilePolarity,Positive*
%FSLAX46Y46*%
G04 Gerber Fmt 4.6, Leading zero omitted, Abs format (unit mm)*
G04 Created by KiCad (PCBNEW 8.0.1) date 2025-04-04 11:24:11*
%MOMM*%
%LPD*%
G01*
G04 APERTURE LIST*
G04 Aperture macros list*
%AMRoundRect*
0 Rectangle with rounded corners*
0 $1 Rounding radius*
0 $2 $3 $4 $5 $6 $7 $8 $9 X,Y pos of 4 corners*
0 Add a 4 corners polygon primitive as box body*
4,1,4,$2,$3,$4,$5,$6,$7,$8,$9,$2,$3,0*
0 Add four circle primitives for the rounded corners*
1,1,$1+$1,$2,$3*
1,1,$1+$1,$4,$5*
1,1,$1+$1,$6,$7*
1,1,$1+$1,$8,$9*
0 Add four rect primitives between the rounded corners*
20,1,$1+$1,$2,$3,$4,$5,0*
20,1,$1+$1,$4,$5,$6,$7,0*
20,1,$1+$1,$6,$7,$8,$9,0*
20,1,$1+$1,$8,$9,$2,$3,0*%
G04 Aperture macros list end*
%ADD10C,0.125000*%
%ADD11C,0.100000*%
%ADD12C,0.150000*%
%ADD13C,0.000000*%
%ADD14C,0.120000*%
%ADD15RoundRect,0.038000X0.850000X0.850000X-0.850000X0.850000X-0.850000X-0.850000X0.850000X-0.850000X0*%
%ADD16O,1.776000X1.776000*%
%ADD17RoundRect,0.038000X0.850000X-0.850000X0.850000X0.850000X-0.850000X0.850000X-0.850000X-0.850000X0*%
%ADD18C,3.076000*%
%ADD19C,2.276000*%
%ADD20C,0.726000*%
%ADD21O,2.176000X1.076000*%
%ADD22O,1.876000X1.076000*%
%ADD23RoundRect,0.154000X0.154000X0.204000X-0.154000X0.204000X-0.154000X-0.204000X0.154000X-0.204000X0*%
%ADD24RoundRect,0.244000X0.269000X-0.244000X0.269000X0.244000X-0.269000X0.244000X-0.269000X-0.244000X0*%
G04 APERTURE END LIST*
D10*
X152109523Y-146434333D02*
X152490476Y-146434333D01*
X152299999Y-146624809D02*
X152299999Y-146243857D01*
D11*
X188195556Y-118244360D02*
X187445556Y-118244360D01*
X187445556Y-118244360D02*
X187981270Y-118494360D01*
X187981270Y-118494360D02*
X187445556Y-118744360D01*
X187445556Y-118744360D02*
X188195556Y-118744360D01*
X188195556Y-119101503D02*
X187695556Y-119101503D01*
X187445556Y-119101503D02*
X187481270Y-119065789D01*
X187481270Y-119065789D02*
X187516984Y-119101503D01*
X187516984Y-119101503D02*
X187481270Y-119137217D01*
X187481270Y-119137217D02*
X187445556Y-119101503D01*
X187445556Y-119101503D02*
X187516984Y-119101503D01*
X188159842Y-119780075D02*
X188195556Y-119708646D01*
X188195556Y-119708646D02*
X188195556Y-119565789D01*
X188195556Y-119565789D02*
X188159842Y-119494360D01*
X188159842Y-119494360D02*
X188124127Y-119458646D01*
X188124127Y-119458646D02*
X188052699Y-119422932D01*
X188052699Y-119422932D02*
X187838413Y-119422932D01*
X187838413Y-119422932D02*
X187766984Y-119458646D01*
X187766984Y-119458646D02*
X187731270Y-119494360D01*
X187731270Y-119494360D02*
X187695556Y-119565789D01*
X187695556Y-119565789D02*
X187695556Y-119708646D01*
X187695556Y-119708646D02*
X187731270Y-119780075D01*
X188195556Y-120101503D02*
X187445556Y-120101503D01*
X188195556Y-120422932D02*
X187802699Y-120422932D01*
X187802699Y-120422932D02*
X187731270Y-120387217D01*
X187731270Y-120387217D02*
X187695556Y-120315789D01*
X187695556Y-120315789D02*
X187695556Y-120208646D01*
X187695556Y-120208646D02*
X187731270Y-120137217D01*
X187731270Y-120137217D02*
X187766984Y-120101503D01*
X188195556Y-121101503D02*
X187802699Y-121101503D01*
X187802699Y-121101503D02*
X187731270Y-121065788D01*
X187731270Y-121065788D02*
X187695556Y-120994360D01*
X187695556Y-120994360D02*
X187695556Y-120851503D01*
X187695556Y-120851503D02*
X187731270Y-120780074D01*
X188159842Y-121101503D02*
X188195556Y-121030074D01*
X188195556Y-121030074D02*
X188195556Y-120851503D01*
X188195556Y-120851503D02*
X188159842Y-120780074D01*
X188159842Y-120780074D02*
X188088413Y-120744360D01*
X188088413Y-120744360D02*
X188016984Y-120744360D01*
X188016984Y-120744360D02*
X187945556Y-120780074D01*
X187945556Y-120780074D02*
X187909842Y-120851503D01*
X187909842Y-120851503D02*
X187909842Y-121030074D01*
X187909842Y-121030074D02*
X187874127Y-121101503D01*
X188159842Y-121744359D02*
X188195556Y-121672931D01*
X188195556Y-121672931D02*
X188195556Y-121530074D01*
X188195556Y-121530074D02*
X188159842Y-121458645D01*
X188159842Y-121458645D02*
X188088413Y-121422931D01*
X188088413Y-121422931D02*
X187802699Y-121422931D01*
X187802699Y-121422931D02*
X187731270Y-121458645D01*
X187731270Y-121458645D02*
X187695556Y-121530074D01*
X187695556Y-121530074D02*
X187695556Y-121672931D01*
X187695556Y-121672931D02*
X187731270Y-121744359D01*
X187731270Y-121744359D02*
X187802699Y-121780074D01*
X187802699Y-121780074D02*
X187874127Y-121780074D01*
X187874127Y-121780074D02*
X187945556Y-121422931D01*
X188195556Y-122208645D02*
X188159842Y-122137216D01*
X188159842Y-122137216D02*
X188088413Y-122101502D01*
X188088413Y-122101502D02*
X187445556Y-122101502D01*
X188159842Y-123030074D02*
X188195556Y-123137217D01*
X188195556Y-123137217D02*
X188195556Y-123315788D01*
X188195556Y-123315788D02*
X188159842Y-123387217D01*
X188159842Y-123387217D02*
X188124127Y-123422931D01*
X188124127Y-123422931D02*
X188052699Y-123458645D01*
X188052699Y-123458645D02*
X187981270Y-123458645D01*
X187981270Y-123458645D02*
X187909842Y-123422931D01*
X187909842Y-123422931D02*
X187874127Y-123387217D01*
X187874127Y-123387217D02*
X187838413Y-123315788D01*
X187838413Y-123315788D02*
X187802699Y-123172931D01*
X187802699Y-123172931D02*
X187766984Y-123101502D01*
X187766984Y-123101502D02*
X187731270Y-123065788D01*
X187731270Y-123065788D02*
X187659842Y-123030074D01*
X187659842Y-123030074D02*
X187588413Y-123030074D01*
X187588413Y-123030074D02*
X187516984Y-123065788D01*
X187516984Y-123065788D02*
X187481270Y-123101502D01*
X187481270Y-123101502D02*
X187445556Y-123172931D01*
X187445556Y-123172931D02*
X187445556Y-123351502D01*
X187445556Y-123351502D02*
X187481270Y-123458645D01*
X188195556Y-123780074D02*
X187445556Y-123780074D01*
X188195556Y-124101503D02*
X187802699Y-124101503D01*
X187802699Y-124101503D02*
X187731270Y-124065788D01*
X187731270Y-124065788D02*
X187695556Y-123994360D01*
X187695556Y-123994360D02*
X187695556Y-123887217D01*
X187695556Y-123887217D02*
X187731270Y-123815788D01*
X187731270Y-123815788D02*
X187766984Y-123780074D01*
X188195556Y-124458645D02*
X187695556Y-124458645D01*
X187445556Y-124458645D02*
X187481270Y-124422931D01*
X187481270Y-124422931D02*
X187516984Y-124458645D01*
X187516984Y-124458645D02*
X187481270Y-124494359D01*
X187481270Y-124494359D02*
X187445556Y-124458645D01*
X187445556Y-124458645D02*
X187516984Y-124458645D01*
X187695556Y-124815788D02*
X188445556Y-124815788D01*
X187731270Y-124815788D02*
X187695556Y-124887217D01*
X187695556Y-124887217D02*
X187695556Y-125030074D01*
X187695556Y-125030074D02*
X187731270Y-125101502D01*
X187731270Y-125101502D02*
X187766984Y-125137217D01*
X187766984Y-125137217D02*
X187838413Y-125172931D01*
X187838413Y-125172931D02*
X188052699Y-125172931D01*
X188052699Y-125172931D02*
X188124127Y-125137217D01*
X188124127Y-125137217D02*
X188159842Y-125101502D01*
X188159842Y-125101502D02*
X188195556Y-125030074D01*
X188195556Y-125030074D02*
X188195556Y-124887217D01*
X188195556Y-124887217D02*
X188159842Y-124815788D01*
X188195556Y-125494359D02*
X187695556Y-125494359D01*
X187766984Y-125494359D02*
X187731270Y-125530073D01*
X187731270Y-125530073D02*
X187695556Y-125601502D01*
X187695556Y-125601502D02*
X187695556Y-125708645D01*
X187695556Y-125708645D02*
X187731270Y-125780073D01*
X187731270Y-125780073D02*
X187802699Y-125815788D01*
X187802699Y-125815788D02*
X188195556Y-125815788D01*
X187802699Y-125815788D02*
X187731270Y-125851502D01*
X187731270Y-125851502D02*
X187695556Y-125922930D01*
X187695556Y-125922930D02*
X187695556Y-126030073D01*
X187695556Y-126030073D02*
X187731270Y-126101502D01*
X187731270Y-126101502D02*
X187802699Y-126137216D01*
X187802699Y-126137216D02*
X188195556Y-126137216D01*
X188195556Y-126815788D02*
X187802699Y-126815788D01*
X187802699Y-126815788D02*
X187731270Y-126780073D01*
X187731270Y-126780073D02*
X187695556Y-126708645D01*
X187695556Y-126708645D02*
X187695556Y-126565788D01*
X187695556Y-126565788D02*
X187731270Y-126494359D01*
X188159842Y-126815788D02*
X188195556Y-126744359D01*
X188195556Y-126744359D02*
X188195556Y-126565788D01*
X188195556Y-126565788D02*
X188159842Y-126494359D01*
X188159842Y-126494359D02*
X188088413Y-126458645D01*
X188088413Y-126458645D02*
X188016984Y-126458645D01*
X188016984Y-126458645D02*
X187945556Y-126494359D01*
X187945556Y-126494359D02*
X187909842Y-126565788D01*
X187909842Y-126565788D02*
X187909842Y-126744359D01*
X187909842Y-126744359D02*
X187874127Y-126815788D01*
X187695556Y-127172930D02*
X188195556Y-127172930D01*
X187766984Y-127172930D02*
X187731270Y-127208644D01*
X187731270Y-127208644D02*
X187695556Y-127280073D01*
X187695556Y-127280073D02*
X187695556Y-127387216D01*
X187695556Y-127387216D02*
X187731270Y-127458644D01*
X187731270Y-127458644D02*
X187802699Y-127494359D01*
X187802699Y-127494359D02*
X188195556Y-127494359D01*
X188653014Y-118137217D02*
X189403014Y-118387217D01*
X189403014Y-118387217D02*
X188653014Y-118637217D01*
X189403014Y-119280074D02*
X189403014Y-118851503D01*
X189403014Y-119065788D02*
X188653014Y-119065788D01*
X188653014Y-119065788D02*
X188760157Y-118994360D01*
X188760157Y-118994360D02*
X188831585Y-118922931D01*
X188831585Y-118922931D02*
X188867300Y-118851503D01*
X189331585Y-119601503D02*
X189367300Y-119637217D01*
X189367300Y-119637217D02*
X189403014Y-119601503D01*
X189403014Y-119601503D02*
X189367300Y-119565789D01*
X189367300Y-119565789D02*
X189331585Y-119601503D01*
X189331585Y-119601503D02*
X189403014Y-119601503D01*
X188653014Y-120101503D02*
X188653014Y-120172932D01*
X188653014Y-120172932D02*
X188688728Y-120244360D01*
X188688728Y-120244360D02*
X188724442Y-120280075D01*
X188724442Y-120280075D02*
X188795871Y-120315789D01*
X188795871Y-120315789D02*
X188938728Y-120351503D01*
X188938728Y-120351503D02*
X189117300Y-120351503D01*
X189117300Y-120351503D02*
X189260157Y-120315789D01*
X189260157Y-120315789D02*
X189331585Y-120280075D01*
X189331585Y-120280075D02*
X189367300Y-120244360D01*
X189367300Y-120244360D02*
X189403014Y-120172932D01*
X189403014Y-120172932D02*
X189403014Y-120101503D01*
X189403014Y-120101503D02*
X189367300Y-120030075D01*
X189367300Y-120030075D02*
X189331585Y-119994360D01*
X189331585Y-119994360D02*
X189260157Y-119958646D01*
X189260157Y-119958646D02*
X189117300Y-119922932D01*
X189117300Y-119922932D02*
X188938728Y-119922932D01*
X188938728Y-119922932D02*
X188795871Y-119958646D01*
X188795871Y-119958646D02*
X188724442Y-119994360D01*
X188724442Y-119994360D02*
X188688728Y-120030075D01*
X188688728Y-120030075D02*
X188653014Y-120101503D01*
X188653014Y-124208645D02*
X188653014Y-124280074D01*
X188653014Y-124280074D02*
X188688728Y-124351502D01*
X188688728Y-124351502D02*
X188724442Y-124387217D01*
X188724442Y-124387217D02*
X188795871Y-124422931D01*
X188795871Y-124422931D02*
X188938728Y-124458645D01*
X188938728Y-124458645D02*
X189117300Y-124458645D01*
X189117300Y-124458645D02*
X189260157Y-124422931D01*
X189260157Y-124422931D02*
X189331585Y-124387217D01*
X189331585Y-124387217D02*
X189367300Y-124351502D01*
X189367300Y-124351502D02*
X189403014Y-124280074D01*
X189403014Y-124280074D02*
X189403014Y-124208645D01*
X189403014Y-124208645D02*
X189367300Y-124137217D01*
X189367300Y-124137217D02*
X189331585Y-124101502D01*
X189331585Y-124101502D02*
X189260157Y-124065788D01*
X189260157Y-124065788D02*
X189117300Y-124030074D01*
X189117300Y-124030074D02*
X188938728Y-124030074D01*
X188938728Y-124030074D02*
X188795871Y-124065788D01*
X188795871Y-124065788D02*
X188724442Y-124101502D01*
X188724442Y-124101502D02*
X188688728Y-124137217D01*
X188688728Y-124137217D02*
X188653014Y-124208645D01*
X188724442Y-124744360D02*
X188688728Y-124780074D01*
X188688728Y-124780074D02*
X188653014Y-124851503D01*
X188653014Y-124851503D02*
X188653014Y-125030074D01*
X188653014Y-125030074D02*
X188688728Y-125101503D01*
X188688728Y-125101503D02*
X188724442Y-125137217D01*
X188724442Y-125137217D02*
X188795871Y-125172931D01*
X188795871Y-125172931D02*
X188867300Y-125172931D01*
X188867300Y-125172931D02*
X188974442Y-125137217D01*
X188974442Y-125137217D02*
X189403014Y-124708645D01*
X189403014Y-124708645D02*
X189403014Y-125172931D01*
X188617300Y-126030074D02*
X189581585Y-125387217D01*
X189403014Y-126672931D02*
X189403014Y-126244360D01*
X189403014Y-126458645D02*
X188653014Y-126458645D01*
X188653014Y-126458645D02*
X188760157Y-126387217D01*
X188760157Y-126387217D02*
X188831585Y-126315788D01*
X188831585Y-126315788D02*
X188867300Y-126244360D01*
X188903014Y-127315789D02*
X189403014Y-127315789D01*
X188617300Y-127137217D02*
X189153014Y-126958646D01*
X189153014Y-126958646D02*
X189153014Y-127422931D01*
X188617300Y-128244360D02*
X189581585Y-127601503D01*
X188724442Y-128458646D02*
X188688728Y-128494360D01*
X188688728Y-128494360D02*
X188653014Y-128565789D01*
X188653014Y-128565789D02*
X188653014Y-128744360D01*
X188653014Y-128744360D02*
X188688728Y-128815789D01*
X188688728Y-128815789D02*
X188724442Y-128851503D01*
X188724442Y-128851503D02*
X188795871Y-128887217D01*
X188795871Y-128887217D02*
X188867300Y-128887217D01*
X188867300Y-128887217D02*
X188974442Y-128851503D01*
X188974442Y-128851503D02*
X189403014Y-128422931D01*
X189403014Y-128422931D02*
X189403014Y-128887217D01*
X188653014Y-129351503D02*
X188653014Y-129422932D01*
X188653014Y-129422932D02*
X188688728Y-129494360D01*
X188688728Y-129494360D02*
X188724442Y-129530075D01*
X188724442Y-129530075D02*
X188795871Y-129565789D01*
X188795871Y-129565789D02*
X188938728Y-129601503D01*
X188938728Y-129601503D02*
X189117300Y-129601503D01*
X189117300Y-129601503D02*
X189260157Y-129565789D01*
X189260157Y-129565789D02*
X189331585Y-129530075D01*
X189331585Y-129530075D02*
X189367300Y-129494360D01*
X189367300Y-129494360D02*
X189403014Y-129422932D01*
X189403014Y-129422932D02*
X189403014Y-129351503D01*
X189403014Y-129351503D02*
X189367300Y-129280075D01*
X189367300Y-129280075D02*
X189331585Y-129244360D01*
X189331585Y-129244360D02*
X189260157Y-129208646D01*
X189260157Y-129208646D02*
X189117300Y-129172932D01*
X189117300Y-129172932D02*
X188938728Y-129172932D01*
X188938728Y-129172932D02*
X188795871Y-129208646D01*
X188795871Y-129208646D02*
X188724442Y-129244360D01*
X188724442Y-129244360D02*
X188688728Y-129280075D01*
X188688728Y-129280075D02*
X188653014Y-129351503D01*
X188724442Y-129887218D02*
X188688728Y-129922932D01*
X188688728Y-129922932D02*
X188653014Y-129994361D01*
X188653014Y-129994361D02*
X188653014Y-130172932D01*
X188653014Y-130172932D02*
X188688728Y-130244361D01*
X188688728Y-130244361D02*
X188724442Y-130280075D01*
X188724442Y-130280075D02*
X188795871Y-130315789D01*
X188795871Y-130315789D02*
X188867300Y-130315789D01*
X188867300Y-130315789D02*
X188974442Y-130280075D01*
X188974442Y-130280075D02*
X189403014Y-129851503D01*
X189403014Y-129851503D02*
X189403014Y-130315789D01*
X188653014Y-130994361D02*
X188653014Y-130637218D01*
X188653014Y-130637218D02*
X189010157Y-130601504D01*
X189010157Y-130601504D02*
X188974442Y-130637218D01*
X188974442Y-130637218D02*
X188938728Y-130708647D01*
X188938728Y-130708647D02*
X188938728Y-130887218D01*
X188938728Y-130887218D02*
X188974442Y-130958647D01*
X188974442Y-130958647D02*
X189010157Y-130994361D01*
X189010157Y-130994361D02*
X189081585Y-131030075D01*
X189081585Y-131030075D02*
X189260157Y-131030075D01*
X189260157Y-131030075D02*
X189331585Y-130994361D01*
X189331585Y-130994361D02*
X189367300Y-130958647D01*
X189367300Y-130958647D02*
X189403014Y-130887218D01*
X189403014Y-130887218D02*
X189403014Y-130708647D01*
X189403014Y-130708647D02*
X189367300Y-130637218D01*
X189367300Y-130637218D02*
X189331585Y-130601504D01*
D12*
X186150414Y-118170112D02*
X186150414Y-118598684D01*
X186900414Y-118384398D02*
X186150414Y-118384398D01*
X186864700Y-119134398D02*
X186900414Y-119062970D01*
X186900414Y-119062970D02*
X186900414Y-118920113D01*
X186900414Y-118920113D02*
X186864700Y-118848684D01*
X186864700Y-118848684D02*
X186793271Y-118812970D01*
X186793271Y-118812970D02*
X186507557Y-118812970D01*
X186507557Y-118812970D02*
X186436128Y-118848684D01*
X186436128Y-118848684D02*
X186400414Y-118920113D01*
X186400414Y-118920113D02*
X186400414Y-119062970D01*
X186400414Y-119062970D02*
X186436128Y-119134398D01*
X186436128Y-119134398D02*
X186507557Y-119170113D01*
X186507557Y-119170113D02*
X186578985Y-119170113D01*
X186578985Y-119170113D02*
X186650414Y-118812970D01*
X186900414Y-119491541D02*
X186400414Y-119491541D01*
X186543271Y-119491541D02*
X186471842Y-119527255D01*
X186471842Y-119527255D02*
X186436128Y-119562970D01*
X186436128Y-119562970D02*
X186400414Y-119634398D01*
X186400414Y-119634398D02*
X186400414Y-119705827D01*
X186900414Y-119955827D02*
X186400414Y-119955827D01*
X186471842Y-119955827D02*
X186436128Y-119991541D01*
X186436128Y-119991541D02*
X186400414Y-120062970D01*
X186400414Y-120062970D02*
X186400414Y-120170113D01*
X186400414Y-120170113D02*
X186436128Y-120241541D01*
X186436128Y-120241541D02*
X186507557Y-120277256D01*
X186507557Y-120277256D02*
X186900414Y-120277256D01*
X186507557Y-120277256D02*
X186436128Y-120312970D01*
X186436128Y-120312970D02*
X186400414Y-120384398D01*
X186400414Y-120384398D02*
X186400414Y-120491541D01*
X186400414Y-120491541D02*
X186436128Y-120562970D01*
X186436128Y-120562970D02*
X186507557Y-120598684D01*
X186507557Y-120598684D02*
X186900414Y-120598684D01*
X186900414Y-120955827D02*
X186400414Y-120955827D01*
X186150414Y-120955827D02*
X186186128Y-120920113D01*
X186186128Y-120920113D02*
X186221842Y-120955827D01*
X186221842Y-120955827D02*
X186186128Y-120991541D01*
X186186128Y-120991541D02*
X186150414Y-120955827D01*
X186150414Y-120955827D02*
X186221842Y-120955827D01*
X186400414Y-121312970D02*
X186900414Y-121312970D01*
X186471842Y-121312970D02*
X186436128Y-121348684D01*
X186436128Y-121348684D02*
X186400414Y-121420113D01*
X186400414Y-121420113D02*
X186400414Y-121527256D01*
X186400414Y-121527256D02*
X186436128Y-121598684D01*
X186436128Y-121598684D02*
X186507557Y-121634399D01*
X186507557Y-121634399D02*
X186900414Y-121634399D01*
X186900414Y-122312970D02*
X186507557Y-122312970D01*
X186507557Y-122312970D02*
X186436128Y-122277255D01*
X186436128Y-122277255D02*
X186400414Y-122205827D01*
X186400414Y-122205827D02*
X186400414Y-122062970D01*
X186400414Y-122062970D02*
X186436128Y-121991541D01*
X186864700Y-122312970D02*
X186900414Y-122241541D01*
X186900414Y-122241541D02*
X186900414Y-122062970D01*
X186900414Y-122062970D02*
X186864700Y-121991541D01*
X186864700Y-121991541D02*
X186793271Y-121955827D01*
X186793271Y-121955827D02*
X186721842Y-121955827D01*
X186721842Y-121955827D02*
X186650414Y-121991541D01*
X186650414Y-121991541D02*
X186614700Y-122062970D01*
X186614700Y-122062970D02*
X186614700Y-122241541D01*
X186614700Y-122241541D02*
X186578985Y-122312970D01*
X186400414Y-122562969D02*
X186400414Y-122848683D01*
X186150414Y-122670112D02*
X186793271Y-122670112D01*
X186793271Y-122670112D02*
X186864700Y-122705826D01*
X186864700Y-122705826D02*
X186900414Y-122777255D01*
X186900414Y-122777255D02*
X186900414Y-122848683D01*
X186900414Y-123205826D02*
X186864700Y-123134397D01*
X186864700Y-123134397D02*
X186828985Y-123098683D01*
X186828985Y-123098683D02*
X186757557Y-123062969D01*
X186757557Y-123062969D02*
X186543271Y-123062969D01*
X186543271Y-123062969D02*
X186471842Y-123098683D01*
X186471842Y-123098683D02*
X186436128Y-123134397D01*
X186436128Y-123134397D02*
X186400414Y-123205826D01*
X186400414Y-123205826D02*
X186400414Y-123312969D01*
X186400414Y-123312969D02*
X186436128Y-123384397D01*
X186436128Y-123384397D02*
X186471842Y-123420112D01*
X186471842Y-123420112D02*
X186543271Y-123455826D01*
X186543271Y-123455826D02*
X186757557Y-123455826D01*
X186757557Y-123455826D02*
X186828985Y-123420112D01*
X186828985Y-123420112D02*
X186864700Y-123384397D01*
X186864700Y-123384397D02*
X186900414Y-123312969D01*
X186900414Y-123312969D02*
X186900414Y-123205826D01*
X186900414Y-123777254D02*
X186400414Y-123777254D01*
X186543271Y-123777254D02*
X186471842Y-123812968D01*
X186471842Y-123812968D02*
X186436128Y-123848683D01*
X186436128Y-123848683D02*
X186400414Y-123920111D01*
X186400414Y-123920111D02*
X186400414Y-123991540D01*
X186900414Y-125170112D02*
X186900414Y-124812969D01*
X186900414Y-124812969D02*
X186150414Y-124812969D01*
X186900414Y-125527255D02*
X186864700Y-125455826D01*
X186864700Y-125455826D02*
X186828985Y-125420112D01*
X186828985Y-125420112D02*
X186757557Y-125384398D01*
X186757557Y-125384398D02*
X186543271Y-125384398D01*
X186543271Y-125384398D02*
X186471842Y-125420112D01*
X186471842Y-125420112D02*
X186436128Y-125455826D01*
X186436128Y-125455826D02*
X186400414Y-125527255D01*
X186400414Y-125527255D02*
X186400414Y-125634398D01*
X186400414Y-125634398D02*
X186436128Y-125705826D01*
X186436128Y-125705826D02*
X186471842Y-125741541D01*
X186471842Y-125741541D02*
X186543271Y-125777255D01*
X186543271Y-125777255D02*
X186757557Y-125777255D01*
X186757557Y-125777255D02*
X186828985Y-125741541D01*
X186828985Y-125741541D02*
X186864700Y-125705826D01*
X186864700Y-125705826D02*
X186900414Y-125634398D01*
X186900414Y-125634398D02*
X186900414Y-125527255D01*
X186400414Y-126420112D02*
X187007557Y-126420112D01*
X187007557Y-126420112D02*
X187078985Y-126384397D01*
X187078985Y-126384397D02*
X187114700Y-126348683D01*
X187114700Y-126348683D02*
X187150414Y-126277254D01*
X187150414Y-126277254D02*
X187150414Y-126170112D01*
X187150414Y-126170112D02*
X187114700Y-126098683D01*
X186864700Y-126420112D02*
X186900414Y-126348683D01*
X186900414Y-126348683D02*
X186900414Y-126205826D01*
X186900414Y-126205826D02*
X186864700Y-126134397D01*
X186864700Y-126134397D02*
X186828985Y-126098683D01*
X186828985Y-126098683D02*
X186757557Y-126062969D01*
X186757557Y-126062969D02*
X186543271Y-126062969D01*
X186543271Y-126062969D02*
X186471842Y-126098683D01*
X186471842Y-126098683D02*
X186436128Y-126134397D01*
X186436128Y-126134397D02*
X186400414Y-126205826D01*
X186400414Y-126205826D02*
X186400414Y-126348683D01*
X186400414Y-126348683D02*
X186436128Y-126420112D01*
X186900414Y-126777254D02*
X186400414Y-126777254D01*
X186150414Y-126777254D02*
X186186128Y-126741540D01*
X186186128Y-126741540D02*
X186221842Y-126777254D01*
X186221842Y-126777254D02*
X186186128Y-126812968D01*
X186186128Y-126812968D02*
X186150414Y-126777254D01*
X186150414Y-126777254D02*
X186221842Y-126777254D01*
X186864700Y-127455826D02*
X186900414Y-127384397D01*
X186900414Y-127384397D02*
X186900414Y-127241540D01*
X186900414Y-127241540D02*
X186864700Y-127170111D01*
X186864700Y-127170111D02*
X186828985Y-127134397D01*
X186828985Y-127134397D02*
X186757557Y-127098683D01*
X186757557Y-127098683D02*
X186543271Y-127098683D01*
X186543271Y-127098683D02*
X186471842Y-127134397D01*
X186471842Y-127134397D02*
X186436128Y-127170111D01*
X186436128Y-127170111D02*
X186400414Y-127241540D01*
X186400414Y-127241540D02*
X186400414Y-127384397D01*
X186400414Y-127384397D02*
X186436128Y-127455826D01*
X186507557Y-128598683D02*
X186543271Y-128705826D01*
X186543271Y-128705826D02*
X186578985Y-128741540D01*
X186578985Y-128741540D02*
X186650414Y-128777254D01*
X186650414Y-128777254D02*
X186757557Y-128777254D01*
X186757557Y-128777254D02*
X186828985Y-128741540D01*
X186828985Y-128741540D02*
X186864700Y-128705826D01*
X186864700Y-128705826D02*
X186900414Y-128634397D01*
X186900414Y-128634397D02*
X186900414Y-128348683D01*
X186900414Y-128348683D02*
X186150414Y-128348683D01*
X186150414Y-128348683D02*
X186150414Y-128598683D01*
X186150414Y-128598683D02*
X186186128Y-128670112D01*
X186186128Y-128670112D02*
X186221842Y-128705826D01*
X186221842Y-128705826D02*
X186293271Y-128741540D01*
X186293271Y-128741540D02*
X186364700Y-128741540D01*
X186364700Y-128741540D02*
X186436128Y-128705826D01*
X186436128Y-128705826D02*
X186471842Y-128670112D01*
X186471842Y-128670112D02*
X186507557Y-128598683D01*
X186507557Y-128598683D02*
X186507557Y-128348683D01*
X186900414Y-129205826D02*
X186864700Y-129134397D01*
X186864700Y-129134397D02*
X186828985Y-129098683D01*
X186828985Y-129098683D02*
X186757557Y-129062969D01*
X186757557Y-129062969D02*
X186543271Y-129062969D01*
X186543271Y-129062969D02*
X186471842Y-129098683D01*
X186471842Y-129098683D02*
X186436128Y-129134397D01*
X186436128Y-129134397D02*
X186400414Y-129205826D01*
X186400414Y-129205826D02*
X186400414Y-129312969D01*
X186400414Y-129312969D02*
X186436128Y-129384397D01*
X186436128Y-129384397D02*
X186471842Y-129420112D01*
X186471842Y-129420112D02*
X186543271Y-129455826D01*
X186543271Y-129455826D02*
X186757557Y-129455826D01*
X186757557Y-129455826D02*
X186828985Y-129420112D01*
X186828985Y-129420112D02*
X186864700Y-129384397D01*
X186864700Y-129384397D02*
X186900414Y-129312969D01*
X186900414Y-129312969D02*
X186900414Y-129205826D01*
X186900414Y-130098683D02*
X186507557Y-130098683D01*
X186507557Y-130098683D02*
X186436128Y-130062968D01*
X186436128Y-130062968D02*
X186400414Y-129991540D01*
X186400414Y-129991540D02*
X186400414Y-129848683D01*
X186400414Y-129848683D02*
X186436128Y-129777254D01*
X186864700Y-130098683D02*
X186900414Y-130027254D01*
X186900414Y-130027254D02*
X186900414Y-129848683D01*
X186900414Y-129848683D02*
X186864700Y-129777254D01*
X186864700Y-129777254D02*
X186793271Y-129741540D01*
X186793271Y-129741540D02*
X186721842Y-129741540D01*
X186721842Y-129741540D02*
X186650414Y-129777254D01*
X186650414Y-129777254D02*
X186614700Y-129848683D01*
X186614700Y-129848683D02*
X186614700Y-130027254D01*
X186614700Y-130027254D02*
X186578985Y-130098683D01*
X186900414Y-130455825D02*
X186400414Y-130455825D01*
X186543271Y-130455825D02*
X186471842Y-130491539D01*
X186471842Y-130491539D02*
X186436128Y-130527254D01*
X186436128Y-130527254D02*
X186400414Y-130598682D01*
X186400414Y-130598682D02*
X186400414Y-130670111D01*
X186900414Y-131241540D02*
X186150414Y-131241540D01*
X186864700Y-131241540D02*
X186900414Y-131170111D01*
X186900414Y-131170111D02*
X186900414Y-131027254D01*
X186900414Y-131027254D02*
X186864700Y-130955825D01*
X186864700Y-130955825D02*
X186828985Y-130920111D01*
X186828985Y-130920111D02*
X186757557Y-130884397D01*
X186757557Y-130884397D02*
X186543271Y-130884397D01*
X186543271Y-130884397D02*
X186471842Y-130920111D01*
X186471842Y-130920111D02*
X186436128Y-130955825D01*
X186436128Y-130955825D02*
X186400414Y-131027254D01*
X186400414Y-131027254D02*
X186400414Y-131170111D01*
X186400414Y-131170111D02*
X186436128Y-131241540D01*
D10*
X159524809Y-136978571D02*
X159286714Y-136811905D01*
X159524809Y-136692857D02*
X159024809Y-136692857D01*
X159024809Y-136692857D02*
X159024809Y-136883333D01*
X159024809Y-136883333D02*
X159048619Y-136930952D01*
X159048619Y-136930952D02*
X159072428Y-136954762D01*
X159072428Y-136954762D02*
X159120047Y-136978571D01*
X159120047Y-136978571D02*
X159191476Y-136978571D01*
X159191476Y-136978571D02*
X159239095Y-136954762D01*
X159239095Y-136954762D02*
X159262904Y-136930952D01*
X159262904Y-136930952D02*
X159286714Y-136883333D01*
X159286714Y-136883333D02*
X159286714Y-136692857D01*
X159524809Y-137454762D02*
X159524809Y-137169048D01*
X159524809Y-137311905D02*
X159024809Y-137311905D01*
X159024809Y-137311905D02*
X159096238Y-137264286D01*
X159096238Y-137264286D02*
X159143857Y-137216667D01*
X159143857Y-137216667D02*
X159167666Y-137169048D01*
X159024809Y-137621428D02*
X159024809Y-137930952D01*
X159024809Y-137930952D02*
X159215285Y-137764285D01*
X159215285Y-137764285D02*
X159215285Y-137835714D01*
X159215285Y-137835714D02*
X159239095Y-137883333D01*
X159239095Y-137883333D02*
X159262904Y-137907142D01*
X159262904Y-137907142D02*
X159310523Y-137930952D01*
X159310523Y-137930952D02*
X159429571Y-137930952D01*
X159429571Y-137930952D02*
X159477190Y-137907142D01*
X159477190Y-137907142D02*
X159501000Y-137883333D01*
X159501000Y-137883333D02*
X159524809Y-137835714D01*
X159524809Y-137835714D02*
X159524809Y-137692857D01*
X159524809Y-137692857D02*
X159501000Y-137645238D01*
X159501000Y-137645238D02*
X159477190Y-137621428D01*
X180530951Y-116826809D02*
X180245237Y-116826809D01*
X180388094Y-117326809D02*
X180388094Y-116826809D01*
X180078571Y-117326809D02*
X180078571Y-116826809D01*
X180078571Y-116826809D02*
X179888095Y-116826809D01*
X179888095Y-116826809D02*
X179840476Y-116850619D01*
X179840476Y-116850619D02*
X179816666Y-116874428D01*
X179816666Y-116874428D02*
X179792857Y-116922047D01*
X179792857Y-116922047D02*
X179792857Y-116993476D01*
X179792857Y-116993476D02*
X179816666Y-117041095D01*
X179816666Y-117041095D02*
X179840476Y-117064904D01*
X179840476Y-117064904D02*
X179888095Y-117088714D01*
X179888095Y-117088714D02*
X180078571Y-117088714D01*
X179340476Y-116826809D02*
X179578571Y-116826809D01*
X179578571Y-116826809D02*
X179602380Y-117064904D01*
X179602380Y-117064904D02*
X179578571Y-117041095D01*
X179578571Y-117041095D02*
X179530952Y-117017285D01*
X179530952Y-117017285D02*
X179411904Y-117017285D01*
X179411904Y-117017285D02*
X179364285Y-117041095D01*
X179364285Y-117041095D02*
X179340476Y-117064904D01*
X179340476Y-117064904D02*
X179316666Y-117112523D01*
X179316666Y-117112523D02*
X179316666Y-117231571D01*
X179316666Y-117231571D02*
X179340476Y-117279190D01*
X179340476Y-117279190D02*
X179364285Y-117303000D01*
X179364285Y-117303000D02*
X179411904Y-117326809D01*
X179411904Y-117326809D02*
X179530952Y-117326809D01*
X179530952Y-117326809D02*
X179578571Y-117303000D01*
X179578571Y-117303000D02*
X179602380Y-117279190D01*
X183730951Y-119826809D02*
X183445237Y-119826809D01*
X183588094Y-120326809D02*
X183588094Y-119826809D01*
X183278571Y-120326809D02*
X183278571Y-119826809D01*
X183278571Y-119826809D02*
X183088095Y-119826809D01*
X183088095Y-119826809D02*
X183040476Y-119850619D01*
X183040476Y-119850619D02*
X183016666Y-119874428D01*
X183016666Y-119874428D02*
X182992857Y-119922047D01*
X182992857Y-119922047D02*
X182992857Y-119993476D01*
X182992857Y-119993476D02*
X183016666Y-120041095D01*
X183016666Y-120041095D02*
X183040476Y-120064904D01*
X183040476Y-120064904D02*
X183088095Y-120088714D01*
X183088095Y-120088714D02*
X183278571Y-120088714D01*
X182564285Y-119993476D02*
X182564285Y-120326809D01*
X182683333Y-119803000D02*
X182802380Y-120160142D01*
X182802380Y-120160142D02*
X182492857Y-120160142D01*
X153392856Y-141632904D02*
X153321428Y-141656714D01*
X153321428Y-141656714D02*
X153297618Y-141680523D01*
X153297618Y-141680523D02*
X153273809Y-141728142D01*
X153273809Y-141728142D02*
X153273809Y-141799571D01*
X153273809Y-141799571D02*
X153297618Y-141847190D01*
X153297618Y-141847190D02*
X153321428Y-141871000D01*
X153321428Y-141871000D02*
X153369047Y-141894809D01*
X153369047Y-141894809D02*
X153559523Y-141894809D01*
X153559523Y-141894809D02*
X153559523Y-141394809D01*
X153559523Y-141394809D02*
X153392856Y-141394809D01*
X153392856Y-141394809D02*
X153345237Y-141418619D01*
X153345237Y-141418619D02*
X153321428Y-141442428D01*
X153321428Y-141442428D02*
X153297618Y-141490047D01*
X153297618Y-141490047D02*
X153297618Y-141537666D01*
X153297618Y-141537666D02*
X153321428Y-141585285D01*
X153321428Y-141585285D02*
X153345237Y-141609095D01*
X153345237Y-141609095D02*
X153392856Y-141632904D01*
X153392856Y-141632904D02*
X153559523Y-141632904D01*
X153130951Y-141394809D02*
X152845237Y-141394809D01*
X152988094Y-141894809D02*
X152988094Y-141394809D01*
X152416666Y-141894809D02*
X152702380Y-141894809D01*
X152559523Y-141894809D02*
X152559523Y-141394809D01*
X152559523Y-141394809D02*
X152607142Y-141466238D01*
X152607142Y-141466238D02*
X152654761Y-141513857D01*
X152654761Y-141513857D02*
X152702380Y-141537666D01*
X156483333Y-115277190D02*
X156507142Y-115301000D01*
X156507142Y-115301000D02*
X156578571Y-115324809D01*
X156578571Y-115324809D02*
X156626190Y-115324809D01*
X156626190Y-115324809D02*
X156697618Y-115301000D01*
X156697618Y-115301000D02*
X156745237Y-115253380D01*
X156745237Y-115253380D02*
X156769047Y-115205761D01*
X156769047Y-115205761D02*
X156792856Y-115110523D01*
X156792856Y-115110523D02*
X156792856Y-115039095D01*
X156792856Y-115039095D02*
X156769047Y-114943857D01*
X156769047Y-114943857D02*
X156745237Y-114896238D01*
X156745237Y-114896238D02*
X156697618Y-114848619D01*
X156697618Y-114848619D02*
X156626190Y-114824809D01*
X156626190Y-114824809D02*
X156578571Y-114824809D01*
X156578571Y-114824809D02*
X156507142Y-114848619D01*
X156507142Y-114848619D02*
X156483333Y-114872428D01*
X156316666Y-114824809D02*
X156007142Y-114824809D01*
X156007142Y-114824809D02*
X156173809Y-115015285D01*
X156173809Y-115015285D02*
X156102380Y-115015285D01*
X156102380Y-115015285D02*
X156054761Y-115039095D01*
X156054761Y-115039095D02*
X156030952Y-115062904D01*
X156030952Y-115062904D02*
X156007142Y-115110523D01*
X156007142Y-115110523D02*
X156007142Y-115229571D01*
X156007142Y-115229571D02*
X156030952Y-115277190D01*
X156030952Y-115277190D02*
X156054761Y-115301000D01*
X156054761Y-115301000D02*
X156102380Y-115324809D01*
X156102380Y-115324809D02*
X156245237Y-115324809D01*
X156245237Y-115324809D02*
X156292856Y-115301000D01*
X156292856Y-115301000D02*
X156316666Y-115277190D01*
D13*
G36*
X183921171Y-137747319D02*
G01*
X183873068Y-137764170D01*
X183821640Y-137783949D01*
X183771785Y-137804901D01*
X183728400Y-137825268D01*
X183638049Y-137876520D01*
X183519953Y-137964280D01*
X183418545Y-138067226D01*
X183333884Y-138185302D01*
X183266710Y-138287816D01*
X183172981Y-138407559D01*
X183067668Y-138517522D01*
X182948572Y-138619552D01*
X182813498Y-138715491D01*
X182660247Y-138807184D01*
X182486622Y-138896477D01*
X182458299Y-138909932D01*
X182227078Y-139007924D01*
X181996787Y-139084474D01*
X181768208Y-139139391D01*
X181542122Y-139172482D01*
X181319313Y-139183556D01*
X181315009Y-139183552D01*
X181155447Y-139177019D01*
X181013719Y-139157813D01*
X180888763Y-139125584D01*
X180779514Y-139079980D01*
X180684909Y-139020649D01*
X180603885Y-138947240D01*
X180554437Y-138887365D01*
X180513179Y-138819109D01*
X180483770Y-138743548D01*
X180464389Y-138655899D01*
X180453216Y-138551378D01*
X180452305Y-138432212D01*
X180776604Y-138432212D01*
X180782025Y-138483431D01*
X180800130Y-138532072D01*
X180836957Y-138590845D01*
X180899765Y-138653754D01*
X180979645Y-138702119D01*
X181076317Y-138735731D01*
X181177048Y-138753078D01*
X181300976Y-138758668D01*
X181438179Y-138750944D01*
X181586388Y-138730314D01*
X181743334Y-138697183D01*
X181906749Y-138651956D01*
X182074364Y-138595040D01*
X182243911Y-138526841D01*
X182259259Y-138520125D01*
X182417375Y-138444478D01*
X182563281Y-138362761D01*
X182695263Y-138276290D01*
X182811604Y-138186379D01*
X182910589Y-138094344D01*
X182990501Y-138001501D01*
X183049625Y-137909164D01*
X183069096Y-137869558D01*
X183093258Y-137802818D01*
X183100918Y-137742636D01*
X183092421Y-137683596D01*
X183068115Y-137620287D01*
X183023963Y-137546014D01*
X182953864Y-137466258D01*
X182866660Y-137397139D01*
X182764648Y-137340428D01*
X182650126Y-137297897D01*
X182594884Y-137285181D01*
X182510171Y-137273466D01*
X182415334Y-137266911D01*
X182317058Y-137265743D01*
X182222025Y-137270188D01*
X182136918Y-137280473D01*
X182041278Y-137300418D01*
X181880724Y-137349326D01*
X181720714Y-137416157D01*
X181563992Y-137498918D01*
X181413301Y-137595614D01*
X181271385Y-137704253D01*
X181140987Y-137822840D01*
X181024849Y-137949382D01*
X180925717Y-138081885D01*
X180846332Y-138218356D01*
X180841627Y-138227882D01*
X180805886Y-138307958D01*
X180784385Y-138374895D01*
X180776604Y-138432212D01*
X180452305Y-138432212D01*
X180452243Y-138424066D01*
X180469015Y-138288467D01*
X180504987Y-138154116D01*
X180560794Y-138019180D01*
X180637072Y-137881825D01*
X180734457Y-137740219D01*
X180737567Y-137736081D01*
X180872324Y-137575440D01*
X181025881Y-137425737D01*
X181196653Y-137288251D01*
X181383057Y-137164258D01*
X181583511Y-137055036D01*
X181672098Y-137013078D01*
X181779143Y-136967571D01*
X181882016Y-136930860D01*
X181988593Y-136900203D01*
X182106753Y-136872858D01*
X182209837Y-136855867D01*
X182324514Y-136845030D01*
X182443736Y-136840525D01*
X182560972Y-136842424D01*
X182669688Y-136850798D01*
X182763350Y-136865717D01*
X182871798Y-136894737D01*
X182996680Y-136942461D01*
X183111173Y-137002105D01*
X183211468Y-137071635D01*
X183293756Y-137149018D01*
X183299910Y-137156117D01*
X183333790Y-137201049D01*
X183368955Y-137255576D01*
X183401512Y-137312928D01*
X183427569Y-137366334D01*
X183443235Y-137409025D01*
X183445517Y-137415793D01*
X183451205Y-137420873D01*
X183461782Y-137417263D01*
X183479966Y-137403093D01*
X183508474Y-137376493D01*
X183550025Y-137335596D01*
X183568513Y-137317535D01*
X183638135Y-137253706D01*
X183716394Y-137187241D01*
X183799738Y-137120758D01*
X183884614Y-137056877D01*
X183967470Y-136998215D01*
X184044753Y-136947392D01*
X184112911Y-136907027D01*
X184168392Y-136879738D01*
X184230985Y-136853794D01*
X184475320Y-136452342D01*
X184531008Y-136360888D01*
X184719442Y-136052114D01*
X184902174Y-135753742D01*
X185078845Y-135466339D01*
X185249096Y-135190472D01*
X185412570Y-134926706D01*
X185568908Y-134675609D01*
X185717751Y-134437748D01*
X185858742Y-134213688D01*
X185991522Y-134003996D01*
X186115731Y-133809238D01*
X186231013Y-133629982D01*
X186337009Y-133466794D01*
X186433360Y-133320240D01*
X186519707Y-133190886D01*
X186595693Y-133079300D01*
X186660960Y-132986048D01*
X186715148Y-132911696D01*
X186761781Y-132853357D01*
X186822756Y-132787831D01*
X186891958Y-132725065D01*
X186972617Y-132662391D01*
X187067961Y-132597141D01*
X187181222Y-132526646D01*
X187184746Y-132524536D01*
X187256017Y-132483482D01*
X187342037Y-132436331D01*
X187437225Y-132385952D01*
X187536001Y-132335215D01*
X187632783Y-132286988D01*
X187721991Y-132244141D01*
X187798044Y-132209542D01*
X187905289Y-132162724D01*
X187908689Y-132218402D01*
X187909111Y-132236012D01*
X187906179Y-132272759D01*
X187899096Y-132298357D01*
X187895810Y-132304671D01*
X187891846Y-132316638D01*
X187900674Y-132313630D01*
X187903747Y-132312644D01*
X187903003Y-132321678D01*
X187891746Y-132343312D01*
X187885958Y-132353042D01*
X187868935Y-132381838D01*
X187841512Y-132428306D01*
X187804267Y-132491464D01*
X187757778Y-132570332D01*
X187702624Y-132663927D01*
X187639384Y-132771267D01*
X187568634Y-132891370D01*
X187490955Y-133023255D01*
X187406923Y-133165941D01*
X187317117Y-133318444D01*
X187222117Y-133479783D01*
X187122499Y-133648977D01*
X187018842Y-133825043D01*
X186911725Y-134007000D01*
X186801726Y-134193867D01*
X186717196Y-134337469D01*
X186608532Y-134522065D01*
X186502887Y-134701525D01*
X186400863Y-134874827D01*
X186303063Y-135040946D01*
X186210090Y-135198861D01*
X186122545Y-135347548D01*
X186041031Y-135485984D01*
X185966150Y-135613147D01*
X185898506Y-135728013D01*
X185838699Y-135829559D01*
X185787333Y-135916762D01*
X185745010Y-135988600D01*
X185712332Y-136044049D01*
X185689901Y-136082086D01*
X185678321Y-136101689D01*
X185662443Y-136128850D01*
X185642070Y-136165098D01*
X185628765Y-136190645D01*
X185624843Y-136201184D01*
X185627674Y-136200136D01*
X185648202Y-136191151D01*
X185687760Y-136173360D01*
X185745382Y-136147206D01*
X185820099Y-136113135D01*
X185910944Y-136071592D01*
X186016951Y-136023019D01*
X186137153Y-135967863D01*
X186270581Y-135906566D01*
X186416268Y-135839575D01*
X186573248Y-135767333D01*
X186740553Y-135690284D01*
X186917216Y-135608874D01*
X187102270Y-135523547D01*
X187294747Y-135434746D01*
X187493680Y-135342917D01*
X187698103Y-135248504D01*
X187800007Y-135201432D01*
X188002204Y-135108061D01*
X188198586Y-135017415D01*
X188388176Y-134929942D01*
X188569996Y-134846094D01*
X188743065Y-134766320D01*
X188906407Y-134691070D01*
X189059041Y-134620795D01*
X189199990Y-134555945D01*
X189328276Y-134496969D01*
X189442918Y-134444319D01*
X189542939Y-134398444D01*
X189627361Y-134359794D01*
X189695204Y-134328820D01*
X189745490Y-134305971D01*
X189777240Y-134291699D01*
X189789476Y-134286452D01*
X189801358Y-134285060D01*
X189804257Y-134291527D01*
X189800793Y-134305367D01*
X189797378Y-134335812D01*
X189795180Y-134375149D01*
X189794753Y-134386291D01*
X189792073Y-134417297D01*
X189785821Y-134445221D01*
X189773953Y-134475653D01*
X189754421Y-134514183D01*
X189725181Y-134566400D01*
X189705428Y-134600216D01*
X189669412Y-134659783D01*
X189627217Y-134727831D01*
X189582583Y-134798350D01*
X189539247Y-134865330D01*
X189537590Y-134867857D01*
X189445747Y-135004563D01*
X189361400Y-135122773D01*
X189282715Y-135224503D01*
X189207857Y-135311768D01*
X189134990Y-135386583D01*
X189062282Y-135450962D01*
X188987897Y-135506921D01*
X188910000Y-135556474D01*
X188877318Y-135575398D01*
X188786956Y-135626120D01*
X188677499Y-135685718D01*
X188549900Y-135753716D01*
X188405111Y-135829637D01*
X188244085Y-135913005D01*
X188067773Y-136003345D01*
X187877130Y-136100179D01*
X187673107Y-136203033D01*
X187456656Y-136311430D01*
X187228730Y-136424893D01*
X186990281Y-136542947D01*
X186742262Y-136665115D01*
X186485625Y-136790922D01*
X186221323Y-136919891D01*
X185950308Y-137051545D01*
X185673532Y-137185410D01*
X185391949Y-137321009D01*
X185106509Y-137457865D01*
X185073791Y-137473524D01*
X184991721Y-137512942D01*
X184926926Y-137544491D01*
X184877086Y-137569523D01*
X184839881Y-137589392D01*
X184812991Y-137605449D01*
X184794098Y-137619047D01*
X184780881Y-137631538D01*
X184771021Y-137644274D01*
X184762198Y-137658609D01*
X184727262Y-137712049D01*
X184678466Y-137777193D01*
X184618822Y-137850440D01*
X184551288Y-137928273D01*
X184478824Y-138007177D01*
X184404390Y-138083637D01*
X184256155Y-138231142D01*
X184293366Y-138256639D01*
X184298753Y-138260418D01*
X184349969Y-138303242D01*
X184404169Y-138358793D01*
X184455178Y-138420264D01*
X184496822Y-138480852D01*
X184535174Y-138550224D01*
X184581272Y-138657710D01*
X184614625Y-138772762D01*
X184635889Y-138898533D01*
X184645715Y-139038177D01*
X184644800Y-139187847D01*
X184644757Y-139194844D01*
X184634907Y-139340383D01*
X184604523Y-139543323D01*
X184554400Y-139738098D01*
X184483730Y-139927641D01*
X184391707Y-140114889D01*
X184335737Y-140210925D01*
X184227195Y-140372053D01*
X184106416Y-140523763D01*
X183975367Y-140664445D01*
X183836014Y-140792488D01*
X183690324Y-140906280D01*
X183540263Y-141004211D01*
X183387797Y-141084670D01*
X183234893Y-141146045D01*
X183083517Y-141186725D01*
X183044737Y-141193529D01*
X182922127Y-141202510D01*
X182806976Y-141191419D01*
X182700562Y-141160584D01*
X182604164Y-141110336D01*
X182519060Y-141041005D01*
X182518974Y-141040920D01*
X182457178Y-140968675D01*
X182407675Y-140886315D01*
X182369352Y-140791075D01*
X182341097Y-140680191D01*
X182321796Y-140550899D01*
X182320680Y-140540314D01*
X182312225Y-140357806D01*
X182312823Y-140346761D01*
X182605332Y-140346761D01*
X182613992Y-140439932D01*
X182639687Y-140526341D01*
X182680583Y-140602274D01*
X182734841Y-140665057D01*
X182800622Y-140712017D01*
X182876089Y-140740479D01*
X182893324Y-140744065D01*
X182992912Y-140751821D01*
X183100404Y-140740062D01*
X183214244Y-140709513D01*
X183332876Y-140660894D01*
X183454748Y-140594928D01*
X183578302Y-140512337D01*
X183701985Y-140413843D01*
X183824241Y-140300169D01*
X183881748Y-140240288D01*
X183990000Y-140112959D01*
X184085541Y-139980255D01*
X184167517Y-139844261D01*
X184235072Y-139707059D01*
X184287351Y-139570733D01*
X184323500Y-139437367D01*
X184342663Y-139309044D01*
X184343986Y-139187847D01*
X184326613Y-139075861D01*
X184296985Y-138986304D01*
X184246546Y-138887538D01*
X184182006Y-138800362D01*
X184105915Y-138728126D01*
X184020821Y-138674176D01*
X184006045Y-138666965D01*
X183973768Y-138652475D01*
X183945588Y-138643397D01*
X183914836Y-138638473D01*
X183874846Y-138636442D01*
X183818948Y-138636044D01*
X183787769Y-138636110D01*
X183741164Y-138637146D01*
X183706507Y-138640559D01*
X183676798Y-138647750D01*
X183645036Y-138660122D01*
X183604222Y-138679080D01*
X183490421Y-138743969D01*
X183373635Y-138833364D01*
X183259395Y-138944380D01*
X183148079Y-139076564D01*
X183040067Y-139229463D01*
X182935739Y-139402626D01*
X182835473Y-139595600D01*
X182824157Y-139619288D01*
X182772900Y-139734616D01*
X182726463Y-139852162D01*
X182685955Y-139968315D01*
X182652481Y-140079464D01*
X182627148Y-140181996D01*
X182611063Y-140272299D01*
X182605332Y-140346761D01*
X182312823Y-140346761D01*
X182322576Y-140166698D01*
X182351046Y-139969558D01*
X182396948Y-139768953D01*
X182459596Y-139567452D01*
X182538302Y-139367623D01*
X182632380Y-139172032D01*
X182741142Y-138983249D01*
X182769169Y-138939292D01*
X182879641Y-138779473D01*
X182991479Y-138639810D01*
X183106625Y-138518390D01*
X183227022Y-138413300D01*
X183354611Y-138322630D01*
X183491333Y-138244467D01*
X183524453Y-138227335D01*
X183599898Y-138185926D01*
X183661366Y-138147452D01*
X183714025Y-138108192D01*
X183763043Y-138064425D01*
X183813587Y-138012430D01*
X183842276Y-137979011D01*
X183874996Y-137936614D01*
X183907956Y-137890440D01*
X183938834Y-137844108D01*
X183965307Y-137801240D01*
X183985050Y-137765457D01*
X183995740Y-137740378D01*
X183995055Y-137729626D01*
X183987813Y-137729429D01*
X183961052Y-137735153D01*
X183936522Y-137742636D01*
X183921171Y-137747319D01*
G37*
D14*
X159746359Y-138120000D02*
X160053641Y-138120000D01*
X159746359Y-138880000D02*
X160053641Y-138880000D01*
X181650000Y-119500000D02*
G75*
G02*
X178150000Y-119500000I-1750000J0D01*
G01*
X178150000Y-119500000D02*
G75*
G02*
X181650000Y-119500000I1750000J0D01*
G01*
X184850000Y-122500000D02*
G75*
G02*
X181350000Y-122500000I-1750000J0D01*
G01*
X181350000Y-122500000D02*
G75*
G02*
X184850000Y-122500000I1750000J0D01*
G01*
X151670000Y-145270000D02*
X154330000Y-145270000D01*
X151670000Y-147870000D02*
X151670000Y-145270000D01*
X151670000Y-147870000D02*
X154330000Y-147870000D01*
X153000000Y-142670000D02*
X154330000Y-142670000D01*
X154330000Y-142670000D02*
X154330000Y-144000000D01*
X154330000Y-147870000D02*
X154330000Y-145270000D01*
X155490000Y-116859420D02*
X155490000Y-117140580D01*
X156510000Y-116859420D02*
X156510000Y-117140580D01*
%LPC*%
D15*
X192700000Y-142840000D03*
D16*
X192700000Y-140300000D03*
X192700000Y-137760000D03*
X192700000Y-135220000D03*
X192700000Y-132680000D03*
X192700000Y-130140000D03*
X192700000Y-127600000D03*
D17*
X173900000Y-147100000D03*
D16*
X176440000Y-147100000D03*
X178980000Y-147100000D03*
X181520000Y-147100000D03*
X184060000Y-147100000D03*
D18*
X153500000Y-150500000D03*
D17*
X173900000Y-151100000D03*
D16*
X176440000Y-151100000D03*
X178980000Y-151100000D03*
X181520000Y-151100000D03*
X184060000Y-151100000D03*
D19*
X194500000Y-121000000D03*
D18*
X153500000Y-117500000D03*
X194500000Y-150500000D03*
D20*
X155605000Y-131110000D03*
X155605000Y-136890000D03*
D21*
X156105000Y-129680000D03*
D22*
X151925000Y-129680000D03*
D21*
X156105000Y-138320000D03*
D22*
X151925000Y-138320000D03*
D23*
X160410000Y-138500000D03*
X159390000Y-138500000D03*
D18*
X179900000Y-119500000D03*
X183100000Y-122500000D03*
D15*
X153000000Y-144000000D03*
D16*
X153000000Y-146540000D03*
D24*
X156000000Y-117775000D03*
X156000000Y-116225000D03*
%LPD*%
M02*
