G04 #@! TF.GenerationSoftware,KiCad,Pcbnew,8.0.1*
G04 #@! TF.CreationDate,2025-04-04T11:24:11-04:00*
G04 #@! TF.ProjectId,Digital,44696769-7461-46c2-9e6b-696361645f70,rev?*
G04 #@! TF.SameCoordinates,Original*
G04 #@! TF.FileFunction,Copper,L3,Inr*
G04 #@! TF.FilePolarity,Positive*
%FSLAX46Y46*%
G04 Gerber Fmt 4.6, Leading zero omitted, Abs format (unit mm)*
G04 Created by KiCad (PCBNEW 8.0.1) date 2025-04-04 11:24:11*
%MOMM*%
%LPD*%
G01*
G04 APERTURE LIST*
G04 #@! TA.AperFunction,ComponentPad*
%ADD10R,1.700000X1.700000*%
G04 #@! TD*
G04 #@! TA.AperFunction,ComponentPad*
%ADD11O,1.700000X1.700000*%
G04 #@! TD*
G04 #@! TA.AperFunction,ComponentPad*
%ADD12C,0.600000*%
G04 #@! TD*
G04 #@! TA.AperFunction,ComponentPad*
%ADD13O,2.100000X1.000000*%
G04 #@! TD*
G04 #@! TA.AperFunction,ComponentPad*
%ADD14O,1.800000X1.000000*%
G04 #@! TD*
G04 #@! TA.AperFunction,ViaPad*
%ADD15C,0.600000*%
G04 #@! TD*
G04 #@! TA.AperFunction,Conductor*
%ADD16C,0.100000*%
G04 #@! TD*
G04 APERTURE END LIST*
D10*
X192700000Y-142840000D03*
D11*
X192700000Y-140300000D03*
X192700000Y-137760000D03*
X192700000Y-135220000D03*
X192700000Y-132680000D03*
X192700000Y-130140000D03*
X192700000Y-127600000D03*
D10*
X173900000Y-147100000D03*
D11*
X176440000Y-147100000D03*
X178980000Y-147100000D03*
X181520000Y-147100000D03*
X184060000Y-147100000D03*
D12*
X172100000Y-124800000D03*
X173100000Y-124800000D03*
D10*
X173900000Y-151100000D03*
D11*
X176440000Y-151100000D03*
X178980000Y-151100000D03*
X181520000Y-151100000D03*
X184060000Y-151100000D03*
D13*
X156105000Y-129680000D03*
D14*
X151925000Y-129680000D03*
D13*
X156105000Y-138320000D03*
D14*
X151925000Y-138320000D03*
D10*
X153000000Y-144000000D03*
D11*
X153000000Y-146540000D03*
D15*
X180000000Y-123000000D03*
X197000000Y-129000000D03*
X153000000Y-135000000D03*
X197000000Y-127000000D03*
X187000000Y-145000000D03*
X187000000Y-127000000D03*
X170400000Y-134800000D03*
X159800000Y-135700000D03*
X190000000Y-142000000D03*
X155000000Y-115000000D03*
X157000000Y-127000000D03*
X156200000Y-115100000D03*
X171000000Y-117000000D03*
X160500000Y-129400000D03*
X172700000Y-130700000D03*
X161000000Y-117000000D03*
X157100000Y-117800000D03*
X186000000Y-135000000D03*
X154300000Y-122300000D03*
X183000000Y-127400000D03*
X163900000Y-135100000D03*
X159400000Y-125500000D03*
X159000000Y-153000000D03*
X180200000Y-136000000D03*
X165600000Y-122900000D03*
X151000000Y-149000000D03*
X195000000Y-133000000D03*
X195000000Y-147000000D03*
X157500000Y-120900000D03*
X167000000Y-125000000D03*
X184000000Y-138000000D03*
X155000000Y-127000000D03*
X169000000Y-151000000D03*
X166800000Y-151000000D03*
X178000000Y-122000000D03*
X166000000Y-116700000D03*
X175300000Y-131100000D03*
X165000000Y-140100000D03*
X170600000Y-127300000D03*
X175500000Y-127600000D03*
X197000000Y-135000000D03*
X177200000Y-127600000D03*
X168200000Y-136525000D03*
X195000000Y-143000000D03*
X195000000Y-135000000D03*
X151000000Y-137000000D03*
X179000000Y-153000000D03*
X151000000Y-143000000D03*
X188100000Y-141700000D03*
X195000000Y-129000000D03*
X174900000Y-141900000D03*
X171000000Y-119000000D03*
X155000000Y-135000000D03*
X155000000Y-125000000D03*
X195000000Y-131000000D03*
X175000000Y-118000000D03*
X174300000Y-135600000D03*
X191000000Y-127000000D03*
X177000000Y-149000000D03*
X195000000Y-141000000D03*
X163000000Y-119000000D03*
X151000000Y-119000000D03*
X189000000Y-127000000D03*
X187000000Y-153000000D03*
X158600000Y-126900000D03*
X177000000Y-120000000D03*
X170000000Y-131900000D03*
X169000000Y-121000000D03*
X180200000Y-134800000D03*
X173000000Y-118000000D03*
X181000000Y-127400000D03*
X174000000Y-119000000D03*
X197000000Y-143000000D03*
X193000000Y-145000000D03*
X195000000Y-137000000D03*
X184142231Y-140680277D03*
X164000000Y-151200000D03*
X162200000Y-134000000D03*
X161900000Y-151200000D03*
X183000000Y-149000000D03*
X171000000Y-121000000D03*
X197000000Y-131000000D03*
X188000000Y-143600000D03*
X175000000Y-149000000D03*
X166900000Y-143100000D03*
X182000000Y-115000000D03*
X161000000Y-119000000D03*
X173000000Y-153000000D03*
X183000000Y-153000000D03*
X151000000Y-123000000D03*
X173000000Y-145000000D03*
X193000000Y-153000000D03*
X195000000Y-145000000D03*
X167600000Y-137500000D03*
X195000000Y-139000000D03*
X171000000Y-115000000D03*
X174000000Y-117000000D03*
X166400000Y-144500000D03*
X153000000Y-131000000D03*
X161000000Y-121000000D03*
X165000000Y-125000000D03*
X191000000Y-153000000D03*
X179000000Y-149000000D03*
X154800000Y-132700000D03*
X182000000Y-118000000D03*
X185000000Y-116000000D03*
X166700000Y-139900000D03*
X190800000Y-139900000D03*
X173200000Y-127600000D03*
X165000000Y-133000000D03*
X169600000Y-142500000D03*
X184000000Y-120000000D03*
X169900000Y-133100000D03*
X169000000Y-119000000D03*
X153000000Y-133000000D03*
X167000000Y-153000000D03*
X174300000Y-127000000D03*
X151000000Y-135000000D03*
X193000000Y-149000000D03*
X177000000Y-115000000D03*
X160900000Y-130900000D03*
X158600000Y-123500000D03*
X185800000Y-140900000D03*
X160000000Y-147100000D03*
X197000000Y-139000000D03*
X186000000Y-138000000D03*
X185500000Y-132800000D03*
X151000000Y-127000000D03*
X175300000Y-122400000D03*
X159000000Y-151000000D03*
X184000000Y-136000000D03*
X153000000Y-137000000D03*
X173000000Y-149000000D03*
X161000000Y-153000000D03*
X160000000Y-143390000D03*
X197000000Y-141000000D03*
X183000000Y-119000000D03*
X178000000Y-138000000D03*
X197000000Y-147000000D03*
X175000000Y-145000000D03*
X179000000Y-115000000D03*
X160000000Y-145400000D03*
X171000000Y-125000000D03*
X185000000Y-124000000D03*
X181000000Y-149000000D03*
X151000000Y-147000000D03*
X197000000Y-137000000D03*
X159000000Y-121000000D03*
X159200000Y-131100000D03*
X193000000Y-147000000D03*
X153000000Y-123000000D03*
X195000000Y-127000000D03*
X157000000Y-153000000D03*
X151000000Y-125000000D03*
X185000000Y-127400000D03*
X182500000Y-136100000D03*
X197000000Y-133000000D03*
X151000000Y-133000000D03*
X166400000Y-136800000D03*
X173400000Y-142600000D03*
X191000000Y-145000000D03*
X169000000Y-153000000D03*
X187000000Y-147000000D03*
X155000000Y-153000000D03*
X182400000Y-133600000D03*
X175000000Y-115000000D03*
X151000000Y-121000000D03*
X174300000Y-138800000D03*
X153000000Y-127000000D03*
X163000000Y-123000000D03*
X181000000Y-153000000D03*
X171200000Y-135400000D03*
X180300000Y-139900000D03*
X161000000Y-128000000D03*
X171000000Y-153000000D03*
X170500000Y-137800000D03*
X197000000Y-149000000D03*
X151000000Y-139000000D03*
X177000000Y-153000000D03*
X185000000Y-118000000D03*
X191102525Y-143000000D03*
X160000000Y-146200000D03*
X197000000Y-145000000D03*
X176000000Y-124000000D03*
X159000000Y-119000000D03*
X163000000Y-153000000D03*
X176500000Y-144100000D03*
X187000000Y-151000000D03*
X163000000Y-121000000D03*
X151000000Y-145000000D03*
X151000000Y-131000000D03*
X175000000Y-153000000D03*
X159000000Y-117000000D03*
X165000000Y-153000000D03*
X189000000Y-153000000D03*
X187000000Y-130700000D03*
X156000000Y-140800000D03*
X185000000Y-153000000D03*
X153000000Y-125000000D03*
X178100000Y-140200000D03*
X177800000Y-134200000D03*
X169000000Y-123000000D03*
X155000000Y-119000000D03*
X157700000Y-145000000D03*
X163725000Y-137100000D03*
X159800000Y-134000000D03*
X166600000Y-137600000D03*
X160625000Y-136600000D03*
X157700000Y-131600000D03*
X156680000Y-136400000D03*
X160400000Y-124300000D03*
X172100000Y-144100000D03*
X169800000Y-135200000D03*
X163100000Y-135400000D03*
X171400000Y-140300000D03*
X171800000Y-121900000D03*
X167300000Y-134800000D03*
X163800000Y-116800000D03*
X169500000Y-145700000D03*
X168400000Y-145100000D03*
X157100000Y-119200000D03*
X182200000Y-127300000D03*
X171500000Y-142800000D03*
X168700000Y-141500000D03*
X173100000Y-121500000D03*
X168900000Y-146600000D03*
X176300000Y-131900000D03*
X183900000Y-127300000D03*
X178100000Y-133000000D03*
X162300000Y-129500000D03*
X168800000Y-143200000D03*
X169100000Y-145100000D03*
X157000000Y-128100000D03*
X171100000Y-145500000D03*
X175400000Y-131900000D03*
X165300000Y-142400000D03*
X181500000Y-145300000D03*
X181100000Y-135900000D03*
X180700000Y-136700000D03*
X177300000Y-143400000D03*
X178400000Y-128200000D03*
X176700000Y-117800000D03*
X172300000Y-126900000D03*
X180100000Y-140800000D03*
X173300000Y-128700000D03*
X172500000Y-128800000D03*
X180500000Y-128300000D03*
X179500000Y-139800000D03*
X171600000Y-126800000D03*
X174000000Y-140900000D03*
X170600000Y-139700000D03*
X171400000Y-119900000D03*
X181700000Y-134700000D03*
X172100000Y-130100000D03*
X171800000Y-132500000D03*
X182300000Y-140900000D03*
X165900000Y-128900000D03*
X168185000Y-116715000D03*
X174700000Y-137900000D03*
X171700000Y-134300000D03*
X183300000Y-144400000D03*
X184400000Y-144300000D03*
X186400000Y-133300000D03*
X186300000Y-134200000D03*
X181900000Y-132600000D03*
X183500000Y-139200000D03*
X169500000Y-144000200D03*
X166000000Y-143610000D03*
X160062500Y-148400000D03*
X155720000Y-145100000D03*
X158600000Y-143000000D03*
X152600000Y-141400000D03*
X160500000Y-139550000D03*
X159700000Y-139550000D03*
X159300000Y-145900000D03*
X162610000Y-142600000D03*
X171300000Y-128500000D03*
X169100000Y-149200000D03*
X171600000Y-150000000D03*
X171500000Y-147600000D03*
X178600000Y-124200000D03*
X177500000Y-124000000D03*
D16*
X188000000Y-130500000D02*
X188600000Y-129900000D01*
X163700000Y-144500000D02*
X164800000Y-145600000D01*
X161600000Y-116400000D02*
X162100000Y-115900000D01*
X153900000Y-142500000D02*
X153900000Y-137100000D01*
X153700000Y-121500000D02*
X155900000Y-119300000D01*
X155900000Y-119300000D02*
X155900000Y-117200000D01*
X157700000Y-126200000D02*
X157700000Y-130100000D01*
X182100000Y-138900000D02*
X182100000Y-139800000D01*
X162100000Y-115900000D02*
X164600000Y-115900000D01*
X180900000Y-129300000D02*
X183100000Y-131500000D01*
X173800000Y-144400000D02*
X174500000Y-144400000D01*
X165000000Y-116300000D02*
X165000000Y-117700000D01*
X163700000Y-139200000D02*
X163700000Y-144500000D01*
X168000000Y-124200000D02*
X168000000Y-118100000D01*
X170800000Y-126200000D02*
X173200000Y-126200000D01*
X153900000Y-137100000D02*
X156500000Y-134500000D01*
X185000000Y-143300000D02*
X188000000Y-140300000D01*
X177200000Y-130800000D02*
X178700000Y-129300000D01*
X189200000Y-148300000D02*
X187800000Y-149700000D01*
X190900000Y-142300000D02*
X189200000Y-144000000D01*
X154900000Y-143500000D02*
X153900000Y-142500000D01*
X157400000Y-149900000D02*
X154900000Y-147400000D01*
X165000000Y-117700000D02*
X164000000Y-118700000D01*
X176300000Y-142600000D02*
X176300000Y-133400000D01*
X171900000Y-149700000D02*
X171600000Y-150000000D01*
X158500000Y-141200000D02*
X159400000Y-142100000D01*
X171500000Y-147600000D02*
X163300000Y-147600000D01*
X157650000Y-115950000D02*
X158100000Y-116400000D01*
X169100000Y-137600000D02*
X169100000Y-125300000D01*
X189200000Y-129900000D02*
X189900000Y-130600000D01*
X158500000Y-130900000D02*
X158500000Y-141200000D01*
X179650000Y-142950000D02*
X180000000Y-143300000D01*
X178700000Y-129300000D02*
X180900000Y-129300000D01*
X173100000Y-139700000D02*
X172700000Y-140100000D01*
X159400000Y-144100000D02*
X159800000Y-144500000D01*
X164900000Y-134500000D02*
X164900000Y-138000000D01*
X163300000Y-147600000D02*
X161000000Y-149900000D01*
X183100000Y-137900000D02*
X182100000Y-138900000D01*
X170300000Y-125700000D02*
X170800000Y-126200000D01*
X174500000Y-144400000D02*
X176300000Y-142600000D01*
X167800000Y-144100000D02*
X167800000Y-138900000D01*
X167800000Y-138900000D02*
X169100000Y-137600000D01*
X159400000Y-142100000D02*
X159400000Y-144100000D01*
X156500000Y-134500000D02*
X156500000Y-133100000D01*
X157150000Y-115950000D02*
X157650000Y-115950000D01*
X173200000Y-126200000D02*
X173800000Y-126800000D01*
X164000000Y-118700000D02*
X164000000Y-133600000D01*
X157700000Y-130100000D02*
X158500000Y-130900000D01*
X156500000Y-133100000D02*
X153700000Y-130300000D01*
X158100000Y-125800000D02*
X157700000Y-126200000D01*
X187800000Y-149700000D02*
X171900000Y-149700000D01*
X164000000Y-133600000D02*
X164900000Y-134500000D01*
X170300000Y-118000000D02*
X170300000Y-125700000D01*
X169100000Y-125300000D02*
X168000000Y-124200000D01*
X190900000Y-141600000D02*
X190900000Y-142300000D01*
X176300000Y-133400000D02*
X177200000Y-132500000D01*
X164600000Y-115900000D02*
X165000000Y-116300000D01*
X183100000Y-131500000D02*
X183100000Y-137900000D01*
X164900000Y-138000000D02*
X163700000Y-139200000D01*
X154900000Y-147400000D02*
X154900000Y-143500000D01*
X172700000Y-143300000D02*
X173800000Y-144400000D01*
X188600000Y-129900000D02*
X189200000Y-129900000D01*
X173100000Y-133100000D02*
X173100000Y-139700000D01*
X158100000Y-116400000D02*
X158100000Y-125800000D01*
X161600000Y-143600000D02*
X161600000Y-116400000D01*
X188000000Y-140300000D02*
X188000000Y-130500000D01*
X155900000Y-117200000D02*
X157150000Y-115950000D01*
X168700000Y-117400000D02*
X169700000Y-117400000D01*
X173800000Y-126800000D02*
X173800000Y-132400000D01*
X177200000Y-132500000D02*
X177200000Y-130800000D01*
X172700000Y-140100000D02*
X172700000Y-143300000D01*
X169700000Y-117400000D02*
X170300000Y-118000000D01*
X164800000Y-145600000D02*
X166300000Y-145600000D01*
X160700000Y-144500000D02*
X161600000Y-143600000D01*
X159800000Y-144500000D02*
X160700000Y-144500000D01*
X189200000Y-144000000D02*
X189200000Y-148300000D01*
X189900000Y-140600000D02*
X190900000Y-141600000D01*
X166300000Y-145600000D02*
X167800000Y-144100000D01*
X189900000Y-130600000D02*
X189900000Y-140600000D01*
X161000000Y-149900000D02*
X157400000Y-149900000D01*
X173800000Y-132400000D02*
X173100000Y-133100000D01*
X168000000Y-118100000D02*
X168700000Y-117400000D01*
X182100000Y-139800000D02*
X179650000Y-142250000D01*
X153700000Y-130300000D02*
X153700000Y-121500000D01*
X180000000Y-143300000D02*
X185000000Y-143300000D01*
X179650000Y-142250000D02*
X179650000Y-142950000D01*
G04 #@! TA.AperFunction,Conductor*
G36*
X172071399Y-149653901D02*
G01*
X172075672Y-149661771D01*
X172075736Y-149662994D01*
X172075736Y-149747022D01*
X172074312Y-149752616D01*
X171882188Y-150105574D01*
X171875223Y-150111202D01*
X171867448Y-150110795D01*
X171606262Y-150002997D01*
X171599922Y-149996673D01*
X171599026Y-149992143D01*
X171599965Y-149710499D01*
X171603419Y-149702237D01*
X171610440Y-149698902D01*
X172062813Y-149651358D01*
X172071399Y-149653901D01*
G37*
G04 #@! TD.AperFunction*
G04 #@! TA.AperFunction,Conductor*
G36*
X171389699Y-147333645D02*
G01*
X171389899Y-147334095D01*
X171499115Y-147595489D01*
X171499142Y-147604444D01*
X171499115Y-147604511D01*
X171389899Y-147865904D01*
X171383547Y-147872216D01*
X171374592Y-147872189D01*
X171374142Y-147871989D01*
X170906739Y-147653155D01*
X170900699Y-147646544D01*
X170900000Y-147642559D01*
X170900000Y-147557440D01*
X170903427Y-147549167D01*
X170906735Y-147546846D01*
X171374144Y-147328009D01*
X171383088Y-147327605D01*
X171389699Y-147333645D01*
G37*
G04 #@! TD.AperFunction*
M02*
