M48
; DRILL file {KiCad 8.0.1} date 2025-04-04T11:24:13-0400
; FORMAT={-:-/ absolute / metric / decimal}
; #@! TF.CreationDate,2025-04-04T11:24:13-04:00
; #@! TF.GenerationSoftware,Kicad,Pcbnew,8.0.1
; #@! TF.FileFunction,Plated,1,6,PTH
FMAT,2
METRIC
; #@! TA.AperFunction,Plated,PTH,ComponentDrill
T1C0.250
; #@! TA.AperFunction,Plated,PTH,ViaDrill
T2C0.300
; #@! TA.AperFunction,Plated,PTH,ViaDrill
T3C0.400
; #@! TA.AperFunction,Plated,PTH,ComponentDrill
T4C0.600
; #@! TA.AperFunction,Plated,PTH,ComponentDrill
T5C1.000
%
G90
G05
T1
X172.1Y-124.8
X173.1Y-124.8
T2
X151.0Y-119.0
X151.0Y-121.0
X151.0Y-123.0
X151.0Y-125.0
X151.0Y-127.0
X151.0Y-131.0
X151.0Y-133.0
X151.0Y-135.0
X151.0Y-137.0
X151.0Y-139.0
X151.0Y-143.0
X151.0Y-145.0
X151.0Y-147.0
X151.0Y-149.0
X152.6Y-141.4
X153.0Y-123.0
X153.0Y-125.0
X153.0Y-127.0
X153.0Y-131.0
X153.0Y-133.0
X153.0Y-135.0
X153.0Y-137.0
X154.3Y-122.3
X154.8Y-132.7
X155.0Y-115.0
X155.0Y-119.0
X155.0Y-125.0
X155.0Y-127.0
X155.0Y-135.0
X155.0Y-153.0
X155.72Y-145.1
X156.0Y-140.8
X157.0Y-127.0
X157.0Y-153.0
X157.7Y-145.0
X158.6Y-123.5
X158.6Y-126.9
X158.6Y-143.0
X159.0Y-117.0
X159.0Y-119.0
X159.0Y-121.0
X159.0Y-151.0
X159.0Y-153.0
X159.2Y-131.1
X159.3Y-145.9
X159.4Y-125.5
X159.7Y-139.55
X159.8Y-135.7
X160.0Y-143.39
X160.0Y-145.4
X160.0Y-146.2
X160.0Y-147.1
X160.062Y-148.4
X160.4Y-124.3
X160.5Y-129.4
X160.5Y-139.55
X160.625Y-136.6
X160.9Y-130.9
X161.0Y-117.0
X161.0Y-119.0
X161.0Y-121.0
X161.0Y-128.0
X161.0Y-153.0
X161.9Y-151.2
X162.61Y-142.6
X163.0Y-119.0
X163.0Y-121.0
X163.0Y-123.0
X163.0Y-153.0
X163.1Y-135.4
X163.9Y-135.1
X164.0Y-151.2
X165.0Y-125.0
X165.0Y-133.0
X165.0Y-140.1
X165.0Y-153.0
X165.3Y-142.4
X165.6Y-122.9
X166.0Y-116.7
X166.0Y-143.61
X166.4Y-136.8
X166.4Y-144.5
X166.7Y-139.9
X166.8Y-151.0
X166.9Y-143.1
X167.0Y-125.0
X167.0Y-153.0
X167.6Y-137.5
X168.4Y-145.1
X168.7Y-141.5
X168.8Y-143.2
X169.0Y-119.0
X169.0Y-121.0
X169.0Y-123.0
X169.0Y-151.0
X169.0Y-153.0
X169.1Y-145.1
X169.1Y-149.2
X169.5Y-145.7
X169.6Y-142.5
X169.8Y-135.2
X169.9Y-133.1
X170.0Y-131.9
X170.4Y-134.8
X170.6Y-127.3
X171.0Y-115.0
X171.0Y-117.0
X171.0Y-119.0
X171.0Y-121.0
X171.0Y-125.0
X171.0Y-153.0
X171.1Y-145.5
X171.3Y-128.5
X171.4Y-119.9
X171.5Y-142.8
X171.5Y-147.6
X171.6Y-126.8
X171.6Y-150.0
X171.8Y-121.9
X172.1Y-144.1
X172.3Y-126.9
X172.5Y-128.8
X172.7Y-130.7
X173.0Y-118.0
X173.0Y-145.0
X173.0Y-149.0
X173.0Y-153.0
X173.1Y-121.5
X173.2Y-127.6
X173.3Y-128.7
X174.0Y-117.0
X174.0Y-119.0
X174.3Y-127.0
X174.3Y-135.6
X174.3Y-138.8
X174.9Y-141.9
X175.0Y-115.0
X175.0Y-118.0
X175.0Y-145.0
X175.0Y-149.0
X175.0Y-153.0
X175.3Y-122.4
X175.3Y-131.1
X175.4Y-131.9
X175.5Y-127.6
X176.0Y-124.0
X176.3Y-131.9
X176.5Y-144.1
X176.7Y-117.8
X177.0Y-115.0
X177.0Y-120.0
X177.0Y-149.0
X177.0Y-153.0
X177.2Y-127.6
X177.5Y-124.0
X177.8Y-134.2
X178.0Y-122.0
X178.0Y-138.0
X178.1Y-133.0
X178.1Y-140.2
X178.4Y-128.2
X178.6Y-124.2
X179.0Y-115.0
X179.0Y-149.0
X179.0Y-153.0
X179.5Y-139.8
X180.0Y-123.0
X180.1Y-140.8
X180.2Y-134.8
X180.2Y-136.0
X180.3Y-139.9
X180.5Y-128.3
X180.7Y-136.7
X181.0Y-127.4
X181.0Y-149.0
X181.0Y-153.0
X181.1Y-135.9
X181.5Y-145.3
X181.9Y-132.6
X182.0Y-115.0
X182.0Y-118.0
X182.2Y-127.3
X182.4Y-133.6
X182.5Y-136.1
X183.0Y-119.0
X183.0Y-127.4
X183.0Y-149.0
X183.0Y-153.0
X183.3Y-144.4
X183.5Y-139.2
X183.9Y-127.3
X184.0Y-120.0
X184.0Y-136.0
X184.0Y-138.0
X184.142Y-140.68
X184.4Y-144.3
X185.0Y-116.0
X185.0Y-118.0
X185.0Y-124.0
X185.0Y-127.4
X185.0Y-153.0
X185.5Y-132.8
X185.8Y-140.9
X186.0Y-135.0
X186.0Y-138.0
X186.3Y-134.2
X186.4Y-133.3
X187.0Y-127.0
X187.0Y-130.7
X187.0Y-145.0
X187.0Y-147.0
X187.0Y-151.0
X187.0Y-153.0
X188.0Y-143.6
X188.1Y-141.7
X189.0Y-127.0
X189.0Y-153.0
X190.0Y-142.0
X190.8Y-139.9
X191.0Y-127.0
X191.0Y-145.0
X191.0Y-153.0
X191.103Y-143.0
X193.0Y-145.0
X193.0Y-147.0
X193.0Y-149.0
X193.0Y-153.0
X195.0Y-127.0
X195.0Y-129.0
X195.0Y-131.0
X195.0Y-133.0
X195.0Y-135.0
X195.0Y-137.0
X195.0Y-139.0
X195.0Y-141.0
X195.0Y-143.0
X195.0Y-145.0
X195.0Y-147.0
X197.0Y-127.0
X197.0Y-129.0
X197.0Y-131.0
X197.0Y-133.0
X197.0Y-135.0
X197.0Y-137.0
X197.0Y-139.0
X197.0Y-141.0
X197.0Y-143.0
X197.0Y-145.0
X197.0Y-147.0
X197.0Y-149.0
T3
X156.2Y-115.1
X156.68Y-136.4
X157.0Y-128.1
X157.1Y-117.8
X157.1Y-119.2
X157.5Y-120.9
X157.7Y-131.6
X159.8Y-134.0
X162.2Y-134.0
X162.3Y-129.5
X163.725Y-137.1
X163.8Y-116.8
X165.9Y-128.9
X166.6Y-137.6
X167.3Y-134.8
X168.185Y-116.715
X168.2Y-136.525
X168.9Y-146.6
X169.5Y-144.0
X170.5Y-137.8
X170.6Y-139.7
X171.2Y-135.4
X171.4Y-140.3
X171.7Y-134.3
X171.8Y-132.5
X172.1Y-130.1
X173.4Y-142.6
X174.0Y-140.9
X174.7Y-137.9
X177.3Y-143.4
X181.7Y-134.7
X182.3Y-140.9
T5
X153.0Y-144.0
X153.0Y-146.54
X173.9Y-147.1
X173.9Y-151.1
X176.44Y-147.1
X176.44Y-151.1
X178.98Y-147.1
X178.98Y-151.1
X181.52Y-147.1
X181.52Y-151.1
X184.06Y-147.1
X184.06Y-151.1
X192.7Y-127.6
X192.7Y-130.14
X192.7Y-132.68
X192.7Y-135.22
X192.7Y-137.76
X192.7Y-140.3
X192.7Y-142.84
T4
X152.325Y-129.68G85X151.525Y-129.68
G05
X152.325Y-138.32G85X151.525Y-138.32
G05
X156.655Y-129.68G85X155.555Y-129.68
G05
X156.655Y-138.32G85X155.555Y-138.32
G05
M30
