G04 #@! TF.GenerationSoftware,KiCad,Pcbnew,8.0.1*
G04 #@! TF.CreationDate,2025-04-04T11:24:11-04:00*
G04 #@! TF.ProjectId,Digital,44696769-7461-46c2-9e6b-696361645f70,rev?*
G04 #@! TF.SameCoordinates,Original*
G04 #@! TF.FileFunction,Legend,Top*
G04 #@! TF.FilePolarity,Positive*
%FSLAX46Y46*%
G04 Gerber Fmt 4.6, Leading zero omitted, Abs format (unit mm)*
G04 Created by KiCad (PCBNEW 8.0.1) date 2025-04-04 11:24:11*
%MOMM*%
%LPD*%
G01*
G04 APERTURE LIST*
G04 Aperture macros list*
%AMRoundRect*
0 Rectangle with rounded corners*
0 $1 Rounding radius*
0 $2 $3 $4 $5 $6 $7 $8 $9 X,Y pos of 4 corners*
0 Add a 4 corners polygon primitive as box body*
4,1,4,$2,$3,$4,$5,$6,$7,$8,$9,$2,$3,0*
0 Add four circle primitives for the rounded corners*
1,1,$1+$1,$2,$3*
1,1,$1+$1,$4,$5*
1,1,$1+$1,$6,$7*
1,1,$1+$1,$8,$9*
0 Add four rect primitives between the rounded corners*
20,1,$1+$1,$2,$3,$4,$5,0*
20,1,$1+$1,$4,$5,$6,$7,0*
20,1,$1+$1,$6,$7,$8,$9,0*
20,1,$1+$1,$8,$9,$2,$3,0*%
%AMFreePoly0*
4,1,146,-1.753284,2.668610,-1.748728,2.668057,-1.433963,2.610374,-1.429508,2.609275,-1.123992,2.514072,-1.119701,2.512445,-0.827888,2.381110,-0.823825,2.378978,-0.549969,2.213427,-0.546193,2.210820,-0.294290,2.013466,-0.290855,2.010423,-0.064577,1.784145,-0.061534,1.780710,0.135820,1.528807,0.138427,1.525031,0.303978,1.251175,0.306110,1.247112,0.437445,0.955299,0.439072,0.951008,
0.534275,0.645492,0.535374,0.641037,0.593057,0.326272,0.593610,0.321716,0.612931,0.002294,0.612931,-0.002294,0.593610,-0.321716,0.593057,-0.326272,0.535374,-0.641037,0.534275,-0.645492,0.439072,-0.951008,0.437445,-0.955299,0.306110,-1.247112,0.303978,-1.251175,0.138427,-1.525031,0.135820,-1.528807,-0.061534,-1.780710,-0.064577,-1.784145,-0.290855,-2.010423,-0.294290,-2.013466,
-0.546193,-2.210820,-0.549969,-2.213427,-0.823825,-2.378978,-0.827888,-2.381110,-1.119701,-2.512445,-1.123992,-2.514072,-1.429508,-2.609275,-1.433963,-2.610374,-1.748728,-2.668057,-1.753284,-2.668610,-2.072706,-2.687931,-2.077294,-2.687931,-2.396716,-2.668610,-2.401272,-2.668057,-2.716037,-2.610374,-2.720492,-2.609275,-3.026008,-2.514072,-3.030299,-2.512445,-3.322112,-2.381110,-3.326175,-2.378978,
-3.600031,-2.213427,-3.603807,-2.210820,-3.855710,-2.013466,-3.859145,-2.010423,-4.085423,-1.784145,-4.088466,-1.780710,-4.285820,-1.528807,-4.288427,-1.525031,-4.453978,-1.251175,-4.456110,-1.247112,-4.587445,-0.955299,-4.589072,-0.951008,-4.684275,-0.645492,-4.685374,-0.641037,-4.743057,-0.326272,-4.743610,-0.321716,-4.762931,-0.002294,-4.762931,0.000000,-3.542010,0.000000,-3.522003,-0.241461,
-3.462523,-0.476339,-3.365198,-0.698219,-3.232678,-0.901056,-3.068578,-1.079315,-2.877380,-1.228131,-2.664291,-1.343449,-2.435130,-1.422119,-2.196143,-1.462000,-1.953857,-1.462000,-1.714869,-1.422119,-1.485708,-1.343449,-1.272619,-1.228131,-1.081421,-1.079315,-0.917321,-0.901056,-0.784801,-0.698219,-0.687476,-0.476339,-0.627996,-0.241461,-0.607989,0.000000,-0.627996,0.241461,-0.687476,0.476339,
-0.784801,0.698219,-0.917321,0.901056,-1.081421,1.079315,-1.272619,1.228131,-1.485708,1.343449,-1.714869,1.422119,-1.953857,1.462000,-2.196143,1.462000,-2.435130,1.422119,-2.664291,1.343449,-2.877380,1.228131,-3.068578,1.079315,-3.232678,0.901056,-3.365198,0.698219,-3.462523,0.476339,-3.522003,0.241461,-3.542010,0.000000,-4.762931,0.000000,-4.762931,0.002294,-4.743610,0.321716,
-4.743057,0.326272,-4.685374,0.641037,-4.684275,0.645492,-4.589072,0.951008,-4.587445,0.955299,-4.456110,1.247112,-4.453978,1.251175,-4.288427,1.525031,-4.285820,1.528807,-4.088466,1.780710,-4.085423,1.784145,-3.859145,2.010423,-3.855710,2.013466,-3.603807,2.210820,-3.600031,2.213427,-3.326175,2.378978,-3.322112,2.381110,-3.030299,2.512445,-3.026008,2.514072,-2.720492,2.609275,
-2.716037,2.610374,-2.401272,2.668057,-2.396716,2.668610,-2.077294,2.687931,-2.072706,2.687931,-1.753284,2.668610,-1.753284,2.668610,$1*%
G04 Aperture macros list end*
%ADD10C,0.125000*%
%ADD11C,0.100000*%
%ADD12C,0.120000*%
%ADD13C,0.150000*%
%ADD14C,0.152400*%
%ADD15C,0.182463*%
%ADD16C,0.002645*%
%ADD17RoundRect,0.194000X0.194000X-0.744000X0.194000X0.744000X-0.194000X0.744000X-0.194000X-0.744000X0*%
%ADD18RoundRect,0.219000X0.219000X-0.719000X0.219000X0.719000X-0.219000X0.719000X-0.219000X-0.719000X0*%
%ADD19RoundRect,0.237750X-0.237750X-0.400250X0.237750X-0.400250X0.237750X0.400250X-0.237750X0.400250X0*%
%ADD20RoundRect,0.244000X0.269000X-0.244000X0.269000X0.244000X-0.269000X0.244000X-0.269000X-0.244000X0*%
%ADD21RoundRect,0.154000X-0.154000X-0.204000X0.154000X-0.204000X0.154000X0.204000X-0.154000X0.204000X0*%
%ADD22RoundRect,0.038000X0.475000X0.275000X-0.475000X0.275000X-0.475000X-0.275000X0.475000X-0.275000X0*%
%ADD23RoundRect,0.154000X0.204000X-0.154000X0.204000X0.154000X-0.204000X0.154000X-0.204000X-0.154000X0*%
%ADD24RoundRect,0.038000X0.850000X0.850000X-0.850000X0.850000X-0.850000X-0.850000X0.850000X-0.850000X0*%
%ADD25O,1.776000X1.776000*%
%ADD26RoundRect,0.154000X0.154000X0.204000X-0.154000X0.204000X-0.154000X-0.204000X0.154000X-0.204000X0*%
%ADD27C,1.076000*%
%ADD28RoundRect,0.038000X1.150000X-0.500000X1.150000X0.500000X-1.150000X0.500000X-1.150000X-0.500000X0*%
%ADD29RoundRect,0.038000X0.500000X1.150000X-0.500000X1.150000X-0.500000X-1.150000X0.500000X-1.150000X0*%
%ADD30RoundRect,0.038000X-1.150000X0.500000X-1.150000X-0.500000X1.150000X-0.500000X1.150000X0.500000X0*%
%ADD31RoundRect,0.038000X-0.500000X-1.150000X0.500000X-1.150000X0.500000X1.150000X-0.500000X1.150000X0*%
%ADD32RoundRect,0.169000X-0.606500X-0.169000X0.606500X-0.169000X0.606500X0.169000X-0.606500X0.169000X0*%
%ADD33RoundRect,0.038000X0.850000X-0.850000X0.850000X0.850000X-0.850000X0.850000X-0.850000X-0.850000X0*%
%ADD34RoundRect,0.169000X-0.169000X0.531500X-0.169000X-0.531500X0.169000X-0.531500X0.169000X0.531500X0*%
%ADD35RoundRect,0.038000X0.703199X-0.405600X0.703199X0.405600X-0.703199X0.405600X-0.703199X-0.405600X0*%
%ADD36RoundRect,0.038000X-0.681400X-1.129900X0.681400X-1.129900X0.681400X1.129900X-0.681400X1.129900X0*%
%ADD37RoundRect,0.169000X0.531500X0.169000X-0.531500X0.169000X-0.531500X-0.169000X0.531500X-0.169000X0*%
%ADD38RoundRect,0.154000X-0.204000X0.154000X-0.204000X-0.154000X0.204000X-0.154000X0.204000X0.154000X0*%
%ADD39RoundRect,0.237750X0.237750X0.275250X-0.237750X0.275250X-0.237750X-0.275250X0.237750X-0.275250X0*%
%ADD40RoundRect,0.081500X0.081500X-0.206500X0.081500X0.206500X-0.081500X0.206500X-0.081500X-0.206500X0*%
%ADD41RoundRect,0.038000X0.800000X-0.450000X0.800000X0.450000X-0.800000X0.450000X-0.800000X-0.450000X0*%
%ADD42RoundRect,0.244000X-0.269000X0.244000X-0.269000X-0.244000X0.269000X-0.244000X0.269000X0.244000X0*%
%ADD43RoundRect,0.159000X-0.189000X0.159000X-0.189000X-0.159000X0.189000X-0.159000X0.189000X0.159000X0*%
%ADD44RoundRect,0.219000X-0.219000X-0.294000X0.219000X-0.294000X0.219000X0.294000X-0.219000X0.294000X0*%
%ADD45RoundRect,0.159000X-0.159000X-0.189000X0.159000X-0.189000X0.159000X0.189000X-0.159000X0.189000X0*%
%ADD46RoundRect,0.038000X-0.402400X-0.124600X0.402400X-0.124600X0.402400X0.124600X-0.402400X0.124600X0*%
%ADD47RoundRect,0.038000X-0.305000X-0.710000X0.305000X-0.710000X0.305000X0.710000X-0.305000X0.710000X0*%
%ADD48RoundRect,0.269000X-0.494000X0.269000X-0.494000X-0.269000X0.494000X-0.269000X0.494000X0.269000X0*%
%ADD49RoundRect,0.038000X0.450000X0.450000X-0.450000X0.450000X-0.450000X-0.450000X0.450000X-0.450000X0*%
%ADD50RoundRect,0.038000X-0.114300X0.355600X-0.114300X-0.355600X0.114300X-0.355600X0.114300X0.355600X0*%
%ADD51C,3.076000*%
%ADD52FreePoly0,0.000000*%
%ADD53RoundRect,0.038000X0.500000X0.500000X-0.500000X0.500000X-0.500000X-0.500000X0.500000X-0.500000X0*%
%ADD54RoundRect,0.038000X0.525000X1.100000X-0.525000X1.100000X-0.525000X-1.100000X0.525000X-1.100000X0*%
%ADD55C,0.355400*%
%ADD56C,2.276000*%
%ADD57RoundRect,0.038000X-0.425000X-0.550000X0.425000X-0.550000X0.425000X0.550000X-0.425000X0.550000X0*%
%ADD58RoundRect,0.038000X-0.375000X-0.550000X0.375000X-0.550000X0.375000X0.550000X-0.375000X0.550000X0*%
%ADD59RoundRect,0.038000X-0.600000X-0.500000X0.600000X-0.500000X0.600000X0.500000X-0.600000X0.500000X0*%
%ADD60RoundRect,0.038000X-0.775000X-0.675000X0.775000X-0.675000X0.775000X0.675000X-0.775000X0.675000X0*%
%ADD61RoundRect,0.038000X-0.950000X-0.675000X0.950000X-0.675000X0.950000X0.675000X-0.950000X0.675000X0*%
%ADD62RoundRect,0.038000X-0.585000X-0.900000X0.585000X-0.900000X0.585000X0.900000X-0.585000X0.900000X0*%
%ADD63RoundRect,0.119000X-0.119000X0.244000X-0.119000X-0.244000X0.119000X-0.244000X0.119000X0.244000X0*%
%ADD64RoundRect,0.244000X-0.244000X-0.269000X0.244000X-0.269000X0.244000X0.269000X-0.244000X0.269000X0*%
%ADD65C,0.726000*%
%ADD66RoundRect,0.169000X-0.444000X0.169000X-0.444000X-0.169000X0.444000X-0.169000X0.444000X0.169000X0*%
%ADD67RoundRect,0.094000X-0.519000X0.094000X-0.519000X-0.094000X0.519000X-0.094000X0.519000X0.094000X0*%
%ADD68O,2.176000X1.076000*%
%ADD69O,1.876000X1.076000*%
%ADD70RoundRect,0.266521X-0.671479X0.346479X-0.671479X-0.346479X0.671479X-0.346479X0.671479X0.346479X0*%
%ADD71RoundRect,0.265200X-0.397800X-1.097800X0.397800X-1.097800X0.397800X1.097800X-0.397800X1.097800X0*%
G04 APERTURE END LIST*
D10*
X152109523Y-146434333D02*
X152490476Y-146434333D01*
X152299999Y-146624809D02*
X152299999Y-146243857D01*
D11*
X176226190Y-145526109D02*
X176059524Y-145288014D01*
X175940476Y-145526109D02*
X175940476Y-145026109D01*
X175940476Y-145026109D02*
X176130952Y-145026109D01*
X176130952Y-145026109D02*
X176178571Y-145049919D01*
X176178571Y-145049919D02*
X176202381Y-145073728D01*
X176202381Y-145073728D02*
X176226190Y-145121347D01*
X176226190Y-145121347D02*
X176226190Y-145192776D01*
X176226190Y-145192776D02*
X176202381Y-145240395D01*
X176202381Y-145240395D02*
X176178571Y-145264204D01*
X176178571Y-145264204D02*
X176130952Y-145288014D01*
X176130952Y-145288014D02*
X175940476Y-145288014D01*
X176416667Y-145502300D02*
X176488095Y-145526109D01*
X176488095Y-145526109D02*
X176607143Y-145526109D01*
X176607143Y-145526109D02*
X176654762Y-145502300D01*
X176654762Y-145502300D02*
X176678571Y-145478490D01*
X176678571Y-145478490D02*
X176702381Y-145430871D01*
X176702381Y-145430871D02*
X176702381Y-145383252D01*
X176702381Y-145383252D02*
X176678571Y-145335633D01*
X176678571Y-145335633D02*
X176654762Y-145311823D01*
X176654762Y-145311823D02*
X176607143Y-145288014D01*
X176607143Y-145288014D02*
X176511905Y-145264204D01*
X176511905Y-145264204D02*
X176464286Y-145240395D01*
X176464286Y-145240395D02*
X176440476Y-145216585D01*
X176440476Y-145216585D02*
X176416667Y-145168966D01*
X176416667Y-145168966D02*
X176416667Y-145121347D01*
X176416667Y-145121347D02*
X176440476Y-145073728D01*
X176440476Y-145073728D02*
X176464286Y-145049919D01*
X176464286Y-145049919D02*
X176511905Y-145026109D01*
X176511905Y-145026109D02*
X176630952Y-145026109D01*
X176630952Y-145026109D02*
X176702381Y-145049919D01*
X176845238Y-145026109D02*
X177130952Y-145026109D01*
X176988095Y-145526109D02*
X176988095Y-145026109D01*
X183480953Y-145026109D02*
X183647619Y-145526109D01*
X183647619Y-145526109D02*
X183814286Y-145026109D01*
X184195238Y-145526109D02*
X184195238Y-145026109D01*
X184195238Y-145502300D02*
X184147619Y-145526109D01*
X184147619Y-145526109D02*
X184052381Y-145526109D01*
X184052381Y-145526109D02*
X184004762Y-145502300D01*
X184004762Y-145502300D02*
X183980952Y-145478490D01*
X183980952Y-145478490D02*
X183957143Y-145430871D01*
X183957143Y-145430871D02*
X183957143Y-145288014D01*
X183957143Y-145288014D02*
X183980952Y-145240395D01*
X183980952Y-145240395D02*
X184004762Y-145216585D01*
X184004762Y-145216585D02*
X184052381Y-145192776D01*
X184052381Y-145192776D02*
X184147619Y-145192776D01*
X184147619Y-145192776D02*
X184195238Y-145216585D01*
X184647619Y-145526109D02*
X184647619Y-145026109D01*
X184647619Y-145502300D02*
X184600000Y-145526109D01*
X184600000Y-145526109D02*
X184504762Y-145526109D01*
X184504762Y-145526109D02*
X184457143Y-145502300D01*
X184457143Y-145502300D02*
X184433333Y-145478490D01*
X184433333Y-145478490D02*
X184409524Y-145430871D01*
X184409524Y-145430871D02*
X184409524Y-145288014D01*
X184409524Y-145288014D02*
X184433333Y-145240395D01*
X184433333Y-145240395D02*
X184457143Y-145216585D01*
X184457143Y-145216585D02*
X184504762Y-145192776D01*
X184504762Y-145192776D02*
X184600000Y-145192776D01*
X184600000Y-145192776D02*
X184647619Y-145216585D01*
X179319048Y-149026109D02*
X179604762Y-149026109D01*
X179461905Y-149526109D02*
X179461905Y-149026109D01*
X179723809Y-149026109D02*
X180057142Y-149526109D01*
X180057142Y-149026109D02*
X179723809Y-149526109D01*
X180540476Y-145502300D02*
X180611904Y-145526109D01*
X180611904Y-145526109D02*
X180730952Y-145526109D01*
X180730952Y-145526109D02*
X180778571Y-145502300D01*
X180778571Y-145502300D02*
X180802380Y-145478490D01*
X180802380Y-145478490D02*
X180826190Y-145430871D01*
X180826190Y-145430871D02*
X180826190Y-145383252D01*
X180826190Y-145383252D02*
X180802380Y-145335633D01*
X180802380Y-145335633D02*
X180778571Y-145311823D01*
X180778571Y-145311823D02*
X180730952Y-145288014D01*
X180730952Y-145288014D02*
X180635714Y-145264204D01*
X180635714Y-145264204D02*
X180588095Y-145240395D01*
X180588095Y-145240395D02*
X180564285Y-145216585D01*
X180564285Y-145216585D02*
X180540476Y-145168966D01*
X180540476Y-145168966D02*
X180540476Y-145121347D01*
X180540476Y-145121347D02*
X180564285Y-145073728D01*
X180564285Y-145073728D02*
X180588095Y-145049919D01*
X180588095Y-145049919D02*
X180635714Y-145026109D01*
X180635714Y-145026109D02*
X180754761Y-145026109D01*
X180754761Y-145026109D02*
X180826190Y-145049919D01*
X180992856Y-145026109D02*
X181111904Y-145526109D01*
X181111904Y-145526109D02*
X181207142Y-145168966D01*
X181207142Y-145168966D02*
X181302380Y-145526109D01*
X181302380Y-145526109D02*
X181421428Y-145026109D01*
X181611904Y-145526109D02*
X181611904Y-145026109D01*
X181611904Y-145026109D02*
X181730952Y-145026109D01*
X181730952Y-145026109D02*
X181802380Y-145049919D01*
X181802380Y-145049919D02*
X181849999Y-145097538D01*
X181849999Y-145097538D02*
X181873809Y-145145157D01*
X181873809Y-145145157D02*
X181897618Y-145240395D01*
X181897618Y-145240395D02*
X181897618Y-145311823D01*
X181897618Y-145311823D02*
X181873809Y-145407061D01*
X181873809Y-145407061D02*
X181849999Y-145454680D01*
X181849999Y-145454680D02*
X181802380Y-145502300D01*
X181802380Y-145502300D02*
X181730952Y-145526109D01*
X181730952Y-145526109D02*
X181611904Y-145526109D01*
X182111904Y-145526109D02*
X182111904Y-145026109D01*
X182445237Y-145026109D02*
X182540475Y-145026109D01*
X182540475Y-145026109D02*
X182588094Y-145049919D01*
X182588094Y-145049919D02*
X182635713Y-145097538D01*
X182635713Y-145097538D02*
X182659523Y-145192776D01*
X182659523Y-145192776D02*
X182659523Y-145359442D01*
X182659523Y-145359442D02*
X182635713Y-145454680D01*
X182635713Y-145454680D02*
X182588094Y-145502300D01*
X182588094Y-145502300D02*
X182540475Y-145526109D01*
X182540475Y-145526109D02*
X182445237Y-145526109D01*
X182445237Y-145526109D02*
X182397618Y-145502300D01*
X182397618Y-145502300D02*
X182349999Y-145454680D01*
X182349999Y-145454680D02*
X182326190Y-145359442D01*
X182326190Y-145359442D02*
X182326190Y-145192776D01*
X182326190Y-145192776D02*
X182349999Y-145097538D01*
X182349999Y-145097538D02*
X182397618Y-145049919D01*
X182397618Y-145049919D02*
X182445237Y-145026109D01*
X181816666Y-149526109D02*
X181650000Y-149288014D01*
X181530952Y-149526109D02*
X181530952Y-149026109D01*
X181530952Y-149026109D02*
X181721428Y-149026109D01*
X181721428Y-149026109D02*
X181769047Y-149049919D01*
X181769047Y-149049919D02*
X181792857Y-149073728D01*
X181792857Y-149073728D02*
X181816666Y-149121347D01*
X181816666Y-149121347D02*
X181816666Y-149192776D01*
X181816666Y-149192776D02*
X181792857Y-149240395D01*
X181792857Y-149240395D02*
X181769047Y-149264204D01*
X181769047Y-149264204D02*
X181721428Y-149288014D01*
X181721428Y-149288014D02*
X181530952Y-149288014D01*
X181983333Y-149026109D02*
X182316666Y-149526109D01*
X182316666Y-149026109D02*
X181983333Y-149526109D01*
X177869048Y-145502300D02*
X177940476Y-145526109D01*
X177940476Y-145526109D02*
X178059524Y-145526109D01*
X178059524Y-145526109D02*
X178107143Y-145502300D01*
X178107143Y-145502300D02*
X178130952Y-145478490D01*
X178130952Y-145478490D02*
X178154762Y-145430871D01*
X178154762Y-145430871D02*
X178154762Y-145383252D01*
X178154762Y-145383252D02*
X178130952Y-145335633D01*
X178130952Y-145335633D02*
X178107143Y-145311823D01*
X178107143Y-145311823D02*
X178059524Y-145288014D01*
X178059524Y-145288014D02*
X177964286Y-145264204D01*
X177964286Y-145264204D02*
X177916667Y-145240395D01*
X177916667Y-145240395D02*
X177892857Y-145216585D01*
X177892857Y-145216585D02*
X177869048Y-145168966D01*
X177869048Y-145168966D02*
X177869048Y-145121347D01*
X177869048Y-145121347D02*
X177892857Y-145073728D01*
X177892857Y-145073728D02*
X177916667Y-145049919D01*
X177916667Y-145049919D02*
X177964286Y-145026109D01*
X177964286Y-145026109D02*
X178083333Y-145026109D01*
X178083333Y-145026109D02*
X178154762Y-145049919D01*
X178321428Y-145026109D02*
X178440476Y-145526109D01*
X178440476Y-145526109D02*
X178535714Y-145168966D01*
X178535714Y-145168966D02*
X178630952Y-145526109D01*
X178630952Y-145526109D02*
X178750000Y-145026109D01*
X179226190Y-145478490D02*
X179202381Y-145502300D01*
X179202381Y-145502300D02*
X179130952Y-145526109D01*
X179130952Y-145526109D02*
X179083333Y-145526109D01*
X179083333Y-145526109D02*
X179011905Y-145502300D01*
X179011905Y-145502300D02*
X178964286Y-145454680D01*
X178964286Y-145454680D02*
X178940476Y-145407061D01*
X178940476Y-145407061D02*
X178916667Y-145311823D01*
X178916667Y-145311823D02*
X178916667Y-145240395D01*
X178916667Y-145240395D02*
X178940476Y-145145157D01*
X178940476Y-145145157D02*
X178964286Y-145097538D01*
X178964286Y-145097538D02*
X179011905Y-145049919D01*
X179011905Y-145049919D02*
X179083333Y-145026109D01*
X179083333Y-145026109D02*
X179130952Y-145026109D01*
X179130952Y-145026109D02*
X179202381Y-145049919D01*
X179202381Y-145049919D02*
X179226190Y-145073728D01*
X179678571Y-145526109D02*
X179440476Y-145526109D01*
X179440476Y-145526109D02*
X179440476Y-145026109D01*
X179845238Y-145526109D02*
X179845238Y-145026109D01*
X180130952Y-145526109D02*
X179916667Y-145240395D01*
X180130952Y-145026109D02*
X179845238Y-145311823D01*
X173519047Y-145049919D02*
X173471428Y-145026109D01*
X173471428Y-145026109D02*
X173399999Y-145026109D01*
X173399999Y-145026109D02*
X173328571Y-145049919D01*
X173328571Y-145049919D02*
X173280952Y-145097538D01*
X173280952Y-145097538D02*
X173257142Y-145145157D01*
X173257142Y-145145157D02*
X173233333Y-145240395D01*
X173233333Y-145240395D02*
X173233333Y-145311823D01*
X173233333Y-145311823D02*
X173257142Y-145407061D01*
X173257142Y-145407061D02*
X173280952Y-145454680D01*
X173280952Y-145454680D02*
X173328571Y-145502300D01*
X173328571Y-145502300D02*
X173399999Y-145526109D01*
X173399999Y-145526109D02*
X173447618Y-145526109D01*
X173447618Y-145526109D02*
X173519047Y-145502300D01*
X173519047Y-145502300D02*
X173542856Y-145478490D01*
X173542856Y-145478490D02*
X173542856Y-145311823D01*
X173542856Y-145311823D02*
X173447618Y-145311823D01*
X173757142Y-145526109D02*
X173757142Y-145026109D01*
X173757142Y-145026109D02*
X174042856Y-145526109D01*
X174042856Y-145526109D02*
X174042856Y-145026109D01*
X174280952Y-145526109D02*
X174280952Y-145026109D01*
X174280952Y-145026109D02*
X174400000Y-145026109D01*
X174400000Y-145026109D02*
X174471428Y-145049919D01*
X174471428Y-145049919D02*
X174519047Y-145097538D01*
X174519047Y-145097538D02*
X174542857Y-145145157D01*
X174542857Y-145145157D02*
X174566666Y-145240395D01*
X174566666Y-145240395D02*
X174566666Y-145311823D01*
X174566666Y-145311823D02*
X174542857Y-145407061D01*
X174542857Y-145407061D02*
X174519047Y-145454680D01*
X174519047Y-145454680D02*
X174471428Y-145502300D01*
X174471428Y-145502300D02*
X174400000Y-145526109D01*
X174400000Y-145526109D02*
X174280952Y-145526109D01*
X152270550Y-120626109D02*
X152103884Y-120388014D01*
X151984836Y-120626109D02*
X151984836Y-120126109D01*
X151984836Y-120126109D02*
X152175312Y-120126109D01*
X152175312Y-120126109D02*
X152222931Y-120149919D01*
X152222931Y-120149919D02*
X152246741Y-120173728D01*
X152246741Y-120173728D02*
X152270550Y-120221347D01*
X152270550Y-120221347D02*
X152270550Y-120292776D01*
X152270550Y-120292776D02*
X152246741Y-120340395D01*
X152246741Y-120340395D02*
X152222931Y-120364204D01*
X152222931Y-120364204D02*
X152175312Y-120388014D01*
X152175312Y-120388014D02*
X151984836Y-120388014D01*
X152461027Y-120602300D02*
X152532455Y-120626109D01*
X152532455Y-120626109D02*
X152651503Y-120626109D01*
X152651503Y-120626109D02*
X152699122Y-120602300D01*
X152699122Y-120602300D02*
X152722931Y-120578490D01*
X152722931Y-120578490D02*
X152746741Y-120530871D01*
X152746741Y-120530871D02*
X152746741Y-120483252D01*
X152746741Y-120483252D02*
X152722931Y-120435633D01*
X152722931Y-120435633D02*
X152699122Y-120411823D01*
X152699122Y-120411823D02*
X152651503Y-120388014D01*
X152651503Y-120388014D02*
X152556265Y-120364204D01*
X152556265Y-120364204D02*
X152508646Y-120340395D01*
X152508646Y-120340395D02*
X152484836Y-120316585D01*
X152484836Y-120316585D02*
X152461027Y-120268966D01*
X152461027Y-120268966D02*
X152461027Y-120221347D01*
X152461027Y-120221347D02*
X152484836Y-120173728D01*
X152484836Y-120173728D02*
X152508646Y-120149919D01*
X152508646Y-120149919D02*
X152556265Y-120126109D01*
X152556265Y-120126109D02*
X152675312Y-120126109D01*
X152675312Y-120126109D02*
X152746741Y-120149919D01*
X152889598Y-120126109D02*
X153175312Y-120126109D01*
X153032455Y-120626109D02*
X153032455Y-120126109D01*
D10*
X175024809Y-127980952D02*
X175429571Y-127980952D01*
X175429571Y-127980952D02*
X175477190Y-127957142D01*
X175477190Y-127957142D02*
X175501000Y-127933333D01*
X175501000Y-127933333D02*
X175524809Y-127885714D01*
X175524809Y-127885714D02*
X175524809Y-127790476D01*
X175524809Y-127790476D02*
X175501000Y-127742857D01*
X175501000Y-127742857D02*
X175477190Y-127719047D01*
X175477190Y-127719047D02*
X175429571Y-127695238D01*
X175429571Y-127695238D02*
X175024809Y-127695238D01*
X175072428Y-127480951D02*
X175048619Y-127457142D01*
X175048619Y-127457142D02*
X175024809Y-127409523D01*
X175024809Y-127409523D02*
X175024809Y-127290475D01*
X175024809Y-127290475D02*
X175048619Y-127242856D01*
X175048619Y-127242856D02*
X175072428Y-127219047D01*
X175072428Y-127219047D02*
X175120047Y-127195237D01*
X175120047Y-127195237D02*
X175167666Y-127195237D01*
X175167666Y-127195237D02*
X175239095Y-127219047D01*
X175239095Y-127219047D02*
X175524809Y-127504761D01*
X175524809Y-127504761D02*
X175524809Y-127195237D01*
X158816666Y-149924809D02*
X158578571Y-149924809D01*
X158578571Y-149924809D02*
X158578571Y-149424809D01*
X159245238Y-149924809D02*
X158959524Y-149924809D01*
X159102381Y-149924809D02*
X159102381Y-149424809D01*
X159102381Y-149424809D02*
X159054762Y-149496238D01*
X159054762Y-149496238D02*
X159007143Y-149543857D01*
X159007143Y-149543857D02*
X158959524Y-149567666D01*
X172486666Y-131977190D02*
X172462857Y-132001000D01*
X172462857Y-132001000D02*
X172391428Y-132024809D01*
X172391428Y-132024809D02*
X172343809Y-132024809D01*
X172343809Y-132024809D02*
X172272381Y-132001000D01*
X172272381Y-132001000D02*
X172224762Y-131953380D01*
X172224762Y-131953380D02*
X172200952Y-131905761D01*
X172200952Y-131905761D02*
X172177143Y-131810523D01*
X172177143Y-131810523D02*
X172177143Y-131739095D01*
X172177143Y-131739095D02*
X172200952Y-131643857D01*
X172200952Y-131643857D02*
X172224762Y-131596238D01*
X172224762Y-131596238D02*
X172272381Y-131548619D01*
X172272381Y-131548619D02*
X172343809Y-131524809D01*
X172343809Y-131524809D02*
X172391428Y-131524809D01*
X172391428Y-131524809D02*
X172462857Y-131548619D01*
X172462857Y-131548619D02*
X172486666Y-131572428D01*
X172939047Y-131524809D02*
X172700952Y-131524809D01*
X172700952Y-131524809D02*
X172677143Y-131762904D01*
X172677143Y-131762904D02*
X172700952Y-131739095D01*
X172700952Y-131739095D02*
X172748571Y-131715285D01*
X172748571Y-131715285D02*
X172867619Y-131715285D01*
X172867619Y-131715285D02*
X172915238Y-131739095D01*
X172915238Y-131739095D02*
X172939047Y-131762904D01*
X172939047Y-131762904D02*
X172962857Y-131810523D01*
X172962857Y-131810523D02*
X172962857Y-131929571D01*
X172962857Y-131929571D02*
X172939047Y-131977190D01*
X172939047Y-131977190D02*
X172915238Y-132001000D01*
X172915238Y-132001000D02*
X172867619Y-132024809D01*
X172867619Y-132024809D02*
X172748571Y-132024809D01*
X172748571Y-132024809D02*
X172700952Y-132001000D01*
X172700952Y-132001000D02*
X172677143Y-131977190D01*
X168419047Y-134924809D02*
X168419047Y-135329571D01*
X168419047Y-135329571D02*
X168442857Y-135377190D01*
X168442857Y-135377190D02*
X168466666Y-135401000D01*
X168466666Y-135401000D02*
X168514285Y-135424809D01*
X168514285Y-135424809D02*
X168609523Y-135424809D01*
X168609523Y-135424809D02*
X168657142Y-135401000D01*
X168657142Y-135401000D02*
X168680952Y-135377190D01*
X168680952Y-135377190D02*
X168704761Y-135329571D01*
X168704761Y-135329571D02*
X168704761Y-134924809D01*
X169204762Y-135424809D02*
X168919048Y-135424809D01*
X169061905Y-135424809D02*
X169061905Y-134924809D01*
X169061905Y-134924809D02*
X169014286Y-134996238D01*
X169014286Y-134996238D02*
X168966667Y-135043857D01*
X168966667Y-135043857D02*
X168919048Y-135067666D01*
X159778571Y-145524809D02*
X159611905Y-145286714D01*
X159492857Y-145524809D02*
X159492857Y-145024809D01*
X159492857Y-145024809D02*
X159683333Y-145024809D01*
X159683333Y-145024809D02*
X159730952Y-145048619D01*
X159730952Y-145048619D02*
X159754762Y-145072428D01*
X159754762Y-145072428D02*
X159778571Y-145120047D01*
X159778571Y-145120047D02*
X159778571Y-145191476D01*
X159778571Y-145191476D02*
X159754762Y-145239095D01*
X159754762Y-145239095D02*
X159730952Y-145262904D01*
X159730952Y-145262904D02*
X159683333Y-145286714D01*
X159683333Y-145286714D02*
X159492857Y-145286714D01*
X160254762Y-145524809D02*
X159969048Y-145524809D01*
X160111905Y-145524809D02*
X160111905Y-145024809D01*
X160111905Y-145024809D02*
X160064286Y-145096238D01*
X160064286Y-145096238D02*
X160016667Y-145143857D01*
X160016667Y-145143857D02*
X159969048Y-145167666D01*
X160421428Y-145024809D02*
X160754761Y-145024809D01*
X160754761Y-145024809D02*
X160540476Y-145524809D01*
X190233333Y-143614809D02*
X190233333Y-143971952D01*
X190233333Y-143971952D02*
X190209524Y-144043380D01*
X190209524Y-144043380D02*
X190161905Y-144091000D01*
X190161905Y-144091000D02*
X190090476Y-144114809D01*
X190090476Y-144114809D02*
X190042857Y-144114809D01*
X190685714Y-143781476D02*
X190685714Y-144114809D01*
X190566666Y-143591000D02*
X190447619Y-143948142D01*
X190447619Y-143948142D02*
X190757142Y-143948142D01*
X160178571Y-142824809D02*
X160011905Y-142586714D01*
X159892857Y-142824809D02*
X159892857Y-142324809D01*
X159892857Y-142324809D02*
X160083333Y-142324809D01*
X160083333Y-142324809D02*
X160130952Y-142348619D01*
X160130952Y-142348619D02*
X160154762Y-142372428D01*
X160154762Y-142372428D02*
X160178571Y-142420047D01*
X160178571Y-142420047D02*
X160178571Y-142491476D01*
X160178571Y-142491476D02*
X160154762Y-142539095D01*
X160154762Y-142539095D02*
X160130952Y-142562904D01*
X160130952Y-142562904D02*
X160083333Y-142586714D01*
X160083333Y-142586714D02*
X159892857Y-142586714D01*
X160369048Y-142372428D02*
X160392857Y-142348619D01*
X160392857Y-142348619D02*
X160440476Y-142324809D01*
X160440476Y-142324809D02*
X160559524Y-142324809D01*
X160559524Y-142324809D02*
X160607143Y-142348619D01*
X160607143Y-142348619D02*
X160630952Y-142372428D01*
X160630952Y-142372428D02*
X160654762Y-142420047D01*
X160654762Y-142420047D02*
X160654762Y-142467666D01*
X160654762Y-142467666D02*
X160630952Y-142539095D01*
X160630952Y-142539095D02*
X160345238Y-142824809D01*
X160345238Y-142824809D02*
X160654762Y-142824809D01*
X160964285Y-142324809D02*
X161011904Y-142324809D01*
X161011904Y-142324809D02*
X161059523Y-142348619D01*
X161059523Y-142348619D02*
X161083333Y-142372428D01*
X161083333Y-142372428D02*
X161107142Y-142420047D01*
X161107142Y-142420047D02*
X161130952Y-142515285D01*
X161130952Y-142515285D02*
X161130952Y-142634333D01*
X161130952Y-142634333D02*
X161107142Y-142729571D01*
X161107142Y-142729571D02*
X161083333Y-142777190D01*
X161083333Y-142777190D02*
X161059523Y-142801000D01*
X161059523Y-142801000D02*
X161011904Y-142824809D01*
X161011904Y-142824809D02*
X160964285Y-142824809D01*
X160964285Y-142824809D02*
X160916666Y-142801000D01*
X160916666Y-142801000D02*
X160892857Y-142777190D01*
X160892857Y-142777190D02*
X160869047Y-142729571D01*
X160869047Y-142729571D02*
X160845238Y-142634333D01*
X160845238Y-142634333D02*
X160845238Y-142515285D01*
X160845238Y-142515285D02*
X160869047Y-142420047D01*
X160869047Y-142420047D02*
X160892857Y-142372428D01*
X160892857Y-142372428D02*
X160916666Y-142348619D01*
X160916666Y-142348619D02*
X160964285Y-142324809D01*
X158469048Y-128124809D02*
X158754762Y-128124809D01*
X158611905Y-128624809D02*
X158611905Y-128124809D01*
X158921428Y-128624809D02*
X158921428Y-128124809D01*
X158921428Y-128124809D02*
X159111904Y-128124809D01*
X159111904Y-128124809D02*
X159159523Y-128148619D01*
X159159523Y-128148619D02*
X159183333Y-128172428D01*
X159183333Y-128172428D02*
X159207142Y-128220047D01*
X159207142Y-128220047D02*
X159207142Y-128291476D01*
X159207142Y-128291476D02*
X159183333Y-128339095D01*
X159183333Y-128339095D02*
X159159523Y-128362904D01*
X159159523Y-128362904D02*
X159111904Y-128386714D01*
X159111904Y-128386714D02*
X158921428Y-128386714D01*
X159683333Y-128624809D02*
X159397619Y-128624809D01*
X159540476Y-128624809D02*
X159540476Y-128124809D01*
X159540476Y-128124809D02*
X159492857Y-128196238D01*
X159492857Y-128196238D02*
X159445238Y-128243857D01*
X159445238Y-128243857D02*
X159397619Y-128267666D01*
X183180952Y-128324809D02*
X183180952Y-128729571D01*
X183180952Y-128729571D02*
X183204762Y-128777190D01*
X183204762Y-128777190D02*
X183228571Y-128801000D01*
X183228571Y-128801000D02*
X183276190Y-128824809D01*
X183276190Y-128824809D02*
X183371428Y-128824809D01*
X183371428Y-128824809D02*
X183419047Y-128801000D01*
X183419047Y-128801000D02*
X183442857Y-128777190D01*
X183442857Y-128777190D02*
X183466666Y-128729571D01*
X183466666Y-128729571D02*
X183466666Y-128324809D01*
X183966667Y-128824809D02*
X183680953Y-128824809D01*
X183823810Y-128824809D02*
X183823810Y-128324809D01*
X183823810Y-128324809D02*
X183776191Y-128396238D01*
X183776191Y-128396238D02*
X183728572Y-128443857D01*
X183728572Y-128443857D02*
X183680953Y-128467666D01*
X184157143Y-128372428D02*
X184180952Y-128348619D01*
X184180952Y-128348619D02*
X184228571Y-128324809D01*
X184228571Y-128324809D02*
X184347619Y-128324809D01*
X184347619Y-128324809D02*
X184395238Y-128348619D01*
X184395238Y-128348619D02*
X184419047Y-128372428D01*
X184419047Y-128372428D02*
X184442857Y-128420047D01*
X184442857Y-128420047D02*
X184442857Y-128467666D01*
X184442857Y-128467666D02*
X184419047Y-128539095D01*
X184419047Y-128539095D02*
X184133333Y-128824809D01*
X184133333Y-128824809D02*
X184442857Y-128824809D01*
X171552380Y-148972428D02*
X171504761Y-148948619D01*
X171504761Y-148948619D02*
X171457142Y-148901000D01*
X171457142Y-148901000D02*
X171385714Y-148829571D01*
X171385714Y-148829571D02*
X171338095Y-148805761D01*
X171338095Y-148805761D02*
X171290476Y-148805761D01*
X171314285Y-148924809D02*
X171266666Y-148901000D01*
X171266666Y-148901000D02*
X171219047Y-148853380D01*
X171219047Y-148853380D02*
X171195238Y-148758142D01*
X171195238Y-148758142D02*
X171195238Y-148591476D01*
X171195238Y-148591476D02*
X171219047Y-148496238D01*
X171219047Y-148496238D02*
X171266666Y-148448619D01*
X171266666Y-148448619D02*
X171314285Y-148424809D01*
X171314285Y-148424809D02*
X171409523Y-148424809D01*
X171409523Y-148424809D02*
X171457142Y-148448619D01*
X171457142Y-148448619D02*
X171504761Y-148496238D01*
X171504761Y-148496238D02*
X171528571Y-148591476D01*
X171528571Y-148591476D02*
X171528571Y-148758142D01*
X171528571Y-148758142D02*
X171504761Y-148853380D01*
X171504761Y-148853380D02*
X171457142Y-148901000D01*
X171457142Y-148901000D02*
X171409523Y-148924809D01*
X171409523Y-148924809D02*
X171314285Y-148924809D01*
X171719048Y-148472428D02*
X171742857Y-148448619D01*
X171742857Y-148448619D02*
X171790476Y-148424809D01*
X171790476Y-148424809D02*
X171909524Y-148424809D01*
X171909524Y-148424809D02*
X171957143Y-148448619D01*
X171957143Y-148448619D02*
X171980952Y-148472428D01*
X171980952Y-148472428D02*
X172004762Y-148520047D01*
X172004762Y-148520047D02*
X172004762Y-148567666D01*
X172004762Y-148567666D02*
X171980952Y-148639095D01*
X171980952Y-148639095D02*
X171695238Y-148924809D01*
X171695238Y-148924809D02*
X172004762Y-148924809D01*
X171933333Y-145724809D02*
X171933333Y-146081952D01*
X171933333Y-146081952D02*
X171909524Y-146153380D01*
X171909524Y-146153380D02*
X171861905Y-146201000D01*
X171861905Y-146201000D02*
X171790476Y-146224809D01*
X171790476Y-146224809D02*
X171742857Y-146224809D01*
X172123809Y-145724809D02*
X172457142Y-145724809D01*
X172457142Y-145724809D02*
X172242857Y-146224809D01*
X167019047Y-137924809D02*
X167019047Y-138329571D01*
X167019047Y-138329571D02*
X167042857Y-138377190D01*
X167042857Y-138377190D02*
X167066666Y-138401000D01*
X167066666Y-138401000D02*
X167114285Y-138424809D01*
X167114285Y-138424809D02*
X167209523Y-138424809D01*
X167209523Y-138424809D02*
X167257142Y-138401000D01*
X167257142Y-138401000D02*
X167280952Y-138377190D01*
X167280952Y-138377190D02*
X167304761Y-138329571D01*
X167304761Y-138329571D02*
X167304761Y-137924809D01*
X167780952Y-137924809D02*
X167542857Y-137924809D01*
X167542857Y-137924809D02*
X167519048Y-138162904D01*
X167519048Y-138162904D02*
X167542857Y-138139095D01*
X167542857Y-138139095D02*
X167590476Y-138115285D01*
X167590476Y-138115285D02*
X167709524Y-138115285D01*
X167709524Y-138115285D02*
X167757143Y-138139095D01*
X167757143Y-138139095D02*
X167780952Y-138162904D01*
X167780952Y-138162904D02*
X167804762Y-138210523D01*
X167804762Y-138210523D02*
X167804762Y-138329571D01*
X167804762Y-138329571D02*
X167780952Y-138377190D01*
X167780952Y-138377190D02*
X167757143Y-138401000D01*
X167757143Y-138401000D02*
X167709524Y-138424809D01*
X167709524Y-138424809D02*
X167590476Y-138424809D01*
X167590476Y-138424809D02*
X167542857Y-138401000D01*
X167542857Y-138401000D02*
X167519048Y-138377190D01*
X156235900Y-124766665D02*
X156259709Y-124695237D01*
X156259709Y-124695237D02*
X156259709Y-124576189D01*
X156259709Y-124576189D02*
X156235900Y-124528570D01*
X156235900Y-124528570D02*
X156212090Y-124504761D01*
X156212090Y-124504761D02*
X156164471Y-124480951D01*
X156164471Y-124480951D02*
X156116852Y-124480951D01*
X156116852Y-124480951D02*
X156069233Y-124504761D01*
X156069233Y-124504761D02*
X156045423Y-124528570D01*
X156045423Y-124528570D02*
X156021614Y-124576189D01*
X156021614Y-124576189D02*
X155997804Y-124671427D01*
X155997804Y-124671427D02*
X155973995Y-124719046D01*
X155973995Y-124719046D02*
X155950185Y-124742856D01*
X155950185Y-124742856D02*
X155902566Y-124766665D01*
X155902566Y-124766665D02*
X155854947Y-124766665D01*
X155854947Y-124766665D02*
X155807328Y-124742856D01*
X155807328Y-124742856D02*
X155783519Y-124719046D01*
X155783519Y-124719046D02*
X155759709Y-124671427D01*
X155759709Y-124671427D02*
X155759709Y-124552380D01*
X155759709Y-124552380D02*
X155783519Y-124480951D01*
X155759709Y-124314285D02*
X156259709Y-124195237D01*
X156259709Y-124195237D02*
X155902566Y-124099999D01*
X155902566Y-124099999D02*
X156259709Y-124004761D01*
X156259709Y-124004761D02*
X155759709Y-123885714D01*
X156259709Y-123433332D02*
X156259709Y-123719046D01*
X156259709Y-123576189D02*
X155759709Y-123576189D01*
X155759709Y-123576189D02*
X155831138Y-123623808D01*
X155831138Y-123623808D02*
X155878757Y-123671427D01*
X155878757Y-123671427D02*
X155902566Y-123719046D01*
X186716667Y-118381952D02*
X186954762Y-118381952D01*
X186669048Y-118524809D02*
X186835714Y-118024809D01*
X186835714Y-118024809D02*
X187002381Y-118524809D01*
X187169047Y-118262904D02*
X187335714Y-118262904D01*
X187407142Y-118524809D02*
X187169047Y-118524809D01*
X187169047Y-118524809D02*
X187169047Y-118024809D01*
X187169047Y-118024809D02*
X187407142Y-118024809D01*
X187883333Y-118524809D02*
X187597619Y-118524809D01*
X187740476Y-118524809D02*
X187740476Y-118024809D01*
X187740476Y-118024809D02*
X187692857Y-118096238D01*
X187692857Y-118096238D02*
X187645238Y-118143857D01*
X187645238Y-118143857D02*
X187597619Y-118167666D01*
X171616666Y-145024809D02*
X171450000Y-144786714D01*
X171330952Y-145024809D02*
X171330952Y-144524809D01*
X171330952Y-144524809D02*
X171521428Y-144524809D01*
X171521428Y-144524809D02*
X171569047Y-144548619D01*
X171569047Y-144548619D02*
X171592857Y-144572428D01*
X171592857Y-144572428D02*
X171616666Y-144620047D01*
X171616666Y-144620047D02*
X171616666Y-144691476D01*
X171616666Y-144691476D02*
X171592857Y-144739095D01*
X171592857Y-144739095D02*
X171569047Y-144762904D01*
X171569047Y-144762904D02*
X171521428Y-144786714D01*
X171521428Y-144786714D02*
X171330952Y-144786714D01*
X171783333Y-144524809D02*
X172092857Y-144524809D01*
X172092857Y-144524809D02*
X171926190Y-144715285D01*
X171926190Y-144715285D02*
X171997619Y-144715285D01*
X171997619Y-144715285D02*
X172045238Y-144739095D01*
X172045238Y-144739095D02*
X172069047Y-144762904D01*
X172069047Y-144762904D02*
X172092857Y-144810523D01*
X172092857Y-144810523D02*
X172092857Y-144929571D01*
X172092857Y-144929571D02*
X172069047Y-144977190D01*
X172069047Y-144977190D02*
X172045238Y-145001000D01*
X172045238Y-145001000D02*
X171997619Y-145024809D01*
X171997619Y-145024809D02*
X171854762Y-145024809D01*
X171854762Y-145024809D02*
X171807143Y-145001000D01*
X171807143Y-145001000D02*
X171783333Y-144977190D01*
X158830952Y-132024809D02*
X158830952Y-131524809D01*
X158830952Y-131524809D02*
X158950000Y-131524809D01*
X158950000Y-131524809D02*
X159021428Y-131548619D01*
X159021428Y-131548619D02*
X159069047Y-131596238D01*
X159069047Y-131596238D02*
X159092857Y-131643857D01*
X159092857Y-131643857D02*
X159116666Y-131739095D01*
X159116666Y-131739095D02*
X159116666Y-131810523D01*
X159116666Y-131810523D02*
X159092857Y-131905761D01*
X159092857Y-131905761D02*
X159069047Y-131953380D01*
X159069047Y-131953380D02*
X159021428Y-132001000D01*
X159021428Y-132001000D02*
X158950000Y-132024809D01*
X158950000Y-132024809D02*
X158830952Y-132024809D01*
X159592857Y-132024809D02*
X159307143Y-132024809D01*
X159450000Y-132024809D02*
X159450000Y-131524809D01*
X159450000Y-131524809D02*
X159402381Y-131596238D01*
X159402381Y-131596238D02*
X159354762Y-131643857D01*
X159354762Y-131643857D02*
X159307143Y-131667666D01*
X155230952Y-141724809D02*
X155230952Y-141224809D01*
X155230952Y-141224809D02*
X155350000Y-141224809D01*
X155350000Y-141224809D02*
X155421428Y-141248619D01*
X155421428Y-141248619D02*
X155469047Y-141296238D01*
X155469047Y-141296238D02*
X155492857Y-141343857D01*
X155492857Y-141343857D02*
X155516666Y-141439095D01*
X155516666Y-141439095D02*
X155516666Y-141510523D01*
X155516666Y-141510523D02*
X155492857Y-141605761D01*
X155492857Y-141605761D02*
X155469047Y-141653380D01*
X155469047Y-141653380D02*
X155421428Y-141701000D01*
X155421428Y-141701000D02*
X155350000Y-141724809D01*
X155350000Y-141724809D02*
X155230952Y-141724809D01*
X155707143Y-141272428D02*
X155730952Y-141248619D01*
X155730952Y-141248619D02*
X155778571Y-141224809D01*
X155778571Y-141224809D02*
X155897619Y-141224809D01*
X155897619Y-141224809D02*
X155945238Y-141248619D01*
X155945238Y-141248619D02*
X155969047Y-141272428D01*
X155969047Y-141272428D02*
X155992857Y-141320047D01*
X155992857Y-141320047D02*
X155992857Y-141367666D01*
X155992857Y-141367666D02*
X155969047Y-141439095D01*
X155969047Y-141439095D02*
X155683333Y-141724809D01*
X155683333Y-141724809D02*
X155992857Y-141724809D01*
X170319047Y-123524809D02*
X170319047Y-123929571D01*
X170319047Y-123929571D02*
X170342857Y-123977190D01*
X170342857Y-123977190D02*
X170366666Y-124001000D01*
X170366666Y-124001000D02*
X170414285Y-124024809D01*
X170414285Y-124024809D02*
X170509523Y-124024809D01*
X170509523Y-124024809D02*
X170557142Y-124001000D01*
X170557142Y-124001000D02*
X170580952Y-123977190D01*
X170580952Y-123977190D02*
X170604761Y-123929571D01*
X170604761Y-123929571D02*
X170604761Y-123524809D01*
X170795238Y-123524809D02*
X171104762Y-123524809D01*
X171104762Y-123524809D02*
X170938095Y-123715285D01*
X170938095Y-123715285D02*
X171009524Y-123715285D01*
X171009524Y-123715285D02*
X171057143Y-123739095D01*
X171057143Y-123739095D02*
X171080952Y-123762904D01*
X171080952Y-123762904D02*
X171104762Y-123810523D01*
X171104762Y-123810523D02*
X171104762Y-123929571D01*
X171104762Y-123929571D02*
X171080952Y-123977190D01*
X171080952Y-123977190D02*
X171057143Y-124001000D01*
X171057143Y-124001000D02*
X171009524Y-124024809D01*
X171009524Y-124024809D02*
X170866667Y-124024809D01*
X170866667Y-124024809D02*
X170819048Y-124001000D01*
X170819048Y-124001000D02*
X170795238Y-123977190D01*
X154624809Y-128183333D02*
X154386714Y-128349999D01*
X154624809Y-128469047D02*
X154124809Y-128469047D01*
X154124809Y-128469047D02*
X154124809Y-128278571D01*
X154124809Y-128278571D02*
X154148619Y-128230952D01*
X154148619Y-128230952D02*
X154172428Y-128207142D01*
X154172428Y-128207142D02*
X154220047Y-128183333D01*
X154220047Y-128183333D02*
X154291476Y-128183333D01*
X154291476Y-128183333D02*
X154339095Y-128207142D01*
X154339095Y-128207142D02*
X154362904Y-128230952D01*
X154362904Y-128230952D02*
X154386714Y-128278571D01*
X154386714Y-128278571D02*
X154386714Y-128469047D01*
X154624809Y-127707142D02*
X154624809Y-127992856D01*
X154624809Y-127849999D02*
X154124809Y-127849999D01*
X154124809Y-127849999D02*
X154196238Y-127897618D01*
X154196238Y-127897618D02*
X154243857Y-127945237D01*
X154243857Y-127945237D02*
X154267666Y-127992856D01*
X162078571Y-136177190D02*
X162054762Y-136201000D01*
X162054762Y-136201000D02*
X161983333Y-136224809D01*
X161983333Y-136224809D02*
X161935714Y-136224809D01*
X161935714Y-136224809D02*
X161864286Y-136201000D01*
X161864286Y-136201000D02*
X161816667Y-136153380D01*
X161816667Y-136153380D02*
X161792857Y-136105761D01*
X161792857Y-136105761D02*
X161769048Y-136010523D01*
X161769048Y-136010523D02*
X161769048Y-135939095D01*
X161769048Y-135939095D02*
X161792857Y-135843857D01*
X161792857Y-135843857D02*
X161816667Y-135796238D01*
X161816667Y-135796238D02*
X161864286Y-135748619D01*
X161864286Y-135748619D02*
X161935714Y-135724809D01*
X161935714Y-135724809D02*
X161983333Y-135724809D01*
X161983333Y-135724809D02*
X162054762Y-135748619D01*
X162054762Y-135748619D02*
X162078571Y-135772428D01*
X162554762Y-136224809D02*
X162269048Y-136224809D01*
X162411905Y-136224809D02*
X162411905Y-135724809D01*
X162411905Y-135724809D02*
X162364286Y-135796238D01*
X162364286Y-135796238D02*
X162316667Y-135843857D01*
X162316667Y-135843857D02*
X162269048Y-135867666D01*
X162840476Y-135939095D02*
X162792857Y-135915285D01*
X162792857Y-135915285D02*
X162769047Y-135891476D01*
X162769047Y-135891476D02*
X162745238Y-135843857D01*
X162745238Y-135843857D02*
X162745238Y-135820047D01*
X162745238Y-135820047D02*
X162769047Y-135772428D01*
X162769047Y-135772428D02*
X162792857Y-135748619D01*
X162792857Y-135748619D02*
X162840476Y-135724809D01*
X162840476Y-135724809D02*
X162935714Y-135724809D01*
X162935714Y-135724809D02*
X162983333Y-135748619D01*
X162983333Y-135748619D02*
X163007142Y-135772428D01*
X163007142Y-135772428D02*
X163030952Y-135820047D01*
X163030952Y-135820047D02*
X163030952Y-135843857D01*
X163030952Y-135843857D02*
X163007142Y-135891476D01*
X163007142Y-135891476D02*
X162983333Y-135915285D01*
X162983333Y-135915285D02*
X162935714Y-135939095D01*
X162935714Y-135939095D02*
X162840476Y-135939095D01*
X162840476Y-135939095D02*
X162792857Y-135962904D01*
X162792857Y-135962904D02*
X162769047Y-135986714D01*
X162769047Y-135986714D02*
X162745238Y-136034333D01*
X162745238Y-136034333D02*
X162745238Y-136129571D01*
X162745238Y-136129571D02*
X162769047Y-136177190D01*
X162769047Y-136177190D02*
X162792857Y-136201000D01*
X162792857Y-136201000D02*
X162840476Y-136224809D01*
X162840476Y-136224809D02*
X162935714Y-136224809D01*
X162935714Y-136224809D02*
X162983333Y-136201000D01*
X162983333Y-136201000D02*
X163007142Y-136177190D01*
X163007142Y-136177190D02*
X163030952Y-136129571D01*
X163030952Y-136129571D02*
X163030952Y-136034333D01*
X163030952Y-136034333D02*
X163007142Y-135986714D01*
X163007142Y-135986714D02*
X162983333Y-135962904D01*
X162983333Y-135962904D02*
X162935714Y-135939095D01*
X154603641Y-121074311D02*
X154579832Y-121098121D01*
X154579832Y-121098121D02*
X154508403Y-121121930D01*
X154508403Y-121121930D02*
X154460784Y-121121930D01*
X154460784Y-121121930D02*
X154389356Y-121098121D01*
X154389356Y-121098121D02*
X154341737Y-121050501D01*
X154341737Y-121050501D02*
X154317927Y-121002882D01*
X154317927Y-121002882D02*
X154294118Y-120907644D01*
X154294118Y-120907644D02*
X154294118Y-120836216D01*
X154294118Y-120836216D02*
X154317927Y-120740978D01*
X154317927Y-120740978D02*
X154341737Y-120693359D01*
X154341737Y-120693359D02*
X154389356Y-120645740D01*
X154389356Y-120645740D02*
X154460784Y-120621930D01*
X154460784Y-120621930D02*
X154508403Y-120621930D01*
X154508403Y-120621930D02*
X154579832Y-120645740D01*
X154579832Y-120645740D02*
X154603641Y-120669549D01*
X155079832Y-121121930D02*
X154794118Y-121121930D01*
X154936975Y-121121930D02*
X154936975Y-120621930D01*
X154936975Y-120621930D02*
X154889356Y-120693359D01*
X154889356Y-120693359D02*
X154841737Y-120740978D01*
X154841737Y-120740978D02*
X154794118Y-120764787D01*
X155508403Y-120788597D02*
X155508403Y-121121930D01*
X155389355Y-120598121D02*
X155270308Y-120955263D01*
X155270308Y-120955263D02*
X155579831Y-120955263D01*
X173616666Y-141877190D02*
X173592857Y-141901000D01*
X173592857Y-141901000D02*
X173521428Y-141924809D01*
X173521428Y-141924809D02*
X173473809Y-141924809D01*
X173473809Y-141924809D02*
X173402381Y-141901000D01*
X173402381Y-141901000D02*
X173354762Y-141853380D01*
X173354762Y-141853380D02*
X173330952Y-141805761D01*
X173330952Y-141805761D02*
X173307143Y-141710523D01*
X173307143Y-141710523D02*
X173307143Y-141639095D01*
X173307143Y-141639095D02*
X173330952Y-141543857D01*
X173330952Y-141543857D02*
X173354762Y-141496238D01*
X173354762Y-141496238D02*
X173402381Y-141448619D01*
X173402381Y-141448619D02*
X173473809Y-141424809D01*
X173473809Y-141424809D02*
X173521428Y-141424809D01*
X173521428Y-141424809D02*
X173592857Y-141448619D01*
X173592857Y-141448619D02*
X173616666Y-141472428D01*
X173807143Y-141472428D02*
X173830952Y-141448619D01*
X173830952Y-141448619D02*
X173878571Y-141424809D01*
X173878571Y-141424809D02*
X173997619Y-141424809D01*
X173997619Y-141424809D02*
X174045238Y-141448619D01*
X174045238Y-141448619D02*
X174069047Y-141472428D01*
X174069047Y-141472428D02*
X174092857Y-141520047D01*
X174092857Y-141520047D02*
X174092857Y-141567666D01*
X174092857Y-141567666D02*
X174069047Y-141639095D01*
X174069047Y-141639095D02*
X173783333Y-141924809D01*
X173783333Y-141924809D02*
X174092857Y-141924809D01*
X170616666Y-146624809D02*
X170450000Y-146386714D01*
X170330952Y-146624809D02*
X170330952Y-146124809D01*
X170330952Y-146124809D02*
X170521428Y-146124809D01*
X170521428Y-146124809D02*
X170569047Y-146148619D01*
X170569047Y-146148619D02*
X170592857Y-146172428D01*
X170592857Y-146172428D02*
X170616666Y-146220047D01*
X170616666Y-146220047D02*
X170616666Y-146291476D01*
X170616666Y-146291476D02*
X170592857Y-146339095D01*
X170592857Y-146339095D02*
X170569047Y-146362904D01*
X170569047Y-146362904D02*
X170521428Y-146386714D01*
X170521428Y-146386714D02*
X170330952Y-146386714D01*
X171069047Y-146124809D02*
X170830952Y-146124809D01*
X170830952Y-146124809D02*
X170807143Y-146362904D01*
X170807143Y-146362904D02*
X170830952Y-146339095D01*
X170830952Y-146339095D02*
X170878571Y-146315285D01*
X170878571Y-146315285D02*
X170997619Y-146315285D01*
X170997619Y-146315285D02*
X171045238Y-146339095D01*
X171045238Y-146339095D02*
X171069047Y-146362904D01*
X171069047Y-146362904D02*
X171092857Y-146410523D01*
X171092857Y-146410523D02*
X171092857Y-146529571D01*
X171092857Y-146529571D02*
X171069047Y-146577190D01*
X171069047Y-146577190D02*
X171045238Y-146601000D01*
X171045238Y-146601000D02*
X170997619Y-146624809D01*
X170997619Y-146624809D02*
X170878571Y-146624809D01*
X170878571Y-146624809D02*
X170830952Y-146601000D01*
X170830952Y-146601000D02*
X170807143Y-146577190D01*
X170616666Y-122777190D02*
X170592857Y-122801000D01*
X170592857Y-122801000D02*
X170521428Y-122824809D01*
X170521428Y-122824809D02*
X170473809Y-122824809D01*
X170473809Y-122824809D02*
X170402381Y-122801000D01*
X170402381Y-122801000D02*
X170354762Y-122753380D01*
X170354762Y-122753380D02*
X170330952Y-122705761D01*
X170330952Y-122705761D02*
X170307143Y-122610523D01*
X170307143Y-122610523D02*
X170307143Y-122539095D01*
X170307143Y-122539095D02*
X170330952Y-122443857D01*
X170330952Y-122443857D02*
X170354762Y-122396238D01*
X170354762Y-122396238D02*
X170402381Y-122348619D01*
X170402381Y-122348619D02*
X170473809Y-122324809D01*
X170473809Y-122324809D02*
X170521428Y-122324809D01*
X170521428Y-122324809D02*
X170592857Y-122348619D01*
X170592857Y-122348619D02*
X170616666Y-122372428D01*
X171092857Y-122824809D02*
X170807143Y-122824809D01*
X170950000Y-122824809D02*
X170950000Y-122324809D01*
X170950000Y-122324809D02*
X170902381Y-122396238D01*
X170902381Y-122396238D02*
X170854762Y-122443857D01*
X170854762Y-122443857D02*
X170807143Y-122467666D01*
X159419047Y-140424809D02*
X159419047Y-140829571D01*
X159419047Y-140829571D02*
X159442857Y-140877190D01*
X159442857Y-140877190D02*
X159466666Y-140901000D01*
X159466666Y-140901000D02*
X159514285Y-140924809D01*
X159514285Y-140924809D02*
X159609523Y-140924809D01*
X159609523Y-140924809D02*
X159657142Y-140901000D01*
X159657142Y-140901000D02*
X159680952Y-140877190D01*
X159680952Y-140877190D02*
X159704761Y-140829571D01*
X159704761Y-140829571D02*
X159704761Y-140424809D01*
X160014286Y-140639095D02*
X159966667Y-140615285D01*
X159966667Y-140615285D02*
X159942857Y-140591476D01*
X159942857Y-140591476D02*
X159919048Y-140543857D01*
X159919048Y-140543857D02*
X159919048Y-140520047D01*
X159919048Y-140520047D02*
X159942857Y-140472428D01*
X159942857Y-140472428D02*
X159966667Y-140448619D01*
X159966667Y-140448619D02*
X160014286Y-140424809D01*
X160014286Y-140424809D02*
X160109524Y-140424809D01*
X160109524Y-140424809D02*
X160157143Y-140448619D01*
X160157143Y-140448619D02*
X160180952Y-140472428D01*
X160180952Y-140472428D02*
X160204762Y-140520047D01*
X160204762Y-140520047D02*
X160204762Y-140543857D01*
X160204762Y-140543857D02*
X160180952Y-140591476D01*
X160180952Y-140591476D02*
X160157143Y-140615285D01*
X160157143Y-140615285D02*
X160109524Y-140639095D01*
X160109524Y-140639095D02*
X160014286Y-140639095D01*
X160014286Y-140639095D02*
X159966667Y-140662904D01*
X159966667Y-140662904D02*
X159942857Y-140686714D01*
X159942857Y-140686714D02*
X159919048Y-140734333D01*
X159919048Y-140734333D02*
X159919048Y-140829571D01*
X159919048Y-140829571D02*
X159942857Y-140877190D01*
X159942857Y-140877190D02*
X159966667Y-140901000D01*
X159966667Y-140901000D02*
X160014286Y-140924809D01*
X160014286Y-140924809D02*
X160109524Y-140924809D01*
X160109524Y-140924809D02*
X160157143Y-140901000D01*
X160157143Y-140901000D02*
X160180952Y-140877190D01*
X160180952Y-140877190D02*
X160204762Y-140829571D01*
X160204762Y-140829571D02*
X160204762Y-140734333D01*
X160204762Y-140734333D02*
X160180952Y-140686714D01*
X160180952Y-140686714D02*
X160157143Y-140662904D01*
X160157143Y-140662904D02*
X160109524Y-140639095D01*
X163778571Y-152277190D02*
X163754762Y-152301000D01*
X163754762Y-152301000D02*
X163683333Y-152324809D01*
X163683333Y-152324809D02*
X163635714Y-152324809D01*
X163635714Y-152324809D02*
X163564286Y-152301000D01*
X163564286Y-152301000D02*
X163516667Y-152253380D01*
X163516667Y-152253380D02*
X163492857Y-152205761D01*
X163492857Y-152205761D02*
X163469048Y-152110523D01*
X163469048Y-152110523D02*
X163469048Y-152039095D01*
X163469048Y-152039095D02*
X163492857Y-151943857D01*
X163492857Y-151943857D02*
X163516667Y-151896238D01*
X163516667Y-151896238D02*
X163564286Y-151848619D01*
X163564286Y-151848619D02*
X163635714Y-151824809D01*
X163635714Y-151824809D02*
X163683333Y-151824809D01*
X163683333Y-151824809D02*
X163754762Y-151848619D01*
X163754762Y-151848619D02*
X163778571Y-151872428D01*
X163969048Y-151872428D02*
X163992857Y-151848619D01*
X163992857Y-151848619D02*
X164040476Y-151824809D01*
X164040476Y-151824809D02*
X164159524Y-151824809D01*
X164159524Y-151824809D02*
X164207143Y-151848619D01*
X164207143Y-151848619D02*
X164230952Y-151872428D01*
X164230952Y-151872428D02*
X164254762Y-151920047D01*
X164254762Y-151920047D02*
X164254762Y-151967666D01*
X164254762Y-151967666D02*
X164230952Y-152039095D01*
X164230952Y-152039095D02*
X163945238Y-152324809D01*
X163945238Y-152324809D02*
X164254762Y-152324809D01*
X164421428Y-151824809D02*
X164730952Y-151824809D01*
X164730952Y-151824809D02*
X164564285Y-152015285D01*
X164564285Y-152015285D02*
X164635714Y-152015285D01*
X164635714Y-152015285D02*
X164683333Y-152039095D01*
X164683333Y-152039095D02*
X164707142Y-152062904D01*
X164707142Y-152062904D02*
X164730952Y-152110523D01*
X164730952Y-152110523D02*
X164730952Y-152229571D01*
X164730952Y-152229571D02*
X164707142Y-152277190D01*
X164707142Y-152277190D02*
X164683333Y-152301000D01*
X164683333Y-152301000D02*
X164635714Y-152324809D01*
X164635714Y-152324809D02*
X164492857Y-152324809D01*
X164492857Y-152324809D02*
X164445238Y-152301000D01*
X164445238Y-152301000D02*
X164421428Y-152277190D01*
X154078571Y-145277190D02*
X154054762Y-145301000D01*
X154054762Y-145301000D02*
X153983333Y-145324809D01*
X153983333Y-145324809D02*
X153935714Y-145324809D01*
X153935714Y-145324809D02*
X153864286Y-145301000D01*
X153864286Y-145301000D02*
X153816667Y-145253380D01*
X153816667Y-145253380D02*
X153792857Y-145205761D01*
X153792857Y-145205761D02*
X153769048Y-145110523D01*
X153769048Y-145110523D02*
X153769048Y-145039095D01*
X153769048Y-145039095D02*
X153792857Y-144943857D01*
X153792857Y-144943857D02*
X153816667Y-144896238D01*
X153816667Y-144896238D02*
X153864286Y-144848619D01*
X153864286Y-144848619D02*
X153935714Y-144824809D01*
X153935714Y-144824809D02*
X153983333Y-144824809D01*
X153983333Y-144824809D02*
X154054762Y-144848619D01*
X154054762Y-144848619D02*
X154078571Y-144872428D01*
X154269048Y-144872428D02*
X154292857Y-144848619D01*
X154292857Y-144848619D02*
X154340476Y-144824809D01*
X154340476Y-144824809D02*
X154459524Y-144824809D01*
X154459524Y-144824809D02*
X154507143Y-144848619D01*
X154507143Y-144848619D02*
X154530952Y-144872428D01*
X154530952Y-144872428D02*
X154554762Y-144920047D01*
X154554762Y-144920047D02*
X154554762Y-144967666D01*
X154554762Y-144967666D02*
X154530952Y-145039095D01*
X154530952Y-145039095D02*
X154245238Y-145324809D01*
X154245238Y-145324809D02*
X154554762Y-145324809D01*
X154864285Y-144824809D02*
X154911904Y-144824809D01*
X154911904Y-144824809D02*
X154959523Y-144848619D01*
X154959523Y-144848619D02*
X154983333Y-144872428D01*
X154983333Y-144872428D02*
X155007142Y-144920047D01*
X155007142Y-144920047D02*
X155030952Y-145015285D01*
X155030952Y-145015285D02*
X155030952Y-145134333D01*
X155030952Y-145134333D02*
X155007142Y-145229571D01*
X155007142Y-145229571D02*
X154983333Y-145277190D01*
X154983333Y-145277190D02*
X154959523Y-145301000D01*
X154959523Y-145301000D02*
X154911904Y-145324809D01*
X154911904Y-145324809D02*
X154864285Y-145324809D01*
X154864285Y-145324809D02*
X154816666Y-145301000D01*
X154816666Y-145301000D02*
X154792857Y-145277190D01*
X154792857Y-145277190D02*
X154769047Y-145229571D01*
X154769047Y-145229571D02*
X154745238Y-145134333D01*
X154745238Y-145134333D02*
X154745238Y-145015285D01*
X154745238Y-145015285D02*
X154769047Y-144920047D01*
X154769047Y-144920047D02*
X154792857Y-144872428D01*
X154792857Y-144872428D02*
X154816666Y-144848619D01*
X154816666Y-144848619D02*
X154864285Y-144824809D01*
X173578571Y-120824809D02*
X173411905Y-120586714D01*
X173292857Y-120824809D02*
X173292857Y-120324809D01*
X173292857Y-120324809D02*
X173483333Y-120324809D01*
X173483333Y-120324809D02*
X173530952Y-120348619D01*
X173530952Y-120348619D02*
X173554762Y-120372428D01*
X173554762Y-120372428D02*
X173578571Y-120420047D01*
X173578571Y-120420047D02*
X173578571Y-120491476D01*
X173578571Y-120491476D02*
X173554762Y-120539095D01*
X173554762Y-120539095D02*
X173530952Y-120562904D01*
X173530952Y-120562904D02*
X173483333Y-120586714D01*
X173483333Y-120586714D02*
X173292857Y-120586714D01*
X173769048Y-120372428D02*
X173792857Y-120348619D01*
X173792857Y-120348619D02*
X173840476Y-120324809D01*
X173840476Y-120324809D02*
X173959524Y-120324809D01*
X173959524Y-120324809D02*
X174007143Y-120348619D01*
X174007143Y-120348619D02*
X174030952Y-120372428D01*
X174030952Y-120372428D02*
X174054762Y-120420047D01*
X174054762Y-120420047D02*
X174054762Y-120467666D01*
X174054762Y-120467666D02*
X174030952Y-120539095D01*
X174030952Y-120539095D02*
X173745238Y-120824809D01*
X173745238Y-120824809D02*
X174054762Y-120824809D01*
X174483333Y-120324809D02*
X174388095Y-120324809D01*
X174388095Y-120324809D02*
X174340476Y-120348619D01*
X174340476Y-120348619D02*
X174316666Y-120372428D01*
X174316666Y-120372428D02*
X174269047Y-120443857D01*
X174269047Y-120443857D02*
X174245238Y-120539095D01*
X174245238Y-120539095D02*
X174245238Y-120729571D01*
X174245238Y-120729571D02*
X174269047Y-120777190D01*
X174269047Y-120777190D02*
X174292857Y-120801000D01*
X174292857Y-120801000D02*
X174340476Y-120824809D01*
X174340476Y-120824809D02*
X174435714Y-120824809D01*
X174435714Y-120824809D02*
X174483333Y-120801000D01*
X174483333Y-120801000D02*
X174507142Y-120777190D01*
X174507142Y-120777190D02*
X174530952Y-120729571D01*
X174530952Y-120729571D02*
X174530952Y-120610523D01*
X174530952Y-120610523D02*
X174507142Y-120562904D01*
X174507142Y-120562904D02*
X174483333Y-120539095D01*
X174483333Y-120539095D02*
X174435714Y-120515285D01*
X174435714Y-120515285D02*
X174340476Y-120515285D01*
X174340476Y-120515285D02*
X174292857Y-120539095D01*
X174292857Y-120539095D02*
X174269047Y-120562904D01*
X174269047Y-120562904D02*
X174245238Y-120610523D01*
X173016666Y-135077190D02*
X172992857Y-135101000D01*
X172992857Y-135101000D02*
X172921428Y-135124809D01*
X172921428Y-135124809D02*
X172873809Y-135124809D01*
X172873809Y-135124809D02*
X172802381Y-135101000D01*
X172802381Y-135101000D02*
X172754762Y-135053380D01*
X172754762Y-135053380D02*
X172730952Y-135005761D01*
X172730952Y-135005761D02*
X172707143Y-134910523D01*
X172707143Y-134910523D02*
X172707143Y-134839095D01*
X172707143Y-134839095D02*
X172730952Y-134743857D01*
X172730952Y-134743857D02*
X172754762Y-134696238D01*
X172754762Y-134696238D02*
X172802381Y-134648619D01*
X172802381Y-134648619D02*
X172873809Y-134624809D01*
X172873809Y-134624809D02*
X172921428Y-134624809D01*
X172921428Y-134624809D02*
X172992857Y-134648619D01*
X172992857Y-134648619D02*
X173016666Y-134672428D01*
X173445238Y-134624809D02*
X173350000Y-134624809D01*
X173350000Y-134624809D02*
X173302381Y-134648619D01*
X173302381Y-134648619D02*
X173278571Y-134672428D01*
X173278571Y-134672428D02*
X173230952Y-134743857D01*
X173230952Y-134743857D02*
X173207143Y-134839095D01*
X173207143Y-134839095D02*
X173207143Y-135029571D01*
X173207143Y-135029571D02*
X173230952Y-135077190D01*
X173230952Y-135077190D02*
X173254762Y-135101000D01*
X173254762Y-135101000D02*
X173302381Y-135124809D01*
X173302381Y-135124809D02*
X173397619Y-135124809D01*
X173397619Y-135124809D02*
X173445238Y-135101000D01*
X173445238Y-135101000D02*
X173469047Y-135077190D01*
X173469047Y-135077190D02*
X173492857Y-135029571D01*
X173492857Y-135029571D02*
X173492857Y-134910523D01*
X173492857Y-134910523D02*
X173469047Y-134862904D01*
X173469047Y-134862904D02*
X173445238Y-134839095D01*
X173445238Y-134839095D02*
X173397619Y-134815285D01*
X173397619Y-134815285D02*
X173302381Y-134815285D01*
X173302381Y-134815285D02*
X173254762Y-134839095D01*
X173254762Y-134839095D02*
X173230952Y-134862904D01*
X173230952Y-134862904D02*
X173207143Y-134910523D01*
X154078571Y-144224809D02*
X153911905Y-143986714D01*
X153792857Y-144224809D02*
X153792857Y-143724809D01*
X153792857Y-143724809D02*
X153983333Y-143724809D01*
X153983333Y-143724809D02*
X154030952Y-143748619D01*
X154030952Y-143748619D02*
X154054762Y-143772428D01*
X154054762Y-143772428D02*
X154078571Y-143820047D01*
X154078571Y-143820047D02*
X154078571Y-143891476D01*
X154078571Y-143891476D02*
X154054762Y-143939095D01*
X154054762Y-143939095D02*
X154030952Y-143962904D01*
X154030952Y-143962904D02*
X153983333Y-143986714D01*
X153983333Y-143986714D02*
X153792857Y-143986714D01*
X154554762Y-144224809D02*
X154269048Y-144224809D01*
X154411905Y-144224809D02*
X154411905Y-143724809D01*
X154411905Y-143724809D02*
X154364286Y-143796238D01*
X154364286Y-143796238D02*
X154316667Y-143843857D01*
X154316667Y-143843857D02*
X154269048Y-143867666D01*
X155007142Y-143724809D02*
X154769047Y-143724809D01*
X154769047Y-143724809D02*
X154745238Y-143962904D01*
X154745238Y-143962904D02*
X154769047Y-143939095D01*
X154769047Y-143939095D02*
X154816666Y-143915285D01*
X154816666Y-143915285D02*
X154935714Y-143915285D01*
X154935714Y-143915285D02*
X154983333Y-143939095D01*
X154983333Y-143939095D02*
X155007142Y-143962904D01*
X155007142Y-143962904D02*
X155030952Y-144010523D01*
X155030952Y-144010523D02*
X155030952Y-144129571D01*
X155030952Y-144129571D02*
X155007142Y-144177190D01*
X155007142Y-144177190D02*
X154983333Y-144201000D01*
X154983333Y-144201000D02*
X154935714Y-144224809D01*
X154935714Y-144224809D02*
X154816666Y-144224809D01*
X154816666Y-144224809D02*
X154769047Y-144201000D01*
X154769047Y-144201000D02*
X154745238Y-144177190D01*
X168154761Y-128724809D02*
X167988095Y-128486714D01*
X167869047Y-128724809D02*
X167869047Y-128224809D01*
X167869047Y-128224809D02*
X168059523Y-128224809D01*
X168059523Y-128224809D02*
X168107142Y-128248619D01*
X168107142Y-128248619D02*
X168130952Y-128272428D01*
X168130952Y-128272428D02*
X168154761Y-128320047D01*
X168154761Y-128320047D02*
X168154761Y-128391476D01*
X168154761Y-128391476D02*
X168130952Y-128439095D01*
X168130952Y-128439095D02*
X168107142Y-128462904D01*
X168107142Y-128462904D02*
X168059523Y-128486714D01*
X168059523Y-128486714D02*
X167869047Y-128486714D01*
X168369047Y-128724809D02*
X168369047Y-128224809D01*
X168369047Y-128224809D02*
X168654761Y-128724809D01*
X168654761Y-128724809D02*
X168654761Y-128224809D01*
X168869048Y-128272428D02*
X168892857Y-128248619D01*
X168892857Y-128248619D02*
X168940476Y-128224809D01*
X168940476Y-128224809D02*
X169059524Y-128224809D01*
X169059524Y-128224809D02*
X169107143Y-128248619D01*
X169107143Y-128248619D02*
X169130952Y-128272428D01*
X169130952Y-128272428D02*
X169154762Y-128320047D01*
X169154762Y-128320047D02*
X169154762Y-128367666D01*
X169154762Y-128367666D02*
X169130952Y-128439095D01*
X169130952Y-128439095D02*
X168845238Y-128724809D01*
X168845238Y-128724809D02*
X169154762Y-128724809D01*
X169319047Y-141324809D02*
X169319047Y-141729571D01*
X169319047Y-141729571D02*
X169342857Y-141777190D01*
X169342857Y-141777190D02*
X169366666Y-141801000D01*
X169366666Y-141801000D02*
X169414285Y-141824809D01*
X169414285Y-141824809D02*
X169509523Y-141824809D01*
X169509523Y-141824809D02*
X169557142Y-141801000D01*
X169557142Y-141801000D02*
X169580952Y-141777190D01*
X169580952Y-141777190D02*
X169604761Y-141729571D01*
X169604761Y-141729571D02*
X169604761Y-141324809D01*
X170057143Y-141324809D02*
X169961905Y-141324809D01*
X169961905Y-141324809D02*
X169914286Y-141348619D01*
X169914286Y-141348619D02*
X169890476Y-141372428D01*
X169890476Y-141372428D02*
X169842857Y-141443857D01*
X169842857Y-141443857D02*
X169819048Y-141539095D01*
X169819048Y-141539095D02*
X169819048Y-141729571D01*
X169819048Y-141729571D02*
X169842857Y-141777190D01*
X169842857Y-141777190D02*
X169866667Y-141801000D01*
X169866667Y-141801000D02*
X169914286Y-141824809D01*
X169914286Y-141824809D02*
X170009524Y-141824809D01*
X170009524Y-141824809D02*
X170057143Y-141801000D01*
X170057143Y-141801000D02*
X170080952Y-141777190D01*
X170080952Y-141777190D02*
X170104762Y-141729571D01*
X170104762Y-141729571D02*
X170104762Y-141610523D01*
X170104762Y-141610523D02*
X170080952Y-141562904D01*
X170080952Y-141562904D02*
X170057143Y-141539095D01*
X170057143Y-141539095D02*
X170009524Y-141515285D01*
X170009524Y-141515285D02*
X169914286Y-141515285D01*
X169914286Y-141515285D02*
X169866667Y-141539095D01*
X169866667Y-141539095D02*
X169842857Y-141562904D01*
X169842857Y-141562904D02*
X169819048Y-141610523D01*
X155619047Y-153224809D02*
X155619047Y-152724809D01*
X155619047Y-152962904D02*
X155904761Y-152962904D01*
X155904761Y-153224809D02*
X155904761Y-152724809D01*
X156404762Y-153224809D02*
X156119048Y-153224809D01*
X156261905Y-153224809D02*
X156261905Y-152724809D01*
X156261905Y-152724809D02*
X156214286Y-152796238D01*
X156214286Y-152796238D02*
X156166667Y-152843857D01*
X156166667Y-152843857D02*
X156119048Y-152867666D01*
X160016666Y-131024809D02*
X159850000Y-130786714D01*
X159730952Y-131024809D02*
X159730952Y-130524809D01*
X159730952Y-130524809D02*
X159921428Y-130524809D01*
X159921428Y-130524809D02*
X159969047Y-130548619D01*
X159969047Y-130548619D02*
X159992857Y-130572428D01*
X159992857Y-130572428D02*
X160016666Y-130620047D01*
X160016666Y-130620047D02*
X160016666Y-130691476D01*
X160016666Y-130691476D02*
X159992857Y-130739095D01*
X159992857Y-130739095D02*
X159969047Y-130762904D01*
X159969047Y-130762904D02*
X159921428Y-130786714D01*
X159921428Y-130786714D02*
X159730952Y-130786714D01*
X160254762Y-131024809D02*
X160350000Y-131024809D01*
X160350000Y-131024809D02*
X160397619Y-131001000D01*
X160397619Y-131001000D02*
X160421428Y-130977190D01*
X160421428Y-130977190D02*
X160469047Y-130905761D01*
X160469047Y-130905761D02*
X160492857Y-130810523D01*
X160492857Y-130810523D02*
X160492857Y-130620047D01*
X160492857Y-130620047D02*
X160469047Y-130572428D01*
X160469047Y-130572428D02*
X160445238Y-130548619D01*
X160445238Y-130548619D02*
X160397619Y-130524809D01*
X160397619Y-130524809D02*
X160302381Y-130524809D01*
X160302381Y-130524809D02*
X160254762Y-130548619D01*
X160254762Y-130548619D02*
X160230952Y-130572428D01*
X160230952Y-130572428D02*
X160207143Y-130620047D01*
X160207143Y-130620047D02*
X160207143Y-130739095D01*
X160207143Y-130739095D02*
X160230952Y-130786714D01*
X160230952Y-130786714D02*
X160254762Y-130810523D01*
X160254762Y-130810523D02*
X160302381Y-130834333D01*
X160302381Y-130834333D02*
X160397619Y-130834333D01*
X160397619Y-130834333D02*
X160445238Y-130810523D01*
X160445238Y-130810523D02*
X160469047Y-130786714D01*
X160469047Y-130786714D02*
X160492857Y-130739095D01*
X189733333Y-145324809D02*
X189733333Y-145681952D01*
X189733333Y-145681952D02*
X189709524Y-145753380D01*
X189709524Y-145753380D02*
X189661905Y-145801000D01*
X189661905Y-145801000D02*
X189590476Y-145824809D01*
X189590476Y-145824809D02*
X189542857Y-145824809D01*
X190233333Y-145824809D02*
X189947619Y-145824809D01*
X190090476Y-145824809D02*
X190090476Y-145324809D01*
X190090476Y-145324809D02*
X190042857Y-145396238D01*
X190042857Y-145396238D02*
X189995238Y-145443857D01*
X189995238Y-145443857D02*
X189947619Y-145467666D01*
X186133333Y-151924809D02*
X186133333Y-152281952D01*
X186133333Y-152281952D02*
X186109524Y-152353380D01*
X186109524Y-152353380D02*
X186061905Y-152401000D01*
X186061905Y-152401000D02*
X185990476Y-152424809D01*
X185990476Y-152424809D02*
X185942857Y-152424809D01*
X186323809Y-151924809D02*
X186633333Y-151924809D01*
X186633333Y-151924809D02*
X186466666Y-152115285D01*
X186466666Y-152115285D02*
X186538095Y-152115285D01*
X186538095Y-152115285D02*
X186585714Y-152139095D01*
X186585714Y-152139095D02*
X186609523Y-152162904D01*
X186609523Y-152162904D02*
X186633333Y-152210523D01*
X186633333Y-152210523D02*
X186633333Y-152329571D01*
X186633333Y-152329571D02*
X186609523Y-152377190D01*
X186609523Y-152377190D02*
X186585714Y-152401000D01*
X186585714Y-152401000D02*
X186538095Y-152424809D01*
X186538095Y-152424809D02*
X186395238Y-152424809D01*
X186395238Y-152424809D02*
X186347619Y-152401000D01*
X186347619Y-152401000D02*
X186323809Y-152377190D01*
X161024809Y-144021428D02*
X160786714Y-144188094D01*
X161024809Y-144307142D02*
X160524809Y-144307142D01*
X160524809Y-144307142D02*
X160524809Y-144116666D01*
X160524809Y-144116666D02*
X160548619Y-144069047D01*
X160548619Y-144069047D02*
X160572428Y-144045237D01*
X160572428Y-144045237D02*
X160620047Y-144021428D01*
X160620047Y-144021428D02*
X160691476Y-144021428D01*
X160691476Y-144021428D02*
X160739095Y-144045237D01*
X160739095Y-144045237D02*
X160762904Y-144069047D01*
X160762904Y-144069047D02*
X160786714Y-144116666D01*
X160786714Y-144116666D02*
X160786714Y-144307142D01*
X161024809Y-143545237D02*
X161024809Y-143830951D01*
X161024809Y-143688094D02*
X160524809Y-143688094D01*
X160524809Y-143688094D02*
X160596238Y-143735713D01*
X160596238Y-143735713D02*
X160643857Y-143783332D01*
X160643857Y-143783332D02*
X160667666Y-143830951D01*
X161024809Y-143069047D02*
X161024809Y-143354761D01*
X161024809Y-143211904D02*
X160524809Y-143211904D01*
X160524809Y-143211904D02*
X160596238Y-143259523D01*
X160596238Y-143259523D02*
X160643857Y-143307142D01*
X160643857Y-143307142D02*
X160667666Y-143354761D01*
X160175190Y-145980952D02*
X159770428Y-145980952D01*
X159770428Y-145980952D02*
X159722809Y-146004762D01*
X159722809Y-146004762D02*
X159699000Y-146028571D01*
X159699000Y-146028571D02*
X159675190Y-146076190D01*
X159675190Y-146076190D02*
X159675190Y-146171428D01*
X159675190Y-146171428D02*
X159699000Y-146219047D01*
X159699000Y-146219047D02*
X159722809Y-146242857D01*
X159722809Y-146242857D02*
X159770428Y-146266666D01*
X159770428Y-146266666D02*
X160175190Y-146266666D01*
X159675190Y-146766667D02*
X159675190Y-146480953D01*
X159675190Y-146623810D02*
X160175190Y-146623810D01*
X160175190Y-146623810D02*
X160103761Y-146576191D01*
X160103761Y-146576191D02*
X160056142Y-146528572D01*
X160056142Y-146528572D02*
X160032333Y-146480953D01*
X159675190Y-147242857D02*
X159675190Y-146957143D01*
X159675190Y-147100000D02*
X160175190Y-147100000D01*
X160175190Y-147100000D02*
X160103761Y-147052381D01*
X160103761Y-147052381D02*
X160056142Y-147004762D01*
X160056142Y-147004762D02*
X160032333Y-146957143D01*
X161578571Y-152277190D02*
X161554762Y-152301000D01*
X161554762Y-152301000D02*
X161483333Y-152324809D01*
X161483333Y-152324809D02*
X161435714Y-152324809D01*
X161435714Y-152324809D02*
X161364286Y-152301000D01*
X161364286Y-152301000D02*
X161316667Y-152253380D01*
X161316667Y-152253380D02*
X161292857Y-152205761D01*
X161292857Y-152205761D02*
X161269048Y-152110523D01*
X161269048Y-152110523D02*
X161269048Y-152039095D01*
X161269048Y-152039095D02*
X161292857Y-151943857D01*
X161292857Y-151943857D02*
X161316667Y-151896238D01*
X161316667Y-151896238D02*
X161364286Y-151848619D01*
X161364286Y-151848619D02*
X161435714Y-151824809D01*
X161435714Y-151824809D02*
X161483333Y-151824809D01*
X161483333Y-151824809D02*
X161554762Y-151848619D01*
X161554762Y-151848619D02*
X161578571Y-151872428D01*
X161745238Y-151824809D02*
X162054762Y-151824809D01*
X162054762Y-151824809D02*
X161888095Y-152015285D01*
X161888095Y-152015285D02*
X161959524Y-152015285D01*
X161959524Y-152015285D02*
X162007143Y-152039095D01*
X162007143Y-152039095D02*
X162030952Y-152062904D01*
X162030952Y-152062904D02*
X162054762Y-152110523D01*
X162054762Y-152110523D02*
X162054762Y-152229571D01*
X162054762Y-152229571D02*
X162030952Y-152277190D01*
X162030952Y-152277190D02*
X162007143Y-152301000D01*
X162007143Y-152301000D02*
X161959524Y-152324809D01*
X161959524Y-152324809D02*
X161816667Y-152324809D01*
X161816667Y-152324809D02*
X161769048Y-152301000D01*
X161769048Y-152301000D02*
X161745238Y-152277190D01*
X162507142Y-151824809D02*
X162269047Y-151824809D01*
X162269047Y-151824809D02*
X162245238Y-152062904D01*
X162245238Y-152062904D02*
X162269047Y-152039095D01*
X162269047Y-152039095D02*
X162316666Y-152015285D01*
X162316666Y-152015285D02*
X162435714Y-152015285D01*
X162435714Y-152015285D02*
X162483333Y-152039095D01*
X162483333Y-152039095D02*
X162507142Y-152062904D01*
X162507142Y-152062904D02*
X162530952Y-152110523D01*
X162530952Y-152110523D02*
X162530952Y-152229571D01*
X162530952Y-152229571D02*
X162507142Y-152277190D01*
X162507142Y-152277190D02*
X162483333Y-152301000D01*
X162483333Y-152301000D02*
X162435714Y-152324809D01*
X162435714Y-152324809D02*
X162316666Y-152324809D01*
X162316666Y-152324809D02*
X162269047Y-152301000D01*
X162269047Y-152301000D02*
X162245238Y-152277190D01*
X164924809Y-143730951D02*
X164924809Y-143445237D01*
X165424809Y-143588094D02*
X164924809Y-143588094D01*
X165424809Y-143278571D02*
X164924809Y-143278571D01*
X164924809Y-143278571D02*
X164924809Y-143088095D01*
X164924809Y-143088095D02*
X164948619Y-143040476D01*
X164948619Y-143040476D02*
X164972428Y-143016666D01*
X164972428Y-143016666D02*
X165020047Y-142992857D01*
X165020047Y-142992857D02*
X165091476Y-142992857D01*
X165091476Y-142992857D02*
X165139095Y-143016666D01*
X165139095Y-143016666D02*
X165162904Y-143040476D01*
X165162904Y-143040476D02*
X165186714Y-143088095D01*
X165186714Y-143088095D02*
X165186714Y-143278571D01*
X164924809Y-142826190D02*
X164924809Y-142516666D01*
X164924809Y-142516666D02*
X165115285Y-142683333D01*
X165115285Y-142683333D02*
X165115285Y-142611904D01*
X165115285Y-142611904D02*
X165139095Y-142564285D01*
X165139095Y-142564285D02*
X165162904Y-142540476D01*
X165162904Y-142540476D02*
X165210523Y-142516666D01*
X165210523Y-142516666D02*
X165329571Y-142516666D01*
X165329571Y-142516666D02*
X165377190Y-142540476D01*
X165377190Y-142540476D02*
X165401000Y-142564285D01*
X165401000Y-142564285D02*
X165424809Y-142611904D01*
X165424809Y-142611904D02*
X165424809Y-142754761D01*
X165424809Y-142754761D02*
X165401000Y-142802380D01*
X165401000Y-142802380D02*
X165377190Y-142826190D01*
X194119047Y-124224809D02*
X194119047Y-123724809D01*
X194119047Y-123962904D02*
X194404761Y-123962904D01*
X194404761Y-124224809D02*
X194404761Y-123724809D01*
X194857143Y-123891476D02*
X194857143Y-124224809D01*
X194738095Y-123701000D02*
X194619048Y-124058142D01*
X194619048Y-124058142D02*
X194928571Y-124058142D01*
X150719047Y-115224809D02*
X150719047Y-114724809D01*
X150719047Y-114962904D02*
X151004761Y-114962904D01*
X151004761Y-115224809D02*
X151004761Y-114724809D01*
X151195238Y-114724809D02*
X151504762Y-114724809D01*
X151504762Y-114724809D02*
X151338095Y-114915285D01*
X151338095Y-114915285D02*
X151409524Y-114915285D01*
X151409524Y-114915285D02*
X151457143Y-114939095D01*
X151457143Y-114939095D02*
X151480952Y-114962904D01*
X151480952Y-114962904D02*
X151504762Y-115010523D01*
X151504762Y-115010523D02*
X151504762Y-115129571D01*
X151504762Y-115129571D02*
X151480952Y-115177190D01*
X151480952Y-115177190D02*
X151457143Y-115201000D01*
X151457143Y-115201000D02*
X151409524Y-115224809D01*
X151409524Y-115224809D02*
X151266667Y-115224809D01*
X151266667Y-115224809D02*
X151219048Y-115201000D01*
X151219048Y-115201000D02*
X151195238Y-115177190D01*
X170933333Y-115224809D02*
X170933333Y-115581952D01*
X170933333Y-115581952D02*
X170909524Y-115653380D01*
X170909524Y-115653380D02*
X170861905Y-115701000D01*
X170861905Y-115701000D02*
X170790476Y-115724809D01*
X170790476Y-115724809D02*
X170742857Y-115724809D01*
X171147619Y-115272428D02*
X171171428Y-115248619D01*
X171171428Y-115248619D02*
X171219047Y-115224809D01*
X171219047Y-115224809D02*
X171338095Y-115224809D01*
X171338095Y-115224809D02*
X171385714Y-115248619D01*
X171385714Y-115248619D02*
X171409523Y-115272428D01*
X171409523Y-115272428D02*
X171433333Y-115320047D01*
X171433333Y-115320047D02*
X171433333Y-115367666D01*
X171433333Y-115367666D02*
X171409523Y-115439095D01*
X171409523Y-115439095D02*
X171123809Y-115724809D01*
X171123809Y-115724809D02*
X171433333Y-115724809D01*
X157924809Y-137780952D02*
X158329571Y-137780952D01*
X158329571Y-137780952D02*
X158377190Y-137757142D01*
X158377190Y-137757142D02*
X158401000Y-137733333D01*
X158401000Y-137733333D02*
X158424809Y-137685714D01*
X158424809Y-137685714D02*
X158424809Y-137590476D01*
X158424809Y-137590476D02*
X158401000Y-137542857D01*
X158401000Y-137542857D02*
X158377190Y-137519047D01*
X158377190Y-137519047D02*
X158329571Y-137495238D01*
X158329571Y-137495238D02*
X157924809Y-137495238D01*
X157924809Y-137304761D02*
X157924809Y-136971428D01*
X157924809Y-136971428D02*
X158424809Y-137185713D01*
X190262430Y-137620578D02*
X190238621Y-137644388D01*
X190238621Y-137644388D02*
X190167192Y-137668197D01*
X190167192Y-137668197D02*
X190119573Y-137668197D01*
X190119573Y-137668197D02*
X190048145Y-137644388D01*
X190048145Y-137644388D02*
X190000526Y-137596768D01*
X190000526Y-137596768D02*
X189976716Y-137549149D01*
X189976716Y-137549149D02*
X189952907Y-137453911D01*
X189952907Y-137453911D02*
X189952907Y-137382483D01*
X189952907Y-137382483D02*
X189976716Y-137287245D01*
X189976716Y-137287245D02*
X190000526Y-137239626D01*
X190000526Y-137239626D02*
X190048145Y-137192007D01*
X190048145Y-137192007D02*
X190119573Y-137168197D01*
X190119573Y-137168197D02*
X190167192Y-137168197D01*
X190167192Y-137168197D02*
X190238621Y-137192007D01*
X190238621Y-137192007D02*
X190262430Y-137215816D01*
X190691002Y-137334864D02*
X190691002Y-137668197D01*
X190571954Y-137144388D02*
X190452907Y-137501530D01*
X190452907Y-137501530D02*
X190762430Y-137501530D01*
X164278571Y-136177190D02*
X164254762Y-136201000D01*
X164254762Y-136201000D02*
X164183333Y-136224809D01*
X164183333Y-136224809D02*
X164135714Y-136224809D01*
X164135714Y-136224809D02*
X164064286Y-136201000D01*
X164064286Y-136201000D02*
X164016667Y-136153380D01*
X164016667Y-136153380D02*
X163992857Y-136105761D01*
X163992857Y-136105761D02*
X163969048Y-136010523D01*
X163969048Y-136010523D02*
X163969048Y-135939095D01*
X163969048Y-135939095D02*
X163992857Y-135843857D01*
X163992857Y-135843857D02*
X164016667Y-135796238D01*
X164016667Y-135796238D02*
X164064286Y-135748619D01*
X164064286Y-135748619D02*
X164135714Y-135724809D01*
X164135714Y-135724809D02*
X164183333Y-135724809D01*
X164183333Y-135724809D02*
X164254762Y-135748619D01*
X164254762Y-135748619D02*
X164278571Y-135772428D01*
X164754762Y-136224809D02*
X164469048Y-136224809D01*
X164611905Y-136224809D02*
X164611905Y-135724809D01*
X164611905Y-135724809D02*
X164564286Y-135796238D01*
X164564286Y-135796238D02*
X164516667Y-135843857D01*
X164516667Y-135843857D02*
X164469048Y-135867666D01*
X165183333Y-135724809D02*
X165088095Y-135724809D01*
X165088095Y-135724809D02*
X165040476Y-135748619D01*
X165040476Y-135748619D02*
X165016666Y-135772428D01*
X165016666Y-135772428D02*
X164969047Y-135843857D01*
X164969047Y-135843857D02*
X164945238Y-135939095D01*
X164945238Y-135939095D02*
X164945238Y-136129571D01*
X164945238Y-136129571D02*
X164969047Y-136177190D01*
X164969047Y-136177190D02*
X164992857Y-136201000D01*
X164992857Y-136201000D02*
X165040476Y-136224809D01*
X165040476Y-136224809D02*
X165135714Y-136224809D01*
X165135714Y-136224809D02*
X165183333Y-136201000D01*
X165183333Y-136201000D02*
X165207142Y-136177190D01*
X165207142Y-136177190D02*
X165230952Y-136129571D01*
X165230952Y-136129571D02*
X165230952Y-136010523D01*
X165230952Y-136010523D02*
X165207142Y-135962904D01*
X165207142Y-135962904D02*
X165183333Y-135939095D01*
X165183333Y-135939095D02*
X165135714Y-135915285D01*
X165135714Y-135915285D02*
X165040476Y-135915285D01*
X165040476Y-135915285D02*
X164992857Y-135939095D01*
X164992857Y-135939095D02*
X164969047Y-135962904D01*
X164969047Y-135962904D02*
X164945238Y-136010523D01*
X159278571Y-152177190D02*
X159254762Y-152201000D01*
X159254762Y-152201000D02*
X159183333Y-152224809D01*
X159183333Y-152224809D02*
X159135714Y-152224809D01*
X159135714Y-152224809D02*
X159064286Y-152201000D01*
X159064286Y-152201000D02*
X159016667Y-152153380D01*
X159016667Y-152153380D02*
X158992857Y-152105761D01*
X158992857Y-152105761D02*
X158969048Y-152010523D01*
X158969048Y-152010523D02*
X158969048Y-151939095D01*
X158969048Y-151939095D02*
X158992857Y-151843857D01*
X158992857Y-151843857D02*
X159016667Y-151796238D01*
X159016667Y-151796238D02*
X159064286Y-151748619D01*
X159064286Y-151748619D02*
X159135714Y-151724809D01*
X159135714Y-151724809D02*
X159183333Y-151724809D01*
X159183333Y-151724809D02*
X159254762Y-151748619D01*
X159254762Y-151748619D02*
X159278571Y-151772428D01*
X159754762Y-152224809D02*
X159469048Y-152224809D01*
X159611905Y-152224809D02*
X159611905Y-151724809D01*
X159611905Y-151724809D02*
X159564286Y-151796238D01*
X159564286Y-151796238D02*
X159516667Y-151843857D01*
X159516667Y-151843857D02*
X159469048Y-151867666D01*
X159992857Y-152224809D02*
X160088095Y-152224809D01*
X160088095Y-152224809D02*
X160135714Y-152201000D01*
X160135714Y-152201000D02*
X160159523Y-152177190D01*
X160159523Y-152177190D02*
X160207142Y-152105761D01*
X160207142Y-152105761D02*
X160230952Y-152010523D01*
X160230952Y-152010523D02*
X160230952Y-151820047D01*
X160230952Y-151820047D02*
X160207142Y-151772428D01*
X160207142Y-151772428D02*
X160183333Y-151748619D01*
X160183333Y-151748619D02*
X160135714Y-151724809D01*
X160135714Y-151724809D02*
X160040476Y-151724809D01*
X160040476Y-151724809D02*
X159992857Y-151748619D01*
X159992857Y-151748619D02*
X159969047Y-151772428D01*
X159969047Y-151772428D02*
X159945238Y-151820047D01*
X159945238Y-151820047D02*
X159945238Y-151939095D01*
X159945238Y-151939095D02*
X159969047Y-151986714D01*
X159969047Y-151986714D02*
X159992857Y-152010523D01*
X159992857Y-152010523D02*
X160040476Y-152034333D01*
X160040476Y-152034333D02*
X160135714Y-152034333D01*
X160135714Y-152034333D02*
X160183333Y-152010523D01*
X160183333Y-152010523D02*
X160207142Y-151986714D01*
X160207142Y-151986714D02*
X160230952Y-151939095D01*
X152678571Y-141724809D02*
X152511905Y-141486714D01*
X152392857Y-141724809D02*
X152392857Y-141224809D01*
X152392857Y-141224809D02*
X152583333Y-141224809D01*
X152583333Y-141224809D02*
X152630952Y-141248619D01*
X152630952Y-141248619D02*
X152654762Y-141272428D01*
X152654762Y-141272428D02*
X152678571Y-141320047D01*
X152678571Y-141320047D02*
X152678571Y-141391476D01*
X152678571Y-141391476D02*
X152654762Y-141439095D01*
X152654762Y-141439095D02*
X152630952Y-141462904D01*
X152630952Y-141462904D02*
X152583333Y-141486714D01*
X152583333Y-141486714D02*
X152392857Y-141486714D01*
X153154762Y-141724809D02*
X152869048Y-141724809D01*
X153011905Y-141724809D02*
X153011905Y-141224809D01*
X153011905Y-141224809D02*
X152964286Y-141296238D01*
X152964286Y-141296238D02*
X152916667Y-141343857D01*
X152916667Y-141343857D02*
X152869048Y-141367666D01*
X153583333Y-141224809D02*
X153488095Y-141224809D01*
X153488095Y-141224809D02*
X153440476Y-141248619D01*
X153440476Y-141248619D02*
X153416666Y-141272428D01*
X153416666Y-141272428D02*
X153369047Y-141343857D01*
X153369047Y-141343857D02*
X153345238Y-141439095D01*
X153345238Y-141439095D02*
X153345238Y-141629571D01*
X153345238Y-141629571D02*
X153369047Y-141677190D01*
X153369047Y-141677190D02*
X153392857Y-141701000D01*
X153392857Y-141701000D02*
X153440476Y-141724809D01*
X153440476Y-141724809D02*
X153535714Y-141724809D01*
X153535714Y-141724809D02*
X153583333Y-141701000D01*
X153583333Y-141701000D02*
X153607142Y-141677190D01*
X153607142Y-141677190D02*
X153630952Y-141629571D01*
X153630952Y-141629571D02*
X153630952Y-141510523D01*
X153630952Y-141510523D02*
X153607142Y-141462904D01*
X153607142Y-141462904D02*
X153583333Y-141439095D01*
X153583333Y-141439095D02*
X153535714Y-141415285D01*
X153535714Y-141415285D02*
X153440476Y-141415285D01*
X153440476Y-141415285D02*
X153392857Y-141439095D01*
X153392857Y-141439095D02*
X153369047Y-141462904D01*
X153369047Y-141462904D02*
X153345238Y-141510523D01*
X168778571Y-139277190D02*
X168754762Y-139301000D01*
X168754762Y-139301000D02*
X168683333Y-139324809D01*
X168683333Y-139324809D02*
X168635714Y-139324809D01*
X168635714Y-139324809D02*
X168564286Y-139301000D01*
X168564286Y-139301000D02*
X168516667Y-139253380D01*
X168516667Y-139253380D02*
X168492857Y-139205761D01*
X168492857Y-139205761D02*
X168469048Y-139110523D01*
X168469048Y-139110523D02*
X168469048Y-139039095D01*
X168469048Y-139039095D02*
X168492857Y-138943857D01*
X168492857Y-138943857D02*
X168516667Y-138896238D01*
X168516667Y-138896238D02*
X168564286Y-138848619D01*
X168564286Y-138848619D02*
X168635714Y-138824809D01*
X168635714Y-138824809D02*
X168683333Y-138824809D01*
X168683333Y-138824809D02*
X168754762Y-138848619D01*
X168754762Y-138848619D02*
X168778571Y-138872428D01*
X169254762Y-139324809D02*
X168969048Y-139324809D01*
X169111905Y-139324809D02*
X169111905Y-138824809D01*
X169111905Y-138824809D02*
X169064286Y-138896238D01*
X169064286Y-138896238D02*
X169016667Y-138943857D01*
X169016667Y-138943857D02*
X168969048Y-138967666D01*
X169421428Y-138824809D02*
X169754761Y-138824809D01*
X169754761Y-138824809D02*
X169540476Y-139324809D01*
X171616666Y-142224809D02*
X171450000Y-141986714D01*
X171330952Y-142224809D02*
X171330952Y-141724809D01*
X171330952Y-141724809D02*
X171521428Y-141724809D01*
X171521428Y-141724809D02*
X171569047Y-141748619D01*
X171569047Y-141748619D02*
X171592857Y-141772428D01*
X171592857Y-141772428D02*
X171616666Y-141820047D01*
X171616666Y-141820047D02*
X171616666Y-141891476D01*
X171616666Y-141891476D02*
X171592857Y-141939095D01*
X171592857Y-141939095D02*
X171569047Y-141962904D01*
X171569047Y-141962904D02*
X171521428Y-141986714D01*
X171521428Y-141986714D02*
X171330952Y-141986714D01*
X172045238Y-141891476D02*
X172045238Y-142224809D01*
X171926190Y-141701000D02*
X171807143Y-142058142D01*
X171807143Y-142058142D02*
X172116666Y-142058142D01*
X193619047Y-147224809D02*
X193619047Y-146724809D01*
X193619047Y-146962904D02*
X193904761Y-146962904D01*
X193904761Y-147224809D02*
X193904761Y-146724809D01*
X194119048Y-146772428D02*
X194142857Y-146748619D01*
X194142857Y-146748619D02*
X194190476Y-146724809D01*
X194190476Y-146724809D02*
X194309524Y-146724809D01*
X194309524Y-146724809D02*
X194357143Y-146748619D01*
X194357143Y-146748619D02*
X194380952Y-146772428D01*
X194380952Y-146772428D02*
X194404762Y-146820047D01*
X194404762Y-146820047D02*
X194404762Y-146867666D01*
X194404762Y-146867666D02*
X194380952Y-146939095D01*
X194380952Y-146939095D02*
X194095238Y-147224809D01*
X194095238Y-147224809D02*
X194404762Y-147224809D01*
X151533333Y-139424809D02*
X151533333Y-139781952D01*
X151533333Y-139781952D02*
X151509524Y-139853380D01*
X151509524Y-139853380D02*
X151461905Y-139901000D01*
X151461905Y-139901000D02*
X151390476Y-139924809D01*
X151390476Y-139924809D02*
X151342857Y-139924809D01*
X152009523Y-139424809D02*
X151771428Y-139424809D01*
X151771428Y-139424809D02*
X151747619Y-139662904D01*
X151747619Y-139662904D02*
X151771428Y-139639095D01*
X151771428Y-139639095D02*
X151819047Y-139615285D01*
X151819047Y-139615285D02*
X151938095Y-139615285D01*
X151938095Y-139615285D02*
X151985714Y-139639095D01*
X151985714Y-139639095D02*
X152009523Y-139662904D01*
X152009523Y-139662904D02*
X152033333Y-139710523D01*
X152033333Y-139710523D02*
X152033333Y-139829571D01*
X152033333Y-139829571D02*
X152009523Y-139877190D01*
X152009523Y-139877190D02*
X151985714Y-139901000D01*
X151985714Y-139901000D02*
X151938095Y-139924809D01*
X151938095Y-139924809D02*
X151819047Y-139924809D01*
X151819047Y-139924809D02*
X151771428Y-139901000D01*
X151771428Y-139901000D02*
X151747619Y-139877190D01*
X163554761Y-128724809D02*
X163388095Y-128486714D01*
X163269047Y-128724809D02*
X163269047Y-128224809D01*
X163269047Y-128224809D02*
X163459523Y-128224809D01*
X163459523Y-128224809D02*
X163507142Y-128248619D01*
X163507142Y-128248619D02*
X163530952Y-128272428D01*
X163530952Y-128272428D02*
X163554761Y-128320047D01*
X163554761Y-128320047D02*
X163554761Y-128391476D01*
X163554761Y-128391476D02*
X163530952Y-128439095D01*
X163530952Y-128439095D02*
X163507142Y-128462904D01*
X163507142Y-128462904D02*
X163459523Y-128486714D01*
X163459523Y-128486714D02*
X163269047Y-128486714D01*
X163769047Y-128724809D02*
X163769047Y-128224809D01*
X163769047Y-128224809D02*
X164054761Y-128724809D01*
X164054761Y-128724809D02*
X164054761Y-128224809D01*
X164554762Y-128724809D02*
X164269048Y-128724809D01*
X164411905Y-128724809D02*
X164411905Y-128224809D01*
X164411905Y-128224809D02*
X164364286Y-128296238D01*
X164364286Y-128296238D02*
X164316667Y-128343857D01*
X164316667Y-128343857D02*
X164269048Y-128367666D01*
X165578571Y-151377190D02*
X165554762Y-151401000D01*
X165554762Y-151401000D02*
X165483333Y-151424809D01*
X165483333Y-151424809D02*
X165435714Y-151424809D01*
X165435714Y-151424809D02*
X165364286Y-151401000D01*
X165364286Y-151401000D02*
X165316667Y-151353380D01*
X165316667Y-151353380D02*
X165292857Y-151305761D01*
X165292857Y-151305761D02*
X165269048Y-151210523D01*
X165269048Y-151210523D02*
X165269048Y-151139095D01*
X165269048Y-151139095D02*
X165292857Y-151043857D01*
X165292857Y-151043857D02*
X165316667Y-150996238D01*
X165316667Y-150996238D02*
X165364286Y-150948619D01*
X165364286Y-150948619D02*
X165435714Y-150924809D01*
X165435714Y-150924809D02*
X165483333Y-150924809D01*
X165483333Y-150924809D02*
X165554762Y-150948619D01*
X165554762Y-150948619D02*
X165578571Y-150972428D01*
X165769048Y-150972428D02*
X165792857Y-150948619D01*
X165792857Y-150948619D02*
X165840476Y-150924809D01*
X165840476Y-150924809D02*
X165959524Y-150924809D01*
X165959524Y-150924809D02*
X166007143Y-150948619D01*
X166007143Y-150948619D02*
X166030952Y-150972428D01*
X166030952Y-150972428D02*
X166054762Y-151020047D01*
X166054762Y-151020047D02*
X166054762Y-151067666D01*
X166054762Y-151067666D02*
X166030952Y-151139095D01*
X166030952Y-151139095D02*
X165745238Y-151424809D01*
X165745238Y-151424809D02*
X166054762Y-151424809D01*
X166530952Y-151424809D02*
X166245238Y-151424809D01*
X166388095Y-151424809D02*
X166388095Y-150924809D01*
X166388095Y-150924809D02*
X166340476Y-150996238D01*
X166340476Y-150996238D02*
X166292857Y-151043857D01*
X166292857Y-151043857D02*
X166245238Y-151067666D01*
X165816666Y-145424809D02*
X165578571Y-145424809D01*
X165578571Y-145424809D02*
X165578571Y-144924809D01*
X165959524Y-144972428D02*
X165983333Y-144948619D01*
X165983333Y-144948619D02*
X166030952Y-144924809D01*
X166030952Y-144924809D02*
X166150000Y-144924809D01*
X166150000Y-144924809D02*
X166197619Y-144948619D01*
X166197619Y-144948619D02*
X166221428Y-144972428D01*
X166221428Y-144972428D02*
X166245238Y-145020047D01*
X166245238Y-145020047D02*
X166245238Y-145067666D01*
X166245238Y-145067666D02*
X166221428Y-145139095D01*
X166221428Y-145139095D02*
X165935714Y-145424809D01*
X165935714Y-145424809D02*
X166245238Y-145424809D01*
D12*
X174840000Y-116140000D02*
X174990000Y-116140000D01*
X174840000Y-126060000D02*
X174840000Y-116140000D01*
X174840000Y-126060000D02*
X174990000Y-126060000D01*
X185010000Y-116140000D02*
X185160000Y-116140000D01*
X185010000Y-126060000D02*
X185160000Y-126060000D01*
X185160000Y-126060000D02*
X185160000Y-116140000D01*
X174990000Y-126530000D02*
X174660000Y-126770000D01*
X174660000Y-126290000D01*
X174990000Y-126530000D01*
G36*
X174990000Y-126530000D02*
G01*
X174660000Y-126770000D01*
X174660000Y-126290000D01*
X174990000Y-126530000D01*
G37*
X158600378Y-147840000D02*
X159399622Y-147840000D01*
X158600378Y-148960000D02*
X159399622Y-148960000D01*
X173490000Y-131940580D02*
X173490000Y-131659420D01*
X174510000Y-131940580D02*
X174510000Y-131659420D01*
X158746359Y-135920000D02*
X159053641Y-135920000D01*
X158746359Y-136680000D02*
X159053641Y-136680000D01*
X168650000Y-135800000D02*
X169150000Y-135800000D01*
X168650000Y-136300000D02*
X168650000Y-135800000D01*
X168650000Y-141000000D02*
X168650000Y-140500000D01*
X169150000Y-141000000D02*
X168650000Y-141000000D01*
X171450000Y-135800000D02*
X171950000Y-135800000D01*
X171650000Y-141000000D02*
X170900000Y-141000000D01*
X171950000Y-135800000D02*
X171950000Y-136300000D01*
X171850000Y-141360000D02*
X171850000Y-141000000D01*
X172210000Y-141000000D01*
X171850000Y-141360000D01*
G36*
X171850000Y-141360000D02*
G01*
X171850000Y-141000000D01*
X172210000Y-141000000D01*
X171850000Y-141360000D01*
G37*
X159620000Y-144053641D02*
X159620000Y-143746359D01*
X160380000Y-144053641D02*
X160380000Y-143746359D01*
X158046359Y-144620000D02*
X158353641Y-144620000D01*
X158046359Y-145380000D02*
X158353641Y-145380000D01*
X191370000Y-141570000D02*
X191370000Y-126270000D01*
X194030000Y-126270000D02*
X191370000Y-126270000D01*
X194030000Y-141570000D02*
X191370000Y-141570000D01*
X194030000Y-141570000D02*
X194030000Y-126270000D01*
X194030000Y-142840000D02*
X194030000Y-144170000D01*
X194030000Y-144170000D02*
X192700000Y-144170000D01*
X162253641Y-142220000D02*
X161946359Y-142220000D01*
X162253641Y-142980000D02*
X161946359Y-142980000D01*
X159800000Y-129800000D02*
G75*
G02*
X158400000Y-129800000I-700000J0D01*
G01*
X158400000Y-129800000D02*
G75*
G02*
X159800000Y-129800000I700000J0D01*
G01*
D13*
X176300000Y-130700000D02*
X176300000Y-132200000D01*
X176300000Y-130700000D02*
X177800000Y-130700000D01*
X176300000Y-141200000D02*
X176300000Y-142700000D01*
X176300000Y-142700000D02*
X177800000Y-142700000D01*
X186800000Y-142700000D02*
X188300000Y-142700000D01*
X188300000Y-130700000D02*
X186800000Y-130700000D01*
X188300000Y-130700000D02*
X188300000Y-132200000D01*
X188300000Y-142700000D02*
X188300000Y-141200000D01*
X175200000Y-131700000D02*
G75*
G02*
X174800000Y-131700000I-200000J0D01*
G01*
X174800000Y-131700000D02*
G75*
G02*
X175200000Y-131700000I200000J0D01*
G01*
D12*
X170000000Y-149240000D02*
X169350000Y-149240000D01*
X170000000Y-149240000D02*
X170650000Y-149240000D01*
X170000000Y-152360000D02*
X169350000Y-152360000D01*
X170000000Y-152360000D02*
X170650000Y-152360000D01*
X168837500Y-149290000D02*
X168597500Y-148960000D01*
X169077500Y-148960000D01*
X168837500Y-149290000D01*
G36*
X168837500Y-149290000D02*
G01*
X168597500Y-148960000D01*
X169077500Y-148960000D01*
X168837500Y-149290000D01*
G37*
X172570000Y-148430000D02*
X172570000Y-147100000D01*
X173900000Y-148430000D02*
X172570000Y-148430000D01*
X175170000Y-145770000D02*
X185390000Y-145770000D01*
X175170000Y-148430000D02*
X175170000Y-145770000D01*
X175170000Y-148430000D02*
X185390000Y-148430000D01*
X185390000Y-148430000D02*
X185390000Y-145770000D01*
X162353641Y-139620000D02*
X162046359Y-139620000D01*
X162353641Y-140380000D02*
X162046359Y-140380000D01*
X163440000Y-140000000D02*
X163440000Y-139200000D01*
X163440000Y-140000000D02*
X163440000Y-140800000D01*
X166560000Y-140000000D02*
X166560000Y-139200000D01*
X166560000Y-140000000D02*
X166560000Y-140800000D01*
X166840000Y-138940000D02*
X166510000Y-138700000D01*
X166840000Y-138460000D01*
X166840000Y-138940000D01*
G36*
X166840000Y-138940000D02*
G01*
X166510000Y-138700000D01*
X166840000Y-138460000D01*
X166840000Y-138940000D01*
G37*
D14*
X152063300Y-121267900D02*
X152063300Y-123361660D01*
X152063300Y-124838340D02*
X152063300Y-126932100D01*
X152063300Y-126932100D02*
X154806500Y-126932100D01*
X154806500Y-121267900D02*
X152063300Y-121267900D01*
X154806500Y-121611659D02*
X154806500Y-121267900D01*
X154806500Y-125111662D02*
X154806500Y-123088338D01*
X154806500Y-126932100D02*
X154806500Y-126588341D01*
X156918599Y-125850000D02*
G75*
G02*
X156766199Y-125850000I-76200J0D01*
G01*
X156766199Y-125850000D02*
G75*
G02*
X156918599Y-125850000I76200J0D01*
G01*
D13*
X188535420Y-117231900D02*
X193464580Y-117231900D01*
X193464580Y-114768100D02*
X188535420Y-114768100D01*
X186093901Y-116000000D02*
G75*
G02*
X185941501Y-116000000I-76200J0D01*
G01*
X185941501Y-116000000D02*
G75*
G02*
X186093901Y-116000000I76200J0D01*
G01*
D12*
X170320000Y-144553641D02*
X170320000Y-144246359D01*
X171080000Y-144553641D02*
X171080000Y-144246359D01*
X160000000Y-132440000D02*
X159200000Y-132440000D01*
X160000000Y-132440000D02*
X160800000Y-132440000D01*
X160000000Y-135560000D02*
X159200000Y-135560000D01*
X160000000Y-135560000D02*
X160800000Y-135560000D01*
X161540000Y-135840000D02*
X161060000Y-135840000D01*
X161300000Y-135510000D01*
X161540000Y-135840000D01*
G36*
X161540000Y-135840000D02*
G01*
X161060000Y-135840000D01*
X161300000Y-135510000D01*
X161540000Y-135840000D01*
G37*
X165620000Y-142946359D02*
X165620000Y-143253641D01*
X166380000Y-142946359D02*
X166380000Y-143253641D01*
X153000000Y-141035000D02*
X155285000Y-141035000D01*
X155285000Y-139565000D02*
X153000000Y-139565000D01*
X155285000Y-141035000D02*
X155285000Y-139565000D01*
X171460000Y-125810000D02*
X171460000Y-123810000D01*
X173740000Y-125800000D02*
X173740000Y-123800000D01*
X171530000Y-126450000D02*
X171250000Y-126170000D01*
X171530000Y-126170000D01*
X171530000Y-126450000D01*
G36*
X171530000Y-126450000D02*
G01*
X171250000Y-126170000D01*
X171530000Y-126170000D01*
X171530000Y-126450000D01*
G37*
X155853641Y-127720000D02*
X155546359Y-127720000D01*
X155853641Y-128480000D02*
X155546359Y-128480000D01*
X161490000Y-137759420D02*
X161490000Y-138040580D01*
X162510000Y-137759420D02*
X162510000Y-138040580D01*
X155865070Y-120289285D02*
X155865070Y-120504957D01*
X156585070Y-120289285D02*
X156585070Y-120504957D01*
X172240000Y-141992164D02*
X172240000Y-142207836D01*
X172960000Y-141992164D02*
X172960000Y-142207836D01*
X169462742Y-147077500D02*
X169937258Y-147077500D01*
X169462742Y-148122500D02*
X169937258Y-148122500D01*
X172192164Y-122240000D02*
X172407836Y-122240000D01*
X172192164Y-122960000D02*
X172407836Y-122960000D01*
D14*
X156870599Y-140723001D02*
X156870599Y-140942662D01*
X156870599Y-142857340D02*
X156870599Y-143077001D01*
X156870599Y-143077001D02*
X159224599Y-143077001D01*
X159224599Y-140723001D02*
X156870599Y-140723001D01*
X159224599Y-140942662D02*
X159224599Y-140723001D01*
X159224599Y-143077001D02*
X159224599Y-142857340D01*
X156360058Y-141473829D02*
G75*
G02*
X156360058Y-141326173I-18859J73828D01*
G01*
D12*
X163265000Y-149038748D02*
X163265000Y-149561252D01*
X164735000Y-149038748D02*
X164735000Y-149561252D01*
X156092164Y-144740000D02*
X156307836Y-144740000D01*
X156092164Y-145460000D02*
X156307836Y-145460000D01*
X173520000Y-121946359D02*
X173520000Y-122253641D01*
X174280000Y-121946359D02*
X174280000Y-122253641D01*
X173740000Y-134192164D02*
X173740000Y-134407836D01*
X174460000Y-134192164D02*
X174460000Y-134407836D01*
X156046359Y-143620000D02*
X156353641Y-143620000D01*
X156046359Y-144380000D02*
X156353641Y-144380000D01*
X168350000Y-129130000D02*
X170450000Y-129130000D01*
X168350000Y-134470000D02*
X170450000Y-134470000D01*
D14*
X166817911Y-142425400D02*
X166817911Y-143974800D01*
X169281711Y-143974800D02*
X169281711Y-142425400D01*
X168901600Y-141493474D02*
G75*
G02*
X168698400Y-141493474I-101600J0D01*
G01*
X168698400Y-141493474D02*
G75*
G02*
X168901600Y-141493474I101600J0D01*
G01*
D12*
X160346359Y-131320000D02*
X160653641Y-131320000D01*
X160346359Y-132080000D02*
X160653641Y-132080000D01*
X187500000Y-147000000D02*
X188300000Y-147000000D01*
X187500000Y-147200000D02*
X187500000Y-147000000D01*
X187500000Y-150000000D02*
X187500000Y-149800000D01*
X188300000Y-147000000D02*
X188300000Y-146500000D01*
X188300000Y-150000000D02*
X187500000Y-150000000D01*
X189700000Y-147000000D02*
X189700000Y-146500000D01*
X189700000Y-147000000D02*
X190300000Y-147000000D01*
X190300000Y-147000000D02*
X190500000Y-147200000D01*
X190500000Y-149800000D02*
X190500000Y-150000000D01*
X190500000Y-150000000D02*
X189700000Y-150000000D01*
X172570000Y-152430000D02*
X172570000Y-151100000D01*
X173900000Y-152430000D02*
X172570000Y-152430000D01*
X175170000Y-149770000D02*
X185390000Y-149770000D01*
X175170000Y-152430000D02*
X175170000Y-149770000D01*
X175170000Y-152430000D02*
X185390000Y-152430000D01*
X185390000Y-152430000D02*
X185390000Y-149770000D01*
X161946359Y-143220000D02*
X162253641Y-143220000D01*
X161946359Y-143980000D02*
X162253641Y-143980000D01*
D14*
X157334800Y-145839600D02*
X157334800Y-147160400D01*
X159265200Y-147160400D02*
X159265200Y-145839600D01*
D12*
X161165000Y-149038748D02*
X161165000Y-149561252D01*
X162635000Y-149038748D02*
X162635000Y-149561252D01*
X158046359Y-143520000D02*
X158353641Y-143520000D01*
X158046359Y-144280000D02*
X158353641Y-144280000D01*
X164800000Y-143100000D02*
G75*
G02*
X163400000Y-143100000I-700000J0D01*
G01*
X163400000Y-143100000D02*
G75*
G02*
X164800000Y-143100000I700000J0D01*
G01*
X157570000Y-116750000D02*
X157570000Y-121200000D01*
X157570000Y-122600000D02*
X157570000Y-124900000D01*
X157570000Y-126300000D02*
X157570000Y-127020000D01*
X157570000Y-127020000D02*
X160250000Y-127020000D01*
X159050000Y-115380000D02*
X159910000Y-115380000D01*
X162550000Y-127020000D02*
X166220000Y-127020000D01*
X168520000Y-127020000D02*
X169750000Y-127020000D01*
X169750000Y-127020000D02*
X169750000Y-117200000D01*
X158540000Y-137900000D02*
X158540000Y-139300000D01*
X160860000Y-137890000D02*
X160860000Y-139300000D01*
X161140000Y-137760000D02*
X160810000Y-137520000D01*
X161140000Y-137280000D01*
X161140000Y-137760000D01*
G36*
X161140000Y-137760000D02*
G01*
X160810000Y-137520000D01*
X161140000Y-137280000D01*
X161140000Y-137760000D01*
G37*
X189985764Y-138835552D02*
X189985764Y-139051224D01*
X190705764Y-138835552D02*
X190705764Y-139051224D01*
X164359420Y-136590000D02*
X164640580Y-136590000D01*
X164359420Y-137610000D02*
X164640580Y-137610000D01*
X157053641Y-139520000D02*
X156746359Y-139520000D01*
X157053641Y-140280000D02*
X156746359Y-140280000D01*
X156965000Y-151038748D02*
X156965000Y-151561252D01*
X158435000Y-151038748D02*
X158435000Y-151561252D01*
X151320000Y-141253641D02*
X151320000Y-140946359D01*
X152080000Y-141253641D02*
X152080000Y-140946359D01*
X161559420Y-140790000D02*
X161840580Y-140790000D01*
X161559420Y-141810000D02*
X161840580Y-141810000D01*
X167090000Y-140240580D02*
X167090000Y-139959420D01*
X168110000Y-140240580D02*
X168110000Y-139959420D01*
X170420000Y-142553641D02*
X170420000Y-142246359D01*
X171180000Y-142553641D02*
X171180000Y-142246359D01*
X153100000Y-129330000D02*
X154800000Y-129330000D01*
X153100000Y-138670000D02*
X154800000Y-138670000D01*
X163750000Y-129130000D02*
X165850000Y-129130000D01*
X163750000Y-134470000D02*
X165850000Y-134470000D01*
X165890000Y-147488748D02*
X165890000Y-148911252D01*
X167710000Y-147488748D02*
X167710000Y-148911252D01*
X162497936Y-144440000D02*
X163702064Y-144440000D01*
X162497936Y-147160000D02*
X163702064Y-147160000D01*
%LPC*%
D15*
X171636956Y-119075593D02*
X171569585Y-119126903D01*
X171707407Y-119018148D02*
X171636956Y-119075593D01*
X171747810Y-118983430D02*
X171707407Y-119018148D01*
X171790135Y-118945459D02*
X171747810Y-118983430D01*
X171833236Y-118904792D02*
X171790135Y-118945459D01*
X171875965Y-118861987D02*
X171833236Y-118904792D01*
X171917176Y-118817601D02*
X171875965Y-118861987D01*
X171955722Y-118772194D02*
X171917176Y-118817601D01*
X171990456Y-118726321D02*
X171955722Y-118772194D01*
X172006035Y-118703385D02*
X171990456Y-118726321D01*
X172020230Y-118680542D02*
X172006035Y-118703385D01*
X172032900Y-118657861D02*
X172020230Y-118680542D01*
X172043899Y-118635413D02*
X172032900Y-118657861D01*
X172053086Y-118613267D02*
X172043899Y-118635413D01*
X172060315Y-118591492D02*
X172053086Y-118613267D01*
X172060315Y-118591492D02*
X172060315Y-118591492D01*
X172069889Y-118553233D02*
X172060315Y-118591492D01*
X172078070Y-118510685D02*
X172069889Y-118553233D01*
X172085018Y-118464555D02*
X172078070Y-118510685D01*
X172090887Y-118415554D02*
X172085018Y-118464555D01*
X172100017Y-118311777D02*
X172090887Y-118415554D01*
X172106715Y-118205029D02*
X172100017Y-118311777D01*
X172117827Y-118005318D02*
X172106715Y-118205029D01*
X172124747Y-117923706D02*
X172117827Y-118005318D01*
X172129096Y-117889945D02*
X172124747Y-117923706D01*
X172134248Y-117861824D02*
X172129096Y-117889945D01*
X172134248Y-117861824D02*
X172134248Y-117861824D01*
X172138942Y-117842098D02*
X172134248Y-117861824D01*
X172144093Y-117822761D02*
X172138942Y-117842098D01*
X172149661Y-117803829D02*
X172144093Y-117822761D01*
X172155605Y-117785316D02*
X172149661Y-117803829D01*
X172161887Y-117767240D02*
X172155605Y-117785316D01*
X172168467Y-117749615D02*
X172161887Y-117767240D01*
X172175304Y-117732457D02*
X172168467Y-117749615D01*
X172182359Y-117715781D02*
X172175304Y-117732457D01*
X172189593Y-117699604D02*
X172182359Y-117715781D01*
X172196965Y-117683940D02*
X172189593Y-117699604D01*
X172204437Y-117668805D02*
X172196965Y-117683940D01*
X172211968Y-117654214D02*
X172204437Y-117668805D01*
X172227049Y-117626730D02*
X172211968Y-117654214D01*
X172241891Y-117601610D02*
X172227049Y-117626730D01*
X172256176Y-117578980D02*
X172241891Y-117601610D01*
X172269587Y-117558964D02*
X172256176Y-117578980D01*
X172281806Y-117541686D02*
X172269587Y-117558964D01*
X172292516Y-117527270D02*
X172281806Y-117541686D01*
X172308136Y-117507524D02*
X172292516Y-117527270D01*
X172313908Y-117500721D02*
X172308136Y-117507524D01*
D16*
X172526125Y-117259209D02*
X172463874Y-117631478D01*
X172128141Y-117485296D01*
X172358257Y-117186105D01*
X172526125Y-117259209D01*
G36*
X172526125Y-117259209D02*
G01*
X172463874Y-117631478D01*
X172128141Y-117485296D01*
X172358257Y-117186105D01*
X172526125Y-117259209D01*
G37*
X173066044Y-114783588D02*
X173092913Y-114784655D01*
X173119800Y-114786395D01*
X173146690Y-114788812D01*
X173173574Y-114791912D01*
X173200439Y-114795700D01*
X173227274Y-114800180D01*
X173254067Y-114805358D01*
X173280806Y-114811238D01*
X173307480Y-114817826D01*
X173334077Y-114825126D01*
X173360585Y-114833144D01*
X173386993Y-114841883D01*
X173413289Y-114851350D01*
X173439462Y-114861549D01*
X173465499Y-114872486D01*
X173516543Y-114896307D01*
X173565782Y-114922482D01*
X173613183Y-114950917D01*
X173658708Y-114981517D01*
X173702322Y-115014189D01*
X173743990Y-115048837D01*
X173783674Y-115085369D01*
X173821341Y-115123689D01*
X173856953Y-115163704D01*
X173890476Y-115205319D01*
X173921872Y-115248440D01*
X173951108Y-115292973D01*
X173978146Y-115338823D01*
X174002951Y-115385897D01*
X174025488Y-115434101D01*
X174045720Y-115483339D01*
X174063612Y-115533518D01*
X174079128Y-115584544D01*
X174092232Y-115636322D01*
X174102889Y-115688759D01*
X174111062Y-115741760D01*
X174116716Y-115795230D01*
X174119815Y-115849076D01*
X174120324Y-115903204D01*
X174118206Y-115957518D01*
X174113426Y-116011926D01*
X174105949Y-116066333D01*
X174095737Y-116120644D01*
X174082756Y-116174766D01*
X174066970Y-116228604D01*
X174048343Y-116282064D01*
X174026839Y-116335052D01*
X173975155Y-116439981D01*
X173911341Y-116546035D01*
X173836576Y-116651709D01*
X173752043Y-116755499D01*
X173658922Y-116855901D01*
X173558395Y-116951411D01*
X173451643Y-117040525D01*
X173339848Y-117121739D01*
X173224191Y-117193550D01*
X173165283Y-117225458D01*
X173105853Y-117254452D01*
X173046048Y-117280342D01*
X172986016Y-117302942D01*
X172925904Y-117322062D01*
X172865860Y-117337516D01*
X172806033Y-117349114D01*
X172746568Y-117356669D01*
X172687615Y-117359994D01*
X172629320Y-117358899D01*
X172571832Y-117353197D01*
X172515299Y-117342701D01*
X172459866Y-117327221D01*
X172405684Y-117306570D01*
X172353656Y-117280974D01*
X172304562Y-117250940D01*
X172258364Y-117216705D01*
X172215027Y-117178505D01*
X172174513Y-117136576D01*
X172136785Y-117091155D01*
X172101805Y-117042477D01*
X172069538Y-116990779D01*
X172039945Y-116936297D01*
X172012990Y-116879267D01*
X171966846Y-116758507D01*
X171930809Y-116630389D01*
X171904584Y-116496803D01*
X171887873Y-116359637D01*
X171880382Y-116220782D01*
X171881813Y-116082125D01*
X171891871Y-115945557D01*
X171910259Y-115812967D01*
X171936682Y-115686245D01*
X171970843Y-115567278D01*
X172012447Y-115457958D01*
X172049526Y-115380864D01*
X172091688Y-115307828D01*
X172138617Y-115238979D01*
X172189997Y-115174444D01*
X172245516Y-115114351D01*
X172304856Y-115058830D01*
X172367704Y-115008008D01*
X172433745Y-114962012D01*
X172502662Y-114920971D01*
X172574143Y-114885014D01*
X172647871Y-114854268D01*
X172723532Y-114828861D01*
X172800810Y-114808922D01*
X172879391Y-114794578D01*
X172958960Y-114785957D01*
X173039202Y-114783189D01*
X173066044Y-114783588D01*
G36*
X173066044Y-114783588D02*
G01*
X173092913Y-114784655D01*
X173119800Y-114786395D01*
X173146690Y-114788812D01*
X173173574Y-114791912D01*
X173200439Y-114795700D01*
X173227274Y-114800180D01*
X173254067Y-114805358D01*
X173280806Y-114811238D01*
X173307480Y-114817826D01*
X173334077Y-114825126D01*
X173360585Y-114833144D01*
X173386993Y-114841883D01*
X173413289Y-114851350D01*
X173439462Y-114861549D01*
X173465499Y-114872486D01*
X173516543Y-114896307D01*
X173565782Y-114922482D01*
X173613183Y-114950917D01*
X173658708Y-114981517D01*
X173702322Y-115014189D01*
X173743990Y-115048837D01*
X173783674Y-115085369D01*
X173821341Y-115123689D01*
X173856953Y-115163704D01*
X173890476Y-115205319D01*
X173921872Y-115248440D01*
X173951108Y-115292973D01*
X173978146Y-115338823D01*
X174002951Y-115385897D01*
X174025488Y-115434101D01*
X174045720Y-115483339D01*
X174063612Y-115533518D01*
X174079128Y-115584544D01*
X174092232Y-115636322D01*
X174102889Y-115688759D01*
X174111062Y-115741760D01*
X174116716Y-115795230D01*
X174119815Y-115849076D01*
X174120324Y-115903204D01*
X174118206Y-115957518D01*
X174113426Y-116011926D01*
X174105949Y-116066333D01*
X174095737Y-116120644D01*
X174082756Y-116174766D01*
X174066970Y-116228604D01*
X174048343Y-116282064D01*
X174026839Y-116335052D01*
X173975155Y-116439981D01*
X173911341Y-116546035D01*
X173836576Y-116651709D01*
X173752043Y-116755499D01*
X173658922Y-116855901D01*
X173558395Y-116951411D01*
X173451643Y-117040525D01*
X173339848Y-117121739D01*
X173224191Y-117193550D01*
X173165283Y-117225458D01*
X173105853Y-117254452D01*
X173046048Y-117280342D01*
X172986016Y-117302942D01*
X172925904Y-117322062D01*
X172865860Y-117337516D01*
X172806033Y-117349114D01*
X172746568Y-117356669D01*
X172687615Y-117359994D01*
X172629320Y-117358899D01*
X172571832Y-117353197D01*
X172515299Y-117342701D01*
X172459866Y-117327221D01*
X172405684Y-117306570D01*
X172353656Y-117280974D01*
X172304562Y-117250940D01*
X172258364Y-117216705D01*
X172215027Y-117178505D01*
X172174513Y-117136576D01*
X172136785Y-117091155D01*
X172101805Y-117042477D01*
X172069538Y-116990779D01*
X172039945Y-116936297D01*
X172012990Y-116879267D01*
X171966846Y-116758507D01*
X171930809Y-116630389D01*
X171904584Y-116496803D01*
X171887873Y-116359637D01*
X171880382Y-116220782D01*
X171881813Y-116082125D01*
X171891871Y-115945557D01*
X171910259Y-115812967D01*
X171936682Y-115686245D01*
X171970843Y-115567278D01*
X172012447Y-115457958D01*
X172049526Y-115380864D01*
X172091688Y-115307828D01*
X172138617Y-115238979D01*
X172189997Y-115174444D01*
X172245516Y-115114351D01*
X172304856Y-115058830D01*
X172367704Y-115008008D01*
X172433745Y-114962012D01*
X172502662Y-114920971D01*
X172574143Y-114885014D01*
X172647871Y-114854268D01*
X172723532Y-114828861D01*
X172800810Y-114808922D01*
X172879391Y-114794578D01*
X172958960Y-114785957D01*
X173039202Y-114783189D01*
X173066044Y-114783588D01*
G37*
D17*
X175600000Y-125850000D03*
D18*
X176700000Y-125850000D03*
X177800000Y-125850000D03*
X178900000Y-125850000D03*
X180000000Y-125850000D03*
X181100000Y-125850000D03*
X182200000Y-125850000D03*
X183300000Y-125850000D03*
D17*
X184400000Y-125850000D03*
X184400000Y-116350000D03*
D18*
X183300000Y-116350000D03*
X182200000Y-116350000D03*
X181100000Y-116350000D03*
X180000000Y-116350000D03*
X178900000Y-116350000D03*
X177800000Y-116350000D03*
X176700000Y-116350000D03*
D17*
X175600000Y-116350000D03*
D19*
X157937500Y-148400000D03*
X160062500Y-148400000D03*
D20*
X174000000Y-132575000D03*
X174000000Y-131025000D03*
D21*
X158390000Y-136300000D03*
X159410000Y-136300000D03*
D22*
X171375000Y-140275000D03*
X171375000Y-139025000D03*
X171375000Y-137775000D03*
X171375000Y-136525000D03*
X169225000Y-136525000D03*
X169225000Y-137775000D03*
X169225000Y-139025000D03*
X169225000Y-140275000D03*
D23*
X160000000Y-144410000D03*
X160000000Y-143390000D03*
D21*
X157690000Y-145000000D03*
X158710000Y-145000000D03*
D24*
X192700000Y-142840000D03*
D25*
X192700000Y-140300000D03*
X192700000Y-137760000D03*
X192700000Y-135220000D03*
X192700000Y-132680000D03*
X192700000Y-130140000D03*
X192700000Y-127600000D03*
D26*
X162610000Y-142600000D03*
X161590000Y-142600000D03*
D27*
X159100000Y-129800000D03*
D28*
X176300000Y-132950000D03*
X176300000Y-134200000D03*
X176300000Y-135450000D03*
X176300000Y-136700000D03*
X176300000Y-137950000D03*
X176300000Y-139200000D03*
X176300000Y-140450000D03*
D29*
X178550000Y-142700000D03*
X179800000Y-142700000D03*
X181050000Y-142700000D03*
X182300000Y-142700000D03*
X183550000Y-142700000D03*
X184800000Y-142700000D03*
X186050000Y-142700000D03*
D30*
X188300000Y-140450000D03*
X188300000Y-139200000D03*
X188300000Y-137950000D03*
X188300000Y-136700000D03*
X188300000Y-135450000D03*
X188300000Y-134200000D03*
X188300000Y-132950000D03*
D31*
X186050000Y-130700000D03*
X184800000Y-130700000D03*
X183550000Y-130700000D03*
X182300000Y-130700000D03*
X181050000Y-130700000D03*
X179800000Y-130700000D03*
X178550000Y-130700000D03*
D32*
X169062500Y-149850000D03*
X169062500Y-151750000D03*
X170937500Y-150800000D03*
D33*
X173900000Y-147100000D03*
D25*
X176440000Y-147100000D03*
X178980000Y-147100000D03*
X181520000Y-147100000D03*
X184060000Y-147100000D03*
D26*
X162710000Y-140000000D03*
X161690000Y-140000000D03*
D34*
X165950000Y-138862500D03*
X165000000Y-138862500D03*
X164050000Y-138862500D03*
X164050000Y-141137500D03*
X165950000Y-141137500D03*
D35*
X155377200Y-125850002D03*
X155377200Y-122349998D03*
X151492600Y-124100000D03*
D36*
X194462701Y-116000000D03*
X187537299Y-116000000D03*
D23*
X170700000Y-144910000D03*
X170700000Y-143890000D03*
D37*
X161137500Y-134950000D03*
X161137500Y-134000000D03*
X161137500Y-133050000D03*
X158862500Y-133050000D03*
X158862500Y-134000000D03*
X158862500Y-134950000D03*
D38*
X166000000Y-142590000D03*
X166000000Y-143610000D03*
D39*
X154587500Y-140300000D03*
X153012500Y-140300000D03*
D40*
X171850000Y-125750000D03*
X172350000Y-125750000D03*
X172850000Y-125750000D03*
X173350000Y-125750000D03*
X173350000Y-123850000D03*
X172850000Y-123850000D03*
X172350000Y-123850000D03*
X171850000Y-123850000D03*
D41*
X172600000Y-124800000D03*
D26*
X156210000Y-128100000D03*
X155190000Y-128100000D03*
D42*
X162000000Y-137125000D03*
X162000000Y-138675000D03*
D43*
X156225070Y-119917121D03*
X156225070Y-120877121D03*
X172600000Y-141620000D03*
X172600000Y-142580000D03*
D44*
X168875000Y-147600000D03*
X170525000Y-147600000D03*
D45*
X171820000Y-122600000D03*
X172780000Y-122600000D03*
D46*
X157095198Y-141400002D03*
X157095198Y-141900001D03*
X157095198Y-142400000D03*
X159000000Y-142400000D03*
X159000000Y-141900001D03*
X159000000Y-141400002D03*
D47*
X158047599Y-141900001D03*
D48*
X164000000Y-148350000D03*
X164000000Y-150250000D03*
D45*
X155720000Y-145100000D03*
X156680000Y-145100000D03*
D38*
X173900000Y-121590000D03*
X173900000Y-122610000D03*
D43*
X174100000Y-133820000D03*
X174100000Y-134780000D03*
D21*
X155690000Y-144000000D03*
X156710000Y-144000000D03*
D49*
X170900000Y-133800000D03*
X170900000Y-132460000D03*
X170900000Y-131140000D03*
X170900000Y-129800000D03*
X167900000Y-129800000D03*
X167900000Y-131140000D03*
X167900000Y-132460000D03*
X167900000Y-133800000D03*
D50*
X168800000Y-142400000D03*
X168299874Y-142400000D03*
X167799748Y-142400000D03*
X167299622Y-142400000D03*
X167299622Y-144000200D03*
X167799748Y-144000200D03*
X168299874Y-144000200D03*
X168800000Y-144000200D03*
D51*
X153500000Y-150500000D03*
D52*
X155575000Y-150500000D03*
D21*
X159990000Y-131700000D03*
X161010000Y-131700000D03*
D53*
X189000000Y-147000000D03*
D54*
X190475000Y-148500000D03*
D53*
X189000000Y-150000000D03*
D54*
X187525000Y-148500000D03*
D33*
X173900000Y-151100000D03*
D25*
X176440000Y-151100000D03*
X178980000Y-151100000D03*
X181520000Y-151100000D03*
X184060000Y-151100000D03*
D21*
X161590000Y-143600000D03*
X162610000Y-143600000D03*
D55*
X158800000Y-146250000D03*
X158800000Y-146750000D03*
X158300000Y-146250000D03*
X158300000Y-146750000D03*
X157800000Y-146250000D03*
X157800000Y-146750000D03*
D48*
X161900000Y-148350000D03*
X161900000Y-150250000D03*
D21*
X157690000Y-143900000D03*
X158710000Y-143900000D03*
D27*
X164100000Y-143100000D03*
D56*
X194500000Y-121000000D03*
D51*
X153500000Y-117500000D03*
D52*
X155575000Y-117500000D03*
D57*
X160535000Y-115750000D03*
X161635000Y-115750000D03*
X162735000Y-115750000D03*
X163835000Y-115750000D03*
X164935000Y-115750000D03*
X166035000Y-115750000D03*
X167135000Y-115750000D03*
D58*
X168185000Y-115750000D03*
D59*
X157900000Y-121900000D03*
X157900000Y-125600000D03*
D60*
X158075000Y-115875000D03*
D61*
X161400000Y-126575000D03*
X167370000Y-126575000D03*
D62*
X169395000Y-116100000D03*
D63*
X160350000Y-137650000D03*
X159700000Y-137650000D03*
X159050000Y-137650000D03*
X159050000Y-139550000D03*
X159700000Y-139550000D03*
X160350000Y-139550000D03*
D43*
X190345764Y-138463388D03*
X190345764Y-139423388D03*
D64*
X163725000Y-137100000D03*
X165275000Y-137100000D03*
D26*
X157410000Y-139900000D03*
X156390000Y-139900000D03*
D48*
X157700000Y-150350000D03*
X157700000Y-152250000D03*
D23*
X151700000Y-141610000D03*
X151700000Y-140590000D03*
D64*
X160925000Y-141300000D03*
X162475000Y-141300000D03*
D20*
X167600000Y-140875000D03*
X167600000Y-139325000D03*
D23*
X170800000Y-142910000D03*
X170800000Y-141890000D03*
D51*
X194500000Y-150500000D03*
D52*
X196575000Y-150500000D03*
D65*
X155605000Y-131110000D03*
X155605000Y-136890000D03*
D66*
X156680000Y-130800000D03*
X156680000Y-131600000D03*
D67*
X156680000Y-132750000D03*
X156680000Y-133750000D03*
X156680000Y-134250000D03*
X156680000Y-135250000D03*
D66*
X156680000Y-136400000D03*
X156680000Y-137200000D03*
X156680000Y-137200000D03*
X156680000Y-136400000D03*
D67*
X156680000Y-135750000D03*
X156680000Y-134750000D03*
X156680000Y-133250000D03*
X156680000Y-132250000D03*
D66*
X156680000Y-131600000D03*
X156680000Y-130800000D03*
D68*
X156105000Y-129680000D03*
D69*
X151925000Y-129680000D03*
D68*
X156105000Y-138320000D03*
D69*
X151925000Y-138320000D03*
D49*
X166300000Y-133800000D03*
X166300000Y-132460000D03*
X166300000Y-131140000D03*
X166300000Y-129800000D03*
X163300000Y-129800000D03*
X163300000Y-131140000D03*
X163300000Y-132460000D03*
X163300000Y-133800000D03*
D70*
X166800000Y-146725000D03*
X166800000Y-149675000D03*
D71*
X161700000Y-145800000D03*
X164500000Y-145800000D03*
D24*
X153000000Y-144000000D03*
D25*
X153000000Y-146540000D03*
%LPD*%
M02*
