%TF.GenerationSoftware,KiCad,Pcbnew,8.0.1*%
%TF.CreationDate,2024-09-12T17:08:28-04:00*%
%TF.ProjectId,cutdown,63757464-6f77-46e2-9e6b-696361645f70,rev?*%
%TF.SameCoordinates,Original*%
%TF.FileFunction,Drillmap*%
%TF.FilePolarity,Positive*%
%FSLAX45Y45*%
G04 Gerber Fmt 4.5, Leading zero omitted, Abs format (unit mm)*
G04 Created by KiCad (PCBNEW 8.0.1) date 2024-09-12 17:08:28*
%MOMM*%
%LPD*%
G01*
G04 APERTURE LIST*
%ADD10C,0.050000*%
%ADD11C,0.200000*%
G04 APERTURE END LIST*
D10*
X16100000Y-8800000D02*
G75*
G02*
X16300000Y-9000000I0J-200000D01*
G01*
X11700000Y-12000000D02*
G75*
G02*
X11500000Y-11800000I0J200000D01*
G01*
X11700000Y-8800000D02*
X16100000Y-8800000D01*
X11500000Y-11800000D02*
X11500000Y-9000000D01*
X16300000Y-9000000D02*
X16300000Y-11800000D01*
X16300000Y-11800000D02*
G75*
G02*
X16100000Y-12000000I-200000J0D01*
G01*
X16100000Y-12000000D02*
X11700000Y-12000000D01*
X11500000Y-9000000D02*
G75*
G02*
X11700000Y-8800000I200000J0D01*
G01*
D11*
X11758277Y-12313984D02*
X11758277Y-12113984D01*
X11758277Y-12113984D02*
X11805896Y-12113984D01*
X11805896Y-12113984D02*
X11834467Y-12123508D01*
X11834467Y-12123508D02*
X11853515Y-12142555D01*
X11853515Y-12142555D02*
X11863039Y-12161603D01*
X11863039Y-12161603D02*
X11872562Y-12199698D01*
X11872562Y-12199698D02*
X11872562Y-12228269D01*
X11872562Y-12228269D02*
X11863039Y-12266365D01*
X11863039Y-12266365D02*
X11853515Y-12285412D01*
X11853515Y-12285412D02*
X11834467Y-12304460D01*
X11834467Y-12304460D02*
X11805896Y-12313984D01*
X11805896Y-12313984D02*
X11758277Y-12313984D01*
X11958277Y-12313984D02*
X11958277Y-12180650D01*
X11958277Y-12218746D02*
X11967801Y-12199698D01*
X11967801Y-12199698D02*
X11977324Y-12190174D01*
X11977324Y-12190174D02*
X11996372Y-12180650D01*
X11996372Y-12180650D02*
X12015420Y-12180650D01*
X12082086Y-12313984D02*
X12082086Y-12180650D01*
X12082086Y-12113984D02*
X12072562Y-12123508D01*
X12072562Y-12123508D02*
X12082086Y-12133031D01*
X12082086Y-12133031D02*
X12091610Y-12123508D01*
X12091610Y-12123508D02*
X12082086Y-12113984D01*
X12082086Y-12113984D02*
X12082086Y-12133031D01*
X12205896Y-12313984D02*
X12186848Y-12304460D01*
X12186848Y-12304460D02*
X12177324Y-12285412D01*
X12177324Y-12285412D02*
X12177324Y-12113984D01*
X12310658Y-12313984D02*
X12291610Y-12304460D01*
X12291610Y-12304460D02*
X12282086Y-12285412D01*
X12282086Y-12285412D02*
X12282086Y-12113984D01*
X12539229Y-12313984D02*
X12539229Y-12113984D01*
X12539229Y-12113984D02*
X12605896Y-12256841D01*
X12605896Y-12256841D02*
X12672562Y-12113984D01*
X12672562Y-12113984D02*
X12672562Y-12313984D01*
X12853515Y-12313984D02*
X12853515Y-12209222D01*
X12853515Y-12209222D02*
X12843991Y-12190174D01*
X12843991Y-12190174D02*
X12824943Y-12180650D01*
X12824943Y-12180650D02*
X12786848Y-12180650D01*
X12786848Y-12180650D02*
X12767801Y-12190174D01*
X12853515Y-12304460D02*
X12834467Y-12313984D01*
X12834467Y-12313984D02*
X12786848Y-12313984D01*
X12786848Y-12313984D02*
X12767801Y-12304460D01*
X12767801Y-12304460D02*
X12758277Y-12285412D01*
X12758277Y-12285412D02*
X12758277Y-12266365D01*
X12758277Y-12266365D02*
X12767801Y-12247317D01*
X12767801Y-12247317D02*
X12786848Y-12237793D01*
X12786848Y-12237793D02*
X12834467Y-12237793D01*
X12834467Y-12237793D02*
X12853515Y-12228269D01*
X12948753Y-12180650D02*
X12948753Y-12380650D01*
X12948753Y-12190174D02*
X12967801Y-12180650D01*
X12967801Y-12180650D02*
X13005896Y-12180650D01*
X13005896Y-12180650D02*
X13024943Y-12190174D01*
X13024943Y-12190174D02*
X13034467Y-12199698D01*
X13034467Y-12199698D02*
X13043991Y-12218746D01*
X13043991Y-12218746D02*
X13043991Y-12275888D01*
X13043991Y-12275888D02*
X13034467Y-12294936D01*
X13034467Y-12294936D02*
X13024943Y-12304460D01*
X13024943Y-12304460D02*
X13005896Y-12313984D01*
X13005896Y-12313984D02*
X12967801Y-12313984D01*
X12967801Y-12313984D02*
X12948753Y-12304460D01*
X13129705Y-12294936D02*
X13139229Y-12304460D01*
X13139229Y-12304460D02*
X13129705Y-12313984D01*
X13129705Y-12313984D02*
X13120182Y-12304460D01*
X13120182Y-12304460D02*
X13129705Y-12294936D01*
X13129705Y-12294936D02*
X13129705Y-12313984D01*
X13129705Y-12190174D02*
X13139229Y-12199698D01*
X13139229Y-12199698D02*
X13129705Y-12209222D01*
X13129705Y-12209222D02*
X13120182Y-12199698D01*
X13120182Y-12199698D02*
X13129705Y-12190174D01*
X13129705Y-12190174D02*
X13129705Y-12209222D01*
M02*
