G04 #@! TF.GenerationSoftware,KiCad,Pcbnew,8.0.1*
G04 #@! TF.CreationDate,2024-10-28T21:22:42-04:00*
G04 #@! TF.ProjectId,cutdown,63757464-6f77-46e2-9e6b-696361645f70,rev?*
G04 #@! TF.SameCoordinates,Original*
G04 #@! TF.FileFunction,Copper,L4,Bot*
G04 #@! TF.FilePolarity,Positive*
%FSLAX46Y46*%
G04 Gerber Fmt 4.6, Leading zero omitted, Abs format (unit mm)*
G04 Created by KiCad (PCBNEW 8.0.1) date 2024-10-28 21:22:42*
%MOMM*%
%LPD*%
G01*
G04 APERTURE LIST*
G04 #@! TA.AperFunction,SMDPad,CuDef*
%ADD10C,1.000000*%
G04 #@! TD*
G04 #@! TA.AperFunction,ComponentPad*
%ADD11R,1.700000X1.700000*%
G04 #@! TD*
G04 #@! TA.AperFunction,ComponentPad*
%ADD12O,1.700000X1.700000*%
G04 #@! TD*
G04 #@! TA.AperFunction,ComponentPad*
%ADD13C,2.000000*%
G04 #@! TD*
G04 #@! TA.AperFunction,ComponentPad*
%ADD14R,3.800000X3.800000*%
G04 #@! TD*
G04 #@! TA.AperFunction,ComponentPad*
%ADD15C,4.000000*%
G04 #@! TD*
G04 #@! TA.AperFunction,ComponentPad*
%ADD16C,3.800000*%
G04 #@! TD*
G04 #@! TA.AperFunction,ViaPad*
%ADD17C,0.600000*%
G04 #@! TD*
G04 #@! TA.AperFunction,Conductor*
%ADD18C,0.200000*%
G04 #@! TD*
G04 #@! TA.AperFunction,Conductor*
%ADD19C,0.400000*%
G04 #@! TD*
G04 #@! TA.AperFunction,Conductor*
%ADD20C,0.500000*%
G04 #@! TD*
G04 #@! TA.AperFunction,Conductor*
%ADD21C,0.800000*%
G04 #@! TD*
G04 APERTURE END LIST*
D10*
X139700000Y-108900000D03*
X139300000Y-100800000D03*
D11*
X120300000Y-101650000D03*
D12*
X120300000Y-104190000D03*
X120300000Y-106730000D03*
X120300000Y-109270000D03*
X120300000Y-111810000D03*
X120300000Y-114350000D03*
D13*
X132500000Y-93500000D03*
X150000000Y-114500000D03*
X137324129Y-93421197D03*
D14*
X154900000Y-92600000D03*
D15*
X149900000Y-92600000D03*
D16*
X160000000Y-105000000D03*
D13*
X128000000Y-114000000D03*
D16*
X160000000Y-111000000D03*
D17*
X143700000Y-113600000D03*
X140300000Y-115100000D03*
X156000000Y-117000000D03*
X154000000Y-117000000D03*
X146000000Y-117000000D03*
X152000000Y-117000000D03*
X150000000Y-117000000D03*
X148000000Y-117000000D03*
X142000000Y-117000000D03*
X144000000Y-117000000D03*
X140000000Y-117000000D03*
X133200000Y-112200000D03*
X137000000Y-116500000D03*
X135500000Y-115400000D03*
X124800000Y-113200000D03*
X116000000Y-107000000D03*
X146000000Y-107000000D03*
X156000000Y-113000000D03*
X148000000Y-88974136D03*
X132300000Y-108000000D03*
X128000000Y-89000000D03*
X146000000Y-114986354D03*
X154000000Y-115000000D03*
X126000000Y-89000000D03*
X160000000Y-97000000D03*
X138000000Y-119000000D03*
X152000000Y-119000000D03*
X136000000Y-119000000D03*
X116000000Y-97000000D03*
X141925000Y-98950000D03*
X160000000Y-117000000D03*
X148000000Y-119000000D03*
X116000000Y-95000000D03*
X128000000Y-119000000D03*
X160000000Y-119000000D03*
X138000000Y-117000000D03*
X126500000Y-94500000D03*
X162000000Y-91000000D03*
X146000000Y-89000000D03*
X116000000Y-103000000D03*
X117400000Y-94600000D03*
X124800000Y-114300000D03*
X118662500Y-94512500D03*
X142000000Y-119000000D03*
X120000000Y-89000000D03*
X146000000Y-119000000D03*
X156000000Y-115000000D03*
X130650000Y-104950000D03*
X156000000Y-89000000D03*
X128000000Y-93000000D03*
X126000000Y-116999999D03*
X116000000Y-101000000D03*
X116000000Y-117000000D03*
X124000000Y-99500000D03*
X123500000Y-104000000D03*
X146000000Y-103000000D03*
X116000000Y-115000000D03*
X132000000Y-117000000D03*
X124300000Y-95600000D03*
X146000000Y-101000000D03*
X134000000Y-119000000D03*
X124000000Y-117000000D03*
X162000000Y-113000000D03*
X152000000Y-89000000D03*
X132000000Y-119000000D03*
X154000000Y-119000000D03*
X116000000Y-109000000D03*
X150000000Y-89000000D03*
X128000000Y-117000000D03*
X160000000Y-93000000D03*
X122000000Y-119000000D03*
X116000000Y-99000000D03*
X126000000Y-119000000D03*
X138000000Y-89000000D03*
X140000000Y-119000000D03*
X146000000Y-109000000D03*
X130000000Y-89000000D03*
X144000000Y-89000000D03*
X156000000Y-111000000D03*
X158000000Y-119000000D03*
X131000000Y-109000000D03*
X118000000Y-89000000D03*
X158000000Y-89000000D03*
X118000000Y-119000000D03*
X126600000Y-100200000D03*
X126500000Y-98500000D03*
X146000000Y-99000000D03*
X123700000Y-96400000D03*
X116000000Y-111000000D03*
X140000000Y-99000000D03*
X118000000Y-117000000D03*
X160000000Y-95000000D03*
X130000000Y-93000000D03*
X130000000Y-117000000D03*
X116000000Y-91000000D03*
X120000000Y-117000000D03*
X158000000Y-113000000D03*
X156000000Y-119000000D03*
X160000000Y-89000000D03*
X136000000Y-117000000D03*
X122000000Y-117000000D03*
X150000000Y-119000000D03*
X116000000Y-93000000D03*
X162000000Y-117000000D03*
X162000000Y-95000000D03*
X160000000Y-91000000D03*
X124000000Y-119000000D03*
X134000000Y-89000000D03*
X136000000Y-89000000D03*
X120000000Y-119000000D03*
X144000000Y-119000000D03*
X130000000Y-119000000D03*
X116000000Y-105000000D03*
X154000000Y-89000000D03*
X162000000Y-115000000D03*
X162000000Y-93000000D03*
X142000000Y-89000000D03*
X134000000Y-116999999D03*
X131000000Y-97000000D03*
X140000000Y-89000000D03*
X116000000Y-113000000D03*
X132000000Y-89000000D03*
X162000000Y-97000000D03*
X146000000Y-113000000D03*
X144000000Y-99000000D03*
X127800000Y-105700000D03*
X124100000Y-105900000D03*
X131100000Y-107200000D03*
X126500000Y-96100000D03*
X123000000Y-111000000D03*
X124000000Y-110000000D03*
X124000000Y-111000000D03*
X119000000Y-98000000D03*
X119000000Y-99000000D03*
X118000000Y-99000000D03*
X125000000Y-111000000D03*
X123000000Y-110000000D03*
X118000000Y-98000000D03*
X138200000Y-101800000D03*
X130500000Y-102000000D03*
X138400000Y-109600000D03*
X130900000Y-104000000D03*
D18*
X138400000Y-109600000D02*
X139100000Y-108900000D01*
X139100000Y-108900000D02*
X139700000Y-108900000D01*
X138200000Y-101800000D02*
X139200000Y-100800000D01*
X139200000Y-100800000D02*
X139300000Y-100800000D01*
X137000000Y-116000000D02*
X133200000Y-112200000D01*
X137000000Y-116500000D02*
X137000000Y-116000000D01*
D19*
X135500000Y-115400000D02*
X134700000Y-116200000D01*
X117850000Y-104100000D02*
X120300000Y-101650000D01*
X134700000Y-116200000D02*
X119000000Y-116200000D01*
X117800000Y-115000000D02*
X117800000Y-104100000D01*
D18*
X117800000Y-104100000D02*
X117850000Y-104100000D01*
D19*
X119000000Y-116200000D02*
X117800000Y-115000000D01*
D20*
X148400000Y-102600000D02*
X148400000Y-92200000D01*
X139600000Y-111400000D02*
X148400000Y-102600000D01*
X124800000Y-113200000D02*
X126600000Y-111400000D01*
X126600000Y-111400000D02*
X139600000Y-111400000D01*
D21*
X126500000Y-102600000D02*
X128450000Y-104550000D01*
X125300000Y-101400000D02*
X126500000Y-102600000D01*
X127800000Y-105200000D02*
X127800000Y-105700000D01*
X128450000Y-104550000D02*
X127800000Y-105200000D01*
X125300000Y-101400000D02*
X125300000Y-104700000D01*
X125300000Y-97300000D02*
X125300000Y-101400000D01*
X128450000Y-104550000D02*
X131100000Y-107200000D01*
X125300000Y-104700000D02*
X124100000Y-105900000D01*
X126500000Y-96100000D02*
X125300000Y-97300000D01*
X123000000Y-111000000D02*
X124000000Y-111000000D01*
X125000000Y-111000000D02*
X124000000Y-111000000D01*
X118000000Y-98000000D02*
X119000000Y-98000000D01*
X118000000Y-98000000D02*
X119000000Y-99000000D01*
X123000000Y-111000000D02*
X123000000Y-110000000D01*
X121000000Y-99000000D02*
X119000000Y-99000000D01*
X119000000Y-99000000D02*
X119000000Y-98000000D01*
X122400000Y-100400000D02*
X121000000Y-99000000D01*
X124000000Y-110000000D02*
X122400000Y-108400000D01*
X119000000Y-99000000D02*
X118000000Y-99000000D01*
X118000000Y-98000000D02*
X118000000Y-99000000D01*
X122400000Y-108400000D02*
X122400000Y-100400000D01*
X124000000Y-110000000D02*
X123000000Y-111000000D01*
X124000000Y-111000000D02*
X124000000Y-110000000D01*
X124000000Y-110000000D02*
X125000000Y-111000000D01*
X123000000Y-110000000D02*
X124000000Y-111000000D01*
X123000000Y-110000000D02*
X124000000Y-110000000D01*
D18*
X130500000Y-102000000D02*
X130700000Y-101800000D01*
X130700000Y-101800000D02*
X138200000Y-101800000D01*
X138400000Y-109600000D02*
X136500000Y-109600000D01*
X136500000Y-109600000D02*
X130900000Y-104000000D01*
G04 #@! TA.AperFunction,Conductor*
G36*
X138759339Y-109110812D02*
G01*
X138889187Y-109240660D01*
X138892614Y-109248933D01*
X138891523Y-109253867D01*
X138681877Y-109704670D01*
X138675281Y-109710726D01*
X138666824Y-109710559D01*
X138403815Y-109602563D01*
X138397463Y-109596251D01*
X138397436Y-109596184D01*
X138289440Y-109333175D01*
X138289467Y-109324220D01*
X138295326Y-109318124D01*
X138746134Y-109108475D01*
X138755079Y-109108095D01*
X138759339Y-109110812D01*
G37*
G04 #@! TD.AperFunction*
G04 #@! TA.AperFunction,Conductor*
G36*
X138559339Y-101310812D02*
G01*
X138689187Y-101440660D01*
X138692614Y-101448933D01*
X138691523Y-101453867D01*
X138481877Y-101904670D01*
X138475281Y-101910726D01*
X138466824Y-101910559D01*
X138203815Y-101802563D01*
X138197463Y-101796251D01*
X138197436Y-101796184D01*
X138089440Y-101533175D01*
X138089467Y-101524220D01*
X138095326Y-101518124D01*
X138546134Y-101308475D01*
X138555079Y-101308095D01*
X138559339Y-101310812D01*
G37*
G04 #@! TD.AperFunction*
G04 #@! TA.AperFunction,Conductor*
G36*
X119460509Y-101302258D02*
G01*
X120296216Y-101647438D01*
X120302553Y-101653763D01*
X120302562Y-101653784D01*
X120647740Y-102489489D01*
X120647731Y-102498444D01*
X120641699Y-102504638D01*
X118997733Y-103239177D01*
X118988781Y-103239423D01*
X118984687Y-103236768D01*
X118713231Y-102965312D01*
X118709804Y-102957039D01*
X118710820Y-102952271D01*
X119445361Y-101308299D01*
X119451864Y-101302145D01*
X119460509Y-101302258D01*
G37*
G04 #@! TD.AperFunction*
G04 #@! TA.AperFunction,Conductor*
G36*
X131016811Y-101703427D02*
G01*
X131020238Y-101711700D01*
X131020238Y-101895198D01*
X131016865Y-101903417D01*
X130720386Y-102203770D01*
X130712135Y-102207251D01*
X130703840Y-102203878D01*
X130703805Y-102203844D01*
X130502462Y-102003446D01*
X130499016Y-101995181D01*
X130499016Y-101995114D01*
X130499961Y-101711661D01*
X130503415Y-101703399D01*
X130511661Y-101700000D01*
X131008538Y-101700000D01*
X131016811Y-101703427D01*
G37*
G04 #@! TD.AperFunction*
G04 #@! TA.AperFunction,Conductor*
G36*
X138083641Y-101527050D02*
G01*
X138089503Y-101533148D01*
X138199115Y-101795489D01*
X138199142Y-101804444D01*
X138199115Y-101804511D01*
X138089503Y-102066851D01*
X138083151Y-102073163D01*
X138074694Y-102073329D01*
X137940947Y-102024493D01*
X137607687Y-101902806D01*
X137601091Y-101896750D01*
X137600000Y-101891816D01*
X137600000Y-101708183D01*
X137603427Y-101699910D01*
X137607687Y-101697193D01*
X138074697Y-101526669D01*
X138083641Y-101527050D01*
G37*
G04 #@! TD.AperFunction*
G04 #@! TA.AperFunction,Conductor*
G36*
X138283641Y-109327050D02*
G01*
X138289503Y-109333148D01*
X138399115Y-109595489D01*
X138399142Y-109604444D01*
X138399115Y-109604511D01*
X138289503Y-109866851D01*
X138283151Y-109873163D01*
X138274694Y-109873329D01*
X138140947Y-109824493D01*
X137807687Y-109702806D01*
X137801091Y-109696750D01*
X137800000Y-109691816D01*
X137800000Y-109508183D01*
X137803427Y-109499910D01*
X137807687Y-109497193D01*
X138274697Y-109326669D01*
X138283641Y-109327050D01*
G37*
G04 #@! TD.AperFunction*
G04 #@! TA.AperFunction,Conductor*
G36*
X131175779Y-103889467D02*
G01*
X131181877Y-103895329D01*
X131391523Y-104346132D01*
X131391904Y-104355079D01*
X131389187Y-104359339D01*
X131259339Y-104489187D01*
X131251066Y-104492614D01*
X131246132Y-104491523D01*
X130952736Y-104355079D01*
X130795328Y-104281876D01*
X130789273Y-104275281D01*
X130789439Y-104266825D01*
X130897436Y-104003814D01*
X130903746Y-103997464D01*
X131166825Y-103889440D01*
X131175779Y-103889467D01*
G37*
G04 #@! TD.AperFunction*
M02*
