G04 #@! TF.GenerationSoftware,KiCad,Pcbnew,8.0.1*
G04 #@! TF.CreationDate,2024-10-28T21:22:42-04:00*
G04 #@! TF.ProjectId,cutdown,63757464-6f77-46e2-9e6b-696361645f70,rev?*
G04 #@! TF.SameCoordinates,Original*
G04 #@! TF.FileFunction,Soldermask,Top*
G04 #@! TF.FilePolarity,Negative*
%FSLAX46Y46*%
G04 Gerber Fmt 4.6, Leading zero omitted, Abs format (unit mm)*
G04 Created by KiCad (PCBNEW 8.0.1) date 2024-10-28 21:22:42*
%MOMM*%
%LPD*%
G01*
G04 APERTURE LIST*
G04 Aperture macros list*
%AMRoundRect*
0 Rectangle with rounded corners*
0 $1 Rounding radius*
0 $2 $3 $4 $5 $6 $7 $8 $9 X,Y pos of 4 corners*
0 Add a 4 corners polygon primitive as box body*
4,1,4,$2,$3,$4,$5,$6,$7,$8,$9,$2,$3,0*
0 Add four circle primitives for the rounded corners*
1,1,$1+$1,$2,$3*
1,1,$1+$1,$4,$5*
1,1,$1+$1,$6,$7*
1,1,$1+$1,$8,$9*
0 Add four rect primitives between the rounded corners*
20,1,$1+$1,$2,$3,$4,$5,0*
20,1,$1+$1,$4,$5,$6,$7,0*
20,1,$1+$1,$6,$7,$8,$9,0*
20,1,$1+$1,$8,$9,$2,$3,0*%
G04 Aperture macros list end*
%ADD10C,0.000000*%
%ADD11C,0.002645*%
%ADD12C,0.182463*%
%ADD13R,1.700000X1.700000*%
%ADD14O,1.700000X1.700000*%
%ADD15RoundRect,0.237500X0.250000X0.237500X-0.250000X0.237500X-0.250000X-0.237500X0.250000X-0.237500X0*%
%ADD16RoundRect,0.237500X-0.250000X-0.237500X0.250000X-0.237500X0.250000X0.237500X-0.250000X0.237500X0*%
%ADD17RoundRect,0.100000X0.225000X0.100000X-0.225000X0.100000X-0.225000X-0.100000X0.225000X-0.100000X0*%
%ADD18RoundRect,0.250000X-0.325000X-0.650000X0.325000X-0.650000X0.325000X0.650000X-0.325000X0.650000X0*%
%ADD19RoundRect,0.225000X-0.250000X0.225000X-0.250000X-0.225000X0.250000X-0.225000X0.250000X0.225000X0*%
%ADD20C,2.000000*%
%ADD21RoundRect,0.250000X-0.250000X-0.475000X0.250000X-0.475000X0.250000X0.475000X-0.250000X0.475000X0*%
%ADD22RoundRect,0.135000X-0.135000X-0.185000X0.135000X-0.185000X0.135000X0.185000X-0.135000X0.185000X0*%
%ADD23R,4.400000X4.300000*%
%ADD24R,0.650000X0.630000*%
%ADD25RoundRect,0.250000X0.650000X-0.325000X0.650000X0.325000X-0.650000X0.325000X-0.650000X-0.325000X0*%
%ADD26R,4.100000X3.500000*%
%ADD27RoundRect,0.225000X-0.225000X-0.250000X0.225000X-0.250000X0.225000X0.250000X-0.225000X0.250000X0*%
%ADD28RoundRect,0.225000X0.250000X-0.225000X0.250000X0.225000X-0.250000X0.225000X-0.250000X-0.225000X0*%
%ADD29RoundRect,0.250000X-0.375000X-1.075000X0.375000X-1.075000X0.375000X1.075000X-0.375000X1.075000X0*%
%ADD30RoundRect,0.100000X-0.625000X-0.100000X0.625000X-0.100000X0.625000X0.100000X-0.625000X0.100000X0*%
%ADD31R,1.650000X2.850000*%
%ADD32RoundRect,0.250000X-0.650000X0.325000X-0.650000X-0.325000X0.650000X-0.325000X0.650000X0.325000X0*%
%ADD33RoundRect,0.135000X0.185000X-0.135000X0.185000X0.135000X-0.185000X0.135000X-0.185000X-0.135000X0*%
%ADD34RoundRect,0.135000X0.135000X0.185000X-0.135000X0.185000X-0.135000X-0.185000X0.135000X-0.185000X0*%
%ADD35RoundRect,0.100000X0.100000X-0.712500X0.100000X0.712500X-0.100000X0.712500X-0.100000X-0.712500X0*%
%ADD36RoundRect,0.250000X-1.263953X-0.751301X-0.751301X-1.263953X1.263953X0.751301X0.751301X1.263953X0*%
%ADD37R,3.800000X3.800000*%
%ADD38C,4.000000*%
%ADD39C,3.800000*%
%ADD40RoundRect,0.250000X-0.475000X0.250000X-0.475000X-0.250000X0.475000X-0.250000X0.475000X0.250000X0*%
%ADD41RoundRect,0.250000X1.075000X-0.375000X1.075000X0.375000X-1.075000X0.375000X-1.075000X-0.375000X0*%
%ADD42RoundRect,0.250000X0.650000X-1.000000X0.650000X1.000000X-0.650000X1.000000X-0.650000X-1.000000X0*%
G04 APERTURE END LIST*
D10*
G36*
X133505000Y-104340672D02*
G01*
X132715000Y-104340672D01*
X132715000Y-103570672D01*
X133505000Y-103570672D01*
X133505000Y-104340672D01*
G37*
G36*
X133505000Y-109810816D02*
G01*
X132715000Y-109810816D01*
X132715000Y-109040816D01*
X133505000Y-109040816D01*
X133505000Y-109810816D01*
G37*
G36*
X134775000Y-104340672D02*
G01*
X133985000Y-104340672D01*
X133985000Y-103570672D01*
X134775000Y-103570672D01*
X134775000Y-104340672D01*
G37*
G36*
X134775000Y-109810816D02*
G01*
X133985000Y-109810816D01*
X133985000Y-109040816D01*
X134775000Y-109040816D01*
X134775000Y-109810816D01*
G37*
G36*
X136045000Y-104340672D02*
G01*
X135255000Y-104340672D01*
X135255000Y-103570672D01*
X136045000Y-103570672D01*
X136045000Y-104340672D01*
G37*
G36*
X136045000Y-109810816D02*
G01*
X135255000Y-109810816D01*
X135255000Y-109040816D01*
X136045000Y-109040816D01*
X136045000Y-109810816D01*
G37*
G36*
X137315000Y-104340672D02*
G01*
X136525000Y-104340672D01*
X136525000Y-103570672D01*
X137315000Y-103570672D01*
X137315000Y-104340672D01*
G37*
G36*
X137315000Y-109810816D02*
G01*
X136525000Y-109810816D01*
X136525000Y-109040816D01*
X137315000Y-109040816D01*
X137315000Y-109810816D01*
G37*
G36*
X137244999Y-108235943D02*
G01*
X135015000Y-108235943D01*
X135015000Y-103945543D01*
X137244999Y-103945543D01*
X137244999Y-108235943D01*
G37*
D11*
X131466044Y-111983588D02*
X131492913Y-111984655D01*
X131519800Y-111986395D01*
X131546690Y-111988812D01*
X131573574Y-111991912D01*
X131600439Y-111995700D01*
X131627274Y-112000180D01*
X131654067Y-112005358D01*
X131680806Y-112011238D01*
X131707480Y-112017826D01*
X131734077Y-112025126D01*
X131760585Y-112033144D01*
X131786993Y-112041883D01*
X131813289Y-112051350D01*
X131839462Y-112061549D01*
X131865499Y-112072486D01*
X131916543Y-112096307D01*
X131965782Y-112122482D01*
X132013183Y-112150917D01*
X132058708Y-112181517D01*
X132102322Y-112214189D01*
X132143990Y-112248837D01*
X132183674Y-112285369D01*
X132221341Y-112323689D01*
X132256953Y-112363704D01*
X132290476Y-112405319D01*
X132321872Y-112448440D01*
X132351108Y-112492973D01*
X132378146Y-112538823D01*
X132402951Y-112585897D01*
X132425488Y-112634101D01*
X132445720Y-112683339D01*
X132463612Y-112733518D01*
X132479128Y-112784544D01*
X132492232Y-112836322D01*
X132502889Y-112888759D01*
X132511062Y-112941760D01*
X132516716Y-112995230D01*
X132519815Y-113049076D01*
X132520324Y-113103204D01*
X132518206Y-113157518D01*
X132513426Y-113211926D01*
X132505949Y-113266333D01*
X132495737Y-113320644D01*
X132482756Y-113374766D01*
X132466970Y-113428604D01*
X132448343Y-113482064D01*
X132426839Y-113535052D01*
X132375155Y-113639981D01*
X132311341Y-113746035D01*
X132236576Y-113851709D01*
X132152043Y-113955499D01*
X132058922Y-114055901D01*
X131958395Y-114151411D01*
X131851643Y-114240525D01*
X131739848Y-114321739D01*
X131624191Y-114393550D01*
X131565283Y-114425458D01*
X131505853Y-114454452D01*
X131446048Y-114480342D01*
X131386016Y-114502942D01*
X131325904Y-114522062D01*
X131265860Y-114537516D01*
X131206033Y-114549114D01*
X131146568Y-114556669D01*
X131087615Y-114559994D01*
X131029320Y-114558899D01*
X130971832Y-114553197D01*
X130915299Y-114542701D01*
X130859866Y-114527221D01*
X130805684Y-114506570D01*
X130753656Y-114480974D01*
X130704562Y-114450940D01*
X130658364Y-114416705D01*
X130615027Y-114378505D01*
X130574513Y-114336576D01*
X130536785Y-114291155D01*
X130501805Y-114242477D01*
X130469538Y-114190779D01*
X130439945Y-114136297D01*
X130412990Y-114079267D01*
X130366846Y-113958507D01*
X130330809Y-113830389D01*
X130304584Y-113696803D01*
X130287873Y-113559637D01*
X130280382Y-113420782D01*
X130281813Y-113282125D01*
X130291871Y-113145557D01*
X130310259Y-113012967D01*
X130336682Y-112886245D01*
X130370843Y-112767278D01*
X130412447Y-112657958D01*
X130449526Y-112580864D01*
X130491688Y-112507828D01*
X130538617Y-112438979D01*
X130589997Y-112374444D01*
X130645516Y-112314351D01*
X130704856Y-112258830D01*
X130767704Y-112208008D01*
X130833745Y-112162012D01*
X130902662Y-112120971D01*
X130974143Y-112085014D01*
X131047871Y-112054268D01*
X131123532Y-112028861D01*
X131200810Y-112008922D01*
X131279391Y-111994578D01*
X131358960Y-111985957D01*
X131439202Y-111983189D01*
X131466044Y-111983588D01*
G36*
X131466044Y-111983588D02*
G01*
X131492913Y-111984655D01*
X131519800Y-111986395D01*
X131546690Y-111988812D01*
X131573574Y-111991912D01*
X131600439Y-111995700D01*
X131627274Y-112000180D01*
X131654067Y-112005358D01*
X131680806Y-112011238D01*
X131707480Y-112017826D01*
X131734077Y-112025126D01*
X131760585Y-112033144D01*
X131786993Y-112041883D01*
X131813289Y-112051350D01*
X131839462Y-112061549D01*
X131865499Y-112072486D01*
X131916543Y-112096307D01*
X131965782Y-112122482D01*
X132013183Y-112150917D01*
X132058708Y-112181517D01*
X132102322Y-112214189D01*
X132143990Y-112248837D01*
X132183674Y-112285369D01*
X132221341Y-112323689D01*
X132256953Y-112363704D01*
X132290476Y-112405319D01*
X132321872Y-112448440D01*
X132351108Y-112492973D01*
X132378146Y-112538823D01*
X132402951Y-112585897D01*
X132425488Y-112634101D01*
X132445720Y-112683339D01*
X132463612Y-112733518D01*
X132479128Y-112784544D01*
X132492232Y-112836322D01*
X132502889Y-112888759D01*
X132511062Y-112941760D01*
X132516716Y-112995230D01*
X132519815Y-113049076D01*
X132520324Y-113103204D01*
X132518206Y-113157518D01*
X132513426Y-113211926D01*
X132505949Y-113266333D01*
X132495737Y-113320644D01*
X132482756Y-113374766D01*
X132466970Y-113428604D01*
X132448343Y-113482064D01*
X132426839Y-113535052D01*
X132375155Y-113639981D01*
X132311341Y-113746035D01*
X132236576Y-113851709D01*
X132152043Y-113955499D01*
X132058922Y-114055901D01*
X131958395Y-114151411D01*
X131851643Y-114240525D01*
X131739848Y-114321739D01*
X131624191Y-114393550D01*
X131565283Y-114425458D01*
X131505853Y-114454452D01*
X131446048Y-114480342D01*
X131386016Y-114502942D01*
X131325904Y-114522062D01*
X131265860Y-114537516D01*
X131206033Y-114549114D01*
X131146568Y-114556669D01*
X131087615Y-114559994D01*
X131029320Y-114558899D01*
X130971832Y-114553197D01*
X130915299Y-114542701D01*
X130859866Y-114527221D01*
X130805684Y-114506570D01*
X130753656Y-114480974D01*
X130704562Y-114450940D01*
X130658364Y-114416705D01*
X130615027Y-114378505D01*
X130574513Y-114336576D01*
X130536785Y-114291155D01*
X130501805Y-114242477D01*
X130469538Y-114190779D01*
X130439945Y-114136297D01*
X130412990Y-114079267D01*
X130366846Y-113958507D01*
X130330809Y-113830389D01*
X130304584Y-113696803D01*
X130287873Y-113559637D01*
X130280382Y-113420782D01*
X130281813Y-113282125D01*
X130291871Y-113145557D01*
X130310259Y-113012967D01*
X130336682Y-112886245D01*
X130370843Y-112767278D01*
X130412447Y-112657958D01*
X130449526Y-112580864D01*
X130491688Y-112507828D01*
X130538617Y-112438979D01*
X130589997Y-112374444D01*
X130645516Y-112314351D01*
X130704856Y-112258830D01*
X130767704Y-112208008D01*
X130833745Y-112162012D01*
X130902662Y-112120971D01*
X130974143Y-112085014D01*
X131047871Y-112054268D01*
X131123532Y-112028861D01*
X131200810Y-112008922D01*
X131279391Y-111994578D01*
X131358960Y-111985957D01*
X131439202Y-111983189D01*
X131466044Y-111983588D01*
G37*
X130926125Y-114459209D02*
X130863874Y-114831478D01*
X130528141Y-114685296D01*
X130758257Y-114386105D01*
X130926125Y-114459209D01*
G36*
X130926125Y-114459209D02*
G01*
X130863874Y-114831478D01*
X130528141Y-114685296D01*
X130758257Y-114386105D01*
X130926125Y-114459209D01*
G37*
D12*
X130713908Y-114700721D02*
X130708136Y-114707524D01*
X130708136Y-114707524D02*
X130692516Y-114727270D01*
X130692516Y-114727270D02*
X130681806Y-114741686D01*
X130681806Y-114741686D02*
X130669587Y-114758964D01*
X130669587Y-114758964D02*
X130656176Y-114778980D01*
X130656176Y-114778980D02*
X130641891Y-114801610D01*
X130641891Y-114801610D02*
X130627049Y-114826730D01*
X130627049Y-114826730D02*
X130611968Y-114854214D01*
X130611968Y-114854214D02*
X130604437Y-114868805D01*
X130604437Y-114868805D02*
X130596965Y-114883940D01*
X130596965Y-114883940D02*
X130589593Y-114899604D01*
X130589593Y-114899604D02*
X130582359Y-114915781D01*
X130582359Y-114915781D02*
X130575304Y-114932457D01*
X130575304Y-114932457D02*
X130568467Y-114949615D01*
X130568467Y-114949615D02*
X130561887Y-114967240D01*
X130561887Y-114967240D02*
X130555605Y-114985316D01*
X130555605Y-114985316D02*
X130549661Y-115003829D01*
X130549661Y-115003829D02*
X130544093Y-115022761D01*
X130544093Y-115022761D02*
X130538942Y-115042098D01*
X130538942Y-115042098D02*
X130534248Y-115061824D01*
X130534248Y-115061824D02*
X130534248Y-115061824D01*
X130534248Y-115061824D02*
X130529096Y-115089945D01*
X130529096Y-115089945D02*
X130524747Y-115123706D01*
X130524747Y-115123706D02*
X130517827Y-115205318D01*
X130517827Y-115205318D02*
X130506715Y-115405029D01*
X130506715Y-115405029D02*
X130500017Y-115511777D01*
X130500017Y-115511777D02*
X130490887Y-115615554D01*
X130490887Y-115615554D02*
X130485018Y-115664555D01*
X130485018Y-115664555D02*
X130478070Y-115710685D01*
X130478070Y-115710685D02*
X130469889Y-115753233D01*
X130469889Y-115753233D02*
X130460315Y-115791492D01*
X130460315Y-115791492D02*
X130460315Y-115791492D01*
X130460315Y-115791492D02*
X130453086Y-115813267D01*
X130453086Y-115813267D02*
X130443899Y-115835413D01*
X130443899Y-115835413D02*
X130432900Y-115857861D01*
X130432900Y-115857861D02*
X130420230Y-115880542D01*
X130420230Y-115880542D02*
X130406035Y-115903385D01*
X130406035Y-115903385D02*
X130390456Y-115926321D01*
X130390456Y-115926321D02*
X130355722Y-115972194D01*
X130355722Y-115972194D02*
X130317176Y-116017601D01*
X130317176Y-116017601D02*
X130275965Y-116061987D01*
X130275965Y-116061987D02*
X130233236Y-116104792D01*
X130233236Y-116104792D02*
X130190135Y-116145459D01*
X130190135Y-116145459D02*
X130147810Y-116183430D01*
X130147810Y-116183430D02*
X130107407Y-116218148D01*
X130107407Y-116218148D02*
X130036956Y-116275593D01*
X130036956Y-116275593D02*
X129969585Y-116326903D01*
D10*
G36*
X133495000Y-96770528D02*
G01*
X132705000Y-96770528D01*
X132705000Y-96000528D01*
X133495000Y-96000528D01*
X133495000Y-96770528D01*
G37*
G36*
X133495000Y-102240672D02*
G01*
X132705000Y-102240672D01*
X132705000Y-101470672D01*
X133495000Y-101470672D01*
X133495000Y-102240672D01*
G37*
G36*
X135005000Y-100665799D02*
G01*
X132775001Y-100665799D01*
X132775001Y-96375399D01*
X135005000Y-96375399D01*
X135005000Y-100665799D01*
G37*
G36*
X134765000Y-96770528D02*
G01*
X133975000Y-96770528D01*
X133975000Y-96000528D01*
X134765000Y-96000528D01*
X134765000Y-96770528D01*
G37*
G36*
X134765000Y-102240672D02*
G01*
X133975000Y-102240672D01*
X133975000Y-101470672D01*
X134765000Y-101470672D01*
X134765000Y-102240672D01*
G37*
G36*
X136035000Y-96770528D02*
G01*
X135245000Y-96770528D01*
X135245000Y-96000528D01*
X136035000Y-96000528D01*
X136035000Y-96770528D01*
G37*
G36*
X136035000Y-102240672D02*
G01*
X135245000Y-102240672D01*
X135245000Y-101470672D01*
X136035000Y-101470672D01*
X136035000Y-102240672D01*
G37*
G36*
X137305000Y-96770528D02*
G01*
X136515000Y-96770528D01*
X136515000Y-96000528D01*
X137305000Y-96000528D01*
X137305000Y-96770528D01*
G37*
G36*
X137305000Y-102240672D02*
G01*
X136515000Y-102240672D01*
X136515000Y-101470672D01*
X137305000Y-101470672D01*
X137305000Y-102240672D01*
G37*
G36*
X137234999Y-100665799D02*
G01*
X135005000Y-100665799D01*
X135005000Y-96375399D01*
X137234999Y-96375399D01*
X137234999Y-100665799D01*
G37*
D13*
X120300000Y-101650000D03*
D14*
X120300000Y-104190000D03*
X120300000Y-106730000D03*
X120300000Y-109270000D03*
X120300000Y-111810000D03*
X120300000Y-114350000D03*
D15*
X137212500Y-112500000D03*
X135387500Y-112500000D03*
D16*
X140687500Y-113600000D03*
X142512500Y-113600000D03*
D17*
X137150000Y-115450000D03*
X137150000Y-114150000D03*
X139050000Y-114150000D03*
X139050000Y-114800000D03*
X139050000Y-115450000D03*
D18*
X148625000Y-97300000D03*
X151575000Y-97300000D03*
D19*
X118662500Y-91737500D03*
X118662500Y-93287500D03*
X131300000Y-99300000D03*
X131300000Y-100850000D03*
D20*
X132500000Y-93500000D03*
D21*
X120837500Y-98012500D03*
X122737500Y-98012500D03*
D22*
X122890000Y-114300000D03*
X123910000Y-114300000D03*
D23*
X135015000Y-106108228D03*
D24*
X133110000Y-103955672D03*
X134380000Y-103955672D03*
X135650000Y-103955672D03*
X136920000Y-103955672D03*
X136920000Y-109425816D03*
X133110000Y-109425816D03*
X134380000Y-109425816D03*
X135650000Y-109425816D03*
D25*
X156400000Y-99975000D03*
X156400000Y-97025000D03*
D26*
X140600000Y-105700000D03*
X150100000Y-105700000D03*
D27*
X140325000Y-93400000D03*
X141875000Y-93400000D03*
D28*
X123700000Y-108775000D03*
X123700000Y-107225000D03*
D29*
X139700000Y-95900000D03*
X142500000Y-95900000D03*
D30*
X124850000Y-101400000D03*
X124850000Y-102050000D03*
X124850000Y-102700000D03*
X124850000Y-103350000D03*
X124850000Y-104000000D03*
X124850000Y-104650000D03*
X129150000Y-104650000D03*
X129150000Y-104000000D03*
X129150000Y-103350000D03*
X129150000Y-102700000D03*
X129150000Y-102050000D03*
X129150000Y-101400000D03*
D31*
X127000000Y-103025000D03*
D23*
X135005000Y-98620600D03*
D24*
X133100000Y-96385528D03*
X134370000Y-96385528D03*
X135640000Y-96385528D03*
X136910000Y-96385528D03*
X136910000Y-101855672D03*
X133100000Y-101855672D03*
X134370000Y-101855672D03*
X135640000Y-101855672D03*
D32*
X154000000Y-105525000D03*
X154000000Y-108475000D03*
D33*
X118000000Y-96410000D03*
X118000000Y-95390000D03*
D34*
X123910000Y-113200000D03*
X122890000Y-113200000D03*
D20*
X150000000Y-114500000D03*
X137324129Y-93421197D03*
D35*
X120512500Y-95825000D03*
X121162500Y-95825000D03*
X121812500Y-95825000D03*
X122462500Y-95825000D03*
X122462500Y-91600000D03*
X121812500Y-91600000D03*
X121162500Y-91600000D03*
X120512500Y-91600000D03*
D36*
X154305196Y-112405196D03*
X158494804Y-116594804D03*
D32*
X156500000Y-105525000D03*
X156500000Y-108475000D03*
X129300000Y-106625000D03*
X129300000Y-109575000D03*
D37*
X154900000Y-92600000D03*
D38*
X149900000Y-92600000D03*
D39*
X160000000Y-105000000D03*
D40*
X124387500Y-92562500D03*
X124387500Y-94462500D03*
D41*
X126200000Y-109500000D03*
X126200000Y-106700000D03*
D27*
X121425000Y-89600000D03*
X122975000Y-89600000D03*
D20*
X128000000Y-114000000D03*
D42*
X128700000Y-99000000D03*
X128700000Y-95000000D03*
D33*
X119100000Y-96410000D03*
X119100000Y-95390000D03*
D39*
X160000000Y-111000000D03*
D25*
X153900000Y-99975000D03*
X153900000Y-97025000D03*
M02*
