M48
; DRILL file {KiCad 8.0.1} date 2024-09-12T17:08:32-0400
; FORMAT={-:-/ absolute / metric / decimal}
; #@! TF.CreationDate,2024-09-12T17:08:32-04:00
; #@! TF.GenerationSoftware,Kicad,Pcbnew,8.0.1
; #@! TF.FileFunction,Plated,1,4,PTH
FMAT,2
METRIC
; #@! TA.AperFunction,Plated,PTH,ViaDrill
T1C0.300
; #@! TA.AperFunction,Plated,PTH,ViaDrill
T2C0.450
; #@! TA.AperFunction,Plated,PTH,ComponentDrill
T3C1.000
; #@! TA.AperFunction,Plated,PTH,ComponentDrill
T4C2.200
; #@! TA.AperFunction,Plated,PTH,ComponentDrill
T5C2.700
%
G90
G05
T1
X117.4Y-94.6
X118.0Y-98.0
X118.0Y-99.0
X118.662Y-94.512
X119.0Y-98.0
X119.0Y-99.0
X123.0Y-110.0
X123.0Y-111.0
X123.5Y-104.0
X123.7Y-96.4
X124.0Y-110.0
X124.0Y-111.0
X124.1Y-105.9
X124.3Y-95.6
X124.8Y-113.2
X124.8Y-114.3
X125.0Y-111.0
X126.5Y-96.1
X126.6Y-100.2
X127.8Y-105.7
X130.5Y-102.0
X130.65Y-104.95
X130.9Y-104.0
X131.0Y-109.0
X131.0Y-110.0
X131.1Y-107.2
X132.0Y-109.0
X132.0Y-110.0
X138.2Y-101.8
X138.4Y-109.6
T2
X116.0Y-91.0
X116.0Y-93.0
X116.0Y-95.0
X116.0Y-97.0
X116.0Y-99.0
X116.0Y-101.0
X116.0Y-103.0
X116.0Y-105.0
X116.0Y-107.0
X116.0Y-109.0
X116.0Y-111.0
X116.0Y-113.0
X116.0Y-115.0
X116.0Y-117.0
X118.0Y-89.0
X118.0Y-117.0
X118.0Y-119.0
X120.0Y-89.0
X120.0Y-117.0
X120.0Y-119.0
X122.0Y-117.0
X122.0Y-119.0
X124.0Y-99.5
X124.0Y-117.0
X124.0Y-119.0
X126.0Y-89.0
X126.0Y-117.0
X126.0Y-119.0
X126.5Y-94.5
X126.5Y-98.5
X128.0Y-89.0
X128.0Y-93.0
X128.0Y-117.0
X128.0Y-119.0
X130.0Y-89.0
X130.0Y-93.0
X130.0Y-117.0
X130.0Y-119.0
X131.0Y-97.0
X132.0Y-89.0
X132.0Y-117.0
X132.0Y-119.0
X134.0Y-89.0
X134.0Y-117.0
X134.0Y-119.0
X136.0Y-89.0
X136.0Y-117.0
X136.0Y-119.0
X138.0Y-89.0
X138.0Y-117.0
X138.0Y-119.0
X140.0Y-89.0
X140.0Y-99.0
X140.0Y-117.0
X140.0Y-119.0
X141.925Y-98.95
X142.0Y-89.0
X142.0Y-117.0
X142.0Y-119.0
X144.0Y-89.0
X144.0Y-99.0
X144.0Y-117.0
X144.0Y-119.0
X146.0Y-89.0
X146.0Y-99.0
X146.0Y-101.0
X146.0Y-103.0
X146.0Y-107.0
X146.0Y-109.0
X146.0Y-113.0
X146.0Y-114.986
X146.0Y-117.0
X146.0Y-119.0
X148.0Y-88.974
X148.0Y-117.0
X148.0Y-119.0
X150.0Y-89.0
X150.0Y-117.0
X150.0Y-119.0
X152.0Y-89.0
X152.0Y-117.0
X152.0Y-119.0
X154.0Y-89.0
X154.0Y-115.0
X154.0Y-117.0
X154.0Y-119.0
X156.0Y-89.0
X156.0Y-111.0
X156.0Y-113.0
X156.0Y-115.0
X156.0Y-117.0
X156.0Y-119.0
X158.0Y-89.0
X158.0Y-113.0
X158.0Y-119.0
X160.0Y-89.0
X160.0Y-91.0
X160.0Y-93.0
X160.0Y-95.0
X160.0Y-97.0
X160.0Y-117.0
X160.0Y-119.0
X162.0Y-91.0
X162.0Y-93.0
X162.0Y-95.0
X162.0Y-97.0
X162.0Y-113.0
X162.0Y-115.0
X162.0Y-117.0
T3
X120.3Y-101.65
X120.3Y-104.19
X120.3Y-106.73
X120.3Y-109.27
X120.3Y-111.81
X120.3Y-114.35
X128.0Y-114.0
X132.5Y-93.5
X137.324Y-93.421
X150.0Y-114.5
T4
X160.0Y-105.0
X160.0Y-111.0
T5
X149.8Y-92.9
X154.8Y-92.9
M30
