%TF.GenerationSoftware,KiCad,Pcbnew,8.0.1*%
%TF.CreationDate,2024-10-28T21:22:44-04:00*%
%TF.ProjectId,cutdown,63757464-6f77-46e2-9e6b-696361645f70,rev?*%
%TF.SameCoordinates,Original*%
%TF.FileFunction,Drillmap*%
%TF.FilePolarity,Positive*%
%FSLAX45Y45*%
G04 Gerber Fmt 4.5, Leading zero omitted, Abs format (unit mm)*
G04 Created by KiCad (PCBNEW 8.0.1) date 2024-10-28 21:22:44*
%MOMM*%
%LPD*%
G01*
G04 APERTURE LIST*
%ADD10C,0.050000*%
%ADD11C,0.200000*%
%ADD12C,0.100000*%
%ADD13C,0.220000*%
%ADD14C,0.270000*%
G04 APERTURE END LIST*
D10*
X16100000Y-8800000D02*
G75*
G02*
X16300000Y-9000000I0J-200000D01*
G01*
X11700000Y-12000000D02*
G75*
G02*
X11500000Y-11800000I0J200000D01*
G01*
X11700000Y-8800000D02*
X16100000Y-8800000D01*
X11500000Y-11800000D02*
X11500000Y-9000000D01*
X16300000Y-9000000D02*
X16300000Y-11800000D01*
X16300000Y-11800000D02*
G75*
G02*
X16100000Y-12000000I-200000J0D01*
G01*
X16100000Y-12000000D02*
X11700000Y-12000000D01*
X11500000Y-9000000D02*
G75*
G02*
X11700000Y-8800000I200000J0D01*
G01*
D11*
D12*
X11725000Y-9445000D02*
X11755000Y-9475000D01*
X11755000Y-9445000D02*
X11725000Y-9475000D01*
X11785000Y-9785000D02*
X11815000Y-9815000D01*
X11815000Y-9785000D02*
X11785000Y-9815000D01*
X11785000Y-9885000D02*
X11815000Y-9915000D01*
X11815000Y-9885000D02*
X11785000Y-9915000D01*
X11851250Y-9436250D02*
X11881250Y-9466250D01*
X11881250Y-9436250D02*
X11851250Y-9466250D01*
X11885000Y-9785000D02*
X11915000Y-9815000D01*
X11915000Y-9785000D02*
X11885000Y-9815000D01*
X11885000Y-9885000D02*
X11915000Y-9915000D01*
X11915000Y-9885000D02*
X11885000Y-9915000D01*
X12285000Y-10985000D02*
X12315000Y-11015000D01*
X12315000Y-10985000D02*
X12285000Y-11015000D01*
X12285000Y-11085000D02*
X12315000Y-11115000D01*
X12315000Y-11085000D02*
X12285000Y-11115000D01*
X12335000Y-10385000D02*
X12365000Y-10415000D01*
X12365000Y-10385000D02*
X12335000Y-10415000D01*
X12355000Y-9625000D02*
X12385000Y-9655000D01*
X12385000Y-9625000D02*
X12355000Y-9655000D01*
X12385000Y-10985000D02*
X12415000Y-11015000D01*
X12415000Y-10985000D02*
X12385000Y-11015000D01*
X12385000Y-11085000D02*
X12415000Y-11115000D01*
X12415000Y-11085000D02*
X12385000Y-11115000D01*
X12395000Y-10575000D02*
X12425000Y-10605000D01*
X12425000Y-10575000D02*
X12395000Y-10605000D01*
X12415000Y-9545000D02*
X12445000Y-9575000D01*
X12445000Y-9545000D02*
X12415000Y-9575000D01*
X12465000Y-11305000D02*
X12495000Y-11335000D01*
X12495000Y-11305000D02*
X12465000Y-11335000D01*
X12465000Y-11415000D02*
X12495000Y-11445000D01*
X12495000Y-11415000D02*
X12465000Y-11445000D01*
X12485000Y-11085000D02*
X12515000Y-11115000D01*
X12515000Y-11085000D02*
X12485000Y-11115000D01*
X12635000Y-9595000D02*
X12665000Y-9625000D01*
X12665000Y-9595000D02*
X12635000Y-9625000D01*
X12645000Y-10005000D02*
X12675000Y-10035000D01*
X12675000Y-10005000D02*
X12645000Y-10035000D01*
X12765000Y-10555000D02*
X12795000Y-10585000D01*
X12795000Y-10555000D02*
X12765000Y-10585000D01*
X13035000Y-10185000D02*
X13065000Y-10215000D01*
X13065000Y-10185000D02*
X13035000Y-10215000D01*
X13050000Y-10480000D02*
X13080000Y-10510000D01*
X13080000Y-10480000D02*
X13050000Y-10510000D01*
X13075000Y-10385000D02*
X13105000Y-10415000D01*
X13105000Y-10385000D02*
X13075000Y-10415000D01*
X13085000Y-10885000D02*
X13115000Y-10915000D01*
X13115000Y-10885000D02*
X13085000Y-10915000D01*
X13095000Y-10705000D02*
X13125000Y-10735000D01*
X13125000Y-10705000D02*
X13095000Y-10735000D01*
X13215000Y-10785000D02*
X13245000Y-10815000D01*
X13245000Y-10785000D02*
X13215000Y-10815000D01*
X13305000Y-11205000D02*
X13335000Y-11235000D01*
X13335000Y-11205000D02*
X13305000Y-11235000D01*
X13535000Y-11525000D02*
X13565000Y-11555000D01*
X13565000Y-11525000D02*
X13535000Y-11555000D01*
X13685000Y-11635000D02*
X13715000Y-11665000D01*
X13715000Y-11635000D02*
X13685000Y-11665000D01*
X13805000Y-10165000D02*
X13835000Y-10195000D01*
X13835000Y-10165000D02*
X13805000Y-10195000D01*
X13825000Y-10945000D02*
X13855000Y-10975000D01*
X13855000Y-10945000D02*
X13825000Y-10975000D01*
X14015000Y-11495000D02*
X14045000Y-11525000D01*
X14045000Y-11495000D02*
X14015000Y-11525000D01*
X14355000Y-11345000D02*
X14385000Y-11375000D01*
X14385000Y-11345000D02*
X14355000Y-11375000D01*
X11622500Y-9100000D02*
G75*
G02*
X11577500Y-9100000I-22500J0D01*
G01*
X11577500Y-9100000D02*
G75*
G02*
X11622500Y-9100000I22500J0D01*
G01*
X11622500Y-9300000D02*
G75*
G02*
X11577500Y-9300000I-22500J0D01*
G01*
X11577500Y-9300000D02*
G75*
G02*
X11622500Y-9300000I22500J0D01*
G01*
X11622500Y-9500000D02*
G75*
G02*
X11577500Y-9500000I-22500J0D01*
G01*
X11577500Y-9500000D02*
G75*
G02*
X11622500Y-9500000I22500J0D01*
G01*
X11622500Y-9700000D02*
G75*
G02*
X11577500Y-9700000I-22500J0D01*
G01*
X11577500Y-9700000D02*
G75*
G02*
X11622500Y-9700000I22500J0D01*
G01*
X11622500Y-9900000D02*
G75*
G02*
X11577500Y-9900000I-22500J0D01*
G01*
X11577500Y-9900000D02*
G75*
G02*
X11622500Y-9900000I22500J0D01*
G01*
X11622500Y-10100000D02*
G75*
G02*
X11577500Y-10100000I-22500J0D01*
G01*
X11577500Y-10100000D02*
G75*
G02*
X11622500Y-10100000I22500J0D01*
G01*
X11622500Y-10300000D02*
G75*
G02*
X11577500Y-10300000I-22500J0D01*
G01*
X11577500Y-10300000D02*
G75*
G02*
X11622500Y-10300000I22500J0D01*
G01*
X11622500Y-10500000D02*
G75*
G02*
X11577500Y-10500000I-22500J0D01*
G01*
X11577500Y-10500000D02*
G75*
G02*
X11622500Y-10500000I22500J0D01*
G01*
X11622500Y-10700000D02*
G75*
G02*
X11577500Y-10700000I-22500J0D01*
G01*
X11577500Y-10700000D02*
G75*
G02*
X11622500Y-10700000I22500J0D01*
G01*
X11622500Y-10900000D02*
G75*
G02*
X11577500Y-10900000I-22500J0D01*
G01*
X11577500Y-10900000D02*
G75*
G02*
X11622500Y-10900000I22500J0D01*
G01*
X11622500Y-11100000D02*
G75*
G02*
X11577500Y-11100000I-22500J0D01*
G01*
X11577500Y-11100000D02*
G75*
G02*
X11622500Y-11100000I22500J0D01*
G01*
X11622500Y-11300000D02*
G75*
G02*
X11577500Y-11300000I-22500J0D01*
G01*
X11577500Y-11300000D02*
G75*
G02*
X11622500Y-11300000I22500J0D01*
G01*
X11622500Y-11500000D02*
G75*
G02*
X11577500Y-11500000I-22500J0D01*
G01*
X11577500Y-11500000D02*
G75*
G02*
X11622500Y-11500000I22500J0D01*
G01*
X11622500Y-11700000D02*
G75*
G02*
X11577500Y-11700000I-22500J0D01*
G01*
X11577500Y-11700000D02*
G75*
G02*
X11622500Y-11700000I22500J0D01*
G01*
X11822500Y-8900000D02*
G75*
G02*
X11777500Y-8900000I-22500J0D01*
G01*
X11777500Y-8900000D02*
G75*
G02*
X11822500Y-8900000I22500J0D01*
G01*
X11822500Y-11700000D02*
G75*
G02*
X11777500Y-11700000I-22500J0D01*
G01*
X11777500Y-11700000D02*
G75*
G02*
X11822500Y-11700000I22500J0D01*
G01*
X11822500Y-11900000D02*
G75*
G02*
X11777500Y-11900000I-22500J0D01*
G01*
X11777500Y-11900000D02*
G75*
G02*
X11822500Y-11900000I22500J0D01*
G01*
X12022500Y-8900000D02*
G75*
G02*
X11977500Y-8900000I-22500J0D01*
G01*
X11977500Y-8900000D02*
G75*
G02*
X12022500Y-8900000I22500J0D01*
G01*
X12022500Y-11700000D02*
G75*
G02*
X11977500Y-11700000I-22500J0D01*
G01*
X11977500Y-11700000D02*
G75*
G02*
X12022500Y-11700000I22500J0D01*
G01*
X12022500Y-11900000D02*
G75*
G02*
X11977500Y-11900000I-22500J0D01*
G01*
X11977500Y-11900000D02*
G75*
G02*
X12022500Y-11900000I22500J0D01*
G01*
X12222500Y-11700000D02*
G75*
G02*
X12177500Y-11700000I-22500J0D01*
G01*
X12177500Y-11700000D02*
G75*
G02*
X12222500Y-11700000I22500J0D01*
G01*
X12222500Y-11900000D02*
G75*
G02*
X12177500Y-11900000I-22500J0D01*
G01*
X12177500Y-11900000D02*
G75*
G02*
X12222500Y-11900000I22500J0D01*
G01*
X12422500Y-9950000D02*
G75*
G02*
X12377500Y-9950000I-22500J0D01*
G01*
X12377500Y-9950000D02*
G75*
G02*
X12422500Y-9950000I22500J0D01*
G01*
X12422500Y-11700000D02*
G75*
G02*
X12377500Y-11700000I-22500J0D01*
G01*
X12377500Y-11700000D02*
G75*
G02*
X12422500Y-11700000I22500J0D01*
G01*
X12422500Y-11900000D02*
G75*
G02*
X12377500Y-11900000I-22500J0D01*
G01*
X12377500Y-11900000D02*
G75*
G02*
X12422500Y-11900000I22500J0D01*
G01*
X12622500Y-8900000D02*
G75*
G02*
X12577500Y-8900000I-22500J0D01*
G01*
X12577500Y-8900000D02*
G75*
G02*
X12622500Y-8900000I22500J0D01*
G01*
X12622500Y-11700000D02*
G75*
G02*
X12577500Y-11700000I-22500J0D01*
G01*
X12577500Y-11700000D02*
G75*
G02*
X12622500Y-11700000I22500J0D01*
G01*
X12622500Y-11900000D02*
G75*
G02*
X12577500Y-11900000I-22500J0D01*
G01*
X12577500Y-11900000D02*
G75*
G02*
X12622500Y-11900000I22500J0D01*
G01*
X12672500Y-9450000D02*
G75*
G02*
X12627500Y-9450000I-22500J0D01*
G01*
X12627500Y-9450000D02*
G75*
G02*
X12672500Y-9450000I22500J0D01*
G01*
X12672500Y-9850000D02*
G75*
G02*
X12627500Y-9850000I-22500J0D01*
G01*
X12627500Y-9850000D02*
G75*
G02*
X12672500Y-9850000I22500J0D01*
G01*
X12822500Y-8900000D02*
G75*
G02*
X12777500Y-8900000I-22500J0D01*
G01*
X12777500Y-8900000D02*
G75*
G02*
X12822500Y-8900000I22500J0D01*
G01*
X12822500Y-9300000D02*
G75*
G02*
X12777500Y-9300000I-22500J0D01*
G01*
X12777500Y-9300000D02*
G75*
G02*
X12822500Y-9300000I22500J0D01*
G01*
X12822500Y-11700000D02*
G75*
G02*
X12777500Y-11700000I-22500J0D01*
G01*
X12777500Y-11700000D02*
G75*
G02*
X12822500Y-11700000I22500J0D01*
G01*
X12822500Y-11900000D02*
G75*
G02*
X12777500Y-11900000I-22500J0D01*
G01*
X12777500Y-11900000D02*
G75*
G02*
X12822500Y-11900000I22500J0D01*
G01*
X13022500Y-8900000D02*
G75*
G02*
X12977500Y-8900000I-22500J0D01*
G01*
X12977500Y-8900000D02*
G75*
G02*
X13022500Y-8900000I22500J0D01*
G01*
X13022500Y-9300000D02*
G75*
G02*
X12977500Y-9300000I-22500J0D01*
G01*
X12977500Y-9300000D02*
G75*
G02*
X13022500Y-9300000I22500J0D01*
G01*
X13022500Y-11700000D02*
G75*
G02*
X12977500Y-11700000I-22500J0D01*
G01*
X12977500Y-11700000D02*
G75*
G02*
X13022500Y-11700000I22500J0D01*
G01*
X13022500Y-11900000D02*
G75*
G02*
X12977500Y-11900000I-22500J0D01*
G01*
X12977500Y-11900000D02*
G75*
G02*
X13022500Y-11900000I22500J0D01*
G01*
X13122500Y-9700000D02*
G75*
G02*
X13077500Y-9700000I-22500J0D01*
G01*
X13077500Y-9700000D02*
G75*
G02*
X13122500Y-9700000I22500J0D01*
G01*
X13222500Y-8900000D02*
G75*
G02*
X13177500Y-8900000I-22500J0D01*
G01*
X13177500Y-8900000D02*
G75*
G02*
X13222500Y-8900000I22500J0D01*
G01*
X13222500Y-11700000D02*
G75*
G02*
X13177500Y-11700000I-22500J0D01*
G01*
X13177500Y-11700000D02*
G75*
G02*
X13222500Y-11700000I22500J0D01*
G01*
X13222500Y-11900000D02*
G75*
G02*
X13177500Y-11900000I-22500J0D01*
G01*
X13177500Y-11900000D02*
G75*
G02*
X13222500Y-11900000I22500J0D01*
G01*
X13422500Y-8900000D02*
G75*
G02*
X13377500Y-8900000I-22500J0D01*
G01*
X13377500Y-8900000D02*
G75*
G02*
X13422500Y-8900000I22500J0D01*
G01*
X13422500Y-11700000D02*
G75*
G02*
X13377500Y-11700000I-22500J0D01*
G01*
X13377500Y-11700000D02*
G75*
G02*
X13422500Y-11700000I22500J0D01*
G01*
X13422500Y-11900000D02*
G75*
G02*
X13377500Y-11900000I-22500J0D01*
G01*
X13377500Y-11900000D02*
G75*
G02*
X13422500Y-11900000I22500J0D01*
G01*
X13622500Y-8900000D02*
G75*
G02*
X13577500Y-8900000I-22500J0D01*
G01*
X13577500Y-8900000D02*
G75*
G02*
X13622500Y-8900000I22500J0D01*
G01*
X13622500Y-11700000D02*
G75*
G02*
X13577500Y-11700000I-22500J0D01*
G01*
X13577500Y-11700000D02*
G75*
G02*
X13622500Y-11700000I22500J0D01*
G01*
X13622500Y-11900000D02*
G75*
G02*
X13577500Y-11900000I-22500J0D01*
G01*
X13577500Y-11900000D02*
G75*
G02*
X13622500Y-11900000I22500J0D01*
G01*
X13822500Y-8900000D02*
G75*
G02*
X13777500Y-8900000I-22500J0D01*
G01*
X13777500Y-8900000D02*
G75*
G02*
X13822500Y-8900000I22500J0D01*
G01*
X13822500Y-11700000D02*
G75*
G02*
X13777500Y-11700000I-22500J0D01*
G01*
X13777500Y-11700000D02*
G75*
G02*
X13822500Y-11700000I22500J0D01*
G01*
X13822500Y-11900000D02*
G75*
G02*
X13777500Y-11900000I-22500J0D01*
G01*
X13777500Y-11900000D02*
G75*
G02*
X13822500Y-11900000I22500J0D01*
G01*
X14022500Y-8900000D02*
G75*
G02*
X13977500Y-8900000I-22500J0D01*
G01*
X13977500Y-8900000D02*
G75*
G02*
X14022500Y-8900000I22500J0D01*
G01*
X14022500Y-9900000D02*
G75*
G02*
X13977500Y-9900000I-22500J0D01*
G01*
X13977500Y-9900000D02*
G75*
G02*
X14022500Y-9900000I22500J0D01*
G01*
X14022500Y-11700000D02*
G75*
G02*
X13977500Y-11700000I-22500J0D01*
G01*
X13977500Y-11700000D02*
G75*
G02*
X14022500Y-11700000I22500J0D01*
G01*
X14022500Y-11900000D02*
G75*
G02*
X13977500Y-11900000I-22500J0D01*
G01*
X13977500Y-11900000D02*
G75*
G02*
X14022500Y-11900000I22500J0D01*
G01*
X14215000Y-9895000D02*
G75*
G02*
X14170000Y-9895000I-22500J0D01*
G01*
X14170000Y-9895000D02*
G75*
G02*
X14215000Y-9895000I22500J0D01*
G01*
X14222500Y-8900000D02*
G75*
G02*
X14177500Y-8900000I-22500J0D01*
G01*
X14177500Y-8900000D02*
G75*
G02*
X14222500Y-8900000I22500J0D01*
G01*
X14222500Y-11700000D02*
G75*
G02*
X14177500Y-11700000I-22500J0D01*
G01*
X14177500Y-11700000D02*
G75*
G02*
X14222500Y-11700000I22500J0D01*
G01*
X14222500Y-11900000D02*
G75*
G02*
X14177500Y-11900000I-22500J0D01*
G01*
X14177500Y-11900000D02*
G75*
G02*
X14222500Y-11900000I22500J0D01*
G01*
X14422500Y-8900000D02*
G75*
G02*
X14377500Y-8900000I-22500J0D01*
G01*
X14377500Y-8900000D02*
G75*
G02*
X14422500Y-8900000I22500J0D01*
G01*
X14422500Y-9900000D02*
G75*
G02*
X14377500Y-9900000I-22500J0D01*
G01*
X14377500Y-9900000D02*
G75*
G02*
X14422500Y-9900000I22500J0D01*
G01*
X14422500Y-11700000D02*
G75*
G02*
X14377500Y-11700000I-22500J0D01*
G01*
X14377500Y-11700000D02*
G75*
G02*
X14422500Y-11700000I22500J0D01*
G01*
X14422500Y-11900000D02*
G75*
G02*
X14377500Y-11900000I-22500J0D01*
G01*
X14377500Y-11900000D02*
G75*
G02*
X14422500Y-11900000I22500J0D01*
G01*
X14622500Y-8900000D02*
G75*
G02*
X14577500Y-8900000I-22500J0D01*
G01*
X14577500Y-8900000D02*
G75*
G02*
X14622500Y-8900000I22500J0D01*
G01*
X14622500Y-9900000D02*
G75*
G02*
X14577500Y-9900000I-22500J0D01*
G01*
X14577500Y-9900000D02*
G75*
G02*
X14622500Y-9900000I22500J0D01*
G01*
X14622500Y-10100000D02*
G75*
G02*
X14577500Y-10100000I-22500J0D01*
G01*
X14577500Y-10100000D02*
G75*
G02*
X14622500Y-10100000I22500J0D01*
G01*
X14622500Y-10300000D02*
G75*
G02*
X14577500Y-10300000I-22500J0D01*
G01*
X14577500Y-10300000D02*
G75*
G02*
X14622500Y-10300000I22500J0D01*
G01*
X14622500Y-10700000D02*
G75*
G02*
X14577500Y-10700000I-22500J0D01*
G01*
X14577500Y-10700000D02*
G75*
G02*
X14622500Y-10700000I22500J0D01*
G01*
X14622500Y-10900000D02*
G75*
G02*
X14577500Y-10900000I-22500J0D01*
G01*
X14577500Y-10900000D02*
G75*
G02*
X14622500Y-10900000I22500J0D01*
G01*
X14622500Y-11300000D02*
G75*
G02*
X14577500Y-11300000I-22500J0D01*
G01*
X14577500Y-11300000D02*
G75*
G02*
X14622500Y-11300000I22500J0D01*
G01*
X14622500Y-11498635D02*
G75*
G02*
X14577500Y-11498635I-22500J0D01*
G01*
X14577500Y-11498635D02*
G75*
G02*
X14622500Y-11498635I22500J0D01*
G01*
X14622500Y-11700000D02*
G75*
G02*
X14577500Y-11700000I-22500J0D01*
G01*
X14577500Y-11700000D02*
G75*
G02*
X14622500Y-11700000I22500J0D01*
G01*
X14622500Y-11900000D02*
G75*
G02*
X14577500Y-11900000I-22500J0D01*
G01*
X14577500Y-11900000D02*
G75*
G02*
X14622500Y-11900000I22500J0D01*
G01*
X14822500Y-8897414D02*
G75*
G02*
X14777500Y-8897414I-22500J0D01*
G01*
X14777500Y-8897414D02*
G75*
G02*
X14822500Y-8897414I22500J0D01*
G01*
X14822500Y-11700000D02*
G75*
G02*
X14777500Y-11700000I-22500J0D01*
G01*
X14777500Y-11700000D02*
G75*
G02*
X14822500Y-11700000I22500J0D01*
G01*
X14822500Y-11900000D02*
G75*
G02*
X14777500Y-11900000I-22500J0D01*
G01*
X14777500Y-11900000D02*
G75*
G02*
X14822500Y-11900000I22500J0D01*
G01*
X15022500Y-8900000D02*
G75*
G02*
X14977500Y-8900000I-22500J0D01*
G01*
X14977500Y-8900000D02*
G75*
G02*
X15022500Y-8900000I22500J0D01*
G01*
X15022500Y-11700000D02*
G75*
G02*
X14977500Y-11700000I-22500J0D01*
G01*
X14977500Y-11700000D02*
G75*
G02*
X15022500Y-11700000I22500J0D01*
G01*
X15022500Y-11900000D02*
G75*
G02*
X14977500Y-11900000I-22500J0D01*
G01*
X14977500Y-11900000D02*
G75*
G02*
X15022500Y-11900000I22500J0D01*
G01*
X15222500Y-8900000D02*
G75*
G02*
X15177500Y-8900000I-22500J0D01*
G01*
X15177500Y-8900000D02*
G75*
G02*
X15222500Y-8900000I22500J0D01*
G01*
X15222500Y-11700000D02*
G75*
G02*
X15177500Y-11700000I-22500J0D01*
G01*
X15177500Y-11700000D02*
G75*
G02*
X15222500Y-11700000I22500J0D01*
G01*
X15222500Y-11900000D02*
G75*
G02*
X15177500Y-11900000I-22500J0D01*
G01*
X15177500Y-11900000D02*
G75*
G02*
X15222500Y-11900000I22500J0D01*
G01*
X15422500Y-8900000D02*
G75*
G02*
X15377500Y-8900000I-22500J0D01*
G01*
X15377500Y-8900000D02*
G75*
G02*
X15422500Y-8900000I22500J0D01*
G01*
X15422500Y-11500000D02*
G75*
G02*
X15377500Y-11500000I-22500J0D01*
G01*
X15377500Y-11500000D02*
G75*
G02*
X15422500Y-11500000I22500J0D01*
G01*
X15422500Y-11700000D02*
G75*
G02*
X15377500Y-11700000I-22500J0D01*
G01*
X15377500Y-11700000D02*
G75*
G02*
X15422500Y-11700000I22500J0D01*
G01*
X15422500Y-11900000D02*
G75*
G02*
X15377500Y-11900000I-22500J0D01*
G01*
X15377500Y-11900000D02*
G75*
G02*
X15422500Y-11900000I22500J0D01*
G01*
X15622500Y-8900000D02*
G75*
G02*
X15577500Y-8900000I-22500J0D01*
G01*
X15577500Y-8900000D02*
G75*
G02*
X15622500Y-8900000I22500J0D01*
G01*
X15622500Y-11100000D02*
G75*
G02*
X15577500Y-11100000I-22500J0D01*
G01*
X15577500Y-11100000D02*
G75*
G02*
X15622500Y-11100000I22500J0D01*
G01*
X15622500Y-11300000D02*
G75*
G02*
X15577500Y-11300000I-22500J0D01*
G01*
X15577500Y-11300000D02*
G75*
G02*
X15622500Y-11300000I22500J0D01*
G01*
X15622500Y-11500000D02*
G75*
G02*
X15577500Y-11500000I-22500J0D01*
G01*
X15577500Y-11500000D02*
G75*
G02*
X15622500Y-11500000I22500J0D01*
G01*
X15622500Y-11700000D02*
G75*
G02*
X15577500Y-11700000I-22500J0D01*
G01*
X15577500Y-11700000D02*
G75*
G02*
X15622500Y-11700000I22500J0D01*
G01*
X15622500Y-11900000D02*
G75*
G02*
X15577500Y-11900000I-22500J0D01*
G01*
X15577500Y-11900000D02*
G75*
G02*
X15622500Y-11900000I22500J0D01*
G01*
X15822500Y-8900000D02*
G75*
G02*
X15777500Y-8900000I-22500J0D01*
G01*
X15777500Y-8900000D02*
G75*
G02*
X15822500Y-8900000I22500J0D01*
G01*
X15822500Y-11300000D02*
G75*
G02*
X15777500Y-11300000I-22500J0D01*
G01*
X15777500Y-11300000D02*
G75*
G02*
X15822500Y-11300000I22500J0D01*
G01*
X15822500Y-11900000D02*
G75*
G02*
X15777500Y-11900000I-22500J0D01*
G01*
X15777500Y-11900000D02*
G75*
G02*
X15822500Y-11900000I22500J0D01*
G01*
X16022500Y-8900000D02*
G75*
G02*
X15977500Y-8900000I-22500J0D01*
G01*
X15977500Y-8900000D02*
G75*
G02*
X16022500Y-8900000I22500J0D01*
G01*
X16022500Y-9100000D02*
G75*
G02*
X15977500Y-9100000I-22500J0D01*
G01*
X15977500Y-9100000D02*
G75*
G02*
X16022500Y-9100000I22500J0D01*
G01*
X16022500Y-9300000D02*
G75*
G02*
X15977500Y-9300000I-22500J0D01*
G01*
X15977500Y-9300000D02*
G75*
G02*
X16022500Y-9300000I22500J0D01*
G01*
X16022500Y-9500000D02*
G75*
G02*
X15977500Y-9500000I-22500J0D01*
G01*
X15977500Y-9500000D02*
G75*
G02*
X16022500Y-9500000I22500J0D01*
G01*
X16022500Y-9700000D02*
G75*
G02*
X15977500Y-9700000I-22500J0D01*
G01*
X15977500Y-9700000D02*
G75*
G02*
X16022500Y-9700000I22500J0D01*
G01*
X16022500Y-11700000D02*
G75*
G02*
X15977500Y-11700000I-22500J0D01*
G01*
X15977500Y-11700000D02*
G75*
G02*
X16022500Y-11700000I22500J0D01*
G01*
X16022500Y-11900000D02*
G75*
G02*
X15977500Y-11900000I-22500J0D01*
G01*
X15977500Y-11900000D02*
G75*
G02*
X16022500Y-11900000I22500J0D01*
G01*
X16222500Y-9100000D02*
G75*
G02*
X16177500Y-9100000I-22500J0D01*
G01*
X16177500Y-9100000D02*
G75*
G02*
X16222500Y-9100000I22500J0D01*
G01*
X16222500Y-9300000D02*
G75*
G02*
X16177500Y-9300000I-22500J0D01*
G01*
X16177500Y-9300000D02*
G75*
G02*
X16222500Y-9300000I22500J0D01*
G01*
X16222500Y-9500000D02*
G75*
G02*
X16177500Y-9500000I-22500J0D01*
G01*
X16177500Y-9500000D02*
G75*
G02*
X16222500Y-9500000I22500J0D01*
G01*
X16222500Y-9700000D02*
G75*
G02*
X16177500Y-9700000I-22500J0D01*
G01*
X16177500Y-9700000D02*
G75*
G02*
X16222500Y-9700000I22500J0D01*
G01*
X16222500Y-11300000D02*
G75*
G02*
X16177500Y-11300000I-22500J0D01*
G01*
X16177500Y-11300000D02*
G75*
G02*
X16222500Y-11300000I22500J0D01*
G01*
X16222500Y-11500000D02*
G75*
G02*
X16177500Y-11500000I-22500J0D01*
G01*
X16177500Y-11500000D02*
G75*
G02*
X16222500Y-11500000I22500J0D01*
G01*
X16222500Y-11700000D02*
G75*
G02*
X16177500Y-11700000I-22500J0D01*
G01*
X16177500Y-11700000D02*
G75*
G02*
X16222500Y-11700000I22500J0D01*
G01*
X12030000Y-10115000D02*
X12030000Y-10215000D01*
X11980000Y-10165000D02*
X12080000Y-10165000D01*
X12030000Y-10369000D02*
X12030000Y-10469000D01*
X11980000Y-10419000D02*
X12080000Y-10419000D01*
X12030000Y-10623000D02*
X12030000Y-10723000D01*
X11980000Y-10673000D02*
X12080000Y-10673000D01*
X12030000Y-10877000D02*
X12030000Y-10977000D01*
X11980000Y-10927000D02*
X12080000Y-10927000D01*
X12030000Y-11131000D02*
X12030000Y-11231000D01*
X11980000Y-11181000D02*
X12080000Y-11181000D01*
X12030000Y-11385000D02*
X12030000Y-11485000D01*
X11980000Y-11435000D02*
X12080000Y-11435000D01*
X12800000Y-11350000D02*
X12800000Y-11450000D01*
X12750000Y-11400000D02*
X12850000Y-11400000D01*
X13250000Y-9300000D02*
X13250000Y-9400000D01*
X13200000Y-9350000D02*
X13300000Y-9350000D01*
X13732413Y-9292120D02*
X13732413Y-9392120D01*
X13682413Y-9342120D02*
X13782413Y-9342120D01*
X15000000Y-11400000D02*
X15000000Y-11500000D01*
X14950000Y-11450000D02*
X15050000Y-11450000D01*
D13*
X16077782Y-10577783D02*
X16077782Y-10422218D01*
X15922217Y-10422218D01*
X15922217Y-10577783D01*
X16077782Y-10577783D01*
X16077782Y-11177783D02*
X16077782Y-11022218D01*
X15922217Y-11022218D01*
X15922217Y-11177783D01*
X16077782Y-11177783D01*
D14*
X14990000Y-9395000D02*
X15125000Y-9260000D01*
X14990000Y-9125000D01*
X14855000Y-9260000D01*
X14990000Y-9395000D01*
X15490000Y-9395000D02*
X15625000Y-9260000D01*
X15490000Y-9125000D01*
X15355000Y-9260000D01*
X15490000Y-9395000D01*
D11*
X11758277Y-12313984D02*
X11758277Y-12113984D01*
X11758277Y-12113984D02*
X11805896Y-12113984D01*
X11805896Y-12113984D02*
X11834467Y-12123508D01*
X11834467Y-12123508D02*
X11853515Y-12142555D01*
X11853515Y-12142555D02*
X11863039Y-12161603D01*
X11863039Y-12161603D02*
X11872562Y-12199698D01*
X11872562Y-12199698D02*
X11872562Y-12228269D01*
X11872562Y-12228269D02*
X11863039Y-12266365D01*
X11863039Y-12266365D02*
X11853515Y-12285412D01*
X11853515Y-12285412D02*
X11834467Y-12304460D01*
X11834467Y-12304460D02*
X11805896Y-12313984D01*
X11805896Y-12313984D02*
X11758277Y-12313984D01*
X11958277Y-12313984D02*
X11958277Y-12180650D01*
X11958277Y-12218746D02*
X11967801Y-12199698D01*
X11967801Y-12199698D02*
X11977324Y-12190174D01*
X11977324Y-12190174D02*
X11996372Y-12180650D01*
X11996372Y-12180650D02*
X12015420Y-12180650D01*
X12082086Y-12313984D02*
X12082086Y-12180650D01*
X12082086Y-12113984D02*
X12072562Y-12123508D01*
X12072562Y-12123508D02*
X12082086Y-12133031D01*
X12082086Y-12133031D02*
X12091610Y-12123508D01*
X12091610Y-12123508D02*
X12082086Y-12113984D01*
X12082086Y-12113984D02*
X12082086Y-12133031D01*
X12205896Y-12313984D02*
X12186848Y-12304460D01*
X12186848Y-12304460D02*
X12177324Y-12285412D01*
X12177324Y-12285412D02*
X12177324Y-12113984D01*
X12310658Y-12313984D02*
X12291610Y-12304460D01*
X12291610Y-12304460D02*
X12282086Y-12285412D01*
X12282086Y-12285412D02*
X12282086Y-12113984D01*
X12539229Y-12313984D02*
X12539229Y-12113984D01*
X12539229Y-12113984D02*
X12605896Y-12256841D01*
X12605896Y-12256841D02*
X12672562Y-12113984D01*
X12672562Y-12113984D02*
X12672562Y-12313984D01*
X12853515Y-12313984D02*
X12853515Y-12209222D01*
X12853515Y-12209222D02*
X12843991Y-12190174D01*
X12843991Y-12190174D02*
X12824943Y-12180650D01*
X12824943Y-12180650D02*
X12786848Y-12180650D01*
X12786848Y-12180650D02*
X12767801Y-12190174D01*
X12853515Y-12304460D02*
X12834467Y-12313984D01*
X12834467Y-12313984D02*
X12786848Y-12313984D01*
X12786848Y-12313984D02*
X12767801Y-12304460D01*
X12767801Y-12304460D02*
X12758277Y-12285412D01*
X12758277Y-12285412D02*
X12758277Y-12266365D01*
X12758277Y-12266365D02*
X12767801Y-12247317D01*
X12767801Y-12247317D02*
X12786848Y-12237793D01*
X12786848Y-12237793D02*
X12834467Y-12237793D01*
X12834467Y-12237793D02*
X12853515Y-12228269D01*
X12948753Y-12180650D02*
X12948753Y-12380650D01*
X12948753Y-12190174D02*
X12967801Y-12180650D01*
X12967801Y-12180650D02*
X13005896Y-12180650D01*
X13005896Y-12180650D02*
X13024943Y-12190174D01*
X13024943Y-12190174D02*
X13034467Y-12199698D01*
X13034467Y-12199698D02*
X13043991Y-12218746D01*
X13043991Y-12218746D02*
X13043991Y-12275888D01*
X13043991Y-12275888D02*
X13034467Y-12294936D01*
X13034467Y-12294936D02*
X13024943Y-12304460D01*
X13024943Y-12304460D02*
X13005896Y-12313984D01*
X13005896Y-12313984D02*
X12967801Y-12313984D01*
X12967801Y-12313984D02*
X12948753Y-12304460D01*
X13129705Y-12294936D02*
X13139229Y-12304460D01*
X13139229Y-12304460D02*
X13129705Y-12313984D01*
X13129705Y-12313984D02*
X13120182Y-12304460D01*
X13120182Y-12304460D02*
X13129705Y-12294936D01*
X13129705Y-12294936D02*
X13129705Y-12313984D01*
X13129705Y-12190174D02*
X13139229Y-12199698D01*
X13139229Y-12199698D02*
X13129705Y-12209222D01*
X13129705Y-12209222D02*
X13120182Y-12199698D01*
X13120182Y-12199698D02*
X13129705Y-12190174D01*
X13129705Y-12190174D02*
X13129705Y-12209222D01*
D12*
X11467500Y-12627500D02*
X11497500Y-12657500D01*
X11497500Y-12627500D02*
X11467500Y-12657500D01*
D11*
X11796372Y-12533984D02*
X11815420Y-12533984D01*
X11815420Y-12533984D02*
X11834467Y-12543508D01*
X11834467Y-12543508D02*
X11843991Y-12553031D01*
X11843991Y-12553031D02*
X11853515Y-12572079D01*
X11853515Y-12572079D02*
X11863039Y-12610174D01*
X11863039Y-12610174D02*
X11863039Y-12657793D01*
X11863039Y-12657793D02*
X11853515Y-12695888D01*
X11853515Y-12695888D02*
X11843991Y-12714936D01*
X11843991Y-12714936D02*
X11834467Y-12724460D01*
X11834467Y-12724460D02*
X11815420Y-12733984D01*
X11815420Y-12733984D02*
X11796372Y-12733984D01*
X11796372Y-12733984D02*
X11777324Y-12724460D01*
X11777324Y-12724460D02*
X11767801Y-12714936D01*
X11767801Y-12714936D02*
X11758277Y-12695888D01*
X11758277Y-12695888D02*
X11748753Y-12657793D01*
X11748753Y-12657793D02*
X11748753Y-12610174D01*
X11748753Y-12610174D02*
X11758277Y-12572079D01*
X11758277Y-12572079D02*
X11767801Y-12553031D01*
X11767801Y-12553031D02*
X11777324Y-12543508D01*
X11777324Y-12543508D02*
X11796372Y-12533984D01*
X11948753Y-12714936D02*
X11958277Y-12724460D01*
X11958277Y-12724460D02*
X11948753Y-12733984D01*
X11948753Y-12733984D02*
X11939229Y-12724460D01*
X11939229Y-12724460D02*
X11948753Y-12714936D01*
X11948753Y-12714936D02*
X11948753Y-12733984D01*
X12024943Y-12533984D02*
X12148753Y-12533984D01*
X12148753Y-12533984D02*
X12082086Y-12610174D01*
X12082086Y-12610174D02*
X12110658Y-12610174D01*
X12110658Y-12610174D02*
X12129705Y-12619698D01*
X12129705Y-12619698D02*
X12139229Y-12629222D01*
X12139229Y-12629222D02*
X12148753Y-12648269D01*
X12148753Y-12648269D02*
X12148753Y-12695888D01*
X12148753Y-12695888D02*
X12139229Y-12714936D01*
X12139229Y-12714936D02*
X12129705Y-12724460D01*
X12129705Y-12724460D02*
X12110658Y-12733984D01*
X12110658Y-12733984D02*
X12053515Y-12733984D01*
X12053515Y-12733984D02*
X12034467Y-12724460D01*
X12034467Y-12724460D02*
X12024943Y-12714936D01*
X12272562Y-12533984D02*
X12291610Y-12533984D01*
X12291610Y-12533984D02*
X12310658Y-12543508D01*
X12310658Y-12543508D02*
X12320182Y-12553031D01*
X12320182Y-12553031D02*
X12329705Y-12572079D01*
X12329705Y-12572079D02*
X12339229Y-12610174D01*
X12339229Y-12610174D02*
X12339229Y-12657793D01*
X12339229Y-12657793D02*
X12329705Y-12695888D01*
X12329705Y-12695888D02*
X12320182Y-12714936D01*
X12320182Y-12714936D02*
X12310658Y-12724460D01*
X12310658Y-12724460D02*
X12291610Y-12733984D01*
X12291610Y-12733984D02*
X12272562Y-12733984D01*
X12272562Y-12733984D02*
X12253515Y-12724460D01*
X12253515Y-12724460D02*
X12243991Y-12714936D01*
X12243991Y-12714936D02*
X12234467Y-12695888D01*
X12234467Y-12695888D02*
X12224943Y-12657793D01*
X12224943Y-12657793D02*
X12224943Y-12610174D01*
X12224943Y-12610174D02*
X12234467Y-12572079D01*
X12234467Y-12572079D02*
X12243991Y-12553031D01*
X12243991Y-12553031D02*
X12253515Y-12543508D01*
X12253515Y-12543508D02*
X12272562Y-12533984D01*
X12463039Y-12533984D02*
X12482086Y-12533984D01*
X12482086Y-12533984D02*
X12501134Y-12543508D01*
X12501134Y-12543508D02*
X12510658Y-12553031D01*
X12510658Y-12553031D02*
X12520182Y-12572079D01*
X12520182Y-12572079D02*
X12529705Y-12610174D01*
X12529705Y-12610174D02*
X12529705Y-12657793D01*
X12529705Y-12657793D02*
X12520182Y-12695888D01*
X12520182Y-12695888D02*
X12510658Y-12714936D01*
X12510658Y-12714936D02*
X12501134Y-12724460D01*
X12501134Y-12724460D02*
X12482086Y-12733984D01*
X12482086Y-12733984D02*
X12463039Y-12733984D01*
X12463039Y-12733984D02*
X12443991Y-12724460D01*
X12443991Y-12724460D02*
X12434467Y-12714936D01*
X12434467Y-12714936D02*
X12424943Y-12695888D01*
X12424943Y-12695888D02*
X12415420Y-12657793D01*
X12415420Y-12657793D02*
X12415420Y-12610174D01*
X12415420Y-12610174D02*
X12424943Y-12572079D01*
X12424943Y-12572079D02*
X12434467Y-12553031D01*
X12434467Y-12553031D02*
X12443991Y-12543508D01*
X12443991Y-12543508D02*
X12463039Y-12533984D01*
X12615420Y-12733984D02*
X12615420Y-12600650D01*
X12615420Y-12619698D02*
X12624943Y-12610174D01*
X12624943Y-12610174D02*
X12643991Y-12600650D01*
X12643991Y-12600650D02*
X12672563Y-12600650D01*
X12672563Y-12600650D02*
X12691610Y-12610174D01*
X12691610Y-12610174D02*
X12701134Y-12629222D01*
X12701134Y-12629222D02*
X12701134Y-12733984D01*
X12701134Y-12629222D02*
X12710658Y-12610174D01*
X12710658Y-12610174D02*
X12729705Y-12600650D01*
X12729705Y-12600650D02*
X12758277Y-12600650D01*
X12758277Y-12600650D02*
X12777324Y-12610174D01*
X12777324Y-12610174D02*
X12786848Y-12629222D01*
X12786848Y-12629222D02*
X12786848Y-12733984D01*
X12882086Y-12733984D02*
X12882086Y-12600650D01*
X12882086Y-12619698D02*
X12891610Y-12610174D01*
X12891610Y-12610174D02*
X12910658Y-12600650D01*
X12910658Y-12600650D02*
X12939229Y-12600650D01*
X12939229Y-12600650D02*
X12958277Y-12610174D01*
X12958277Y-12610174D02*
X12967801Y-12629222D01*
X12967801Y-12629222D02*
X12967801Y-12733984D01*
X12967801Y-12629222D02*
X12977324Y-12610174D01*
X12977324Y-12610174D02*
X12996372Y-12600650D01*
X12996372Y-12600650D02*
X13024943Y-12600650D01*
X13024943Y-12600650D02*
X13043991Y-12610174D01*
X13043991Y-12610174D02*
X13053515Y-12629222D01*
X13053515Y-12629222D02*
X13053515Y-12733984D01*
X13443991Y-12524460D02*
X13272563Y-12781603D01*
X13701134Y-12533984D02*
X13720182Y-12533984D01*
X13720182Y-12533984D02*
X13739229Y-12543508D01*
X13739229Y-12543508D02*
X13748753Y-12553031D01*
X13748753Y-12553031D02*
X13758277Y-12572079D01*
X13758277Y-12572079D02*
X13767801Y-12610174D01*
X13767801Y-12610174D02*
X13767801Y-12657793D01*
X13767801Y-12657793D02*
X13758277Y-12695888D01*
X13758277Y-12695888D02*
X13748753Y-12714936D01*
X13748753Y-12714936D02*
X13739229Y-12724460D01*
X13739229Y-12724460D02*
X13720182Y-12733984D01*
X13720182Y-12733984D02*
X13701134Y-12733984D01*
X13701134Y-12733984D02*
X13682086Y-12724460D01*
X13682086Y-12724460D02*
X13672563Y-12714936D01*
X13672563Y-12714936D02*
X13663039Y-12695888D01*
X13663039Y-12695888D02*
X13653515Y-12657793D01*
X13653515Y-12657793D02*
X13653515Y-12610174D01*
X13653515Y-12610174D02*
X13663039Y-12572079D01*
X13663039Y-12572079D02*
X13672563Y-12553031D01*
X13672563Y-12553031D02*
X13682086Y-12543508D01*
X13682086Y-12543508D02*
X13701134Y-12533984D01*
X13853515Y-12714936D02*
X13863039Y-12724460D01*
X13863039Y-12724460D02*
X13853515Y-12733984D01*
X13853515Y-12733984D02*
X13843991Y-12724460D01*
X13843991Y-12724460D02*
X13853515Y-12714936D01*
X13853515Y-12714936D02*
X13853515Y-12733984D01*
X13986848Y-12533984D02*
X14005896Y-12533984D01*
X14005896Y-12533984D02*
X14024944Y-12543508D01*
X14024944Y-12543508D02*
X14034467Y-12553031D01*
X14034467Y-12553031D02*
X14043991Y-12572079D01*
X14043991Y-12572079D02*
X14053515Y-12610174D01*
X14053515Y-12610174D02*
X14053515Y-12657793D01*
X14053515Y-12657793D02*
X14043991Y-12695888D01*
X14043991Y-12695888D02*
X14034467Y-12714936D01*
X14034467Y-12714936D02*
X14024944Y-12724460D01*
X14024944Y-12724460D02*
X14005896Y-12733984D01*
X14005896Y-12733984D02*
X13986848Y-12733984D01*
X13986848Y-12733984D02*
X13967801Y-12724460D01*
X13967801Y-12724460D02*
X13958277Y-12714936D01*
X13958277Y-12714936D02*
X13948753Y-12695888D01*
X13948753Y-12695888D02*
X13939229Y-12657793D01*
X13939229Y-12657793D02*
X13939229Y-12610174D01*
X13939229Y-12610174D02*
X13948753Y-12572079D01*
X13948753Y-12572079D02*
X13958277Y-12553031D01*
X13958277Y-12553031D02*
X13967801Y-12543508D01*
X13967801Y-12543508D02*
X13986848Y-12533984D01*
X14243991Y-12733984D02*
X14129706Y-12733984D01*
X14186848Y-12733984D02*
X14186848Y-12533984D01*
X14186848Y-12533984D02*
X14167801Y-12562555D01*
X14167801Y-12562555D02*
X14148753Y-12581603D01*
X14148753Y-12581603D02*
X14129706Y-12591127D01*
X14434467Y-12733984D02*
X14320182Y-12733984D01*
X14377325Y-12733984D02*
X14377325Y-12533984D01*
X14377325Y-12533984D02*
X14358277Y-12562555D01*
X14358277Y-12562555D02*
X14339229Y-12581603D01*
X14339229Y-12581603D02*
X14320182Y-12591127D01*
X14548753Y-12619698D02*
X14529706Y-12610174D01*
X14529706Y-12610174D02*
X14520182Y-12600650D01*
X14520182Y-12600650D02*
X14510658Y-12581603D01*
X14510658Y-12581603D02*
X14510658Y-12572079D01*
X14510658Y-12572079D02*
X14520182Y-12553031D01*
X14520182Y-12553031D02*
X14529706Y-12543508D01*
X14529706Y-12543508D02*
X14548753Y-12533984D01*
X14548753Y-12533984D02*
X14586848Y-12533984D01*
X14586848Y-12533984D02*
X14605896Y-12543508D01*
X14605896Y-12543508D02*
X14615420Y-12553031D01*
X14615420Y-12553031D02*
X14624944Y-12572079D01*
X14624944Y-12572079D02*
X14624944Y-12581603D01*
X14624944Y-12581603D02*
X14615420Y-12600650D01*
X14615420Y-12600650D02*
X14605896Y-12610174D01*
X14605896Y-12610174D02*
X14586848Y-12619698D01*
X14586848Y-12619698D02*
X14548753Y-12619698D01*
X14548753Y-12619698D02*
X14529706Y-12629222D01*
X14529706Y-12629222D02*
X14520182Y-12638746D01*
X14520182Y-12638746D02*
X14510658Y-12657793D01*
X14510658Y-12657793D02*
X14510658Y-12695888D01*
X14510658Y-12695888D02*
X14520182Y-12714936D01*
X14520182Y-12714936D02*
X14529706Y-12724460D01*
X14529706Y-12724460D02*
X14548753Y-12733984D01*
X14548753Y-12733984D02*
X14586848Y-12733984D01*
X14586848Y-12733984D02*
X14605896Y-12724460D01*
X14605896Y-12724460D02*
X14615420Y-12714936D01*
X14615420Y-12714936D02*
X14624944Y-12695888D01*
X14624944Y-12695888D02*
X14624944Y-12657793D01*
X14624944Y-12657793D02*
X14615420Y-12638746D01*
X14615420Y-12638746D02*
X14605896Y-12629222D01*
X14605896Y-12629222D02*
X14586848Y-12619698D01*
X14701134Y-12533984D02*
X14701134Y-12572079D01*
X14777325Y-12533984D02*
X14777325Y-12572079D01*
X15072563Y-12810174D02*
X15063039Y-12800650D01*
X15063039Y-12800650D02*
X15043991Y-12772079D01*
X15043991Y-12772079D02*
X15034468Y-12753031D01*
X15034468Y-12753031D02*
X15024944Y-12724460D01*
X15024944Y-12724460D02*
X15015420Y-12676841D01*
X15015420Y-12676841D02*
X15015420Y-12638746D01*
X15015420Y-12638746D02*
X15024944Y-12591127D01*
X15024944Y-12591127D02*
X15034468Y-12562555D01*
X15034468Y-12562555D02*
X15043991Y-12543508D01*
X15043991Y-12543508D02*
X15063039Y-12514936D01*
X15063039Y-12514936D02*
X15072563Y-12505412D01*
X15129706Y-12533984D02*
X15253515Y-12533984D01*
X15253515Y-12533984D02*
X15186848Y-12610174D01*
X15186848Y-12610174D02*
X15215420Y-12610174D01*
X15215420Y-12610174D02*
X15234468Y-12619698D01*
X15234468Y-12619698D02*
X15243991Y-12629222D01*
X15243991Y-12629222D02*
X15253515Y-12648269D01*
X15253515Y-12648269D02*
X15253515Y-12695888D01*
X15253515Y-12695888D02*
X15243991Y-12714936D01*
X15243991Y-12714936D02*
X15234468Y-12724460D01*
X15234468Y-12724460D02*
X15215420Y-12733984D01*
X15215420Y-12733984D02*
X15158277Y-12733984D01*
X15158277Y-12733984D02*
X15139229Y-12724460D01*
X15139229Y-12724460D02*
X15129706Y-12714936D01*
X15320182Y-12533984D02*
X15443991Y-12533984D01*
X15443991Y-12533984D02*
X15377325Y-12610174D01*
X15377325Y-12610174D02*
X15405896Y-12610174D01*
X15405896Y-12610174D02*
X15424944Y-12619698D01*
X15424944Y-12619698D02*
X15434468Y-12629222D01*
X15434468Y-12629222D02*
X15443991Y-12648269D01*
X15443991Y-12648269D02*
X15443991Y-12695888D01*
X15443991Y-12695888D02*
X15434468Y-12714936D01*
X15434468Y-12714936D02*
X15424944Y-12724460D01*
X15424944Y-12724460D02*
X15405896Y-12733984D01*
X15405896Y-12733984D02*
X15348753Y-12733984D01*
X15348753Y-12733984D02*
X15329706Y-12724460D01*
X15329706Y-12724460D02*
X15320182Y-12714936D01*
X15682087Y-12733984D02*
X15682087Y-12533984D01*
X15767801Y-12733984D02*
X15767801Y-12629222D01*
X15767801Y-12629222D02*
X15758277Y-12610174D01*
X15758277Y-12610174D02*
X15739230Y-12600650D01*
X15739230Y-12600650D02*
X15710658Y-12600650D01*
X15710658Y-12600650D02*
X15691610Y-12610174D01*
X15691610Y-12610174D02*
X15682087Y-12619698D01*
X15891610Y-12733984D02*
X15872563Y-12724460D01*
X15872563Y-12724460D02*
X15863039Y-12714936D01*
X15863039Y-12714936D02*
X15853515Y-12695888D01*
X15853515Y-12695888D02*
X15853515Y-12638746D01*
X15853515Y-12638746D02*
X15863039Y-12619698D01*
X15863039Y-12619698D02*
X15872563Y-12610174D01*
X15872563Y-12610174D02*
X15891610Y-12600650D01*
X15891610Y-12600650D02*
X15920182Y-12600650D01*
X15920182Y-12600650D02*
X15939230Y-12610174D01*
X15939230Y-12610174D02*
X15948753Y-12619698D01*
X15948753Y-12619698D02*
X15958277Y-12638746D01*
X15958277Y-12638746D02*
X15958277Y-12695888D01*
X15958277Y-12695888D02*
X15948753Y-12714936D01*
X15948753Y-12714936D02*
X15939230Y-12724460D01*
X15939230Y-12724460D02*
X15920182Y-12733984D01*
X15920182Y-12733984D02*
X15891610Y-12733984D01*
X16072563Y-12733984D02*
X16053515Y-12724460D01*
X16053515Y-12724460D02*
X16043991Y-12705412D01*
X16043991Y-12705412D02*
X16043991Y-12533984D01*
X16224944Y-12724460D02*
X16205896Y-12733984D01*
X16205896Y-12733984D02*
X16167801Y-12733984D01*
X16167801Y-12733984D02*
X16148753Y-12724460D01*
X16148753Y-12724460D02*
X16139230Y-12705412D01*
X16139230Y-12705412D02*
X16139230Y-12629222D01*
X16139230Y-12629222D02*
X16148753Y-12610174D01*
X16148753Y-12610174D02*
X16167801Y-12600650D01*
X16167801Y-12600650D02*
X16205896Y-12600650D01*
X16205896Y-12600650D02*
X16224944Y-12610174D01*
X16224944Y-12610174D02*
X16234468Y-12629222D01*
X16234468Y-12629222D02*
X16234468Y-12648269D01*
X16234468Y-12648269D02*
X16139230Y-12667317D01*
X16310658Y-12724460D02*
X16329706Y-12733984D01*
X16329706Y-12733984D02*
X16367801Y-12733984D01*
X16367801Y-12733984D02*
X16386849Y-12724460D01*
X16386849Y-12724460D02*
X16396372Y-12705412D01*
X16396372Y-12705412D02*
X16396372Y-12695888D01*
X16396372Y-12695888D02*
X16386849Y-12676841D01*
X16386849Y-12676841D02*
X16367801Y-12667317D01*
X16367801Y-12667317D02*
X16339230Y-12667317D01*
X16339230Y-12667317D02*
X16320182Y-12657793D01*
X16320182Y-12657793D02*
X16310658Y-12638746D01*
X16310658Y-12638746D02*
X16310658Y-12629222D01*
X16310658Y-12629222D02*
X16320182Y-12610174D01*
X16320182Y-12610174D02*
X16339230Y-12600650D01*
X16339230Y-12600650D02*
X16367801Y-12600650D01*
X16367801Y-12600650D02*
X16386849Y-12610174D01*
X16463039Y-12810174D02*
X16472563Y-12800650D01*
X16472563Y-12800650D02*
X16491611Y-12772079D01*
X16491611Y-12772079D02*
X16501134Y-12753031D01*
X16501134Y-12753031D02*
X16510658Y-12724460D01*
X16510658Y-12724460D02*
X16520182Y-12676841D01*
X16520182Y-12676841D02*
X16520182Y-12638746D01*
X16520182Y-12638746D02*
X16510658Y-12591127D01*
X16510658Y-12591127D02*
X16501134Y-12562555D01*
X16501134Y-12562555D02*
X16491611Y-12543508D01*
X16491611Y-12543508D02*
X16472563Y-12514936D01*
X16472563Y-12514936D02*
X16463039Y-12505412D01*
D12*
X11497500Y-12906500D02*
G75*
G02*
X11452500Y-12906500I-22500J0D01*
G01*
X11452500Y-12906500D02*
G75*
G02*
X11497500Y-12906500I22500J0D01*
G01*
D11*
X11796372Y-12797984D02*
X11815420Y-12797984D01*
X11815420Y-12797984D02*
X11834467Y-12807508D01*
X11834467Y-12807508D02*
X11843991Y-12817031D01*
X11843991Y-12817031D02*
X11853515Y-12836079D01*
X11853515Y-12836079D02*
X11863039Y-12874174D01*
X11863039Y-12874174D02*
X11863039Y-12921793D01*
X11863039Y-12921793D02*
X11853515Y-12959888D01*
X11853515Y-12959888D02*
X11843991Y-12978936D01*
X11843991Y-12978936D02*
X11834467Y-12988460D01*
X11834467Y-12988460D02*
X11815420Y-12997984D01*
X11815420Y-12997984D02*
X11796372Y-12997984D01*
X11796372Y-12997984D02*
X11777324Y-12988460D01*
X11777324Y-12988460D02*
X11767801Y-12978936D01*
X11767801Y-12978936D02*
X11758277Y-12959888D01*
X11758277Y-12959888D02*
X11748753Y-12921793D01*
X11748753Y-12921793D02*
X11748753Y-12874174D01*
X11748753Y-12874174D02*
X11758277Y-12836079D01*
X11758277Y-12836079D02*
X11767801Y-12817031D01*
X11767801Y-12817031D02*
X11777324Y-12807508D01*
X11777324Y-12807508D02*
X11796372Y-12797984D01*
X11948753Y-12978936D02*
X11958277Y-12988460D01*
X11958277Y-12988460D02*
X11948753Y-12997984D01*
X11948753Y-12997984D02*
X11939229Y-12988460D01*
X11939229Y-12988460D02*
X11948753Y-12978936D01*
X11948753Y-12978936D02*
X11948753Y-12997984D01*
X12129705Y-12864650D02*
X12129705Y-12997984D01*
X12082086Y-12788460D02*
X12034467Y-12931317D01*
X12034467Y-12931317D02*
X12158277Y-12931317D01*
X12329705Y-12797984D02*
X12234467Y-12797984D01*
X12234467Y-12797984D02*
X12224943Y-12893222D01*
X12224943Y-12893222D02*
X12234467Y-12883698D01*
X12234467Y-12883698D02*
X12253515Y-12874174D01*
X12253515Y-12874174D02*
X12301134Y-12874174D01*
X12301134Y-12874174D02*
X12320182Y-12883698D01*
X12320182Y-12883698D02*
X12329705Y-12893222D01*
X12329705Y-12893222D02*
X12339229Y-12912269D01*
X12339229Y-12912269D02*
X12339229Y-12959888D01*
X12339229Y-12959888D02*
X12329705Y-12978936D01*
X12329705Y-12978936D02*
X12320182Y-12988460D01*
X12320182Y-12988460D02*
X12301134Y-12997984D01*
X12301134Y-12997984D02*
X12253515Y-12997984D01*
X12253515Y-12997984D02*
X12234467Y-12988460D01*
X12234467Y-12988460D02*
X12224943Y-12978936D01*
X12463039Y-12797984D02*
X12482086Y-12797984D01*
X12482086Y-12797984D02*
X12501134Y-12807508D01*
X12501134Y-12807508D02*
X12510658Y-12817031D01*
X12510658Y-12817031D02*
X12520182Y-12836079D01*
X12520182Y-12836079D02*
X12529705Y-12874174D01*
X12529705Y-12874174D02*
X12529705Y-12921793D01*
X12529705Y-12921793D02*
X12520182Y-12959888D01*
X12520182Y-12959888D02*
X12510658Y-12978936D01*
X12510658Y-12978936D02*
X12501134Y-12988460D01*
X12501134Y-12988460D02*
X12482086Y-12997984D01*
X12482086Y-12997984D02*
X12463039Y-12997984D01*
X12463039Y-12997984D02*
X12443991Y-12988460D01*
X12443991Y-12988460D02*
X12434467Y-12978936D01*
X12434467Y-12978936D02*
X12424943Y-12959888D01*
X12424943Y-12959888D02*
X12415420Y-12921793D01*
X12415420Y-12921793D02*
X12415420Y-12874174D01*
X12415420Y-12874174D02*
X12424943Y-12836079D01*
X12424943Y-12836079D02*
X12434467Y-12817031D01*
X12434467Y-12817031D02*
X12443991Y-12807508D01*
X12443991Y-12807508D02*
X12463039Y-12797984D01*
X12615420Y-12997984D02*
X12615420Y-12864650D01*
X12615420Y-12883698D02*
X12624943Y-12874174D01*
X12624943Y-12874174D02*
X12643991Y-12864650D01*
X12643991Y-12864650D02*
X12672563Y-12864650D01*
X12672563Y-12864650D02*
X12691610Y-12874174D01*
X12691610Y-12874174D02*
X12701134Y-12893222D01*
X12701134Y-12893222D02*
X12701134Y-12997984D01*
X12701134Y-12893222D02*
X12710658Y-12874174D01*
X12710658Y-12874174D02*
X12729705Y-12864650D01*
X12729705Y-12864650D02*
X12758277Y-12864650D01*
X12758277Y-12864650D02*
X12777324Y-12874174D01*
X12777324Y-12874174D02*
X12786848Y-12893222D01*
X12786848Y-12893222D02*
X12786848Y-12997984D01*
X12882086Y-12997984D02*
X12882086Y-12864650D01*
X12882086Y-12883698D02*
X12891610Y-12874174D01*
X12891610Y-12874174D02*
X12910658Y-12864650D01*
X12910658Y-12864650D02*
X12939229Y-12864650D01*
X12939229Y-12864650D02*
X12958277Y-12874174D01*
X12958277Y-12874174D02*
X12967801Y-12893222D01*
X12967801Y-12893222D02*
X12967801Y-12997984D01*
X12967801Y-12893222D02*
X12977324Y-12874174D01*
X12977324Y-12874174D02*
X12996372Y-12864650D01*
X12996372Y-12864650D02*
X13024943Y-12864650D01*
X13024943Y-12864650D02*
X13043991Y-12874174D01*
X13043991Y-12874174D02*
X13053515Y-12893222D01*
X13053515Y-12893222D02*
X13053515Y-12997984D01*
X13443991Y-12788460D02*
X13272563Y-13045603D01*
X13701134Y-12797984D02*
X13720182Y-12797984D01*
X13720182Y-12797984D02*
X13739229Y-12807508D01*
X13739229Y-12807508D02*
X13748753Y-12817031D01*
X13748753Y-12817031D02*
X13758277Y-12836079D01*
X13758277Y-12836079D02*
X13767801Y-12874174D01*
X13767801Y-12874174D02*
X13767801Y-12921793D01*
X13767801Y-12921793D02*
X13758277Y-12959888D01*
X13758277Y-12959888D02*
X13748753Y-12978936D01*
X13748753Y-12978936D02*
X13739229Y-12988460D01*
X13739229Y-12988460D02*
X13720182Y-12997984D01*
X13720182Y-12997984D02*
X13701134Y-12997984D01*
X13701134Y-12997984D02*
X13682086Y-12988460D01*
X13682086Y-12988460D02*
X13672563Y-12978936D01*
X13672563Y-12978936D02*
X13663039Y-12959888D01*
X13663039Y-12959888D02*
X13653515Y-12921793D01*
X13653515Y-12921793D02*
X13653515Y-12874174D01*
X13653515Y-12874174D02*
X13663039Y-12836079D01*
X13663039Y-12836079D02*
X13672563Y-12817031D01*
X13672563Y-12817031D02*
X13682086Y-12807508D01*
X13682086Y-12807508D02*
X13701134Y-12797984D01*
X13853515Y-12978936D02*
X13863039Y-12988460D01*
X13863039Y-12988460D02*
X13853515Y-12997984D01*
X13853515Y-12997984D02*
X13843991Y-12988460D01*
X13843991Y-12988460D02*
X13853515Y-12978936D01*
X13853515Y-12978936D02*
X13853515Y-12997984D01*
X13986848Y-12797984D02*
X14005896Y-12797984D01*
X14005896Y-12797984D02*
X14024944Y-12807508D01*
X14024944Y-12807508D02*
X14034467Y-12817031D01*
X14034467Y-12817031D02*
X14043991Y-12836079D01*
X14043991Y-12836079D02*
X14053515Y-12874174D01*
X14053515Y-12874174D02*
X14053515Y-12921793D01*
X14053515Y-12921793D02*
X14043991Y-12959888D01*
X14043991Y-12959888D02*
X14034467Y-12978936D01*
X14034467Y-12978936D02*
X14024944Y-12988460D01*
X14024944Y-12988460D02*
X14005896Y-12997984D01*
X14005896Y-12997984D02*
X13986848Y-12997984D01*
X13986848Y-12997984D02*
X13967801Y-12988460D01*
X13967801Y-12988460D02*
X13958277Y-12978936D01*
X13958277Y-12978936D02*
X13948753Y-12959888D01*
X13948753Y-12959888D02*
X13939229Y-12921793D01*
X13939229Y-12921793D02*
X13939229Y-12874174D01*
X13939229Y-12874174D02*
X13948753Y-12836079D01*
X13948753Y-12836079D02*
X13958277Y-12817031D01*
X13958277Y-12817031D02*
X13967801Y-12807508D01*
X13967801Y-12807508D02*
X13986848Y-12797984D01*
X14243991Y-12997984D02*
X14129706Y-12997984D01*
X14186848Y-12997984D02*
X14186848Y-12797984D01*
X14186848Y-12797984D02*
X14167801Y-12826555D01*
X14167801Y-12826555D02*
X14148753Y-12845603D01*
X14148753Y-12845603D02*
X14129706Y-12855127D01*
X14310658Y-12797984D02*
X14443991Y-12797984D01*
X14443991Y-12797984D02*
X14358277Y-12997984D01*
X14501134Y-12797984D02*
X14634467Y-12797984D01*
X14634467Y-12797984D02*
X14548753Y-12997984D01*
X14701134Y-12797984D02*
X14701134Y-12836079D01*
X14777325Y-12797984D02*
X14777325Y-12836079D01*
X15072563Y-13074174D02*
X15063039Y-13064650D01*
X15063039Y-13064650D02*
X15043991Y-13036079D01*
X15043991Y-13036079D02*
X15034468Y-13017031D01*
X15034468Y-13017031D02*
X15024944Y-12988460D01*
X15024944Y-12988460D02*
X15015420Y-12940841D01*
X15015420Y-12940841D02*
X15015420Y-12902746D01*
X15015420Y-12902746D02*
X15024944Y-12855127D01*
X15024944Y-12855127D02*
X15034468Y-12826555D01*
X15034468Y-12826555D02*
X15043991Y-12807508D01*
X15043991Y-12807508D02*
X15063039Y-12778936D01*
X15063039Y-12778936D02*
X15072563Y-12769412D01*
X15253515Y-12997984D02*
X15139229Y-12997984D01*
X15196372Y-12997984D02*
X15196372Y-12797984D01*
X15196372Y-12797984D02*
X15177325Y-12826555D01*
X15177325Y-12826555D02*
X15158277Y-12845603D01*
X15158277Y-12845603D02*
X15139229Y-12855127D01*
X15377325Y-12797984D02*
X15396372Y-12797984D01*
X15396372Y-12797984D02*
X15415420Y-12807508D01*
X15415420Y-12807508D02*
X15424944Y-12817031D01*
X15424944Y-12817031D02*
X15434468Y-12836079D01*
X15434468Y-12836079D02*
X15443991Y-12874174D01*
X15443991Y-12874174D02*
X15443991Y-12921793D01*
X15443991Y-12921793D02*
X15434468Y-12959888D01*
X15434468Y-12959888D02*
X15424944Y-12978936D01*
X15424944Y-12978936D02*
X15415420Y-12988460D01*
X15415420Y-12988460D02*
X15396372Y-12997984D01*
X15396372Y-12997984D02*
X15377325Y-12997984D01*
X15377325Y-12997984D02*
X15358277Y-12988460D01*
X15358277Y-12988460D02*
X15348753Y-12978936D01*
X15348753Y-12978936D02*
X15339229Y-12959888D01*
X15339229Y-12959888D02*
X15329706Y-12921793D01*
X15329706Y-12921793D02*
X15329706Y-12874174D01*
X15329706Y-12874174D02*
X15339229Y-12836079D01*
X15339229Y-12836079D02*
X15348753Y-12817031D01*
X15348753Y-12817031D02*
X15358277Y-12807508D01*
X15358277Y-12807508D02*
X15377325Y-12797984D01*
X15539229Y-12997984D02*
X15577325Y-12997984D01*
X15577325Y-12997984D02*
X15596372Y-12988460D01*
X15596372Y-12988460D02*
X15605896Y-12978936D01*
X15605896Y-12978936D02*
X15624944Y-12950365D01*
X15624944Y-12950365D02*
X15634468Y-12912269D01*
X15634468Y-12912269D02*
X15634468Y-12836079D01*
X15634468Y-12836079D02*
X15624944Y-12817031D01*
X15624944Y-12817031D02*
X15615420Y-12807508D01*
X15615420Y-12807508D02*
X15596372Y-12797984D01*
X15596372Y-12797984D02*
X15558277Y-12797984D01*
X15558277Y-12797984D02*
X15539229Y-12807508D01*
X15539229Y-12807508D02*
X15529706Y-12817031D01*
X15529706Y-12817031D02*
X15520182Y-12836079D01*
X15520182Y-12836079D02*
X15520182Y-12883698D01*
X15520182Y-12883698D02*
X15529706Y-12902746D01*
X15529706Y-12902746D02*
X15539229Y-12912269D01*
X15539229Y-12912269D02*
X15558277Y-12921793D01*
X15558277Y-12921793D02*
X15596372Y-12921793D01*
X15596372Y-12921793D02*
X15615420Y-12912269D01*
X15615420Y-12912269D02*
X15624944Y-12902746D01*
X15624944Y-12902746D02*
X15634468Y-12883698D01*
X15872563Y-12997984D02*
X15872563Y-12797984D01*
X15958277Y-12997984D02*
X15958277Y-12893222D01*
X15958277Y-12893222D02*
X15948753Y-12874174D01*
X15948753Y-12874174D02*
X15929706Y-12864650D01*
X15929706Y-12864650D02*
X15901134Y-12864650D01*
X15901134Y-12864650D02*
X15882087Y-12874174D01*
X15882087Y-12874174D02*
X15872563Y-12883698D01*
X16082087Y-12997984D02*
X16063039Y-12988460D01*
X16063039Y-12988460D02*
X16053515Y-12978936D01*
X16053515Y-12978936D02*
X16043991Y-12959888D01*
X16043991Y-12959888D02*
X16043991Y-12902746D01*
X16043991Y-12902746D02*
X16053515Y-12883698D01*
X16053515Y-12883698D02*
X16063039Y-12874174D01*
X16063039Y-12874174D02*
X16082087Y-12864650D01*
X16082087Y-12864650D02*
X16110658Y-12864650D01*
X16110658Y-12864650D02*
X16129706Y-12874174D01*
X16129706Y-12874174D02*
X16139230Y-12883698D01*
X16139230Y-12883698D02*
X16148753Y-12902746D01*
X16148753Y-12902746D02*
X16148753Y-12959888D01*
X16148753Y-12959888D02*
X16139230Y-12978936D01*
X16139230Y-12978936D02*
X16129706Y-12988460D01*
X16129706Y-12988460D02*
X16110658Y-12997984D01*
X16110658Y-12997984D02*
X16082087Y-12997984D01*
X16263039Y-12997984D02*
X16243991Y-12988460D01*
X16243991Y-12988460D02*
X16234468Y-12969412D01*
X16234468Y-12969412D02*
X16234468Y-12797984D01*
X16415420Y-12988460D02*
X16396372Y-12997984D01*
X16396372Y-12997984D02*
X16358277Y-12997984D01*
X16358277Y-12997984D02*
X16339230Y-12988460D01*
X16339230Y-12988460D02*
X16329706Y-12969412D01*
X16329706Y-12969412D02*
X16329706Y-12893222D01*
X16329706Y-12893222D02*
X16339230Y-12874174D01*
X16339230Y-12874174D02*
X16358277Y-12864650D01*
X16358277Y-12864650D02*
X16396372Y-12864650D01*
X16396372Y-12864650D02*
X16415420Y-12874174D01*
X16415420Y-12874174D02*
X16424944Y-12893222D01*
X16424944Y-12893222D02*
X16424944Y-12912269D01*
X16424944Y-12912269D02*
X16329706Y-12931317D01*
X16501134Y-12988460D02*
X16520182Y-12997984D01*
X16520182Y-12997984D02*
X16558277Y-12997984D01*
X16558277Y-12997984D02*
X16577325Y-12988460D01*
X16577325Y-12988460D02*
X16586849Y-12969412D01*
X16586849Y-12969412D02*
X16586849Y-12959888D01*
X16586849Y-12959888D02*
X16577325Y-12940841D01*
X16577325Y-12940841D02*
X16558277Y-12931317D01*
X16558277Y-12931317D02*
X16529706Y-12931317D01*
X16529706Y-12931317D02*
X16510658Y-12921793D01*
X16510658Y-12921793D02*
X16501134Y-12902746D01*
X16501134Y-12902746D02*
X16501134Y-12893222D01*
X16501134Y-12893222D02*
X16510658Y-12874174D01*
X16510658Y-12874174D02*
X16529706Y-12864650D01*
X16529706Y-12864650D02*
X16558277Y-12864650D01*
X16558277Y-12864650D02*
X16577325Y-12874174D01*
X16653515Y-13074174D02*
X16663039Y-13064650D01*
X16663039Y-13064650D02*
X16682087Y-13036079D01*
X16682087Y-13036079D02*
X16691611Y-13017031D01*
X16691611Y-13017031D02*
X16701134Y-12988460D01*
X16701134Y-12988460D02*
X16710658Y-12940841D01*
X16710658Y-12940841D02*
X16710658Y-12902746D01*
X16710658Y-12902746D02*
X16701134Y-12855127D01*
X16701134Y-12855127D02*
X16691611Y-12826555D01*
X16691611Y-12826555D02*
X16682087Y-12807508D01*
X16682087Y-12807508D02*
X16663039Y-12778936D01*
X16663039Y-12778936D02*
X16653515Y-12769412D01*
D12*
X11447500Y-13120500D02*
X11447500Y-13220500D01*
X11397500Y-13170500D02*
X11497500Y-13170500D01*
D11*
X11863039Y-13261984D02*
X11748753Y-13261984D01*
X11805896Y-13261984D02*
X11805896Y-13061984D01*
X11805896Y-13061984D02*
X11786848Y-13090555D01*
X11786848Y-13090555D02*
X11767801Y-13109603D01*
X11767801Y-13109603D02*
X11748753Y-13119127D01*
X11948753Y-13242936D02*
X11958277Y-13252460D01*
X11958277Y-13252460D02*
X11948753Y-13261984D01*
X11948753Y-13261984D02*
X11939229Y-13252460D01*
X11939229Y-13252460D02*
X11948753Y-13242936D01*
X11948753Y-13242936D02*
X11948753Y-13261984D01*
X12082086Y-13061984D02*
X12101134Y-13061984D01*
X12101134Y-13061984D02*
X12120182Y-13071508D01*
X12120182Y-13071508D02*
X12129705Y-13081031D01*
X12129705Y-13081031D02*
X12139229Y-13100079D01*
X12139229Y-13100079D02*
X12148753Y-13138174D01*
X12148753Y-13138174D02*
X12148753Y-13185793D01*
X12148753Y-13185793D02*
X12139229Y-13223888D01*
X12139229Y-13223888D02*
X12129705Y-13242936D01*
X12129705Y-13242936D02*
X12120182Y-13252460D01*
X12120182Y-13252460D02*
X12101134Y-13261984D01*
X12101134Y-13261984D02*
X12082086Y-13261984D01*
X12082086Y-13261984D02*
X12063039Y-13252460D01*
X12063039Y-13252460D02*
X12053515Y-13242936D01*
X12053515Y-13242936D02*
X12043991Y-13223888D01*
X12043991Y-13223888D02*
X12034467Y-13185793D01*
X12034467Y-13185793D02*
X12034467Y-13138174D01*
X12034467Y-13138174D02*
X12043991Y-13100079D01*
X12043991Y-13100079D02*
X12053515Y-13081031D01*
X12053515Y-13081031D02*
X12063039Y-13071508D01*
X12063039Y-13071508D02*
X12082086Y-13061984D01*
X12272562Y-13061984D02*
X12291610Y-13061984D01*
X12291610Y-13061984D02*
X12310658Y-13071508D01*
X12310658Y-13071508D02*
X12320182Y-13081031D01*
X12320182Y-13081031D02*
X12329705Y-13100079D01*
X12329705Y-13100079D02*
X12339229Y-13138174D01*
X12339229Y-13138174D02*
X12339229Y-13185793D01*
X12339229Y-13185793D02*
X12329705Y-13223888D01*
X12329705Y-13223888D02*
X12320182Y-13242936D01*
X12320182Y-13242936D02*
X12310658Y-13252460D01*
X12310658Y-13252460D02*
X12291610Y-13261984D01*
X12291610Y-13261984D02*
X12272562Y-13261984D01*
X12272562Y-13261984D02*
X12253515Y-13252460D01*
X12253515Y-13252460D02*
X12243991Y-13242936D01*
X12243991Y-13242936D02*
X12234467Y-13223888D01*
X12234467Y-13223888D02*
X12224943Y-13185793D01*
X12224943Y-13185793D02*
X12224943Y-13138174D01*
X12224943Y-13138174D02*
X12234467Y-13100079D01*
X12234467Y-13100079D02*
X12243991Y-13081031D01*
X12243991Y-13081031D02*
X12253515Y-13071508D01*
X12253515Y-13071508D02*
X12272562Y-13061984D01*
X12463039Y-13061984D02*
X12482086Y-13061984D01*
X12482086Y-13061984D02*
X12501134Y-13071508D01*
X12501134Y-13071508D02*
X12510658Y-13081031D01*
X12510658Y-13081031D02*
X12520182Y-13100079D01*
X12520182Y-13100079D02*
X12529705Y-13138174D01*
X12529705Y-13138174D02*
X12529705Y-13185793D01*
X12529705Y-13185793D02*
X12520182Y-13223888D01*
X12520182Y-13223888D02*
X12510658Y-13242936D01*
X12510658Y-13242936D02*
X12501134Y-13252460D01*
X12501134Y-13252460D02*
X12482086Y-13261984D01*
X12482086Y-13261984D02*
X12463039Y-13261984D01*
X12463039Y-13261984D02*
X12443991Y-13252460D01*
X12443991Y-13252460D02*
X12434467Y-13242936D01*
X12434467Y-13242936D02*
X12424943Y-13223888D01*
X12424943Y-13223888D02*
X12415420Y-13185793D01*
X12415420Y-13185793D02*
X12415420Y-13138174D01*
X12415420Y-13138174D02*
X12424943Y-13100079D01*
X12424943Y-13100079D02*
X12434467Y-13081031D01*
X12434467Y-13081031D02*
X12443991Y-13071508D01*
X12443991Y-13071508D02*
X12463039Y-13061984D01*
X12615420Y-13261984D02*
X12615420Y-13128650D01*
X12615420Y-13147698D02*
X12624943Y-13138174D01*
X12624943Y-13138174D02*
X12643991Y-13128650D01*
X12643991Y-13128650D02*
X12672563Y-13128650D01*
X12672563Y-13128650D02*
X12691610Y-13138174D01*
X12691610Y-13138174D02*
X12701134Y-13157222D01*
X12701134Y-13157222D02*
X12701134Y-13261984D01*
X12701134Y-13157222D02*
X12710658Y-13138174D01*
X12710658Y-13138174D02*
X12729705Y-13128650D01*
X12729705Y-13128650D02*
X12758277Y-13128650D01*
X12758277Y-13128650D02*
X12777324Y-13138174D01*
X12777324Y-13138174D02*
X12786848Y-13157222D01*
X12786848Y-13157222D02*
X12786848Y-13261984D01*
X12882086Y-13261984D02*
X12882086Y-13128650D01*
X12882086Y-13147698D02*
X12891610Y-13138174D01*
X12891610Y-13138174D02*
X12910658Y-13128650D01*
X12910658Y-13128650D02*
X12939229Y-13128650D01*
X12939229Y-13128650D02*
X12958277Y-13138174D01*
X12958277Y-13138174D02*
X12967801Y-13157222D01*
X12967801Y-13157222D02*
X12967801Y-13261984D01*
X12967801Y-13157222D02*
X12977324Y-13138174D01*
X12977324Y-13138174D02*
X12996372Y-13128650D01*
X12996372Y-13128650D02*
X13024943Y-13128650D01*
X13024943Y-13128650D02*
X13043991Y-13138174D01*
X13043991Y-13138174D02*
X13053515Y-13157222D01*
X13053515Y-13157222D02*
X13053515Y-13261984D01*
X13443991Y-13052460D02*
X13272563Y-13309603D01*
X13701134Y-13061984D02*
X13720182Y-13061984D01*
X13720182Y-13061984D02*
X13739229Y-13071508D01*
X13739229Y-13071508D02*
X13748753Y-13081031D01*
X13748753Y-13081031D02*
X13758277Y-13100079D01*
X13758277Y-13100079D02*
X13767801Y-13138174D01*
X13767801Y-13138174D02*
X13767801Y-13185793D01*
X13767801Y-13185793D02*
X13758277Y-13223888D01*
X13758277Y-13223888D02*
X13748753Y-13242936D01*
X13748753Y-13242936D02*
X13739229Y-13252460D01*
X13739229Y-13252460D02*
X13720182Y-13261984D01*
X13720182Y-13261984D02*
X13701134Y-13261984D01*
X13701134Y-13261984D02*
X13682086Y-13252460D01*
X13682086Y-13252460D02*
X13672563Y-13242936D01*
X13672563Y-13242936D02*
X13663039Y-13223888D01*
X13663039Y-13223888D02*
X13653515Y-13185793D01*
X13653515Y-13185793D02*
X13653515Y-13138174D01*
X13653515Y-13138174D02*
X13663039Y-13100079D01*
X13663039Y-13100079D02*
X13672563Y-13081031D01*
X13672563Y-13081031D02*
X13682086Y-13071508D01*
X13682086Y-13071508D02*
X13701134Y-13061984D01*
X13853515Y-13242936D02*
X13863039Y-13252460D01*
X13863039Y-13252460D02*
X13853515Y-13261984D01*
X13853515Y-13261984D02*
X13843991Y-13252460D01*
X13843991Y-13252460D02*
X13853515Y-13242936D01*
X13853515Y-13242936D02*
X13853515Y-13261984D01*
X13986848Y-13061984D02*
X14005896Y-13061984D01*
X14005896Y-13061984D02*
X14024944Y-13071508D01*
X14024944Y-13071508D02*
X14034467Y-13081031D01*
X14034467Y-13081031D02*
X14043991Y-13100079D01*
X14043991Y-13100079D02*
X14053515Y-13138174D01*
X14053515Y-13138174D02*
X14053515Y-13185793D01*
X14053515Y-13185793D02*
X14043991Y-13223888D01*
X14043991Y-13223888D02*
X14034467Y-13242936D01*
X14034467Y-13242936D02*
X14024944Y-13252460D01*
X14024944Y-13252460D02*
X14005896Y-13261984D01*
X14005896Y-13261984D02*
X13986848Y-13261984D01*
X13986848Y-13261984D02*
X13967801Y-13252460D01*
X13967801Y-13252460D02*
X13958277Y-13242936D01*
X13958277Y-13242936D02*
X13948753Y-13223888D01*
X13948753Y-13223888D02*
X13939229Y-13185793D01*
X13939229Y-13185793D02*
X13939229Y-13138174D01*
X13939229Y-13138174D02*
X13948753Y-13100079D01*
X13948753Y-13100079D02*
X13958277Y-13081031D01*
X13958277Y-13081031D02*
X13967801Y-13071508D01*
X13967801Y-13071508D02*
X13986848Y-13061984D01*
X14120182Y-13061984D02*
X14243991Y-13061984D01*
X14243991Y-13061984D02*
X14177325Y-13138174D01*
X14177325Y-13138174D02*
X14205896Y-13138174D01*
X14205896Y-13138174D02*
X14224944Y-13147698D01*
X14224944Y-13147698D02*
X14234467Y-13157222D01*
X14234467Y-13157222D02*
X14243991Y-13176269D01*
X14243991Y-13176269D02*
X14243991Y-13223888D01*
X14243991Y-13223888D02*
X14234467Y-13242936D01*
X14234467Y-13242936D02*
X14224944Y-13252460D01*
X14224944Y-13252460D02*
X14205896Y-13261984D01*
X14205896Y-13261984D02*
X14148753Y-13261984D01*
X14148753Y-13261984D02*
X14129706Y-13252460D01*
X14129706Y-13252460D02*
X14120182Y-13242936D01*
X14339229Y-13261984D02*
X14377325Y-13261984D01*
X14377325Y-13261984D02*
X14396372Y-13252460D01*
X14396372Y-13252460D02*
X14405896Y-13242936D01*
X14405896Y-13242936D02*
X14424944Y-13214365D01*
X14424944Y-13214365D02*
X14434467Y-13176269D01*
X14434467Y-13176269D02*
X14434467Y-13100079D01*
X14434467Y-13100079D02*
X14424944Y-13081031D01*
X14424944Y-13081031D02*
X14415420Y-13071508D01*
X14415420Y-13071508D02*
X14396372Y-13061984D01*
X14396372Y-13061984D02*
X14358277Y-13061984D01*
X14358277Y-13061984D02*
X14339229Y-13071508D01*
X14339229Y-13071508D02*
X14329706Y-13081031D01*
X14329706Y-13081031D02*
X14320182Y-13100079D01*
X14320182Y-13100079D02*
X14320182Y-13147698D01*
X14320182Y-13147698D02*
X14329706Y-13166746D01*
X14329706Y-13166746D02*
X14339229Y-13176269D01*
X14339229Y-13176269D02*
X14358277Y-13185793D01*
X14358277Y-13185793D02*
X14396372Y-13185793D01*
X14396372Y-13185793D02*
X14415420Y-13176269D01*
X14415420Y-13176269D02*
X14424944Y-13166746D01*
X14424944Y-13166746D02*
X14434467Y-13147698D01*
X14605896Y-13128650D02*
X14605896Y-13261984D01*
X14558277Y-13052460D02*
X14510658Y-13195317D01*
X14510658Y-13195317D02*
X14634467Y-13195317D01*
X14701134Y-13061984D02*
X14701134Y-13100079D01*
X14777325Y-13061984D02*
X14777325Y-13100079D01*
X15072563Y-13338174D02*
X15063039Y-13328650D01*
X15063039Y-13328650D02*
X15043991Y-13300079D01*
X15043991Y-13300079D02*
X15034468Y-13281031D01*
X15034468Y-13281031D02*
X15024944Y-13252460D01*
X15024944Y-13252460D02*
X15015420Y-13204841D01*
X15015420Y-13204841D02*
X15015420Y-13166746D01*
X15015420Y-13166746D02*
X15024944Y-13119127D01*
X15024944Y-13119127D02*
X15034468Y-13090555D01*
X15034468Y-13090555D02*
X15043991Y-13071508D01*
X15043991Y-13071508D02*
X15063039Y-13042936D01*
X15063039Y-13042936D02*
X15072563Y-13033412D01*
X15253515Y-13261984D02*
X15139229Y-13261984D01*
X15196372Y-13261984D02*
X15196372Y-13061984D01*
X15196372Y-13061984D02*
X15177325Y-13090555D01*
X15177325Y-13090555D02*
X15158277Y-13109603D01*
X15158277Y-13109603D02*
X15139229Y-13119127D01*
X15377325Y-13061984D02*
X15396372Y-13061984D01*
X15396372Y-13061984D02*
X15415420Y-13071508D01*
X15415420Y-13071508D02*
X15424944Y-13081031D01*
X15424944Y-13081031D02*
X15434468Y-13100079D01*
X15434468Y-13100079D02*
X15443991Y-13138174D01*
X15443991Y-13138174D02*
X15443991Y-13185793D01*
X15443991Y-13185793D02*
X15434468Y-13223888D01*
X15434468Y-13223888D02*
X15424944Y-13242936D01*
X15424944Y-13242936D02*
X15415420Y-13252460D01*
X15415420Y-13252460D02*
X15396372Y-13261984D01*
X15396372Y-13261984D02*
X15377325Y-13261984D01*
X15377325Y-13261984D02*
X15358277Y-13252460D01*
X15358277Y-13252460D02*
X15348753Y-13242936D01*
X15348753Y-13242936D02*
X15339229Y-13223888D01*
X15339229Y-13223888D02*
X15329706Y-13185793D01*
X15329706Y-13185793D02*
X15329706Y-13138174D01*
X15329706Y-13138174D02*
X15339229Y-13100079D01*
X15339229Y-13100079D02*
X15348753Y-13081031D01*
X15348753Y-13081031D02*
X15358277Y-13071508D01*
X15358277Y-13071508D02*
X15377325Y-13061984D01*
X15682087Y-13261984D02*
X15682087Y-13061984D01*
X15767801Y-13261984D02*
X15767801Y-13157222D01*
X15767801Y-13157222D02*
X15758277Y-13138174D01*
X15758277Y-13138174D02*
X15739230Y-13128650D01*
X15739230Y-13128650D02*
X15710658Y-13128650D01*
X15710658Y-13128650D02*
X15691610Y-13138174D01*
X15691610Y-13138174D02*
X15682087Y-13147698D01*
X15891610Y-13261984D02*
X15872563Y-13252460D01*
X15872563Y-13252460D02*
X15863039Y-13242936D01*
X15863039Y-13242936D02*
X15853515Y-13223888D01*
X15853515Y-13223888D02*
X15853515Y-13166746D01*
X15853515Y-13166746D02*
X15863039Y-13147698D01*
X15863039Y-13147698D02*
X15872563Y-13138174D01*
X15872563Y-13138174D02*
X15891610Y-13128650D01*
X15891610Y-13128650D02*
X15920182Y-13128650D01*
X15920182Y-13128650D02*
X15939230Y-13138174D01*
X15939230Y-13138174D02*
X15948753Y-13147698D01*
X15948753Y-13147698D02*
X15958277Y-13166746D01*
X15958277Y-13166746D02*
X15958277Y-13223888D01*
X15958277Y-13223888D02*
X15948753Y-13242936D01*
X15948753Y-13242936D02*
X15939230Y-13252460D01*
X15939230Y-13252460D02*
X15920182Y-13261984D01*
X15920182Y-13261984D02*
X15891610Y-13261984D01*
X16072563Y-13261984D02*
X16053515Y-13252460D01*
X16053515Y-13252460D02*
X16043991Y-13233412D01*
X16043991Y-13233412D02*
X16043991Y-13061984D01*
X16224944Y-13252460D02*
X16205896Y-13261984D01*
X16205896Y-13261984D02*
X16167801Y-13261984D01*
X16167801Y-13261984D02*
X16148753Y-13252460D01*
X16148753Y-13252460D02*
X16139230Y-13233412D01*
X16139230Y-13233412D02*
X16139230Y-13157222D01*
X16139230Y-13157222D02*
X16148753Y-13138174D01*
X16148753Y-13138174D02*
X16167801Y-13128650D01*
X16167801Y-13128650D02*
X16205896Y-13128650D01*
X16205896Y-13128650D02*
X16224944Y-13138174D01*
X16224944Y-13138174D02*
X16234468Y-13157222D01*
X16234468Y-13157222D02*
X16234468Y-13176269D01*
X16234468Y-13176269D02*
X16139230Y-13195317D01*
X16310658Y-13252460D02*
X16329706Y-13261984D01*
X16329706Y-13261984D02*
X16367801Y-13261984D01*
X16367801Y-13261984D02*
X16386849Y-13252460D01*
X16386849Y-13252460D02*
X16396372Y-13233412D01*
X16396372Y-13233412D02*
X16396372Y-13223888D01*
X16396372Y-13223888D02*
X16386849Y-13204841D01*
X16386849Y-13204841D02*
X16367801Y-13195317D01*
X16367801Y-13195317D02*
X16339230Y-13195317D01*
X16339230Y-13195317D02*
X16320182Y-13185793D01*
X16320182Y-13185793D02*
X16310658Y-13166746D01*
X16310658Y-13166746D02*
X16310658Y-13157222D01*
X16310658Y-13157222D02*
X16320182Y-13138174D01*
X16320182Y-13138174D02*
X16339230Y-13128650D01*
X16339230Y-13128650D02*
X16367801Y-13128650D01*
X16367801Y-13128650D02*
X16386849Y-13138174D01*
X16463039Y-13338174D02*
X16472563Y-13328650D01*
X16472563Y-13328650D02*
X16491611Y-13300079D01*
X16491611Y-13300079D02*
X16501134Y-13281031D01*
X16501134Y-13281031D02*
X16510658Y-13252460D01*
X16510658Y-13252460D02*
X16520182Y-13204841D01*
X16520182Y-13204841D02*
X16520182Y-13166746D01*
X16520182Y-13166746D02*
X16510658Y-13119127D01*
X16510658Y-13119127D02*
X16501134Y-13090555D01*
X16501134Y-13090555D02*
X16491611Y-13071508D01*
X16491611Y-13071508D02*
X16472563Y-13042936D01*
X16472563Y-13042936D02*
X16463039Y-13033412D01*
X11468211Y-13505211D02*
X11468211Y-13363789D01*
X11326789Y-13363789D01*
X11326789Y-13505211D01*
X11468211Y-13505211D01*
X11748753Y-13345031D02*
X11758277Y-13335508D01*
X11758277Y-13335508D02*
X11777324Y-13325984D01*
X11777324Y-13325984D02*
X11824943Y-13325984D01*
X11824943Y-13325984D02*
X11843991Y-13335508D01*
X11843991Y-13335508D02*
X11853515Y-13345031D01*
X11853515Y-13345031D02*
X11863039Y-13364079D01*
X11863039Y-13364079D02*
X11863039Y-13383127D01*
X11863039Y-13383127D02*
X11853515Y-13411698D01*
X11853515Y-13411698D02*
X11739229Y-13525984D01*
X11739229Y-13525984D02*
X11863039Y-13525984D01*
X11948753Y-13506936D02*
X11958277Y-13516460D01*
X11958277Y-13516460D02*
X11948753Y-13525984D01*
X11948753Y-13525984D02*
X11939229Y-13516460D01*
X11939229Y-13516460D02*
X11948753Y-13506936D01*
X11948753Y-13506936D02*
X11948753Y-13525984D01*
X12034467Y-13345031D02*
X12043991Y-13335508D01*
X12043991Y-13335508D02*
X12063039Y-13325984D01*
X12063039Y-13325984D02*
X12110658Y-13325984D01*
X12110658Y-13325984D02*
X12129705Y-13335508D01*
X12129705Y-13335508D02*
X12139229Y-13345031D01*
X12139229Y-13345031D02*
X12148753Y-13364079D01*
X12148753Y-13364079D02*
X12148753Y-13383127D01*
X12148753Y-13383127D02*
X12139229Y-13411698D01*
X12139229Y-13411698D02*
X12024943Y-13525984D01*
X12024943Y-13525984D02*
X12148753Y-13525984D01*
X12272562Y-13325984D02*
X12291610Y-13325984D01*
X12291610Y-13325984D02*
X12310658Y-13335508D01*
X12310658Y-13335508D02*
X12320182Y-13345031D01*
X12320182Y-13345031D02*
X12329705Y-13364079D01*
X12329705Y-13364079D02*
X12339229Y-13402174D01*
X12339229Y-13402174D02*
X12339229Y-13449793D01*
X12339229Y-13449793D02*
X12329705Y-13487888D01*
X12329705Y-13487888D02*
X12320182Y-13506936D01*
X12320182Y-13506936D02*
X12310658Y-13516460D01*
X12310658Y-13516460D02*
X12291610Y-13525984D01*
X12291610Y-13525984D02*
X12272562Y-13525984D01*
X12272562Y-13525984D02*
X12253515Y-13516460D01*
X12253515Y-13516460D02*
X12243991Y-13506936D01*
X12243991Y-13506936D02*
X12234467Y-13487888D01*
X12234467Y-13487888D02*
X12224943Y-13449793D01*
X12224943Y-13449793D02*
X12224943Y-13402174D01*
X12224943Y-13402174D02*
X12234467Y-13364079D01*
X12234467Y-13364079D02*
X12243991Y-13345031D01*
X12243991Y-13345031D02*
X12253515Y-13335508D01*
X12253515Y-13335508D02*
X12272562Y-13325984D01*
X12463039Y-13325984D02*
X12482086Y-13325984D01*
X12482086Y-13325984D02*
X12501134Y-13335508D01*
X12501134Y-13335508D02*
X12510658Y-13345031D01*
X12510658Y-13345031D02*
X12520182Y-13364079D01*
X12520182Y-13364079D02*
X12529705Y-13402174D01*
X12529705Y-13402174D02*
X12529705Y-13449793D01*
X12529705Y-13449793D02*
X12520182Y-13487888D01*
X12520182Y-13487888D02*
X12510658Y-13506936D01*
X12510658Y-13506936D02*
X12501134Y-13516460D01*
X12501134Y-13516460D02*
X12482086Y-13525984D01*
X12482086Y-13525984D02*
X12463039Y-13525984D01*
X12463039Y-13525984D02*
X12443991Y-13516460D01*
X12443991Y-13516460D02*
X12434467Y-13506936D01*
X12434467Y-13506936D02*
X12424943Y-13487888D01*
X12424943Y-13487888D02*
X12415420Y-13449793D01*
X12415420Y-13449793D02*
X12415420Y-13402174D01*
X12415420Y-13402174D02*
X12424943Y-13364079D01*
X12424943Y-13364079D02*
X12434467Y-13345031D01*
X12434467Y-13345031D02*
X12443991Y-13335508D01*
X12443991Y-13335508D02*
X12463039Y-13325984D01*
X12615420Y-13525984D02*
X12615420Y-13392650D01*
X12615420Y-13411698D02*
X12624943Y-13402174D01*
X12624943Y-13402174D02*
X12643991Y-13392650D01*
X12643991Y-13392650D02*
X12672563Y-13392650D01*
X12672563Y-13392650D02*
X12691610Y-13402174D01*
X12691610Y-13402174D02*
X12701134Y-13421222D01*
X12701134Y-13421222D02*
X12701134Y-13525984D01*
X12701134Y-13421222D02*
X12710658Y-13402174D01*
X12710658Y-13402174D02*
X12729705Y-13392650D01*
X12729705Y-13392650D02*
X12758277Y-13392650D01*
X12758277Y-13392650D02*
X12777324Y-13402174D01*
X12777324Y-13402174D02*
X12786848Y-13421222D01*
X12786848Y-13421222D02*
X12786848Y-13525984D01*
X12882086Y-13525984D02*
X12882086Y-13392650D01*
X12882086Y-13411698D02*
X12891610Y-13402174D01*
X12891610Y-13402174D02*
X12910658Y-13392650D01*
X12910658Y-13392650D02*
X12939229Y-13392650D01*
X12939229Y-13392650D02*
X12958277Y-13402174D01*
X12958277Y-13402174D02*
X12967801Y-13421222D01*
X12967801Y-13421222D02*
X12967801Y-13525984D01*
X12967801Y-13421222D02*
X12977324Y-13402174D01*
X12977324Y-13402174D02*
X12996372Y-13392650D01*
X12996372Y-13392650D02*
X13024943Y-13392650D01*
X13024943Y-13392650D02*
X13043991Y-13402174D01*
X13043991Y-13402174D02*
X13053515Y-13421222D01*
X13053515Y-13421222D02*
X13053515Y-13525984D01*
X13443991Y-13316460D02*
X13272563Y-13573603D01*
X13701134Y-13325984D02*
X13720182Y-13325984D01*
X13720182Y-13325984D02*
X13739229Y-13335508D01*
X13739229Y-13335508D02*
X13748753Y-13345031D01*
X13748753Y-13345031D02*
X13758277Y-13364079D01*
X13758277Y-13364079D02*
X13767801Y-13402174D01*
X13767801Y-13402174D02*
X13767801Y-13449793D01*
X13767801Y-13449793D02*
X13758277Y-13487888D01*
X13758277Y-13487888D02*
X13748753Y-13506936D01*
X13748753Y-13506936D02*
X13739229Y-13516460D01*
X13739229Y-13516460D02*
X13720182Y-13525984D01*
X13720182Y-13525984D02*
X13701134Y-13525984D01*
X13701134Y-13525984D02*
X13682086Y-13516460D01*
X13682086Y-13516460D02*
X13672563Y-13506936D01*
X13672563Y-13506936D02*
X13663039Y-13487888D01*
X13663039Y-13487888D02*
X13653515Y-13449793D01*
X13653515Y-13449793D02*
X13653515Y-13402174D01*
X13653515Y-13402174D02*
X13663039Y-13364079D01*
X13663039Y-13364079D02*
X13672563Y-13345031D01*
X13672563Y-13345031D02*
X13682086Y-13335508D01*
X13682086Y-13335508D02*
X13701134Y-13325984D01*
X13853515Y-13506936D02*
X13863039Y-13516460D01*
X13863039Y-13516460D02*
X13853515Y-13525984D01*
X13853515Y-13525984D02*
X13843991Y-13516460D01*
X13843991Y-13516460D02*
X13853515Y-13506936D01*
X13853515Y-13506936D02*
X13853515Y-13525984D01*
X13986848Y-13325984D02*
X14005896Y-13325984D01*
X14005896Y-13325984D02*
X14024944Y-13335508D01*
X14024944Y-13335508D02*
X14034467Y-13345031D01*
X14034467Y-13345031D02*
X14043991Y-13364079D01*
X14043991Y-13364079D02*
X14053515Y-13402174D01*
X14053515Y-13402174D02*
X14053515Y-13449793D01*
X14053515Y-13449793D02*
X14043991Y-13487888D01*
X14043991Y-13487888D02*
X14034467Y-13506936D01*
X14034467Y-13506936D02*
X14024944Y-13516460D01*
X14024944Y-13516460D02*
X14005896Y-13525984D01*
X14005896Y-13525984D02*
X13986848Y-13525984D01*
X13986848Y-13525984D02*
X13967801Y-13516460D01*
X13967801Y-13516460D02*
X13958277Y-13506936D01*
X13958277Y-13506936D02*
X13948753Y-13487888D01*
X13948753Y-13487888D02*
X13939229Y-13449793D01*
X13939229Y-13449793D02*
X13939229Y-13402174D01*
X13939229Y-13402174D02*
X13948753Y-13364079D01*
X13948753Y-13364079D02*
X13958277Y-13345031D01*
X13958277Y-13345031D02*
X13967801Y-13335508D01*
X13967801Y-13335508D02*
X13986848Y-13325984D01*
X14167801Y-13411698D02*
X14148753Y-13402174D01*
X14148753Y-13402174D02*
X14139229Y-13392650D01*
X14139229Y-13392650D02*
X14129706Y-13373603D01*
X14129706Y-13373603D02*
X14129706Y-13364079D01*
X14129706Y-13364079D02*
X14139229Y-13345031D01*
X14139229Y-13345031D02*
X14148753Y-13335508D01*
X14148753Y-13335508D02*
X14167801Y-13325984D01*
X14167801Y-13325984D02*
X14205896Y-13325984D01*
X14205896Y-13325984D02*
X14224944Y-13335508D01*
X14224944Y-13335508D02*
X14234467Y-13345031D01*
X14234467Y-13345031D02*
X14243991Y-13364079D01*
X14243991Y-13364079D02*
X14243991Y-13373603D01*
X14243991Y-13373603D02*
X14234467Y-13392650D01*
X14234467Y-13392650D02*
X14224944Y-13402174D01*
X14224944Y-13402174D02*
X14205896Y-13411698D01*
X14205896Y-13411698D02*
X14167801Y-13411698D01*
X14167801Y-13411698D02*
X14148753Y-13421222D01*
X14148753Y-13421222D02*
X14139229Y-13430746D01*
X14139229Y-13430746D02*
X14129706Y-13449793D01*
X14129706Y-13449793D02*
X14129706Y-13487888D01*
X14129706Y-13487888D02*
X14139229Y-13506936D01*
X14139229Y-13506936D02*
X14148753Y-13516460D01*
X14148753Y-13516460D02*
X14167801Y-13525984D01*
X14167801Y-13525984D02*
X14205896Y-13525984D01*
X14205896Y-13525984D02*
X14224944Y-13516460D01*
X14224944Y-13516460D02*
X14234467Y-13506936D01*
X14234467Y-13506936D02*
X14243991Y-13487888D01*
X14243991Y-13487888D02*
X14243991Y-13449793D01*
X14243991Y-13449793D02*
X14234467Y-13430746D01*
X14234467Y-13430746D02*
X14224944Y-13421222D01*
X14224944Y-13421222D02*
X14205896Y-13411698D01*
X14415420Y-13325984D02*
X14377325Y-13325984D01*
X14377325Y-13325984D02*
X14358277Y-13335508D01*
X14358277Y-13335508D02*
X14348753Y-13345031D01*
X14348753Y-13345031D02*
X14329706Y-13373603D01*
X14329706Y-13373603D02*
X14320182Y-13411698D01*
X14320182Y-13411698D02*
X14320182Y-13487888D01*
X14320182Y-13487888D02*
X14329706Y-13506936D01*
X14329706Y-13506936D02*
X14339229Y-13516460D01*
X14339229Y-13516460D02*
X14358277Y-13525984D01*
X14358277Y-13525984D02*
X14396372Y-13525984D01*
X14396372Y-13525984D02*
X14415420Y-13516460D01*
X14415420Y-13516460D02*
X14424944Y-13506936D01*
X14424944Y-13506936D02*
X14434467Y-13487888D01*
X14434467Y-13487888D02*
X14434467Y-13440269D01*
X14434467Y-13440269D02*
X14424944Y-13421222D01*
X14424944Y-13421222D02*
X14415420Y-13411698D01*
X14415420Y-13411698D02*
X14396372Y-13402174D01*
X14396372Y-13402174D02*
X14358277Y-13402174D01*
X14358277Y-13402174D02*
X14339229Y-13411698D01*
X14339229Y-13411698D02*
X14329706Y-13421222D01*
X14329706Y-13421222D02*
X14320182Y-13440269D01*
X14605896Y-13325984D02*
X14567801Y-13325984D01*
X14567801Y-13325984D02*
X14548753Y-13335508D01*
X14548753Y-13335508D02*
X14539229Y-13345031D01*
X14539229Y-13345031D02*
X14520182Y-13373603D01*
X14520182Y-13373603D02*
X14510658Y-13411698D01*
X14510658Y-13411698D02*
X14510658Y-13487888D01*
X14510658Y-13487888D02*
X14520182Y-13506936D01*
X14520182Y-13506936D02*
X14529706Y-13516460D01*
X14529706Y-13516460D02*
X14548753Y-13525984D01*
X14548753Y-13525984D02*
X14586848Y-13525984D01*
X14586848Y-13525984D02*
X14605896Y-13516460D01*
X14605896Y-13516460D02*
X14615420Y-13506936D01*
X14615420Y-13506936D02*
X14624944Y-13487888D01*
X14624944Y-13487888D02*
X14624944Y-13440269D01*
X14624944Y-13440269D02*
X14615420Y-13421222D01*
X14615420Y-13421222D02*
X14605896Y-13411698D01*
X14605896Y-13411698D02*
X14586848Y-13402174D01*
X14586848Y-13402174D02*
X14548753Y-13402174D01*
X14548753Y-13402174D02*
X14529706Y-13411698D01*
X14529706Y-13411698D02*
X14520182Y-13421222D01*
X14520182Y-13421222D02*
X14510658Y-13440269D01*
X14701134Y-13325984D02*
X14701134Y-13364079D01*
X14777325Y-13325984D02*
X14777325Y-13364079D01*
X15072563Y-13602174D02*
X15063039Y-13592650D01*
X15063039Y-13592650D02*
X15043991Y-13564079D01*
X15043991Y-13564079D02*
X15034468Y-13545031D01*
X15034468Y-13545031D02*
X15024944Y-13516460D01*
X15024944Y-13516460D02*
X15015420Y-13468841D01*
X15015420Y-13468841D02*
X15015420Y-13430746D01*
X15015420Y-13430746D02*
X15024944Y-13383127D01*
X15024944Y-13383127D02*
X15034468Y-13354555D01*
X15034468Y-13354555D02*
X15043991Y-13335508D01*
X15043991Y-13335508D02*
X15063039Y-13306936D01*
X15063039Y-13306936D02*
X15072563Y-13297412D01*
X15139229Y-13345031D02*
X15148753Y-13335508D01*
X15148753Y-13335508D02*
X15167801Y-13325984D01*
X15167801Y-13325984D02*
X15215420Y-13325984D01*
X15215420Y-13325984D02*
X15234468Y-13335508D01*
X15234468Y-13335508D02*
X15243991Y-13345031D01*
X15243991Y-13345031D02*
X15253515Y-13364079D01*
X15253515Y-13364079D02*
X15253515Y-13383127D01*
X15253515Y-13383127D02*
X15243991Y-13411698D01*
X15243991Y-13411698D02*
X15129706Y-13525984D01*
X15129706Y-13525984D02*
X15253515Y-13525984D01*
X15491610Y-13525984D02*
X15491610Y-13325984D01*
X15577325Y-13525984D02*
X15577325Y-13421222D01*
X15577325Y-13421222D02*
X15567801Y-13402174D01*
X15567801Y-13402174D02*
X15548753Y-13392650D01*
X15548753Y-13392650D02*
X15520182Y-13392650D01*
X15520182Y-13392650D02*
X15501134Y-13402174D01*
X15501134Y-13402174D02*
X15491610Y-13411698D01*
X15701134Y-13525984D02*
X15682087Y-13516460D01*
X15682087Y-13516460D02*
X15672563Y-13506936D01*
X15672563Y-13506936D02*
X15663039Y-13487888D01*
X15663039Y-13487888D02*
X15663039Y-13430746D01*
X15663039Y-13430746D02*
X15672563Y-13411698D01*
X15672563Y-13411698D02*
X15682087Y-13402174D01*
X15682087Y-13402174D02*
X15701134Y-13392650D01*
X15701134Y-13392650D02*
X15729706Y-13392650D01*
X15729706Y-13392650D02*
X15748753Y-13402174D01*
X15748753Y-13402174D02*
X15758277Y-13411698D01*
X15758277Y-13411698D02*
X15767801Y-13430746D01*
X15767801Y-13430746D02*
X15767801Y-13487888D01*
X15767801Y-13487888D02*
X15758277Y-13506936D01*
X15758277Y-13506936D02*
X15748753Y-13516460D01*
X15748753Y-13516460D02*
X15729706Y-13525984D01*
X15729706Y-13525984D02*
X15701134Y-13525984D01*
X15882087Y-13525984D02*
X15863039Y-13516460D01*
X15863039Y-13516460D02*
X15853515Y-13497412D01*
X15853515Y-13497412D02*
X15853515Y-13325984D01*
X16034468Y-13516460D02*
X16015420Y-13525984D01*
X16015420Y-13525984D02*
X15977325Y-13525984D01*
X15977325Y-13525984D02*
X15958277Y-13516460D01*
X15958277Y-13516460D02*
X15948753Y-13497412D01*
X15948753Y-13497412D02*
X15948753Y-13421222D01*
X15948753Y-13421222D02*
X15958277Y-13402174D01*
X15958277Y-13402174D02*
X15977325Y-13392650D01*
X15977325Y-13392650D02*
X16015420Y-13392650D01*
X16015420Y-13392650D02*
X16034468Y-13402174D01*
X16034468Y-13402174D02*
X16043991Y-13421222D01*
X16043991Y-13421222D02*
X16043991Y-13440269D01*
X16043991Y-13440269D02*
X15948753Y-13459317D01*
X16120182Y-13516460D02*
X16139230Y-13525984D01*
X16139230Y-13525984D02*
X16177325Y-13525984D01*
X16177325Y-13525984D02*
X16196372Y-13516460D01*
X16196372Y-13516460D02*
X16205896Y-13497412D01*
X16205896Y-13497412D02*
X16205896Y-13487888D01*
X16205896Y-13487888D02*
X16196372Y-13468841D01*
X16196372Y-13468841D02*
X16177325Y-13459317D01*
X16177325Y-13459317D02*
X16148753Y-13459317D01*
X16148753Y-13459317D02*
X16129706Y-13449793D01*
X16129706Y-13449793D02*
X16120182Y-13430746D01*
X16120182Y-13430746D02*
X16120182Y-13421222D01*
X16120182Y-13421222D02*
X16129706Y-13402174D01*
X16129706Y-13402174D02*
X16148753Y-13392650D01*
X16148753Y-13392650D02*
X16177325Y-13392650D01*
X16177325Y-13392650D02*
X16196372Y-13402174D01*
X16272563Y-13602174D02*
X16282087Y-13592650D01*
X16282087Y-13592650D02*
X16301134Y-13564079D01*
X16301134Y-13564079D02*
X16310658Y-13545031D01*
X16310658Y-13545031D02*
X16320182Y-13516460D01*
X16320182Y-13516460D02*
X16329706Y-13468841D01*
X16329706Y-13468841D02*
X16329706Y-13430746D01*
X16329706Y-13430746D02*
X16320182Y-13383127D01*
X16320182Y-13383127D02*
X16310658Y-13354555D01*
X16310658Y-13354555D02*
X16301134Y-13335508D01*
X16301134Y-13335508D02*
X16282087Y-13306936D01*
X16282087Y-13306936D02*
X16272563Y-13297412D01*
X11397500Y-13854500D02*
X11497500Y-13754500D01*
X11397500Y-13654500D01*
X11297500Y-13754500D01*
X11397500Y-13854500D01*
X11748753Y-13665031D02*
X11758277Y-13655508D01*
X11758277Y-13655508D02*
X11777324Y-13645984D01*
X11777324Y-13645984D02*
X11824943Y-13645984D01*
X11824943Y-13645984D02*
X11843991Y-13655508D01*
X11843991Y-13655508D02*
X11853515Y-13665031D01*
X11853515Y-13665031D02*
X11863039Y-13684079D01*
X11863039Y-13684079D02*
X11863039Y-13703127D01*
X11863039Y-13703127D02*
X11853515Y-13731698D01*
X11853515Y-13731698D02*
X11739229Y-13845984D01*
X11739229Y-13845984D02*
X11863039Y-13845984D01*
X11948753Y-13826936D02*
X11958277Y-13836460D01*
X11958277Y-13836460D02*
X11948753Y-13845984D01*
X11948753Y-13845984D02*
X11939229Y-13836460D01*
X11939229Y-13836460D02*
X11948753Y-13826936D01*
X11948753Y-13826936D02*
X11948753Y-13845984D01*
X12024943Y-13645984D02*
X12158277Y-13645984D01*
X12158277Y-13645984D02*
X12072562Y-13845984D01*
X12272562Y-13645984D02*
X12291610Y-13645984D01*
X12291610Y-13645984D02*
X12310658Y-13655508D01*
X12310658Y-13655508D02*
X12320182Y-13665031D01*
X12320182Y-13665031D02*
X12329705Y-13684079D01*
X12329705Y-13684079D02*
X12339229Y-13722174D01*
X12339229Y-13722174D02*
X12339229Y-13769793D01*
X12339229Y-13769793D02*
X12329705Y-13807888D01*
X12329705Y-13807888D02*
X12320182Y-13826936D01*
X12320182Y-13826936D02*
X12310658Y-13836460D01*
X12310658Y-13836460D02*
X12291610Y-13845984D01*
X12291610Y-13845984D02*
X12272562Y-13845984D01*
X12272562Y-13845984D02*
X12253515Y-13836460D01*
X12253515Y-13836460D02*
X12243991Y-13826936D01*
X12243991Y-13826936D02*
X12234467Y-13807888D01*
X12234467Y-13807888D02*
X12224943Y-13769793D01*
X12224943Y-13769793D02*
X12224943Y-13722174D01*
X12224943Y-13722174D02*
X12234467Y-13684079D01*
X12234467Y-13684079D02*
X12243991Y-13665031D01*
X12243991Y-13665031D02*
X12253515Y-13655508D01*
X12253515Y-13655508D02*
X12272562Y-13645984D01*
X12463039Y-13645984D02*
X12482086Y-13645984D01*
X12482086Y-13645984D02*
X12501134Y-13655508D01*
X12501134Y-13655508D02*
X12510658Y-13665031D01*
X12510658Y-13665031D02*
X12520182Y-13684079D01*
X12520182Y-13684079D02*
X12529705Y-13722174D01*
X12529705Y-13722174D02*
X12529705Y-13769793D01*
X12529705Y-13769793D02*
X12520182Y-13807888D01*
X12520182Y-13807888D02*
X12510658Y-13826936D01*
X12510658Y-13826936D02*
X12501134Y-13836460D01*
X12501134Y-13836460D02*
X12482086Y-13845984D01*
X12482086Y-13845984D02*
X12463039Y-13845984D01*
X12463039Y-13845984D02*
X12443991Y-13836460D01*
X12443991Y-13836460D02*
X12434467Y-13826936D01*
X12434467Y-13826936D02*
X12424943Y-13807888D01*
X12424943Y-13807888D02*
X12415420Y-13769793D01*
X12415420Y-13769793D02*
X12415420Y-13722174D01*
X12415420Y-13722174D02*
X12424943Y-13684079D01*
X12424943Y-13684079D02*
X12434467Y-13665031D01*
X12434467Y-13665031D02*
X12443991Y-13655508D01*
X12443991Y-13655508D02*
X12463039Y-13645984D01*
X12615420Y-13845984D02*
X12615420Y-13712650D01*
X12615420Y-13731698D02*
X12624943Y-13722174D01*
X12624943Y-13722174D02*
X12643991Y-13712650D01*
X12643991Y-13712650D02*
X12672563Y-13712650D01*
X12672563Y-13712650D02*
X12691610Y-13722174D01*
X12691610Y-13722174D02*
X12701134Y-13741222D01*
X12701134Y-13741222D02*
X12701134Y-13845984D01*
X12701134Y-13741222D02*
X12710658Y-13722174D01*
X12710658Y-13722174D02*
X12729705Y-13712650D01*
X12729705Y-13712650D02*
X12758277Y-13712650D01*
X12758277Y-13712650D02*
X12777324Y-13722174D01*
X12777324Y-13722174D02*
X12786848Y-13741222D01*
X12786848Y-13741222D02*
X12786848Y-13845984D01*
X12882086Y-13845984D02*
X12882086Y-13712650D01*
X12882086Y-13731698D02*
X12891610Y-13722174D01*
X12891610Y-13722174D02*
X12910658Y-13712650D01*
X12910658Y-13712650D02*
X12939229Y-13712650D01*
X12939229Y-13712650D02*
X12958277Y-13722174D01*
X12958277Y-13722174D02*
X12967801Y-13741222D01*
X12967801Y-13741222D02*
X12967801Y-13845984D01*
X12967801Y-13741222D02*
X12977324Y-13722174D01*
X12977324Y-13722174D02*
X12996372Y-13712650D01*
X12996372Y-13712650D02*
X13024943Y-13712650D01*
X13024943Y-13712650D02*
X13043991Y-13722174D01*
X13043991Y-13722174D02*
X13053515Y-13741222D01*
X13053515Y-13741222D02*
X13053515Y-13845984D01*
X13443991Y-13636460D02*
X13272563Y-13893603D01*
X13701134Y-13645984D02*
X13720182Y-13645984D01*
X13720182Y-13645984D02*
X13739229Y-13655508D01*
X13739229Y-13655508D02*
X13748753Y-13665031D01*
X13748753Y-13665031D02*
X13758277Y-13684079D01*
X13758277Y-13684079D02*
X13767801Y-13722174D01*
X13767801Y-13722174D02*
X13767801Y-13769793D01*
X13767801Y-13769793D02*
X13758277Y-13807888D01*
X13758277Y-13807888D02*
X13748753Y-13826936D01*
X13748753Y-13826936D02*
X13739229Y-13836460D01*
X13739229Y-13836460D02*
X13720182Y-13845984D01*
X13720182Y-13845984D02*
X13701134Y-13845984D01*
X13701134Y-13845984D02*
X13682086Y-13836460D01*
X13682086Y-13836460D02*
X13672563Y-13826936D01*
X13672563Y-13826936D02*
X13663039Y-13807888D01*
X13663039Y-13807888D02*
X13653515Y-13769793D01*
X13653515Y-13769793D02*
X13653515Y-13722174D01*
X13653515Y-13722174D02*
X13663039Y-13684079D01*
X13663039Y-13684079D02*
X13672563Y-13665031D01*
X13672563Y-13665031D02*
X13682086Y-13655508D01*
X13682086Y-13655508D02*
X13701134Y-13645984D01*
X13853515Y-13826936D02*
X13863039Y-13836460D01*
X13863039Y-13836460D02*
X13853515Y-13845984D01*
X13853515Y-13845984D02*
X13843991Y-13836460D01*
X13843991Y-13836460D02*
X13853515Y-13826936D01*
X13853515Y-13826936D02*
X13853515Y-13845984D01*
X14053515Y-13845984D02*
X13939229Y-13845984D01*
X13996372Y-13845984D02*
X13996372Y-13645984D01*
X13996372Y-13645984D02*
X13977325Y-13674555D01*
X13977325Y-13674555D02*
X13958277Y-13693603D01*
X13958277Y-13693603D02*
X13939229Y-13703127D01*
X14177325Y-13645984D02*
X14196372Y-13645984D01*
X14196372Y-13645984D02*
X14215420Y-13655508D01*
X14215420Y-13655508D02*
X14224944Y-13665031D01*
X14224944Y-13665031D02*
X14234467Y-13684079D01*
X14234467Y-13684079D02*
X14243991Y-13722174D01*
X14243991Y-13722174D02*
X14243991Y-13769793D01*
X14243991Y-13769793D02*
X14234467Y-13807888D01*
X14234467Y-13807888D02*
X14224944Y-13826936D01*
X14224944Y-13826936D02*
X14215420Y-13836460D01*
X14215420Y-13836460D02*
X14196372Y-13845984D01*
X14196372Y-13845984D02*
X14177325Y-13845984D01*
X14177325Y-13845984D02*
X14158277Y-13836460D01*
X14158277Y-13836460D02*
X14148753Y-13826936D01*
X14148753Y-13826936D02*
X14139229Y-13807888D01*
X14139229Y-13807888D02*
X14129706Y-13769793D01*
X14129706Y-13769793D02*
X14129706Y-13722174D01*
X14129706Y-13722174D02*
X14139229Y-13684079D01*
X14139229Y-13684079D02*
X14148753Y-13665031D01*
X14148753Y-13665031D02*
X14158277Y-13655508D01*
X14158277Y-13655508D02*
X14177325Y-13645984D01*
X14415420Y-13645984D02*
X14377325Y-13645984D01*
X14377325Y-13645984D02*
X14358277Y-13655508D01*
X14358277Y-13655508D02*
X14348753Y-13665031D01*
X14348753Y-13665031D02*
X14329706Y-13693603D01*
X14329706Y-13693603D02*
X14320182Y-13731698D01*
X14320182Y-13731698D02*
X14320182Y-13807888D01*
X14320182Y-13807888D02*
X14329706Y-13826936D01*
X14329706Y-13826936D02*
X14339229Y-13836460D01*
X14339229Y-13836460D02*
X14358277Y-13845984D01*
X14358277Y-13845984D02*
X14396372Y-13845984D01*
X14396372Y-13845984D02*
X14415420Y-13836460D01*
X14415420Y-13836460D02*
X14424944Y-13826936D01*
X14424944Y-13826936D02*
X14434467Y-13807888D01*
X14434467Y-13807888D02*
X14434467Y-13760269D01*
X14434467Y-13760269D02*
X14424944Y-13741222D01*
X14424944Y-13741222D02*
X14415420Y-13731698D01*
X14415420Y-13731698D02*
X14396372Y-13722174D01*
X14396372Y-13722174D02*
X14358277Y-13722174D01*
X14358277Y-13722174D02*
X14339229Y-13731698D01*
X14339229Y-13731698D02*
X14329706Y-13741222D01*
X14329706Y-13741222D02*
X14320182Y-13760269D01*
X14501134Y-13645984D02*
X14624944Y-13645984D01*
X14624944Y-13645984D02*
X14558277Y-13722174D01*
X14558277Y-13722174D02*
X14586848Y-13722174D01*
X14586848Y-13722174D02*
X14605896Y-13731698D01*
X14605896Y-13731698D02*
X14615420Y-13741222D01*
X14615420Y-13741222D02*
X14624944Y-13760269D01*
X14624944Y-13760269D02*
X14624944Y-13807888D01*
X14624944Y-13807888D02*
X14615420Y-13826936D01*
X14615420Y-13826936D02*
X14605896Y-13836460D01*
X14605896Y-13836460D02*
X14586848Y-13845984D01*
X14586848Y-13845984D02*
X14529706Y-13845984D01*
X14529706Y-13845984D02*
X14510658Y-13836460D01*
X14510658Y-13836460D02*
X14501134Y-13826936D01*
X14701134Y-13645984D02*
X14701134Y-13684079D01*
X14777325Y-13645984D02*
X14777325Y-13684079D01*
X15072563Y-13922174D02*
X15063039Y-13912650D01*
X15063039Y-13912650D02*
X15043991Y-13884079D01*
X15043991Y-13884079D02*
X15034468Y-13865031D01*
X15034468Y-13865031D02*
X15024944Y-13836460D01*
X15024944Y-13836460D02*
X15015420Y-13788841D01*
X15015420Y-13788841D02*
X15015420Y-13750746D01*
X15015420Y-13750746D02*
X15024944Y-13703127D01*
X15024944Y-13703127D02*
X15034468Y-13674555D01*
X15034468Y-13674555D02*
X15043991Y-13655508D01*
X15043991Y-13655508D02*
X15063039Y-13626936D01*
X15063039Y-13626936D02*
X15072563Y-13617412D01*
X15139229Y-13665031D02*
X15148753Y-13655508D01*
X15148753Y-13655508D02*
X15167801Y-13645984D01*
X15167801Y-13645984D02*
X15215420Y-13645984D01*
X15215420Y-13645984D02*
X15234468Y-13655508D01*
X15234468Y-13655508D02*
X15243991Y-13665031D01*
X15243991Y-13665031D02*
X15253515Y-13684079D01*
X15253515Y-13684079D02*
X15253515Y-13703127D01*
X15253515Y-13703127D02*
X15243991Y-13731698D01*
X15243991Y-13731698D02*
X15129706Y-13845984D01*
X15129706Y-13845984D02*
X15253515Y-13845984D01*
X15491610Y-13845984D02*
X15491610Y-13645984D01*
X15577325Y-13845984D02*
X15577325Y-13741222D01*
X15577325Y-13741222D02*
X15567801Y-13722174D01*
X15567801Y-13722174D02*
X15548753Y-13712650D01*
X15548753Y-13712650D02*
X15520182Y-13712650D01*
X15520182Y-13712650D02*
X15501134Y-13722174D01*
X15501134Y-13722174D02*
X15491610Y-13731698D01*
X15701134Y-13845984D02*
X15682087Y-13836460D01*
X15682087Y-13836460D02*
X15672563Y-13826936D01*
X15672563Y-13826936D02*
X15663039Y-13807888D01*
X15663039Y-13807888D02*
X15663039Y-13750746D01*
X15663039Y-13750746D02*
X15672563Y-13731698D01*
X15672563Y-13731698D02*
X15682087Y-13722174D01*
X15682087Y-13722174D02*
X15701134Y-13712650D01*
X15701134Y-13712650D02*
X15729706Y-13712650D01*
X15729706Y-13712650D02*
X15748753Y-13722174D01*
X15748753Y-13722174D02*
X15758277Y-13731698D01*
X15758277Y-13731698D02*
X15767801Y-13750746D01*
X15767801Y-13750746D02*
X15767801Y-13807888D01*
X15767801Y-13807888D02*
X15758277Y-13826936D01*
X15758277Y-13826936D02*
X15748753Y-13836460D01*
X15748753Y-13836460D02*
X15729706Y-13845984D01*
X15729706Y-13845984D02*
X15701134Y-13845984D01*
X15882087Y-13845984D02*
X15863039Y-13836460D01*
X15863039Y-13836460D02*
X15853515Y-13817412D01*
X15853515Y-13817412D02*
X15853515Y-13645984D01*
X16034468Y-13836460D02*
X16015420Y-13845984D01*
X16015420Y-13845984D02*
X15977325Y-13845984D01*
X15977325Y-13845984D02*
X15958277Y-13836460D01*
X15958277Y-13836460D02*
X15948753Y-13817412D01*
X15948753Y-13817412D02*
X15948753Y-13741222D01*
X15948753Y-13741222D02*
X15958277Y-13722174D01*
X15958277Y-13722174D02*
X15977325Y-13712650D01*
X15977325Y-13712650D02*
X16015420Y-13712650D01*
X16015420Y-13712650D02*
X16034468Y-13722174D01*
X16034468Y-13722174D02*
X16043991Y-13741222D01*
X16043991Y-13741222D02*
X16043991Y-13760269D01*
X16043991Y-13760269D02*
X15948753Y-13779317D01*
X16120182Y-13836460D02*
X16139230Y-13845984D01*
X16139230Y-13845984D02*
X16177325Y-13845984D01*
X16177325Y-13845984D02*
X16196372Y-13836460D01*
X16196372Y-13836460D02*
X16205896Y-13817412D01*
X16205896Y-13817412D02*
X16205896Y-13807888D01*
X16205896Y-13807888D02*
X16196372Y-13788841D01*
X16196372Y-13788841D02*
X16177325Y-13779317D01*
X16177325Y-13779317D02*
X16148753Y-13779317D01*
X16148753Y-13779317D02*
X16129706Y-13769793D01*
X16129706Y-13769793D02*
X16120182Y-13750746D01*
X16120182Y-13750746D02*
X16120182Y-13741222D01*
X16120182Y-13741222D02*
X16129706Y-13722174D01*
X16129706Y-13722174D02*
X16148753Y-13712650D01*
X16148753Y-13712650D02*
X16177325Y-13712650D01*
X16177325Y-13712650D02*
X16196372Y-13722174D01*
X16272563Y-13922174D02*
X16282087Y-13912650D01*
X16282087Y-13912650D02*
X16301134Y-13884079D01*
X16301134Y-13884079D02*
X16310658Y-13865031D01*
X16310658Y-13865031D02*
X16320182Y-13836460D01*
X16320182Y-13836460D02*
X16329706Y-13788841D01*
X16329706Y-13788841D02*
X16329706Y-13750746D01*
X16329706Y-13750746D02*
X16320182Y-13703127D01*
X16320182Y-13703127D02*
X16310658Y-13674555D01*
X16310658Y-13674555D02*
X16301134Y-13655508D01*
X16301134Y-13655508D02*
X16282087Y-13626936D01*
X16282087Y-13626936D02*
X16272563Y-13617412D01*
M02*
