G04 #@! TF.GenerationSoftware,KiCad,Pcbnew,8.0.1*
G04 #@! TF.CreationDate,2024-09-12T17:08:19-04:00*
G04 #@! TF.ProjectId,cutdown,63757464-6f77-46e2-9e6b-696361645f70,rev?*
G04 #@! TF.SameCoordinates,Original*
G04 #@! TF.FileFunction,Copper,L1,Top*
G04 #@! TF.FilePolarity,Positive*
%FSLAX46Y46*%
G04 Gerber Fmt 4.6, Leading zero omitted, Abs format (unit mm)*
G04 Created by KiCad (PCBNEW 8.0.1) date 2024-09-12 17:08:19*
%MOMM*%
%LPD*%
G01*
G04 APERTURE LIST*
G04 Aperture macros list*
%AMRoundRect*
0 Rectangle with rounded corners*
0 $1 Rounding radius*
0 $2 $3 $4 $5 $6 $7 $8 $9 X,Y pos of 4 corners*
0 Add a 4 corners polygon primitive as box body*
4,1,4,$2,$3,$4,$5,$6,$7,$8,$9,$2,$3,0*
0 Add four circle primitives for the rounded corners*
1,1,$1+$1,$2,$3*
1,1,$1+$1,$4,$5*
1,1,$1+$1,$6,$7*
1,1,$1+$1,$8,$9*
0 Add four rect primitives between the rounded corners*
20,1,$1+$1,$2,$3,$4,$5,0*
20,1,$1+$1,$4,$5,$6,$7,0*
20,1,$1+$1,$6,$7,$8,$9,0*
20,1,$1+$1,$8,$9,$2,$3,0*%
G04 Aperture macros list end*
G04 #@! TA.AperFunction,SMDPad,CuDef*
%ADD10RoundRect,0.250000X-0.325000X-0.650000X0.325000X-0.650000X0.325000X0.650000X-0.325000X0.650000X0*%
G04 #@! TD*
G04 #@! TA.AperFunction,SMDPad,CuDef*
%ADD11RoundRect,0.225000X-0.250000X0.225000X-0.250000X-0.225000X0.250000X-0.225000X0.250000X0.225000X0*%
G04 #@! TD*
G04 #@! TA.AperFunction,ComponentPad*
%ADD12C,2.000000*%
G04 #@! TD*
G04 #@! TA.AperFunction,SMDPad,CuDef*
%ADD13RoundRect,0.250000X-0.250000X-0.475000X0.250000X-0.475000X0.250000X0.475000X-0.250000X0.475000X0*%
G04 #@! TD*
G04 #@! TA.AperFunction,SMDPad,CuDef*
%ADD14RoundRect,0.135000X-0.135000X-0.185000X0.135000X-0.185000X0.135000X0.185000X-0.135000X0.185000X0*%
G04 #@! TD*
G04 #@! TA.AperFunction,SMDPad,CuDef*
%ADD15R,4.400000X4.300000*%
G04 #@! TD*
G04 #@! TA.AperFunction,SMDPad,CuDef*
%ADD16R,0.650000X0.630000*%
G04 #@! TD*
G04 #@! TA.AperFunction,SMDPad,CuDef*
%ADD17RoundRect,0.250000X0.650000X-0.325000X0.650000X0.325000X-0.650000X0.325000X-0.650000X-0.325000X0*%
G04 #@! TD*
G04 #@! TA.AperFunction,SMDPad,CuDef*
%ADD18R,4.100000X3.500000*%
G04 #@! TD*
G04 #@! TA.AperFunction,SMDPad,CuDef*
%ADD19RoundRect,0.225000X-0.225000X-0.250000X0.225000X-0.250000X0.225000X0.250000X-0.225000X0.250000X0*%
G04 #@! TD*
G04 #@! TA.AperFunction,SMDPad,CuDef*
%ADD20RoundRect,0.225000X0.250000X-0.225000X0.250000X0.225000X-0.250000X0.225000X-0.250000X-0.225000X0*%
G04 #@! TD*
G04 #@! TA.AperFunction,SMDPad,CuDef*
%ADD21RoundRect,0.250000X-0.375000X-1.075000X0.375000X-1.075000X0.375000X1.075000X-0.375000X1.075000X0*%
G04 #@! TD*
G04 #@! TA.AperFunction,SMDPad,CuDef*
%ADD22RoundRect,0.100000X-0.625000X-0.100000X0.625000X-0.100000X0.625000X0.100000X-0.625000X0.100000X0*%
G04 #@! TD*
G04 #@! TA.AperFunction,HeatsinkPad*
%ADD23R,1.650000X2.850000*%
G04 #@! TD*
G04 #@! TA.AperFunction,SMDPad,CuDef*
%ADD24RoundRect,0.250000X-0.650000X0.325000X-0.650000X-0.325000X0.650000X-0.325000X0.650000X0.325000X0*%
G04 #@! TD*
G04 #@! TA.AperFunction,SMDPad,CuDef*
%ADD25RoundRect,0.135000X0.185000X-0.135000X0.185000X0.135000X-0.185000X0.135000X-0.185000X-0.135000X0*%
G04 #@! TD*
G04 #@! TA.AperFunction,SMDPad,CuDef*
%ADD26RoundRect,0.135000X0.135000X0.185000X-0.135000X0.185000X-0.135000X-0.185000X0.135000X-0.185000X0*%
G04 #@! TD*
G04 #@! TA.AperFunction,SMDPad,CuDef*
%ADD27RoundRect,0.100000X0.100000X-0.712500X0.100000X0.712500X-0.100000X0.712500X-0.100000X-0.712500X0*%
G04 #@! TD*
G04 #@! TA.AperFunction,SMDPad,CuDef*
%ADD28RoundRect,0.250000X-1.263953X-0.751301X-0.751301X-1.263953X1.263953X0.751301X0.751301X1.263953X0*%
G04 #@! TD*
G04 #@! TA.AperFunction,ComponentPad*
%ADD29R,3.800000X3.800000*%
G04 #@! TD*
G04 #@! TA.AperFunction,ComponentPad*
%ADD30C,4.000000*%
G04 #@! TD*
G04 #@! TA.AperFunction,ComponentPad*
%ADD31C,3.800000*%
G04 #@! TD*
G04 #@! TA.AperFunction,SMDPad,CuDef*
%ADD32RoundRect,0.250000X-0.475000X0.250000X-0.475000X-0.250000X0.475000X-0.250000X0.475000X0.250000X0*%
G04 #@! TD*
G04 #@! TA.AperFunction,SMDPad,CuDef*
%ADD33RoundRect,0.250000X1.075000X-0.375000X1.075000X0.375000X-1.075000X0.375000X-1.075000X-0.375000X0*%
G04 #@! TD*
G04 #@! TA.AperFunction,ComponentPad*
%ADD34R,1.700000X1.700000*%
G04 #@! TD*
G04 #@! TA.AperFunction,ComponentPad*
%ADD35O,1.700000X1.700000*%
G04 #@! TD*
G04 #@! TA.AperFunction,SMDPad,CuDef*
%ADD36RoundRect,0.250000X0.650000X-1.000000X0.650000X1.000000X-0.650000X1.000000X-0.650000X-1.000000X0*%
G04 #@! TD*
G04 #@! TA.AperFunction,ViaPad*
%ADD37C,0.600000*%
G04 #@! TD*
G04 #@! TA.AperFunction,Conductor*
%ADD38C,0.300000*%
G04 #@! TD*
G04 #@! TA.AperFunction,Conductor*
%ADD39C,0.400000*%
G04 #@! TD*
G04 #@! TA.AperFunction,Conductor*
%ADD40C,1.000000*%
G04 #@! TD*
G04 #@! TA.AperFunction,Conductor*
%ADD41C,0.200000*%
G04 #@! TD*
G04 #@! TA.AperFunction,Conductor*
%ADD42C,0.800000*%
G04 #@! TD*
G04 #@! TA.AperFunction,Conductor*
%ADD43C,0.500000*%
G04 #@! TD*
G04 APERTURE END LIST*
D10*
X148625000Y-97300000D03*
X151575000Y-97300000D03*
D11*
X118662500Y-91737500D03*
X118662500Y-93287500D03*
X131300000Y-99300000D03*
X131300000Y-100850000D03*
D12*
X132500000Y-93500000D03*
D13*
X120837500Y-98012500D03*
X122737500Y-98012500D03*
D14*
X122890000Y-114300000D03*
X123910000Y-114300000D03*
D15*
X135015000Y-106108228D03*
D16*
X133110000Y-103955672D03*
X134380000Y-103955672D03*
X135650000Y-103955672D03*
X136920000Y-103955672D03*
X136920000Y-109425816D03*
X133110000Y-109425816D03*
X134380000Y-109425816D03*
X135650000Y-109425816D03*
D17*
X156400000Y-99975000D03*
X156400000Y-97025000D03*
D18*
X140600000Y-105700000D03*
X150100000Y-105700000D03*
D19*
X140325000Y-93400000D03*
X141875000Y-93400000D03*
D20*
X123700000Y-108775000D03*
X123700000Y-107225000D03*
D21*
X139700000Y-95900000D03*
X142500000Y-95900000D03*
D22*
X124850000Y-101400000D03*
X124850000Y-102050000D03*
X124850000Y-102700000D03*
X124850000Y-103350000D03*
X124850000Y-104000000D03*
X124850000Y-104650000D03*
X129150000Y-104650000D03*
X129150000Y-104000000D03*
X129150000Y-103350000D03*
X129150000Y-102700000D03*
X129150000Y-102050000D03*
X129150000Y-101400000D03*
D23*
X127000000Y-103025000D03*
D15*
X135005000Y-98620600D03*
D16*
X133100000Y-96385528D03*
X134370000Y-96385528D03*
X135640000Y-96385528D03*
X136910000Y-96385528D03*
X136910000Y-101855672D03*
X133100000Y-101855672D03*
X134370000Y-101855672D03*
X135640000Y-101855672D03*
D24*
X154000000Y-105525000D03*
X154000000Y-108475000D03*
D25*
X118000000Y-96410000D03*
X118000000Y-95390000D03*
D26*
X123910000Y-113200000D03*
X122890000Y-113200000D03*
D12*
X150000000Y-114500000D03*
X137324129Y-93421197D03*
D27*
X120512500Y-95825000D03*
X121162500Y-95825000D03*
X121812500Y-95825000D03*
X122462500Y-95825000D03*
X122462500Y-91600000D03*
X121812500Y-91600000D03*
X121162500Y-91600000D03*
X120512500Y-91600000D03*
D28*
X154305196Y-112405196D03*
X158494804Y-116594804D03*
D24*
X156500000Y-105525000D03*
X156500000Y-108475000D03*
X129300000Y-106625000D03*
X129300000Y-109575000D03*
D29*
X149800000Y-92900000D03*
D30*
X154800000Y-92900000D03*
D31*
X160000000Y-105000000D03*
D32*
X124387500Y-92562500D03*
X124387500Y-94462500D03*
D33*
X126200000Y-109500000D03*
X126200000Y-106700000D03*
D34*
X120300000Y-101650000D03*
D35*
X120300000Y-104190000D03*
X120300000Y-106730000D03*
X120300000Y-109270000D03*
X120300000Y-111810000D03*
X120300000Y-114350000D03*
D19*
X121425000Y-89600000D03*
X122975000Y-89600000D03*
D12*
X128000000Y-114000000D03*
D36*
X128700000Y-99000000D03*
X128700000Y-95000000D03*
D25*
X119100000Y-96410000D03*
X119100000Y-95390000D03*
D31*
X160000000Y-111000000D03*
D17*
X153900000Y-99975000D03*
X153900000Y-97025000D03*
D37*
X124800000Y-113200000D03*
X116000000Y-107000000D03*
X146000000Y-107000000D03*
X156000000Y-113000000D03*
X148000000Y-88974136D03*
X131000000Y-109000000D03*
X146000000Y-117000000D03*
X128000000Y-89000000D03*
X146000000Y-114986354D03*
X154000000Y-115000000D03*
X126000000Y-89000000D03*
X160000000Y-97000000D03*
X138000000Y-119000000D03*
X152000000Y-119000000D03*
X136000000Y-119000000D03*
X116000000Y-97000000D03*
X141925000Y-98950000D03*
X160000000Y-117000000D03*
X148000000Y-119000000D03*
X116000000Y-95000000D03*
X128000000Y-119000000D03*
X160000000Y-119000000D03*
X138000000Y-117000000D03*
X132000000Y-110000000D03*
X126500000Y-94500000D03*
X162000000Y-91000000D03*
X146000000Y-89000000D03*
X116000000Y-103000000D03*
X117400000Y-94600000D03*
X124800000Y-114300000D03*
X118662500Y-94512500D03*
X148000000Y-117000000D03*
X142000000Y-119000000D03*
X120000000Y-89000000D03*
X146000000Y-119000000D03*
X156000000Y-115000000D03*
X130650000Y-104950000D03*
X156000000Y-89000000D03*
X128000000Y-93000000D03*
X126000000Y-116999999D03*
X116000000Y-101000000D03*
X116000000Y-117000000D03*
X124000000Y-99500000D03*
X123500000Y-104000000D03*
X146000000Y-103000000D03*
X116000000Y-115000000D03*
X132000000Y-117000000D03*
X124300000Y-95600000D03*
X146000000Y-101000000D03*
X134000000Y-119000000D03*
X124000000Y-117000000D03*
X162000000Y-113000000D03*
X152000000Y-89000000D03*
X132000000Y-119000000D03*
X152000000Y-117000000D03*
X154000000Y-119000000D03*
X116000000Y-109000000D03*
X150000000Y-89000000D03*
X128000000Y-117000000D03*
X160000000Y-93000000D03*
X122000000Y-119000000D03*
X116000000Y-99000000D03*
X126000000Y-119000000D03*
X138000000Y-89000000D03*
X140000000Y-119000000D03*
X146000000Y-109000000D03*
X130000000Y-89000000D03*
X144000000Y-89000000D03*
X156000000Y-111000000D03*
X140000000Y-117000000D03*
X158000000Y-119000000D03*
X131000000Y-110000000D03*
X118000000Y-89000000D03*
X158000000Y-89000000D03*
X118000000Y-119000000D03*
X126600000Y-100200000D03*
X126500000Y-98500000D03*
X146000000Y-99000000D03*
X132000000Y-109000000D03*
X150000000Y-117000000D03*
X123700000Y-96400000D03*
X142000000Y-117000000D03*
X116000000Y-111000000D03*
X140000000Y-99000000D03*
X118000000Y-117000000D03*
X160000000Y-95000000D03*
X130000000Y-93000000D03*
X130000000Y-117000000D03*
X156000000Y-117000000D03*
X116000000Y-91000000D03*
X120000000Y-117000000D03*
X158000000Y-113000000D03*
X156000000Y-119000000D03*
X160000000Y-89000000D03*
X136000000Y-117000000D03*
X122000000Y-117000000D03*
X150000000Y-119000000D03*
X116000000Y-93000000D03*
X162000000Y-117000000D03*
X162000000Y-95000000D03*
X160000000Y-91000000D03*
X154000000Y-117000000D03*
X144000000Y-117000000D03*
X124000000Y-119000000D03*
X134000000Y-89000000D03*
X136000000Y-89000000D03*
X120000000Y-119000000D03*
X144000000Y-119000000D03*
X130000000Y-119000000D03*
X116000000Y-105000000D03*
X154000000Y-89000000D03*
X162000000Y-115000000D03*
X162000000Y-93000000D03*
X142000000Y-89000000D03*
X134000000Y-116999999D03*
X131000000Y-97000000D03*
X140000000Y-89000000D03*
X116000000Y-113000000D03*
X132000000Y-89000000D03*
X162000000Y-97000000D03*
X146000000Y-113000000D03*
X144000000Y-99000000D03*
X127800000Y-105700000D03*
X124100000Y-105900000D03*
X131100000Y-107200000D03*
X126500000Y-96100000D03*
X123000000Y-111000000D03*
X124000000Y-110000000D03*
X124000000Y-111000000D03*
X119000000Y-98000000D03*
X119000000Y-99000000D03*
X118000000Y-99000000D03*
X125000000Y-111000000D03*
X123000000Y-110000000D03*
X118000000Y-98000000D03*
X138200000Y-101800000D03*
X130500000Y-102000000D03*
X138400000Y-109600000D03*
X130900000Y-104000000D03*
D38*
X121162500Y-91600000D02*
X121162500Y-92687500D01*
X121587500Y-93112500D02*
X122587500Y-93112500D01*
X121162500Y-92687500D02*
X121587500Y-93112500D01*
X121812500Y-93887500D02*
X122587500Y-93112500D01*
X122587500Y-93112500D02*
X123837500Y-93112500D01*
D39*
X124800000Y-113200000D02*
X123910000Y-113200000D01*
D38*
X121812500Y-95825000D02*
X121812500Y-93887500D01*
X123837500Y-93112500D02*
X124387500Y-92562500D01*
D39*
X129150000Y-104650000D02*
X128150000Y-104650000D01*
D40*
X153900000Y-97025000D02*
X152050000Y-97025000D01*
D41*
X118000000Y-95390000D02*
X118000000Y-95175000D01*
D39*
X127000000Y-100600000D02*
X126600000Y-100200000D01*
D40*
X152050000Y-97025000D02*
X151775000Y-97300000D01*
D38*
X124387500Y-94462500D02*
X124300000Y-94550000D01*
D41*
X127000000Y-103500000D02*
X127000000Y-103025000D01*
X118000000Y-95175000D02*
X118662500Y-94512500D01*
X128150000Y-104650000D02*
X127000000Y-103500000D01*
D38*
X123175000Y-95675000D02*
X123700000Y-96200000D01*
D41*
X118000000Y-95200000D02*
X117400000Y-94600000D01*
D38*
X123700000Y-96200000D02*
X123700000Y-96400000D01*
D41*
X118662500Y-93287500D02*
X118662500Y-94512500D01*
D38*
X122462500Y-95825000D02*
X123025000Y-95825000D01*
D41*
X124800000Y-114300000D02*
X123910000Y-114300000D01*
D39*
X127000000Y-103025000D02*
X127000000Y-100600000D01*
D41*
X124150000Y-103350000D02*
X123500000Y-104000000D01*
D40*
X154000000Y-108475000D02*
X156500000Y-108475000D01*
D41*
X122462500Y-95825000D02*
X122462500Y-97737500D01*
D40*
X151575000Y-97300000D02*
X151575000Y-96125000D01*
D38*
X123025000Y-95825000D02*
X123175000Y-95675000D01*
D39*
X130350000Y-104650000D02*
X129150000Y-104650000D01*
D38*
X124300000Y-94550000D02*
X124300000Y-95600000D01*
D40*
X151775000Y-97300000D02*
X151575000Y-97300000D01*
D41*
X122462500Y-97737500D02*
X122737500Y-98012500D01*
X124850000Y-103350000D02*
X124150000Y-103350000D01*
X124850000Y-103350000D02*
X126675000Y-103350000D01*
X126675000Y-103350000D02*
X127000000Y-103025000D01*
D40*
X151575000Y-96125000D02*
X154800000Y-92900000D01*
X153900000Y-97025000D02*
X156400000Y-97025000D01*
D38*
X123175000Y-95675000D02*
X124387500Y-94462500D01*
D41*
X118000000Y-95390000D02*
X118000000Y-95200000D01*
D39*
X130650000Y-104950000D02*
X130350000Y-104650000D01*
D42*
X130525000Y-106625000D02*
X131100000Y-107200000D01*
X128700000Y-95000000D02*
X131000000Y-95000000D01*
X127600000Y-96100000D02*
X126500000Y-96100000D01*
X131000000Y-95000000D02*
X132500000Y-93500000D01*
X128700000Y-95000000D02*
X127600000Y-96100000D01*
X129300000Y-106625000D02*
X130525000Y-106625000D01*
D39*
X129200000Y-99500000D02*
X128700000Y-99000000D01*
X129150000Y-101400000D02*
X129200000Y-101350000D01*
X129200000Y-101350000D02*
X129200000Y-99500000D01*
X128700000Y-99000000D02*
X131000000Y-99000000D01*
X131000000Y-99000000D02*
X131300000Y-99300000D01*
D40*
X160000000Y-115089608D02*
X158494804Y-116594804D01*
X159962500Y-111600000D02*
X160000000Y-111562500D01*
X160000000Y-111000000D02*
X160000000Y-115089608D01*
D41*
X121700000Y-105330000D02*
X120300000Y-106730000D01*
X121700000Y-104200000D02*
X121700000Y-105330000D01*
X124850000Y-102050000D02*
X123850000Y-102050000D01*
X123850000Y-102050000D02*
X121700000Y-104200000D01*
X121500000Y-111810000D02*
X120300000Y-111810000D01*
X122890000Y-113200000D02*
X121500000Y-111810000D01*
D39*
X122890000Y-114300000D02*
X122890000Y-113200000D01*
D43*
X150100000Y-105700000D02*
X150000000Y-105800000D01*
D41*
X153900000Y-101900000D02*
X150100000Y-105700000D01*
X157000000Y-105025000D02*
X157000000Y-100575000D01*
D43*
X150000000Y-105800000D02*
X150000000Y-114500000D01*
D41*
X153825000Y-105700000D02*
X154000000Y-105525000D01*
X154000000Y-105525000D02*
X156500000Y-105525000D01*
X156500000Y-105525000D02*
X157000000Y-105025000D01*
X157000000Y-100575000D02*
X156400000Y-99975000D01*
X156400000Y-99975000D02*
X153900000Y-99975000D01*
X150100000Y-105700000D02*
X153825000Y-105700000D01*
X153900000Y-99975000D02*
X153900000Y-101900000D01*
X120910000Y-104190000D02*
X120300000Y-104190000D01*
X120490000Y-104000000D02*
X120300000Y-104190000D01*
X123700000Y-101400000D02*
X120910000Y-104190000D01*
X124850000Y-101400000D02*
X123700000Y-101400000D01*
D43*
X137324129Y-93421197D02*
X137324129Y-93524129D01*
X137324129Y-93524129D02*
X139700000Y-95900000D01*
D41*
X121162500Y-97687500D02*
X120837500Y-98012500D01*
X119100000Y-96410000D02*
X119235000Y-96410000D01*
X119235000Y-96410000D02*
X120837500Y-98012500D01*
X121162500Y-95825000D02*
X121162500Y-97687500D01*
X128000000Y-113800000D02*
X128000000Y-114000000D01*
X126700000Y-112500000D02*
X128000000Y-113800000D01*
X123900000Y-102700000D02*
X122600000Y-104000000D01*
X124850000Y-102700000D02*
X123900000Y-102700000D01*
X123500000Y-112500000D02*
X126700000Y-112500000D01*
X120300000Y-109270000D02*
X120300000Y-109300000D01*
X120300000Y-109300000D02*
X123500000Y-112500000D01*
X122600000Y-106970000D02*
X120300000Y-109270000D01*
X122600000Y-104000000D02*
X122600000Y-106970000D01*
X118800000Y-91600000D02*
X118662500Y-91737500D01*
X120512500Y-91600000D02*
X118800000Y-91600000D01*
X119100000Y-95390000D02*
X119535000Y-95825000D01*
X118000000Y-96410000D02*
X118080000Y-96410000D01*
X119535000Y-95825000D02*
X120512500Y-95825000D01*
X118080000Y-96410000D02*
X119100000Y-95390000D01*
X121812500Y-91600000D02*
X121812500Y-89987500D01*
X121812500Y-89987500D02*
X121425000Y-89600000D01*
X122462500Y-90112500D02*
X122975000Y-89600000D01*
X122462500Y-91600000D02*
X122462500Y-90112500D01*
X135423228Y-105700000D02*
X140600000Y-105700000D01*
X132094328Y-100850000D02*
X133100000Y-101855672D01*
X136920000Y-103955672D02*
X135650000Y-103955672D01*
X133110000Y-103554328D02*
X132255672Y-102700000D01*
X135650000Y-103955672D02*
X134380000Y-103955672D01*
X134380000Y-103955672D02*
X133110000Y-103955672D01*
X135015000Y-106108228D02*
X135423228Y-105700000D01*
X131300000Y-100850000D02*
X132094328Y-100850000D01*
X129150000Y-102700000D02*
X132255672Y-102700000D01*
X132255672Y-102700000D02*
X133100000Y-101855672D01*
X133110000Y-103955672D02*
X133110000Y-103554328D01*
X133100000Y-101855672D02*
X135640000Y-101855672D01*
X130450000Y-102050000D02*
X129150000Y-102050000D01*
X138144328Y-101855672D02*
X138200000Y-101800000D01*
X136910000Y-101855672D02*
X138144328Y-101855672D01*
X130500000Y-102000000D02*
X130450000Y-102050000D01*
X129150000Y-104000000D02*
X130900000Y-104000000D01*
X136920000Y-109425816D02*
X138225816Y-109425816D01*
X138225816Y-109425816D02*
X138400000Y-109600000D01*
G04 #@! TA.AperFunction,Conductor*
G36*
X161003523Y-88300751D02*
G01*
X161234806Y-88317293D01*
X161248787Y-88319304D01*
X161471881Y-88367836D01*
X161485433Y-88371815D01*
X161622649Y-88422992D01*
X161699366Y-88451606D01*
X161712205Y-88457469D01*
X161912607Y-88566898D01*
X161924483Y-88574530D01*
X162107263Y-88711357D01*
X162117939Y-88720607D01*
X162279392Y-88882060D01*
X162288642Y-88892736D01*
X162425467Y-89075513D01*
X162433103Y-89087395D01*
X162534053Y-89272270D01*
X162542526Y-89287786D01*
X162548394Y-89300636D01*
X162628184Y-89514566D01*
X162632163Y-89528118D01*
X162680695Y-89751212D01*
X162682706Y-89765193D01*
X162699248Y-89996475D01*
X162699500Y-90003538D01*
X162699500Y-98295500D01*
X162680593Y-98353691D01*
X162631093Y-98389655D01*
X162600500Y-98394500D01*
X152679911Y-98394500D01*
X152621720Y-98375593D01*
X152585756Y-98326093D01*
X152585756Y-98264907D01*
X152585936Y-98264360D01*
X152639506Y-98102693D01*
X152639506Y-98102692D01*
X152647296Y-98026447D01*
X152672019Y-97970479D01*
X152724918Y-97939732D01*
X152785786Y-97945950D01*
X152797756Y-97952247D01*
X152930877Y-98034357D01*
X153097306Y-98089506D01*
X153200012Y-98099999D01*
X153649998Y-98099999D01*
X153650000Y-98099998D01*
X154150000Y-98099998D01*
X154150001Y-98099999D01*
X154599986Y-98099999D01*
X154702687Y-98089507D01*
X154702699Y-98089504D01*
X154869124Y-98034356D01*
X155018340Y-97942319D01*
X155079996Y-97880664D01*
X155134513Y-97852887D01*
X155194945Y-97862458D01*
X155220004Y-97880664D01*
X155281659Y-97942319D01*
X155430875Y-98034356D01*
X155597306Y-98089506D01*
X155700012Y-98099999D01*
X156149998Y-98099999D01*
X156150000Y-98099998D01*
X156650000Y-98099998D01*
X156650001Y-98099999D01*
X157099986Y-98099999D01*
X157202687Y-98089507D01*
X157202699Y-98089504D01*
X157369124Y-98034356D01*
X157518340Y-97942319D01*
X157642319Y-97818340D01*
X157734356Y-97669124D01*
X157789506Y-97502693D01*
X157800000Y-97399987D01*
X157800000Y-97275001D01*
X157799999Y-97275000D01*
X156650001Y-97275000D01*
X156650000Y-97275001D01*
X156650000Y-98099998D01*
X156150000Y-98099998D01*
X156150000Y-97275001D01*
X156149999Y-97275000D01*
X154150001Y-97275000D01*
X154150000Y-97275001D01*
X154150000Y-98099998D01*
X153650000Y-98099998D01*
X153650000Y-96774999D01*
X154150000Y-96774999D01*
X154150001Y-96775000D01*
X156149999Y-96775000D01*
X156150000Y-96774999D01*
X156650000Y-96774999D01*
X156650001Y-96775000D01*
X157799998Y-96775000D01*
X157799999Y-96774999D01*
X157799999Y-96650013D01*
X157789507Y-96547312D01*
X157789504Y-96547300D01*
X157734356Y-96380875D01*
X157642319Y-96231659D01*
X157518340Y-96107680D01*
X157369124Y-96015643D01*
X157202693Y-95960493D01*
X157099987Y-95950000D01*
X156650001Y-95950000D01*
X156650000Y-95950001D01*
X156650000Y-96774999D01*
X156150000Y-96774999D01*
X156150000Y-95950001D01*
X156149999Y-95950000D01*
X155700013Y-95950000D01*
X155597312Y-95960492D01*
X155597300Y-95960495D01*
X155430875Y-96015643D01*
X155281659Y-96107680D01*
X155220004Y-96169336D01*
X155165487Y-96197113D01*
X155105055Y-96187542D01*
X155079996Y-96169336D01*
X155018340Y-96107680D01*
X154869124Y-96015643D01*
X154702693Y-95960493D01*
X154599987Y-95950000D01*
X154150001Y-95950000D01*
X154150000Y-95950001D01*
X154150000Y-96774999D01*
X153650000Y-96774999D01*
X153650000Y-95950001D01*
X153649999Y-95950000D01*
X153200013Y-95950000D01*
X153097312Y-95960492D01*
X153097300Y-95960495D01*
X152930875Y-96015643D01*
X152781658Y-96107681D01*
X152781655Y-96107683D01*
X152663012Y-96226326D01*
X152608496Y-96254103D01*
X152548064Y-96244531D01*
X152508749Y-96208295D01*
X152492320Y-96181660D01*
X152368340Y-96057680D01*
X152219124Y-95965643D01*
X152052693Y-95910493D01*
X151949987Y-95900000D01*
X151825001Y-95900000D01*
X151825000Y-95900001D01*
X151825000Y-97451000D01*
X151806093Y-97509191D01*
X151756593Y-97545155D01*
X151726000Y-97550000D01*
X151424000Y-97550000D01*
X151365809Y-97531093D01*
X151329845Y-97481593D01*
X151325000Y-97451000D01*
X151325000Y-95900001D01*
X151318274Y-95893275D01*
X151280779Y-95881093D01*
X151244815Y-95831593D01*
X151244815Y-95770407D01*
X151268964Y-95730998D01*
X152243091Y-94756873D01*
X152278063Y-94716994D01*
X152301742Y-94686135D01*
X152320120Y-94660132D01*
X152371721Y-94544232D01*
X152391683Y-94469732D01*
X152405500Y-94364782D01*
X152405500Y-94125914D01*
X152424407Y-94067723D01*
X152473907Y-94031759D01*
X152535093Y-94031759D01*
X152584593Y-94067723D01*
X152594078Y-94083762D01*
X152604902Y-94106766D01*
X152604909Y-94106778D01*
X152773458Y-94372368D01*
X152864285Y-94482159D01*
X153684727Y-93661716D01*
X153770278Y-93779466D01*
X153920534Y-93929722D01*
X154038281Y-94015270D01*
X153214973Y-94838579D01*
X153457794Y-95015000D01*
X153733445Y-95166539D01*
X153733448Y-95166541D01*
X154025929Y-95282341D01*
X154330624Y-95360574D01*
X154642713Y-95400000D01*
X154957287Y-95400000D01*
X155269375Y-95360574D01*
X155574070Y-95282341D01*
X155866551Y-95166541D01*
X155866554Y-95166539D01*
X156142205Y-95015000D01*
X156385026Y-94838579D01*
X155561717Y-94015270D01*
X155679466Y-93929722D01*
X155829722Y-93779466D01*
X155915271Y-93661717D01*
X156735713Y-94482159D01*
X156826541Y-94372368D01*
X156995090Y-94106778D01*
X156995097Y-94106765D01*
X157129034Y-93822137D01*
X157226244Y-93522955D01*
X157226247Y-93522945D01*
X157285190Y-93213958D01*
X157304942Y-92900000D01*
X157285190Y-92586041D01*
X157226247Y-92277054D01*
X157226244Y-92277044D01*
X157129034Y-91977862D01*
X156995097Y-91693234D01*
X156995090Y-91693221D01*
X156826541Y-91427631D01*
X156735713Y-91317839D01*
X155915270Y-92138281D01*
X155829722Y-92020534D01*
X155679466Y-91870278D01*
X155561716Y-91784727D01*
X156385025Y-90961419D01*
X156142205Y-90784999D01*
X155866554Y-90633460D01*
X155866551Y-90633458D01*
X155574070Y-90517658D01*
X155269375Y-90439425D01*
X154957287Y-90400000D01*
X154642713Y-90400000D01*
X154330624Y-90439425D01*
X154025929Y-90517658D01*
X153733448Y-90633458D01*
X153733445Y-90633460D01*
X153457798Y-90784997D01*
X153457779Y-90785009D01*
X153214972Y-90961418D01*
X154038282Y-91784728D01*
X153920534Y-91870278D01*
X153770278Y-92020534D01*
X153684728Y-92138282D01*
X152864285Y-91317839D01*
X152773458Y-91427631D01*
X152604903Y-91693233D01*
X152604898Y-91693241D01*
X152594077Y-91716238D01*
X152552192Y-91760840D01*
X152492091Y-91772304D01*
X152436729Y-91746252D01*
X152407253Y-91692634D01*
X152405500Y-91674085D01*
X152405500Y-90861718D01*
X152402031Y-90808790D01*
X152396954Y-90770226D01*
X152391562Y-90738846D01*
X152346097Y-90620404D01*
X152314923Y-90566409D01*
X152307533Y-90553608D01*
X152243096Y-90469633D01*
X152243094Y-90469631D01*
X152243091Y-90469627D01*
X150988192Y-89214728D01*
X150988187Y-89214724D01*
X150988184Y-89214721D01*
X150914734Y-89156578D01*
X150914727Y-89156573D01*
X150914720Y-89156568D01*
X150856543Y-89120595D01*
X150856540Y-89120593D01*
X150856536Y-89120591D01*
X150791647Y-89088102D01*
X150667763Y-89060726D01*
X150667756Y-89060725D01*
X150590790Y-89056070D01*
X150590777Y-89056070D01*
X150528505Y-89058831D01*
X150506085Y-89059825D01*
X150506084Y-89059825D01*
X150506077Y-89059826D01*
X150389152Y-89096782D01*
X150385115Y-89098058D01*
X150385112Y-89098059D01*
X150385105Y-89098062D01*
X150316122Y-89132515D01*
X150316117Y-89132518D01*
X150228400Y-89191768D01*
X150228398Y-89191770D01*
X150177802Y-89236593D01*
X150158164Y-89250148D01*
X150116016Y-89272270D01*
X150093700Y-89280734D01*
X150070597Y-89286428D01*
X150047492Y-89292123D01*
X150023801Y-89295000D01*
X149976198Y-89295000D01*
X149952507Y-89292123D01*
X149929874Y-89286544D01*
X149906296Y-89280733D01*
X149883981Y-89272270D01*
X149878010Y-89269136D01*
X149841827Y-89250145D01*
X149822195Y-89236594D01*
X149786563Y-89205027D01*
X149770739Y-89187166D01*
X149743699Y-89147991D01*
X149732609Y-89126860D01*
X149711126Y-89070216D01*
X149707113Y-89056867D01*
X149694898Y-89002630D01*
X149694511Y-89001472D01*
X149690151Y-88988412D01*
X149676024Y-88946094D01*
X149652694Y-88890407D01*
X149652692Y-88890404D01*
X149652692Y-88890403D01*
X149578127Y-88787773D01*
X149578125Y-88787771D01*
X149578123Y-88787768D01*
X149523585Y-88733230D01*
X149457703Y-88679880D01*
X149457702Y-88679879D01*
X149341812Y-88628283D01*
X149341811Y-88628282D01*
X149341803Y-88628279D01*
X149341799Y-88628278D01*
X149341797Y-88628277D01*
X149267303Y-88608317D01*
X149162353Y-88594500D01*
X148834507Y-88594500D01*
X148776572Y-88600352D01*
X148753397Y-88602694D01*
X148694994Y-88614616D01*
X148694993Y-88614616D01*
X148636917Y-88631059D01*
X148526030Y-88692717D01*
X148465324Y-88740275D01*
X148404417Y-88799247D01*
X148404416Y-88799248D01*
X148373703Y-88850516D01*
X148339217Y-88908083D01*
X148310421Y-88979628D01*
X148305469Y-88998878D01*
X148302158Y-89009316D01*
X148267387Y-89101002D01*
X148256296Y-89122133D01*
X148238448Y-89147991D01*
X148229265Y-89161295D01*
X148213439Y-89179159D01*
X148177805Y-89210728D01*
X148158164Y-89224285D01*
X148116015Y-89246407D01*
X148093700Y-89254870D01*
X148070597Y-89260564D01*
X148047492Y-89266259D01*
X148023801Y-89269136D01*
X147976198Y-89269136D01*
X147952507Y-89266259D01*
X147929874Y-89260680D01*
X147906296Y-89254869D01*
X147883981Y-89246406D01*
X147880466Y-89244561D01*
X147841827Y-89224281D01*
X147822195Y-89210730D01*
X147786563Y-89179163D01*
X147770740Y-89161303D01*
X147767472Y-89156568D01*
X147743696Y-89122123D01*
X147732608Y-89100998D01*
X147704510Y-89026911D01*
X147700500Y-89013569D01*
X147698037Y-89002627D01*
X147679162Y-88946090D01*
X147655834Y-88890407D01*
X147626852Y-88850516D01*
X147581267Y-88787773D01*
X147581265Y-88787771D01*
X147581263Y-88787768D01*
X147526725Y-88733230D01*
X147460843Y-88679880D01*
X147460842Y-88679879D01*
X147344952Y-88628283D01*
X147344951Y-88628282D01*
X147344943Y-88628279D01*
X147344939Y-88628278D01*
X147344937Y-88628277D01*
X147270443Y-88608317D01*
X147165493Y-88594500D01*
X146837647Y-88594500D01*
X146756537Y-88602695D01*
X146756534Y-88602695D01*
X146756530Y-88602696D01*
X146715224Y-88611129D01*
X146698134Y-88614618D01*
X146698127Y-88614620D01*
X146640044Y-88631063D01*
X146529166Y-88692718D01*
X146468456Y-88740280D01*
X146468455Y-88740281D01*
X146407554Y-88799250D01*
X146407552Y-88799253D01*
X146342355Y-88908085D01*
X146313561Y-88979626D01*
X146313558Y-88979635D01*
X146294556Y-89053515D01*
X146291244Y-89063959D01*
X146267387Y-89126866D01*
X146256296Y-89147997D01*
X146250374Y-89156578D01*
X146229265Y-89187159D01*
X146213439Y-89205023D01*
X146177805Y-89236592D01*
X146158164Y-89250149D01*
X146116015Y-89272271D01*
X146093700Y-89280734D01*
X146070597Y-89286428D01*
X146047492Y-89292123D01*
X146023801Y-89295000D01*
X145976198Y-89295000D01*
X145952507Y-89292123D01*
X145929874Y-89286544D01*
X145906296Y-89280733D01*
X145883981Y-89272270D01*
X145878010Y-89269136D01*
X145841827Y-89250145D01*
X145822195Y-89236594D01*
X145786563Y-89205027D01*
X145770739Y-89187166D01*
X145743699Y-89147991D01*
X145732609Y-89126860D01*
X145711126Y-89070216D01*
X145707113Y-89056867D01*
X145694898Y-89002630D01*
X145694511Y-89001472D01*
X145690151Y-88988412D01*
X145676024Y-88946094D01*
X145652694Y-88890407D01*
X145652692Y-88890404D01*
X145652692Y-88890403D01*
X145578127Y-88787773D01*
X145578125Y-88787771D01*
X145578123Y-88787768D01*
X145523585Y-88733230D01*
X145457703Y-88679880D01*
X145457702Y-88679879D01*
X145341812Y-88628283D01*
X145341811Y-88628282D01*
X145341803Y-88628279D01*
X145341799Y-88628278D01*
X145341797Y-88628277D01*
X145267303Y-88608317D01*
X145162353Y-88594500D01*
X144837647Y-88594500D01*
X144756537Y-88602695D01*
X144756534Y-88602695D01*
X144756530Y-88602696D01*
X144715224Y-88611129D01*
X144698134Y-88614618D01*
X144698127Y-88614620D01*
X144640044Y-88631063D01*
X144529166Y-88692718D01*
X144468456Y-88740280D01*
X144468455Y-88740281D01*
X144407554Y-88799250D01*
X144407552Y-88799253D01*
X144342355Y-88908085D01*
X144313561Y-88979626D01*
X144313558Y-88979635D01*
X144294556Y-89053515D01*
X144291244Y-89063959D01*
X144267387Y-89126866D01*
X144256296Y-89147997D01*
X144250374Y-89156578D01*
X144229265Y-89187159D01*
X144213439Y-89205023D01*
X144177805Y-89236592D01*
X144158164Y-89250149D01*
X144116015Y-89272271D01*
X144093700Y-89280734D01*
X144070597Y-89286428D01*
X144047492Y-89292123D01*
X144023801Y-89295000D01*
X143976198Y-89295000D01*
X143952507Y-89292123D01*
X143929874Y-89286544D01*
X143906296Y-89280733D01*
X143883981Y-89272270D01*
X143878010Y-89269136D01*
X143841827Y-89250145D01*
X143822195Y-89236594D01*
X143786563Y-89205027D01*
X143770739Y-89187166D01*
X143743699Y-89147991D01*
X143732609Y-89126860D01*
X143711126Y-89070216D01*
X143707113Y-89056867D01*
X143694898Y-89002630D01*
X143694511Y-89001472D01*
X143690151Y-88988412D01*
X143676024Y-88946094D01*
X143652694Y-88890407D01*
X143652692Y-88890404D01*
X143652692Y-88890403D01*
X143578127Y-88787773D01*
X143578125Y-88787771D01*
X143578123Y-88787768D01*
X143523585Y-88733230D01*
X143457703Y-88679880D01*
X143457702Y-88679879D01*
X143341812Y-88628283D01*
X143341811Y-88628282D01*
X143341803Y-88628279D01*
X143341799Y-88628278D01*
X143341797Y-88628277D01*
X143267303Y-88608317D01*
X143162353Y-88594500D01*
X142837647Y-88594500D01*
X142756537Y-88602695D01*
X142756534Y-88602695D01*
X142756530Y-88602696D01*
X142715224Y-88611129D01*
X142698134Y-88614618D01*
X142698127Y-88614620D01*
X142640044Y-88631063D01*
X142529166Y-88692718D01*
X142468456Y-88740280D01*
X142468455Y-88740281D01*
X142407554Y-88799250D01*
X142407552Y-88799253D01*
X142342355Y-88908085D01*
X142313561Y-88979626D01*
X142313558Y-88979635D01*
X142294556Y-89053515D01*
X142291244Y-89063959D01*
X142267387Y-89126866D01*
X142256296Y-89147997D01*
X142250374Y-89156578D01*
X142229265Y-89187159D01*
X142213439Y-89205023D01*
X142177805Y-89236592D01*
X142158164Y-89250149D01*
X142116015Y-89272271D01*
X142093700Y-89280734D01*
X142070597Y-89286428D01*
X142047492Y-89292123D01*
X142023801Y-89295000D01*
X141976198Y-89295000D01*
X141952507Y-89292123D01*
X141929874Y-89286544D01*
X141906296Y-89280733D01*
X141883981Y-89272270D01*
X141878010Y-89269136D01*
X141841827Y-89250145D01*
X141822195Y-89236594D01*
X141786563Y-89205027D01*
X141770739Y-89187166D01*
X141743699Y-89147991D01*
X141732609Y-89126860D01*
X141711126Y-89070216D01*
X141707113Y-89056867D01*
X141694898Y-89002630D01*
X141694511Y-89001472D01*
X141690151Y-88988412D01*
X141676024Y-88946094D01*
X141652694Y-88890407D01*
X141652692Y-88890404D01*
X141652692Y-88890403D01*
X141578127Y-88787773D01*
X141578125Y-88787771D01*
X141578123Y-88787768D01*
X141523585Y-88733230D01*
X141457703Y-88679880D01*
X141457702Y-88679879D01*
X141341812Y-88628283D01*
X141341811Y-88628282D01*
X141341803Y-88628279D01*
X141341799Y-88628278D01*
X141341797Y-88628277D01*
X141267303Y-88608317D01*
X141162353Y-88594500D01*
X140837647Y-88594500D01*
X140756537Y-88602695D01*
X140756534Y-88602695D01*
X140756530Y-88602696D01*
X140715224Y-88611129D01*
X140698134Y-88614618D01*
X140698127Y-88614620D01*
X140640044Y-88631063D01*
X140529166Y-88692718D01*
X140468456Y-88740280D01*
X140468455Y-88740281D01*
X140407554Y-88799250D01*
X140407552Y-88799253D01*
X140342355Y-88908085D01*
X140313561Y-88979626D01*
X140313558Y-88979635D01*
X140294556Y-89053515D01*
X140291244Y-89063959D01*
X140267387Y-89126866D01*
X140256296Y-89147997D01*
X140250374Y-89156578D01*
X140229265Y-89187159D01*
X140213439Y-89205023D01*
X140177805Y-89236592D01*
X140158164Y-89250149D01*
X140116015Y-89272271D01*
X140093700Y-89280734D01*
X140070597Y-89286428D01*
X140047492Y-89292123D01*
X140023801Y-89295000D01*
X139976198Y-89295000D01*
X139952507Y-89292123D01*
X139929874Y-89286544D01*
X139906296Y-89280733D01*
X139883981Y-89272270D01*
X139878010Y-89269136D01*
X139841827Y-89250145D01*
X139822195Y-89236594D01*
X139786563Y-89205027D01*
X139770739Y-89187166D01*
X139743699Y-89147991D01*
X139732609Y-89126860D01*
X139711126Y-89070216D01*
X139707113Y-89056867D01*
X139694898Y-89002630D01*
X139694511Y-89001472D01*
X139690151Y-88988412D01*
X139676024Y-88946094D01*
X139652694Y-88890407D01*
X139652692Y-88890404D01*
X139652692Y-88890403D01*
X139578127Y-88787773D01*
X139578125Y-88787771D01*
X139578123Y-88787768D01*
X139523585Y-88733230D01*
X139457703Y-88679880D01*
X139457702Y-88679879D01*
X139341812Y-88628283D01*
X139341811Y-88628282D01*
X139341803Y-88628279D01*
X139341799Y-88628278D01*
X139341797Y-88628277D01*
X139267303Y-88608317D01*
X139162353Y-88594500D01*
X138837647Y-88594500D01*
X138756537Y-88602695D01*
X138756534Y-88602695D01*
X138756530Y-88602696D01*
X138715224Y-88611129D01*
X138698134Y-88614618D01*
X138698127Y-88614620D01*
X138640044Y-88631063D01*
X138529166Y-88692718D01*
X138468456Y-88740280D01*
X138468455Y-88740281D01*
X138407554Y-88799250D01*
X138407552Y-88799253D01*
X138342355Y-88908085D01*
X138313561Y-88979626D01*
X138313558Y-88979635D01*
X138294556Y-89053515D01*
X138291244Y-89063959D01*
X138267387Y-89126866D01*
X138256296Y-89147997D01*
X138250374Y-89156578D01*
X138229265Y-89187159D01*
X138213439Y-89205023D01*
X138177805Y-89236592D01*
X138158164Y-89250149D01*
X138116015Y-89272271D01*
X138093700Y-89280734D01*
X138070597Y-89286428D01*
X138047492Y-89292123D01*
X138023801Y-89295000D01*
X137976198Y-89295000D01*
X137952507Y-89292123D01*
X137929874Y-89286544D01*
X137906296Y-89280733D01*
X137883981Y-89272270D01*
X137878010Y-89269136D01*
X137841827Y-89250145D01*
X137822195Y-89236594D01*
X137786563Y-89205027D01*
X137770739Y-89187166D01*
X137743699Y-89147991D01*
X137732609Y-89126860D01*
X137711126Y-89070216D01*
X137707113Y-89056867D01*
X137694898Y-89002630D01*
X137694511Y-89001472D01*
X137690151Y-88988412D01*
X137676024Y-88946094D01*
X137652694Y-88890407D01*
X137652692Y-88890404D01*
X137652692Y-88890403D01*
X137578127Y-88787773D01*
X137578125Y-88787771D01*
X137578123Y-88787768D01*
X137523585Y-88733230D01*
X137457703Y-88679880D01*
X137457702Y-88679879D01*
X137341812Y-88628283D01*
X137341811Y-88628282D01*
X137341803Y-88628279D01*
X137341799Y-88628278D01*
X137341797Y-88628277D01*
X137267303Y-88608317D01*
X137162353Y-88594500D01*
X136837647Y-88594500D01*
X136756537Y-88602695D01*
X136756534Y-88602695D01*
X136756530Y-88602696D01*
X136715224Y-88611129D01*
X136698134Y-88614618D01*
X136698127Y-88614620D01*
X136640044Y-88631063D01*
X136529166Y-88692718D01*
X136468456Y-88740280D01*
X136468455Y-88740281D01*
X136407554Y-88799250D01*
X136407552Y-88799253D01*
X136342355Y-88908085D01*
X136313561Y-88979626D01*
X136313558Y-88979635D01*
X136294556Y-89053515D01*
X136291244Y-89063959D01*
X136267387Y-89126866D01*
X136256296Y-89147997D01*
X136250374Y-89156578D01*
X136229265Y-89187159D01*
X136213439Y-89205023D01*
X136177805Y-89236592D01*
X136158164Y-89250149D01*
X136116015Y-89272271D01*
X136093700Y-89280734D01*
X136070597Y-89286428D01*
X136047492Y-89292123D01*
X136023801Y-89295000D01*
X135976198Y-89295000D01*
X135952507Y-89292123D01*
X135929874Y-89286544D01*
X135906296Y-89280733D01*
X135883981Y-89272270D01*
X135878010Y-89269136D01*
X135841827Y-89250145D01*
X135822195Y-89236594D01*
X135786563Y-89205027D01*
X135770739Y-89187166D01*
X135743699Y-89147991D01*
X135732609Y-89126860D01*
X135711126Y-89070216D01*
X135707113Y-89056867D01*
X135694898Y-89002630D01*
X135694511Y-89001472D01*
X135690151Y-88988412D01*
X135676024Y-88946094D01*
X135652694Y-88890407D01*
X135652692Y-88890404D01*
X135652692Y-88890403D01*
X135578127Y-88787773D01*
X135578125Y-88787771D01*
X135578123Y-88787768D01*
X135523585Y-88733230D01*
X135457703Y-88679880D01*
X135457702Y-88679879D01*
X135341812Y-88628283D01*
X135341811Y-88628282D01*
X135341803Y-88628279D01*
X135341799Y-88628278D01*
X135341797Y-88628277D01*
X135267303Y-88608317D01*
X135162353Y-88594500D01*
X134837647Y-88594500D01*
X134756537Y-88602695D01*
X134756534Y-88602695D01*
X134756530Y-88602696D01*
X134715224Y-88611129D01*
X134698134Y-88614618D01*
X134698127Y-88614620D01*
X134640044Y-88631063D01*
X134529166Y-88692718D01*
X134468456Y-88740280D01*
X134468455Y-88740281D01*
X134407554Y-88799250D01*
X134407552Y-88799253D01*
X134342355Y-88908085D01*
X134313561Y-88979626D01*
X134313558Y-88979635D01*
X134294556Y-89053515D01*
X134291244Y-89063959D01*
X134267387Y-89126866D01*
X134256296Y-89147997D01*
X134250374Y-89156578D01*
X134229265Y-89187159D01*
X134213439Y-89205023D01*
X134177805Y-89236592D01*
X134158164Y-89250149D01*
X134116015Y-89272271D01*
X134093700Y-89280734D01*
X134070597Y-89286428D01*
X134047492Y-89292123D01*
X134023801Y-89295000D01*
X133976198Y-89295000D01*
X133952507Y-89292123D01*
X133929874Y-89286544D01*
X133906296Y-89280733D01*
X133883981Y-89272270D01*
X133878010Y-89269136D01*
X133841827Y-89250145D01*
X133822195Y-89236594D01*
X133786563Y-89205027D01*
X133770739Y-89187166D01*
X133743699Y-89147991D01*
X133732609Y-89126860D01*
X133711126Y-89070216D01*
X133707113Y-89056867D01*
X133694898Y-89002630D01*
X133694511Y-89001472D01*
X133690151Y-88988412D01*
X133676024Y-88946094D01*
X133652694Y-88890407D01*
X133652692Y-88890404D01*
X133652692Y-88890403D01*
X133578127Y-88787773D01*
X133578125Y-88787771D01*
X133578123Y-88787768D01*
X133523585Y-88733230D01*
X133457703Y-88679880D01*
X133457702Y-88679879D01*
X133341812Y-88628283D01*
X133341811Y-88628282D01*
X133341803Y-88628279D01*
X133341799Y-88628278D01*
X133341797Y-88628277D01*
X133267303Y-88608317D01*
X133162353Y-88594500D01*
X132837647Y-88594500D01*
X132756537Y-88602695D01*
X132756534Y-88602695D01*
X132756530Y-88602696D01*
X132715224Y-88611129D01*
X132698134Y-88614618D01*
X132698127Y-88614620D01*
X132640044Y-88631063D01*
X132529166Y-88692718D01*
X132468456Y-88740280D01*
X132468455Y-88740281D01*
X132407554Y-88799250D01*
X132407552Y-88799253D01*
X132342355Y-88908085D01*
X132313561Y-88979626D01*
X132313558Y-88979635D01*
X132294556Y-89053515D01*
X132291244Y-89063959D01*
X132267387Y-89126866D01*
X132256296Y-89147997D01*
X132250374Y-89156578D01*
X132229265Y-89187159D01*
X132213439Y-89205023D01*
X132177805Y-89236592D01*
X132158164Y-89250149D01*
X132116015Y-89272271D01*
X132093700Y-89280734D01*
X132070597Y-89286428D01*
X132047492Y-89292123D01*
X132023801Y-89295000D01*
X131976198Y-89295000D01*
X131952507Y-89292123D01*
X131929874Y-89286544D01*
X131906296Y-89280733D01*
X131883981Y-89272270D01*
X131878010Y-89269136D01*
X131841827Y-89250145D01*
X131822195Y-89236594D01*
X131786563Y-89205027D01*
X131770739Y-89187166D01*
X131743699Y-89147991D01*
X131732609Y-89126860D01*
X131711126Y-89070216D01*
X131707113Y-89056867D01*
X131694898Y-89002630D01*
X131694511Y-89001472D01*
X131690151Y-88988412D01*
X131676024Y-88946094D01*
X131652694Y-88890407D01*
X131652692Y-88890404D01*
X131652692Y-88890403D01*
X131578127Y-88787773D01*
X131578125Y-88787771D01*
X131578123Y-88787768D01*
X131523585Y-88733230D01*
X131457703Y-88679880D01*
X131457702Y-88679879D01*
X131341812Y-88628283D01*
X131341811Y-88628282D01*
X131341803Y-88628279D01*
X131341799Y-88628278D01*
X131341797Y-88628277D01*
X131267303Y-88608317D01*
X131162353Y-88594500D01*
X130837647Y-88594500D01*
X130756537Y-88602695D01*
X130756534Y-88602695D01*
X130756530Y-88602696D01*
X130715224Y-88611129D01*
X130698134Y-88614618D01*
X130698127Y-88614620D01*
X130640044Y-88631063D01*
X130529166Y-88692718D01*
X130468456Y-88740280D01*
X130468455Y-88740281D01*
X130407554Y-88799250D01*
X130407552Y-88799253D01*
X130342355Y-88908085D01*
X130313561Y-88979626D01*
X130313558Y-88979635D01*
X130294556Y-89053515D01*
X130291244Y-89063959D01*
X130267387Y-89126866D01*
X130256296Y-89147997D01*
X130250374Y-89156578D01*
X130229265Y-89187159D01*
X130213439Y-89205023D01*
X130177805Y-89236592D01*
X130158164Y-89250149D01*
X130116015Y-89272271D01*
X130093700Y-89280734D01*
X130070597Y-89286428D01*
X130047492Y-89292123D01*
X130023801Y-89295000D01*
X129976198Y-89295000D01*
X129952507Y-89292123D01*
X129929874Y-89286544D01*
X129906296Y-89280733D01*
X129883981Y-89272270D01*
X129878010Y-89269136D01*
X129841827Y-89250145D01*
X129822195Y-89236594D01*
X129786563Y-89205027D01*
X129770739Y-89187166D01*
X129743699Y-89147991D01*
X129732609Y-89126860D01*
X129711126Y-89070216D01*
X129707113Y-89056867D01*
X129694898Y-89002630D01*
X129694511Y-89001472D01*
X129690151Y-88988412D01*
X129676024Y-88946094D01*
X129652694Y-88890407D01*
X129652692Y-88890404D01*
X129652692Y-88890403D01*
X129578127Y-88787773D01*
X129578125Y-88787771D01*
X129578123Y-88787768D01*
X129523585Y-88733230D01*
X129457703Y-88679880D01*
X129457702Y-88679879D01*
X129341812Y-88628283D01*
X129341811Y-88628282D01*
X129341803Y-88628279D01*
X129341799Y-88628278D01*
X129341797Y-88628277D01*
X129267303Y-88608317D01*
X129162353Y-88594500D01*
X128837647Y-88594500D01*
X128756537Y-88602695D01*
X128756534Y-88602695D01*
X128756530Y-88602696D01*
X128715224Y-88611129D01*
X128698134Y-88614618D01*
X128698127Y-88614620D01*
X128640044Y-88631063D01*
X128529166Y-88692718D01*
X128468456Y-88740280D01*
X128468455Y-88740281D01*
X128407554Y-88799250D01*
X128407552Y-88799253D01*
X128342355Y-88908085D01*
X128313561Y-88979626D01*
X128313558Y-88979635D01*
X128294556Y-89053515D01*
X128291244Y-89063959D01*
X128267387Y-89126866D01*
X128256296Y-89147997D01*
X128250374Y-89156578D01*
X128229265Y-89187159D01*
X128213439Y-89205023D01*
X128177805Y-89236592D01*
X128158164Y-89250149D01*
X128116015Y-89272271D01*
X128093700Y-89280734D01*
X128070597Y-89286428D01*
X128047492Y-89292123D01*
X128023801Y-89295000D01*
X127976198Y-89295000D01*
X127952507Y-89292123D01*
X127929874Y-89286544D01*
X127906296Y-89280733D01*
X127883981Y-89272270D01*
X127878010Y-89269136D01*
X127841827Y-89250145D01*
X127822195Y-89236594D01*
X127786563Y-89205027D01*
X127770739Y-89187166D01*
X127743699Y-89147991D01*
X127732609Y-89126860D01*
X127711126Y-89070216D01*
X127707113Y-89056867D01*
X127694898Y-89002630D01*
X127694511Y-89001472D01*
X127690151Y-88988412D01*
X127676024Y-88946094D01*
X127652694Y-88890407D01*
X127652692Y-88890404D01*
X127652692Y-88890403D01*
X127578127Y-88787773D01*
X127578125Y-88787771D01*
X127578123Y-88787768D01*
X127523585Y-88733230D01*
X127457703Y-88679880D01*
X127457702Y-88679879D01*
X127341812Y-88628283D01*
X127341811Y-88628282D01*
X127341803Y-88628279D01*
X127341799Y-88628278D01*
X127341797Y-88628277D01*
X127267303Y-88608317D01*
X127162353Y-88594500D01*
X126837647Y-88594500D01*
X126756537Y-88602695D01*
X126756534Y-88602695D01*
X126756530Y-88602696D01*
X126715224Y-88611129D01*
X126698134Y-88614618D01*
X126698127Y-88614620D01*
X126640044Y-88631063D01*
X126529166Y-88692718D01*
X126468456Y-88740280D01*
X126468455Y-88740281D01*
X126407554Y-88799250D01*
X126407552Y-88799253D01*
X126342355Y-88908085D01*
X126313561Y-88979626D01*
X126313558Y-88979635D01*
X126294556Y-89053515D01*
X126291244Y-89063959D01*
X126267387Y-89126866D01*
X126256296Y-89147997D01*
X126250374Y-89156578D01*
X126229265Y-89187159D01*
X126213439Y-89205023D01*
X126177805Y-89236592D01*
X126158164Y-89250149D01*
X126116015Y-89272271D01*
X126093700Y-89280734D01*
X126070597Y-89286428D01*
X126047492Y-89292123D01*
X126023801Y-89295000D01*
X125976198Y-89295000D01*
X125952507Y-89292123D01*
X125929874Y-89286544D01*
X125906296Y-89280733D01*
X125883981Y-89272270D01*
X125878010Y-89269136D01*
X125841827Y-89250145D01*
X125822195Y-89236594D01*
X125786563Y-89205027D01*
X125770739Y-89187166D01*
X125743699Y-89147991D01*
X125732609Y-89126860D01*
X125711126Y-89070216D01*
X125707113Y-89056867D01*
X125694898Y-89002630D01*
X125694511Y-89001472D01*
X125690151Y-88988412D01*
X125676024Y-88946094D01*
X125652694Y-88890407D01*
X125652692Y-88890404D01*
X125652692Y-88890403D01*
X125578127Y-88787773D01*
X125578125Y-88787771D01*
X125578123Y-88787768D01*
X125523585Y-88733230D01*
X125457703Y-88679880D01*
X125457702Y-88679879D01*
X125341812Y-88628283D01*
X125341811Y-88628282D01*
X125341803Y-88628279D01*
X125341799Y-88628278D01*
X125341797Y-88628277D01*
X125267303Y-88608317D01*
X125162353Y-88594500D01*
X123948128Y-88594500D01*
X123890994Y-88598545D01*
X123890992Y-88598545D01*
X123890981Y-88598546D01*
X123849440Y-88604458D01*
X123832126Y-88607713D01*
X123813966Y-88611129D01*
X123773476Y-88627652D01*
X123696505Y-88659062D01*
X123696502Y-88659064D01*
X123640934Y-88692717D01*
X123630526Y-88699020D01*
X123563005Y-88750270D01*
X123563003Y-88750273D01*
X123485243Y-88850518D01*
X123459624Y-88897117D01*
X123415021Y-88939000D01*
X123354317Y-88946667D01*
X123340755Y-88942025D01*
X123340540Y-88942690D01*
X123333127Y-88940281D01*
X123333126Y-88940281D01*
X123299913Y-88935020D01*
X123233490Y-88924500D01*
X123233488Y-88924500D01*
X122716512Y-88924500D01*
X122716510Y-88924500D01*
X122616874Y-88940281D01*
X122616867Y-88940283D01*
X122496782Y-89001470D01*
X122401470Y-89096782D01*
X122340283Y-89216867D01*
X122340281Y-89216874D01*
X122324500Y-89316510D01*
X122324500Y-89415599D01*
X122320874Y-89442146D01*
X122320317Y-89444146D01*
X122282760Y-89658715D01*
X122254103Y-89712774D01*
X122199144Y-89739665D01*
X122138875Y-89729116D01*
X122096317Y-89685156D01*
X122086320Y-89645541D01*
X122080889Y-89507614D01*
X122079417Y-89489869D01*
X122079416Y-89489852D01*
X122079161Y-89487841D01*
X122078278Y-89481640D01*
X122078276Y-89481637D01*
X122077441Y-89475766D01*
X122077794Y-89475715D01*
X122075500Y-89458245D01*
X122075500Y-89316510D01*
X122069833Y-89280733D01*
X122059719Y-89216874D01*
X122059716Y-89216869D01*
X122059716Y-89216867D01*
X121998529Y-89096782D01*
X121998528Y-89096780D01*
X121903220Y-89001472D01*
X121903217Y-89001470D01*
X121783132Y-88940283D01*
X121783127Y-88940281D01*
X121783126Y-88940281D01*
X121749913Y-88935020D01*
X121683490Y-88924500D01*
X121683488Y-88924500D01*
X121166512Y-88924500D01*
X121166510Y-88924500D01*
X121066874Y-88940281D01*
X121066867Y-88940283D01*
X120946782Y-89001470D01*
X120851470Y-89096782D01*
X120790283Y-89216867D01*
X120790281Y-89216874D01*
X120774500Y-89316510D01*
X120774500Y-89883489D01*
X120790281Y-89983125D01*
X120790283Y-89983132D01*
X120851470Y-90103217D01*
X120851472Y-90103220D01*
X120946780Y-90198528D01*
X120946782Y-90198529D01*
X121051836Y-90252056D01*
X121062786Y-90258554D01*
X121269564Y-90400000D01*
X121278757Y-90406288D01*
X121316111Y-90454748D01*
X121317847Y-90515909D01*
X121283302Y-90566409D01*
X121225671Y-90586960D01*
X121222862Y-90587000D01*
X121017640Y-90587000D01*
X121017635Y-90587001D01*
X120992509Y-90589914D01*
X120923467Y-90620400D01*
X120889735Y-90635294D01*
X120889734Y-90635294D01*
X120881343Y-90639000D01*
X120880294Y-90636626D01*
X120834743Y-90650037D01*
X120794550Y-90636977D01*
X120793657Y-90639000D01*
X120785266Y-90635295D01*
X120785265Y-90635294D01*
X120682491Y-90589915D01*
X120682490Y-90589914D01*
X120682488Y-90589914D01*
X120657368Y-90587000D01*
X120367640Y-90587000D01*
X120367635Y-90587001D01*
X120342509Y-90589914D01*
X120239735Y-90635294D01*
X120160294Y-90714735D01*
X120114914Y-90817511D01*
X120112000Y-90842630D01*
X120112000Y-91200500D01*
X120093093Y-91258691D01*
X120043593Y-91294655D01*
X120013000Y-91299500D01*
X119651766Y-91299500D01*
X119620593Y-91294464D01*
X119071145Y-91112178D01*
X119068491Y-91111459D01*
X119068566Y-91111180D01*
X119047399Y-91103684D01*
X119045629Y-91102782D01*
X119045626Y-91102781D01*
X119012413Y-91097520D01*
X118945990Y-91087000D01*
X118945988Y-91087000D01*
X118379012Y-91087000D01*
X118379010Y-91087000D01*
X118279374Y-91102781D01*
X118279367Y-91102783D01*
X118159282Y-91163970D01*
X118063970Y-91259282D01*
X118002783Y-91379367D01*
X118002781Y-91379374D01*
X117987000Y-91479010D01*
X117987000Y-91995989D01*
X118002781Y-92095625D01*
X118002783Y-92095632D01*
X118052113Y-92192446D01*
X118063972Y-92215720D01*
X118105283Y-92257031D01*
X118133059Y-92311546D01*
X118123488Y-92371978D01*
X118087251Y-92411293D01*
X117959770Y-92489925D01*
X117839925Y-92609770D01*
X117750954Y-92754012D01*
X117697643Y-92914896D01*
X117687500Y-93014176D01*
X117687500Y-93037499D01*
X117687501Y-93037500D01*
X119637498Y-93037500D01*
X119637499Y-93037499D01*
X119637499Y-93014177D01*
X119627357Y-92914902D01*
X119627354Y-92914890D01*
X119574045Y-92754012D01*
X119485074Y-92609770D01*
X119365230Y-92489926D01*
X119244414Y-92415405D01*
X119204813Y-92368764D01*
X119200190Y-92307754D01*
X119232311Y-92255678D01*
X119233741Y-92254487D01*
X119639567Y-91922842D01*
X119696590Y-91900660D01*
X119702213Y-91900500D01*
X120013000Y-91900500D01*
X120071191Y-91919407D01*
X120107155Y-91968907D01*
X120112000Y-91999500D01*
X120112000Y-92357360D01*
X120112001Y-92357363D01*
X120114914Y-92382490D01*
X120117347Y-92388000D01*
X120160294Y-92485265D01*
X120239735Y-92564706D01*
X120342509Y-92610085D01*
X120367635Y-92613000D01*
X120405844Y-92612999D01*
X120464033Y-92631905D01*
X120499998Y-92681404D01*
X120503997Y-92724920D01*
X120494500Y-92797061D01*
X120494500Y-93351000D01*
X120508317Y-93455950D01*
X120528278Y-93530447D01*
X120528283Y-93530464D01*
X120558659Y-93609593D01*
X120633225Y-93712226D01*
X120633227Y-93712228D01*
X120633230Y-93712232D01*
X120687768Y-93766770D01*
X120753650Y-93820120D01*
X120869550Y-93871721D01*
X120944050Y-93891683D01*
X121049000Y-93905500D01*
X121363000Y-93905500D01*
X121421191Y-93924407D01*
X121457155Y-93973907D01*
X121462000Y-94004500D01*
X121462000Y-94720617D01*
X121443093Y-94778808D01*
X121393593Y-94814772D01*
X121337010Y-94816145D01*
X121332493Y-94814915D01*
X121332491Y-94814915D01*
X121332488Y-94814914D01*
X121332486Y-94814914D01*
X121307368Y-94812000D01*
X121017640Y-94812000D01*
X121017635Y-94812001D01*
X120992509Y-94814914D01*
X120922266Y-94845930D01*
X120889735Y-94860294D01*
X120889734Y-94860294D01*
X120881343Y-94864000D01*
X120880294Y-94861626D01*
X120834743Y-94875037D01*
X120794550Y-94861977D01*
X120793657Y-94864000D01*
X120785266Y-94860295D01*
X120785265Y-94860294D01*
X120682491Y-94814915D01*
X120682490Y-94814914D01*
X120682488Y-94814914D01*
X120657368Y-94812000D01*
X120367640Y-94812000D01*
X120367635Y-94812001D01*
X120342509Y-94814914D01*
X120239735Y-94860294D01*
X120160294Y-94939735D01*
X120114914Y-95042511D01*
X120112000Y-95067630D01*
X120112000Y-95425500D01*
X120093093Y-95483691D01*
X120043593Y-95519655D01*
X120013000Y-95524500D01*
X119769785Y-95524500D01*
X119711594Y-95505593D01*
X119675630Y-95456093D01*
X119675253Y-95454907D01*
X119624968Y-95293260D01*
X119620500Y-95263853D01*
X119620500Y-95215685D01*
X119620500Y-95215684D01*
X119614068Y-95166827D01*
X119606367Y-95150313D01*
X119564066Y-95059598D01*
X119564065Y-95059597D01*
X119564065Y-95059596D01*
X119480404Y-94975935D01*
X119480402Y-94975934D01*
X119480401Y-94975933D01*
X119373175Y-94925932D01*
X119340601Y-94921644D01*
X119324316Y-94919500D01*
X118875684Y-94919500D01*
X118826827Y-94925932D01*
X118826825Y-94925932D01*
X118819551Y-94928053D01*
X118818820Y-94925546D01*
X118770070Y-94931524D01*
X118716562Y-94901851D01*
X118703765Y-94884741D01*
X118690738Y-94862714D01*
X118577285Y-94749261D01*
X118439195Y-94667595D01*
X118285124Y-94622833D01*
X118250000Y-94620068D01*
X118250000Y-95541000D01*
X118231093Y-95599191D01*
X118181593Y-95635155D01*
X118151000Y-95640000D01*
X117187155Y-95640000D01*
X117195255Y-95667880D01*
X117193333Y-95729035D01*
X117155832Y-95777381D01*
X117100944Y-95794266D01*
X117100951Y-95794423D01*
X117100360Y-95794446D01*
X117100186Y-95794500D01*
X117099000Y-95794500D01*
X117066856Y-95797030D01*
X117036206Y-95801883D01*
X117031718Y-95802646D01*
X117031713Y-95802647D01*
X116947617Y-95838591D01*
X116898118Y-95874555D01*
X116870372Y-95898797D01*
X116823464Y-95977307D01*
X116823462Y-95977310D01*
X116804556Y-96035499D01*
X116794500Y-96098996D01*
X116794500Y-96099000D01*
X116794500Y-99901000D01*
X116797030Y-99933144D01*
X116797778Y-99937869D01*
X116801883Y-99963793D01*
X116802646Y-99968281D01*
X116802647Y-99968286D01*
X116838591Y-100052382D01*
X116848551Y-100066090D01*
X116874556Y-100101883D01*
X116898797Y-100129628D01*
X116977307Y-100176536D01*
X117035498Y-100195443D01*
X117047552Y-100197352D01*
X117098996Y-100205500D01*
X117099000Y-100205500D01*
X121900993Y-100205500D01*
X121901000Y-100205500D01*
X121933144Y-100202970D01*
X121963737Y-100198125D01*
X121963748Y-100198123D01*
X121963793Y-100198116D01*
X121968281Y-100197353D01*
X121968280Y-100197353D01*
X121968287Y-100197352D01*
X122052383Y-100161408D01*
X122101883Y-100125444D01*
X122129628Y-100101203D01*
X122176536Y-100022693D01*
X122195443Y-99964502D01*
X122205500Y-99901000D01*
X122205500Y-99321258D01*
X122224407Y-99263067D01*
X122273907Y-99227103D01*
X122329255Y-99227103D01*
X122329518Y-99225874D01*
X122334810Y-99227007D01*
X122437513Y-99237499D01*
X122487500Y-99237498D01*
X122987500Y-99237498D01*
X122987501Y-99237499D01*
X123037486Y-99237499D01*
X123140187Y-99227007D01*
X123140199Y-99227004D01*
X123306624Y-99171856D01*
X123455840Y-99079819D01*
X123579819Y-98955840D01*
X123671856Y-98806624D01*
X123727006Y-98640193D01*
X123737500Y-98537487D01*
X123737500Y-98262501D01*
X123737499Y-98262500D01*
X122987501Y-98262500D01*
X122987500Y-98262501D01*
X122987500Y-99237498D01*
X122487500Y-99237498D01*
X122487500Y-97861500D01*
X122506407Y-97803309D01*
X122555907Y-97767345D01*
X122586500Y-97762500D01*
X123737498Y-97762500D01*
X123737499Y-97762499D01*
X123737499Y-97487513D01*
X123727007Y-97384812D01*
X123727004Y-97384800D01*
X123671856Y-97218375D01*
X123579819Y-97069159D01*
X123455840Y-96945180D01*
X123306625Y-96853143D01*
X123209467Y-96820948D01*
X123160178Y-96784696D01*
X123141610Y-96726396D01*
X123146795Y-96700779D01*
X123145376Y-96700399D01*
X123147056Y-96694127D01*
X123162499Y-96576823D01*
X123162500Y-96576822D01*
X123162500Y-96025001D01*
X123162499Y-96025000D01*
X122361500Y-96025000D01*
X122303309Y-96006093D01*
X122267345Y-95956593D01*
X122262500Y-95926000D01*
X122262500Y-94520488D01*
X122662500Y-94520488D01*
X122662500Y-95624999D01*
X122662501Y-95625000D01*
X123162498Y-95625000D01*
X123162499Y-95624999D01*
X123162499Y-95262167D01*
X123181406Y-95203976D01*
X123230906Y-95168012D01*
X123292092Y-95168012D01*
X123331503Y-95192163D01*
X123444159Y-95304819D01*
X123593375Y-95396856D01*
X123759806Y-95452006D01*
X123862513Y-95462499D01*
X124137498Y-95462499D01*
X124137500Y-95462498D01*
X124637500Y-95462498D01*
X124637501Y-95462499D01*
X124912486Y-95462499D01*
X125015187Y-95452007D01*
X125015199Y-95452004D01*
X125181624Y-95396856D01*
X125330840Y-95304819D01*
X125454819Y-95180840D01*
X125546856Y-95031624D01*
X125602006Y-94865193D01*
X125612500Y-94762487D01*
X125612500Y-94712501D01*
X125612499Y-94712500D01*
X124637501Y-94712500D01*
X124637500Y-94712501D01*
X124637500Y-95462498D01*
X124137500Y-95462498D01*
X124137500Y-94712501D01*
X124137499Y-94712500D01*
X123162501Y-94712500D01*
X123157083Y-94717918D01*
X123102566Y-94745694D01*
X123042134Y-94736122D01*
X123008538Y-94708180D01*
X122990429Y-94684580D01*
X122990419Y-94684570D01*
X122865089Y-94588401D01*
X122865085Y-94588399D01*
X122719131Y-94527944D01*
X122719132Y-94527944D01*
X122662500Y-94520488D01*
X122262500Y-94520488D01*
X122256804Y-94515494D01*
X122214760Y-94507701D01*
X122172643Y-94463318D01*
X122163000Y-94420699D01*
X122163000Y-94073690D01*
X122181907Y-94015499D01*
X122191996Y-94003686D01*
X122261186Y-93934496D01*
X122315703Y-93906719D01*
X122331190Y-93905500D01*
X123087026Y-93905500D01*
X123145217Y-93924407D01*
X123181181Y-93973907D01*
X123181181Y-94035093D01*
X123181001Y-94035639D01*
X123172994Y-94059803D01*
X123172993Y-94059806D01*
X123162500Y-94162512D01*
X123162500Y-94212499D01*
X123162501Y-94212500D01*
X125612498Y-94212500D01*
X125612499Y-94212499D01*
X125612499Y-94162513D01*
X125602007Y-94059812D01*
X125602003Y-94059797D01*
X125593999Y-94035639D01*
X125593643Y-93974455D01*
X125629319Y-93924747D01*
X125687399Y-93905502D01*
X125687974Y-93905500D01*
X126038282Y-93905500D01*
X126091210Y-93902031D01*
X126129774Y-93896954D01*
X126161154Y-93891562D01*
X126279596Y-93846097D01*
X126346391Y-93807533D01*
X126430373Y-93743091D01*
X127438968Y-92734496D01*
X127493485Y-92706719D01*
X127508972Y-92705500D01*
X127901809Y-92705500D01*
X127901814Y-92705500D01*
X127915040Y-92705100D01*
X127916867Y-92705045D01*
X127919857Y-92705000D01*
X128080143Y-92705000D01*
X128083133Y-92705045D01*
X128084959Y-92705100D01*
X128098186Y-92705500D01*
X128098191Y-92705500D01*
X129901809Y-92705500D01*
X129901814Y-92705500D01*
X129915040Y-92705100D01*
X129916867Y-92705045D01*
X129919857Y-92705000D01*
X130080143Y-92705000D01*
X130083133Y-92705045D01*
X130084959Y-92705100D01*
X130098186Y-92705500D01*
X131396807Y-92705500D01*
X131454998Y-92724407D01*
X131490962Y-92773907D01*
X131490962Y-92835093D01*
X131477266Y-92861367D01*
X131477352Y-92861420D01*
X131476638Y-92862571D01*
X131475811Y-92864160D01*
X131474947Y-92865303D01*
X131474938Y-92865318D01*
X131375772Y-93064469D01*
X131314885Y-93278464D01*
X131294357Y-93500000D01*
X131314885Y-93721537D01*
X131324291Y-93754594D01*
X131322030Y-93815738D01*
X131299074Y-93851690D01*
X130780261Y-94370504D01*
X130725744Y-94398281D01*
X130710257Y-94399500D01*
X130587905Y-94399500D01*
X130539826Y-94387042D01*
X129849140Y-94003327D01*
X129807455Y-93958539D01*
X129798652Y-93926030D01*
X129797646Y-93915301D01*
X129752793Y-93787118D01*
X129728789Y-93754594D01*
X129672154Y-93677855D01*
X129672152Y-93677853D01*
X129672150Y-93677850D01*
X129672146Y-93677847D01*
X129672144Y-93677845D01*
X129562883Y-93597207D01*
X129434703Y-93552355D01*
X129434694Y-93552353D01*
X129404274Y-93549500D01*
X129404266Y-93549500D01*
X127995734Y-93549500D01*
X127995725Y-93549500D01*
X127965305Y-93552353D01*
X127965296Y-93552355D01*
X127837116Y-93597207D01*
X127727855Y-93677845D01*
X127727845Y-93677855D01*
X127647207Y-93787116D01*
X127602355Y-93915296D01*
X127602353Y-93915305D01*
X127599500Y-93945725D01*
X127599500Y-94406534D01*
X127582151Y-94462517D01*
X126900643Y-95456483D01*
X126852143Y-95493785D01*
X126818992Y-95499500D01*
X126420943Y-95499500D01*
X126268216Y-95540423D01*
X126131284Y-95619480D01*
X126019480Y-95731284D01*
X125940423Y-95868216D01*
X125899500Y-96020943D01*
X125899500Y-96179057D01*
X125940423Y-96331784D01*
X126019480Y-96468716D01*
X126131284Y-96580520D01*
X126268216Y-96659577D01*
X126420943Y-96700500D01*
X127514864Y-96700500D01*
X127514880Y-96700501D01*
X127520943Y-96700501D01*
X127679055Y-96700501D01*
X127679057Y-96700501D01*
X127831785Y-96659577D01*
X127905130Y-96617231D01*
X127968716Y-96580520D01*
X127999477Y-96549757D01*
X128052487Y-96522231D01*
X128445325Y-96453788D01*
X128445331Y-96453786D01*
X128447677Y-96453259D01*
X128447756Y-96453610D01*
X128470653Y-96450500D01*
X129404273Y-96450500D01*
X129404273Y-96450499D01*
X129434699Y-96447646D01*
X129562882Y-96402793D01*
X129672150Y-96322150D01*
X129752793Y-96212882D01*
X129797646Y-96084699D01*
X129798652Y-96073970D01*
X129822907Y-96017801D01*
X129849139Y-95996671D01*
X130129334Y-95841008D01*
X130539827Y-95612958D01*
X130587905Y-95600500D01*
X130914864Y-95600500D01*
X130914880Y-95600501D01*
X130920943Y-95600501D01*
X131079056Y-95600501D01*
X131079057Y-95600501D01*
X131231785Y-95559577D01*
X131281904Y-95530639D01*
X131368716Y-95480520D01*
X131480520Y-95368716D01*
X131480521Y-95368713D01*
X132149639Y-94699594D01*
X132204154Y-94671819D01*
X132237826Y-94672285D01*
X132388757Y-94700500D01*
X132388758Y-94700500D01*
X132611243Y-94700500D01*
X132829940Y-94659618D01*
X133037401Y-94579247D01*
X133226562Y-94462124D01*
X133390981Y-94312236D01*
X133525058Y-94134689D01*
X133624229Y-93935528D01*
X133685115Y-93721536D01*
X133705643Y-93500000D01*
X133685115Y-93278464D01*
X133624229Y-93064472D01*
X133525058Y-92865311D01*
X133524189Y-92864160D01*
X133523992Y-92863591D01*
X133522648Y-92861420D01*
X133523137Y-92861116D01*
X133504210Y-92806329D01*
X133522039Y-92747799D01*
X133570866Y-92710927D01*
X133603193Y-92705500D01*
X135064872Y-92705500D01*
X135123063Y-92724407D01*
X135159027Y-92773907D01*
X135159027Y-92835093D01*
X135134876Y-92874504D01*
X132383667Y-95625713D01*
X132372739Y-95637534D01*
X132362645Y-95649353D01*
X132362639Y-95649362D01*
X132323464Y-95719314D01*
X132304556Y-95777507D01*
X132294500Y-95841004D01*
X132294500Y-99945500D01*
X132275593Y-100003691D01*
X132226093Y-100039655D01*
X132195500Y-100044500D01*
X131871255Y-100044500D01*
X131813064Y-100025593D01*
X131777100Y-99976093D01*
X131777100Y-99914907D01*
X131801251Y-99875496D01*
X131803217Y-99873529D01*
X131803220Y-99873528D01*
X131898528Y-99778220D01*
X131959719Y-99658126D01*
X131975500Y-99558488D01*
X131975500Y-99041512D01*
X131959719Y-98941874D01*
X131959716Y-98941869D01*
X131959716Y-98941867D01*
X131898529Y-98821782D01*
X131898528Y-98821780D01*
X131803220Y-98726472D01*
X131803217Y-98726470D01*
X131683132Y-98665283D01*
X131683127Y-98665281D01*
X131683126Y-98665281D01*
X131649913Y-98660020D01*
X131583490Y-98649500D01*
X131583488Y-98649500D01*
X131404286Y-98649500D01*
X131380063Y-98646491D01*
X131370595Y-98644101D01*
X131189060Y-98634870D01*
X131156204Y-98627463D01*
X131154588Y-98626793D01*
X131052727Y-98599500D01*
X131052725Y-98599500D01*
X130610905Y-98599500D01*
X130552714Y-98580593D01*
X130550125Y-98578646D01*
X129838720Y-98025330D01*
X129804395Y-97974680D01*
X129800621Y-97948038D01*
X129800608Y-97948039D01*
X129800601Y-97947900D01*
X129800500Y-97947184D01*
X129800500Y-97945727D01*
X129800499Y-97945725D01*
X129797646Y-97915305D01*
X129797646Y-97915301D01*
X129752793Y-97787118D01*
X129734624Y-97762500D01*
X129672154Y-97677855D01*
X129672152Y-97677853D01*
X129672150Y-97677850D01*
X129672146Y-97677847D01*
X129672144Y-97677845D01*
X129562883Y-97597207D01*
X129434703Y-97552355D01*
X129434694Y-97552353D01*
X129404274Y-97549500D01*
X129404266Y-97549500D01*
X127995734Y-97549500D01*
X127995725Y-97549500D01*
X127965305Y-97552353D01*
X127965296Y-97552355D01*
X127837116Y-97597207D01*
X127727855Y-97677845D01*
X127727845Y-97677855D01*
X127647207Y-97787116D01*
X127602355Y-97915296D01*
X127602353Y-97915305D01*
X127599500Y-97945725D01*
X127599500Y-100054274D01*
X127602353Y-100084694D01*
X127602355Y-100084703D01*
X127647207Y-100212883D01*
X127727845Y-100322144D01*
X127727847Y-100322146D01*
X127727850Y-100322150D01*
X127727853Y-100322152D01*
X127727855Y-100322154D01*
X127837114Y-100402791D01*
X127837116Y-100402791D01*
X127837118Y-100402793D01*
X127887149Y-100420299D01*
X127935828Y-100457364D01*
X127953425Y-100515964D01*
X127939437Y-100564520D01*
X127890263Y-100646823D01*
X127890262Y-100646824D01*
X127871356Y-100705013D01*
X127861300Y-100768510D01*
X127861300Y-101124463D01*
X127862458Y-101146237D01*
X127862459Y-101146249D01*
X127864686Y-101167130D01*
X127891376Y-101248635D01*
X127900521Y-101264364D01*
X127922125Y-101301518D01*
X127922138Y-101301539D01*
X127935022Y-101319721D01*
X127943432Y-101331590D01*
X128016777Y-101386221D01*
X128072749Y-101410935D01*
X128107649Y-101422735D01*
X128126677Y-101422961D01*
X128184636Y-101442556D01*
X128220011Y-101492479D01*
X128224500Y-101521949D01*
X128224500Y-101544859D01*
X128224501Y-101544864D01*
X128227414Y-101569990D01*
X128276500Y-101681157D01*
X128274126Y-101682205D01*
X128287537Y-101727757D01*
X128274477Y-101767949D01*
X128276500Y-101768843D01*
X128272794Y-101777234D01*
X128272794Y-101777235D01*
X128235618Y-101861430D01*
X128227414Y-101880011D01*
X128224500Y-101905130D01*
X128224500Y-101927361D01*
X128205593Y-101985552D01*
X128156093Y-102021516D01*
X128134376Y-102025962D01*
X128098517Y-102029190D01*
X128098515Y-102029190D01*
X128098513Y-102029191D01*
X128038345Y-102054907D01*
X128014414Y-102065136D01*
X127964918Y-102101098D01*
X127937172Y-102125340D01*
X127890264Y-102203850D01*
X127890262Y-102203853D01*
X127871356Y-102262042D01*
X127861300Y-102325539D01*
X127861300Y-102325543D01*
X127861300Y-102825792D01*
X127861743Y-102837079D01*
X127861934Y-102841923D01*
X127863153Y-102857402D01*
X127863154Y-102857407D01*
X127884915Y-102934569D01*
X127884917Y-102934575D01*
X127912694Y-102989091D01*
X127950481Y-103041100D01*
X127950483Y-103041102D01*
X127950486Y-103041106D01*
X128059700Y-103150320D01*
X128064998Y-103154845D01*
X128084225Y-103171267D01*
X128084224Y-103171267D01*
X128109293Y-103189480D01*
X128112396Y-103191681D01*
X128113021Y-103192125D01*
X128113026Y-103192127D01*
X128162364Y-103211923D01*
X128209330Y-103251138D01*
X128224500Y-103303802D01*
X128224500Y-103494859D01*
X128224501Y-103494864D01*
X128227414Y-103519990D01*
X128240665Y-103550000D01*
X128264308Y-103603547D01*
X128276500Y-103631157D01*
X128274126Y-103632205D01*
X128287537Y-103677757D01*
X128274477Y-103717949D01*
X128276500Y-103718843D01*
X128272794Y-103727234D01*
X128272794Y-103727235D01*
X128242317Y-103796259D01*
X128227414Y-103830011D01*
X128224500Y-103855130D01*
X128224500Y-103975476D01*
X128205593Y-104033667D01*
X128185768Y-104054018D01*
X128097077Y-104122073D01*
X128097070Y-104122080D01*
X128000901Y-104247410D01*
X128000899Y-104247414D01*
X127940444Y-104393367D01*
X127932988Y-104449999D01*
X127932988Y-104450000D01*
X130367011Y-104450000D01*
X130393226Y-104420107D01*
X130445809Y-104388823D01*
X130501612Y-104392386D01*
X130704209Y-104466363D01*
X130715845Y-104468302D01*
X130727440Y-104470961D01*
X130733525Y-104472747D01*
X130784032Y-104507281D01*
X130800968Y-104554740D01*
X130803189Y-104554347D01*
X130804548Y-104562016D01*
X130804548Y-104562019D01*
X130820510Y-104652071D01*
X130820511Y-104652075D01*
X130844324Y-104708424D01*
X130844326Y-104708428D01*
X130878312Y-104763010D01*
X130878314Y-104763012D01*
X130891402Y-104778117D01*
X130906633Y-104801817D01*
X130930050Y-104853091D01*
X130937987Y-104880123D01*
X130946008Y-104935907D01*
X130946008Y-104964087D01*
X130937987Y-105019872D01*
X130930049Y-105046907D01*
X130906634Y-105098180D01*
X130891398Y-105121887D01*
X130854490Y-105164480D01*
X130833196Y-105182932D01*
X130784652Y-105214130D01*
X130763400Y-105224438D01*
X130750909Y-105228744D01*
X130750888Y-105228752D01*
X130733852Y-105235525D01*
X130733845Y-105235529D01*
X130664453Y-105281181D01*
X130621197Y-105324436D01*
X130597577Y-105352728D01*
X130563527Y-105437616D01*
X130553959Y-105498027D01*
X130553959Y-105498032D01*
X130553958Y-105498038D01*
X130553958Y-105498042D01*
X130551480Y-105534797D01*
X130566376Y-105593919D01*
X130573825Y-105623482D01*
X130601603Y-105678000D01*
X130639390Y-105730009D01*
X130639392Y-105730011D01*
X130639395Y-105730015D01*
X130793347Y-105883967D01*
X130821123Y-105938482D01*
X130811552Y-105998914D01*
X130768287Y-106042179D01*
X130707855Y-106051750D01*
X130697719Y-106049596D01*
X130680723Y-106045042D01*
X130604057Y-106024499D01*
X130456127Y-106024499D01*
X130397936Y-106005592D01*
X130386123Y-105995503D01*
X129890054Y-105499434D01*
X129862277Y-105444917D01*
X129871848Y-105384485D01*
X129915113Y-105341220D01*
X129925687Y-105337162D01*
X129925636Y-105337039D01*
X130077585Y-105274100D01*
X130077589Y-105274098D01*
X130202919Y-105177929D01*
X130202929Y-105177919D01*
X130299098Y-105052589D01*
X130299100Y-105052585D01*
X130359555Y-104906632D01*
X130367011Y-104850000D01*
X127932989Y-104850000D01*
X127940443Y-104906627D01*
X127940445Y-104906635D01*
X127961562Y-104957615D01*
X127966362Y-105018612D01*
X127934393Y-105070781D01*
X127877865Y-105094195D01*
X127870098Y-105094500D01*
X126426128Y-105094500D01*
X126367937Y-105075593D01*
X126356124Y-105065504D01*
X126034496Y-104743876D01*
X126006719Y-104689359D01*
X126005500Y-104673872D01*
X126005500Y-103799009D01*
X126005500Y-103799000D01*
X126003272Y-103770703D01*
X126010503Y-103725053D01*
X126059556Y-103606630D01*
X126067011Y-103550000D01*
X125894429Y-103550000D01*
X125843651Y-103535986D01*
X125822693Y-103523463D01*
X125764499Y-103504556D01*
X125764500Y-103504556D01*
X125701003Y-103494500D01*
X125701000Y-103494500D01*
X125673644Y-103494500D01*
X125673630Y-103494500D01*
X125631225Y-103498926D01*
X125631221Y-103498926D01*
X125591251Y-103507358D01*
X125591234Y-103507363D01*
X125550651Y-103520446D01*
X125550640Y-103520450D01*
X125514146Y-103536564D01*
X125474159Y-103544999D01*
X124749000Y-103544999D01*
X124690809Y-103526092D01*
X124654845Y-103476592D01*
X124650000Y-103445999D01*
X124650000Y-103249000D01*
X124668907Y-103190809D01*
X124718407Y-103154845D01*
X124749000Y-103150000D01*
X126067011Y-103150000D01*
X126067011Y-103149999D01*
X126059556Y-103093372D01*
X126059554Y-103093364D01*
X125999100Y-102947414D01*
X125999098Y-102947410D01*
X125902929Y-102822080D01*
X125902923Y-102822074D01*
X125814231Y-102754018D01*
X125779576Y-102703593D01*
X125775499Y-102675476D01*
X125775499Y-102555139D01*
X125775499Y-102555136D01*
X125772585Y-102530009D01*
X125727206Y-102427235D01*
X125727205Y-102427234D01*
X125723500Y-102418843D01*
X125725875Y-102417794D01*
X125712462Y-102372261D01*
X125725526Y-102332051D01*
X125723500Y-102331157D01*
X125727204Y-102322766D01*
X125727206Y-102322765D01*
X125772585Y-102219991D01*
X125775500Y-102194865D01*
X125775499Y-101905136D01*
X125772585Y-101880009D01*
X125727206Y-101777235D01*
X125727205Y-101777234D01*
X125723500Y-101768843D01*
X125725875Y-101767794D01*
X125712462Y-101722261D01*
X125725526Y-101682051D01*
X125723500Y-101681157D01*
X125727204Y-101672766D01*
X125727206Y-101672765D01*
X125772585Y-101569991D01*
X125775500Y-101544865D01*
X125775499Y-101255136D01*
X125772585Y-101230009D01*
X125727206Y-101127235D01*
X125647765Y-101047794D01*
X125544991Y-101002415D01*
X125544990Y-101002414D01*
X125544988Y-101002414D01*
X125519868Y-100999500D01*
X124180139Y-100999500D01*
X124180136Y-100999501D01*
X124155007Y-101002415D01*
X124145267Y-101006715D01*
X124123407Y-101013474D01*
X124114790Y-101015078D01*
X123891619Y-101093855D01*
X123858666Y-101099500D01*
X123660435Y-101099500D01*
X123584012Y-101119978D01*
X123538511Y-101146247D01*
X123538512Y-101146248D01*
X123515489Y-101159540D01*
X121589519Y-103085508D01*
X121535002Y-103113285D01*
X121521135Y-103114491D01*
X120747237Y-103127153D01*
X120308134Y-103134338D01*
X120308132Y-103134338D01*
X120304114Y-103134404D01*
X120302494Y-103134417D01*
X120299995Y-103134417D01*
X120094070Y-103154698D01*
X120094065Y-103154699D01*
X119896045Y-103214768D01*
X119713547Y-103312316D01*
X119553595Y-103443585D01*
X119553585Y-103443595D01*
X119422316Y-103603547D01*
X119324768Y-103786045D01*
X119264699Y-103984065D01*
X119264698Y-103984070D01*
X119244417Y-104189996D01*
X119244417Y-104190003D01*
X119264698Y-104395929D01*
X119264699Y-104395934D01*
X119324768Y-104593954D01*
X119422316Y-104776452D01*
X119529148Y-104906627D01*
X119553590Y-104936410D01*
X119553595Y-104936414D01*
X119713547Y-105067683D01*
X119713548Y-105067683D01*
X119713550Y-105067685D01*
X119896046Y-105165232D01*
X120028889Y-105205529D01*
X120094065Y-105225300D01*
X120094070Y-105225301D01*
X120299997Y-105245583D01*
X120300000Y-105245583D01*
X120300003Y-105245583D01*
X120505929Y-105225301D01*
X120505934Y-105225300D01*
X120508776Y-105224438D01*
X120703954Y-105165232D01*
X120886450Y-105067685D01*
X121046410Y-104936410D01*
X121177685Y-104776450D01*
X121213190Y-104710023D01*
X121257295Y-104667617D01*
X121317903Y-104659234D01*
X121371864Y-104688076D01*
X121398566Y-104743127D01*
X121399500Y-104756692D01*
X121399500Y-105164521D01*
X121380593Y-105222712D01*
X121370506Y-105234522D01*
X121347379Y-105257649D01*
X121308796Y-105281526D01*
X119921354Y-105745857D01*
X119914456Y-105748303D01*
X119908793Y-105750427D01*
X119908719Y-105750230D01*
X119901467Y-105753123D01*
X119896049Y-105754766D01*
X119713547Y-105852316D01*
X119553595Y-105983585D01*
X119553585Y-105983595D01*
X119422316Y-106143547D01*
X119324768Y-106326045D01*
X119264699Y-106524065D01*
X119264698Y-106524070D01*
X119244417Y-106729996D01*
X119244417Y-106730003D01*
X119264698Y-106935929D01*
X119264699Y-106935934D01*
X119324768Y-107133954D01*
X119422316Y-107316452D01*
X119516967Y-107431785D01*
X119553590Y-107476410D01*
X119553595Y-107476414D01*
X119713547Y-107607683D01*
X119713548Y-107607683D01*
X119713550Y-107607685D01*
X119896046Y-107705232D01*
X120030860Y-107746127D01*
X120094065Y-107765300D01*
X120094070Y-107765301D01*
X120299997Y-107785583D01*
X120300000Y-107785583D01*
X120300003Y-107785583D01*
X120505929Y-107765301D01*
X120505934Y-107765300D01*
X120510902Y-107763793D01*
X120703954Y-107705232D01*
X120886450Y-107607685D01*
X121046410Y-107476410D01*
X121177685Y-107316450D01*
X121275232Y-107133954D01*
X121278513Y-107123135D01*
X121282902Y-107111402D01*
X121284146Y-107108623D01*
X121284151Y-107108615D01*
X121748472Y-105721201D01*
X121772348Y-105682621D01*
X121940460Y-105514511D01*
X121949968Y-105498042D01*
X121980021Y-105445989D01*
X122000500Y-105369562D01*
X122000500Y-104365479D01*
X122019407Y-104307288D01*
X122029496Y-104295475D01*
X122130496Y-104194475D01*
X122185013Y-104166698D01*
X122245445Y-104176269D01*
X122288710Y-104219534D01*
X122299500Y-104264479D01*
X122299500Y-106804520D01*
X122280593Y-106862711D01*
X122270504Y-106874524D01*
X121347379Y-107797648D01*
X121308794Y-107821526D01*
X119921354Y-108285857D01*
X119914456Y-108288303D01*
X119908793Y-108290427D01*
X119908719Y-108290230D01*
X119901467Y-108293123D01*
X119896049Y-108294766D01*
X119713547Y-108392316D01*
X119553595Y-108523585D01*
X119553585Y-108523595D01*
X119422316Y-108683547D01*
X119324768Y-108866045D01*
X119264699Y-109064065D01*
X119264698Y-109064070D01*
X119244417Y-109269996D01*
X119244417Y-109270003D01*
X119264698Y-109475929D01*
X119264699Y-109475934D01*
X119324768Y-109673954D01*
X119422316Y-109856452D01*
X119553585Y-110016404D01*
X119553590Y-110016410D01*
X119553595Y-110016414D01*
X119713547Y-110147683D01*
X119713548Y-110147683D01*
X119713550Y-110147685D01*
X119896046Y-110245232D01*
X119904310Y-110247738D01*
X119917056Y-110252586D01*
X119919019Y-110253492D01*
X119919022Y-110253494D01*
X119919024Y-110253494D01*
X119919027Y-110253496D01*
X120249797Y-110368340D01*
X121290794Y-110729777D01*
X121328324Y-110753295D01*
X121885384Y-111310355D01*
X121913161Y-111364872D01*
X121903590Y-111425304D01*
X121880518Y-111454911D01*
X121870373Y-111463774D01*
X121825653Y-111538622D01*
X121779575Y-111578878D01*
X121718636Y-111584362D01*
X121690959Y-111571347D01*
X121690130Y-111572785D01*
X121684513Y-111569542D01*
X121684511Y-111569540D01*
X121637305Y-111542286D01*
X121637304Y-111542285D01*
X121615986Y-111529977D01*
X121595928Y-111524603D01*
X121556837Y-111503896D01*
X121043596Y-111060547D01*
X121043592Y-111060544D01*
X121040023Y-111057977D01*
X121040160Y-111057785D01*
X121034541Y-111053849D01*
X120886452Y-110932317D01*
X120886452Y-110932316D01*
X120703954Y-110834768D01*
X120505934Y-110774699D01*
X120505929Y-110774698D01*
X120300003Y-110754417D01*
X120299997Y-110754417D01*
X120094070Y-110774698D01*
X120094065Y-110774699D01*
X119896045Y-110834768D01*
X119713547Y-110932316D01*
X119553595Y-111063585D01*
X119553585Y-111063595D01*
X119422316Y-111223547D01*
X119324768Y-111406045D01*
X119264699Y-111604065D01*
X119264698Y-111604070D01*
X119244417Y-111809996D01*
X119244417Y-111810003D01*
X119264698Y-112015929D01*
X119264699Y-112015934D01*
X119324768Y-112213954D01*
X119422316Y-112396452D01*
X119513936Y-112508091D01*
X119553590Y-112556410D01*
X119553595Y-112556414D01*
X119713547Y-112687683D01*
X119713548Y-112687683D01*
X119713550Y-112687685D01*
X119896046Y-112785232D01*
X120032298Y-112826563D01*
X120046328Y-112830819D01*
X120096525Y-112865804D01*
X120116571Y-112923612D01*
X120098810Y-112982163D01*
X120050026Y-113019092D01*
X120043213Y-113021183D01*
X119836505Y-113076570D01*
X119622432Y-113176394D01*
X119622424Y-113176398D01*
X119428926Y-113311886D01*
X119261886Y-113478926D01*
X119126398Y-113672424D01*
X119126394Y-113672432D01*
X119026570Y-113886505D01*
X118969364Y-114100000D01*
X119866988Y-114100000D01*
X119834075Y-114157007D01*
X119800000Y-114284174D01*
X119800000Y-114415826D01*
X119834075Y-114542993D01*
X119866988Y-114600000D01*
X118969364Y-114600000D01*
X119026569Y-114813489D01*
X119126399Y-115027577D01*
X119261886Y-115221073D01*
X119428926Y-115388113D01*
X119622422Y-115523600D01*
X119836509Y-115623430D01*
X120050000Y-115680634D01*
X120050000Y-114783012D01*
X120107007Y-114815925D01*
X120234174Y-114850000D01*
X120365826Y-114850000D01*
X120492993Y-114815925D01*
X120550000Y-114783012D01*
X120550000Y-115680633D01*
X120763490Y-115623430D01*
X120977577Y-115523600D01*
X121171073Y-115388113D01*
X121338113Y-115221073D01*
X121473600Y-115027577D01*
X121573430Y-114813489D01*
X121630636Y-114600000D01*
X120733012Y-114600000D01*
X120765925Y-114542993D01*
X120800000Y-114415826D01*
X120800000Y-114284174D01*
X120765925Y-114157007D01*
X120733012Y-114100000D01*
X121630636Y-114100000D01*
X121573429Y-113886505D01*
X121473605Y-113672432D01*
X121473601Y-113672424D01*
X121338113Y-113478926D01*
X121171073Y-113311886D01*
X120977577Y-113176399D01*
X120763489Y-113076569D01*
X120556786Y-113021183D01*
X120505472Y-112987859D01*
X120483545Y-112930737D01*
X120499381Y-112871637D01*
X120546931Y-112833132D01*
X120553658Y-112830822D01*
X120683533Y-112791425D01*
X120692196Y-112789221D01*
X120696654Y-112788298D01*
X120696666Y-112788297D01*
X121673642Y-112483585D01*
X121734820Y-112484309D01*
X121773120Y-112508091D01*
X122190666Y-112925637D01*
X122209148Y-112951242D01*
X122227521Y-112987859D01*
X122405446Y-113342457D01*
X122408986Y-113349511D01*
X122419500Y-113393910D01*
X122419500Y-113397448D01*
X122419469Y-113399942D01*
X122418777Y-113427378D01*
X122418777Y-113427380D01*
X122423161Y-113452750D01*
X122423758Y-113456674D01*
X122425932Y-113473175D01*
X122426239Y-113474229D01*
X122428746Y-113485063D01*
X122471623Y-113733139D01*
X122471623Y-113766861D01*
X122428747Y-114014933D01*
X122426242Y-114025760D01*
X122425931Y-114026826D01*
X122423759Y-114043320D01*
X122423162Y-114047246D01*
X122418777Y-114072624D01*
X122418776Y-114072629D01*
X122415777Y-114108778D01*
X122415777Y-114108780D01*
X122415800Y-114112859D01*
X122415802Y-114112917D01*
X122417487Y-114138456D01*
X122419500Y-114157720D01*
X122419500Y-114524314D01*
X122425932Y-114573174D01*
X122425932Y-114573175D01*
X122475933Y-114680401D01*
X122475934Y-114680402D01*
X122475935Y-114680404D01*
X122559596Y-114764065D01*
X122559597Y-114764065D01*
X122559598Y-114764066D01*
X122666824Y-114814067D01*
X122666825Y-114814067D01*
X122666827Y-114814068D01*
X122715684Y-114820500D01*
X122715685Y-114820500D01*
X123064314Y-114820500D01*
X123064316Y-114820500D01*
X123113173Y-114814068D01*
X123124859Y-114808618D01*
X123185584Y-114801160D01*
X123239099Y-114830821D01*
X123251912Y-114847947D01*
X123269263Y-114877287D01*
X123382714Y-114990738D01*
X123520804Y-115072404D01*
X123659999Y-115112844D01*
X123660000Y-115112844D01*
X124160000Y-115112844D01*
X124299195Y-115072404D01*
X124299196Y-115072404D01*
X124437285Y-114990738D01*
X124550738Y-114877285D01*
X124632404Y-114739196D01*
X124632404Y-114739195D01*
X124677165Y-114585127D01*
X124677167Y-114585121D01*
X124679930Y-114550000D01*
X124160001Y-114550000D01*
X124160000Y-114550001D01*
X124160000Y-115112844D01*
X123660000Y-115112844D01*
X123660000Y-114149000D01*
X123678907Y-114090809D01*
X123728407Y-114054845D01*
X123759000Y-114050000D01*
X124679930Y-114050000D01*
X124679930Y-114049999D01*
X124677167Y-114014878D01*
X124677165Y-114014872D01*
X124632404Y-113860804D01*
X124632404Y-113860803D01*
X124625043Y-113848356D01*
X124611695Y-113788644D01*
X124635995Y-113732491D01*
X124688660Y-113701345D01*
X124724348Y-113699969D01*
X124728037Y-113700499D01*
X124728039Y-113700500D01*
X124728041Y-113700500D01*
X124871959Y-113700500D01*
X124871961Y-113700500D01*
X125010053Y-113659953D01*
X125131128Y-113582143D01*
X125225377Y-113473373D01*
X125285165Y-113342457D01*
X125305647Y-113200000D01*
X125287900Y-113076569D01*
X125285165Y-113057543D01*
X125231771Y-112940627D01*
X125224796Y-112879840D01*
X125254882Y-112826563D01*
X125310538Y-112801145D01*
X125321824Y-112800500D01*
X126400431Y-112800500D01*
X126458622Y-112819407D01*
X126494586Y-112868907D01*
X126496604Y-112876012D01*
X126806831Y-114146237D01*
X126809235Y-114160587D01*
X126814884Y-114221532D01*
X126814884Y-114221535D01*
X126814885Y-114221536D01*
X126875771Y-114435528D01*
X126974942Y-114634689D01*
X127109019Y-114812236D01*
X127273438Y-114962124D01*
X127462599Y-115079247D01*
X127670060Y-115159618D01*
X127888757Y-115200500D01*
X128111243Y-115200500D01*
X128329940Y-115159618D01*
X128537401Y-115079247D01*
X128726562Y-114962124D01*
X128890981Y-114812236D01*
X129025058Y-114634689D01*
X129124229Y-114435528D01*
X129185115Y-114221536D01*
X129205643Y-114000000D01*
X129185115Y-113778464D01*
X129124229Y-113564472D01*
X129025058Y-113365311D01*
X128890981Y-113187764D01*
X128726562Y-113037876D01*
X128537401Y-112920753D01*
X128537397Y-112920751D01*
X128537395Y-112920750D01*
X128477241Y-112897446D01*
X128459076Y-112888154D01*
X128447866Y-112880872D01*
X127234222Y-112396445D01*
X127187187Y-112357314D01*
X127172136Y-112298009D01*
X127194818Y-112241183D01*
X127246570Y-112208542D01*
X127270923Y-112205500D01*
X127900993Y-112205500D01*
X127901000Y-112205500D01*
X127933144Y-112202970D01*
X127963737Y-112198125D01*
X127963748Y-112198123D01*
X127963793Y-112198116D01*
X127968281Y-112197353D01*
X127968280Y-112197353D01*
X127968287Y-112197352D01*
X128052383Y-112161408D01*
X128101883Y-112125444D01*
X128129628Y-112101203D01*
X128176536Y-112022693D01*
X128195443Y-111964502D01*
X128203734Y-111912153D01*
X128205500Y-111901003D01*
X128205500Y-110679910D01*
X128224407Y-110621719D01*
X128273907Y-110585755D01*
X128335093Y-110585755D01*
X128335641Y-110585935D01*
X128497308Y-110639506D01*
X128600012Y-110649999D01*
X129049998Y-110649999D01*
X129050000Y-110649998D01*
X129550000Y-110649998D01*
X129550001Y-110649999D01*
X129999986Y-110649999D01*
X130102687Y-110639507D01*
X130102699Y-110639504D01*
X130269124Y-110584356D01*
X130418340Y-110492319D01*
X130542319Y-110368340D01*
X130634356Y-110219124D01*
X130689506Y-110052693D01*
X130700000Y-109949987D01*
X130700000Y-109825001D01*
X130699999Y-109825000D01*
X129550001Y-109825000D01*
X129550000Y-109825001D01*
X129550000Y-110649998D01*
X129050000Y-110649998D01*
X129050000Y-109788640D01*
X132284999Y-109788640D01*
X132291401Y-109848186D01*
X132291403Y-109848197D01*
X132341646Y-109982904D01*
X132341647Y-109982906D01*
X132427807Y-110098000D01*
X132427815Y-110098008D01*
X132542909Y-110184168D01*
X132542911Y-110184169D01*
X132677618Y-110234412D01*
X132677629Y-110234414D01*
X132737176Y-110240816D01*
X132859999Y-110240816D01*
X132860000Y-110240815D01*
X133360000Y-110240815D01*
X133360001Y-110240816D01*
X133482824Y-110240816D01*
X133542370Y-110234414D01*
X133542381Y-110234412D01*
X133677085Y-110184171D01*
X133685669Y-110177745D01*
X133743584Y-110158007D01*
X133802039Y-110176080D01*
X133804331Y-110177745D01*
X133812914Y-110184171D01*
X133947618Y-110234412D01*
X133947629Y-110234414D01*
X134007176Y-110240816D01*
X134129999Y-110240816D01*
X134130000Y-110240815D01*
X134630000Y-110240815D01*
X134630001Y-110240816D01*
X134752824Y-110240816D01*
X134812370Y-110234414D01*
X134812381Y-110234412D01*
X134947085Y-110184171D01*
X134955669Y-110177745D01*
X135013584Y-110158007D01*
X135072039Y-110176080D01*
X135074331Y-110177745D01*
X135082914Y-110184171D01*
X135217618Y-110234412D01*
X135217629Y-110234414D01*
X135277176Y-110240816D01*
X135399999Y-110240816D01*
X135400000Y-110240815D01*
X135400000Y-109675817D01*
X135399999Y-109675816D01*
X134630001Y-109675816D01*
X134630000Y-109675817D01*
X134630000Y-110240815D01*
X134130000Y-110240815D01*
X134130000Y-109675817D01*
X134129999Y-109675816D01*
X133360001Y-109675816D01*
X133360000Y-109675817D01*
X133360000Y-110240815D01*
X132860000Y-110240815D01*
X132860000Y-109675817D01*
X132859999Y-109675816D01*
X132285001Y-109675816D01*
X132285000Y-109675817D01*
X132285000Y-109788640D01*
X132284999Y-109788640D01*
X129050000Y-109788640D01*
X129050000Y-109324999D01*
X129550000Y-109324999D01*
X129550001Y-109325000D01*
X130699998Y-109325000D01*
X130699999Y-109324999D01*
X130699999Y-109200013D01*
X130689507Y-109097312D01*
X130689504Y-109097300D01*
X130634356Y-108930875D01*
X130542319Y-108781659D01*
X130418340Y-108657680D01*
X130269124Y-108565643D01*
X130102693Y-108510493D01*
X129999987Y-108500000D01*
X129550001Y-108500000D01*
X129550000Y-108500001D01*
X129550000Y-109324999D01*
X129050000Y-109324999D01*
X129050000Y-108500001D01*
X129049999Y-108500000D01*
X128600013Y-108500000D01*
X128497312Y-108510492D01*
X128497300Y-108510495D01*
X128335640Y-108564064D01*
X128274456Y-108564420D01*
X128224747Y-108528745D01*
X128205502Y-108470665D01*
X128205500Y-108470089D01*
X128205500Y-108304500D01*
X128224407Y-108246309D01*
X128273907Y-108210345D01*
X128304500Y-108205500D01*
X130400993Y-108205500D01*
X130401000Y-108205500D01*
X130433144Y-108202970D01*
X130463737Y-108198125D01*
X130463748Y-108198123D01*
X130463793Y-108198116D01*
X130468281Y-108197353D01*
X130468280Y-108197353D01*
X130468287Y-108197352D01*
X130552383Y-108161408D01*
X130601883Y-108125444D01*
X130629628Y-108101203D01*
X130676536Y-108022693D01*
X130695443Y-107964502D01*
X130704867Y-107905000D01*
X130705500Y-107901003D01*
X130705500Y-107837106D01*
X130724407Y-107778915D01*
X130773907Y-107742951D01*
X130835093Y-107742951D01*
X130853997Y-107751368D01*
X130868215Y-107759577D01*
X131020943Y-107800501D01*
X131020945Y-107800501D01*
X131179059Y-107800501D01*
X131179059Y-107800500D01*
X131331785Y-107759577D01*
X131468716Y-107680520D01*
X131580520Y-107568716D01*
X131659577Y-107431785D01*
X131700501Y-107279058D01*
X131700501Y-107120943D01*
X131675404Y-107027281D01*
X131678605Y-106966181D01*
X131717110Y-106918630D01*
X131776210Y-106902794D01*
X131833332Y-106924720D01*
X131841034Y-106931654D01*
X132585505Y-107676125D01*
X132613281Y-107730640D01*
X132614500Y-107746127D01*
X132614500Y-108277974D01*
X132614501Y-108277986D01*
X132626132Y-108336455D01*
X132626134Y-108336461D01*
X132669259Y-108401001D01*
X132670448Y-108402780D01*
X132721030Y-108436578D01*
X132758909Y-108484628D01*
X132761311Y-108545766D01*
X132727318Y-108596640D01*
X132683367Y-108614574D01*
X132683656Y-108615793D01*
X132677618Y-108617219D01*
X132542911Y-108667462D01*
X132542909Y-108667463D01*
X132427815Y-108753623D01*
X132427807Y-108753631D01*
X132341647Y-108868725D01*
X132341646Y-108868727D01*
X132291403Y-109003434D01*
X132291401Y-109003445D01*
X132285000Y-109062991D01*
X132285000Y-109175815D01*
X132285001Y-109175816D01*
X135801000Y-109175816D01*
X135859191Y-109194723D01*
X135895155Y-109244223D01*
X135900000Y-109274816D01*
X135900000Y-110240815D01*
X135900001Y-110240816D01*
X136022824Y-110240816D01*
X136082370Y-110234414D01*
X136082381Y-110234412D01*
X136217088Y-110184169D01*
X136217090Y-110184168D01*
X136332184Y-110098008D01*
X136332192Y-110098000D01*
X136418349Y-109982909D01*
X136419343Y-109981090D01*
X136420602Y-109979900D01*
X136422597Y-109977236D01*
X136423057Y-109977580D01*
X136463821Y-109939074D01*
X136524501Y-109931226D01*
X136525467Y-109931413D01*
X136544163Y-109935132D01*
X136575244Y-109941315D01*
X136575250Y-109941315D01*
X136575252Y-109941316D01*
X136575253Y-109941316D01*
X137264748Y-109941316D01*
X137269388Y-109940392D01*
X137280666Y-109939389D01*
X137280625Y-109938948D01*
X137286166Y-109938425D01*
X137286166Y-109938424D01*
X137286172Y-109938425D01*
X137294937Y-109936592D01*
X137294939Y-109936590D01*
X137294944Y-109936590D01*
X137299586Y-109935132D01*
X137299720Y-109935560D01*
X137310636Y-109932188D01*
X137314446Y-109931430D01*
X137323231Y-109929683D01*
X137336730Y-109920662D01*
X137352951Y-109911890D01*
X137353437Y-109911683D01*
X137368720Y-109905176D01*
X137605526Y-109743546D01*
X137661336Y-109726316D01*
X137741928Y-109726316D01*
X137800119Y-109745223D01*
X137807322Y-109750988D01*
X137946394Y-109873373D01*
X138043888Y-109959169D01*
X138047479Y-109961797D01*
X138046989Y-109962465D01*
X138064792Y-109977435D01*
X138068871Y-109982142D01*
X138068871Y-109982143D01*
X138178650Y-110052693D01*
X138189947Y-110059953D01*
X138296403Y-110091211D01*
X138328035Y-110100499D01*
X138328036Y-110100499D01*
X138328039Y-110100500D01*
X138328041Y-110100500D01*
X138471959Y-110100500D01*
X138471961Y-110100500D01*
X138610053Y-110059953D01*
X138731128Y-109982143D01*
X138825377Y-109873373D01*
X138885165Y-109742457D01*
X138895395Y-109671303D01*
X138905647Y-109600002D01*
X138905647Y-109599997D01*
X138885165Y-109457543D01*
X138855378Y-109392319D01*
X138825377Y-109326627D01*
X138731128Y-109217857D01*
X138731127Y-109217856D01*
X138731126Y-109217855D01*
X138610057Y-109140049D01*
X138610054Y-109140047D01*
X138610053Y-109140047D01*
X138610050Y-109140046D01*
X138471964Y-109099500D01*
X138471961Y-109099500D01*
X138413223Y-109099500D01*
X138398587Y-109098412D01*
X138377923Y-109095323D01*
X138377922Y-109095323D01*
X138353228Y-109096509D01*
X137863790Y-109120017D01*
X137856629Y-109121712D01*
X137852644Y-109122655D01*
X137829847Y-109125316D01*
X137661338Y-109125316D01*
X137605527Y-109108085D01*
X137368717Y-108946453D01*
X137342205Y-108933534D01*
X137330575Y-108926856D01*
X137323231Y-108921949D01*
X137323230Y-108921948D01*
X137323229Y-108921948D01*
X137320478Y-108921401D01*
X137309797Y-108918650D01*
X137308765Y-108918321D01*
X137308754Y-108918319D01*
X137261553Y-108909207D01*
X137261463Y-108909205D01*
X137246783Y-108910316D01*
X136575249Y-108910316D01*
X136525552Y-108920202D01*
X136464791Y-108913010D01*
X136422827Y-108874220D01*
X136422595Y-108874394D01*
X136421650Y-108873131D01*
X136419861Y-108871478D01*
X136419345Y-108870545D01*
X136418351Y-108868724D01*
X136414685Y-108863827D01*
X136394950Y-108805912D01*
X136413026Y-108747457D01*
X136462008Y-108710791D01*
X136493940Y-108705500D01*
X143900993Y-108705500D01*
X143901000Y-108705500D01*
X143933144Y-108702970D01*
X143963737Y-108698125D01*
X143963748Y-108698123D01*
X143963793Y-108698116D01*
X143968281Y-108697353D01*
X143968280Y-108697353D01*
X143968287Y-108697352D01*
X144052383Y-108661408D01*
X144101883Y-108625444D01*
X144129628Y-108601203D01*
X144176536Y-108522693D01*
X144195443Y-108464502D01*
X144205500Y-108401000D01*
X144205500Y-100349000D01*
X144202970Y-100316856D01*
X144198125Y-100286263D01*
X144198116Y-100286206D01*
X144197353Y-100281718D01*
X144197352Y-100281713D01*
X144161408Y-100197617D01*
X144146092Y-100176537D01*
X144125444Y-100148117D01*
X144101203Y-100120372D01*
X144022693Y-100073464D01*
X144022691Y-100073463D01*
X144022689Y-100073462D01*
X143964499Y-100054556D01*
X143964500Y-100054556D01*
X143901003Y-100044500D01*
X143901000Y-100044500D01*
X138785128Y-100044500D01*
X138726937Y-100025593D01*
X138690973Y-99976093D01*
X138690973Y-99914907D01*
X138715124Y-99875496D01*
X138846277Y-99744343D01*
X139725555Y-98865064D01*
X139730666Y-98859766D01*
X139735481Y-98854593D01*
X139740366Y-98849154D01*
X139796670Y-98784173D01*
X139813578Y-98768711D01*
X139826001Y-98759754D01*
X139842478Y-98746476D01*
X139858843Y-98731776D01*
X140625498Y-97965120D01*
X140680013Y-97937345D01*
X140740445Y-97946916D01*
X140783710Y-97990181D01*
X140794500Y-98035126D01*
X140794500Y-98325371D01*
X140796554Y-98366131D01*
X140796555Y-98366146D01*
X140796555Y-98366149D01*
X140799563Y-98395919D01*
X140802004Y-98415379D01*
X140840236Y-98536350D01*
X140874698Y-98605354D01*
X140917311Y-98672144D01*
X140920292Y-98676816D01*
X141013886Y-98762465D01*
X141078230Y-98804992D01*
X141078236Y-98804995D01*
X141153447Y-98844085D01*
X141153449Y-98844085D01*
X141153452Y-98844087D01*
X141277332Y-98871463D01*
X141277339Y-98871463D01*
X141277342Y-98871464D01*
X141319015Y-98873984D01*
X141354319Y-98876120D01*
X141354321Y-98876119D01*
X141354323Y-98876120D01*
X141402713Y-98873974D01*
X141439009Y-98872366D01*
X141559980Y-98834134D01*
X141628982Y-98799673D01*
X141716703Y-98740419D01*
X141747198Y-98713401D01*
X141766823Y-98699854D01*
X141808983Y-98677726D01*
X141831291Y-98669267D01*
X141854862Y-98663457D01*
X141877512Y-98657876D01*
X141901201Y-98655000D01*
X141948800Y-98655000D01*
X141972485Y-98657875D01*
X142018712Y-98669269D01*
X142041013Y-98677726D01*
X142083170Y-98699852D01*
X142102804Y-98713404D01*
X142162228Y-98766049D01*
X142184898Y-98784181D01*
X142194097Y-98791539D01*
X142201526Y-98796891D01*
X142218401Y-98809048D01*
X142230977Y-98817655D01*
X142234580Y-98820121D01*
X142288406Y-98844085D01*
X142350479Y-98871721D01*
X142424979Y-98891683D01*
X142529929Y-98905500D01*
X142529930Y-98905500D01*
X143451497Y-98905500D01*
X143451510Y-98905500D01*
X143492269Y-98903446D01*
X143522073Y-98900435D01*
X143541522Y-98897994D01*
X143662493Y-98859762D01*
X143662498Y-98859759D01*
X143662502Y-98859758D01*
X143731483Y-98825307D01*
X143731485Y-98825305D01*
X143731492Y-98825302D01*
X143819209Y-98766050D01*
X143822191Y-98763407D01*
X143841824Y-98749854D01*
X143883983Y-98727727D01*
X143906296Y-98719266D01*
X143952513Y-98707876D01*
X143976202Y-98705000D01*
X144023797Y-98705000D01*
X144047487Y-98707876D01*
X144069930Y-98713407D01*
X144093705Y-98719266D01*
X144116014Y-98727727D01*
X144158166Y-98749850D01*
X144177805Y-98763407D01*
X144180772Y-98766036D01*
X144180782Y-98766044D01*
X144180791Y-98766052D01*
X144212667Y-98791547D01*
X144212674Y-98791552D01*
X144212692Y-98791566D01*
X144223947Y-98799673D01*
X144236969Y-98809054D01*
X144253140Y-98820120D01*
X144253143Y-98820122D01*
X144306967Y-98844085D01*
X144369040Y-98871721D01*
X144443540Y-98891683D01*
X144548490Y-98905500D01*
X144548491Y-98905500D01*
X145451497Y-98905500D01*
X145451510Y-98905500D01*
X145492269Y-98903446D01*
X145522073Y-98900435D01*
X145541522Y-98897994D01*
X145662493Y-98859762D01*
X145662498Y-98859759D01*
X145662502Y-98859758D01*
X145731483Y-98825307D01*
X145731485Y-98825305D01*
X145731492Y-98825302D01*
X145819209Y-98766050D01*
X145822191Y-98763407D01*
X145841824Y-98749854D01*
X145883983Y-98727727D01*
X145906296Y-98719266D01*
X145952513Y-98707876D01*
X145976202Y-98705000D01*
X146023797Y-98705000D01*
X146047487Y-98707876D01*
X146069930Y-98713407D01*
X146093705Y-98719266D01*
X146116014Y-98727727D01*
X146158166Y-98749850D01*
X146177805Y-98763407D01*
X146180772Y-98766036D01*
X146180782Y-98766044D01*
X146180791Y-98766052D01*
X146212667Y-98791547D01*
X146212674Y-98791552D01*
X146212692Y-98791566D01*
X146223947Y-98799673D01*
X146236969Y-98809054D01*
X146253140Y-98820120D01*
X146253143Y-98820122D01*
X146306967Y-98844085D01*
X146369040Y-98871721D01*
X146443540Y-98891683D01*
X146548490Y-98905500D01*
X146548491Y-98905500D01*
X147349882Y-98905500D01*
X147356381Y-98905414D01*
X147360445Y-98905361D01*
X147368246Y-98905157D01*
X147478736Y-98886172D01*
X147539287Y-98894952D01*
X147583114Y-98937647D01*
X147594500Y-98983742D01*
X147594500Y-107701000D01*
X147596833Y-107730640D01*
X147597030Y-107733143D01*
X147601883Y-107763793D01*
X147602646Y-107768281D01*
X147602647Y-107768286D01*
X147638591Y-107852382D01*
X147638592Y-107852383D01*
X147674556Y-107901883D01*
X147698797Y-107929628D01*
X147777307Y-107976536D01*
X147835498Y-107995443D01*
X147847552Y-107997352D01*
X147898996Y-108005500D01*
X147899000Y-108005500D01*
X149450500Y-108005500D01*
X149508691Y-108024407D01*
X149544655Y-108073907D01*
X149549500Y-108104500D01*
X149549500Y-113319270D01*
X149530593Y-113377461D01*
X149486266Y-113411584D01*
X149478094Y-113414750D01*
X149462599Y-113420753D01*
X149273438Y-113537876D01*
X149135016Y-113664065D01*
X149109019Y-113687764D01*
X149065550Y-113745326D01*
X148974943Y-113865309D01*
X148974938Y-113865318D01*
X148875772Y-114064469D01*
X148875771Y-114064472D01*
X148814885Y-114278464D01*
X148794357Y-114500000D01*
X148814885Y-114721536D01*
X148875771Y-114935528D01*
X148974942Y-115134689D01*
X149109019Y-115312236D01*
X149273438Y-115462124D01*
X149462599Y-115579247D01*
X149670060Y-115659618D01*
X149888757Y-115700500D01*
X150111243Y-115700500D01*
X150329940Y-115659618D01*
X150537401Y-115579247D01*
X150726562Y-115462124D01*
X150890981Y-115312236D01*
X151025058Y-115134689D01*
X151124229Y-114935528D01*
X151185115Y-114721536D01*
X151205643Y-114500000D01*
X151185115Y-114278464D01*
X151140008Y-114119929D01*
X152944016Y-114119929D01*
X153058912Y-114234825D01*
X153138954Y-114300028D01*
X153295636Y-114378717D01*
X153295641Y-114378719D01*
X153466232Y-114419150D01*
X153641558Y-114419150D01*
X153812148Y-114378719D01*
X153812153Y-114378717D01*
X153968829Y-114300032D01*
X153968835Y-114300027D01*
X154048879Y-114234824D01*
X154048882Y-114234821D01*
X154915074Y-113368628D01*
X154305195Y-112758750D01*
X152944016Y-114119929D01*
X151140008Y-114119929D01*
X151124229Y-114064472D01*
X151025058Y-113865311D01*
X150890981Y-113687764D01*
X150726562Y-113537876D01*
X150537401Y-113420753D01*
X150519571Y-113413845D01*
X150513734Y-113411584D01*
X150466304Y-113372930D01*
X150450500Y-113319270D01*
X150450500Y-113244159D01*
X152291242Y-113244159D01*
X152331672Y-113414750D01*
X152331674Y-113414755D01*
X152410359Y-113571431D01*
X152410364Y-113571437D01*
X152475567Y-113651481D01*
X152475579Y-113651494D01*
X152590461Y-113766375D01*
X153951641Y-112405195D01*
X154658749Y-112405195D01*
X155268628Y-113015074D01*
X156134825Y-112148877D01*
X156200028Y-112068835D01*
X156278717Y-111912153D01*
X156278719Y-111912148D01*
X156319150Y-111741557D01*
X156319150Y-111566232D01*
X156278719Y-111395641D01*
X156278717Y-111395636D01*
X156200032Y-111238960D01*
X156200027Y-111238954D01*
X156134824Y-111158910D01*
X156134812Y-111158897D01*
X156019929Y-111044015D01*
X154658749Y-112405195D01*
X153951641Y-112405195D01*
X153341763Y-111795317D01*
X152475566Y-112661514D01*
X152410363Y-112741556D01*
X152331674Y-112898238D01*
X152331672Y-112898243D01*
X152291242Y-113068834D01*
X152291242Y-113244159D01*
X150450500Y-113244159D01*
X150450500Y-111441762D01*
X153695317Y-111441762D01*
X154305196Y-112051641D01*
X155666375Y-110690462D01*
X155551479Y-110575566D01*
X155471437Y-110510363D01*
X155314755Y-110431674D01*
X155314750Y-110431672D01*
X155144160Y-110391242D01*
X154968834Y-110391242D01*
X154798243Y-110431672D01*
X154798238Y-110431674D01*
X154641562Y-110510359D01*
X154641556Y-110510363D01*
X154561515Y-110575564D01*
X153695317Y-111441762D01*
X150450500Y-111441762D01*
X150450500Y-108849986D01*
X152600001Y-108849986D01*
X152610492Y-108952687D01*
X152610495Y-108952699D01*
X152665643Y-109119124D01*
X152757680Y-109268340D01*
X152881659Y-109392319D01*
X153030875Y-109484356D01*
X153197306Y-109539506D01*
X153300012Y-109549999D01*
X153749998Y-109549999D01*
X153750000Y-109549998D01*
X154250000Y-109549998D01*
X154250001Y-109549999D01*
X154699986Y-109549999D01*
X154802687Y-109539507D01*
X154802699Y-109539504D01*
X154969124Y-109484356D01*
X155118340Y-109392319D01*
X155179996Y-109330664D01*
X155234513Y-109302887D01*
X155294945Y-109312458D01*
X155320004Y-109330664D01*
X155381659Y-109392319D01*
X155530875Y-109484356D01*
X155697306Y-109539506D01*
X155800012Y-109549999D01*
X156249998Y-109549999D01*
X156250000Y-109549998D01*
X156750000Y-109549998D01*
X156750001Y-109549999D01*
X157199986Y-109549999D01*
X157302687Y-109539507D01*
X157302699Y-109539504D01*
X157469124Y-109484356D01*
X157618340Y-109392319D01*
X157742319Y-109268340D01*
X157834356Y-109119124D01*
X157889506Y-108952693D01*
X157900000Y-108849987D01*
X157900000Y-108725001D01*
X157899999Y-108725000D01*
X156750001Y-108725000D01*
X156750000Y-108725001D01*
X156750000Y-109549998D01*
X156250000Y-109549998D01*
X156250000Y-108725001D01*
X156249999Y-108725000D01*
X154250001Y-108725000D01*
X154250000Y-108725001D01*
X154250000Y-109549998D01*
X153750000Y-109549998D01*
X153750000Y-108725001D01*
X153749999Y-108725000D01*
X152600002Y-108725000D01*
X152600001Y-108725001D01*
X152600001Y-108849986D01*
X150450500Y-108849986D01*
X150450500Y-108104500D01*
X150469407Y-108046309D01*
X150518907Y-108010345D01*
X150549500Y-108005500D01*
X152501000Y-108005500D01*
X152559191Y-108024407D01*
X152595155Y-108073907D01*
X152600000Y-108104500D01*
X152600000Y-108224999D01*
X152600001Y-108225000D01*
X157899998Y-108225000D01*
X157899999Y-108224999D01*
X157899999Y-108104500D01*
X157918906Y-108046309D01*
X157968406Y-108010345D01*
X157998999Y-108005500D01*
X162600500Y-108005500D01*
X162658691Y-108024407D01*
X162694655Y-108073907D01*
X162699500Y-108104500D01*
X162699500Y-117996461D01*
X162699248Y-118003524D01*
X162682706Y-118234806D01*
X162680695Y-118248787D01*
X162632163Y-118471881D01*
X162628184Y-118485433D01*
X162548394Y-118699363D01*
X162542526Y-118712213D01*
X162433103Y-118912604D01*
X162425467Y-118924486D01*
X162288642Y-119107263D01*
X162279392Y-119117939D01*
X162117939Y-119279392D01*
X162107263Y-119288642D01*
X161924486Y-119425467D01*
X161912604Y-119433103D01*
X161712213Y-119542526D01*
X161699363Y-119548394D01*
X161485433Y-119628184D01*
X161471881Y-119632163D01*
X161248787Y-119680695D01*
X161234806Y-119682706D01*
X161031124Y-119697274D01*
X161003522Y-119699248D01*
X160996462Y-119699500D01*
X117003538Y-119699500D01*
X116996477Y-119699248D01*
X116966467Y-119697101D01*
X116765193Y-119682706D01*
X116751212Y-119680695D01*
X116528118Y-119632163D01*
X116514566Y-119628184D01*
X116300636Y-119548394D01*
X116287786Y-119542526D01*
X116087395Y-119433103D01*
X116075513Y-119425467D01*
X115892736Y-119288642D01*
X115882060Y-119279392D01*
X115720607Y-119117939D01*
X115711357Y-119107263D01*
X115574530Y-118924483D01*
X115566896Y-118912604D01*
X115457469Y-118712205D01*
X115451605Y-118699363D01*
X115371815Y-118485433D01*
X115367836Y-118471881D01*
X115319304Y-118248787D01*
X115317293Y-118234805D01*
X115300752Y-118003523D01*
X115300500Y-117996461D01*
X115300500Y-117346105D01*
X156775262Y-117346105D01*
X156795503Y-117480392D01*
X156854426Y-117602747D01*
X156873927Y-117626285D01*
X157463323Y-118215681D01*
X157486861Y-118235182D01*
X157609216Y-118294105D01*
X157725912Y-118311694D01*
X157743502Y-118314346D01*
X157743503Y-118314346D01*
X157743504Y-118314346D01*
X157759056Y-118312001D01*
X157877790Y-118294105D01*
X158000145Y-118235182D01*
X158023683Y-118215681D01*
X160115681Y-116123683D01*
X160135182Y-116100145D01*
X160194105Y-115977790D01*
X160202991Y-115918827D01*
X160213928Y-115886263D01*
X160230892Y-115855095D01*
X160247837Y-115832426D01*
X160544114Y-115536151D01*
X160620775Y-115421419D01*
X160673580Y-115293936D01*
X160700500Y-115158602D01*
X160700500Y-115020614D01*
X160700500Y-113050757D01*
X160719407Y-112992566D01*
X160760056Y-112959954D01*
X160902132Y-112898243D01*
X160968617Y-112869365D01*
X160968620Y-112869362D01*
X160968625Y-112869361D01*
X161214147Y-112720055D01*
X161437053Y-112538708D01*
X161633189Y-112328698D01*
X161798901Y-112093936D01*
X161931104Y-111838797D01*
X162027334Y-111568032D01*
X162085798Y-111286686D01*
X162101059Y-111063585D01*
X162105408Y-111000003D01*
X162105408Y-110999996D01*
X162089997Y-110774698D01*
X162085798Y-110713314D01*
X162027334Y-110431968D01*
X161931104Y-110161203D01*
X161798901Y-109906064D01*
X161633189Y-109671302D01*
X161437053Y-109461292D01*
X161214147Y-109279945D01*
X161214142Y-109279942D01*
X161214138Y-109279939D01*
X160968629Y-109130641D01*
X160968617Y-109130634D01*
X160705063Y-109016158D01*
X160705061Y-109016157D01*
X160705058Y-109016156D01*
X160428358Y-108938629D01*
X160143678Y-108899500D01*
X159856322Y-108899500D01*
X159571642Y-108938629D01*
X159571638Y-108938629D01*
X159571638Y-108938630D01*
X159543710Y-108946455D01*
X159294942Y-109016156D01*
X159294939Y-109016156D01*
X159294936Y-109016158D01*
X159031382Y-109130634D01*
X159031370Y-109130641D01*
X158785861Y-109279939D01*
X158785847Y-109279949D01*
X158562952Y-109461287D01*
X158562951Y-109461288D01*
X158562948Y-109461291D01*
X158562947Y-109461292D01*
X158541407Y-109484356D01*
X158366810Y-109671303D01*
X158366805Y-109671309D01*
X158201098Y-109906065D01*
X158068895Y-110161204D01*
X158036095Y-110253496D01*
X157972771Y-110431674D01*
X157972665Y-110431972D01*
X157914203Y-110713308D01*
X157914201Y-110713317D01*
X157894592Y-110999996D01*
X157894592Y-111000003D01*
X157914201Y-111286682D01*
X157914202Y-111286686D01*
X157972666Y-111568032D01*
X158006766Y-111663979D01*
X158058662Y-111810003D01*
X158068896Y-111838797D01*
X158201099Y-112093936D01*
X158274098Y-112197353D01*
X158328617Y-112274590D01*
X158366811Y-112328698D01*
X158562947Y-112538708D01*
X158785853Y-112720055D01*
X158785859Y-112720059D01*
X158785861Y-112720060D01*
X159031370Y-112869358D01*
X159031382Y-112869365D01*
X159147912Y-112919980D01*
X159239942Y-112959954D01*
X159285782Y-113000478D01*
X159299500Y-113050757D01*
X159299500Y-114737402D01*
X159280593Y-114795593D01*
X159243612Y-114826522D01*
X159064834Y-114913007D01*
X159064824Y-114913013D01*
X159050960Y-114923064D01*
X159035811Y-114932105D01*
X158989460Y-114954427D01*
X158965932Y-114973920D01*
X158965920Y-114973931D01*
X156873931Y-117065920D01*
X156873920Y-117065932D01*
X156854428Y-117089459D01*
X156854426Y-117089462D01*
X156854426Y-117089463D01*
X156795503Y-117211818D01*
X156775262Y-117346105D01*
X115300500Y-117346105D01*
X115300500Y-102519746D01*
X119249500Y-102519746D01*
X119249501Y-102519758D01*
X119261132Y-102578227D01*
X119261133Y-102578231D01*
X119305448Y-102644552D01*
X119371769Y-102688867D01*
X119416231Y-102697711D01*
X119430241Y-102700498D01*
X119430246Y-102700498D01*
X119430252Y-102700500D01*
X119430253Y-102700500D01*
X121169747Y-102700500D01*
X121169748Y-102700500D01*
X121228231Y-102688867D01*
X121294552Y-102644552D01*
X121338867Y-102578231D01*
X121350500Y-102519748D01*
X121350500Y-100780252D01*
X121338867Y-100721769D01*
X121294552Y-100655448D01*
X121294548Y-100655445D01*
X121228233Y-100611134D01*
X121228231Y-100611133D01*
X121228228Y-100611132D01*
X121228227Y-100611132D01*
X121169758Y-100599501D01*
X121169748Y-100599500D01*
X119430252Y-100599500D01*
X119430251Y-100599500D01*
X119430241Y-100599501D01*
X119371772Y-100611132D01*
X119371766Y-100611134D01*
X119305451Y-100655445D01*
X119305445Y-100655451D01*
X119261134Y-100721766D01*
X119261132Y-100721772D01*
X119249501Y-100780241D01*
X119249500Y-100780253D01*
X119249500Y-102519746D01*
X115300500Y-102519746D01*
X115300500Y-95139999D01*
X117187155Y-95139999D01*
X117187156Y-95140000D01*
X117749999Y-95140000D01*
X117750000Y-95139999D01*
X117750000Y-94620068D01*
X117714875Y-94622833D01*
X117560804Y-94667595D01*
X117560803Y-94667595D01*
X117422714Y-94749261D01*
X117309261Y-94862714D01*
X117227595Y-95000803D01*
X117227595Y-95000804D01*
X117187155Y-95139999D01*
X115300500Y-95139999D01*
X115300500Y-93560822D01*
X117687501Y-93560822D01*
X117697642Y-93660097D01*
X117697645Y-93660109D01*
X117750954Y-93820987D01*
X117839925Y-93965229D01*
X117959770Y-94085074D01*
X118104012Y-94174045D01*
X118264896Y-94227356D01*
X118364177Y-94237499D01*
X118412500Y-94237498D01*
X118912500Y-94237498D01*
X118912501Y-94237499D01*
X118960822Y-94237499D01*
X119060097Y-94227357D01*
X119060109Y-94227354D01*
X119220987Y-94174045D01*
X119365229Y-94085074D01*
X119485074Y-93965229D01*
X119574045Y-93820987D01*
X119627356Y-93660103D01*
X119637500Y-93560823D01*
X119637500Y-93537501D01*
X119637499Y-93537500D01*
X118912501Y-93537500D01*
X118912500Y-93537501D01*
X118912500Y-94237498D01*
X118412500Y-94237498D01*
X118412500Y-93537501D01*
X118412499Y-93537500D01*
X117687502Y-93537500D01*
X117687501Y-93537501D01*
X117687501Y-93560822D01*
X115300500Y-93560822D01*
X115300500Y-90003538D01*
X115300752Y-89996476D01*
X115317293Y-89765194D01*
X115319304Y-89751212D01*
X115355557Y-89584565D01*
X115367836Y-89528115D01*
X115371815Y-89514566D01*
X115445684Y-89316512D01*
X115451608Y-89300627D01*
X115457466Y-89287799D01*
X115566901Y-89087385D01*
X115574525Y-89075522D01*
X115711364Y-88892727D01*
X115720600Y-88882067D01*
X115882067Y-88720600D01*
X115892727Y-88711364D01*
X116075522Y-88574525D01*
X116087385Y-88566901D01*
X116287799Y-88457466D01*
X116300627Y-88451608D01*
X116514566Y-88371815D01*
X116528115Y-88367836D01*
X116751215Y-88319303D01*
X116765191Y-88317293D01*
X116996476Y-88300751D01*
X117003538Y-88300500D01*
X117047595Y-88300500D01*
X160952405Y-88300500D01*
X160996462Y-88300500D01*
X161003523Y-88300751D01*
G37*
G04 #@! TD.AperFunction*
G04 #@! TA.AperFunction,Conductor*
G36*
X123587600Y-103534110D02*
G01*
X123630865Y-103577375D01*
X123638061Y-103600549D01*
X123638764Y-103600361D01*
X123640444Y-103606631D01*
X123700899Y-103752585D01*
X123700901Y-103752589D01*
X123782368Y-103858759D01*
X123802792Y-103916435D01*
X123801378Y-103935899D01*
X123800067Y-103943476D01*
X123799485Y-103984166D01*
X123798488Y-103996836D01*
X123787987Y-104069873D01*
X123780049Y-104096909D01*
X123756633Y-104148182D01*
X123741398Y-104171887D01*
X123704489Y-104214481D01*
X123683194Y-104232933D01*
X123635780Y-104263404D01*
X123610151Y-104275109D01*
X123556073Y-104290989D01*
X123528179Y-104295000D01*
X123471820Y-104295000D01*
X123443929Y-104290990D01*
X123432111Y-104287520D01*
X123388313Y-104274659D01*
X123366911Y-104265524D01*
X123359554Y-104261300D01*
X123359552Y-104261299D01*
X123359550Y-104261298D01*
X123359551Y-104261298D01*
X123289371Y-104236541D01*
X123228954Y-104226972D01*
X123228944Y-104226971D01*
X123228942Y-104226971D01*
X123201781Y-104225139D01*
X123192188Y-104224493D01*
X123192187Y-104224493D01*
X123162625Y-104231941D01*
X123103501Y-104246838D01*
X123045524Y-104276379D01*
X123044727Y-104274815D01*
X122991678Y-104287520D01*
X122935163Y-104264074D01*
X122903223Y-104211888D01*
X122900500Y-104188830D01*
X122900500Y-104165477D01*
X122919407Y-104107286D01*
X122929490Y-104095480D01*
X123472656Y-103552314D01*
X123527168Y-103524539D01*
X123587600Y-103534110D01*
G37*
G04 #@! TD.AperFunction*
G04 #@! TA.AperFunction,Conductor*
G36*
X133510583Y-108601203D02*
G01*
X133525694Y-108616314D01*
X133537544Y-108627269D01*
X133549357Y-108637358D01*
X133619315Y-108676536D01*
X133677506Y-108695443D01*
X133689560Y-108697352D01*
X133741004Y-108705500D01*
X136300000Y-108705500D01*
X136300000Y-110800000D01*
X128205500Y-110800000D01*
X128205500Y-108500000D01*
X133409379Y-108500000D01*
X133510583Y-108601203D01*
G37*
G04 #@! TD.AperFunction*
G04 #@! TA.AperFunction,Conductor*
G36*
X140859191Y-92618907D02*
G01*
X140895155Y-92668407D01*
X140900000Y-92699000D01*
X140900000Y-97358991D01*
X140881093Y-97417182D01*
X140871004Y-97428995D01*
X139713533Y-98586465D01*
X139697056Y-98599743D01*
X139668869Y-98617858D01*
X139585059Y-98714581D01*
X139580244Y-98719754D01*
X137228996Y-101071004D01*
X137174479Y-101098781D01*
X137158992Y-101100000D01*
X132810307Y-101100000D01*
X132752116Y-101081093D01*
X132740303Y-101071004D01*
X132528996Y-100859697D01*
X132501219Y-100805180D01*
X132500000Y-100789693D01*
X132500000Y-95841008D01*
X132518907Y-95782817D01*
X132528996Y-95771004D01*
X135671004Y-92628996D01*
X135725521Y-92601219D01*
X135741008Y-92600000D01*
X140801000Y-92600000D01*
X140859191Y-92618907D01*
G37*
G04 #@! TD.AperFunction*
G04 #@! TA.AperFunction,Conductor*
G36*
X132253691Y-100268907D02*
G01*
X132289655Y-100318407D01*
X132294500Y-100349000D01*
X132294500Y-100789693D01*
X132294943Y-100800980D01*
X132295134Y-100805824D01*
X132296353Y-100821303D01*
X132296354Y-100821308D01*
X132318115Y-100898470D01*
X132318117Y-100898476D01*
X132345894Y-100952992D01*
X132383681Y-101005001D01*
X132383683Y-101005003D01*
X132383686Y-101005007D01*
X132594993Y-101216314D01*
X132595006Y-101216326D01*
X132595013Y-101216333D01*
X132606833Y-101227260D01*
X132606843Y-101227269D01*
X132618656Y-101237358D01*
X132688614Y-101276536D01*
X132746805Y-101295443D01*
X132759505Y-101297454D01*
X132810303Y-101305500D01*
X136315782Y-101305500D01*
X136373973Y-101324407D01*
X136409937Y-101373907D01*
X136409937Y-101435093D01*
X136398096Y-101459503D01*
X136396135Y-101462437D01*
X136396132Y-101462444D01*
X136384501Y-101520913D01*
X136384500Y-101520925D01*
X136384500Y-102190418D01*
X136384501Y-102190430D01*
X136396132Y-102248899D01*
X136396134Y-102248905D01*
X136440445Y-102315220D01*
X136440448Y-102315224D01*
X136506769Y-102359539D01*
X136550135Y-102368165D01*
X136565241Y-102371170D01*
X136565246Y-102371170D01*
X136565252Y-102371172D01*
X136565253Y-102371172D01*
X137254748Y-102371172D01*
X137259388Y-102370248D01*
X137270666Y-102369245D01*
X137270625Y-102368804D01*
X137276166Y-102368281D01*
X137276166Y-102368280D01*
X137276172Y-102368281D01*
X137284937Y-102366448D01*
X137284939Y-102366446D01*
X137284944Y-102366446D01*
X137289586Y-102364988D01*
X137289720Y-102365416D01*
X137300636Y-102362044D01*
X137303046Y-102361564D01*
X137313231Y-102359539D01*
X137326731Y-102350517D01*
X137342942Y-102341749D01*
X137358720Y-102335032D01*
X137568733Y-102191689D01*
X137627451Y-102174502D01*
X137649111Y-102177557D01*
X138024384Y-102273720D01*
X138032784Y-102274483D01*
X138051702Y-102278085D01*
X138128039Y-102300500D01*
X138128040Y-102300500D01*
X138271959Y-102300500D01*
X138271961Y-102300500D01*
X138410053Y-102259953D01*
X138531128Y-102182143D01*
X138625377Y-102073373D01*
X138685165Y-101942457D01*
X138705647Y-101800000D01*
X138685165Y-101657543D01*
X138625377Y-101526627D01*
X138531128Y-101417857D01*
X138531127Y-101417856D01*
X138531126Y-101417855D01*
X138410057Y-101340049D01*
X138410054Y-101340047D01*
X138410053Y-101340047D01*
X138410050Y-101340046D01*
X138271964Y-101299500D01*
X138271961Y-101299500D01*
X138128039Y-101299500D01*
X138128037Y-101299500D01*
X138070634Y-101316355D01*
X137989947Y-101340047D01*
X137989944Y-101340048D01*
X137989943Y-101340049D01*
X137989455Y-101340271D01*
X137980748Y-101345185D01*
X137644269Y-101510425D01*
X137583703Y-101519104D01*
X137544819Y-101503331D01*
X137484910Y-101462441D01*
X137369307Y-101383537D01*
X137331904Y-101335116D01*
X137330105Y-101273957D01*
X137364597Y-101223421D01*
X137366900Y-101221694D01*
X137374307Y-101216314D01*
X138311624Y-100278995D01*
X138366141Y-100251219D01*
X138381628Y-100250000D01*
X143901000Y-100250000D01*
X143959191Y-100268907D01*
X143995155Y-100318407D01*
X144000000Y-100349000D01*
X144000000Y-108401000D01*
X143981093Y-108459191D01*
X143931593Y-108495155D01*
X143901000Y-108500000D01*
X133741008Y-108500000D01*
X133682817Y-108481093D01*
X133671004Y-108471004D01*
X130784705Y-105584705D01*
X130756928Y-105530188D01*
X130766499Y-105469756D01*
X130809764Y-105426491D01*
X130826816Y-105419712D01*
X130860053Y-105409953D01*
X130981128Y-105332143D01*
X131075377Y-105223373D01*
X131135165Y-105092457D01*
X131145122Y-105023207D01*
X131155647Y-104950002D01*
X131155647Y-104949997D01*
X131135165Y-104807543D01*
X131104550Y-104740506D01*
X131075377Y-104676627D01*
X131033618Y-104628435D01*
X131009802Y-104572078D01*
X131023660Y-104512483D01*
X131069901Y-104472415D01*
X131080542Y-104468617D01*
X131110053Y-104459953D01*
X131231128Y-104382143D01*
X131325377Y-104273373D01*
X131385165Y-104142457D01*
X131405647Y-104000000D01*
X131404285Y-103990529D01*
X131385165Y-103857543D01*
X131384065Y-103855135D01*
X131325377Y-103726627D01*
X131231128Y-103617857D01*
X131231127Y-103617856D01*
X131231126Y-103617855D01*
X131110057Y-103540049D01*
X131110054Y-103540047D01*
X131110053Y-103540047D01*
X131110050Y-103540046D01*
X130971964Y-103499500D01*
X130971961Y-103499500D01*
X130828039Y-103499500D01*
X130828037Y-103499500D01*
X130828033Y-103499501D01*
X130726515Y-103529308D01*
X130713793Y-103532149D01*
X130704220Y-103533633D01*
X130704218Y-103533633D01*
X130266408Y-103693495D01*
X130232452Y-103699500D01*
X130145258Y-103699500D01*
X130087067Y-103680593D01*
X130051103Y-103631093D01*
X130051103Y-103569907D01*
X130054693Y-103560513D01*
X130060724Y-103546853D01*
X130072585Y-103519991D01*
X130075500Y-103494865D01*
X130075499Y-103205136D01*
X130072585Y-103180009D01*
X130027206Y-103077235D01*
X129947765Y-102997794D01*
X129844991Y-102952415D01*
X129844990Y-102952414D01*
X129844988Y-102952414D01*
X129819868Y-102949500D01*
X128480139Y-102949500D01*
X128480136Y-102949501D01*
X128455009Y-102952414D01*
X128352234Y-102997794D01*
X128352230Y-102997797D01*
X128345012Y-103005015D01*
X128290494Y-103032788D01*
X128230063Y-103023212D01*
X128205010Y-103005010D01*
X128095796Y-102895796D01*
X128068019Y-102841279D01*
X128066800Y-102825792D01*
X128066800Y-102325543D01*
X128085707Y-102267352D01*
X128135207Y-102231388D01*
X128196393Y-102231388D01*
X128245893Y-102267352D01*
X128256361Y-102285549D01*
X128272794Y-102322765D01*
X128352235Y-102402206D01*
X128455009Y-102447585D01*
X128480135Y-102450500D01*
X129819864Y-102450499D01*
X129844991Y-102447585D01*
X129854718Y-102443289D01*
X129876602Y-102436521D01*
X129885212Y-102434920D01*
X129983290Y-102400298D01*
X130041831Y-102398017D01*
X130322198Y-102473036D01*
X130325914Y-102473403D01*
X130331531Y-102473960D01*
X130349667Y-102477487D01*
X130428039Y-102500500D01*
X130428040Y-102500500D01*
X130571959Y-102500500D01*
X130571961Y-102500500D01*
X130710053Y-102459953D01*
X130831128Y-102382143D01*
X130925377Y-102273373D01*
X130985165Y-102142457D01*
X131005647Y-102000000D01*
X130985165Y-101857543D01*
X130925377Y-101726627D01*
X130831128Y-101617857D01*
X130831127Y-101617856D01*
X130831126Y-101617855D01*
X130710057Y-101540049D01*
X130710054Y-101540047D01*
X130710053Y-101540047D01*
X130710050Y-101540046D01*
X130571964Y-101499500D01*
X130571961Y-101499500D01*
X130428039Y-101499500D01*
X130428037Y-101499500D01*
X130335652Y-101526627D01*
X130289947Y-101540047D01*
X130289946Y-101540047D01*
X130289941Y-101540049D01*
X130288337Y-101540781D01*
X130281027Y-101544856D01*
X130217193Y-101575368D01*
X130156538Y-101583404D01*
X130102743Y-101554253D01*
X130076357Y-101499050D01*
X130075499Y-101486059D01*
X130075499Y-101255136D01*
X130072585Y-101230009D01*
X130027206Y-101127235D01*
X129947765Y-101047794D01*
X129844991Y-101002415D01*
X129844990Y-101002414D01*
X129844988Y-101002414D01*
X129819869Y-100999500D01*
X129819865Y-100999500D01*
X129752462Y-100999500D01*
X129694271Y-100980593D01*
X129658307Y-100931093D01*
X129654926Y-100883537D01*
X129750839Y-100332037D01*
X129779437Y-100277947D01*
X129834367Y-100250996D01*
X129848375Y-100250000D01*
X132195500Y-100250000D01*
X132253691Y-100268907D01*
G37*
G04 #@! TD.AperFunction*
G04 #@! TA.AperFunction,Conductor*
G36*
X122709408Y-108018907D02*
G01*
X122735309Y-108047893D01*
X122735323Y-108047884D01*
X122735421Y-108048019D01*
X122737327Y-108050152D01*
X122738595Y-108052388D01*
X122759549Y-108081228D01*
X122774556Y-108101883D01*
X122798797Y-108129628D01*
X122877307Y-108176536D01*
X122935498Y-108195443D01*
X122947552Y-108197352D01*
X122998996Y-108205500D01*
X127901000Y-108205500D01*
X127959191Y-108224407D01*
X127995155Y-108273907D01*
X128000000Y-108304500D01*
X128000000Y-111901000D01*
X127981093Y-111959191D01*
X127931593Y-111995155D01*
X127901000Y-112000000D01*
X123465979Y-112000000D01*
X123407788Y-111981093D01*
X123395975Y-111971004D01*
X122028996Y-110604025D01*
X122001219Y-110549508D01*
X122000000Y-110534021D01*
X122000000Y-108099000D01*
X122018907Y-108040809D01*
X122068407Y-108004845D01*
X122099000Y-108000000D01*
X122651217Y-108000000D01*
X122709408Y-108018907D01*
G37*
G04 #@! TD.AperFunction*
G04 #@! TA.AperFunction,Conductor*
G36*
X125759191Y-103718907D02*
G01*
X125795155Y-103768407D01*
X125800000Y-103799000D01*
X125800000Y-104800000D01*
X126300000Y-105300000D01*
X129358992Y-105300000D01*
X129417183Y-105318907D01*
X129428996Y-105328996D01*
X130471004Y-106371004D01*
X130498781Y-106425521D01*
X130500000Y-106441008D01*
X130500000Y-107901000D01*
X130481093Y-107959191D01*
X130431593Y-107995155D01*
X130401000Y-108000000D01*
X122999000Y-108000000D01*
X122940809Y-107981093D01*
X122904845Y-107931593D01*
X122900000Y-107901000D01*
X122900000Y-107019849D01*
X122900500Y-107012224D01*
X122900500Y-104740506D01*
X122919407Y-104682315D01*
X122929490Y-104670509D01*
X123142283Y-104457716D01*
X123196796Y-104429941D01*
X123257228Y-104439512D01*
X123265795Y-104444431D01*
X123289947Y-104459953D01*
X123393982Y-104490500D01*
X123428035Y-104500499D01*
X123428036Y-104500499D01*
X123428039Y-104500500D01*
X123428041Y-104500500D01*
X123571959Y-104500500D01*
X123571961Y-104500500D01*
X123710053Y-104459953D01*
X123831128Y-104382143D01*
X123925377Y-104273373D01*
X123985165Y-104142457D01*
X124005647Y-104000000D01*
X124002558Y-103978517D01*
X124012990Y-103918228D01*
X124030543Y-103894426D01*
X124145476Y-103779493D01*
X124199991Y-103751718D01*
X124215465Y-103750499D01*
X125519864Y-103750499D01*
X125544991Y-103747585D01*
X125609941Y-103718907D01*
X125633656Y-103708436D01*
X125673644Y-103700000D01*
X125701000Y-103700000D01*
X125759191Y-103718907D01*
G37*
G04 #@! TD.AperFunction*
G04 #@! TA.AperFunction,Conductor*
G36*
X125236853Y-89019962D02*
G01*
X125291391Y-89074500D01*
X125310265Y-89131036D01*
X125311720Y-89143008D01*
X125314860Y-89168874D01*
X125375181Y-89327929D01*
X125375182Y-89327930D01*
X125471817Y-89467929D01*
X125471819Y-89467930D01*
X125471820Y-89467932D01*
X125509666Y-89501460D01*
X125569953Y-89554870D01*
X125599146Y-89580732D01*
X125599148Y-89580734D01*
X125749775Y-89659790D01*
X125914944Y-89700500D01*
X126085056Y-89700500D01*
X126250225Y-89659790D01*
X126400852Y-89580734D01*
X126528183Y-89467929D01*
X126624818Y-89327930D01*
X126685140Y-89168872D01*
X126689733Y-89131037D01*
X126718530Y-89059489D01*
X126779244Y-89011923D01*
X126837647Y-89000000D01*
X127162353Y-89000000D01*
X127236853Y-89019962D01*
X127291391Y-89074500D01*
X127310265Y-89131036D01*
X127311720Y-89143008D01*
X127314860Y-89168874D01*
X127375181Y-89327929D01*
X127375182Y-89327930D01*
X127471817Y-89467929D01*
X127471819Y-89467930D01*
X127471820Y-89467932D01*
X127509666Y-89501460D01*
X127569953Y-89554870D01*
X127599146Y-89580732D01*
X127599148Y-89580734D01*
X127749775Y-89659790D01*
X127914944Y-89700500D01*
X128085056Y-89700500D01*
X128250225Y-89659790D01*
X128400852Y-89580734D01*
X128528183Y-89467929D01*
X128624818Y-89327930D01*
X128685140Y-89168872D01*
X128689733Y-89131037D01*
X128718530Y-89059489D01*
X128779244Y-89011923D01*
X128837647Y-89000000D01*
X129162353Y-89000000D01*
X129236853Y-89019962D01*
X129291391Y-89074500D01*
X129310265Y-89131036D01*
X129311720Y-89143008D01*
X129314860Y-89168874D01*
X129375181Y-89327929D01*
X129375182Y-89327930D01*
X129471817Y-89467929D01*
X129471819Y-89467930D01*
X129471820Y-89467932D01*
X129509666Y-89501460D01*
X129569953Y-89554870D01*
X129599146Y-89580732D01*
X129599148Y-89580734D01*
X129749775Y-89659790D01*
X129914944Y-89700500D01*
X130085056Y-89700500D01*
X130250225Y-89659790D01*
X130400852Y-89580734D01*
X130528183Y-89467929D01*
X130624818Y-89327930D01*
X130685140Y-89168872D01*
X130689733Y-89131037D01*
X130718530Y-89059489D01*
X130779244Y-89011923D01*
X130837647Y-89000000D01*
X131162353Y-89000000D01*
X131236853Y-89019962D01*
X131291391Y-89074500D01*
X131310265Y-89131036D01*
X131311720Y-89143008D01*
X131314860Y-89168874D01*
X131375181Y-89327929D01*
X131375182Y-89327930D01*
X131471817Y-89467929D01*
X131471819Y-89467930D01*
X131471820Y-89467932D01*
X131509666Y-89501460D01*
X131569953Y-89554870D01*
X131599146Y-89580732D01*
X131599148Y-89580734D01*
X131749775Y-89659790D01*
X131914944Y-89700500D01*
X132085056Y-89700500D01*
X132250225Y-89659790D01*
X132400852Y-89580734D01*
X132528183Y-89467929D01*
X132624818Y-89327930D01*
X132685140Y-89168872D01*
X132689733Y-89131037D01*
X132718530Y-89059489D01*
X132779244Y-89011923D01*
X132837647Y-89000000D01*
X133162353Y-89000000D01*
X133236853Y-89019962D01*
X133291391Y-89074500D01*
X133310265Y-89131036D01*
X133311720Y-89143008D01*
X133314860Y-89168874D01*
X133375181Y-89327929D01*
X133375182Y-89327930D01*
X133471817Y-89467929D01*
X133471819Y-89467930D01*
X133471820Y-89467932D01*
X133509666Y-89501460D01*
X133569953Y-89554870D01*
X133599146Y-89580732D01*
X133599148Y-89580734D01*
X133749775Y-89659790D01*
X133914944Y-89700500D01*
X134085056Y-89700500D01*
X134250225Y-89659790D01*
X134400852Y-89580734D01*
X134528183Y-89467929D01*
X134624818Y-89327930D01*
X134685140Y-89168872D01*
X134689733Y-89131037D01*
X134718530Y-89059489D01*
X134779244Y-89011923D01*
X134837647Y-89000000D01*
X135162353Y-89000000D01*
X135236853Y-89019962D01*
X135291391Y-89074500D01*
X135310265Y-89131036D01*
X135311720Y-89143008D01*
X135314860Y-89168874D01*
X135375181Y-89327929D01*
X135375182Y-89327930D01*
X135471817Y-89467929D01*
X135471819Y-89467930D01*
X135471820Y-89467932D01*
X135509666Y-89501460D01*
X135569953Y-89554870D01*
X135599146Y-89580732D01*
X135599148Y-89580734D01*
X135749775Y-89659790D01*
X135914944Y-89700500D01*
X136085056Y-89700500D01*
X136250225Y-89659790D01*
X136400852Y-89580734D01*
X136528183Y-89467929D01*
X136624818Y-89327930D01*
X136685140Y-89168872D01*
X136689733Y-89131037D01*
X136718530Y-89059489D01*
X136779244Y-89011923D01*
X136837647Y-89000000D01*
X137162353Y-89000000D01*
X137236853Y-89019962D01*
X137291391Y-89074500D01*
X137310265Y-89131036D01*
X137311720Y-89143008D01*
X137314860Y-89168874D01*
X137375181Y-89327929D01*
X137375182Y-89327930D01*
X137471817Y-89467929D01*
X137471819Y-89467930D01*
X137471820Y-89467932D01*
X137509666Y-89501460D01*
X137569953Y-89554870D01*
X137599146Y-89580732D01*
X137599148Y-89580734D01*
X137749775Y-89659790D01*
X137914944Y-89700500D01*
X138085056Y-89700500D01*
X138250225Y-89659790D01*
X138400852Y-89580734D01*
X138528183Y-89467929D01*
X138624818Y-89327930D01*
X138685140Y-89168872D01*
X138689733Y-89131037D01*
X138718530Y-89059489D01*
X138779244Y-89011923D01*
X138837647Y-89000000D01*
X139162353Y-89000000D01*
X139236853Y-89019962D01*
X139291391Y-89074500D01*
X139310265Y-89131036D01*
X139311720Y-89143008D01*
X139314860Y-89168874D01*
X139375181Y-89327929D01*
X139375182Y-89327930D01*
X139471817Y-89467929D01*
X139471819Y-89467930D01*
X139471820Y-89467932D01*
X139509666Y-89501460D01*
X139569953Y-89554870D01*
X139599146Y-89580732D01*
X139599148Y-89580734D01*
X139749775Y-89659790D01*
X139914944Y-89700500D01*
X140085056Y-89700500D01*
X140250225Y-89659790D01*
X140400852Y-89580734D01*
X140528183Y-89467929D01*
X140624818Y-89327930D01*
X140685140Y-89168872D01*
X140689733Y-89131037D01*
X140718530Y-89059489D01*
X140779244Y-89011923D01*
X140837647Y-89000000D01*
X141162353Y-89000000D01*
X141236853Y-89019962D01*
X141291391Y-89074500D01*
X141310265Y-89131036D01*
X141311720Y-89143008D01*
X141314860Y-89168874D01*
X141375181Y-89327929D01*
X141375182Y-89327930D01*
X141471817Y-89467929D01*
X141471819Y-89467930D01*
X141471820Y-89467932D01*
X141509666Y-89501460D01*
X141569953Y-89554870D01*
X141599146Y-89580732D01*
X141599148Y-89580734D01*
X141749775Y-89659790D01*
X141914944Y-89700500D01*
X142085056Y-89700500D01*
X142250225Y-89659790D01*
X142400852Y-89580734D01*
X142528183Y-89467929D01*
X142624818Y-89327930D01*
X142685140Y-89168872D01*
X142689733Y-89131037D01*
X142718530Y-89059489D01*
X142779244Y-89011923D01*
X142837647Y-89000000D01*
X143162353Y-89000000D01*
X143236853Y-89019962D01*
X143291391Y-89074500D01*
X143310265Y-89131036D01*
X143311720Y-89143008D01*
X143314860Y-89168874D01*
X143375181Y-89327929D01*
X143375182Y-89327930D01*
X143471817Y-89467929D01*
X143471819Y-89467930D01*
X143471820Y-89467932D01*
X143509666Y-89501460D01*
X143569953Y-89554870D01*
X143599146Y-89580732D01*
X143599148Y-89580734D01*
X143749775Y-89659790D01*
X143914944Y-89700500D01*
X144085056Y-89700500D01*
X144250225Y-89659790D01*
X144400852Y-89580734D01*
X144528183Y-89467929D01*
X144624818Y-89327930D01*
X144685140Y-89168872D01*
X144689733Y-89131037D01*
X144718530Y-89059489D01*
X144779244Y-89011923D01*
X144837647Y-89000000D01*
X145162353Y-89000000D01*
X145236853Y-89019962D01*
X145291391Y-89074500D01*
X145310265Y-89131036D01*
X145311720Y-89143008D01*
X145314860Y-89168874D01*
X145375181Y-89327929D01*
X145375182Y-89327930D01*
X145471817Y-89467929D01*
X145471819Y-89467930D01*
X145471820Y-89467932D01*
X145509666Y-89501460D01*
X145569953Y-89554870D01*
X145599146Y-89580732D01*
X145599148Y-89580734D01*
X145749775Y-89659790D01*
X145914944Y-89700500D01*
X146085056Y-89700500D01*
X146250225Y-89659790D01*
X146400852Y-89580734D01*
X146528183Y-89467929D01*
X146624818Y-89327930D01*
X146685140Y-89168872D01*
X146689733Y-89131037D01*
X146718530Y-89059489D01*
X146779244Y-89011923D01*
X146837647Y-89000000D01*
X147165493Y-89000000D01*
X147239993Y-89019962D01*
X147294531Y-89074500D01*
X147313406Y-89131037D01*
X147314859Y-89143004D01*
X147314859Y-89143006D01*
X147324670Y-89168874D01*
X147375182Y-89302066D01*
X147471817Y-89442065D01*
X147471819Y-89442066D01*
X147471820Y-89442068D01*
X147599146Y-89554868D01*
X147599148Y-89554870D01*
X147749775Y-89633926D01*
X147914944Y-89674636D01*
X148085056Y-89674636D01*
X148250225Y-89633926D01*
X148400852Y-89554870D01*
X148528183Y-89442065D01*
X148624818Y-89302066D01*
X148685140Y-89143008D01*
X148685901Y-89136734D01*
X148686594Y-89131037D01*
X148715392Y-89059487D01*
X148776107Y-89011922D01*
X148834507Y-89000000D01*
X149162353Y-89000000D01*
X149236853Y-89019962D01*
X149291391Y-89074500D01*
X149310265Y-89131036D01*
X149311720Y-89143008D01*
X149314860Y-89168874D01*
X149375181Y-89327929D01*
X149375182Y-89327930D01*
X149471817Y-89467929D01*
X149471819Y-89467930D01*
X149471820Y-89467932D01*
X149509666Y-89501460D01*
X149569953Y-89554870D01*
X149599146Y-89580732D01*
X149599148Y-89580734D01*
X149749775Y-89659790D01*
X149914944Y-89700500D01*
X150085056Y-89700500D01*
X150250225Y-89659790D01*
X150400852Y-89580734D01*
X150497298Y-89495290D01*
X150566296Y-89460830D01*
X150643283Y-89465487D01*
X150701460Y-89501460D01*
X151956359Y-90756359D01*
X151994923Y-90823154D01*
X152000000Y-90861718D01*
X152000000Y-94364782D01*
X151980038Y-94439282D01*
X151956359Y-94470141D01*
X150875535Y-95550965D01*
X150843112Y-95599490D01*
X150776984Y-95698457D01*
X150752399Y-95757813D01*
X150752399Y-95757814D01*
X150709105Y-95862334D01*
X150709104Y-95862336D01*
X150674646Y-96035575D01*
X150674646Y-96035576D01*
X150674500Y-96036309D01*
X150674500Y-96304463D01*
X150654538Y-96378963D01*
X150653751Y-96380309D01*
X150648257Y-96389597D01*
X150602402Y-96547428D01*
X150599500Y-96584312D01*
X150599500Y-98015692D01*
X150600926Y-98033812D01*
X150586869Y-98109648D01*
X150536778Y-98168296D01*
X150464073Y-98194041D01*
X150452385Y-98194500D01*
X147899000Y-98194500D01*
X147877857Y-98196163D01*
X147835566Y-98199491D01*
X147804976Y-98204336D01*
X147804967Y-98204338D01*
X147743104Y-98219190D01*
X147743099Y-98219192D01*
X147630062Y-98276787D01*
X147630057Y-98276790D01*
X147580568Y-98312746D01*
X147580563Y-98312749D01*
X147580559Y-98312753D01*
X147580558Y-98312754D01*
X147580550Y-98312761D01*
X147580545Y-98312767D01*
X147490847Y-98402466D01*
X147482606Y-98418642D01*
X147430999Y-98475960D01*
X147357646Y-98499796D01*
X147349845Y-98500000D01*
X146548490Y-98500000D01*
X146473990Y-98480038D01*
X146449688Y-98462531D01*
X146400852Y-98419266D01*
X146400851Y-98419265D01*
X146250224Y-98340209D01*
X146085056Y-98299500D01*
X145914944Y-98299500D01*
X145749775Y-98340209D01*
X145599148Y-98419265D01*
X145586965Y-98430059D01*
X145550313Y-98462529D01*
X145481314Y-98496989D01*
X145451510Y-98500000D01*
X144548490Y-98500000D01*
X144473990Y-98480038D01*
X144449688Y-98462531D01*
X144400852Y-98419266D01*
X144400851Y-98419265D01*
X144250224Y-98340209D01*
X144085056Y-98299500D01*
X143914944Y-98299500D01*
X143749775Y-98340209D01*
X143599148Y-98419265D01*
X143586965Y-98430059D01*
X143550313Y-98462529D01*
X143481314Y-98496989D01*
X143451510Y-98500000D01*
X142529929Y-98500000D01*
X142455429Y-98480038D01*
X142431124Y-98462528D01*
X142325854Y-98369267D01*
X142175224Y-98290209D01*
X142010056Y-98249500D01*
X141839944Y-98249500D01*
X141674775Y-98290209D01*
X141524145Y-98369267D01*
X141447805Y-98436899D01*
X141378803Y-98471360D01*
X141301816Y-98466703D01*
X141237472Y-98424176D01*
X141203011Y-98355174D01*
X141200000Y-98325371D01*
X141200000Y-97709258D01*
X141216239Y-97641615D01*
X141237934Y-97599035D01*
X141266747Y-97542486D01*
X141285654Y-97484295D01*
X141305500Y-97358991D01*
X141305500Y-92699000D01*
X141300509Y-92635572D01*
X141295664Y-92604979D01*
X141280808Y-92543100D01*
X141223211Y-92430059D01*
X141187247Y-92380559D01*
X141187246Y-92380558D01*
X141097536Y-92290849D01*
X140984495Y-92233253D01*
X140926304Y-92214346D01*
X140801000Y-92194500D01*
X140800995Y-92194500D01*
X138037676Y-92194500D01*
X137966760Y-92176542D01*
X137888630Y-92134260D01*
X137669113Y-92058900D01*
X137669112Y-92058899D01*
X137669110Y-92058899D01*
X137440178Y-92020697D01*
X137208080Y-92020697D01*
X136979148Y-92058899D01*
X136979146Y-92058899D01*
X136979144Y-92058900D01*
X136759627Y-92134260D01*
X136681498Y-92176542D01*
X136610582Y-92194500D01*
X135741005Y-92194500D01*
X135709198Y-92195749D01*
X135698577Y-92196585D01*
X135693702Y-92196969D01*
X135693698Y-92196969D01*
X135693691Y-92196970D01*
X135662099Y-92200709D01*
X135662091Y-92200711D01*
X135541438Y-92239911D01*
X135541435Y-92239912D01*
X135487434Y-92267426D01*
X135486945Y-92267672D01*
X135486907Y-92267695D01*
X135481612Y-92271543D01*
X135409607Y-92299184D01*
X135394032Y-92300000D01*
X133262877Y-92300000D01*
X133191962Y-92282041D01*
X133064503Y-92213064D01*
X132844981Y-92137702D01*
X132616049Y-92099500D01*
X132383951Y-92099500D01*
X132155019Y-92137702D01*
X132155017Y-92137702D01*
X132155015Y-92137703D01*
X131935496Y-92213064D01*
X131876257Y-92245122D01*
X131808037Y-92282041D01*
X131737123Y-92300000D01*
X130098186Y-92300000D01*
X130089919Y-92299500D01*
X130085056Y-92299500D01*
X129914944Y-92299500D01*
X129910081Y-92299500D01*
X129901814Y-92300000D01*
X128098186Y-92300000D01*
X128089919Y-92299500D01*
X128085056Y-92299500D01*
X127914944Y-92299500D01*
X127910081Y-92299500D01*
X127901814Y-92300000D01*
X127300000Y-92300000D01*
X126143641Y-93456359D01*
X126076846Y-93494923D01*
X126038282Y-93500000D01*
X121049000Y-93500000D01*
X120974500Y-93480038D01*
X120919962Y-93425500D01*
X120900000Y-93351000D01*
X120900000Y-92797065D01*
X120919962Y-92722565D01*
X120959705Y-92677787D01*
X120970046Y-92670046D01*
X121018755Y-92604979D01*
X121043220Y-92572299D01*
X121103847Y-92524622D01*
X121180190Y-92513646D01*
X121251793Y-92542312D01*
X121281780Y-92572299D01*
X121354952Y-92670044D01*
X121354955Y-92670047D01*
X121470166Y-92756295D01*
X121470170Y-92756297D01*
X121605017Y-92806591D01*
X121664614Y-92812999D01*
X121664618Y-92812999D01*
X121664627Y-92813000D01*
X121960372Y-92812999D01*
X122019983Y-92806591D01*
X122085430Y-92782180D01*
X122162207Y-92774849D01*
X122189564Y-92782178D01*
X122255017Y-92806591D01*
X122275933Y-92808839D01*
X122314614Y-92812999D01*
X122314618Y-92812999D01*
X122314627Y-92813000D01*
X122610372Y-92812999D01*
X122669983Y-92806591D01*
X122787500Y-92762760D01*
X122804829Y-92756297D01*
X122804833Y-92756295D01*
X122917342Y-92672070D01*
X122920046Y-92670046D01*
X122968764Y-92604967D01*
X123006295Y-92554833D01*
X123006297Y-92554829D01*
X123039395Y-92466087D01*
X123056591Y-92419983D01*
X123063000Y-92360373D01*
X123062999Y-90839628D01*
X123056591Y-90780017D01*
X123047225Y-90754907D01*
X123039895Y-90678131D01*
X123071935Y-90607973D01*
X123120191Y-90569574D01*
X123322989Y-90468163D01*
X123348046Y-90458350D01*
X123450390Y-90428618D01*
X123586420Y-90348170D01*
X123698170Y-90236420D01*
X123778618Y-90100390D01*
X123822709Y-89948627D01*
X123825500Y-89913163D01*
X123825499Y-89286838D01*
X123822709Y-89251373D01*
X123805044Y-89190569D01*
X123803429Y-89113457D01*
X123840586Y-89045870D01*
X123906559Y-89005916D01*
X123948128Y-89000000D01*
X125162353Y-89000000D01*
X125236853Y-89019962D01*
G37*
G04 #@! TD.AperFunction*
G04 #@! TA.AperFunction,Conductor*
G36*
X117475843Y-96018907D02*
G01*
X117511807Y-96068407D01*
X117511807Y-96129593D01*
X117507377Y-96140839D01*
X117485932Y-96186827D01*
X117479500Y-96235685D01*
X117479500Y-96584314D01*
X117485932Y-96633174D01*
X117485932Y-96633175D01*
X117535933Y-96740401D01*
X117535934Y-96740402D01*
X117535935Y-96740404D01*
X117619596Y-96824065D01*
X117619597Y-96824065D01*
X117619598Y-96824066D01*
X117726824Y-96874067D01*
X117726825Y-96874067D01*
X117726827Y-96874068D01*
X117775684Y-96880500D01*
X117775685Y-96880500D01*
X118224314Y-96880500D01*
X118224316Y-96880500D01*
X118273173Y-96874068D01*
X118380404Y-96824065D01*
X118464065Y-96740404D01*
X118514068Y-96633173D01*
X118520500Y-96584316D01*
X118520500Y-96583180D01*
X118520599Y-96582799D01*
X118520712Y-96581081D01*
X118521042Y-96581102D01*
X118533154Y-96534750D01*
X118721814Y-96198385D01*
X118738150Y-96176819D01*
X118825643Y-96089326D01*
X118851244Y-96070847D01*
X118896234Y-96048274D01*
X118971490Y-96010514D01*
X119015888Y-96000000D01*
X119201750Y-96000000D01*
X119244401Y-96009659D01*
X119325288Y-96048274D01*
X119344871Y-96062118D01*
X119345339Y-96061509D01*
X119350487Y-96065459D01*
X119419007Y-96105019D01*
X119419011Y-96105021D01*
X119495435Y-96125499D01*
X119495437Y-96125500D01*
X119495438Y-96125500D01*
X120013000Y-96125500D01*
X120071191Y-96144407D01*
X120107155Y-96193907D01*
X120112000Y-96224500D01*
X120112000Y-96582360D01*
X120112000Y-96582362D01*
X120112001Y-96582364D01*
X120112096Y-96583180D01*
X120114914Y-96607490D01*
X120140256Y-96664885D01*
X120160294Y-96710265D01*
X120239735Y-96789706D01*
X120342509Y-96835085D01*
X120367635Y-96838000D01*
X120657364Y-96837999D01*
X120682491Y-96835085D01*
X120785265Y-96789706D01*
X120864706Y-96710265D01*
X120910085Y-96607491D01*
X120913000Y-96582365D01*
X120913000Y-96099000D01*
X120931907Y-96040809D01*
X120981407Y-96004845D01*
X121012000Y-96000000D01*
X121313001Y-96000000D01*
X121371192Y-96018907D01*
X121407156Y-96068407D01*
X121412000Y-96098997D01*
X121412001Y-96582364D01*
X121412096Y-96583180D01*
X121414914Y-96607490D01*
X121440256Y-96664885D01*
X121460294Y-96710265D01*
X121539735Y-96789706D01*
X121642509Y-96835085D01*
X121667635Y-96838000D01*
X121901000Y-96837999D01*
X121959190Y-96856906D01*
X121995154Y-96906406D01*
X122000000Y-96936999D01*
X122000000Y-99901000D01*
X121981093Y-99959191D01*
X121931593Y-99995155D01*
X121901000Y-100000000D01*
X117099000Y-100000000D01*
X117040809Y-99981093D01*
X117004845Y-99931593D01*
X117000000Y-99901000D01*
X117000000Y-96099000D01*
X117018907Y-96040809D01*
X117068407Y-96004845D01*
X117099000Y-96000000D01*
X117417652Y-96000000D01*
X117475843Y-96018907D01*
G37*
G04 #@! TD.AperFunction*
G04 #@! TA.AperFunction,Conductor*
G36*
X162658691Y-98618907D02*
G01*
X162694655Y-98668407D01*
X162699500Y-98699000D01*
X162699500Y-107701000D01*
X162680593Y-107759191D01*
X162631093Y-107795155D01*
X162600500Y-107800000D01*
X157466991Y-107800000D01*
X157408800Y-107781093D01*
X157408203Y-107780655D01*
X157362883Y-107747207D01*
X157234703Y-107702355D01*
X157234694Y-107702353D01*
X157204274Y-107699500D01*
X157204266Y-107699500D01*
X155795734Y-107699500D01*
X155795725Y-107699500D01*
X155765305Y-107702353D01*
X155765296Y-107702355D01*
X155637116Y-107747207D01*
X155626348Y-107755155D01*
X155568301Y-107774497D01*
X155567560Y-107774500D01*
X154932440Y-107774500D01*
X154874249Y-107755593D01*
X154873652Y-107755155D01*
X154862883Y-107747207D01*
X154734703Y-107702355D01*
X154734694Y-107702353D01*
X154704274Y-107699500D01*
X154704266Y-107699500D01*
X153295734Y-107699500D01*
X153295725Y-107699500D01*
X153265305Y-107702353D01*
X153265296Y-107702355D01*
X153137116Y-107747207D01*
X153091797Y-107780655D01*
X153033750Y-107799997D01*
X153033009Y-107800000D01*
X147899000Y-107800000D01*
X147840809Y-107781093D01*
X147804845Y-107731593D01*
X147800000Y-107701000D01*
X147800000Y-98699000D01*
X147818907Y-98640809D01*
X147868407Y-98604845D01*
X147899000Y-98600000D01*
X162600500Y-98600000D01*
X162658691Y-98618907D01*
G37*
G04 #@! TD.AperFunction*
G04 #@! TA.AperFunction,Conductor*
G36*
X124154237Y-112931570D02*
G01*
X124440937Y-112997903D01*
X124448225Y-113003107D01*
X124450000Y-113009302D01*
X124450000Y-113390697D01*
X124446573Y-113398970D01*
X124440937Y-113402096D01*
X124154240Y-113468428D01*
X124145408Y-113466954D01*
X124142833Y-113464774D01*
X124085628Y-113400000D01*
X123915838Y-113207743D01*
X123912931Y-113199275D01*
X123915838Y-113192256D01*
X124142834Y-112935224D01*
X124150878Y-112931292D01*
X124154237Y-112931570D01*
G37*
G04 #@! TD.AperFunction*
G04 #@! TA.AperFunction,Conductor*
G36*
X121960862Y-94815927D02*
G01*
X121964130Y-94822277D01*
X122012071Y-95109928D01*
X122011796Y-95115009D01*
X121823766Y-95785808D01*
X121818233Y-95792849D01*
X121809342Y-95793916D01*
X121802301Y-95788383D01*
X121801234Y-95785808D01*
X121613203Y-95115009D01*
X121612928Y-95109931D01*
X121660870Y-94822275D01*
X121665611Y-94814679D01*
X121672411Y-94812500D01*
X121952589Y-94812500D01*
X121960862Y-94815927D01*
G37*
G04 #@! TD.AperFunction*
G04 #@! TA.AperFunction,Conductor*
G36*
X129607708Y-94104282D02*
G01*
X130493982Y-94596657D01*
X130499550Y-94603670D01*
X130500000Y-94606884D01*
X130500000Y-95393115D01*
X130496573Y-95401388D01*
X130493982Y-95403343D01*
X129607710Y-95895716D01*
X129598814Y-95896738D01*
X129593759Y-95893766D01*
X128707287Y-95008278D01*
X128703856Y-95000006D01*
X128707278Y-94991731D01*
X128707287Y-94991722D01*
X129593760Y-94106232D01*
X129602034Y-94102811D01*
X129607708Y-94104282D01*
G37*
G04 #@! TD.AperFunction*
G04 #@! TA.AperFunction,Conductor*
G36*
X127809277Y-94513255D02*
G01*
X128693242Y-94995765D01*
X128698861Y-95002736D01*
X128699046Y-95008620D01*
X128419455Y-96242398D01*
X128414284Y-96249709D01*
X128410052Y-96251338D01*
X126996550Y-96497611D01*
X126987812Y-96495655D01*
X126983016Y-96488093D01*
X126982842Y-96486085D01*
X126982842Y-95703626D01*
X126984892Y-95697010D01*
X127794022Y-94516909D01*
X127801527Y-94512024D01*
X127809277Y-94513255D01*
G37*
G04 #@! TD.AperFunction*
G04 #@! TA.AperFunction,Conductor*
G36*
X128708007Y-99009089D02*
G01*
X128711423Y-99011705D01*
X129596199Y-99995772D01*
X129599183Y-100004216D01*
X129599026Y-100005600D01*
X129401686Y-101140305D01*
X129396892Y-101147868D01*
X129390159Y-101150000D01*
X129004723Y-101150000D01*
X128996601Y-101146722D01*
X128073018Y-100255997D01*
X128069442Y-100247787D01*
X128070700Y-100242294D01*
X128692284Y-99014243D01*
X128699078Y-99008410D01*
X128708007Y-99009089D01*
G37*
G04 #@! TD.AperFunction*
G04 #@! TA.AperFunction,Conductor*
G36*
X129608148Y-98106338D02*
G01*
X130017687Y-98424867D01*
X130495483Y-98796487D01*
X130499910Y-98804270D01*
X130500000Y-98805721D01*
X130500000Y-99194278D01*
X130496573Y-99202551D01*
X130495483Y-99203513D01*
X129608148Y-99893661D01*
X129599514Y-99896036D01*
X129592696Y-99892704D01*
X128707287Y-99008278D01*
X128703856Y-99000006D01*
X128707278Y-98991731D01*
X128707287Y-98991722D01*
X128902740Y-98796486D01*
X129592697Y-98107294D01*
X129600971Y-98103873D01*
X129608148Y-98106338D01*
G37*
G04 #@! TD.AperFunction*
G04 #@! TA.AperFunction,Conductor*
G36*
X130402205Y-98800624D02*
G01*
X131360160Y-98849337D01*
X131368248Y-98853180D01*
X131371250Y-98861616D01*
X131371117Y-98862875D01*
X131301765Y-99295225D01*
X131297087Y-99302840D01*
X130859791Y-99620303D01*
X130851082Y-99622390D01*
X130844988Y-99619438D01*
X130393689Y-99203475D01*
X130389928Y-99195348D01*
X130389918Y-99194872D01*
X130389918Y-98812310D01*
X130393345Y-98804037D01*
X130401618Y-98800610D01*
X130402205Y-98800624D01*
G37*
G04 #@! TD.AperFunction*
G04 #@! TA.AperFunction,Conductor*
G36*
X160488584Y-114934203D02*
G01*
X160492011Y-114942476D01*
X160490588Y-114948069D01*
X160009031Y-115832858D01*
X160004006Y-115837720D01*
X158523795Y-116581241D01*
X158514864Y-116581892D01*
X158508088Y-116576038D01*
X158507437Y-116567107D01*
X158507827Y-116566089D01*
X158827055Y-115837720D01*
X159148701Y-115103833D01*
X159154319Y-115098001D01*
X159464253Y-114948069D01*
X159497586Y-114931944D01*
X159502681Y-114930776D01*
X160480311Y-114930776D01*
X160488584Y-114934203D01*
G37*
G04 #@! TD.AperFunction*
G04 #@! TA.AperFunction,Conductor*
G36*
X121433437Y-105460129D02*
G01*
X121436490Y-105462327D01*
X121567672Y-105593509D01*
X121571099Y-105601782D01*
X121570494Y-105605495D01*
X121089275Y-107043396D01*
X121083400Y-107050154D01*
X121074467Y-107050778D01*
X121073714Y-107050497D01*
X120303785Y-106732562D01*
X120297447Y-106726238D01*
X119979502Y-105956284D01*
X119979511Y-105947330D01*
X119985850Y-105941005D01*
X119986581Y-105940731D01*
X121424506Y-105459505D01*
X121433437Y-105460129D01*
G37*
G04 #@! TD.AperFunction*
G04 #@! TA.AperFunction,Conductor*
G36*
X124628449Y-101985543D02*
G01*
X124812197Y-102038762D01*
X124819190Y-102044355D01*
X124820180Y-102053255D01*
X124814587Y-102060248D01*
X124812197Y-102061238D01*
X124190339Y-102241343D01*
X124183190Y-102241138D01*
X124082555Y-102205614D01*
X123932806Y-102152755D01*
X123926145Y-102146770D01*
X123925000Y-102141722D01*
X123925000Y-101958277D01*
X123928427Y-101950004D01*
X123932803Y-101947245D01*
X124183193Y-101858860D01*
X124190336Y-101858656D01*
X124628449Y-101985543D01*
G37*
G04 #@! TD.AperFunction*
G04 #@! TA.AperFunction,Conductor*
G36*
X120909261Y-111216060D02*
G01*
X121914739Y-112084614D01*
X121918760Y-112092615D01*
X121915945Y-112101116D01*
X121915364Y-112101741D01*
X121784879Y-112232226D01*
X121780090Y-112235122D01*
X120635479Y-112592117D01*
X120626560Y-112591309D01*
X120621188Y-112585430D01*
X120302293Y-111816526D01*
X120302289Y-111807571D01*
X120304834Y-111803764D01*
X120893351Y-111216630D01*
X120901627Y-111213214D01*
X120909261Y-111216060D01*
G37*
G04 #@! TD.AperFunction*
G04 #@! TA.AperFunction,Conductor*
G36*
X122526643Y-112691143D02*
G01*
X122943355Y-112876233D01*
X122949525Y-112882722D01*
X122950099Y-112889116D01*
X122891893Y-113194482D01*
X122886978Y-113201967D01*
X122884843Y-113203114D01*
X122630035Y-113307717D01*
X122621080Y-113307689D01*
X122615135Y-113302141D01*
X122407895Y-112889116D01*
X122381670Y-112836852D01*
X122381023Y-112827922D01*
X122383853Y-112823335D01*
X122513625Y-112693563D01*
X122521897Y-112690137D01*
X122526643Y-112691143D01*
G37*
G04 #@! TD.AperFunction*
G04 #@! TA.AperFunction,Conductor*
G36*
X122896637Y-113203572D02*
G01*
X123153832Y-113380751D01*
X123158701Y-113388266D01*
X123158724Y-113392379D01*
X123091678Y-113780293D01*
X123086892Y-113787861D01*
X123080149Y-113790000D01*
X122699851Y-113790000D01*
X122691578Y-113786573D01*
X122688322Y-113780293D01*
X122621275Y-113392379D01*
X122623243Y-113383643D01*
X122626164Y-113380753D01*
X122883363Y-113203571D01*
X122892120Y-113201701D01*
X122896637Y-113203572D01*
G37*
G04 #@! TD.AperFunction*
G04 #@! TA.AperFunction,Conductor*
G36*
X123088422Y-113713427D02*
G01*
X123091678Y-113719707D01*
X123158724Y-114107620D01*
X123156756Y-114116356D01*
X123153832Y-114119248D01*
X122896637Y-114296427D01*
X122887880Y-114298298D01*
X122883363Y-114296427D01*
X122626167Y-114119248D01*
X122621298Y-114111733D01*
X122621275Y-114107623D01*
X122688322Y-113719706D01*
X122693108Y-113712139D01*
X122699851Y-113710000D01*
X123080149Y-113710000D01*
X123088422Y-113713427D01*
G37*
G04 #@! TD.AperFunction*
G04 #@! TA.AperFunction,Conductor*
G36*
X121643882Y-103321439D02*
G01*
X121644018Y-103321573D01*
X121775183Y-103452738D01*
X121778610Y-103461011D01*
X121776676Y-103467455D01*
X121090611Y-104507228D01*
X121083194Y-104512246D01*
X121076379Y-104511598D01*
X120306533Y-104193696D01*
X120300194Y-104187371D01*
X120299299Y-104182874D01*
X120299990Y-103351497D01*
X120303424Y-103343229D01*
X120311496Y-103339811D01*
X121635554Y-103318148D01*
X121643882Y-103321439D01*
G37*
G04 #@! TD.AperFunction*
G04 #@! TA.AperFunction,Conductor*
G36*
X124628449Y-101335543D02*
G01*
X124812197Y-101388762D01*
X124819190Y-101394355D01*
X124820180Y-101403255D01*
X124814587Y-101410248D01*
X124812197Y-101411238D01*
X124190339Y-101591343D01*
X124183190Y-101591138D01*
X124082555Y-101555614D01*
X123932806Y-101502755D01*
X123926145Y-101496770D01*
X123925000Y-101491722D01*
X123925000Y-101308277D01*
X123928427Y-101300004D01*
X123932803Y-101297245D01*
X124183193Y-101208860D01*
X124190336Y-101208656D01*
X124628449Y-101335543D01*
G37*
G04 #@! TD.AperFunction*
G04 #@! TA.AperFunction,Conductor*
G36*
X121172566Y-95865228D02*
G01*
X121173834Y-95868289D01*
X121354888Y-96575768D01*
X121262500Y-96837500D01*
X121062500Y-96837500D01*
X120970112Y-96575768D01*
X121151165Y-95868290D01*
X121156536Y-95861126D01*
X121165401Y-95859857D01*
X121172566Y-95865228D01*
G37*
G04 #@! TD.AperFunction*
G04 #@! TA.AperFunction,Conductor*
G36*
X126783544Y-112437823D02*
G01*
X128371685Y-113071730D01*
X128378099Y-113077979D01*
X128378214Y-113086933D01*
X128378162Y-113087063D01*
X128002562Y-113996215D01*
X127996235Y-114002553D01*
X127996215Y-114002562D01*
X127088718Y-114377478D01*
X127079764Y-114377469D01*
X127073437Y-114371131D01*
X127072887Y-114369447D01*
X126636528Y-112582780D01*
X126637894Y-112573932D01*
X126639617Y-112571737D01*
X126770938Y-112440416D01*
X126779210Y-112436990D01*
X126783544Y-112437823D01*
G37*
G04 #@! TD.AperFunction*
G04 #@! TA.AperFunction,Conductor*
G36*
X124628449Y-102635543D02*
G01*
X124812197Y-102688762D01*
X124819190Y-102694355D01*
X124820180Y-102703255D01*
X124814587Y-102710248D01*
X124812197Y-102711238D01*
X124190339Y-102891343D01*
X124183190Y-102891138D01*
X124082555Y-102855614D01*
X123932806Y-102802755D01*
X123926145Y-102796770D01*
X123925000Y-102791722D01*
X123925000Y-102608277D01*
X123928427Y-102600004D01*
X123932803Y-102597245D01*
X124183193Y-102508860D01*
X124190336Y-102508656D01*
X124628449Y-102635543D01*
G37*
G04 #@! TD.AperFunction*
G04 #@! TA.AperFunction,Conductor*
G36*
X121082511Y-108949576D02*
G01*
X121088836Y-108955915D01*
X121089166Y-108956818D01*
X121552636Y-110406593D01*
X121551891Y-110415517D01*
X121549765Y-110418429D01*
X121418571Y-110549623D01*
X121410298Y-110553050D01*
X121406460Y-110552403D01*
X119986425Y-110059362D01*
X119979734Y-110053411D01*
X119979210Y-110044471D01*
X119979449Y-110043843D01*
X120297438Y-109273783D01*
X120303759Y-109267448D01*
X121073557Y-108949567D01*
X121082511Y-108949576D01*
G37*
G04 #@! TD.AperFunction*
G04 #@! TA.AperFunction,Conductor*
G36*
X121433437Y-108000129D02*
G01*
X121436490Y-108002327D01*
X121567672Y-108133509D01*
X121571099Y-108141782D01*
X121570494Y-108145495D01*
X121089275Y-109583396D01*
X121083400Y-109590154D01*
X121074467Y-109590778D01*
X121073714Y-109590497D01*
X120303785Y-109272562D01*
X120297447Y-109266238D01*
X119979502Y-108496284D01*
X119979511Y-108487330D01*
X119985850Y-108481005D01*
X119986581Y-108480731D01*
X121424506Y-107999505D01*
X121433437Y-108000129D01*
G37*
G04 #@! TD.AperFunction*
G04 #@! TA.AperFunction,Conductor*
G36*
X120318461Y-91405932D02*
G01*
X120505164Y-91591706D01*
X120508612Y-91599971D01*
X120505206Y-91608252D01*
X120505164Y-91608294D01*
X120318461Y-91794067D01*
X120310180Y-91797473D01*
X120304977Y-91796238D01*
X120118968Y-91703234D01*
X120113100Y-91696469D01*
X120112500Y-91692769D01*
X120112500Y-91507231D01*
X120115927Y-91498958D01*
X120118968Y-91496766D01*
X120304978Y-91403760D01*
X120313909Y-91403126D01*
X120318461Y-91405932D01*
G37*
G04 #@! TD.AperFunction*
G04 #@! TA.AperFunction,Conductor*
G36*
X119006440Y-91307226D02*
G01*
X119579485Y-91497340D01*
X119586257Y-91503198D01*
X119587500Y-91508445D01*
X119587500Y-91694450D01*
X119584073Y-91702723D01*
X119583204Y-91703510D01*
X119079527Y-92115120D01*
X119070952Y-92117701D01*
X119064125Y-92114599D01*
X118669295Y-91744801D01*
X118665599Y-91736645D01*
X118668061Y-91729074D01*
X118993530Y-91311141D01*
X119001315Y-91306721D01*
X119006440Y-91307226D01*
G37*
G04 #@! TD.AperFunction*
G04 #@! TA.AperFunction,Conductor*
G36*
X119418457Y-95329998D02*
G01*
X119423127Y-95336250D01*
X119543532Y-95723302D01*
X119544060Y-95726777D01*
X119544060Y-95906448D01*
X119540633Y-95914721D01*
X119532360Y-95918148D01*
X119527319Y-95917007D01*
X118998925Y-95664754D01*
X118992936Y-95658097D01*
X118993131Y-95649779D01*
X119096623Y-95395832D01*
X119102919Y-95389464D01*
X119105174Y-95388772D01*
X119409675Y-95328249D01*
X119418457Y-95329998D01*
G37*
G04 #@! TD.AperFunction*
G04 #@! TA.AperFunction,Conductor*
G36*
X120318461Y-95630932D02*
G01*
X120505164Y-95816706D01*
X120508612Y-95824971D01*
X120505206Y-95833252D01*
X120505164Y-95833294D01*
X120318461Y-96019067D01*
X120310180Y-96022473D01*
X120304977Y-96021238D01*
X120118968Y-95928234D01*
X120113100Y-95921469D01*
X120112500Y-95917769D01*
X120112500Y-95732231D01*
X120115927Y-95723958D01*
X120118968Y-95721766D01*
X120304978Y-95628760D01*
X120313909Y-95628126D01*
X120318461Y-95630932D01*
G37*
G04 #@! TD.AperFunction*
G04 #@! TA.AperFunction,Conductor*
G36*
X118414475Y-95938868D02*
G01*
X118418138Y-95941349D01*
X118547838Y-96071049D01*
X118551265Y-96079322D01*
X118549769Y-96085046D01*
X118324422Y-96486818D01*
X118317387Y-96492357D01*
X118311254Y-96492412D01*
X118005261Y-96412270D01*
X117998126Y-96406859D01*
X117997213Y-96404904D01*
X117906067Y-96150621D01*
X117906502Y-96141678D01*
X117912736Y-96135810D01*
X118405524Y-95938758D01*
X118414475Y-95938868D01*
G37*
G04 #@! TD.AperFunction*
G04 #@! TA.AperFunction,Conductor*
G36*
X119094482Y-95388106D02*
G01*
X119101967Y-95393021D01*
X119103114Y-95395156D01*
X119207718Y-95649964D01*
X119207690Y-95658918D01*
X119202142Y-95664864D01*
X118736853Y-95898328D01*
X118727922Y-95898976D01*
X118723333Y-95896144D01*
X118593564Y-95766375D01*
X118590137Y-95758102D01*
X118591143Y-95753357D01*
X118776233Y-95336642D01*
X118782722Y-95330474D01*
X118789113Y-95329900D01*
X119094482Y-95388106D01*
G37*
G04 #@! TD.AperFunction*
G04 #@! TA.AperFunction,Conductor*
G36*
X121912495Y-90590927D02*
G01*
X121915255Y-90595306D01*
X122003704Y-90845880D01*
X122004006Y-90852675D01*
X121823835Y-91556707D01*
X121818464Y-91563872D01*
X121809599Y-91565141D01*
X121802434Y-91559770D01*
X121801165Y-91556707D01*
X121620993Y-90852675D01*
X121621295Y-90845880D01*
X121709745Y-90595306D01*
X121715730Y-90588645D01*
X121720778Y-90587500D01*
X121904222Y-90587500D01*
X121912495Y-90590927D01*
G37*
G04 #@! TD.AperFunction*
G04 #@! TA.AperFunction,Conductor*
G36*
X121870197Y-89506329D02*
G01*
X121875293Y-89513692D01*
X121875548Y-89515703D01*
X121912021Y-90441849D01*
X121908922Y-90450250D01*
X121900790Y-90454000D01*
X121900330Y-90454009D01*
X121716119Y-90454009D01*
X121709513Y-90451966D01*
X121150555Y-90069613D01*
X121145663Y-90062114D01*
X121147176Y-90053860D01*
X121422387Y-89603276D01*
X121429623Y-89598004D01*
X121429860Y-89597949D01*
X121861386Y-89504727D01*
X121870197Y-89506329D01*
G37*
G04 #@! TD.AperFunction*
G04 #@! TA.AperFunction,Conductor*
G36*
X122537559Y-89470367D02*
G01*
X122970021Y-89597535D01*
X122976990Y-89603157D01*
X122977256Y-89603675D01*
X123199284Y-90063753D01*
X123199794Y-90072693D01*
X123193980Y-90079303D01*
X122633525Y-90359559D01*
X122569354Y-90391649D01*
X122564970Y-90393841D01*
X122559737Y-90395076D01*
X122376426Y-90395076D01*
X122368153Y-90391649D01*
X122364726Y-90383376D01*
X122364901Y-90381359D01*
X122501111Y-89603157D01*
X122522741Y-89479575D01*
X122527543Y-89472018D01*
X122536283Y-89470069D01*
X122537559Y-89470367D01*
G37*
G04 #@! TD.AperFunction*
G04 #@! TA.AperFunction,Conductor*
G36*
X122562495Y-90590927D02*
G01*
X122565255Y-90595306D01*
X122653704Y-90845880D01*
X122654006Y-90852675D01*
X122473835Y-91556707D01*
X122468464Y-91563872D01*
X122459599Y-91565141D01*
X122452434Y-91559770D01*
X122451165Y-91556707D01*
X122270993Y-90852675D01*
X122271295Y-90845880D01*
X122359745Y-90595306D01*
X122365730Y-90588645D01*
X122370778Y-90587500D01*
X122554222Y-90587500D01*
X122562495Y-90590927D01*
G37*
G04 #@! TD.AperFunction*
G04 #@! TA.AperFunction,Conductor*
G36*
X129816806Y-101858860D02*
G01*
X130067195Y-101947244D01*
X130073855Y-101953229D01*
X130075000Y-101958277D01*
X130075000Y-102141722D01*
X130071573Y-102149995D01*
X130067194Y-102152755D01*
X129816809Y-102241138D01*
X129809660Y-102241343D01*
X129187801Y-102061237D01*
X129180809Y-102055645D01*
X129179819Y-102046745D01*
X129185412Y-102039752D01*
X129187802Y-102038762D01*
X129809663Y-101858656D01*
X129816806Y-101858860D01*
G37*
G04 #@! TD.AperFunction*
G04 #@! TA.AperFunction,Conductor*
G36*
X130389697Y-101733651D02*
G01*
X130389937Y-101734186D01*
X130499115Y-101995489D01*
X130499142Y-102004444D01*
X130499115Y-102004511D01*
X130389136Y-102267729D01*
X130382784Y-102274041D01*
X130375316Y-102274520D01*
X129918622Y-102152321D01*
X129911516Y-102146873D01*
X129909946Y-102141019D01*
X129909946Y-101957375D01*
X129913373Y-101949102D01*
X129916598Y-101946820D01*
X130374096Y-101728140D01*
X130383037Y-101727665D01*
X130389697Y-101733651D01*
G37*
G04 #@! TD.AperFunction*
G04 #@! TA.AperFunction,Conductor*
G36*
X137242871Y-101546044D02*
G01*
X137544896Y-101752188D01*
X137549797Y-101759683D01*
X137550000Y-101761852D01*
X137550000Y-101949491D01*
X137546573Y-101957764D01*
X137544896Y-101959155D01*
X137242871Y-102165299D01*
X137234106Y-102167132D01*
X137228146Y-102164049D01*
X136917706Y-101864084D01*
X136914139Y-101855873D01*
X136917423Y-101847542D01*
X136917683Y-101847281D01*
X137228147Y-101547292D01*
X137236476Y-101544010D01*
X137242871Y-101546044D01*
G37*
G04 #@! TD.AperFunction*
G04 #@! TA.AperFunction,Conductor*
G36*
X138089694Y-101533661D02*
G01*
X138089988Y-101534307D01*
X138199115Y-101795489D01*
X138199142Y-101804444D01*
X138199115Y-101804511D01*
X138089095Y-102067829D01*
X138082743Y-102074141D01*
X138075395Y-102074652D01*
X137619870Y-101957925D01*
X137612706Y-101952552D01*
X137611074Y-101946591D01*
X137611074Y-101762960D01*
X137614501Y-101754687D01*
X137617613Y-101752460D01*
X138074036Y-101528315D01*
X138082971Y-101527745D01*
X138089694Y-101533661D01*
G37*
G04 #@! TD.AperFunction*
G04 #@! TA.AperFunction,Conductor*
G36*
X129816806Y-103808860D02*
G01*
X130067195Y-103897244D01*
X130073855Y-103903229D01*
X130075000Y-103908277D01*
X130075000Y-104091722D01*
X130071573Y-104099995D01*
X130067194Y-104102755D01*
X129816809Y-104191138D01*
X129809660Y-104191343D01*
X129187801Y-104011237D01*
X129180809Y-104005645D01*
X129179819Y-103996745D01*
X129185412Y-103989752D01*
X129187802Y-103988762D01*
X129809663Y-103808656D01*
X129816806Y-103808860D01*
G37*
G04 #@! TD.AperFunction*
G04 #@! TA.AperFunction,Conductor*
G36*
X130783641Y-103727050D02*
G01*
X130789503Y-103733148D01*
X130899115Y-103995489D01*
X130899142Y-104004444D01*
X130899115Y-104004511D01*
X130789503Y-104266851D01*
X130783151Y-104273163D01*
X130774694Y-104273329D01*
X130640947Y-104224493D01*
X130307687Y-104102806D01*
X130301091Y-104096750D01*
X130300000Y-104091816D01*
X130300000Y-103908183D01*
X130303427Y-103899910D01*
X130307687Y-103897193D01*
X130774697Y-103726669D01*
X130783641Y-103727050D01*
G37*
G04 #@! TD.AperFunction*
G04 #@! TA.AperFunction,Conductor*
G36*
X137252871Y-109116188D02*
G01*
X137554896Y-109322332D01*
X137559797Y-109329827D01*
X137560000Y-109331996D01*
X137560000Y-109519635D01*
X137556573Y-109527908D01*
X137554896Y-109529299D01*
X137252871Y-109735443D01*
X137244106Y-109737276D01*
X137238146Y-109734193D01*
X136927706Y-109434228D01*
X136924139Y-109426017D01*
X136927423Y-109417686D01*
X136927683Y-109417425D01*
X137238147Y-109117436D01*
X137246476Y-109114154D01*
X137252871Y-109116188D01*
G37*
G04 #@! TD.AperFunction*
G04 #@! TA.AperFunction,Conductor*
G36*
X138396207Y-109303612D02*
G01*
X138400027Y-109311712D01*
X138400040Y-109312234D01*
X138400983Y-109595114D01*
X138397584Y-109603399D01*
X138397537Y-109603446D01*
X138195629Y-109804406D01*
X138187347Y-109807813D01*
X138179646Y-109804896D01*
X137866483Y-109529310D01*
X137862536Y-109521272D01*
X137862512Y-109520527D01*
X137862512Y-109336967D01*
X137865939Y-109328694D01*
X137873648Y-109325281D01*
X138387781Y-109300586D01*
X138396207Y-109303612D01*
G37*
G04 #@! TD.AperFunction*
M02*
