G04 #@! TF.GenerationSoftware,KiCad,Pcbnew,8.0.1*
G04 #@! TF.CreationDate,2024-09-12T17:08:19-04:00*
G04 #@! TF.ProjectId,cutdown,63757464-6f77-46e2-9e6b-696361645f70,rev?*
G04 #@! TF.SameCoordinates,Original*
G04 #@! TF.FileFunction,Paste,Top*
G04 #@! TF.FilePolarity,Positive*
%FSLAX46Y46*%
G04 Gerber Fmt 4.6, Leading zero omitted, Abs format (unit mm)*
G04 Created by KiCad (PCBNEW 8.0.1) date 2024-09-12 17:08:19*
%MOMM*%
%LPD*%
G01*
G04 APERTURE LIST*
G04 Aperture macros list*
%AMRoundRect*
0 Rectangle with rounded corners*
0 $1 Rounding radius*
0 $2 $3 $4 $5 $6 $7 $8 $9 X,Y pos of 4 corners*
0 Add a 4 corners polygon primitive as box body*
4,1,4,$2,$3,$4,$5,$6,$7,$8,$9,$2,$3,0*
0 Add four circle primitives for the rounded corners*
1,1,$1+$1,$2,$3*
1,1,$1+$1,$4,$5*
1,1,$1+$1,$6,$7*
1,1,$1+$1,$8,$9*
0 Add four rect primitives between the rounded corners*
20,1,$1+$1,$2,$3,$4,$5,0*
20,1,$1+$1,$4,$5,$6,$7,0*
20,1,$1+$1,$6,$7,$8,$9,0*
20,1,$1+$1,$8,$9,$2,$3,0*%
G04 Aperture macros list end*
%ADD10C,0.000000*%
%ADD11RoundRect,0.250000X-0.325000X-0.650000X0.325000X-0.650000X0.325000X0.650000X-0.325000X0.650000X0*%
%ADD12RoundRect,0.225000X-0.250000X0.225000X-0.250000X-0.225000X0.250000X-0.225000X0.250000X0.225000X0*%
%ADD13RoundRect,0.250000X-0.250000X-0.475000X0.250000X-0.475000X0.250000X0.475000X-0.250000X0.475000X0*%
%ADD14RoundRect,0.135000X-0.135000X-0.185000X0.135000X-0.185000X0.135000X0.185000X-0.135000X0.185000X0*%
%ADD15R,4.400000X4.300000*%
%ADD16R,0.650000X0.630000*%
%ADD17RoundRect,0.250000X0.650000X-0.325000X0.650000X0.325000X-0.650000X0.325000X-0.650000X-0.325000X0*%
%ADD18R,4.100000X3.500000*%
%ADD19RoundRect,0.225000X-0.225000X-0.250000X0.225000X-0.250000X0.225000X0.250000X-0.225000X0.250000X0*%
%ADD20RoundRect,0.225000X0.250000X-0.225000X0.250000X0.225000X-0.250000X0.225000X-0.250000X-0.225000X0*%
%ADD21RoundRect,0.250000X-0.375000X-1.075000X0.375000X-1.075000X0.375000X1.075000X-0.375000X1.075000X0*%
%ADD22RoundRect,0.167500X-0.167500X-0.407500X0.167500X-0.407500X0.167500X0.407500X-0.167500X0.407500X0*%
%ADD23RoundRect,0.100000X-0.625000X-0.100000X0.625000X-0.100000X0.625000X0.100000X-0.625000X0.100000X0*%
%ADD24RoundRect,0.250000X-0.650000X0.325000X-0.650000X-0.325000X0.650000X-0.325000X0.650000X0.325000X0*%
%ADD25RoundRect,0.135000X0.185000X-0.135000X0.185000X0.135000X-0.185000X0.135000X-0.185000X-0.135000X0*%
%ADD26RoundRect,0.135000X0.135000X0.185000X-0.135000X0.185000X-0.135000X-0.185000X0.135000X-0.185000X0*%
%ADD27RoundRect,0.100000X0.100000X-0.712500X0.100000X0.712500X-0.100000X0.712500X-0.100000X-0.712500X0*%
%ADD28RoundRect,0.250000X-1.263953X-0.751301X-0.751301X-1.263953X1.263953X0.751301X0.751301X1.263953X0*%
%ADD29RoundRect,0.250000X-0.475000X0.250000X-0.475000X-0.250000X0.475000X-0.250000X0.475000X0.250000X0*%
%ADD30RoundRect,0.250000X1.075000X-0.375000X1.075000X0.375000X-1.075000X0.375000X-1.075000X-0.375000X0*%
%ADD31RoundRect,0.250000X0.650000X-1.000000X0.650000X1.000000X-0.650000X1.000000X-0.650000X-1.000000X0*%
G04 APERTURE END LIST*
D10*
G36*
X134705120Y-106370704D02*
G01*
X133135400Y-106370704D01*
X133135400Y-104785744D01*
X134705120Y-104785744D01*
X134705120Y-106370704D01*
G37*
G36*
X134705120Y-108105778D02*
G01*
X133135400Y-108105778D01*
X133135400Y-106870830D01*
X134705120Y-106870830D01*
X134705120Y-108105778D01*
G37*
G36*
X136894600Y-106370704D02*
G01*
X135324880Y-106370704D01*
X135324880Y-104785744D01*
X136894600Y-104785744D01*
X136894600Y-106370704D01*
G37*
G36*
X136894600Y-108105778D02*
G01*
X135324880Y-108105778D01*
X135324880Y-106870830D01*
X136894600Y-106870830D01*
X136894600Y-108105778D01*
G37*
G36*
X134695120Y-98800560D02*
G01*
X133125400Y-98800560D01*
X133125400Y-97215600D01*
X134695120Y-97215600D01*
X134695120Y-98800560D01*
G37*
G36*
X134695120Y-100535634D02*
G01*
X133125400Y-100535634D01*
X133125400Y-99300686D01*
X134695120Y-99300686D01*
X134695120Y-100535634D01*
G37*
G36*
X136884600Y-98800560D02*
G01*
X135314880Y-98800560D01*
X135314880Y-97215600D01*
X136884600Y-97215600D01*
X136884600Y-98800560D01*
G37*
G36*
X136884600Y-100535634D02*
G01*
X135314880Y-100535634D01*
X135314880Y-99300686D01*
X136884600Y-99300686D01*
X136884600Y-100535634D01*
G37*
D11*
X148625000Y-97300000D03*
X151575000Y-97300000D03*
D12*
X118662500Y-91737500D03*
X118662500Y-93287500D03*
X131300000Y-99300000D03*
X131300000Y-100850000D03*
D13*
X120837500Y-98012500D03*
X122737500Y-98012500D03*
D14*
X122890000Y-114300000D03*
X123910000Y-114300000D03*
D15*
X135015000Y-106108228D03*
D16*
X133110000Y-103955672D03*
X134380000Y-103955672D03*
X135650000Y-103955672D03*
X136920000Y-103955672D03*
X136920000Y-109425816D03*
X133110000Y-109425816D03*
X134380000Y-109425816D03*
X135650000Y-109425816D03*
D17*
X156400000Y-99975000D03*
X156400000Y-97025000D03*
D18*
X140600000Y-105700000D03*
X150100000Y-105700000D03*
D19*
X140325000Y-93400000D03*
X141875000Y-93400000D03*
D20*
X123700000Y-108775000D03*
X123700000Y-107225000D03*
D21*
X139700000Y-95900000D03*
X142500000Y-95900000D03*
D22*
X126590000Y-102315000D03*
X126590000Y-103735000D03*
X127410000Y-102315000D03*
X127410000Y-103735000D03*
D23*
X124850000Y-101400000D03*
X124850000Y-102050000D03*
X124850000Y-102700000D03*
X124850000Y-103350000D03*
X124850000Y-104000000D03*
X124850000Y-104650000D03*
X129150000Y-104650000D03*
X129150000Y-104000000D03*
X129150000Y-103350000D03*
X129150000Y-102700000D03*
X129150000Y-102050000D03*
X129150000Y-101400000D03*
D15*
X135005000Y-98620600D03*
D16*
X133100000Y-96385528D03*
X134370000Y-96385528D03*
X135640000Y-96385528D03*
X136910000Y-96385528D03*
X136910000Y-101855672D03*
X133100000Y-101855672D03*
X134370000Y-101855672D03*
X135640000Y-101855672D03*
D24*
X154000000Y-105525000D03*
X154000000Y-108475000D03*
D25*
X118000000Y-96410000D03*
X118000000Y-95390000D03*
D26*
X123910000Y-113200000D03*
X122890000Y-113200000D03*
D27*
X120512500Y-95825000D03*
X121162500Y-95825000D03*
X121812500Y-95825000D03*
X122462500Y-95825000D03*
X122462500Y-91600000D03*
X121812500Y-91600000D03*
X121162500Y-91600000D03*
X120512500Y-91600000D03*
D28*
X154305196Y-112405196D03*
X158494804Y-116594804D03*
D24*
X156500000Y-105525000D03*
X156500000Y-108475000D03*
X129300000Y-106625000D03*
X129300000Y-109575000D03*
D29*
X124387500Y-92562500D03*
X124387500Y-94462500D03*
D30*
X126200000Y-109500000D03*
X126200000Y-106700000D03*
D19*
X121425000Y-89600000D03*
X122975000Y-89600000D03*
D31*
X128700000Y-99000000D03*
X128700000Y-95000000D03*
D25*
X119100000Y-96410000D03*
X119100000Y-95390000D03*
D17*
X153900000Y-99975000D03*
X153900000Y-97025000D03*
M02*
