G04 #@! TF.GenerationSoftware,KiCad,Pcbnew,8.0.1*
G04 #@! TF.CreationDate,2024-09-12T17:08:19-04:00*
G04 #@! TF.ProjectId,cutdown,63757464-6f77-46e2-9e6b-696361645f70,rev?*
G04 #@! TF.SameCoordinates,Original*
G04 #@! TF.FileFunction,Copper,L3,Inr*
G04 #@! TF.FilePolarity,Positive*
%FSLAX46Y46*%
G04 Gerber Fmt 4.6, Leading zero omitted, Abs format (unit mm)*
G04 Created by KiCad (PCBNEW 8.0.1) date 2024-09-12 17:08:19*
%MOMM*%
%LPD*%
G01*
G04 APERTURE LIST*
G04 #@! TA.AperFunction,ComponentPad*
%ADD10C,2.000000*%
G04 #@! TD*
G04 #@! TA.AperFunction,ComponentPad*
%ADD11R,3.800000X3.800000*%
G04 #@! TD*
G04 #@! TA.AperFunction,ComponentPad*
%ADD12C,4.000000*%
G04 #@! TD*
G04 #@! TA.AperFunction,ComponentPad*
%ADD13C,3.800000*%
G04 #@! TD*
G04 #@! TA.AperFunction,ComponentPad*
%ADD14R,1.700000X1.700000*%
G04 #@! TD*
G04 #@! TA.AperFunction,ComponentPad*
%ADD15O,1.700000X1.700000*%
G04 #@! TD*
G04 #@! TA.AperFunction,ViaPad*
%ADD16C,0.600000*%
G04 #@! TD*
G04 APERTURE END LIST*
D10*
X132500000Y-93500000D03*
X150000000Y-114500000D03*
X137324129Y-93421197D03*
D11*
X149800000Y-92900000D03*
D12*
X154800000Y-92900000D03*
D13*
X160000000Y-105000000D03*
D14*
X120300000Y-101650000D03*
D15*
X120300000Y-104190000D03*
X120300000Y-106730000D03*
X120300000Y-109270000D03*
X120300000Y-111810000D03*
X120300000Y-114350000D03*
D10*
X128000000Y-114000000D03*
D13*
X160000000Y-111000000D03*
D16*
X124800000Y-113200000D03*
X116000000Y-107000000D03*
X146000000Y-107000000D03*
X156000000Y-113000000D03*
X148000000Y-88974136D03*
X131000000Y-109000000D03*
X146000000Y-117000000D03*
X128000000Y-89000000D03*
X146000000Y-114986354D03*
X154000000Y-115000000D03*
X126000000Y-89000000D03*
X160000000Y-97000000D03*
X138000000Y-119000000D03*
X152000000Y-119000000D03*
X136000000Y-119000000D03*
X116000000Y-97000000D03*
X141925000Y-98950000D03*
X160000000Y-117000000D03*
X148000000Y-119000000D03*
X116000000Y-95000000D03*
X128000000Y-119000000D03*
X160000000Y-119000000D03*
X138000000Y-117000000D03*
X132000000Y-110000000D03*
X126500000Y-94500000D03*
X162000000Y-91000000D03*
X146000000Y-89000000D03*
X116000000Y-103000000D03*
X117400000Y-94600000D03*
X124800000Y-114300000D03*
X118662500Y-94512500D03*
X148000000Y-117000000D03*
X142000000Y-119000000D03*
X120000000Y-89000000D03*
X146000000Y-119000000D03*
X156000000Y-115000000D03*
X130650000Y-104950000D03*
X156000000Y-89000000D03*
X128000000Y-93000000D03*
X126000000Y-116999999D03*
X116000000Y-101000000D03*
X116000000Y-117000000D03*
X124000000Y-99500000D03*
X123500000Y-104000000D03*
X146000000Y-103000000D03*
X116000000Y-115000000D03*
X132000000Y-117000000D03*
X124300000Y-95600000D03*
X146000000Y-101000000D03*
X134000000Y-119000000D03*
X124000000Y-117000000D03*
X162000000Y-113000000D03*
X152000000Y-89000000D03*
X132000000Y-119000000D03*
X152000000Y-117000000D03*
X154000000Y-119000000D03*
X116000000Y-109000000D03*
X150000000Y-89000000D03*
X128000000Y-117000000D03*
X160000000Y-93000000D03*
X122000000Y-119000000D03*
X116000000Y-99000000D03*
X126000000Y-119000000D03*
X138000000Y-89000000D03*
X140000000Y-119000000D03*
X146000000Y-109000000D03*
X130000000Y-89000000D03*
X144000000Y-89000000D03*
X156000000Y-111000000D03*
X140000000Y-117000000D03*
X158000000Y-119000000D03*
X131000000Y-110000000D03*
X118000000Y-89000000D03*
X158000000Y-89000000D03*
X118000000Y-119000000D03*
X126600000Y-100200000D03*
X126500000Y-98500000D03*
X146000000Y-99000000D03*
X132000000Y-109000000D03*
X150000000Y-117000000D03*
X123700000Y-96400000D03*
X142000000Y-117000000D03*
X116000000Y-111000000D03*
X140000000Y-99000000D03*
X118000000Y-117000000D03*
X160000000Y-95000000D03*
X130000000Y-93000000D03*
X130000000Y-117000000D03*
X156000000Y-117000000D03*
X116000000Y-91000000D03*
X120000000Y-117000000D03*
X158000000Y-113000000D03*
X156000000Y-119000000D03*
X160000000Y-89000000D03*
X136000000Y-117000000D03*
X122000000Y-117000000D03*
X150000000Y-119000000D03*
X116000000Y-93000000D03*
X162000000Y-117000000D03*
X162000000Y-95000000D03*
X160000000Y-91000000D03*
X154000000Y-117000000D03*
X144000000Y-117000000D03*
X124000000Y-119000000D03*
X134000000Y-89000000D03*
X136000000Y-89000000D03*
X120000000Y-119000000D03*
X144000000Y-119000000D03*
X130000000Y-119000000D03*
X116000000Y-105000000D03*
X154000000Y-89000000D03*
X162000000Y-115000000D03*
X162000000Y-93000000D03*
X142000000Y-89000000D03*
X134000000Y-116999999D03*
X131000000Y-97000000D03*
X140000000Y-89000000D03*
X116000000Y-113000000D03*
X132000000Y-89000000D03*
X162000000Y-97000000D03*
X146000000Y-113000000D03*
X144000000Y-99000000D03*
X127800000Y-105700000D03*
X124100000Y-105900000D03*
X131100000Y-107200000D03*
X126500000Y-96100000D03*
X123000000Y-111000000D03*
X124000000Y-110000000D03*
X124000000Y-111000000D03*
X119000000Y-98000000D03*
X119000000Y-99000000D03*
X118000000Y-99000000D03*
X125000000Y-111000000D03*
X123000000Y-110000000D03*
X118000000Y-98000000D03*
X138200000Y-101800000D03*
X130500000Y-102000000D03*
X138400000Y-109600000D03*
X130900000Y-104000000D03*
G04 #@! TA.AperFunction,Conductor*
G36*
X161003523Y-88300751D02*
G01*
X161234806Y-88317293D01*
X161248787Y-88319304D01*
X161471881Y-88367836D01*
X161485433Y-88371815D01*
X161622649Y-88422992D01*
X161699366Y-88451606D01*
X161712205Y-88457469D01*
X161912607Y-88566898D01*
X161924486Y-88574532D01*
X162107263Y-88711357D01*
X162117939Y-88720607D01*
X162279392Y-88882060D01*
X162288642Y-88892736D01*
X162425467Y-89075513D01*
X162433103Y-89087395D01*
X162542526Y-89287786D01*
X162548394Y-89300636D01*
X162628184Y-89514566D01*
X162632163Y-89528118D01*
X162680695Y-89751212D01*
X162682706Y-89765193D01*
X162699248Y-89996475D01*
X162699500Y-90003538D01*
X162699500Y-117996461D01*
X162699248Y-118003524D01*
X162682706Y-118234806D01*
X162680695Y-118248787D01*
X162632163Y-118471881D01*
X162628184Y-118485433D01*
X162548394Y-118699363D01*
X162542526Y-118712213D01*
X162433103Y-118912604D01*
X162425467Y-118924486D01*
X162288642Y-119107263D01*
X162279392Y-119117939D01*
X162117939Y-119279392D01*
X162107263Y-119288642D01*
X161924486Y-119425467D01*
X161912604Y-119433103D01*
X161712213Y-119542526D01*
X161699363Y-119548394D01*
X161485433Y-119628184D01*
X161471881Y-119632163D01*
X161248787Y-119680695D01*
X161234806Y-119682706D01*
X161031124Y-119697274D01*
X161003522Y-119699248D01*
X160996462Y-119699500D01*
X117003538Y-119699500D01*
X116996477Y-119699248D01*
X116966467Y-119697101D01*
X116765193Y-119682706D01*
X116751212Y-119680695D01*
X116528118Y-119632163D01*
X116514566Y-119628184D01*
X116300636Y-119548394D01*
X116287786Y-119542526D01*
X116087395Y-119433103D01*
X116075513Y-119425467D01*
X115892736Y-119288642D01*
X115882060Y-119279392D01*
X115720607Y-119117939D01*
X115711357Y-119107263D01*
X115574530Y-118924483D01*
X115566896Y-118912604D01*
X115457469Y-118712205D01*
X115451605Y-118699363D01*
X115371815Y-118485433D01*
X115367836Y-118471881D01*
X115319304Y-118248787D01*
X115317293Y-118234805D01*
X115300752Y-118003523D01*
X115300500Y-117996461D01*
X115300500Y-114600000D01*
X118969364Y-114600000D01*
X119026569Y-114813489D01*
X119126399Y-115027577D01*
X119261886Y-115221073D01*
X119428926Y-115388113D01*
X119622422Y-115523600D01*
X119836509Y-115623430D01*
X120050000Y-115680634D01*
X120050000Y-114783012D01*
X120107007Y-114815925D01*
X120234174Y-114850000D01*
X120365826Y-114850000D01*
X120492993Y-114815925D01*
X120550000Y-114783012D01*
X120550000Y-115680633D01*
X120763490Y-115623430D01*
X120977577Y-115523600D01*
X121171073Y-115388113D01*
X121338113Y-115221073D01*
X121473600Y-115027577D01*
X121573430Y-114813489D01*
X121630636Y-114600000D01*
X120733012Y-114600000D01*
X120765925Y-114542993D01*
X120800000Y-114415826D01*
X120800000Y-114284174D01*
X120765925Y-114157007D01*
X120733012Y-114100000D01*
X121630636Y-114100000D01*
X121603841Y-114000000D01*
X126794357Y-114000000D01*
X126814885Y-114221536D01*
X126875771Y-114435528D01*
X126974942Y-114634689D01*
X127109019Y-114812236D01*
X127273438Y-114962124D01*
X127462599Y-115079247D01*
X127670060Y-115159618D01*
X127888757Y-115200500D01*
X128111243Y-115200500D01*
X128329940Y-115159618D01*
X128537401Y-115079247D01*
X128726562Y-114962124D01*
X128890981Y-114812236D01*
X129025058Y-114634689D01*
X129092126Y-114500000D01*
X148794357Y-114500000D01*
X148814885Y-114721536D01*
X148875771Y-114935528D01*
X148974942Y-115134689D01*
X149109019Y-115312236D01*
X149273438Y-115462124D01*
X149462599Y-115579247D01*
X149670060Y-115659618D01*
X149888757Y-115700500D01*
X150111243Y-115700500D01*
X150329940Y-115659618D01*
X150537401Y-115579247D01*
X150726562Y-115462124D01*
X150890981Y-115312236D01*
X151025058Y-115134689D01*
X151124229Y-114935528D01*
X151185115Y-114721536D01*
X151205643Y-114500000D01*
X151185115Y-114278464D01*
X151124229Y-114064472D01*
X151025058Y-113865311D01*
X150890981Y-113687764D01*
X150726562Y-113537876D01*
X150537401Y-113420753D01*
X150329940Y-113340382D01*
X150329939Y-113340381D01*
X150329937Y-113340381D01*
X150111243Y-113299500D01*
X149888757Y-113299500D01*
X149670062Y-113340381D01*
X149605716Y-113365309D01*
X149462599Y-113420753D01*
X149368646Y-113478926D01*
X149273438Y-113537876D01*
X149109020Y-113687763D01*
X148974943Y-113865309D01*
X148974938Y-113865318D01*
X148907874Y-114000000D01*
X148875771Y-114064472D01*
X148814885Y-114278464D01*
X148794357Y-114500000D01*
X129092126Y-114500000D01*
X129124229Y-114435528D01*
X129185115Y-114221536D01*
X129205643Y-114000000D01*
X129185115Y-113778464D01*
X129124229Y-113564472D01*
X129025058Y-113365311D01*
X128890981Y-113187764D01*
X128726562Y-113037876D01*
X128537401Y-112920753D01*
X128329940Y-112840382D01*
X128329939Y-112840381D01*
X128329937Y-112840381D01*
X128111243Y-112799500D01*
X127888757Y-112799500D01*
X127670062Y-112840381D01*
X127657365Y-112845300D01*
X127462599Y-112920753D01*
X127273438Y-113037876D01*
X127109019Y-113187764D01*
X127065550Y-113245326D01*
X126974943Y-113365309D01*
X126974938Y-113365318D01*
X126921134Y-113473371D01*
X126875771Y-113564472D01*
X126814885Y-113778464D01*
X126794357Y-114000000D01*
X121603841Y-114000000D01*
X121573429Y-113886505D01*
X121473605Y-113672432D01*
X121473601Y-113672424D01*
X121338113Y-113478926D01*
X121171073Y-113311886D01*
X121011286Y-113200002D01*
X124294353Y-113200002D01*
X124314834Y-113342456D01*
X124325271Y-113365309D01*
X124374623Y-113473373D01*
X124379435Y-113478926D01*
X124468873Y-113582144D01*
X124589942Y-113659950D01*
X124589947Y-113659953D01*
X124684660Y-113687763D01*
X124728035Y-113700499D01*
X124728036Y-113700499D01*
X124728039Y-113700500D01*
X124728041Y-113700500D01*
X124871959Y-113700500D01*
X124871961Y-113700500D01*
X125010053Y-113659953D01*
X125131128Y-113582143D01*
X125225377Y-113473373D01*
X125285165Y-113342457D01*
X125305647Y-113200000D01*
X125287900Y-113076569D01*
X125285165Y-113057543D01*
X125251506Y-112983841D01*
X125225377Y-112926627D01*
X125131128Y-112817857D01*
X125131127Y-112817856D01*
X125131126Y-112817855D01*
X125010057Y-112740049D01*
X125010054Y-112740047D01*
X125010053Y-112740047D01*
X125010050Y-112740046D01*
X124871964Y-112699500D01*
X124871961Y-112699500D01*
X124728039Y-112699500D01*
X124728035Y-112699500D01*
X124589949Y-112740046D01*
X124589942Y-112740049D01*
X124468873Y-112817855D01*
X124374622Y-112926628D01*
X124314834Y-113057543D01*
X124294353Y-113199997D01*
X124294353Y-113200002D01*
X121011286Y-113200002D01*
X120977577Y-113176399D01*
X120763489Y-113076569D01*
X120556786Y-113021183D01*
X120505472Y-112987859D01*
X120483545Y-112930737D01*
X120499381Y-112871637D01*
X120546931Y-112833132D01*
X120553663Y-112830821D01*
X120703954Y-112785232D01*
X120886450Y-112687685D01*
X121046410Y-112556410D01*
X121177685Y-112396450D01*
X121275232Y-112213954D01*
X121335300Y-112015934D01*
X121335301Y-112015929D01*
X121355583Y-111810003D01*
X121355583Y-111809996D01*
X121335301Y-111604070D01*
X121335300Y-111604065D01*
X121303884Y-111500500D01*
X121275232Y-111406046D01*
X121177685Y-111223550D01*
X121046410Y-111063590D01*
X120968929Y-111000003D01*
X120968928Y-111000002D01*
X122494353Y-111000002D01*
X122514834Y-111142456D01*
X122562687Y-111247238D01*
X122574623Y-111273373D01*
X122668872Y-111382143D01*
X122668873Y-111382144D01*
X122789942Y-111459950D01*
X122789947Y-111459953D01*
X122896403Y-111491211D01*
X122928035Y-111500499D01*
X122928036Y-111500499D01*
X122928039Y-111500500D01*
X122928041Y-111500500D01*
X123071959Y-111500500D01*
X123071961Y-111500500D01*
X123210053Y-111459953D01*
X123331128Y-111382143D01*
X123425182Y-111273597D01*
X123477576Y-111242003D01*
X123538537Y-111247238D01*
X123574816Y-111273596D01*
X123668872Y-111382143D01*
X123668873Y-111382144D01*
X123789942Y-111459950D01*
X123789947Y-111459953D01*
X123896403Y-111491211D01*
X123928035Y-111500499D01*
X123928036Y-111500499D01*
X123928039Y-111500500D01*
X123928041Y-111500500D01*
X124071959Y-111500500D01*
X124071961Y-111500500D01*
X124210053Y-111459953D01*
X124331128Y-111382143D01*
X124425182Y-111273597D01*
X124477576Y-111242003D01*
X124538537Y-111247238D01*
X124574816Y-111273596D01*
X124668872Y-111382143D01*
X124668873Y-111382144D01*
X124789942Y-111459950D01*
X124789947Y-111459953D01*
X124896403Y-111491211D01*
X124928035Y-111500499D01*
X124928036Y-111500499D01*
X124928039Y-111500500D01*
X124928041Y-111500500D01*
X125071959Y-111500500D01*
X125071961Y-111500500D01*
X125210053Y-111459953D01*
X125331128Y-111382143D01*
X125425377Y-111273373D01*
X125485165Y-111142457D01*
X125505647Y-111000003D01*
X157894592Y-111000003D01*
X157914201Y-111286682D01*
X157914202Y-111286686D01*
X157972666Y-111568032D01*
X158042793Y-111765351D01*
X158058662Y-111810003D01*
X158068896Y-111838797D01*
X158201099Y-112093936D01*
X158366811Y-112328698D01*
X158562947Y-112538708D01*
X158785853Y-112720055D01*
X158785859Y-112720059D01*
X158785861Y-112720060D01*
X159031370Y-112869358D01*
X159031382Y-112869365D01*
X159163217Y-112926628D01*
X159294942Y-112983844D01*
X159571642Y-113061371D01*
X159856322Y-113100500D01*
X159856328Y-113100500D01*
X160143672Y-113100500D01*
X160143678Y-113100500D01*
X160428358Y-113061371D01*
X160705058Y-112983844D01*
X160866351Y-112913784D01*
X160968617Y-112869365D01*
X160968620Y-112869362D01*
X160968625Y-112869361D01*
X161214147Y-112720055D01*
X161437053Y-112538708D01*
X161633189Y-112328698D01*
X161798901Y-112093936D01*
X161931104Y-111838797D01*
X162027334Y-111568032D01*
X162085798Y-111286686D01*
X162101059Y-111063585D01*
X162105408Y-111000003D01*
X162105408Y-110999996D01*
X162088854Y-110757996D01*
X162085798Y-110713314D01*
X162027334Y-110431968D01*
X161931104Y-110161203D01*
X161798901Y-109906064D01*
X161633189Y-109671302D01*
X161437053Y-109461292D01*
X161214147Y-109279945D01*
X161214142Y-109279942D01*
X161214138Y-109279939D01*
X160968629Y-109130641D01*
X160968617Y-109130634D01*
X160705063Y-109016158D01*
X160705061Y-109016157D01*
X160705058Y-109016156D01*
X160428358Y-108938629D01*
X160143678Y-108899500D01*
X159856322Y-108899500D01*
X159571642Y-108938629D01*
X159294942Y-109016156D01*
X159294939Y-109016156D01*
X159294936Y-109016158D01*
X159031382Y-109130634D01*
X159031370Y-109130641D01*
X158785861Y-109279939D01*
X158785847Y-109279949D01*
X158562952Y-109461287D01*
X158562951Y-109461288D01*
X158562948Y-109461291D01*
X158562947Y-109461292D01*
X158527263Y-109499500D01*
X158366810Y-109671303D01*
X158366805Y-109671309D01*
X158201098Y-109906065D01*
X158068895Y-110161204D01*
X158010716Y-110324903D01*
X157975726Y-110423360D01*
X157972665Y-110431972D01*
X157914203Y-110713308D01*
X157914201Y-110713317D01*
X157894592Y-110999996D01*
X157894592Y-111000003D01*
X125505647Y-111000003D01*
X125505647Y-111000000D01*
X125505646Y-110999996D01*
X125485165Y-110857543D01*
X125447331Y-110774699D01*
X125425377Y-110726627D01*
X125331128Y-110617857D01*
X125331127Y-110617856D01*
X125331126Y-110617855D01*
X125210057Y-110540049D01*
X125210054Y-110540047D01*
X125210053Y-110540047D01*
X125210050Y-110540046D01*
X125071964Y-110499500D01*
X125071961Y-110499500D01*
X124928039Y-110499500D01*
X124928035Y-110499500D01*
X124789949Y-110540046D01*
X124789942Y-110540049D01*
X124668872Y-110617856D01*
X124668870Y-110617858D01*
X124574819Y-110726400D01*
X124522424Y-110757996D01*
X124461463Y-110752760D01*
X124425181Y-110726400D01*
X124331129Y-110617858D01*
X124331128Y-110617856D01*
X124277331Y-110583284D01*
X124238600Y-110535919D01*
X124235106Y-110474833D01*
X124268185Y-110423360D01*
X124277331Y-110416716D01*
X124331126Y-110382144D01*
X124331125Y-110382144D01*
X124331128Y-110382143D01*
X124425377Y-110273373D01*
X124485165Y-110142457D01*
X124503288Y-110016410D01*
X124505647Y-110000002D01*
X124505647Y-109999997D01*
X124485165Y-109857543D01*
X124439703Y-109757996D01*
X124425377Y-109726627D01*
X124331128Y-109617857D01*
X124331127Y-109617856D01*
X124331126Y-109617855D01*
X124303346Y-109600002D01*
X137894353Y-109600002D01*
X137914834Y-109742456D01*
X137974622Y-109873371D01*
X137974623Y-109873373D01*
X138002950Y-109906064D01*
X138068873Y-109982144D01*
X138189942Y-110059950D01*
X138189947Y-110059953D01*
X138296403Y-110091211D01*
X138328035Y-110100499D01*
X138328036Y-110100499D01*
X138328039Y-110100500D01*
X138328041Y-110100500D01*
X138471959Y-110100500D01*
X138471961Y-110100500D01*
X138610053Y-110059953D01*
X138731128Y-109982143D01*
X138825377Y-109873373D01*
X138885165Y-109742457D01*
X138895395Y-109671303D01*
X138905647Y-109600002D01*
X138905647Y-109599997D01*
X138885165Y-109457543D01*
X138825377Y-109326628D01*
X138825377Y-109326627D01*
X138731128Y-109217857D01*
X138731127Y-109217856D01*
X138731126Y-109217855D01*
X138610057Y-109140049D01*
X138610054Y-109140047D01*
X138610053Y-109140047D01*
X138610050Y-109140046D01*
X138471964Y-109099500D01*
X138471961Y-109099500D01*
X138328039Y-109099500D01*
X138328035Y-109099500D01*
X138189949Y-109140046D01*
X138189942Y-109140049D01*
X138068873Y-109217855D01*
X137974622Y-109326628D01*
X137914834Y-109457543D01*
X137894353Y-109599997D01*
X137894353Y-109600002D01*
X124303346Y-109600002D01*
X124210057Y-109540049D01*
X124210054Y-109540047D01*
X124210053Y-109540047D01*
X124210050Y-109540046D01*
X124071964Y-109499500D01*
X124071961Y-109499500D01*
X123928039Y-109499500D01*
X123928035Y-109499500D01*
X123789949Y-109540046D01*
X123789942Y-109540049D01*
X123668872Y-109617856D01*
X123668870Y-109617858D01*
X123574819Y-109726400D01*
X123522424Y-109757996D01*
X123461463Y-109752760D01*
X123425181Y-109726400D01*
X123331129Y-109617858D01*
X123331127Y-109617856D01*
X123210057Y-109540049D01*
X123210054Y-109540047D01*
X123210053Y-109540047D01*
X123210050Y-109540046D01*
X123071964Y-109499500D01*
X123071961Y-109499500D01*
X122928039Y-109499500D01*
X122928035Y-109499500D01*
X122789949Y-109540046D01*
X122789942Y-109540049D01*
X122668873Y-109617855D01*
X122574622Y-109726628D01*
X122514834Y-109857543D01*
X122494353Y-109999997D01*
X122494353Y-110000002D01*
X122514834Y-110142456D01*
X122561771Y-110245231D01*
X122574623Y-110273373D01*
X122668872Y-110382143D01*
X122722669Y-110416716D01*
X122761400Y-110464082D01*
X122764893Y-110525168D01*
X122731813Y-110576640D01*
X122722669Y-110583284D01*
X122668872Y-110617857D01*
X122574622Y-110726628D01*
X122514834Y-110857543D01*
X122494353Y-110999997D01*
X122494353Y-111000002D01*
X120968928Y-111000002D01*
X120886452Y-110932316D01*
X120703954Y-110834768D01*
X120505934Y-110774699D01*
X120505929Y-110774698D01*
X120300003Y-110754417D01*
X120299997Y-110754417D01*
X120094070Y-110774698D01*
X120094065Y-110774699D01*
X119896045Y-110834768D01*
X119713547Y-110932316D01*
X119553595Y-111063585D01*
X119553585Y-111063595D01*
X119422316Y-111223547D01*
X119324768Y-111406045D01*
X119264699Y-111604065D01*
X119264698Y-111604070D01*
X119244417Y-111809996D01*
X119244417Y-111810003D01*
X119264698Y-112015929D01*
X119264699Y-112015934D01*
X119324768Y-112213954D01*
X119422316Y-112396452D01*
X119539062Y-112538708D01*
X119553590Y-112556410D01*
X119553595Y-112556414D01*
X119713547Y-112687683D01*
X119713548Y-112687683D01*
X119713550Y-112687685D01*
X119896046Y-112785232D01*
X120046328Y-112830819D01*
X120096525Y-112865804D01*
X120116571Y-112923612D01*
X120098810Y-112982163D01*
X120050026Y-113019092D01*
X120043213Y-113021183D01*
X119836505Y-113076570D01*
X119622432Y-113176394D01*
X119622424Y-113176398D01*
X119428926Y-113311886D01*
X119261886Y-113478926D01*
X119126398Y-113672424D01*
X119126394Y-113672432D01*
X119026570Y-113886505D01*
X118969364Y-114100000D01*
X119866988Y-114100000D01*
X119834075Y-114157007D01*
X119800000Y-114284174D01*
X119800000Y-114415826D01*
X119834075Y-114542993D01*
X119866988Y-114600000D01*
X118969364Y-114600000D01*
X115300500Y-114600000D01*
X115300500Y-109270003D01*
X119244417Y-109270003D01*
X119264698Y-109475929D01*
X119264699Y-109475934D01*
X119324768Y-109673954D01*
X119422316Y-109856452D01*
X119507889Y-109960723D01*
X119553590Y-110016410D01*
X119553595Y-110016414D01*
X119713547Y-110147683D01*
X119713548Y-110147683D01*
X119713550Y-110147685D01*
X119896046Y-110245232D01*
X119988816Y-110273373D01*
X120094065Y-110305300D01*
X120094070Y-110305301D01*
X120299997Y-110325583D01*
X120300000Y-110325583D01*
X120300003Y-110325583D01*
X120505929Y-110305301D01*
X120505934Y-110305300D01*
X120703954Y-110245232D01*
X120886450Y-110147685D01*
X121046410Y-110016410D01*
X121177685Y-109856450D01*
X121275232Y-109673954D01*
X121335300Y-109475934D01*
X121335301Y-109475929D01*
X121355583Y-109270003D01*
X121355583Y-109269996D01*
X121335301Y-109064070D01*
X121335300Y-109064065D01*
X121297250Y-108938630D01*
X121275232Y-108866046D01*
X121177685Y-108683550D01*
X121046410Y-108523590D01*
X121046404Y-108523585D01*
X120886452Y-108392316D01*
X120703954Y-108294768D01*
X120505934Y-108234699D01*
X120505929Y-108234698D01*
X120300003Y-108214417D01*
X120299997Y-108214417D01*
X120094070Y-108234698D01*
X120094065Y-108234699D01*
X119896045Y-108294768D01*
X119713547Y-108392316D01*
X119553595Y-108523585D01*
X119553585Y-108523595D01*
X119422316Y-108683547D01*
X119324768Y-108866045D01*
X119264699Y-109064065D01*
X119264698Y-109064070D01*
X119244417Y-109269996D01*
X119244417Y-109270003D01*
X115300500Y-109270003D01*
X115300500Y-106730003D01*
X119244417Y-106730003D01*
X119264698Y-106935929D01*
X119264699Y-106935934D01*
X119324768Y-107133954D01*
X119422316Y-107316452D01*
X119443657Y-107342456D01*
X119553590Y-107476410D01*
X119553595Y-107476414D01*
X119713547Y-107607683D01*
X119713548Y-107607683D01*
X119713550Y-107607685D01*
X119896046Y-107705232D01*
X120033997Y-107747078D01*
X120094065Y-107765300D01*
X120094070Y-107765301D01*
X120299997Y-107785583D01*
X120300000Y-107785583D01*
X120300003Y-107785583D01*
X120505929Y-107765301D01*
X120505934Y-107765300D01*
X120703954Y-107705232D01*
X120886450Y-107607685D01*
X121046410Y-107476410D01*
X121177685Y-107316450D01*
X121239928Y-107200002D01*
X130594353Y-107200002D01*
X130614834Y-107342456D01*
X130674622Y-107473371D01*
X130674623Y-107473373D01*
X130768872Y-107582143D01*
X130768873Y-107582144D01*
X130808613Y-107607683D01*
X130889947Y-107659953D01*
X130996403Y-107691211D01*
X131028035Y-107700499D01*
X131028036Y-107700499D01*
X131028039Y-107700500D01*
X131028041Y-107700500D01*
X131171959Y-107700500D01*
X131171961Y-107700500D01*
X131310053Y-107659953D01*
X131431128Y-107582143D01*
X131525377Y-107473373D01*
X131585165Y-107342457D01*
X131605647Y-107200000D01*
X131585165Y-107057543D01*
X131525377Y-106926627D01*
X131431128Y-106817857D01*
X131431127Y-106817856D01*
X131431126Y-106817855D01*
X131310057Y-106740049D01*
X131310054Y-106740047D01*
X131310053Y-106740047D01*
X131310050Y-106740046D01*
X131171964Y-106699500D01*
X131171961Y-106699500D01*
X131028039Y-106699500D01*
X131028035Y-106699500D01*
X130889949Y-106740046D01*
X130889942Y-106740049D01*
X130768873Y-106817855D01*
X130674622Y-106926628D01*
X130614834Y-107057543D01*
X130594353Y-107199997D01*
X130594353Y-107200002D01*
X121239928Y-107200002D01*
X121275232Y-107133954D01*
X121335300Y-106935934D01*
X121335301Y-106935929D01*
X121355583Y-106730003D01*
X121355583Y-106729996D01*
X121335301Y-106524070D01*
X121335300Y-106524065D01*
X121297817Y-106400500D01*
X121275232Y-106326046D01*
X121177685Y-106143550D01*
X121136966Y-106093934D01*
X121046414Y-105983595D01*
X121046410Y-105983590D01*
X121046404Y-105983585D01*
X120944558Y-105900002D01*
X123594353Y-105900002D01*
X123614834Y-106042456D01*
X123638344Y-106093934D01*
X123674623Y-106173373D01*
X123768872Y-106282143D01*
X123768873Y-106282144D01*
X123841310Y-106328696D01*
X123889947Y-106359953D01*
X123996403Y-106391211D01*
X124028035Y-106400499D01*
X124028036Y-106400499D01*
X124028039Y-106400500D01*
X124028041Y-106400500D01*
X124171959Y-106400500D01*
X124171961Y-106400500D01*
X124310053Y-106359953D01*
X124431128Y-106282143D01*
X124525377Y-106173373D01*
X124585165Y-106042457D01*
X124605647Y-105900000D01*
X124596847Y-105838797D01*
X124585165Y-105757543D01*
X124583898Y-105754768D01*
X124558887Y-105700002D01*
X127294353Y-105700002D01*
X127314834Y-105842456D01*
X127341113Y-105899997D01*
X127374623Y-105973373D01*
X127468872Y-106082143D01*
X127468873Y-106082144D01*
X127564423Y-106143550D01*
X127589947Y-106159953D01*
X127696403Y-106191211D01*
X127728035Y-106200499D01*
X127728036Y-106200499D01*
X127728039Y-106200500D01*
X127728041Y-106200500D01*
X127871959Y-106200500D01*
X127871961Y-106200500D01*
X128010053Y-106159953D01*
X128131128Y-106082143D01*
X128225377Y-105973373D01*
X128285165Y-105842457D01*
X128305647Y-105700000D01*
X128285165Y-105557543D01*
X128225377Y-105426627D01*
X128131128Y-105317857D01*
X128131127Y-105317856D01*
X128131126Y-105317855D01*
X128010057Y-105240049D01*
X128010054Y-105240047D01*
X128010053Y-105240047D01*
X128010050Y-105240046D01*
X127871964Y-105199500D01*
X127871961Y-105199500D01*
X127728039Y-105199500D01*
X127728035Y-105199500D01*
X127589949Y-105240046D01*
X127589942Y-105240049D01*
X127468873Y-105317855D01*
X127374622Y-105426628D01*
X127314834Y-105557543D01*
X127294353Y-105699997D01*
X127294353Y-105700002D01*
X124558887Y-105700002D01*
X124525377Y-105626627D01*
X124431128Y-105517857D01*
X124431127Y-105517856D01*
X124431126Y-105517855D01*
X124310057Y-105440049D01*
X124310054Y-105440047D01*
X124310053Y-105440047D01*
X124310050Y-105440046D01*
X124171964Y-105399500D01*
X124171961Y-105399500D01*
X124028039Y-105399500D01*
X124028035Y-105399500D01*
X123889949Y-105440046D01*
X123889942Y-105440049D01*
X123768873Y-105517855D01*
X123674622Y-105626628D01*
X123614834Y-105757543D01*
X123594353Y-105899997D01*
X123594353Y-105900002D01*
X120944558Y-105900002D01*
X120886452Y-105852316D01*
X120703954Y-105754768D01*
X120505934Y-105694699D01*
X120505929Y-105694698D01*
X120300003Y-105674417D01*
X120299997Y-105674417D01*
X120094070Y-105694698D01*
X120094065Y-105694699D01*
X119896045Y-105754768D01*
X119713547Y-105852316D01*
X119553595Y-105983585D01*
X119553585Y-105983595D01*
X119422316Y-106143547D01*
X119324768Y-106326045D01*
X119264699Y-106524065D01*
X119264698Y-106524070D01*
X119244417Y-106729996D01*
X119244417Y-106730003D01*
X115300500Y-106730003D01*
X115300500Y-104190003D01*
X119244417Y-104190003D01*
X119264698Y-104395929D01*
X119264699Y-104395934D01*
X119324768Y-104593954D01*
X119422316Y-104776452D01*
X119553585Y-104936404D01*
X119553590Y-104936410D01*
X119553595Y-104936414D01*
X119713547Y-105067683D01*
X119713548Y-105067683D01*
X119713550Y-105067685D01*
X119896046Y-105165232D01*
X120009014Y-105199500D01*
X120094065Y-105225300D01*
X120094070Y-105225301D01*
X120299997Y-105245583D01*
X120300000Y-105245583D01*
X120300003Y-105245583D01*
X120505929Y-105225301D01*
X120505934Y-105225300D01*
X120703954Y-105165232D01*
X120886450Y-105067685D01*
X120968921Y-105000003D01*
X157894592Y-105000003D01*
X157914201Y-105286682D01*
X157914202Y-105286686D01*
X157972666Y-105568032D01*
X158068896Y-105838797D01*
X158201099Y-106093936D01*
X158366811Y-106328698D01*
X158562947Y-106538708D01*
X158785853Y-106720055D01*
X158785859Y-106720059D01*
X158785861Y-106720060D01*
X159031370Y-106869358D01*
X159031382Y-106869365D01*
X159218237Y-106950526D01*
X159294942Y-106983844D01*
X159571642Y-107061371D01*
X159856322Y-107100500D01*
X159856328Y-107100500D01*
X160143672Y-107100500D01*
X160143678Y-107100500D01*
X160428358Y-107061371D01*
X160705058Y-106983844D01*
X160866351Y-106913784D01*
X160968617Y-106869365D01*
X160968620Y-106869362D01*
X160968625Y-106869361D01*
X161214147Y-106720055D01*
X161437053Y-106538708D01*
X161633189Y-106328698D01*
X161798901Y-106093936D01*
X161931104Y-105838797D01*
X162027334Y-105568032D01*
X162085798Y-105286686D01*
X162105408Y-105000000D01*
X162085798Y-104713314D01*
X162027334Y-104431968D01*
X161931104Y-104161203D01*
X161798901Y-103906064D01*
X161633189Y-103671302D01*
X161437053Y-103461292D01*
X161415300Y-103443595D01*
X161214152Y-103279949D01*
X161214151Y-103279948D01*
X161214147Y-103279945D01*
X161214142Y-103279942D01*
X161214138Y-103279939D01*
X160968629Y-103130641D01*
X160968617Y-103130634D01*
X160705063Y-103016158D01*
X160705061Y-103016157D01*
X160705058Y-103016156D01*
X160428358Y-102938629D01*
X160143678Y-102899500D01*
X159856322Y-102899500D01*
X159571642Y-102938629D01*
X159294942Y-103016156D01*
X159294939Y-103016156D01*
X159294936Y-103016158D01*
X159031382Y-103130634D01*
X159031370Y-103130641D01*
X158785861Y-103279939D01*
X158785847Y-103279949D01*
X158562952Y-103461287D01*
X158562951Y-103461288D01*
X158366810Y-103671303D01*
X158366805Y-103671309D01*
X158201098Y-103906065D01*
X158068895Y-104161204D01*
X158058660Y-104190003D01*
X157985473Y-104395934D01*
X157972665Y-104431972D01*
X157914203Y-104713308D01*
X157914201Y-104713317D01*
X157894592Y-104999996D01*
X157894592Y-105000003D01*
X120968921Y-105000003D01*
X121046410Y-104936410D01*
X121177685Y-104776450D01*
X121275232Y-104593954D01*
X121335300Y-104395934D01*
X121335301Y-104395929D01*
X121355583Y-104190003D01*
X121355583Y-104189996D01*
X121336870Y-104000002D01*
X130394353Y-104000002D01*
X130414834Y-104142456D01*
X130474622Y-104273371D01*
X130474623Y-104273373D01*
X130568872Y-104382143D01*
X130568873Y-104382144D01*
X130689942Y-104459950D01*
X130689947Y-104459953D01*
X130796403Y-104491211D01*
X130828035Y-104500499D01*
X130828036Y-104500499D01*
X130828039Y-104500500D01*
X130828041Y-104500500D01*
X130971959Y-104500500D01*
X130971961Y-104500500D01*
X131110053Y-104459953D01*
X131231128Y-104382143D01*
X131325377Y-104273373D01*
X131385165Y-104142457D01*
X131405647Y-104000000D01*
X131385165Y-103857543D01*
X131325377Y-103726627D01*
X131231128Y-103617857D01*
X131231127Y-103617856D01*
X131231126Y-103617855D01*
X131110057Y-103540049D01*
X131110054Y-103540047D01*
X131110053Y-103540047D01*
X131110050Y-103540046D01*
X130971964Y-103499500D01*
X130971961Y-103499500D01*
X130828039Y-103499500D01*
X130828035Y-103499500D01*
X130689949Y-103540046D01*
X130689942Y-103540049D01*
X130568873Y-103617855D01*
X130474622Y-103726628D01*
X130414834Y-103857543D01*
X130394353Y-103999997D01*
X130394353Y-104000002D01*
X121336870Y-104000002D01*
X121335301Y-103984070D01*
X121335300Y-103984065D01*
X121296920Y-103857543D01*
X121275232Y-103786046D01*
X121177685Y-103603550D01*
X121125571Y-103540049D01*
X121046414Y-103443595D01*
X121046410Y-103443590D01*
X121046404Y-103443585D01*
X120886452Y-103312316D01*
X120703954Y-103214768D01*
X120505934Y-103154699D01*
X120505929Y-103154698D01*
X120300003Y-103134417D01*
X120299997Y-103134417D01*
X120094070Y-103154698D01*
X120094065Y-103154699D01*
X119896045Y-103214768D01*
X119713547Y-103312316D01*
X119553595Y-103443585D01*
X119553585Y-103443595D01*
X119422316Y-103603547D01*
X119324768Y-103786045D01*
X119264699Y-103984065D01*
X119264698Y-103984070D01*
X119244417Y-104189996D01*
X119244417Y-104190003D01*
X115300500Y-104190003D01*
X115300500Y-102519746D01*
X119249500Y-102519746D01*
X119249501Y-102519758D01*
X119261132Y-102578227D01*
X119261133Y-102578231D01*
X119305448Y-102644552D01*
X119371769Y-102688867D01*
X119416231Y-102697711D01*
X119430241Y-102700498D01*
X119430246Y-102700498D01*
X119430252Y-102700500D01*
X119430253Y-102700500D01*
X121169747Y-102700500D01*
X121169748Y-102700500D01*
X121228231Y-102688867D01*
X121294552Y-102644552D01*
X121338867Y-102578231D01*
X121350500Y-102519748D01*
X121350500Y-102000002D01*
X129994353Y-102000002D01*
X130014834Y-102142456D01*
X130068493Y-102259950D01*
X130074623Y-102273373D01*
X130168872Y-102382143D01*
X130168873Y-102382144D01*
X130289942Y-102459950D01*
X130289947Y-102459953D01*
X130396403Y-102491211D01*
X130428035Y-102500499D01*
X130428036Y-102500499D01*
X130428039Y-102500500D01*
X130428041Y-102500500D01*
X130571959Y-102500500D01*
X130571961Y-102500500D01*
X130710053Y-102459953D01*
X130831128Y-102382143D01*
X130925377Y-102273373D01*
X130985165Y-102142457D01*
X131005647Y-102000000D01*
X130985165Y-101857543D01*
X130958887Y-101800002D01*
X137694353Y-101800002D01*
X137714834Y-101942456D01*
X137741113Y-101999997D01*
X137774623Y-102073373D01*
X137868872Y-102182143D01*
X137868873Y-102182144D01*
X137989942Y-102259950D01*
X137989947Y-102259953D01*
X138096403Y-102291211D01*
X138128035Y-102300499D01*
X138128036Y-102300499D01*
X138128039Y-102300500D01*
X138128041Y-102300500D01*
X138271959Y-102300500D01*
X138271961Y-102300500D01*
X138410053Y-102259953D01*
X138531128Y-102182143D01*
X138625377Y-102073373D01*
X138685165Y-101942457D01*
X138705647Y-101800000D01*
X138685165Y-101657543D01*
X138625377Y-101526627D01*
X138531128Y-101417857D01*
X138531127Y-101417856D01*
X138531126Y-101417855D01*
X138410057Y-101340049D01*
X138410054Y-101340047D01*
X138410053Y-101340047D01*
X138410050Y-101340046D01*
X138271964Y-101299500D01*
X138271961Y-101299500D01*
X138128039Y-101299500D01*
X138128035Y-101299500D01*
X137989949Y-101340046D01*
X137989942Y-101340049D01*
X137868873Y-101417855D01*
X137774622Y-101526628D01*
X137714834Y-101657543D01*
X137694353Y-101799997D01*
X137694353Y-101800002D01*
X130958887Y-101800002D01*
X130925377Y-101726627D01*
X130831128Y-101617857D01*
X130831127Y-101617856D01*
X130831126Y-101617855D01*
X130710057Y-101540049D01*
X130710054Y-101540047D01*
X130710053Y-101540047D01*
X130710050Y-101540046D01*
X130571964Y-101499500D01*
X130571961Y-101499500D01*
X130428039Y-101499500D01*
X130428035Y-101499500D01*
X130289949Y-101540046D01*
X130289942Y-101540049D01*
X130168873Y-101617855D01*
X130074622Y-101726628D01*
X130014834Y-101857543D01*
X129994353Y-101999997D01*
X129994353Y-102000002D01*
X121350500Y-102000002D01*
X121350500Y-100780252D01*
X121338867Y-100721769D01*
X121294552Y-100655448D01*
X121294548Y-100655445D01*
X121228233Y-100611134D01*
X121228231Y-100611133D01*
X121228228Y-100611132D01*
X121228227Y-100611132D01*
X121169758Y-100599501D01*
X121169748Y-100599500D01*
X119430252Y-100599500D01*
X119430251Y-100599500D01*
X119430241Y-100599501D01*
X119371772Y-100611132D01*
X119371766Y-100611134D01*
X119305451Y-100655445D01*
X119305445Y-100655451D01*
X119261134Y-100721766D01*
X119261132Y-100721772D01*
X119249501Y-100780241D01*
X119249500Y-100780253D01*
X119249500Y-102519746D01*
X115300500Y-102519746D01*
X115300500Y-99000002D01*
X117494353Y-99000002D01*
X117514834Y-99142456D01*
X117562687Y-99247238D01*
X117574623Y-99273373D01*
X117668872Y-99382143D01*
X117668873Y-99382144D01*
X117789942Y-99459950D01*
X117789947Y-99459953D01*
X117896403Y-99491211D01*
X117928035Y-99500499D01*
X117928036Y-99500499D01*
X117928039Y-99500500D01*
X117928041Y-99500500D01*
X118071959Y-99500500D01*
X118071961Y-99500500D01*
X118210053Y-99459953D01*
X118331128Y-99382143D01*
X118425182Y-99273597D01*
X118477576Y-99242003D01*
X118538537Y-99247238D01*
X118574816Y-99273596D01*
X118668872Y-99382143D01*
X118668873Y-99382144D01*
X118789942Y-99459950D01*
X118789947Y-99459953D01*
X118896403Y-99491211D01*
X118928035Y-99500499D01*
X118928036Y-99500499D01*
X118928039Y-99500500D01*
X118928041Y-99500500D01*
X119071959Y-99500500D01*
X119071961Y-99500500D01*
X119210053Y-99459953D01*
X119331128Y-99382143D01*
X119425377Y-99273373D01*
X119485165Y-99142457D01*
X119505647Y-99000000D01*
X119485165Y-98857543D01*
X119425377Y-98726627D01*
X119331128Y-98617857D01*
X119331127Y-98617856D01*
X119331126Y-98617855D01*
X119277331Y-98583284D01*
X119238600Y-98535919D01*
X119235106Y-98474833D01*
X119268185Y-98423360D01*
X119277331Y-98416716D01*
X119331126Y-98382144D01*
X119331125Y-98382144D01*
X119331128Y-98382143D01*
X119425377Y-98273373D01*
X119485165Y-98142457D01*
X119505647Y-98000000D01*
X119485165Y-97857543D01*
X119425377Y-97726627D01*
X119331128Y-97617857D01*
X119331127Y-97617856D01*
X119331126Y-97617855D01*
X119210057Y-97540049D01*
X119210054Y-97540047D01*
X119210053Y-97540047D01*
X119210050Y-97540046D01*
X119071964Y-97499500D01*
X119071961Y-97499500D01*
X118928039Y-97499500D01*
X118928035Y-97499500D01*
X118789949Y-97540046D01*
X118789942Y-97540049D01*
X118668872Y-97617856D01*
X118668870Y-97617858D01*
X118574819Y-97726400D01*
X118522424Y-97757996D01*
X118461463Y-97752760D01*
X118425181Y-97726400D01*
X118331129Y-97617858D01*
X118331127Y-97617856D01*
X118210057Y-97540049D01*
X118210054Y-97540047D01*
X118210053Y-97540047D01*
X118210050Y-97540046D01*
X118071964Y-97499500D01*
X118071961Y-97499500D01*
X117928039Y-97499500D01*
X117928035Y-97499500D01*
X117789949Y-97540046D01*
X117789942Y-97540049D01*
X117668873Y-97617855D01*
X117574622Y-97726628D01*
X117514834Y-97857543D01*
X117494353Y-97999997D01*
X117494353Y-98000002D01*
X117514834Y-98142456D01*
X117562687Y-98247238D01*
X117574623Y-98273373D01*
X117668872Y-98382143D01*
X117722669Y-98416716D01*
X117761400Y-98464082D01*
X117764893Y-98525168D01*
X117731813Y-98576640D01*
X117722669Y-98583284D01*
X117668872Y-98617857D01*
X117574622Y-98726628D01*
X117514834Y-98857543D01*
X117494353Y-98999997D01*
X117494353Y-99000002D01*
X115300500Y-99000002D01*
X115300500Y-96100002D01*
X125994353Y-96100002D01*
X126014834Y-96242456D01*
X126074622Y-96373371D01*
X126074623Y-96373373D01*
X126168872Y-96482143D01*
X126168873Y-96482144D01*
X126289942Y-96559950D01*
X126289947Y-96559953D01*
X126396403Y-96591211D01*
X126428035Y-96600499D01*
X126428036Y-96600499D01*
X126428039Y-96600500D01*
X126428041Y-96600500D01*
X126571959Y-96600500D01*
X126571961Y-96600500D01*
X126710053Y-96559953D01*
X126831128Y-96482143D01*
X126925377Y-96373373D01*
X126985165Y-96242457D01*
X127005647Y-96100000D01*
X126985165Y-95957543D01*
X126925377Y-95826627D01*
X126831128Y-95717857D01*
X126831127Y-95717856D01*
X126831126Y-95717855D01*
X126710057Y-95640049D01*
X126710054Y-95640047D01*
X126710053Y-95640047D01*
X126710050Y-95640046D01*
X126571964Y-95599500D01*
X126571961Y-95599500D01*
X126428039Y-95599500D01*
X126428035Y-95599500D01*
X126289949Y-95640046D01*
X126289942Y-95640049D01*
X126168873Y-95717855D01*
X126074622Y-95826628D01*
X126014834Y-95957543D01*
X125994353Y-96099997D01*
X125994353Y-96100002D01*
X115300500Y-96100002D01*
X115300500Y-94819746D01*
X147699500Y-94819746D01*
X147699501Y-94819758D01*
X147711132Y-94878227D01*
X147711133Y-94878231D01*
X147755448Y-94944552D01*
X147821769Y-94988867D01*
X147866231Y-94997711D01*
X147880241Y-95000498D01*
X147880246Y-95000498D01*
X147880252Y-95000500D01*
X147880253Y-95000500D01*
X151719747Y-95000500D01*
X151719748Y-95000500D01*
X151778231Y-94988867D01*
X151844552Y-94944552D01*
X151888867Y-94878231D01*
X151900500Y-94819748D01*
X151900500Y-92900000D01*
X152295057Y-92900000D01*
X152314809Y-93213958D01*
X152373752Y-93522945D01*
X152373755Y-93522955D01*
X152470965Y-93822137D01*
X152604902Y-94106765D01*
X152604909Y-94106778D01*
X152773458Y-94372368D01*
X152864285Y-94482159D01*
X153684727Y-93661716D01*
X153770278Y-93779466D01*
X153920534Y-93929722D01*
X154038281Y-94015270D01*
X153214973Y-94838579D01*
X153457794Y-95015000D01*
X153733445Y-95166539D01*
X153733448Y-95166541D01*
X154025929Y-95282341D01*
X154330624Y-95360574D01*
X154642713Y-95400000D01*
X154957287Y-95400000D01*
X155269375Y-95360574D01*
X155574070Y-95282341D01*
X155866551Y-95166541D01*
X155866554Y-95166539D01*
X156142205Y-95015000D01*
X156385026Y-94838579D01*
X155561717Y-94015270D01*
X155679466Y-93929722D01*
X155829722Y-93779466D01*
X155915271Y-93661717D01*
X156735713Y-94482159D01*
X156826541Y-94372368D01*
X156995090Y-94106778D01*
X156995097Y-94106765D01*
X157129034Y-93822137D01*
X157226244Y-93522955D01*
X157226247Y-93522945D01*
X157285190Y-93213958D01*
X157304942Y-92900000D01*
X157285190Y-92586041D01*
X157226247Y-92277054D01*
X157226244Y-92277044D01*
X157129034Y-91977862D01*
X156995097Y-91693234D01*
X156995090Y-91693221D01*
X156826541Y-91427631D01*
X156735713Y-91317839D01*
X155915270Y-92138281D01*
X155829722Y-92020534D01*
X155679466Y-91870278D01*
X155561716Y-91784727D01*
X156385025Y-90961419D01*
X156142205Y-90784999D01*
X155866554Y-90633460D01*
X155866551Y-90633458D01*
X155574070Y-90517658D01*
X155269375Y-90439425D01*
X154957287Y-90400000D01*
X154642713Y-90400000D01*
X154330624Y-90439425D01*
X154025929Y-90517658D01*
X153733448Y-90633458D01*
X153733445Y-90633460D01*
X153457798Y-90784997D01*
X153457779Y-90785009D01*
X153214972Y-90961418D01*
X154038282Y-91784728D01*
X153920534Y-91870278D01*
X153770278Y-92020534D01*
X153684728Y-92138282D01*
X152864285Y-91317839D01*
X152773458Y-91427631D01*
X152604903Y-91693233D01*
X152604902Y-91693234D01*
X152470965Y-91977862D01*
X152373755Y-92277044D01*
X152373752Y-92277054D01*
X152314809Y-92586041D01*
X152295057Y-92900000D01*
X151900500Y-92900000D01*
X151900500Y-90980252D01*
X151888867Y-90921769D01*
X151844552Y-90855448D01*
X151844548Y-90855445D01*
X151778233Y-90811134D01*
X151778231Y-90811133D01*
X151778228Y-90811132D01*
X151778227Y-90811132D01*
X151719758Y-90799501D01*
X151719748Y-90799500D01*
X147880252Y-90799500D01*
X147880251Y-90799500D01*
X147880241Y-90799501D01*
X147821772Y-90811132D01*
X147821766Y-90811134D01*
X147755451Y-90855445D01*
X147755445Y-90855451D01*
X147711134Y-90921766D01*
X147711132Y-90921772D01*
X147699501Y-90980241D01*
X147699500Y-90980253D01*
X147699500Y-94819746D01*
X115300500Y-94819746D01*
X115300500Y-93500000D01*
X131294357Y-93500000D01*
X131314885Y-93721536D01*
X131375771Y-93935528D01*
X131474942Y-94134689D01*
X131609019Y-94312236D01*
X131773438Y-94462124D01*
X131962599Y-94579247D01*
X132170060Y-94659618D01*
X132388757Y-94700500D01*
X132611243Y-94700500D01*
X132829940Y-94659618D01*
X133037401Y-94579247D01*
X133226562Y-94462124D01*
X133390981Y-94312236D01*
X133525058Y-94134689D01*
X133624229Y-93935528D01*
X133685115Y-93721536D01*
X133705643Y-93500000D01*
X133698341Y-93421197D01*
X136118486Y-93421197D01*
X136139014Y-93642733D01*
X136199900Y-93856725D01*
X136299071Y-94055886D01*
X136433148Y-94233433D01*
X136597567Y-94383321D01*
X136786728Y-94500444D01*
X136994189Y-94580815D01*
X137212886Y-94621697D01*
X137435372Y-94621697D01*
X137654069Y-94580815D01*
X137861530Y-94500444D01*
X138050691Y-94383321D01*
X138215110Y-94233433D01*
X138349187Y-94055886D01*
X138448358Y-93856725D01*
X138509244Y-93642733D01*
X138529772Y-93421197D01*
X138509244Y-93199661D01*
X138448358Y-92985669D01*
X138349187Y-92786508D01*
X138215110Y-92608961D01*
X138050691Y-92459073D01*
X137861530Y-92341950D01*
X137654069Y-92261579D01*
X137654068Y-92261578D01*
X137654066Y-92261578D01*
X137435372Y-92220697D01*
X137212886Y-92220697D01*
X136994191Y-92261578D01*
X136917926Y-92291123D01*
X136786728Y-92341950D01*
X136597567Y-92459073D01*
X136433149Y-92608960D01*
X136299072Y-92786506D01*
X136299067Y-92786515D01*
X136242558Y-92900000D01*
X136199900Y-92985669D01*
X136139014Y-93199661D01*
X136118486Y-93421197D01*
X133698341Y-93421197D01*
X133685115Y-93278464D01*
X133624229Y-93064472D01*
X133525058Y-92865311D01*
X133390981Y-92687764D01*
X133226562Y-92537876D01*
X133037401Y-92420753D01*
X132829940Y-92340382D01*
X132829939Y-92340381D01*
X132829937Y-92340381D01*
X132611243Y-92299500D01*
X132388757Y-92299500D01*
X132170062Y-92340381D01*
X132093797Y-92369926D01*
X131962599Y-92420753D01*
X131900710Y-92459073D01*
X131773438Y-92537876D01*
X131609020Y-92687763D01*
X131474943Y-92865309D01*
X131474938Y-92865318D01*
X131375772Y-93064469D01*
X131375771Y-93064472D01*
X131314885Y-93278464D01*
X131294357Y-93500000D01*
X115300500Y-93500000D01*
X115300500Y-90003538D01*
X115300752Y-89996476D01*
X115317293Y-89765194D01*
X115319304Y-89751212D01*
X115355557Y-89584565D01*
X115367836Y-89528115D01*
X115371815Y-89514566D01*
X115446493Y-89314343D01*
X115451608Y-89300627D01*
X115457466Y-89287799D01*
X115566901Y-89087385D01*
X115574525Y-89075522D01*
X115711364Y-88892727D01*
X115720600Y-88882067D01*
X115882067Y-88720600D01*
X115892727Y-88711364D01*
X116075522Y-88574525D01*
X116087385Y-88566901D01*
X116287799Y-88457466D01*
X116300627Y-88451608D01*
X116514566Y-88371815D01*
X116528115Y-88367836D01*
X116751215Y-88319303D01*
X116765191Y-88317293D01*
X116996476Y-88300751D01*
X117003538Y-88300500D01*
X117047595Y-88300500D01*
X160952405Y-88300500D01*
X160996462Y-88300500D01*
X161003523Y-88300751D01*
G37*
G04 #@! TD.AperFunction*
M02*
