G04 #@! TF.GenerationSoftware,KiCad,Pcbnew,8.0.1*
G04 #@! TF.CreationDate,2024-09-12T17:06:28-04:00*
G04 #@! TF.ProjectId,Digital,44696769-7461-46c2-9e6b-696361645f70,rev?*
G04 #@! TF.SameCoordinates,Original*
G04 #@! TF.FileFunction,Legend,Top*
G04 #@! TF.FilePolarity,Positive*
%FSLAX46Y46*%
G04 Gerber Fmt 4.6, Leading zero omitted, Abs format (unit mm)*
G04 Created by KiCad (PCBNEW 8.0.1) date 2024-09-12 17:06:28*
%MOMM*%
%LPD*%
G01*
G04 APERTURE LIST*
G04 Aperture macros list*
%AMRoundRect*
0 Rectangle with rounded corners*
0 $1 Rounding radius*
0 $2 $3 $4 $5 $6 $7 $8 $9 X,Y pos of 4 corners*
0 Add a 4 corners polygon primitive as box body*
4,1,4,$2,$3,$4,$5,$6,$7,$8,$9,$2,$3,0*
0 Add four circle primitives for the rounded corners*
1,1,$1+$1,$2,$3*
1,1,$1+$1,$4,$5*
1,1,$1+$1,$6,$7*
1,1,$1+$1,$8,$9*
0 Add four rect primitives between the rounded corners*
20,1,$1+$1,$2,$3,$4,$5,0*
20,1,$1+$1,$4,$5,$6,$7,0*
20,1,$1+$1,$6,$7,$8,$9,0*
20,1,$1+$1,$8,$9,$2,$3,0*%
G04 Aperture macros list end*
%ADD10C,0.125000*%
%ADD11C,0.100000*%
%ADD12C,0.120000*%
%ADD13C,0.127000*%
%ADD14C,0.152400*%
%ADD15C,0.150000*%
%ADD16C,0.310000*%
%ADD17C,0.000000*%
%ADD18C,0.182463*%
%ADD19C,0.002645*%
%ADD20C,0.346000*%
%ADD21RoundRect,0.237750X-0.237750X-0.400250X0.237750X-0.400250X0.237750X0.400250X-0.237750X0.400250X0*%
%ADD22RoundRect,0.244000X0.269000X-0.244000X0.269000X0.244000X-0.269000X0.244000X-0.269000X-0.244000X0*%
%ADD23RoundRect,0.154000X-0.154000X-0.204000X0.154000X-0.204000X0.154000X0.204000X-0.154000X0.204000X0*%
%ADD24RoundRect,0.038000X0.475000X0.275000X-0.475000X0.275000X-0.475000X-0.275000X0.475000X-0.275000X0*%
%ADD25C,0.404000*%
%ADD26RoundRect,0.159000X-0.189000X0.159000X-0.189000X-0.159000X0.189000X-0.159000X0.189000X0.159000X0*%
%ADD27RoundRect,0.081500X-0.081500X-0.081500X0.081500X-0.081500X0.081500X0.081500X-0.081500X0.081500X0*%
%ADD28RoundRect,0.038000X-0.500000X0.575000X-0.500000X-0.575000X0.500000X-0.575000X0.500000X0.575000X0*%
%ADD29RoundRect,0.154000X0.204000X-0.154000X0.204000X0.154000X-0.204000X0.154000X-0.204000X-0.154000X0*%
%ADD30RoundRect,0.159000X0.159000X0.189000X-0.159000X0.189000X-0.159000X-0.189000X0.159000X-0.189000X0*%
%ADD31RoundRect,0.244000X0.244000X0.269000X-0.244000X0.269000X-0.244000X-0.269000X0.244000X-0.269000X0*%
%ADD32C,0.290000*%
%ADD33RoundRect,0.154000X0.154000X0.204000X-0.154000X0.204000X-0.154000X-0.204000X0.154000X-0.204000X0*%
%ADD34C,1.076000*%
%ADD35RoundRect,0.038000X-0.500000X0.500000X-0.500000X-0.500000X0.500000X-0.500000X0.500000X0.500000X0*%
%ADD36RoundRect,0.038000X-1.100000X0.525000X-1.100000X-0.525000X1.100000X-0.525000X1.100000X0.525000X0*%
%ADD37RoundRect,0.038000X0.850000X0.850000X-0.850000X0.850000X-0.850000X-0.850000X0.850000X-0.850000X0*%
%ADD38O,1.776000X1.776000*%
%ADD39RoundRect,0.159000X-0.159000X-0.189000X0.159000X-0.189000X0.159000X0.189000X-0.159000X0.189000X0*%
%ADD40RoundRect,0.169000X-0.169000X0.531500X-0.169000X-0.531500X0.169000X-0.531500X0.169000X0.531500X0*%
%ADD41RoundRect,0.038000X-0.405600X-0.703199X0.405600X-0.703199X0.405600X0.703199X-0.405600X0.703199X0*%
%ADD42RoundRect,0.159000X0.189000X-0.159000X0.189000X0.159000X-0.189000X0.159000X-0.189000X-0.159000X0*%
%ADD43RoundRect,0.038000X-0.681400X-1.129900X0.681400X-1.129900X0.681400X1.129900X-0.681400X1.129900X0*%
%ADD44RoundRect,0.169000X0.531500X0.169000X-0.531500X0.169000X-0.531500X-0.169000X0.531500X-0.169000X0*%
%ADD45RoundRect,0.154000X-0.204000X0.154000X-0.204000X-0.154000X0.204000X-0.154000X0.204000X0.154000X0*%
%ADD46RoundRect,0.237750X0.237750X0.275250X-0.237750X0.275250X-0.237750X-0.275250X0.237750X-0.275250X0*%
%ADD47RoundRect,0.244000X-0.269000X0.244000X-0.269000X-0.244000X0.269000X-0.244000X0.269000X0.244000X0*%
%ADD48RoundRect,0.038000X0.405600X0.703199X-0.405600X0.703199X-0.405600X-0.703199X0.405600X-0.703199X0*%
%ADD49RoundRect,0.038000X-0.402400X-0.124600X0.402400X-0.124600X0.402400X0.124600X-0.402400X0.124600X0*%
%ADD50RoundRect,0.038000X-0.305000X-0.710000X0.305000X-0.710000X0.305000X0.710000X-0.305000X0.710000X0*%
%ADD51RoundRect,0.269000X-0.494000X0.269000X-0.494000X-0.269000X0.494000X-0.269000X0.494000X0.269000X0*%
%ADD52RoundRect,0.038000X-0.114300X0.355600X-0.114300X-0.355600X0.114300X-0.355600X0.114300X0.355600X0*%
%ADD53C,2.276000*%
%ADD54RoundRect,0.038000X0.850000X-0.850000X0.850000X0.850000X-0.850000X0.850000X-0.850000X-0.850000X0*%
%ADD55RoundRect,0.081500X-0.081500X0.369000X-0.081500X-0.369000X0.081500X-0.369000X0.081500X0.369000X0*%
%ADD56RoundRect,0.081500X-0.369000X0.081500X-0.369000X-0.081500X0.369000X-0.081500X0.369000X0.081500X0*%
%ADD57RoundRect,0.038000X-1.300000X1.300000X-1.300000X-1.300000X1.300000X-1.300000X1.300000X1.300000X0*%
%ADD58RoundRect,0.237750X-0.400250X0.237750X-0.400250X-0.237750X0.400250X-0.237750X0.400250X0.237750X0*%
%ADD59RoundRect,0.038000X-0.850000X-0.850000X0.850000X-0.850000X0.850000X0.850000X-0.850000X0.850000X0*%
%ADD60C,0.355400*%
%ADD61RoundRect,0.119000X-0.119000X0.244000X-0.119000X-0.244000X0.119000X-0.244000X0.119000X0.244000X0*%
%ADD62RoundRect,0.166500X-0.191500X0.166500X-0.191500X-0.166500X0.191500X-0.166500X0.191500X0.166500X0*%
%ADD63RoundRect,0.244000X-0.244000X-0.269000X0.244000X-0.269000X0.244000X0.269000X-0.244000X0.269000X0*%
%ADD64RoundRect,0.219000X0.219000X0.269000X-0.219000X0.269000X-0.219000X-0.269000X0.219000X-0.269000X0*%
%ADD65RoundRect,0.038000X-0.178200X-1.088999X0.178200X-1.088999X0.178200X1.088999X-0.178200X1.088999X0*%
%ADD66RoundRect,0.094000X-0.244000X-0.094000X0.244000X-0.094000X0.244000X0.094000X-0.244000X0.094000X0*%
%ADD67RoundRect,0.094000X-0.094000X-0.256500X0.094000X-0.256500X0.094000X0.256500X-0.094000X0.256500X0*%
%ADD68RoundRect,0.038000X-0.500000X-0.900000X0.500000X-0.900000X0.500000X0.900000X-0.500000X0.900000X0*%
%ADD69C,0.726000*%
%ADD70RoundRect,0.169000X-0.444000X0.169000X-0.444000X-0.169000X0.444000X-0.169000X0.444000X0.169000X0*%
%ADD71RoundRect,0.094000X-0.519000X0.094000X-0.519000X-0.094000X0.519000X-0.094000X0.519000X0.094000X0*%
%ADD72O,2.176000X1.076000*%
%ADD73O,1.876000X1.076000*%
%ADD74RoundRect,0.038000X0.900000X-0.500000X0.900000X0.500000X-0.900000X0.500000X-0.900000X-0.500000X0*%
%ADD75RoundRect,0.266521X-0.671479X0.346479X-0.671479X-0.346479X0.671479X-0.346479X0.671479X0.346479X0*%
%ADD76RoundRect,0.265200X-0.397800X-1.097800X0.397800X-1.097800X0.397800X1.097800X-0.397800X1.097800X0*%
%ADD77RoundRect,0.265833X-0.647167X0.372167X-0.647167X-0.372167X0.647167X-0.372167X0.647167X0.372167X0*%
%ADD78O,1.826000X1.276000*%
G04 APERTURE END LIST*
D10*
X179619047Y-123024809D02*
X179619047Y-123429571D01*
X179619047Y-123429571D02*
X179642857Y-123477190D01*
X179642857Y-123477190D02*
X179666666Y-123501000D01*
X179666666Y-123501000D02*
X179714285Y-123524809D01*
X179714285Y-123524809D02*
X179809523Y-123524809D01*
X179809523Y-123524809D02*
X179857142Y-123501000D01*
X179857142Y-123501000D02*
X179880952Y-123477190D01*
X179880952Y-123477190D02*
X179904761Y-123429571D01*
X179904761Y-123429571D02*
X179904761Y-123024809D01*
X180119048Y-123072428D02*
X180142857Y-123048619D01*
X180142857Y-123048619D02*
X180190476Y-123024809D01*
X180190476Y-123024809D02*
X180309524Y-123024809D01*
X180309524Y-123024809D02*
X180357143Y-123048619D01*
X180357143Y-123048619D02*
X180380952Y-123072428D01*
X180380952Y-123072428D02*
X180404762Y-123120047D01*
X180404762Y-123120047D02*
X180404762Y-123167666D01*
X180404762Y-123167666D02*
X180380952Y-123239095D01*
X180380952Y-123239095D02*
X180095238Y-123524809D01*
X180095238Y-123524809D02*
X180404762Y-123524809D01*
X158816666Y-149924809D02*
X158578571Y-149924809D01*
X158578571Y-149924809D02*
X158578571Y-149424809D01*
X159245238Y-149924809D02*
X158959524Y-149924809D01*
X159102381Y-149924809D02*
X159102381Y-149424809D01*
X159102381Y-149424809D02*
X159054762Y-149496238D01*
X159054762Y-149496238D02*
X159007143Y-149543857D01*
X159007143Y-149543857D02*
X158959524Y-149567666D01*
X161786666Y-129777190D02*
X161762857Y-129801000D01*
X161762857Y-129801000D02*
X161691428Y-129824809D01*
X161691428Y-129824809D02*
X161643809Y-129824809D01*
X161643809Y-129824809D02*
X161572381Y-129801000D01*
X161572381Y-129801000D02*
X161524762Y-129753380D01*
X161524762Y-129753380D02*
X161500952Y-129705761D01*
X161500952Y-129705761D02*
X161477143Y-129610523D01*
X161477143Y-129610523D02*
X161477143Y-129539095D01*
X161477143Y-129539095D02*
X161500952Y-129443857D01*
X161500952Y-129443857D02*
X161524762Y-129396238D01*
X161524762Y-129396238D02*
X161572381Y-129348619D01*
X161572381Y-129348619D02*
X161643809Y-129324809D01*
X161643809Y-129324809D02*
X161691428Y-129324809D01*
X161691428Y-129324809D02*
X161762857Y-129348619D01*
X161762857Y-129348619D02*
X161786666Y-129372428D01*
X162239047Y-129324809D02*
X162000952Y-129324809D01*
X162000952Y-129324809D02*
X161977143Y-129562904D01*
X161977143Y-129562904D02*
X162000952Y-129539095D01*
X162000952Y-129539095D02*
X162048571Y-129515285D01*
X162048571Y-129515285D02*
X162167619Y-129515285D01*
X162167619Y-129515285D02*
X162215238Y-129539095D01*
X162215238Y-129539095D02*
X162239047Y-129562904D01*
X162239047Y-129562904D02*
X162262857Y-129610523D01*
X162262857Y-129610523D02*
X162262857Y-129729571D01*
X162262857Y-129729571D02*
X162239047Y-129777190D01*
X162239047Y-129777190D02*
X162215238Y-129801000D01*
X162215238Y-129801000D02*
X162167619Y-129824809D01*
X162167619Y-129824809D02*
X162048571Y-129824809D01*
X162048571Y-129824809D02*
X162000952Y-129801000D01*
X162000952Y-129801000D02*
X161977143Y-129777190D01*
X171419047Y-120974809D02*
X171419047Y-121379571D01*
X171419047Y-121379571D02*
X171442857Y-121427190D01*
X171442857Y-121427190D02*
X171466666Y-121451000D01*
X171466666Y-121451000D02*
X171514285Y-121474809D01*
X171514285Y-121474809D02*
X171609523Y-121474809D01*
X171609523Y-121474809D02*
X171657142Y-121451000D01*
X171657142Y-121451000D02*
X171680952Y-121427190D01*
X171680952Y-121427190D02*
X171704761Y-121379571D01*
X171704761Y-121379571D02*
X171704761Y-120974809D01*
X172204762Y-121474809D02*
X171919048Y-121474809D01*
X172061905Y-121474809D02*
X172061905Y-120974809D01*
X172061905Y-120974809D02*
X172014286Y-121046238D01*
X172014286Y-121046238D02*
X171966667Y-121093857D01*
X171966667Y-121093857D02*
X171919048Y-121117666D01*
X184219047Y-135424809D02*
X184219047Y-135829571D01*
X184219047Y-135829571D02*
X184242857Y-135877190D01*
X184242857Y-135877190D02*
X184266666Y-135901000D01*
X184266666Y-135901000D02*
X184314285Y-135924809D01*
X184314285Y-135924809D02*
X184409523Y-135924809D01*
X184409523Y-135924809D02*
X184457142Y-135901000D01*
X184457142Y-135901000D02*
X184480952Y-135877190D01*
X184480952Y-135877190D02*
X184504761Y-135829571D01*
X184504761Y-135829571D02*
X184504761Y-135424809D01*
X184957143Y-135591476D02*
X184957143Y-135924809D01*
X184838095Y-135401000D02*
X184719048Y-135758142D01*
X184719048Y-135758142D02*
X185028571Y-135758142D01*
X174277190Y-129421428D02*
X174301000Y-129445237D01*
X174301000Y-129445237D02*
X174324809Y-129516666D01*
X174324809Y-129516666D02*
X174324809Y-129564285D01*
X174324809Y-129564285D02*
X174301000Y-129635713D01*
X174301000Y-129635713D02*
X174253380Y-129683332D01*
X174253380Y-129683332D02*
X174205761Y-129707142D01*
X174205761Y-129707142D02*
X174110523Y-129730951D01*
X174110523Y-129730951D02*
X174039095Y-129730951D01*
X174039095Y-129730951D02*
X173943857Y-129707142D01*
X173943857Y-129707142D02*
X173896238Y-129683332D01*
X173896238Y-129683332D02*
X173848619Y-129635713D01*
X173848619Y-129635713D02*
X173824809Y-129564285D01*
X173824809Y-129564285D02*
X173824809Y-129516666D01*
X173824809Y-129516666D02*
X173848619Y-129445237D01*
X173848619Y-129445237D02*
X173872428Y-129421428D01*
X174324809Y-128945237D02*
X174324809Y-129230951D01*
X174324809Y-129088094D02*
X173824809Y-129088094D01*
X173824809Y-129088094D02*
X173896238Y-129135713D01*
X173896238Y-129135713D02*
X173943857Y-129183332D01*
X173943857Y-129183332D02*
X173967666Y-129230951D01*
X173872428Y-128754761D02*
X173848619Y-128730952D01*
X173848619Y-128730952D02*
X173824809Y-128683333D01*
X173824809Y-128683333D02*
X173824809Y-128564285D01*
X173824809Y-128564285D02*
X173848619Y-128516666D01*
X173848619Y-128516666D02*
X173872428Y-128492857D01*
X173872428Y-128492857D02*
X173920047Y-128469047D01*
X173920047Y-128469047D02*
X173967666Y-128469047D01*
X173967666Y-128469047D02*
X174039095Y-128492857D01*
X174039095Y-128492857D02*
X174324809Y-128778571D01*
X174324809Y-128778571D02*
X174324809Y-128469047D01*
X189580952Y-148224809D02*
X189580952Y-148629571D01*
X189580952Y-148629571D02*
X189604762Y-148677190D01*
X189604762Y-148677190D02*
X189628571Y-148701000D01*
X189628571Y-148701000D02*
X189676190Y-148724809D01*
X189676190Y-148724809D02*
X189771428Y-148724809D01*
X189771428Y-148724809D02*
X189819047Y-148701000D01*
X189819047Y-148701000D02*
X189842857Y-148677190D01*
X189842857Y-148677190D02*
X189866666Y-148629571D01*
X189866666Y-148629571D02*
X189866666Y-148224809D01*
X190366667Y-148724809D02*
X190080953Y-148724809D01*
X190223810Y-148724809D02*
X190223810Y-148224809D01*
X190223810Y-148224809D02*
X190176191Y-148296238D01*
X190176191Y-148296238D02*
X190128572Y-148343857D01*
X190128572Y-148343857D02*
X190080953Y-148367666D01*
X190676190Y-148224809D02*
X190723809Y-148224809D01*
X190723809Y-148224809D02*
X190771428Y-148248619D01*
X190771428Y-148248619D02*
X190795238Y-148272428D01*
X190795238Y-148272428D02*
X190819047Y-148320047D01*
X190819047Y-148320047D02*
X190842857Y-148415285D01*
X190842857Y-148415285D02*
X190842857Y-148534333D01*
X190842857Y-148534333D02*
X190819047Y-148629571D01*
X190819047Y-148629571D02*
X190795238Y-148677190D01*
X190795238Y-148677190D02*
X190771428Y-148701000D01*
X190771428Y-148701000D02*
X190723809Y-148724809D01*
X190723809Y-148724809D02*
X190676190Y-148724809D01*
X190676190Y-148724809D02*
X190628571Y-148701000D01*
X190628571Y-148701000D02*
X190604762Y-148677190D01*
X190604762Y-148677190D02*
X190580952Y-148629571D01*
X190580952Y-148629571D02*
X190557143Y-148534333D01*
X190557143Y-148534333D02*
X190557143Y-148415285D01*
X190557143Y-148415285D02*
X190580952Y-148320047D01*
X190580952Y-148320047D02*
X190604762Y-148272428D01*
X190604762Y-148272428D02*
X190628571Y-148248619D01*
X190628571Y-148248619D02*
X190676190Y-148224809D01*
X179169048Y-141324809D02*
X179454762Y-141324809D01*
X179311905Y-141824809D02*
X179311905Y-141324809D01*
X179907142Y-141777190D02*
X179883333Y-141801000D01*
X179883333Y-141801000D02*
X179811904Y-141824809D01*
X179811904Y-141824809D02*
X179764285Y-141824809D01*
X179764285Y-141824809D02*
X179692857Y-141801000D01*
X179692857Y-141801000D02*
X179645238Y-141753380D01*
X179645238Y-141753380D02*
X179621428Y-141705761D01*
X179621428Y-141705761D02*
X179597619Y-141610523D01*
X179597619Y-141610523D02*
X179597619Y-141539095D01*
X179597619Y-141539095D02*
X179621428Y-141443857D01*
X179621428Y-141443857D02*
X179645238Y-141396238D01*
X179645238Y-141396238D02*
X179692857Y-141348619D01*
X179692857Y-141348619D02*
X179764285Y-141324809D01*
X179764285Y-141324809D02*
X179811904Y-141324809D01*
X179811904Y-141324809D02*
X179883333Y-141348619D01*
X179883333Y-141348619D02*
X179907142Y-141372428D01*
X180073809Y-141324809D02*
X180407142Y-141824809D01*
X180407142Y-141324809D02*
X180073809Y-141824809D01*
X180692856Y-141324809D02*
X180788094Y-141324809D01*
X180788094Y-141324809D02*
X180835713Y-141348619D01*
X180835713Y-141348619D02*
X180883332Y-141396238D01*
X180883332Y-141396238D02*
X180907142Y-141491476D01*
X180907142Y-141491476D02*
X180907142Y-141658142D01*
X180907142Y-141658142D02*
X180883332Y-141753380D01*
X180883332Y-141753380D02*
X180835713Y-141801000D01*
X180835713Y-141801000D02*
X180788094Y-141824809D01*
X180788094Y-141824809D02*
X180692856Y-141824809D01*
X180692856Y-141824809D02*
X180645237Y-141801000D01*
X180645237Y-141801000D02*
X180597618Y-141753380D01*
X180597618Y-141753380D02*
X180573809Y-141658142D01*
X180573809Y-141658142D02*
X180573809Y-141491476D01*
X180573809Y-141491476D02*
X180597618Y-141396238D01*
X180597618Y-141396238D02*
X180645237Y-141348619D01*
X180645237Y-141348619D02*
X180692856Y-141324809D01*
X181383333Y-141824809D02*
X181097619Y-141824809D01*
X181240476Y-141824809D02*
X181240476Y-141324809D01*
X181240476Y-141324809D02*
X181192857Y-141396238D01*
X181192857Y-141396238D02*
X181145238Y-141443857D01*
X181145238Y-141443857D02*
X181097619Y-141467666D01*
X159778571Y-145524809D02*
X159611905Y-145286714D01*
X159492857Y-145524809D02*
X159492857Y-145024809D01*
X159492857Y-145024809D02*
X159683333Y-145024809D01*
X159683333Y-145024809D02*
X159730952Y-145048619D01*
X159730952Y-145048619D02*
X159754762Y-145072428D01*
X159754762Y-145072428D02*
X159778571Y-145120047D01*
X159778571Y-145120047D02*
X159778571Y-145191476D01*
X159778571Y-145191476D02*
X159754762Y-145239095D01*
X159754762Y-145239095D02*
X159730952Y-145262904D01*
X159730952Y-145262904D02*
X159683333Y-145286714D01*
X159683333Y-145286714D02*
X159492857Y-145286714D01*
X160254762Y-145524809D02*
X159969048Y-145524809D01*
X160111905Y-145524809D02*
X160111905Y-145024809D01*
X160111905Y-145024809D02*
X160064286Y-145096238D01*
X160064286Y-145096238D02*
X160016667Y-145143857D01*
X160016667Y-145143857D02*
X159969048Y-145167666D01*
X160421428Y-145024809D02*
X160754761Y-145024809D01*
X160754761Y-145024809D02*
X160540476Y-145524809D01*
X174278571Y-150077190D02*
X174254762Y-150101000D01*
X174254762Y-150101000D02*
X174183333Y-150124809D01*
X174183333Y-150124809D02*
X174135714Y-150124809D01*
X174135714Y-150124809D02*
X174064286Y-150101000D01*
X174064286Y-150101000D02*
X174016667Y-150053380D01*
X174016667Y-150053380D02*
X173992857Y-150005761D01*
X173992857Y-150005761D02*
X173969048Y-149910523D01*
X173969048Y-149910523D02*
X173969048Y-149839095D01*
X173969048Y-149839095D02*
X173992857Y-149743857D01*
X173992857Y-149743857D02*
X174016667Y-149696238D01*
X174016667Y-149696238D02*
X174064286Y-149648619D01*
X174064286Y-149648619D02*
X174135714Y-149624809D01*
X174135714Y-149624809D02*
X174183333Y-149624809D01*
X174183333Y-149624809D02*
X174254762Y-149648619D01*
X174254762Y-149648619D02*
X174278571Y-149672428D01*
X174469048Y-149672428D02*
X174492857Y-149648619D01*
X174492857Y-149648619D02*
X174540476Y-149624809D01*
X174540476Y-149624809D02*
X174659524Y-149624809D01*
X174659524Y-149624809D02*
X174707143Y-149648619D01*
X174707143Y-149648619D02*
X174730952Y-149672428D01*
X174730952Y-149672428D02*
X174754762Y-149720047D01*
X174754762Y-149720047D02*
X174754762Y-149767666D01*
X174754762Y-149767666D02*
X174730952Y-149839095D01*
X174730952Y-149839095D02*
X174445238Y-150124809D01*
X174445238Y-150124809D02*
X174754762Y-150124809D01*
X175207142Y-149624809D02*
X174969047Y-149624809D01*
X174969047Y-149624809D02*
X174945238Y-149862904D01*
X174945238Y-149862904D02*
X174969047Y-149839095D01*
X174969047Y-149839095D02*
X175016666Y-149815285D01*
X175016666Y-149815285D02*
X175135714Y-149815285D01*
X175135714Y-149815285D02*
X175183333Y-149839095D01*
X175183333Y-149839095D02*
X175207142Y-149862904D01*
X175207142Y-149862904D02*
X175230952Y-149910523D01*
X175230952Y-149910523D02*
X175230952Y-150029571D01*
X175230952Y-150029571D02*
X175207142Y-150077190D01*
X175207142Y-150077190D02*
X175183333Y-150101000D01*
X175183333Y-150101000D02*
X175135714Y-150124809D01*
X175135714Y-150124809D02*
X175016666Y-150124809D01*
X175016666Y-150124809D02*
X174969047Y-150101000D01*
X174969047Y-150101000D02*
X174945238Y-150077190D01*
X174278571Y-151177190D02*
X174254762Y-151201000D01*
X174254762Y-151201000D02*
X174183333Y-151224809D01*
X174183333Y-151224809D02*
X174135714Y-151224809D01*
X174135714Y-151224809D02*
X174064286Y-151201000D01*
X174064286Y-151201000D02*
X174016667Y-151153380D01*
X174016667Y-151153380D02*
X173992857Y-151105761D01*
X173992857Y-151105761D02*
X173969048Y-151010523D01*
X173969048Y-151010523D02*
X173969048Y-150939095D01*
X173969048Y-150939095D02*
X173992857Y-150843857D01*
X173992857Y-150843857D02*
X174016667Y-150796238D01*
X174016667Y-150796238D02*
X174064286Y-150748619D01*
X174064286Y-150748619D02*
X174135714Y-150724809D01*
X174135714Y-150724809D02*
X174183333Y-150724809D01*
X174183333Y-150724809D02*
X174254762Y-150748619D01*
X174254762Y-150748619D02*
X174278571Y-150772428D01*
X174469048Y-150772428D02*
X174492857Y-150748619D01*
X174492857Y-150748619D02*
X174540476Y-150724809D01*
X174540476Y-150724809D02*
X174659524Y-150724809D01*
X174659524Y-150724809D02*
X174707143Y-150748619D01*
X174707143Y-150748619D02*
X174730952Y-150772428D01*
X174730952Y-150772428D02*
X174754762Y-150820047D01*
X174754762Y-150820047D02*
X174754762Y-150867666D01*
X174754762Y-150867666D02*
X174730952Y-150939095D01*
X174730952Y-150939095D02*
X174445238Y-151224809D01*
X174445238Y-151224809D02*
X174754762Y-151224809D01*
X175183333Y-150724809D02*
X175088095Y-150724809D01*
X175088095Y-150724809D02*
X175040476Y-150748619D01*
X175040476Y-150748619D02*
X175016666Y-150772428D01*
X175016666Y-150772428D02*
X174969047Y-150843857D01*
X174969047Y-150843857D02*
X174945238Y-150939095D01*
X174945238Y-150939095D02*
X174945238Y-151129571D01*
X174945238Y-151129571D02*
X174969047Y-151177190D01*
X174969047Y-151177190D02*
X174992857Y-151201000D01*
X174992857Y-151201000D02*
X175040476Y-151224809D01*
X175040476Y-151224809D02*
X175135714Y-151224809D01*
X175135714Y-151224809D02*
X175183333Y-151201000D01*
X175183333Y-151201000D02*
X175207142Y-151177190D01*
X175207142Y-151177190D02*
X175230952Y-151129571D01*
X175230952Y-151129571D02*
X175230952Y-151010523D01*
X175230952Y-151010523D02*
X175207142Y-150962904D01*
X175207142Y-150962904D02*
X175183333Y-150939095D01*
X175183333Y-150939095D02*
X175135714Y-150915285D01*
X175135714Y-150915285D02*
X175040476Y-150915285D01*
X175040476Y-150915285D02*
X174992857Y-150939095D01*
X174992857Y-150939095D02*
X174969047Y-150962904D01*
X174969047Y-150962904D02*
X174945238Y-151010523D01*
X167478571Y-123577190D02*
X167454762Y-123601000D01*
X167454762Y-123601000D02*
X167383333Y-123624809D01*
X167383333Y-123624809D02*
X167335714Y-123624809D01*
X167335714Y-123624809D02*
X167264286Y-123601000D01*
X167264286Y-123601000D02*
X167216667Y-123553380D01*
X167216667Y-123553380D02*
X167192857Y-123505761D01*
X167192857Y-123505761D02*
X167169048Y-123410523D01*
X167169048Y-123410523D02*
X167169048Y-123339095D01*
X167169048Y-123339095D02*
X167192857Y-123243857D01*
X167192857Y-123243857D02*
X167216667Y-123196238D01*
X167216667Y-123196238D02*
X167264286Y-123148619D01*
X167264286Y-123148619D02*
X167335714Y-123124809D01*
X167335714Y-123124809D02*
X167383333Y-123124809D01*
X167383333Y-123124809D02*
X167454762Y-123148619D01*
X167454762Y-123148619D02*
X167478571Y-123172428D01*
X167954762Y-123624809D02*
X167669048Y-123624809D01*
X167811905Y-123624809D02*
X167811905Y-123124809D01*
X167811905Y-123124809D02*
X167764286Y-123196238D01*
X167764286Y-123196238D02*
X167716667Y-123243857D01*
X167716667Y-123243857D02*
X167669048Y-123267666D01*
X168407142Y-123124809D02*
X168169047Y-123124809D01*
X168169047Y-123124809D02*
X168145238Y-123362904D01*
X168145238Y-123362904D02*
X168169047Y-123339095D01*
X168169047Y-123339095D02*
X168216666Y-123315285D01*
X168216666Y-123315285D02*
X168335714Y-123315285D01*
X168335714Y-123315285D02*
X168383333Y-123339095D01*
X168383333Y-123339095D02*
X168407142Y-123362904D01*
X168407142Y-123362904D02*
X168430952Y-123410523D01*
X168430952Y-123410523D02*
X168430952Y-123529571D01*
X168430952Y-123529571D02*
X168407142Y-123577190D01*
X168407142Y-123577190D02*
X168383333Y-123601000D01*
X168383333Y-123601000D02*
X168335714Y-123624809D01*
X168335714Y-123624809D02*
X168216666Y-123624809D01*
X168216666Y-123624809D02*
X168169047Y-123601000D01*
X168169047Y-123601000D02*
X168145238Y-123577190D01*
X168719047Y-130724809D02*
X168719047Y-131129571D01*
X168719047Y-131129571D02*
X168742857Y-131177190D01*
X168742857Y-131177190D02*
X168766666Y-131201000D01*
X168766666Y-131201000D02*
X168814285Y-131224809D01*
X168814285Y-131224809D02*
X168909523Y-131224809D01*
X168909523Y-131224809D02*
X168957142Y-131201000D01*
X168957142Y-131201000D02*
X168980952Y-131177190D01*
X168980952Y-131177190D02*
X169004761Y-131129571D01*
X169004761Y-131129571D02*
X169004761Y-130724809D01*
X169195238Y-130724809D02*
X169504762Y-130724809D01*
X169504762Y-130724809D02*
X169338095Y-130915285D01*
X169338095Y-130915285D02*
X169409524Y-130915285D01*
X169409524Y-130915285D02*
X169457143Y-130939095D01*
X169457143Y-130939095D02*
X169480952Y-130962904D01*
X169480952Y-130962904D02*
X169504762Y-131010523D01*
X169504762Y-131010523D02*
X169504762Y-131129571D01*
X169504762Y-131129571D02*
X169480952Y-131177190D01*
X169480952Y-131177190D02*
X169457143Y-131201000D01*
X169457143Y-131201000D02*
X169409524Y-131224809D01*
X169409524Y-131224809D02*
X169266667Y-131224809D01*
X169266667Y-131224809D02*
X169219048Y-131201000D01*
X169219048Y-131201000D02*
X169195238Y-131177190D01*
X160178571Y-142824809D02*
X160011905Y-142586714D01*
X159892857Y-142824809D02*
X159892857Y-142324809D01*
X159892857Y-142324809D02*
X160083333Y-142324809D01*
X160083333Y-142324809D02*
X160130952Y-142348619D01*
X160130952Y-142348619D02*
X160154762Y-142372428D01*
X160154762Y-142372428D02*
X160178571Y-142420047D01*
X160178571Y-142420047D02*
X160178571Y-142491476D01*
X160178571Y-142491476D02*
X160154762Y-142539095D01*
X160154762Y-142539095D02*
X160130952Y-142562904D01*
X160130952Y-142562904D02*
X160083333Y-142586714D01*
X160083333Y-142586714D02*
X159892857Y-142586714D01*
X160369048Y-142372428D02*
X160392857Y-142348619D01*
X160392857Y-142348619D02*
X160440476Y-142324809D01*
X160440476Y-142324809D02*
X160559524Y-142324809D01*
X160559524Y-142324809D02*
X160607143Y-142348619D01*
X160607143Y-142348619D02*
X160630952Y-142372428D01*
X160630952Y-142372428D02*
X160654762Y-142420047D01*
X160654762Y-142420047D02*
X160654762Y-142467666D01*
X160654762Y-142467666D02*
X160630952Y-142539095D01*
X160630952Y-142539095D02*
X160345238Y-142824809D01*
X160345238Y-142824809D02*
X160654762Y-142824809D01*
X160964285Y-142324809D02*
X161011904Y-142324809D01*
X161011904Y-142324809D02*
X161059523Y-142348619D01*
X161059523Y-142348619D02*
X161083333Y-142372428D01*
X161083333Y-142372428D02*
X161107142Y-142420047D01*
X161107142Y-142420047D02*
X161130952Y-142515285D01*
X161130952Y-142515285D02*
X161130952Y-142634333D01*
X161130952Y-142634333D02*
X161107142Y-142729571D01*
X161107142Y-142729571D02*
X161083333Y-142777190D01*
X161083333Y-142777190D02*
X161059523Y-142801000D01*
X161059523Y-142801000D02*
X161011904Y-142824809D01*
X161011904Y-142824809D02*
X160964285Y-142824809D01*
X160964285Y-142824809D02*
X160916666Y-142801000D01*
X160916666Y-142801000D02*
X160892857Y-142777190D01*
X160892857Y-142777190D02*
X160869047Y-142729571D01*
X160869047Y-142729571D02*
X160845238Y-142634333D01*
X160845238Y-142634333D02*
X160845238Y-142515285D01*
X160845238Y-142515285D02*
X160869047Y-142420047D01*
X160869047Y-142420047D02*
X160892857Y-142372428D01*
X160892857Y-142372428D02*
X160916666Y-142348619D01*
X160916666Y-142348619D02*
X160964285Y-142324809D01*
X158469048Y-128124809D02*
X158754762Y-128124809D01*
X158611905Y-128624809D02*
X158611905Y-128124809D01*
X158921428Y-128624809D02*
X158921428Y-128124809D01*
X158921428Y-128124809D02*
X159111904Y-128124809D01*
X159111904Y-128124809D02*
X159159523Y-128148619D01*
X159159523Y-128148619D02*
X159183333Y-128172428D01*
X159183333Y-128172428D02*
X159207142Y-128220047D01*
X159207142Y-128220047D02*
X159207142Y-128291476D01*
X159207142Y-128291476D02*
X159183333Y-128339095D01*
X159183333Y-128339095D02*
X159159523Y-128362904D01*
X159159523Y-128362904D02*
X159111904Y-128386714D01*
X159111904Y-128386714D02*
X158921428Y-128386714D01*
X159683333Y-128624809D02*
X159397619Y-128624809D01*
X159540476Y-128624809D02*
X159540476Y-128124809D01*
X159540476Y-128124809D02*
X159492857Y-128196238D01*
X159492857Y-128196238D02*
X159445238Y-128243857D01*
X159445238Y-128243857D02*
X159397619Y-128267666D01*
X195533333Y-146024809D02*
X195533333Y-146381952D01*
X195533333Y-146381952D02*
X195509524Y-146453380D01*
X195509524Y-146453380D02*
X195461905Y-146501000D01*
X195461905Y-146501000D02*
X195390476Y-146524809D01*
X195390476Y-146524809D02*
X195342857Y-146524809D01*
X195985714Y-146024809D02*
X195890476Y-146024809D01*
X195890476Y-146024809D02*
X195842857Y-146048619D01*
X195842857Y-146048619D02*
X195819047Y-146072428D01*
X195819047Y-146072428D02*
X195771428Y-146143857D01*
X195771428Y-146143857D02*
X195747619Y-146239095D01*
X195747619Y-146239095D02*
X195747619Y-146429571D01*
X195747619Y-146429571D02*
X195771428Y-146477190D01*
X195771428Y-146477190D02*
X195795238Y-146501000D01*
X195795238Y-146501000D02*
X195842857Y-146524809D01*
X195842857Y-146524809D02*
X195938095Y-146524809D01*
X195938095Y-146524809D02*
X195985714Y-146501000D01*
X195985714Y-146501000D02*
X196009523Y-146477190D01*
X196009523Y-146477190D02*
X196033333Y-146429571D01*
X196033333Y-146429571D02*
X196033333Y-146310523D01*
X196033333Y-146310523D02*
X196009523Y-146262904D01*
X196009523Y-146262904D02*
X195985714Y-146239095D01*
X195985714Y-146239095D02*
X195938095Y-146215285D01*
X195938095Y-146215285D02*
X195842857Y-146215285D01*
X195842857Y-146215285D02*
X195795238Y-146239095D01*
X195795238Y-146239095D02*
X195771428Y-146262904D01*
X195771428Y-146262904D02*
X195747619Y-146310523D01*
X192533333Y-142404809D02*
X192533333Y-142761952D01*
X192533333Y-142761952D02*
X192509524Y-142833380D01*
X192509524Y-142833380D02*
X192461905Y-142881000D01*
X192461905Y-142881000D02*
X192390476Y-142904809D01*
X192390476Y-142904809D02*
X192342857Y-142904809D01*
X192747619Y-142452428D02*
X192771428Y-142428619D01*
X192771428Y-142428619D02*
X192819047Y-142404809D01*
X192819047Y-142404809D02*
X192938095Y-142404809D01*
X192938095Y-142404809D02*
X192985714Y-142428619D01*
X192985714Y-142428619D02*
X193009523Y-142452428D01*
X193009523Y-142452428D02*
X193033333Y-142500047D01*
X193033333Y-142500047D02*
X193033333Y-142547666D01*
X193033333Y-142547666D02*
X193009523Y-142619095D01*
X193009523Y-142619095D02*
X192723809Y-142904809D01*
X192723809Y-142904809D02*
X193033333Y-142904809D01*
X190078571Y-150477190D02*
X190054762Y-150501000D01*
X190054762Y-150501000D02*
X189983333Y-150524809D01*
X189983333Y-150524809D02*
X189935714Y-150524809D01*
X189935714Y-150524809D02*
X189864286Y-150501000D01*
X189864286Y-150501000D02*
X189816667Y-150453380D01*
X189816667Y-150453380D02*
X189792857Y-150405761D01*
X189792857Y-150405761D02*
X189769048Y-150310523D01*
X189769048Y-150310523D02*
X189769048Y-150239095D01*
X189769048Y-150239095D02*
X189792857Y-150143857D01*
X189792857Y-150143857D02*
X189816667Y-150096238D01*
X189816667Y-150096238D02*
X189864286Y-150048619D01*
X189864286Y-150048619D02*
X189935714Y-150024809D01*
X189935714Y-150024809D02*
X189983333Y-150024809D01*
X189983333Y-150024809D02*
X190054762Y-150048619D01*
X190054762Y-150048619D02*
X190078571Y-150072428D01*
X190245238Y-150024809D02*
X190554762Y-150024809D01*
X190554762Y-150024809D02*
X190388095Y-150215285D01*
X190388095Y-150215285D02*
X190459524Y-150215285D01*
X190459524Y-150215285D02*
X190507143Y-150239095D01*
X190507143Y-150239095D02*
X190530952Y-150262904D01*
X190530952Y-150262904D02*
X190554762Y-150310523D01*
X190554762Y-150310523D02*
X190554762Y-150429571D01*
X190554762Y-150429571D02*
X190530952Y-150477190D01*
X190530952Y-150477190D02*
X190507143Y-150501000D01*
X190507143Y-150501000D02*
X190459524Y-150524809D01*
X190459524Y-150524809D02*
X190316667Y-150524809D01*
X190316667Y-150524809D02*
X190269048Y-150501000D01*
X190269048Y-150501000D02*
X190245238Y-150477190D01*
X190721428Y-150024809D02*
X191030952Y-150024809D01*
X191030952Y-150024809D02*
X190864285Y-150215285D01*
X190864285Y-150215285D02*
X190935714Y-150215285D01*
X190935714Y-150215285D02*
X190983333Y-150239095D01*
X190983333Y-150239095D02*
X191007142Y-150262904D01*
X191007142Y-150262904D02*
X191030952Y-150310523D01*
X191030952Y-150310523D02*
X191030952Y-150429571D01*
X191030952Y-150429571D02*
X191007142Y-150477190D01*
X191007142Y-150477190D02*
X190983333Y-150501000D01*
X190983333Y-150501000D02*
X190935714Y-150524809D01*
X190935714Y-150524809D02*
X190792857Y-150524809D01*
X190792857Y-150524809D02*
X190745238Y-150501000D01*
X190745238Y-150501000D02*
X190721428Y-150477190D01*
X167019047Y-137324809D02*
X167019047Y-137729571D01*
X167019047Y-137729571D02*
X167042857Y-137777190D01*
X167042857Y-137777190D02*
X167066666Y-137801000D01*
X167066666Y-137801000D02*
X167114285Y-137824809D01*
X167114285Y-137824809D02*
X167209523Y-137824809D01*
X167209523Y-137824809D02*
X167257142Y-137801000D01*
X167257142Y-137801000D02*
X167280952Y-137777190D01*
X167280952Y-137777190D02*
X167304761Y-137729571D01*
X167304761Y-137729571D02*
X167304761Y-137324809D01*
X167780952Y-137324809D02*
X167542857Y-137324809D01*
X167542857Y-137324809D02*
X167519048Y-137562904D01*
X167519048Y-137562904D02*
X167542857Y-137539095D01*
X167542857Y-137539095D02*
X167590476Y-137515285D01*
X167590476Y-137515285D02*
X167709524Y-137515285D01*
X167709524Y-137515285D02*
X167757143Y-137539095D01*
X167757143Y-137539095D02*
X167780952Y-137562904D01*
X167780952Y-137562904D02*
X167804762Y-137610523D01*
X167804762Y-137610523D02*
X167804762Y-137729571D01*
X167804762Y-137729571D02*
X167780952Y-137777190D01*
X167780952Y-137777190D02*
X167757143Y-137801000D01*
X167757143Y-137801000D02*
X167709524Y-137824809D01*
X167709524Y-137824809D02*
X167590476Y-137824809D01*
X167590476Y-137824809D02*
X167542857Y-137801000D01*
X167542857Y-137801000D02*
X167519048Y-137777190D01*
X166078571Y-130277190D02*
X166054762Y-130301000D01*
X166054762Y-130301000D02*
X165983333Y-130324809D01*
X165983333Y-130324809D02*
X165935714Y-130324809D01*
X165935714Y-130324809D02*
X165864286Y-130301000D01*
X165864286Y-130301000D02*
X165816667Y-130253380D01*
X165816667Y-130253380D02*
X165792857Y-130205761D01*
X165792857Y-130205761D02*
X165769048Y-130110523D01*
X165769048Y-130110523D02*
X165769048Y-130039095D01*
X165769048Y-130039095D02*
X165792857Y-129943857D01*
X165792857Y-129943857D02*
X165816667Y-129896238D01*
X165816667Y-129896238D02*
X165864286Y-129848619D01*
X165864286Y-129848619D02*
X165935714Y-129824809D01*
X165935714Y-129824809D02*
X165983333Y-129824809D01*
X165983333Y-129824809D02*
X166054762Y-129848619D01*
X166054762Y-129848619D02*
X166078571Y-129872428D01*
X166554762Y-130324809D02*
X166269048Y-130324809D01*
X166411905Y-130324809D02*
X166411905Y-129824809D01*
X166411905Y-129824809D02*
X166364286Y-129896238D01*
X166364286Y-129896238D02*
X166316667Y-129943857D01*
X166316667Y-129943857D02*
X166269048Y-129967666D01*
X166864285Y-129824809D02*
X166911904Y-129824809D01*
X166911904Y-129824809D02*
X166959523Y-129848619D01*
X166959523Y-129848619D02*
X166983333Y-129872428D01*
X166983333Y-129872428D02*
X167007142Y-129920047D01*
X167007142Y-129920047D02*
X167030952Y-130015285D01*
X167030952Y-130015285D02*
X167030952Y-130134333D01*
X167030952Y-130134333D02*
X167007142Y-130229571D01*
X167007142Y-130229571D02*
X166983333Y-130277190D01*
X166983333Y-130277190D02*
X166959523Y-130301000D01*
X166959523Y-130301000D02*
X166911904Y-130324809D01*
X166911904Y-130324809D02*
X166864285Y-130324809D01*
X166864285Y-130324809D02*
X166816666Y-130301000D01*
X166816666Y-130301000D02*
X166792857Y-130277190D01*
X166792857Y-130277190D02*
X166769047Y-130229571D01*
X166769047Y-130229571D02*
X166745238Y-130134333D01*
X166745238Y-130134333D02*
X166745238Y-130015285D01*
X166745238Y-130015285D02*
X166769047Y-129920047D01*
X166769047Y-129920047D02*
X166792857Y-129872428D01*
X166792857Y-129872428D02*
X166816666Y-129848619D01*
X166816666Y-129848619D02*
X166864285Y-129824809D01*
X162516666Y-122124809D02*
X162350000Y-121886714D01*
X162230952Y-122124809D02*
X162230952Y-121624809D01*
X162230952Y-121624809D02*
X162421428Y-121624809D01*
X162421428Y-121624809D02*
X162469047Y-121648619D01*
X162469047Y-121648619D02*
X162492857Y-121672428D01*
X162492857Y-121672428D02*
X162516666Y-121720047D01*
X162516666Y-121720047D02*
X162516666Y-121791476D01*
X162516666Y-121791476D02*
X162492857Y-121839095D01*
X162492857Y-121839095D02*
X162469047Y-121862904D01*
X162469047Y-121862904D02*
X162421428Y-121886714D01*
X162421428Y-121886714D02*
X162230952Y-121886714D01*
X162802381Y-121839095D02*
X162754762Y-121815285D01*
X162754762Y-121815285D02*
X162730952Y-121791476D01*
X162730952Y-121791476D02*
X162707143Y-121743857D01*
X162707143Y-121743857D02*
X162707143Y-121720047D01*
X162707143Y-121720047D02*
X162730952Y-121672428D01*
X162730952Y-121672428D02*
X162754762Y-121648619D01*
X162754762Y-121648619D02*
X162802381Y-121624809D01*
X162802381Y-121624809D02*
X162897619Y-121624809D01*
X162897619Y-121624809D02*
X162945238Y-121648619D01*
X162945238Y-121648619D02*
X162969047Y-121672428D01*
X162969047Y-121672428D02*
X162992857Y-121720047D01*
X162992857Y-121720047D02*
X162992857Y-121743857D01*
X162992857Y-121743857D02*
X162969047Y-121791476D01*
X162969047Y-121791476D02*
X162945238Y-121815285D01*
X162945238Y-121815285D02*
X162897619Y-121839095D01*
X162897619Y-121839095D02*
X162802381Y-121839095D01*
X162802381Y-121839095D02*
X162754762Y-121862904D01*
X162754762Y-121862904D02*
X162730952Y-121886714D01*
X162730952Y-121886714D02*
X162707143Y-121934333D01*
X162707143Y-121934333D02*
X162707143Y-122029571D01*
X162707143Y-122029571D02*
X162730952Y-122077190D01*
X162730952Y-122077190D02*
X162754762Y-122101000D01*
X162754762Y-122101000D02*
X162802381Y-122124809D01*
X162802381Y-122124809D02*
X162897619Y-122124809D01*
X162897619Y-122124809D02*
X162945238Y-122101000D01*
X162945238Y-122101000D02*
X162969047Y-122077190D01*
X162969047Y-122077190D02*
X162992857Y-122029571D01*
X162992857Y-122029571D02*
X162992857Y-121934333D01*
X162992857Y-121934333D02*
X162969047Y-121886714D01*
X162969047Y-121886714D02*
X162945238Y-121862904D01*
X162945238Y-121862904D02*
X162897619Y-121839095D01*
X185877190Y-144921428D02*
X185901000Y-144945237D01*
X185901000Y-144945237D02*
X185924809Y-145016666D01*
X185924809Y-145016666D02*
X185924809Y-145064285D01*
X185924809Y-145064285D02*
X185901000Y-145135713D01*
X185901000Y-145135713D02*
X185853380Y-145183332D01*
X185853380Y-145183332D02*
X185805761Y-145207142D01*
X185805761Y-145207142D02*
X185710523Y-145230951D01*
X185710523Y-145230951D02*
X185639095Y-145230951D01*
X185639095Y-145230951D02*
X185543857Y-145207142D01*
X185543857Y-145207142D02*
X185496238Y-145183332D01*
X185496238Y-145183332D02*
X185448619Y-145135713D01*
X185448619Y-145135713D02*
X185424809Y-145064285D01*
X185424809Y-145064285D02*
X185424809Y-145016666D01*
X185424809Y-145016666D02*
X185448619Y-144945237D01*
X185448619Y-144945237D02*
X185472428Y-144921428D01*
X185472428Y-144730951D02*
X185448619Y-144707142D01*
X185448619Y-144707142D02*
X185424809Y-144659523D01*
X185424809Y-144659523D02*
X185424809Y-144540475D01*
X185424809Y-144540475D02*
X185448619Y-144492856D01*
X185448619Y-144492856D02*
X185472428Y-144469047D01*
X185472428Y-144469047D02*
X185520047Y-144445237D01*
X185520047Y-144445237D02*
X185567666Y-144445237D01*
X185567666Y-144445237D02*
X185639095Y-144469047D01*
X185639095Y-144469047D02*
X185924809Y-144754761D01*
X185924809Y-144754761D02*
X185924809Y-144445237D01*
X185924809Y-144207142D02*
X185924809Y-144111904D01*
X185924809Y-144111904D02*
X185901000Y-144064285D01*
X185901000Y-144064285D02*
X185877190Y-144040476D01*
X185877190Y-144040476D02*
X185805761Y-143992857D01*
X185805761Y-143992857D02*
X185710523Y-143969047D01*
X185710523Y-143969047D02*
X185520047Y-143969047D01*
X185520047Y-143969047D02*
X185472428Y-143992857D01*
X185472428Y-143992857D02*
X185448619Y-144016666D01*
X185448619Y-144016666D02*
X185424809Y-144064285D01*
X185424809Y-144064285D02*
X185424809Y-144159523D01*
X185424809Y-144159523D02*
X185448619Y-144207142D01*
X185448619Y-144207142D02*
X185472428Y-144230952D01*
X185472428Y-144230952D02*
X185520047Y-144254761D01*
X185520047Y-144254761D02*
X185639095Y-144254761D01*
X185639095Y-144254761D02*
X185686714Y-144230952D01*
X185686714Y-144230952D02*
X185710523Y-144207142D01*
X185710523Y-144207142D02*
X185734333Y-144159523D01*
X185734333Y-144159523D02*
X185734333Y-144064285D01*
X185734333Y-144064285D02*
X185710523Y-144016666D01*
X185710523Y-144016666D02*
X185686714Y-143992857D01*
X185686714Y-143992857D02*
X185639095Y-143969047D01*
X153833334Y-126801000D02*
X153904762Y-126824809D01*
X153904762Y-126824809D02*
X154023810Y-126824809D01*
X154023810Y-126824809D02*
X154071429Y-126801000D01*
X154071429Y-126801000D02*
X154095238Y-126777190D01*
X154095238Y-126777190D02*
X154119048Y-126729571D01*
X154119048Y-126729571D02*
X154119048Y-126681952D01*
X154119048Y-126681952D02*
X154095238Y-126634333D01*
X154095238Y-126634333D02*
X154071429Y-126610523D01*
X154071429Y-126610523D02*
X154023810Y-126586714D01*
X154023810Y-126586714D02*
X153928572Y-126562904D01*
X153928572Y-126562904D02*
X153880953Y-126539095D01*
X153880953Y-126539095D02*
X153857143Y-126515285D01*
X153857143Y-126515285D02*
X153833334Y-126467666D01*
X153833334Y-126467666D02*
X153833334Y-126420047D01*
X153833334Y-126420047D02*
X153857143Y-126372428D01*
X153857143Y-126372428D02*
X153880953Y-126348619D01*
X153880953Y-126348619D02*
X153928572Y-126324809D01*
X153928572Y-126324809D02*
X154047619Y-126324809D01*
X154047619Y-126324809D02*
X154119048Y-126348619D01*
X154285714Y-126324809D02*
X154404762Y-126824809D01*
X154404762Y-126824809D02*
X154500000Y-126467666D01*
X154500000Y-126467666D02*
X154595238Y-126824809D01*
X154595238Y-126824809D02*
X154714286Y-126324809D01*
X155166667Y-126824809D02*
X154880953Y-126824809D01*
X155023810Y-126824809D02*
X155023810Y-126324809D01*
X155023810Y-126324809D02*
X154976191Y-126396238D01*
X154976191Y-126396238D02*
X154928572Y-126443857D01*
X154928572Y-126443857D02*
X154880953Y-126467666D01*
X177778571Y-140777190D02*
X177754762Y-140801000D01*
X177754762Y-140801000D02*
X177683333Y-140824809D01*
X177683333Y-140824809D02*
X177635714Y-140824809D01*
X177635714Y-140824809D02*
X177564286Y-140801000D01*
X177564286Y-140801000D02*
X177516667Y-140753380D01*
X177516667Y-140753380D02*
X177492857Y-140705761D01*
X177492857Y-140705761D02*
X177469048Y-140610523D01*
X177469048Y-140610523D02*
X177469048Y-140539095D01*
X177469048Y-140539095D02*
X177492857Y-140443857D01*
X177492857Y-140443857D02*
X177516667Y-140396238D01*
X177516667Y-140396238D02*
X177564286Y-140348619D01*
X177564286Y-140348619D02*
X177635714Y-140324809D01*
X177635714Y-140324809D02*
X177683333Y-140324809D01*
X177683333Y-140324809D02*
X177754762Y-140348619D01*
X177754762Y-140348619D02*
X177778571Y-140372428D01*
X177969048Y-140372428D02*
X177992857Y-140348619D01*
X177992857Y-140348619D02*
X178040476Y-140324809D01*
X178040476Y-140324809D02*
X178159524Y-140324809D01*
X178159524Y-140324809D02*
X178207143Y-140348619D01*
X178207143Y-140348619D02*
X178230952Y-140372428D01*
X178230952Y-140372428D02*
X178254762Y-140420047D01*
X178254762Y-140420047D02*
X178254762Y-140467666D01*
X178254762Y-140467666D02*
X178230952Y-140539095D01*
X178230952Y-140539095D02*
X177945238Y-140824809D01*
X177945238Y-140824809D02*
X178254762Y-140824809D01*
X178540476Y-140539095D02*
X178492857Y-140515285D01*
X178492857Y-140515285D02*
X178469047Y-140491476D01*
X178469047Y-140491476D02*
X178445238Y-140443857D01*
X178445238Y-140443857D02*
X178445238Y-140420047D01*
X178445238Y-140420047D02*
X178469047Y-140372428D01*
X178469047Y-140372428D02*
X178492857Y-140348619D01*
X178492857Y-140348619D02*
X178540476Y-140324809D01*
X178540476Y-140324809D02*
X178635714Y-140324809D01*
X178635714Y-140324809D02*
X178683333Y-140348619D01*
X178683333Y-140348619D02*
X178707142Y-140372428D01*
X178707142Y-140372428D02*
X178730952Y-140420047D01*
X178730952Y-140420047D02*
X178730952Y-140443857D01*
X178730952Y-140443857D02*
X178707142Y-140491476D01*
X178707142Y-140491476D02*
X178683333Y-140515285D01*
X178683333Y-140515285D02*
X178635714Y-140539095D01*
X178635714Y-140539095D02*
X178540476Y-140539095D01*
X178540476Y-140539095D02*
X178492857Y-140562904D01*
X178492857Y-140562904D02*
X178469047Y-140586714D01*
X178469047Y-140586714D02*
X178445238Y-140634333D01*
X178445238Y-140634333D02*
X178445238Y-140729571D01*
X178445238Y-140729571D02*
X178469047Y-140777190D01*
X178469047Y-140777190D02*
X178492857Y-140801000D01*
X178492857Y-140801000D02*
X178540476Y-140824809D01*
X178540476Y-140824809D02*
X178635714Y-140824809D01*
X178635714Y-140824809D02*
X178683333Y-140801000D01*
X178683333Y-140801000D02*
X178707142Y-140777190D01*
X178707142Y-140777190D02*
X178730952Y-140729571D01*
X178730952Y-140729571D02*
X178730952Y-140634333D01*
X178730952Y-140634333D02*
X178707142Y-140586714D01*
X178707142Y-140586714D02*
X178683333Y-140562904D01*
X178683333Y-140562904D02*
X178635714Y-140539095D01*
X182477190Y-142521428D02*
X182501000Y-142545237D01*
X182501000Y-142545237D02*
X182524809Y-142616666D01*
X182524809Y-142616666D02*
X182524809Y-142664285D01*
X182524809Y-142664285D02*
X182501000Y-142735713D01*
X182501000Y-142735713D02*
X182453380Y-142783332D01*
X182453380Y-142783332D02*
X182405761Y-142807142D01*
X182405761Y-142807142D02*
X182310523Y-142830951D01*
X182310523Y-142830951D02*
X182239095Y-142830951D01*
X182239095Y-142830951D02*
X182143857Y-142807142D01*
X182143857Y-142807142D02*
X182096238Y-142783332D01*
X182096238Y-142783332D02*
X182048619Y-142735713D01*
X182048619Y-142735713D02*
X182024809Y-142664285D01*
X182024809Y-142664285D02*
X182024809Y-142616666D01*
X182024809Y-142616666D02*
X182048619Y-142545237D01*
X182048619Y-142545237D02*
X182072428Y-142521428D01*
X182072428Y-142330951D02*
X182048619Y-142307142D01*
X182048619Y-142307142D02*
X182024809Y-142259523D01*
X182024809Y-142259523D02*
X182024809Y-142140475D01*
X182024809Y-142140475D02*
X182048619Y-142092856D01*
X182048619Y-142092856D02*
X182072428Y-142069047D01*
X182072428Y-142069047D02*
X182120047Y-142045237D01*
X182120047Y-142045237D02*
X182167666Y-142045237D01*
X182167666Y-142045237D02*
X182239095Y-142069047D01*
X182239095Y-142069047D02*
X182524809Y-142354761D01*
X182524809Y-142354761D02*
X182524809Y-142045237D01*
X182024809Y-141878571D02*
X182024809Y-141545238D01*
X182024809Y-141545238D02*
X182524809Y-141759523D01*
X191416667Y-118581952D02*
X191654762Y-118581952D01*
X191369048Y-118724809D02*
X191535714Y-118224809D01*
X191535714Y-118224809D02*
X191702381Y-118724809D01*
X191869047Y-118462904D02*
X192035714Y-118462904D01*
X192107142Y-118724809D02*
X191869047Y-118724809D01*
X191869047Y-118724809D02*
X191869047Y-118224809D01*
X191869047Y-118224809D02*
X192107142Y-118224809D01*
X192583333Y-118724809D02*
X192297619Y-118724809D01*
X192440476Y-118724809D02*
X192440476Y-118224809D01*
X192440476Y-118224809D02*
X192392857Y-118296238D01*
X192392857Y-118296238D02*
X192345238Y-118343857D01*
X192345238Y-118343857D02*
X192297619Y-118367666D01*
X173516666Y-139877190D02*
X173492857Y-139901000D01*
X173492857Y-139901000D02*
X173421428Y-139924809D01*
X173421428Y-139924809D02*
X173373809Y-139924809D01*
X173373809Y-139924809D02*
X173302381Y-139901000D01*
X173302381Y-139901000D02*
X173254762Y-139853380D01*
X173254762Y-139853380D02*
X173230952Y-139805761D01*
X173230952Y-139805761D02*
X173207143Y-139710523D01*
X173207143Y-139710523D02*
X173207143Y-139639095D01*
X173207143Y-139639095D02*
X173230952Y-139543857D01*
X173230952Y-139543857D02*
X173254762Y-139496238D01*
X173254762Y-139496238D02*
X173302381Y-139448619D01*
X173302381Y-139448619D02*
X173373809Y-139424809D01*
X173373809Y-139424809D02*
X173421428Y-139424809D01*
X173421428Y-139424809D02*
X173492857Y-139448619D01*
X173492857Y-139448619D02*
X173516666Y-139472428D01*
X173754762Y-139924809D02*
X173850000Y-139924809D01*
X173850000Y-139924809D02*
X173897619Y-139901000D01*
X173897619Y-139901000D02*
X173921428Y-139877190D01*
X173921428Y-139877190D02*
X173969047Y-139805761D01*
X173969047Y-139805761D02*
X173992857Y-139710523D01*
X173992857Y-139710523D02*
X173992857Y-139520047D01*
X173992857Y-139520047D02*
X173969047Y-139472428D01*
X173969047Y-139472428D02*
X173945238Y-139448619D01*
X173945238Y-139448619D02*
X173897619Y-139424809D01*
X173897619Y-139424809D02*
X173802381Y-139424809D01*
X173802381Y-139424809D02*
X173754762Y-139448619D01*
X173754762Y-139448619D02*
X173730952Y-139472428D01*
X173730952Y-139472428D02*
X173707143Y-139520047D01*
X173707143Y-139520047D02*
X173707143Y-139639095D01*
X173707143Y-139639095D02*
X173730952Y-139686714D01*
X173730952Y-139686714D02*
X173754762Y-139710523D01*
X173754762Y-139710523D02*
X173802381Y-139734333D01*
X173802381Y-139734333D02*
X173897619Y-139734333D01*
X173897619Y-139734333D02*
X173945238Y-139710523D01*
X173945238Y-139710523D02*
X173969047Y-139686714D01*
X173969047Y-139686714D02*
X173992857Y-139639095D01*
X171916666Y-123224809D02*
X171750000Y-122986714D01*
X171630952Y-123224809D02*
X171630952Y-122724809D01*
X171630952Y-122724809D02*
X171821428Y-122724809D01*
X171821428Y-122724809D02*
X171869047Y-122748619D01*
X171869047Y-122748619D02*
X171892857Y-122772428D01*
X171892857Y-122772428D02*
X171916666Y-122820047D01*
X171916666Y-122820047D02*
X171916666Y-122891476D01*
X171916666Y-122891476D02*
X171892857Y-122939095D01*
X171892857Y-122939095D02*
X171869047Y-122962904D01*
X171869047Y-122962904D02*
X171821428Y-122986714D01*
X171821428Y-122986714D02*
X171630952Y-122986714D01*
X172083333Y-122724809D02*
X172392857Y-122724809D01*
X172392857Y-122724809D02*
X172226190Y-122915285D01*
X172226190Y-122915285D02*
X172297619Y-122915285D01*
X172297619Y-122915285D02*
X172345238Y-122939095D01*
X172345238Y-122939095D02*
X172369047Y-122962904D01*
X172369047Y-122962904D02*
X172392857Y-123010523D01*
X172392857Y-123010523D02*
X172392857Y-123129571D01*
X172392857Y-123129571D02*
X172369047Y-123177190D01*
X172369047Y-123177190D02*
X172345238Y-123201000D01*
X172345238Y-123201000D02*
X172297619Y-123224809D01*
X172297619Y-123224809D02*
X172154762Y-123224809D01*
X172154762Y-123224809D02*
X172107143Y-123201000D01*
X172107143Y-123201000D02*
X172083333Y-123177190D01*
X191178571Y-146324809D02*
X191011905Y-146086714D01*
X190892857Y-146324809D02*
X190892857Y-145824809D01*
X190892857Y-145824809D02*
X191083333Y-145824809D01*
X191083333Y-145824809D02*
X191130952Y-145848619D01*
X191130952Y-145848619D02*
X191154762Y-145872428D01*
X191154762Y-145872428D02*
X191178571Y-145920047D01*
X191178571Y-145920047D02*
X191178571Y-145991476D01*
X191178571Y-145991476D02*
X191154762Y-146039095D01*
X191154762Y-146039095D02*
X191130952Y-146062904D01*
X191130952Y-146062904D02*
X191083333Y-146086714D01*
X191083333Y-146086714D02*
X190892857Y-146086714D01*
X191369048Y-145872428D02*
X191392857Y-145848619D01*
X191392857Y-145848619D02*
X191440476Y-145824809D01*
X191440476Y-145824809D02*
X191559524Y-145824809D01*
X191559524Y-145824809D02*
X191607143Y-145848619D01*
X191607143Y-145848619D02*
X191630952Y-145872428D01*
X191630952Y-145872428D02*
X191654762Y-145920047D01*
X191654762Y-145920047D02*
X191654762Y-145967666D01*
X191654762Y-145967666D02*
X191630952Y-146039095D01*
X191630952Y-146039095D02*
X191345238Y-146324809D01*
X191345238Y-146324809D02*
X191654762Y-146324809D01*
X191845238Y-145872428D02*
X191869047Y-145848619D01*
X191869047Y-145848619D02*
X191916666Y-145824809D01*
X191916666Y-145824809D02*
X192035714Y-145824809D01*
X192035714Y-145824809D02*
X192083333Y-145848619D01*
X192083333Y-145848619D02*
X192107142Y-145872428D01*
X192107142Y-145872428D02*
X192130952Y-145920047D01*
X192130952Y-145920047D02*
X192130952Y-145967666D01*
X192130952Y-145967666D02*
X192107142Y-146039095D01*
X192107142Y-146039095D02*
X191821428Y-146324809D01*
X191821428Y-146324809D02*
X192130952Y-146324809D01*
X158830952Y-132024809D02*
X158830952Y-131524809D01*
X158830952Y-131524809D02*
X158950000Y-131524809D01*
X158950000Y-131524809D02*
X159021428Y-131548619D01*
X159021428Y-131548619D02*
X159069047Y-131596238D01*
X159069047Y-131596238D02*
X159092857Y-131643857D01*
X159092857Y-131643857D02*
X159116666Y-131739095D01*
X159116666Y-131739095D02*
X159116666Y-131810523D01*
X159116666Y-131810523D02*
X159092857Y-131905761D01*
X159092857Y-131905761D02*
X159069047Y-131953380D01*
X159069047Y-131953380D02*
X159021428Y-132001000D01*
X159021428Y-132001000D02*
X158950000Y-132024809D01*
X158950000Y-132024809D02*
X158830952Y-132024809D01*
X159592857Y-132024809D02*
X159307143Y-132024809D01*
X159450000Y-132024809D02*
X159450000Y-131524809D01*
X159450000Y-131524809D02*
X159402381Y-131596238D01*
X159402381Y-131596238D02*
X159354762Y-131643857D01*
X159354762Y-131643857D02*
X159307143Y-131667666D01*
X178616666Y-135624809D02*
X178450000Y-135386714D01*
X178330952Y-135624809D02*
X178330952Y-135124809D01*
X178330952Y-135124809D02*
X178521428Y-135124809D01*
X178521428Y-135124809D02*
X178569047Y-135148619D01*
X178569047Y-135148619D02*
X178592857Y-135172428D01*
X178592857Y-135172428D02*
X178616666Y-135220047D01*
X178616666Y-135220047D02*
X178616666Y-135291476D01*
X178616666Y-135291476D02*
X178592857Y-135339095D01*
X178592857Y-135339095D02*
X178569047Y-135362904D01*
X178569047Y-135362904D02*
X178521428Y-135386714D01*
X178521428Y-135386714D02*
X178330952Y-135386714D01*
X178807143Y-135172428D02*
X178830952Y-135148619D01*
X178830952Y-135148619D02*
X178878571Y-135124809D01*
X178878571Y-135124809D02*
X178997619Y-135124809D01*
X178997619Y-135124809D02*
X179045238Y-135148619D01*
X179045238Y-135148619D02*
X179069047Y-135172428D01*
X179069047Y-135172428D02*
X179092857Y-135220047D01*
X179092857Y-135220047D02*
X179092857Y-135267666D01*
X179092857Y-135267666D02*
X179069047Y-135339095D01*
X179069047Y-135339095D02*
X178783333Y-135624809D01*
X178783333Y-135624809D02*
X179092857Y-135624809D01*
X151430952Y-140924809D02*
X151430952Y-140424809D01*
X151430952Y-140424809D02*
X151550000Y-140424809D01*
X151550000Y-140424809D02*
X151621428Y-140448619D01*
X151621428Y-140448619D02*
X151669047Y-140496238D01*
X151669047Y-140496238D02*
X151692857Y-140543857D01*
X151692857Y-140543857D02*
X151716666Y-140639095D01*
X151716666Y-140639095D02*
X151716666Y-140710523D01*
X151716666Y-140710523D02*
X151692857Y-140805761D01*
X151692857Y-140805761D02*
X151669047Y-140853380D01*
X151669047Y-140853380D02*
X151621428Y-140901000D01*
X151621428Y-140901000D02*
X151550000Y-140924809D01*
X151550000Y-140924809D02*
X151430952Y-140924809D01*
X151907143Y-140472428D02*
X151930952Y-140448619D01*
X151930952Y-140448619D02*
X151978571Y-140424809D01*
X151978571Y-140424809D02*
X152097619Y-140424809D01*
X152097619Y-140424809D02*
X152145238Y-140448619D01*
X152145238Y-140448619D02*
X152169047Y-140472428D01*
X152169047Y-140472428D02*
X152192857Y-140520047D01*
X152192857Y-140520047D02*
X152192857Y-140567666D01*
X152192857Y-140567666D02*
X152169047Y-140639095D01*
X152169047Y-140639095D02*
X151883333Y-140924809D01*
X151883333Y-140924809D02*
X152192857Y-140924809D01*
X151716666Y-128124809D02*
X151550000Y-127886714D01*
X151430952Y-128124809D02*
X151430952Y-127624809D01*
X151430952Y-127624809D02*
X151621428Y-127624809D01*
X151621428Y-127624809D02*
X151669047Y-127648619D01*
X151669047Y-127648619D02*
X151692857Y-127672428D01*
X151692857Y-127672428D02*
X151716666Y-127720047D01*
X151716666Y-127720047D02*
X151716666Y-127791476D01*
X151716666Y-127791476D02*
X151692857Y-127839095D01*
X151692857Y-127839095D02*
X151669047Y-127862904D01*
X151669047Y-127862904D02*
X151621428Y-127886714D01*
X151621428Y-127886714D02*
X151430952Y-127886714D01*
X152192857Y-128124809D02*
X151907143Y-128124809D01*
X152050000Y-128124809D02*
X152050000Y-127624809D01*
X152050000Y-127624809D02*
X152002381Y-127696238D01*
X152002381Y-127696238D02*
X151954762Y-127743857D01*
X151954762Y-127743857D02*
X151907143Y-127767666D01*
X161778571Y-136377190D02*
X161754762Y-136401000D01*
X161754762Y-136401000D02*
X161683333Y-136424809D01*
X161683333Y-136424809D02*
X161635714Y-136424809D01*
X161635714Y-136424809D02*
X161564286Y-136401000D01*
X161564286Y-136401000D02*
X161516667Y-136353380D01*
X161516667Y-136353380D02*
X161492857Y-136305761D01*
X161492857Y-136305761D02*
X161469048Y-136210523D01*
X161469048Y-136210523D02*
X161469048Y-136139095D01*
X161469048Y-136139095D02*
X161492857Y-136043857D01*
X161492857Y-136043857D02*
X161516667Y-135996238D01*
X161516667Y-135996238D02*
X161564286Y-135948619D01*
X161564286Y-135948619D02*
X161635714Y-135924809D01*
X161635714Y-135924809D02*
X161683333Y-135924809D01*
X161683333Y-135924809D02*
X161754762Y-135948619D01*
X161754762Y-135948619D02*
X161778571Y-135972428D01*
X162254762Y-136424809D02*
X161969048Y-136424809D01*
X162111905Y-136424809D02*
X162111905Y-135924809D01*
X162111905Y-135924809D02*
X162064286Y-135996238D01*
X162064286Y-135996238D02*
X162016667Y-136043857D01*
X162016667Y-136043857D02*
X161969048Y-136067666D01*
X162540476Y-136139095D02*
X162492857Y-136115285D01*
X162492857Y-136115285D02*
X162469047Y-136091476D01*
X162469047Y-136091476D02*
X162445238Y-136043857D01*
X162445238Y-136043857D02*
X162445238Y-136020047D01*
X162445238Y-136020047D02*
X162469047Y-135972428D01*
X162469047Y-135972428D02*
X162492857Y-135948619D01*
X162492857Y-135948619D02*
X162540476Y-135924809D01*
X162540476Y-135924809D02*
X162635714Y-135924809D01*
X162635714Y-135924809D02*
X162683333Y-135948619D01*
X162683333Y-135948619D02*
X162707142Y-135972428D01*
X162707142Y-135972428D02*
X162730952Y-136020047D01*
X162730952Y-136020047D02*
X162730952Y-136043857D01*
X162730952Y-136043857D02*
X162707142Y-136091476D01*
X162707142Y-136091476D02*
X162683333Y-136115285D01*
X162683333Y-136115285D02*
X162635714Y-136139095D01*
X162635714Y-136139095D02*
X162540476Y-136139095D01*
X162540476Y-136139095D02*
X162492857Y-136162904D01*
X162492857Y-136162904D02*
X162469047Y-136186714D01*
X162469047Y-136186714D02*
X162445238Y-136234333D01*
X162445238Y-136234333D02*
X162445238Y-136329571D01*
X162445238Y-136329571D02*
X162469047Y-136377190D01*
X162469047Y-136377190D02*
X162492857Y-136401000D01*
X162492857Y-136401000D02*
X162540476Y-136424809D01*
X162540476Y-136424809D02*
X162635714Y-136424809D01*
X162635714Y-136424809D02*
X162683333Y-136401000D01*
X162683333Y-136401000D02*
X162707142Y-136377190D01*
X162707142Y-136377190D02*
X162730952Y-136329571D01*
X162730952Y-136329571D02*
X162730952Y-136234333D01*
X162730952Y-136234333D02*
X162707142Y-136186714D01*
X162707142Y-136186714D02*
X162683333Y-136162904D01*
X162683333Y-136162904D02*
X162635714Y-136139095D01*
X172017190Y-130921428D02*
X172041000Y-130945237D01*
X172041000Y-130945237D02*
X172064809Y-131016666D01*
X172064809Y-131016666D02*
X172064809Y-131064285D01*
X172064809Y-131064285D02*
X172041000Y-131135713D01*
X172041000Y-131135713D02*
X171993380Y-131183332D01*
X171993380Y-131183332D02*
X171945761Y-131207142D01*
X171945761Y-131207142D02*
X171850523Y-131230951D01*
X171850523Y-131230951D02*
X171779095Y-131230951D01*
X171779095Y-131230951D02*
X171683857Y-131207142D01*
X171683857Y-131207142D02*
X171636238Y-131183332D01*
X171636238Y-131183332D02*
X171588619Y-131135713D01*
X171588619Y-131135713D02*
X171564809Y-131064285D01*
X171564809Y-131064285D02*
X171564809Y-131016666D01*
X171564809Y-131016666D02*
X171588619Y-130945237D01*
X171588619Y-130945237D02*
X171612428Y-130921428D01*
X172064809Y-130445237D02*
X172064809Y-130730951D01*
X172064809Y-130588094D02*
X171564809Y-130588094D01*
X171564809Y-130588094D02*
X171636238Y-130635713D01*
X171636238Y-130635713D02*
X171683857Y-130683332D01*
X171683857Y-130683332D02*
X171707666Y-130730951D01*
X172064809Y-129969047D02*
X172064809Y-130254761D01*
X172064809Y-130111904D02*
X171564809Y-130111904D01*
X171564809Y-130111904D02*
X171636238Y-130159523D01*
X171636238Y-130159523D02*
X171683857Y-130207142D01*
X171683857Y-130207142D02*
X171707666Y-130254761D01*
X180778571Y-137777190D02*
X180754762Y-137801000D01*
X180754762Y-137801000D02*
X180683333Y-137824809D01*
X180683333Y-137824809D02*
X180635714Y-137824809D01*
X180635714Y-137824809D02*
X180564286Y-137801000D01*
X180564286Y-137801000D02*
X180516667Y-137753380D01*
X180516667Y-137753380D02*
X180492857Y-137705761D01*
X180492857Y-137705761D02*
X180469048Y-137610523D01*
X180469048Y-137610523D02*
X180469048Y-137539095D01*
X180469048Y-137539095D02*
X180492857Y-137443857D01*
X180492857Y-137443857D02*
X180516667Y-137396238D01*
X180516667Y-137396238D02*
X180564286Y-137348619D01*
X180564286Y-137348619D02*
X180635714Y-137324809D01*
X180635714Y-137324809D02*
X180683333Y-137324809D01*
X180683333Y-137324809D02*
X180754762Y-137348619D01*
X180754762Y-137348619D02*
X180778571Y-137372428D01*
X181254762Y-137824809D02*
X180969048Y-137824809D01*
X181111905Y-137824809D02*
X181111905Y-137324809D01*
X181111905Y-137324809D02*
X181064286Y-137396238D01*
X181064286Y-137396238D02*
X181016667Y-137443857D01*
X181016667Y-137443857D02*
X180969048Y-137467666D01*
X181683333Y-137491476D02*
X181683333Y-137824809D01*
X181564285Y-137301000D02*
X181445238Y-137658142D01*
X181445238Y-137658142D02*
X181754761Y-137658142D01*
X156333334Y-116201000D02*
X156404762Y-116224809D01*
X156404762Y-116224809D02*
X156523810Y-116224809D01*
X156523810Y-116224809D02*
X156571429Y-116201000D01*
X156571429Y-116201000D02*
X156595238Y-116177190D01*
X156595238Y-116177190D02*
X156619048Y-116129571D01*
X156619048Y-116129571D02*
X156619048Y-116081952D01*
X156619048Y-116081952D02*
X156595238Y-116034333D01*
X156595238Y-116034333D02*
X156571429Y-116010523D01*
X156571429Y-116010523D02*
X156523810Y-115986714D01*
X156523810Y-115986714D02*
X156428572Y-115962904D01*
X156428572Y-115962904D02*
X156380953Y-115939095D01*
X156380953Y-115939095D02*
X156357143Y-115915285D01*
X156357143Y-115915285D02*
X156333334Y-115867666D01*
X156333334Y-115867666D02*
X156333334Y-115820047D01*
X156333334Y-115820047D02*
X156357143Y-115772428D01*
X156357143Y-115772428D02*
X156380953Y-115748619D01*
X156380953Y-115748619D02*
X156428572Y-115724809D01*
X156428572Y-115724809D02*
X156547619Y-115724809D01*
X156547619Y-115724809D02*
X156619048Y-115748619D01*
X156785714Y-115724809D02*
X156904762Y-116224809D01*
X156904762Y-116224809D02*
X157000000Y-115867666D01*
X157000000Y-115867666D02*
X157095238Y-116224809D01*
X157095238Y-116224809D02*
X157214286Y-115724809D01*
X157380953Y-115772428D02*
X157404762Y-115748619D01*
X157404762Y-115748619D02*
X157452381Y-115724809D01*
X157452381Y-115724809D02*
X157571429Y-115724809D01*
X157571429Y-115724809D02*
X157619048Y-115748619D01*
X157619048Y-115748619D02*
X157642857Y-115772428D01*
X157642857Y-115772428D02*
X157666667Y-115820047D01*
X157666667Y-115820047D02*
X157666667Y-115867666D01*
X157666667Y-115867666D02*
X157642857Y-115939095D01*
X157642857Y-115939095D02*
X157357143Y-116224809D01*
X157357143Y-116224809D02*
X157666667Y-116224809D01*
X169916666Y-123477190D02*
X169892857Y-123501000D01*
X169892857Y-123501000D02*
X169821428Y-123524809D01*
X169821428Y-123524809D02*
X169773809Y-123524809D01*
X169773809Y-123524809D02*
X169702381Y-123501000D01*
X169702381Y-123501000D02*
X169654762Y-123453380D01*
X169654762Y-123453380D02*
X169630952Y-123405761D01*
X169630952Y-123405761D02*
X169607143Y-123310523D01*
X169607143Y-123310523D02*
X169607143Y-123239095D01*
X169607143Y-123239095D02*
X169630952Y-123143857D01*
X169630952Y-123143857D02*
X169654762Y-123096238D01*
X169654762Y-123096238D02*
X169702381Y-123048619D01*
X169702381Y-123048619D02*
X169773809Y-123024809D01*
X169773809Y-123024809D02*
X169821428Y-123024809D01*
X169821428Y-123024809D02*
X169892857Y-123048619D01*
X169892857Y-123048619D02*
X169916666Y-123072428D01*
X170107143Y-123072428D02*
X170130952Y-123048619D01*
X170130952Y-123048619D02*
X170178571Y-123024809D01*
X170178571Y-123024809D02*
X170297619Y-123024809D01*
X170297619Y-123024809D02*
X170345238Y-123048619D01*
X170345238Y-123048619D02*
X170369047Y-123072428D01*
X170369047Y-123072428D02*
X170392857Y-123120047D01*
X170392857Y-123120047D02*
X170392857Y-123167666D01*
X170392857Y-123167666D02*
X170369047Y-123239095D01*
X170369047Y-123239095D02*
X170083333Y-123524809D01*
X170083333Y-123524809D02*
X170392857Y-123524809D01*
X176716666Y-116377190D02*
X176692857Y-116401000D01*
X176692857Y-116401000D02*
X176621428Y-116424809D01*
X176621428Y-116424809D02*
X176573809Y-116424809D01*
X176573809Y-116424809D02*
X176502381Y-116401000D01*
X176502381Y-116401000D02*
X176454762Y-116353380D01*
X176454762Y-116353380D02*
X176430952Y-116305761D01*
X176430952Y-116305761D02*
X176407143Y-116210523D01*
X176407143Y-116210523D02*
X176407143Y-116139095D01*
X176407143Y-116139095D02*
X176430952Y-116043857D01*
X176430952Y-116043857D02*
X176454762Y-115996238D01*
X176454762Y-115996238D02*
X176502381Y-115948619D01*
X176502381Y-115948619D02*
X176573809Y-115924809D01*
X176573809Y-115924809D02*
X176621428Y-115924809D01*
X176621428Y-115924809D02*
X176692857Y-115948619D01*
X176692857Y-115948619D02*
X176716666Y-115972428D01*
X177192857Y-116424809D02*
X176907143Y-116424809D01*
X177050000Y-116424809D02*
X177050000Y-115924809D01*
X177050000Y-115924809D02*
X177002381Y-115996238D01*
X177002381Y-115996238D02*
X176954762Y-116043857D01*
X176954762Y-116043857D02*
X176907143Y-116067666D01*
X159419047Y-140424809D02*
X159419047Y-140829571D01*
X159419047Y-140829571D02*
X159442857Y-140877190D01*
X159442857Y-140877190D02*
X159466666Y-140901000D01*
X159466666Y-140901000D02*
X159514285Y-140924809D01*
X159514285Y-140924809D02*
X159609523Y-140924809D01*
X159609523Y-140924809D02*
X159657142Y-140901000D01*
X159657142Y-140901000D02*
X159680952Y-140877190D01*
X159680952Y-140877190D02*
X159704761Y-140829571D01*
X159704761Y-140829571D02*
X159704761Y-140424809D01*
X160014286Y-140639095D02*
X159966667Y-140615285D01*
X159966667Y-140615285D02*
X159942857Y-140591476D01*
X159942857Y-140591476D02*
X159919048Y-140543857D01*
X159919048Y-140543857D02*
X159919048Y-140520047D01*
X159919048Y-140520047D02*
X159942857Y-140472428D01*
X159942857Y-140472428D02*
X159966667Y-140448619D01*
X159966667Y-140448619D02*
X160014286Y-140424809D01*
X160014286Y-140424809D02*
X160109524Y-140424809D01*
X160109524Y-140424809D02*
X160157143Y-140448619D01*
X160157143Y-140448619D02*
X160180952Y-140472428D01*
X160180952Y-140472428D02*
X160204762Y-140520047D01*
X160204762Y-140520047D02*
X160204762Y-140543857D01*
X160204762Y-140543857D02*
X160180952Y-140591476D01*
X160180952Y-140591476D02*
X160157143Y-140615285D01*
X160157143Y-140615285D02*
X160109524Y-140639095D01*
X160109524Y-140639095D02*
X160014286Y-140639095D01*
X160014286Y-140639095D02*
X159966667Y-140662904D01*
X159966667Y-140662904D02*
X159942857Y-140686714D01*
X159942857Y-140686714D02*
X159919048Y-140734333D01*
X159919048Y-140734333D02*
X159919048Y-140829571D01*
X159919048Y-140829571D02*
X159942857Y-140877190D01*
X159942857Y-140877190D02*
X159966667Y-140901000D01*
X159966667Y-140901000D02*
X160014286Y-140924809D01*
X160014286Y-140924809D02*
X160109524Y-140924809D01*
X160109524Y-140924809D02*
X160157143Y-140901000D01*
X160157143Y-140901000D02*
X160180952Y-140877190D01*
X160180952Y-140877190D02*
X160204762Y-140829571D01*
X160204762Y-140829571D02*
X160204762Y-140734333D01*
X160204762Y-140734333D02*
X160180952Y-140686714D01*
X160180952Y-140686714D02*
X160157143Y-140662904D01*
X160157143Y-140662904D02*
X160109524Y-140639095D01*
X163778571Y-152277190D02*
X163754762Y-152301000D01*
X163754762Y-152301000D02*
X163683333Y-152324809D01*
X163683333Y-152324809D02*
X163635714Y-152324809D01*
X163635714Y-152324809D02*
X163564286Y-152301000D01*
X163564286Y-152301000D02*
X163516667Y-152253380D01*
X163516667Y-152253380D02*
X163492857Y-152205761D01*
X163492857Y-152205761D02*
X163469048Y-152110523D01*
X163469048Y-152110523D02*
X163469048Y-152039095D01*
X163469048Y-152039095D02*
X163492857Y-151943857D01*
X163492857Y-151943857D02*
X163516667Y-151896238D01*
X163516667Y-151896238D02*
X163564286Y-151848619D01*
X163564286Y-151848619D02*
X163635714Y-151824809D01*
X163635714Y-151824809D02*
X163683333Y-151824809D01*
X163683333Y-151824809D02*
X163754762Y-151848619D01*
X163754762Y-151848619D02*
X163778571Y-151872428D01*
X163969048Y-151872428D02*
X163992857Y-151848619D01*
X163992857Y-151848619D02*
X164040476Y-151824809D01*
X164040476Y-151824809D02*
X164159524Y-151824809D01*
X164159524Y-151824809D02*
X164207143Y-151848619D01*
X164207143Y-151848619D02*
X164230952Y-151872428D01*
X164230952Y-151872428D02*
X164254762Y-151920047D01*
X164254762Y-151920047D02*
X164254762Y-151967666D01*
X164254762Y-151967666D02*
X164230952Y-152039095D01*
X164230952Y-152039095D02*
X163945238Y-152324809D01*
X163945238Y-152324809D02*
X164254762Y-152324809D01*
X164421428Y-151824809D02*
X164730952Y-151824809D01*
X164730952Y-151824809D02*
X164564285Y-152015285D01*
X164564285Y-152015285D02*
X164635714Y-152015285D01*
X164635714Y-152015285D02*
X164683333Y-152039095D01*
X164683333Y-152039095D02*
X164707142Y-152062904D01*
X164707142Y-152062904D02*
X164730952Y-152110523D01*
X164730952Y-152110523D02*
X164730952Y-152229571D01*
X164730952Y-152229571D02*
X164707142Y-152277190D01*
X164707142Y-152277190D02*
X164683333Y-152301000D01*
X164683333Y-152301000D02*
X164635714Y-152324809D01*
X164635714Y-152324809D02*
X164492857Y-152324809D01*
X164492857Y-152324809D02*
X164445238Y-152301000D01*
X164445238Y-152301000D02*
X164421428Y-152277190D01*
X154078571Y-145277190D02*
X154054762Y-145301000D01*
X154054762Y-145301000D02*
X153983333Y-145324809D01*
X153983333Y-145324809D02*
X153935714Y-145324809D01*
X153935714Y-145324809D02*
X153864286Y-145301000D01*
X153864286Y-145301000D02*
X153816667Y-145253380D01*
X153816667Y-145253380D02*
X153792857Y-145205761D01*
X153792857Y-145205761D02*
X153769048Y-145110523D01*
X153769048Y-145110523D02*
X153769048Y-145039095D01*
X153769048Y-145039095D02*
X153792857Y-144943857D01*
X153792857Y-144943857D02*
X153816667Y-144896238D01*
X153816667Y-144896238D02*
X153864286Y-144848619D01*
X153864286Y-144848619D02*
X153935714Y-144824809D01*
X153935714Y-144824809D02*
X153983333Y-144824809D01*
X153983333Y-144824809D02*
X154054762Y-144848619D01*
X154054762Y-144848619D02*
X154078571Y-144872428D01*
X154269048Y-144872428D02*
X154292857Y-144848619D01*
X154292857Y-144848619D02*
X154340476Y-144824809D01*
X154340476Y-144824809D02*
X154459524Y-144824809D01*
X154459524Y-144824809D02*
X154507143Y-144848619D01*
X154507143Y-144848619D02*
X154530952Y-144872428D01*
X154530952Y-144872428D02*
X154554762Y-144920047D01*
X154554762Y-144920047D02*
X154554762Y-144967666D01*
X154554762Y-144967666D02*
X154530952Y-145039095D01*
X154530952Y-145039095D02*
X154245238Y-145324809D01*
X154245238Y-145324809D02*
X154554762Y-145324809D01*
X154864285Y-144824809D02*
X154911904Y-144824809D01*
X154911904Y-144824809D02*
X154959523Y-144848619D01*
X154959523Y-144848619D02*
X154983333Y-144872428D01*
X154983333Y-144872428D02*
X155007142Y-144920047D01*
X155007142Y-144920047D02*
X155030952Y-145015285D01*
X155030952Y-145015285D02*
X155030952Y-145134333D01*
X155030952Y-145134333D02*
X155007142Y-145229571D01*
X155007142Y-145229571D02*
X154983333Y-145277190D01*
X154983333Y-145277190D02*
X154959523Y-145301000D01*
X154959523Y-145301000D02*
X154911904Y-145324809D01*
X154911904Y-145324809D02*
X154864285Y-145324809D01*
X154864285Y-145324809D02*
X154816666Y-145301000D01*
X154816666Y-145301000D02*
X154792857Y-145277190D01*
X154792857Y-145277190D02*
X154769047Y-145229571D01*
X154769047Y-145229571D02*
X154745238Y-145134333D01*
X154745238Y-145134333D02*
X154745238Y-145015285D01*
X154745238Y-145015285D02*
X154769047Y-144920047D01*
X154769047Y-144920047D02*
X154792857Y-144872428D01*
X154792857Y-144872428D02*
X154816666Y-144848619D01*
X154816666Y-144848619D02*
X154864285Y-144824809D01*
X185078571Y-143677190D02*
X185054762Y-143701000D01*
X185054762Y-143701000D02*
X184983333Y-143724809D01*
X184983333Y-143724809D02*
X184935714Y-143724809D01*
X184935714Y-143724809D02*
X184864286Y-143701000D01*
X184864286Y-143701000D02*
X184816667Y-143653380D01*
X184816667Y-143653380D02*
X184792857Y-143605761D01*
X184792857Y-143605761D02*
X184769048Y-143510523D01*
X184769048Y-143510523D02*
X184769048Y-143439095D01*
X184769048Y-143439095D02*
X184792857Y-143343857D01*
X184792857Y-143343857D02*
X184816667Y-143296238D01*
X184816667Y-143296238D02*
X184864286Y-143248619D01*
X184864286Y-143248619D02*
X184935714Y-143224809D01*
X184935714Y-143224809D02*
X184983333Y-143224809D01*
X184983333Y-143224809D02*
X185054762Y-143248619D01*
X185054762Y-143248619D02*
X185078571Y-143272428D01*
X185269048Y-143272428D02*
X185292857Y-143248619D01*
X185292857Y-143248619D02*
X185340476Y-143224809D01*
X185340476Y-143224809D02*
X185459524Y-143224809D01*
X185459524Y-143224809D02*
X185507143Y-143248619D01*
X185507143Y-143248619D02*
X185530952Y-143272428D01*
X185530952Y-143272428D02*
X185554762Y-143320047D01*
X185554762Y-143320047D02*
X185554762Y-143367666D01*
X185554762Y-143367666D02*
X185530952Y-143439095D01*
X185530952Y-143439095D02*
X185245238Y-143724809D01*
X185245238Y-143724809D02*
X185554762Y-143724809D01*
X185983333Y-143391476D02*
X185983333Y-143724809D01*
X185864285Y-143201000D02*
X185745238Y-143558142D01*
X185745238Y-143558142D02*
X186054761Y-143558142D01*
X188678571Y-145977190D02*
X188654762Y-146001000D01*
X188654762Y-146001000D02*
X188583333Y-146024809D01*
X188583333Y-146024809D02*
X188535714Y-146024809D01*
X188535714Y-146024809D02*
X188464286Y-146001000D01*
X188464286Y-146001000D02*
X188416667Y-145953380D01*
X188416667Y-145953380D02*
X188392857Y-145905761D01*
X188392857Y-145905761D02*
X188369048Y-145810523D01*
X188369048Y-145810523D02*
X188369048Y-145739095D01*
X188369048Y-145739095D02*
X188392857Y-145643857D01*
X188392857Y-145643857D02*
X188416667Y-145596238D01*
X188416667Y-145596238D02*
X188464286Y-145548619D01*
X188464286Y-145548619D02*
X188535714Y-145524809D01*
X188535714Y-145524809D02*
X188583333Y-145524809D01*
X188583333Y-145524809D02*
X188654762Y-145548619D01*
X188654762Y-145548619D02*
X188678571Y-145572428D01*
X188845238Y-145524809D02*
X189154762Y-145524809D01*
X189154762Y-145524809D02*
X188988095Y-145715285D01*
X188988095Y-145715285D02*
X189059524Y-145715285D01*
X189059524Y-145715285D02*
X189107143Y-145739095D01*
X189107143Y-145739095D02*
X189130952Y-145762904D01*
X189130952Y-145762904D02*
X189154762Y-145810523D01*
X189154762Y-145810523D02*
X189154762Y-145929571D01*
X189154762Y-145929571D02*
X189130952Y-145977190D01*
X189130952Y-145977190D02*
X189107143Y-146001000D01*
X189107143Y-146001000D02*
X189059524Y-146024809D01*
X189059524Y-146024809D02*
X188916667Y-146024809D01*
X188916667Y-146024809D02*
X188869048Y-146001000D01*
X188869048Y-146001000D02*
X188845238Y-145977190D01*
X189583333Y-145691476D02*
X189583333Y-146024809D01*
X189464285Y-145501000D02*
X189345238Y-145858142D01*
X189345238Y-145858142D02*
X189654761Y-145858142D01*
X171416666Y-137177190D02*
X171392857Y-137201000D01*
X171392857Y-137201000D02*
X171321428Y-137224809D01*
X171321428Y-137224809D02*
X171273809Y-137224809D01*
X171273809Y-137224809D02*
X171202381Y-137201000D01*
X171202381Y-137201000D02*
X171154762Y-137153380D01*
X171154762Y-137153380D02*
X171130952Y-137105761D01*
X171130952Y-137105761D02*
X171107143Y-137010523D01*
X171107143Y-137010523D02*
X171107143Y-136939095D01*
X171107143Y-136939095D02*
X171130952Y-136843857D01*
X171130952Y-136843857D02*
X171154762Y-136796238D01*
X171154762Y-136796238D02*
X171202381Y-136748619D01*
X171202381Y-136748619D02*
X171273809Y-136724809D01*
X171273809Y-136724809D02*
X171321428Y-136724809D01*
X171321428Y-136724809D02*
X171392857Y-136748619D01*
X171392857Y-136748619D02*
X171416666Y-136772428D01*
X171845238Y-136724809D02*
X171750000Y-136724809D01*
X171750000Y-136724809D02*
X171702381Y-136748619D01*
X171702381Y-136748619D02*
X171678571Y-136772428D01*
X171678571Y-136772428D02*
X171630952Y-136843857D01*
X171630952Y-136843857D02*
X171607143Y-136939095D01*
X171607143Y-136939095D02*
X171607143Y-137129571D01*
X171607143Y-137129571D02*
X171630952Y-137177190D01*
X171630952Y-137177190D02*
X171654762Y-137201000D01*
X171654762Y-137201000D02*
X171702381Y-137224809D01*
X171702381Y-137224809D02*
X171797619Y-137224809D01*
X171797619Y-137224809D02*
X171845238Y-137201000D01*
X171845238Y-137201000D02*
X171869047Y-137177190D01*
X171869047Y-137177190D02*
X171892857Y-137129571D01*
X171892857Y-137129571D02*
X171892857Y-137010523D01*
X171892857Y-137010523D02*
X171869047Y-136962904D01*
X171869047Y-136962904D02*
X171845238Y-136939095D01*
X171845238Y-136939095D02*
X171797619Y-136915285D01*
X171797619Y-136915285D02*
X171702381Y-136915285D01*
X171702381Y-136915285D02*
X171654762Y-136939095D01*
X171654762Y-136939095D02*
X171630952Y-136962904D01*
X171630952Y-136962904D02*
X171607143Y-137010523D01*
X183516666Y-122824809D02*
X183350000Y-122586714D01*
X183230952Y-122824809D02*
X183230952Y-122324809D01*
X183230952Y-122324809D02*
X183421428Y-122324809D01*
X183421428Y-122324809D02*
X183469047Y-122348619D01*
X183469047Y-122348619D02*
X183492857Y-122372428D01*
X183492857Y-122372428D02*
X183516666Y-122420047D01*
X183516666Y-122420047D02*
X183516666Y-122491476D01*
X183516666Y-122491476D02*
X183492857Y-122539095D01*
X183492857Y-122539095D02*
X183469047Y-122562904D01*
X183469047Y-122562904D02*
X183421428Y-122586714D01*
X183421428Y-122586714D02*
X183230952Y-122586714D01*
X183683333Y-122324809D02*
X184016666Y-122324809D01*
X184016666Y-122324809D02*
X183802381Y-122824809D01*
X154078571Y-144224809D02*
X153911905Y-143986714D01*
X153792857Y-144224809D02*
X153792857Y-143724809D01*
X153792857Y-143724809D02*
X153983333Y-143724809D01*
X153983333Y-143724809D02*
X154030952Y-143748619D01*
X154030952Y-143748619D02*
X154054762Y-143772428D01*
X154054762Y-143772428D02*
X154078571Y-143820047D01*
X154078571Y-143820047D02*
X154078571Y-143891476D01*
X154078571Y-143891476D02*
X154054762Y-143939095D01*
X154054762Y-143939095D02*
X154030952Y-143962904D01*
X154030952Y-143962904D02*
X153983333Y-143986714D01*
X153983333Y-143986714D02*
X153792857Y-143986714D01*
X154554762Y-144224809D02*
X154269048Y-144224809D01*
X154411905Y-144224809D02*
X154411905Y-143724809D01*
X154411905Y-143724809D02*
X154364286Y-143796238D01*
X154364286Y-143796238D02*
X154316667Y-143843857D01*
X154316667Y-143843857D02*
X154269048Y-143867666D01*
X155007142Y-143724809D02*
X154769047Y-143724809D01*
X154769047Y-143724809D02*
X154745238Y-143962904D01*
X154745238Y-143962904D02*
X154769047Y-143939095D01*
X154769047Y-143939095D02*
X154816666Y-143915285D01*
X154816666Y-143915285D02*
X154935714Y-143915285D01*
X154935714Y-143915285D02*
X154983333Y-143939095D01*
X154983333Y-143939095D02*
X155007142Y-143962904D01*
X155007142Y-143962904D02*
X155030952Y-144010523D01*
X155030952Y-144010523D02*
X155030952Y-144129571D01*
X155030952Y-144129571D02*
X155007142Y-144177190D01*
X155007142Y-144177190D02*
X154983333Y-144201000D01*
X154983333Y-144201000D02*
X154935714Y-144224809D01*
X154935714Y-144224809D02*
X154816666Y-144224809D01*
X154816666Y-144224809D02*
X154769047Y-144201000D01*
X154769047Y-144201000D02*
X154745238Y-144177190D01*
X173377190Y-133121428D02*
X173401000Y-133145237D01*
X173401000Y-133145237D02*
X173424809Y-133216666D01*
X173424809Y-133216666D02*
X173424809Y-133264285D01*
X173424809Y-133264285D02*
X173401000Y-133335713D01*
X173401000Y-133335713D02*
X173353380Y-133383332D01*
X173353380Y-133383332D02*
X173305761Y-133407142D01*
X173305761Y-133407142D02*
X173210523Y-133430951D01*
X173210523Y-133430951D02*
X173139095Y-133430951D01*
X173139095Y-133430951D02*
X173043857Y-133407142D01*
X173043857Y-133407142D02*
X172996238Y-133383332D01*
X172996238Y-133383332D02*
X172948619Y-133335713D01*
X172948619Y-133335713D02*
X172924809Y-133264285D01*
X172924809Y-133264285D02*
X172924809Y-133216666D01*
X172924809Y-133216666D02*
X172948619Y-133145237D01*
X172948619Y-133145237D02*
X172972428Y-133121428D01*
X173424809Y-132645237D02*
X173424809Y-132930951D01*
X173424809Y-132788094D02*
X172924809Y-132788094D01*
X172924809Y-132788094D02*
X172996238Y-132835713D01*
X172996238Y-132835713D02*
X173043857Y-132883332D01*
X173043857Y-132883332D02*
X173067666Y-132930951D01*
X172924809Y-132478571D02*
X172924809Y-132169047D01*
X172924809Y-132169047D02*
X173115285Y-132335714D01*
X173115285Y-132335714D02*
X173115285Y-132264285D01*
X173115285Y-132264285D02*
X173139095Y-132216666D01*
X173139095Y-132216666D02*
X173162904Y-132192857D01*
X173162904Y-132192857D02*
X173210523Y-132169047D01*
X173210523Y-132169047D02*
X173329571Y-132169047D01*
X173329571Y-132169047D02*
X173377190Y-132192857D01*
X173377190Y-132192857D02*
X173401000Y-132216666D01*
X173401000Y-132216666D02*
X173424809Y-132264285D01*
X173424809Y-132264285D02*
X173424809Y-132407142D01*
X173424809Y-132407142D02*
X173401000Y-132454761D01*
X173401000Y-132454761D02*
X173377190Y-132478571D01*
X170575001Y-142819147D02*
X170170239Y-142819147D01*
X170170239Y-142819147D02*
X170122620Y-142842957D01*
X170122620Y-142842957D02*
X170098811Y-142866766D01*
X170098811Y-142866766D02*
X170075001Y-142914385D01*
X170075001Y-142914385D02*
X170075001Y-143009623D01*
X170075001Y-143009623D02*
X170098811Y-143057242D01*
X170098811Y-143057242D02*
X170122620Y-143081052D01*
X170122620Y-143081052D02*
X170170239Y-143104861D01*
X170170239Y-143104861D02*
X170575001Y-143104861D01*
X170575001Y-143557243D02*
X170575001Y-143462005D01*
X170575001Y-143462005D02*
X170551191Y-143414386D01*
X170551191Y-143414386D02*
X170527382Y-143390576D01*
X170527382Y-143390576D02*
X170455953Y-143342957D01*
X170455953Y-143342957D02*
X170360715Y-143319148D01*
X170360715Y-143319148D02*
X170170239Y-143319148D01*
X170170239Y-143319148D02*
X170122620Y-143342957D01*
X170122620Y-143342957D02*
X170098811Y-143366767D01*
X170098811Y-143366767D02*
X170075001Y-143414386D01*
X170075001Y-143414386D02*
X170075001Y-143509624D01*
X170075001Y-143509624D02*
X170098811Y-143557243D01*
X170098811Y-143557243D02*
X170122620Y-143581052D01*
X170122620Y-143581052D02*
X170170239Y-143604862D01*
X170170239Y-143604862D02*
X170289287Y-143604862D01*
X170289287Y-143604862D02*
X170336906Y-143581052D01*
X170336906Y-143581052D02*
X170360715Y-143557243D01*
X170360715Y-143557243D02*
X170384525Y-143509624D01*
X170384525Y-143509624D02*
X170384525Y-143414386D01*
X170384525Y-143414386D02*
X170360715Y-143366767D01*
X170360715Y-143366767D02*
X170336906Y-143342957D01*
X170336906Y-143342957D02*
X170289287Y-143319148D01*
X160416666Y-130924809D02*
X160250000Y-130686714D01*
X160130952Y-130924809D02*
X160130952Y-130424809D01*
X160130952Y-130424809D02*
X160321428Y-130424809D01*
X160321428Y-130424809D02*
X160369047Y-130448619D01*
X160369047Y-130448619D02*
X160392857Y-130472428D01*
X160392857Y-130472428D02*
X160416666Y-130520047D01*
X160416666Y-130520047D02*
X160416666Y-130591476D01*
X160416666Y-130591476D02*
X160392857Y-130639095D01*
X160392857Y-130639095D02*
X160369047Y-130662904D01*
X160369047Y-130662904D02*
X160321428Y-130686714D01*
X160321428Y-130686714D02*
X160130952Y-130686714D01*
X160654762Y-130924809D02*
X160750000Y-130924809D01*
X160750000Y-130924809D02*
X160797619Y-130901000D01*
X160797619Y-130901000D02*
X160821428Y-130877190D01*
X160821428Y-130877190D02*
X160869047Y-130805761D01*
X160869047Y-130805761D02*
X160892857Y-130710523D01*
X160892857Y-130710523D02*
X160892857Y-130520047D01*
X160892857Y-130520047D02*
X160869047Y-130472428D01*
X160869047Y-130472428D02*
X160845238Y-130448619D01*
X160845238Y-130448619D02*
X160797619Y-130424809D01*
X160797619Y-130424809D02*
X160702381Y-130424809D01*
X160702381Y-130424809D02*
X160654762Y-130448619D01*
X160654762Y-130448619D02*
X160630952Y-130472428D01*
X160630952Y-130472428D02*
X160607143Y-130520047D01*
X160607143Y-130520047D02*
X160607143Y-130639095D01*
X160607143Y-130639095D02*
X160630952Y-130686714D01*
X160630952Y-130686714D02*
X160654762Y-130710523D01*
X160654762Y-130710523D02*
X160702381Y-130734333D01*
X160702381Y-130734333D02*
X160797619Y-130734333D01*
X160797619Y-130734333D02*
X160845238Y-130710523D01*
X160845238Y-130710523D02*
X160869047Y-130686714D01*
X160869047Y-130686714D02*
X160892857Y-130639095D01*
X151716666Y-121024809D02*
X151550000Y-120786714D01*
X151430952Y-121024809D02*
X151430952Y-120524809D01*
X151430952Y-120524809D02*
X151621428Y-120524809D01*
X151621428Y-120524809D02*
X151669047Y-120548619D01*
X151669047Y-120548619D02*
X151692857Y-120572428D01*
X151692857Y-120572428D02*
X151716666Y-120620047D01*
X151716666Y-120620047D02*
X151716666Y-120691476D01*
X151716666Y-120691476D02*
X151692857Y-120739095D01*
X151692857Y-120739095D02*
X151669047Y-120762904D01*
X151669047Y-120762904D02*
X151621428Y-120786714D01*
X151621428Y-120786714D02*
X151430952Y-120786714D01*
X152169047Y-120524809D02*
X151930952Y-120524809D01*
X151930952Y-120524809D02*
X151907143Y-120762904D01*
X151907143Y-120762904D02*
X151930952Y-120739095D01*
X151930952Y-120739095D02*
X151978571Y-120715285D01*
X151978571Y-120715285D02*
X152097619Y-120715285D01*
X152097619Y-120715285D02*
X152145238Y-120739095D01*
X152145238Y-120739095D02*
X152169047Y-120762904D01*
X152169047Y-120762904D02*
X152192857Y-120810523D01*
X152192857Y-120810523D02*
X152192857Y-120929571D01*
X152192857Y-120929571D02*
X152169047Y-120977190D01*
X152169047Y-120977190D02*
X152145238Y-121001000D01*
X152145238Y-121001000D02*
X152097619Y-121024809D01*
X152097619Y-121024809D02*
X151978571Y-121024809D01*
X151978571Y-121024809D02*
X151930952Y-121001000D01*
X151930952Y-121001000D02*
X151907143Y-120977190D01*
X180624809Y-144021428D02*
X180386714Y-144188094D01*
X180624809Y-144307142D02*
X180124809Y-144307142D01*
X180124809Y-144307142D02*
X180124809Y-144116666D01*
X180124809Y-144116666D02*
X180148619Y-144069047D01*
X180148619Y-144069047D02*
X180172428Y-144045237D01*
X180172428Y-144045237D02*
X180220047Y-144021428D01*
X180220047Y-144021428D02*
X180291476Y-144021428D01*
X180291476Y-144021428D02*
X180339095Y-144045237D01*
X180339095Y-144045237D02*
X180362904Y-144069047D01*
X180362904Y-144069047D02*
X180386714Y-144116666D01*
X180386714Y-144116666D02*
X180386714Y-144307142D01*
X180172428Y-143830951D02*
X180148619Y-143807142D01*
X180148619Y-143807142D02*
X180124809Y-143759523D01*
X180124809Y-143759523D02*
X180124809Y-143640475D01*
X180124809Y-143640475D02*
X180148619Y-143592856D01*
X180148619Y-143592856D02*
X180172428Y-143569047D01*
X180172428Y-143569047D02*
X180220047Y-143545237D01*
X180220047Y-143545237D02*
X180267666Y-143545237D01*
X180267666Y-143545237D02*
X180339095Y-143569047D01*
X180339095Y-143569047D02*
X180624809Y-143854761D01*
X180624809Y-143854761D02*
X180624809Y-143545237D01*
X180624809Y-143069047D02*
X180624809Y-143354761D01*
X180624809Y-143211904D02*
X180124809Y-143211904D01*
X180124809Y-143211904D02*
X180196238Y-143259523D01*
X180196238Y-143259523D02*
X180243857Y-143307142D01*
X180243857Y-143307142D02*
X180267666Y-143354761D01*
X157933333Y-125824809D02*
X157933333Y-126181952D01*
X157933333Y-126181952D02*
X157909524Y-126253380D01*
X157909524Y-126253380D02*
X157861905Y-126301000D01*
X157861905Y-126301000D02*
X157790476Y-126324809D01*
X157790476Y-126324809D02*
X157742857Y-126324809D01*
X158123809Y-125824809D02*
X158433333Y-125824809D01*
X158433333Y-125824809D02*
X158266666Y-126015285D01*
X158266666Y-126015285D02*
X158338095Y-126015285D01*
X158338095Y-126015285D02*
X158385714Y-126039095D01*
X158385714Y-126039095D02*
X158409523Y-126062904D01*
X158409523Y-126062904D02*
X158433333Y-126110523D01*
X158433333Y-126110523D02*
X158433333Y-126229571D01*
X158433333Y-126229571D02*
X158409523Y-126277190D01*
X158409523Y-126277190D02*
X158385714Y-126301000D01*
X158385714Y-126301000D02*
X158338095Y-126324809D01*
X158338095Y-126324809D02*
X158195238Y-126324809D01*
X158195238Y-126324809D02*
X158147619Y-126301000D01*
X158147619Y-126301000D02*
X158123809Y-126277190D01*
X183919047Y-152024809D02*
X183919047Y-152429571D01*
X183919047Y-152429571D02*
X183942857Y-152477190D01*
X183942857Y-152477190D02*
X183966666Y-152501000D01*
X183966666Y-152501000D02*
X184014285Y-152524809D01*
X184014285Y-152524809D02*
X184109523Y-152524809D01*
X184109523Y-152524809D02*
X184157142Y-152501000D01*
X184157142Y-152501000D02*
X184180952Y-152477190D01*
X184180952Y-152477190D02*
X184204761Y-152429571D01*
X184204761Y-152429571D02*
X184204761Y-152024809D01*
X184466667Y-152524809D02*
X184561905Y-152524809D01*
X184561905Y-152524809D02*
X184609524Y-152501000D01*
X184609524Y-152501000D02*
X184633333Y-152477190D01*
X184633333Y-152477190D02*
X184680952Y-152405761D01*
X184680952Y-152405761D02*
X184704762Y-152310523D01*
X184704762Y-152310523D02*
X184704762Y-152120047D01*
X184704762Y-152120047D02*
X184680952Y-152072428D01*
X184680952Y-152072428D02*
X184657143Y-152048619D01*
X184657143Y-152048619D02*
X184609524Y-152024809D01*
X184609524Y-152024809D02*
X184514286Y-152024809D01*
X184514286Y-152024809D02*
X184466667Y-152048619D01*
X184466667Y-152048619D02*
X184442857Y-152072428D01*
X184442857Y-152072428D02*
X184419048Y-152120047D01*
X184419048Y-152120047D02*
X184419048Y-152239095D01*
X184419048Y-152239095D02*
X184442857Y-152286714D01*
X184442857Y-152286714D02*
X184466667Y-152310523D01*
X184466667Y-152310523D02*
X184514286Y-152334333D01*
X184514286Y-152334333D02*
X184609524Y-152334333D01*
X184609524Y-152334333D02*
X184657143Y-152310523D01*
X184657143Y-152310523D02*
X184680952Y-152286714D01*
X184680952Y-152286714D02*
X184704762Y-152239095D01*
X176216666Y-147324809D02*
X175978571Y-147324809D01*
X175978571Y-147324809D02*
X175978571Y-146824809D01*
X176597619Y-146991476D02*
X176597619Y-147324809D01*
X176478571Y-146801000D02*
X176359524Y-147158142D01*
X176359524Y-147158142D02*
X176669047Y-147158142D01*
X161024809Y-144021428D02*
X160786714Y-144188094D01*
X161024809Y-144307142D02*
X160524809Y-144307142D01*
X160524809Y-144307142D02*
X160524809Y-144116666D01*
X160524809Y-144116666D02*
X160548619Y-144069047D01*
X160548619Y-144069047D02*
X160572428Y-144045237D01*
X160572428Y-144045237D02*
X160620047Y-144021428D01*
X160620047Y-144021428D02*
X160691476Y-144021428D01*
X160691476Y-144021428D02*
X160739095Y-144045237D01*
X160739095Y-144045237D02*
X160762904Y-144069047D01*
X160762904Y-144069047D02*
X160786714Y-144116666D01*
X160786714Y-144116666D02*
X160786714Y-144307142D01*
X161024809Y-143545237D02*
X161024809Y-143830951D01*
X161024809Y-143688094D02*
X160524809Y-143688094D01*
X160524809Y-143688094D02*
X160596238Y-143735713D01*
X160596238Y-143735713D02*
X160643857Y-143783332D01*
X160643857Y-143783332D02*
X160667666Y-143830951D01*
X161024809Y-143069047D02*
X161024809Y-143354761D01*
X161024809Y-143211904D02*
X160524809Y-143211904D01*
X160524809Y-143211904D02*
X160596238Y-143259523D01*
X160596238Y-143259523D02*
X160643857Y-143307142D01*
X160643857Y-143307142D02*
X160667666Y-143354761D01*
X175433333Y-119094809D02*
X175433333Y-119451952D01*
X175433333Y-119451952D02*
X175409524Y-119523380D01*
X175409524Y-119523380D02*
X175361905Y-119571000D01*
X175361905Y-119571000D02*
X175290476Y-119594809D01*
X175290476Y-119594809D02*
X175242857Y-119594809D01*
X175933333Y-119594809D02*
X175647619Y-119594809D01*
X175790476Y-119594809D02*
X175790476Y-119094809D01*
X175790476Y-119094809D02*
X175742857Y-119166238D01*
X175742857Y-119166238D02*
X175695238Y-119213857D01*
X175695238Y-119213857D02*
X175647619Y-119237666D01*
X160475190Y-145880952D02*
X160070428Y-145880952D01*
X160070428Y-145880952D02*
X160022809Y-145904762D01*
X160022809Y-145904762D02*
X159999000Y-145928571D01*
X159999000Y-145928571D02*
X159975190Y-145976190D01*
X159975190Y-145976190D02*
X159975190Y-146071428D01*
X159975190Y-146071428D02*
X159999000Y-146119047D01*
X159999000Y-146119047D02*
X160022809Y-146142857D01*
X160022809Y-146142857D02*
X160070428Y-146166666D01*
X160070428Y-146166666D02*
X160475190Y-146166666D01*
X159975190Y-146666667D02*
X159975190Y-146380953D01*
X159975190Y-146523810D02*
X160475190Y-146523810D01*
X160475190Y-146523810D02*
X160403761Y-146476191D01*
X160403761Y-146476191D02*
X160356142Y-146428572D01*
X160356142Y-146428572D02*
X160332333Y-146380953D01*
X159975190Y-147142857D02*
X159975190Y-146857143D01*
X159975190Y-147000000D02*
X160475190Y-147000000D01*
X160475190Y-147000000D02*
X160403761Y-146952381D01*
X160403761Y-146952381D02*
X160356142Y-146904762D01*
X160356142Y-146904762D02*
X160332333Y-146857143D01*
X161578571Y-152277190D02*
X161554762Y-152301000D01*
X161554762Y-152301000D02*
X161483333Y-152324809D01*
X161483333Y-152324809D02*
X161435714Y-152324809D01*
X161435714Y-152324809D02*
X161364286Y-152301000D01*
X161364286Y-152301000D02*
X161316667Y-152253380D01*
X161316667Y-152253380D02*
X161292857Y-152205761D01*
X161292857Y-152205761D02*
X161269048Y-152110523D01*
X161269048Y-152110523D02*
X161269048Y-152039095D01*
X161269048Y-152039095D02*
X161292857Y-151943857D01*
X161292857Y-151943857D02*
X161316667Y-151896238D01*
X161316667Y-151896238D02*
X161364286Y-151848619D01*
X161364286Y-151848619D02*
X161435714Y-151824809D01*
X161435714Y-151824809D02*
X161483333Y-151824809D01*
X161483333Y-151824809D02*
X161554762Y-151848619D01*
X161554762Y-151848619D02*
X161578571Y-151872428D01*
X161745238Y-151824809D02*
X162054762Y-151824809D01*
X162054762Y-151824809D02*
X161888095Y-152015285D01*
X161888095Y-152015285D02*
X161959524Y-152015285D01*
X161959524Y-152015285D02*
X162007143Y-152039095D01*
X162007143Y-152039095D02*
X162030952Y-152062904D01*
X162030952Y-152062904D02*
X162054762Y-152110523D01*
X162054762Y-152110523D02*
X162054762Y-152229571D01*
X162054762Y-152229571D02*
X162030952Y-152277190D01*
X162030952Y-152277190D02*
X162007143Y-152301000D01*
X162007143Y-152301000D02*
X161959524Y-152324809D01*
X161959524Y-152324809D02*
X161816667Y-152324809D01*
X161816667Y-152324809D02*
X161769048Y-152301000D01*
X161769048Y-152301000D02*
X161745238Y-152277190D01*
X162507142Y-151824809D02*
X162269047Y-151824809D01*
X162269047Y-151824809D02*
X162245238Y-152062904D01*
X162245238Y-152062904D02*
X162269047Y-152039095D01*
X162269047Y-152039095D02*
X162316666Y-152015285D01*
X162316666Y-152015285D02*
X162435714Y-152015285D01*
X162435714Y-152015285D02*
X162483333Y-152039095D01*
X162483333Y-152039095D02*
X162507142Y-152062904D01*
X162507142Y-152062904D02*
X162530952Y-152110523D01*
X162530952Y-152110523D02*
X162530952Y-152229571D01*
X162530952Y-152229571D02*
X162507142Y-152277190D01*
X162507142Y-152277190D02*
X162483333Y-152301000D01*
X162483333Y-152301000D02*
X162435714Y-152324809D01*
X162435714Y-152324809D02*
X162316666Y-152324809D01*
X162316666Y-152324809D02*
X162269047Y-152301000D01*
X162269047Y-152301000D02*
X162245238Y-152277190D01*
X164924809Y-143730951D02*
X164924809Y-143445237D01*
X165424809Y-143588094D02*
X164924809Y-143588094D01*
X165424809Y-143278571D02*
X164924809Y-143278571D01*
X164924809Y-143278571D02*
X164924809Y-143088095D01*
X164924809Y-143088095D02*
X164948619Y-143040476D01*
X164948619Y-143040476D02*
X164972428Y-143016666D01*
X164972428Y-143016666D02*
X165020047Y-142992857D01*
X165020047Y-142992857D02*
X165091476Y-142992857D01*
X165091476Y-142992857D02*
X165139095Y-143016666D01*
X165139095Y-143016666D02*
X165162904Y-143040476D01*
X165162904Y-143040476D02*
X165186714Y-143088095D01*
X165186714Y-143088095D02*
X165186714Y-143278571D01*
X164924809Y-142826190D02*
X164924809Y-142516666D01*
X164924809Y-142516666D02*
X165115285Y-142683333D01*
X165115285Y-142683333D02*
X165115285Y-142611904D01*
X165115285Y-142611904D02*
X165139095Y-142564285D01*
X165139095Y-142564285D02*
X165162904Y-142540476D01*
X165162904Y-142540476D02*
X165210523Y-142516666D01*
X165210523Y-142516666D02*
X165329571Y-142516666D01*
X165329571Y-142516666D02*
X165377190Y-142540476D01*
X165377190Y-142540476D02*
X165401000Y-142564285D01*
X165401000Y-142564285D02*
X165424809Y-142611904D01*
X165424809Y-142611904D02*
X165424809Y-142754761D01*
X165424809Y-142754761D02*
X165401000Y-142802380D01*
X165401000Y-142802380D02*
X165377190Y-142826190D01*
X183016666Y-119024809D02*
X182850000Y-118786714D01*
X182730952Y-119024809D02*
X182730952Y-118524809D01*
X182730952Y-118524809D02*
X182921428Y-118524809D01*
X182921428Y-118524809D02*
X182969047Y-118548619D01*
X182969047Y-118548619D02*
X182992857Y-118572428D01*
X182992857Y-118572428D02*
X183016666Y-118620047D01*
X183016666Y-118620047D02*
X183016666Y-118691476D01*
X183016666Y-118691476D02*
X182992857Y-118739095D01*
X182992857Y-118739095D02*
X182969047Y-118762904D01*
X182969047Y-118762904D02*
X182921428Y-118786714D01*
X182921428Y-118786714D02*
X182730952Y-118786714D01*
X183445238Y-118524809D02*
X183350000Y-118524809D01*
X183350000Y-118524809D02*
X183302381Y-118548619D01*
X183302381Y-118548619D02*
X183278571Y-118572428D01*
X183278571Y-118572428D02*
X183230952Y-118643857D01*
X183230952Y-118643857D02*
X183207143Y-118739095D01*
X183207143Y-118739095D02*
X183207143Y-118929571D01*
X183207143Y-118929571D02*
X183230952Y-118977190D01*
X183230952Y-118977190D02*
X183254762Y-119001000D01*
X183254762Y-119001000D02*
X183302381Y-119024809D01*
X183302381Y-119024809D02*
X183397619Y-119024809D01*
X183397619Y-119024809D02*
X183445238Y-119001000D01*
X183445238Y-119001000D02*
X183469047Y-118977190D01*
X183469047Y-118977190D02*
X183492857Y-118929571D01*
X183492857Y-118929571D02*
X183492857Y-118810523D01*
X183492857Y-118810523D02*
X183469047Y-118762904D01*
X183469047Y-118762904D02*
X183445238Y-118739095D01*
X183445238Y-118739095D02*
X183397619Y-118715285D01*
X183397619Y-118715285D02*
X183302381Y-118715285D01*
X183302381Y-118715285D02*
X183254762Y-118739095D01*
X183254762Y-118739095D02*
X183230952Y-118762904D01*
X183230952Y-118762904D02*
X183207143Y-118810523D01*
X170178571Y-125524809D02*
X170011905Y-125286714D01*
X169892857Y-125524809D02*
X169892857Y-125024809D01*
X169892857Y-125024809D02*
X170083333Y-125024809D01*
X170083333Y-125024809D02*
X170130952Y-125048619D01*
X170130952Y-125048619D02*
X170154762Y-125072428D01*
X170154762Y-125072428D02*
X170178571Y-125120047D01*
X170178571Y-125120047D02*
X170178571Y-125191476D01*
X170178571Y-125191476D02*
X170154762Y-125239095D01*
X170154762Y-125239095D02*
X170130952Y-125262904D01*
X170130952Y-125262904D02*
X170083333Y-125286714D01*
X170083333Y-125286714D02*
X169892857Y-125286714D01*
X170369048Y-125072428D02*
X170392857Y-125048619D01*
X170392857Y-125048619D02*
X170440476Y-125024809D01*
X170440476Y-125024809D02*
X170559524Y-125024809D01*
X170559524Y-125024809D02*
X170607143Y-125048619D01*
X170607143Y-125048619D02*
X170630952Y-125072428D01*
X170630952Y-125072428D02*
X170654762Y-125120047D01*
X170654762Y-125120047D02*
X170654762Y-125167666D01*
X170654762Y-125167666D02*
X170630952Y-125239095D01*
X170630952Y-125239095D02*
X170345238Y-125524809D01*
X170345238Y-125524809D02*
X170654762Y-125524809D01*
X171083333Y-125191476D02*
X171083333Y-125524809D01*
X170964285Y-125001000D02*
X170845238Y-125358142D01*
X170845238Y-125358142D02*
X171154761Y-125358142D01*
X157924809Y-137780952D02*
X158329571Y-137780952D01*
X158329571Y-137780952D02*
X158377190Y-137757142D01*
X158377190Y-137757142D02*
X158401000Y-137733333D01*
X158401000Y-137733333D02*
X158424809Y-137685714D01*
X158424809Y-137685714D02*
X158424809Y-137590476D01*
X158424809Y-137590476D02*
X158401000Y-137542857D01*
X158401000Y-137542857D02*
X158377190Y-137519047D01*
X158377190Y-137519047D02*
X158329571Y-137495238D01*
X158329571Y-137495238D02*
X157924809Y-137495238D01*
X157924809Y-137304761D02*
X157924809Y-136971428D01*
X157924809Y-136971428D02*
X158424809Y-137185713D01*
X188278571Y-152537190D02*
X188254762Y-152561000D01*
X188254762Y-152561000D02*
X188183333Y-152584809D01*
X188183333Y-152584809D02*
X188135714Y-152584809D01*
X188135714Y-152584809D02*
X188064286Y-152561000D01*
X188064286Y-152561000D02*
X188016667Y-152513380D01*
X188016667Y-152513380D02*
X187992857Y-152465761D01*
X187992857Y-152465761D02*
X187969048Y-152370523D01*
X187969048Y-152370523D02*
X187969048Y-152299095D01*
X187969048Y-152299095D02*
X187992857Y-152203857D01*
X187992857Y-152203857D02*
X188016667Y-152156238D01*
X188016667Y-152156238D02*
X188064286Y-152108619D01*
X188064286Y-152108619D02*
X188135714Y-152084809D01*
X188135714Y-152084809D02*
X188183333Y-152084809D01*
X188183333Y-152084809D02*
X188254762Y-152108619D01*
X188254762Y-152108619D02*
X188278571Y-152132428D01*
X188445238Y-152084809D02*
X188754762Y-152084809D01*
X188754762Y-152084809D02*
X188588095Y-152275285D01*
X188588095Y-152275285D02*
X188659524Y-152275285D01*
X188659524Y-152275285D02*
X188707143Y-152299095D01*
X188707143Y-152299095D02*
X188730952Y-152322904D01*
X188730952Y-152322904D02*
X188754762Y-152370523D01*
X188754762Y-152370523D02*
X188754762Y-152489571D01*
X188754762Y-152489571D02*
X188730952Y-152537190D01*
X188730952Y-152537190D02*
X188707143Y-152561000D01*
X188707143Y-152561000D02*
X188659524Y-152584809D01*
X188659524Y-152584809D02*
X188516667Y-152584809D01*
X188516667Y-152584809D02*
X188469048Y-152561000D01*
X188469048Y-152561000D02*
X188445238Y-152537190D01*
X188945238Y-152132428D02*
X188969047Y-152108619D01*
X188969047Y-152108619D02*
X189016666Y-152084809D01*
X189016666Y-152084809D02*
X189135714Y-152084809D01*
X189135714Y-152084809D02*
X189183333Y-152108619D01*
X189183333Y-152108619D02*
X189207142Y-152132428D01*
X189207142Y-152132428D02*
X189230952Y-152180047D01*
X189230952Y-152180047D02*
X189230952Y-152227666D01*
X189230952Y-152227666D02*
X189207142Y-152299095D01*
X189207142Y-152299095D02*
X188921428Y-152584809D01*
X188921428Y-152584809D02*
X189230952Y-152584809D01*
X173824809Y-134883333D02*
X173824809Y-135121428D01*
X173824809Y-135121428D02*
X173324809Y-135121428D01*
X173324809Y-134478571D02*
X173324809Y-134716666D01*
X173324809Y-134716666D02*
X173562904Y-134740475D01*
X173562904Y-134740475D02*
X173539095Y-134716666D01*
X173539095Y-134716666D02*
X173515285Y-134669047D01*
X173515285Y-134669047D02*
X173515285Y-134549999D01*
X173515285Y-134549999D02*
X173539095Y-134502380D01*
X173539095Y-134502380D02*
X173562904Y-134478571D01*
X173562904Y-134478571D02*
X173610523Y-134454761D01*
X173610523Y-134454761D02*
X173729571Y-134454761D01*
X173729571Y-134454761D02*
X173777190Y-134478571D01*
X173777190Y-134478571D02*
X173801000Y-134502380D01*
X173801000Y-134502380D02*
X173824809Y-134549999D01*
X173824809Y-134549999D02*
X173824809Y-134669047D01*
X173824809Y-134669047D02*
X173801000Y-134716666D01*
X173801000Y-134716666D02*
X173777190Y-134740475D01*
X181477190Y-143921428D02*
X181501000Y-143945237D01*
X181501000Y-143945237D02*
X181524809Y-144016666D01*
X181524809Y-144016666D02*
X181524809Y-144064285D01*
X181524809Y-144064285D02*
X181501000Y-144135713D01*
X181501000Y-144135713D02*
X181453380Y-144183332D01*
X181453380Y-144183332D02*
X181405761Y-144207142D01*
X181405761Y-144207142D02*
X181310523Y-144230951D01*
X181310523Y-144230951D02*
X181239095Y-144230951D01*
X181239095Y-144230951D02*
X181143857Y-144207142D01*
X181143857Y-144207142D02*
X181096238Y-144183332D01*
X181096238Y-144183332D02*
X181048619Y-144135713D01*
X181048619Y-144135713D02*
X181024809Y-144064285D01*
X181024809Y-144064285D02*
X181024809Y-144016666D01*
X181024809Y-144016666D02*
X181048619Y-143945237D01*
X181048619Y-143945237D02*
X181072428Y-143921428D01*
X181024809Y-143754761D02*
X181024809Y-143445237D01*
X181024809Y-143445237D02*
X181215285Y-143611904D01*
X181215285Y-143611904D02*
X181215285Y-143540475D01*
X181215285Y-143540475D02*
X181239095Y-143492856D01*
X181239095Y-143492856D02*
X181262904Y-143469047D01*
X181262904Y-143469047D02*
X181310523Y-143445237D01*
X181310523Y-143445237D02*
X181429571Y-143445237D01*
X181429571Y-143445237D02*
X181477190Y-143469047D01*
X181477190Y-143469047D02*
X181501000Y-143492856D01*
X181501000Y-143492856D02*
X181524809Y-143540475D01*
X181524809Y-143540475D02*
X181524809Y-143683332D01*
X181524809Y-143683332D02*
X181501000Y-143730951D01*
X181501000Y-143730951D02*
X181477190Y-143754761D01*
X181524809Y-142969047D02*
X181524809Y-143254761D01*
X181524809Y-143111904D02*
X181024809Y-143111904D01*
X181024809Y-143111904D02*
X181096238Y-143159523D01*
X181096238Y-143159523D02*
X181143857Y-143207142D01*
X181143857Y-143207142D02*
X181167666Y-143254761D01*
X178616666Y-137477190D02*
X178592857Y-137501000D01*
X178592857Y-137501000D02*
X178521428Y-137524809D01*
X178521428Y-137524809D02*
X178473809Y-137524809D01*
X178473809Y-137524809D02*
X178402381Y-137501000D01*
X178402381Y-137501000D02*
X178354762Y-137453380D01*
X178354762Y-137453380D02*
X178330952Y-137405761D01*
X178330952Y-137405761D02*
X178307143Y-137310523D01*
X178307143Y-137310523D02*
X178307143Y-137239095D01*
X178307143Y-137239095D02*
X178330952Y-137143857D01*
X178330952Y-137143857D02*
X178354762Y-137096238D01*
X178354762Y-137096238D02*
X178402381Y-137048619D01*
X178402381Y-137048619D02*
X178473809Y-137024809D01*
X178473809Y-137024809D02*
X178521428Y-137024809D01*
X178521428Y-137024809D02*
X178592857Y-137048619D01*
X178592857Y-137048619D02*
X178616666Y-137072428D01*
X178783333Y-137024809D02*
X179092857Y-137024809D01*
X179092857Y-137024809D02*
X178926190Y-137215285D01*
X178926190Y-137215285D02*
X178997619Y-137215285D01*
X178997619Y-137215285D02*
X179045238Y-137239095D01*
X179045238Y-137239095D02*
X179069047Y-137262904D01*
X179069047Y-137262904D02*
X179092857Y-137310523D01*
X179092857Y-137310523D02*
X179092857Y-137429571D01*
X179092857Y-137429571D02*
X179069047Y-137477190D01*
X179069047Y-137477190D02*
X179045238Y-137501000D01*
X179045238Y-137501000D02*
X178997619Y-137524809D01*
X178997619Y-137524809D02*
X178854762Y-137524809D01*
X178854762Y-137524809D02*
X178807143Y-137501000D01*
X178807143Y-137501000D02*
X178783333Y-137477190D01*
X178516666Y-132977190D02*
X178492857Y-133001000D01*
X178492857Y-133001000D02*
X178421428Y-133024809D01*
X178421428Y-133024809D02*
X178373809Y-133024809D01*
X178373809Y-133024809D02*
X178302381Y-133001000D01*
X178302381Y-133001000D02*
X178254762Y-132953380D01*
X178254762Y-132953380D02*
X178230952Y-132905761D01*
X178230952Y-132905761D02*
X178207143Y-132810523D01*
X178207143Y-132810523D02*
X178207143Y-132739095D01*
X178207143Y-132739095D02*
X178230952Y-132643857D01*
X178230952Y-132643857D02*
X178254762Y-132596238D01*
X178254762Y-132596238D02*
X178302381Y-132548619D01*
X178302381Y-132548619D02*
X178373809Y-132524809D01*
X178373809Y-132524809D02*
X178421428Y-132524809D01*
X178421428Y-132524809D02*
X178492857Y-132548619D01*
X178492857Y-132548619D02*
X178516666Y-132572428D01*
X178945238Y-132691476D02*
X178945238Y-133024809D01*
X178826190Y-132501000D02*
X178707143Y-132858142D01*
X178707143Y-132858142D02*
X179016666Y-132858142D01*
X164278571Y-136177190D02*
X164254762Y-136201000D01*
X164254762Y-136201000D02*
X164183333Y-136224809D01*
X164183333Y-136224809D02*
X164135714Y-136224809D01*
X164135714Y-136224809D02*
X164064286Y-136201000D01*
X164064286Y-136201000D02*
X164016667Y-136153380D01*
X164016667Y-136153380D02*
X163992857Y-136105761D01*
X163992857Y-136105761D02*
X163969048Y-136010523D01*
X163969048Y-136010523D02*
X163969048Y-135939095D01*
X163969048Y-135939095D02*
X163992857Y-135843857D01*
X163992857Y-135843857D02*
X164016667Y-135796238D01*
X164016667Y-135796238D02*
X164064286Y-135748619D01*
X164064286Y-135748619D02*
X164135714Y-135724809D01*
X164135714Y-135724809D02*
X164183333Y-135724809D01*
X164183333Y-135724809D02*
X164254762Y-135748619D01*
X164254762Y-135748619D02*
X164278571Y-135772428D01*
X164754762Y-136224809D02*
X164469048Y-136224809D01*
X164611905Y-136224809D02*
X164611905Y-135724809D01*
X164611905Y-135724809D02*
X164564286Y-135796238D01*
X164564286Y-135796238D02*
X164516667Y-135843857D01*
X164516667Y-135843857D02*
X164469048Y-135867666D01*
X165183333Y-135724809D02*
X165088095Y-135724809D01*
X165088095Y-135724809D02*
X165040476Y-135748619D01*
X165040476Y-135748619D02*
X165016666Y-135772428D01*
X165016666Y-135772428D02*
X164969047Y-135843857D01*
X164969047Y-135843857D02*
X164945238Y-135939095D01*
X164945238Y-135939095D02*
X164945238Y-136129571D01*
X164945238Y-136129571D02*
X164969047Y-136177190D01*
X164969047Y-136177190D02*
X164992857Y-136201000D01*
X164992857Y-136201000D02*
X165040476Y-136224809D01*
X165040476Y-136224809D02*
X165135714Y-136224809D01*
X165135714Y-136224809D02*
X165183333Y-136201000D01*
X165183333Y-136201000D02*
X165207142Y-136177190D01*
X165207142Y-136177190D02*
X165230952Y-136129571D01*
X165230952Y-136129571D02*
X165230952Y-136010523D01*
X165230952Y-136010523D02*
X165207142Y-135962904D01*
X165207142Y-135962904D02*
X165183333Y-135939095D01*
X165183333Y-135939095D02*
X165135714Y-135915285D01*
X165135714Y-135915285D02*
X165040476Y-135915285D01*
X165040476Y-135915285D02*
X164992857Y-135939095D01*
X164992857Y-135939095D02*
X164969047Y-135962904D01*
X164969047Y-135962904D02*
X164945238Y-136010523D01*
X176295238Y-138324809D02*
X176628571Y-138824809D01*
X176628571Y-138324809D02*
X176295238Y-138824809D01*
X177080952Y-138824809D02*
X176795238Y-138824809D01*
X176938095Y-138824809D02*
X176938095Y-138324809D01*
X176938095Y-138324809D02*
X176890476Y-138396238D01*
X176890476Y-138396238D02*
X176842857Y-138443857D01*
X176842857Y-138443857D02*
X176795238Y-138467666D01*
X184716666Y-149424809D02*
X184478571Y-149424809D01*
X184478571Y-149424809D02*
X184478571Y-148924809D01*
X184835714Y-148924809D02*
X185145238Y-148924809D01*
X185145238Y-148924809D02*
X184978571Y-149115285D01*
X184978571Y-149115285D02*
X185050000Y-149115285D01*
X185050000Y-149115285D02*
X185097619Y-149139095D01*
X185097619Y-149139095D02*
X185121428Y-149162904D01*
X185121428Y-149162904D02*
X185145238Y-149210523D01*
X185145238Y-149210523D02*
X185145238Y-149329571D01*
X185145238Y-149329571D02*
X185121428Y-149377190D01*
X185121428Y-149377190D02*
X185097619Y-149401000D01*
X185097619Y-149401000D02*
X185050000Y-149424809D01*
X185050000Y-149424809D02*
X184907143Y-149424809D01*
X184907143Y-149424809D02*
X184859524Y-149401000D01*
X184859524Y-149401000D02*
X184835714Y-149377190D01*
X171416666Y-139577190D02*
X171392857Y-139601000D01*
X171392857Y-139601000D02*
X171321428Y-139624809D01*
X171321428Y-139624809D02*
X171273809Y-139624809D01*
X171273809Y-139624809D02*
X171202381Y-139601000D01*
X171202381Y-139601000D02*
X171154762Y-139553380D01*
X171154762Y-139553380D02*
X171130952Y-139505761D01*
X171130952Y-139505761D02*
X171107143Y-139410523D01*
X171107143Y-139410523D02*
X171107143Y-139339095D01*
X171107143Y-139339095D02*
X171130952Y-139243857D01*
X171130952Y-139243857D02*
X171154762Y-139196238D01*
X171154762Y-139196238D02*
X171202381Y-139148619D01*
X171202381Y-139148619D02*
X171273809Y-139124809D01*
X171273809Y-139124809D02*
X171321428Y-139124809D01*
X171321428Y-139124809D02*
X171392857Y-139148619D01*
X171392857Y-139148619D02*
X171416666Y-139172428D01*
X171702381Y-139339095D02*
X171654762Y-139315285D01*
X171654762Y-139315285D02*
X171630952Y-139291476D01*
X171630952Y-139291476D02*
X171607143Y-139243857D01*
X171607143Y-139243857D02*
X171607143Y-139220047D01*
X171607143Y-139220047D02*
X171630952Y-139172428D01*
X171630952Y-139172428D02*
X171654762Y-139148619D01*
X171654762Y-139148619D02*
X171702381Y-139124809D01*
X171702381Y-139124809D02*
X171797619Y-139124809D01*
X171797619Y-139124809D02*
X171845238Y-139148619D01*
X171845238Y-139148619D02*
X171869047Y-139172428D01*
X171869047Y-139172428D02*
X171892857Y-139220047D01*
X171892857Y-139220047D02*
X171892857Y-139243857D01*
X171892857Y-139243857D02*
X171869047Y-139291476D01*
X171869047Y-139291476D02*
X171845238Y-139315285D01*
X171845238Y-139315285D02*
X171797619Y-139339095D01*
X171797619Y-139339095D02*
X171702381Y-139339095D01*
X171702381Y-139339095D02*
X171654762Y-139362904D01*
X171654762Y-139362904D02*
X171630952Y-139386714D01*
X171630952Y-139386714D02*
X171607143Y-139434333D01*
X171607143Y-139434333D02*
X171607143Y-139529571D01*
X171607143Y-139529571D02*
X171630952Y-139577190D01*
X171630952Y-139577190D02*
X171654762Y-139601000D01*
X171654762Y-139601000D02*
X171702381Y-139624809D01*
X171702381Y-139624809D02*
X171797619Y-139624809D01*
X171797619Y-139624809D02*
X171845238Y-139601000D01*
X171845238Y-139601000D02*
X171869047Y-139577190D01*
X171869047Y-139577190D02*
X171892857Y-139529571D01*
X171892857Y-139529571D02*
X171892857Y-139434333D01*
X171892857Y-139434333D02*
X171869047Y-139386714D01*
X171869047Y-139386714D02*
X171845238Y-139362904D01*
X171845238Y-139362904D02*
X171797619Y-139339095D01*
X160233333Y-114524809D02*
X160233333Y-114881952D01*
X160233333Y-114881952D02*
X160209524Y-114953380D01*
X160209524Y-114953380D02*
X160161905Y-115001000D01*
X160161905Y-115001000D02*
X160090476Y-115024809D01*
X160090476Y-115024809D02*
X160042857Y-115024809D01*
X160685714Y-114691476D02*
X160685714Y-115024809D01*
X160566666Y-114501000D02*
X160447619Y-114858142D01*
X160447619Y-114858142D02*
X160757142Y-114858142D01*
X186078571Y-145977190D02*
X186054762Y-146001000D01*
X186054762Y-146001000D02*
X185983333Y-146024809D01*
X185983333Y-146024809D02*
X185935714Y-146024809D01*
X185935714Y-146024809D02*
X185864286Y-146001000D01*
X185864286Y-146001000D02*
X185816667Y-145953380D01*
X185816667Y-145953380D02*
X185792857Y-145905761D01*
X185792857Y-145905761D02*
X185769048Y-145810523D01*
X185769048Y-145810523D02*
X185769048Y-145739095D01*
X185769048Y-145739095D02*
X185792857Y-145643857D01*
X185792857Y-145643857D02*
X185816667Y-145596238D01*
X185816667Y-145596238D02*
X185864286Y-145548619D01*
X185864286Y-145548619D02*
X185935714Y-145524809D01*
X185935714Y-145524809D02*
X185983333Y-145524809D01*
X185983333Y-145524809D02*
X186054762Y-145548619D01*
X186054762Y-145548619D02*
X186078571Y-145572428D01*
X186245238Y-145524809D02*
X186554762Y-145524809D01*
X186554762Y-145524809D02*
X186388095Y-145715285D01*
X186388095Y-145715285D02*
X186459524Y-145715285D01*
X186459524Y-145715285D02*
X186507143Y-145739095D01*
X186507143Y-145739095D02*
X186530952Y-145762904D01*
X186530952Y-145762904D02*
X186554762Y-145810523D01*
X186554762Y-145810523D02*
X186554762Y-145929571D01*
X186554762Y-145929571D02*
X186530952Y-145977190D01*
X186530952Y-145977190D02*
X186507143Y-146001000D01*
X186507143Y-146001000D02*
X186459524Y-146024809D01*
X186459524Y-146024809D02*
X186316667Y-146024809D01*
X186316667Y-146024809D02*
X186269048Y-146001000D01*
X186269048Y-146001000D02*
X186245238Y-145977190D01*
X186864285Y-145524809D02*
X186911904Y-145524809D01*
X186911904Y-145524809D02*
X186959523Y-145548619D01*
X186959523Y-145548619D02*
X186983333Y-145572428D01*
X186983333Y-145572428D02*
X187007142Y-145620047D01*
X187007142Y-145620047D02*
X187030952Y-145715285D01*
X187030952Y-145715285D02*
X187030952Y-145834333D01*
X187030952Y-145834333D02*
X187007142Y-145929571D01*
X187007142Y-145929571D02*
X186983333Y-145977190D01*
X186983333Y-145977190D02*
X186959523Y-146001000D01*
X186959523Y-146001000D02*
X186911904Y-146024809D01*
X186911904Y-146024809D02*
X186864285Y-146024809D01*
X186864285Y-146024809D02*
X186816666Y-146001000D01*
X186816666Y-146001000D02*
X186792857Y-145977190D01*
X186792857Y-145977190D02*
X186769047Y-145929571D01*
X186769047Y-145929571D02*
X186745238Y-145834333D01*
X186745238Y-145834333D02*
X186745238Y-145715285D01*
X186745238Y-145715285D02*
X186769047Y-145620047D01*
X186769047Y-145620047D02*
X186792857Y-145572428D01*
X186792857Y-145572428D02*
X186816666Y-145548619D01*
X186816666Y-145548619D02*
X186864285Y-145524809D01*
X155778571Y-149877190D02*
X155754762Y-149901000D01*
X155754762Y-149901000D02*
X155683333Y-149924809D01*
X155683333Y-149924809D02*
X155635714Y-149924809D01*
X155635714Y-149924809D02*
X155564286Y-149901000D01*
X155564286Y-149901000D02*
X155516667Y-149853380D01*
X155516667Y-149853380D02*
X155492857Y-149805761D01*
X155492857Y-149805761D02*
X155469048Y-149710523D01*
X155469048Y-149710523D02*
X155469048Y-149639095D01*
X155469048Y-149639095D02*
X155492857Y-149543857D01*
X155492857Y-149543857D02*
X155516667Y-149496238D01*
X155516667Y-149496238D02*
X155564286Y-149448619D01*
X155564286Y-149448619D02*
X155635714Y-149424809D01*
X155635714Y-149424809D02*
X155683333Y-149424809D01*
X155683333Y-149424809D02*
X155754762Y-149448619D01*
X155754762Y-149448619D02*
X155778571Y-149472428D01*
X156254762Y-149924809D02*
X155969048Y-149924809D01*
X156111905Y-149924809D02*
X156111905Y-149424809D01*
X156111905Y-149424809D02*
X156064286Y-149496238D01*
X156064286Y-149496238D02*
X156016667Y-149543857D01*
X156016667Y-149543857D02*
X155969048Y-149567666D01*
X156492857Y-149924809D02*
X156588095Y-149924809D01*
X156588095Y-149924809D02*
X156635714Y-149901000D01*
X156635714Y-149901000D02*
X156659523Y-149877190D01*
X156659523Y-149877190D02*
X156707142Y-149805761D01*
X156707142Y-149805761D02*
X156730952Y-149710523D01*
X156730952Y-149710523D02*
X156730952Y-149520047D01*
X156730952Y-149520047D02*
X156707142Y-149472428D01*
X156707142Y-149472428D02*
X156683333Y-149448619D01*
X156683333Y-149448619D02*
X156635714Y-149424809D01*
X156635714Y-149424809D02*
X156540476Y-149424809D01*
X156540476Y-149424809D02*
X156492857Y-149448619D01*
X156492857Y-149448619D02*
X156469047Y-149472428D01*
X156469047Y-149472428D02*
X156445238Y-149520047D01*
X156445238Y-149520047D02*
X156445238Y-149639095D01*
X156445238Y-149639095D02*
X156469047Y-149686714D01*
X156469047Y-149686714D02*
X156492857Y-149710523D01*
X156492857Y-149710523D02*
X156540476Y-149734333D01*
X156540476Y-149734333D02*
X156635714Y-149734333D01*
X156635714Y-149734333D02*
X156683333Y-149710523D01*
X156683333Y-149710523D02*
X156707142Y-149686714D01*
X156707142Y-149686714D02*
X156730952Y-149639095D01*
X153878571Y-142924809D02*
X153711905Y-142686714D01*
X153592857Y-142924809D02*
X153592857Y-142424809D01*
X153592857Y-142424809D02*
X153783333Y-142424809D01*
X153783333Y-142424809D02*
X153830952Y-142448619D01*
X153830952Y-142448619D02*
X153854762Y-142472428D01*
X153854762Y-142472428D02*
X153878571Y-142520047D01*
X153878571Y-142520047D02*
X153878571Y-142591476D01*
X153878571Y-142591476D02*
X153854762Y-142639095D01*
X153854762Y-142639095D02*
X153830952Y-142662904D01*
X153830952Y-142662904D02*
X153783333Y-142686714D01*
X153783333Y-142686714D02*
X153592857Y-142686714D01*
X154354762Y-142924809D02*
X154069048Y-142924809D01*
X154211905Y-142924809D02*
X154211905Y-142424809D01*
X154211905Y-142424809D02*
X154164286Y-142496238D01*
X154164286Y-142496238D02*
X154116667Y-142543857D01*
X154116667Y-142543857D02*
X154069048Y-142567666D01*
X154783333Y-142424809D02*
X154688095Y-142424809D01*
X154688095Y-142424809D02*
X154640476Y-142448619D01*
X154640476Y-142448619D02*
X154616666Y-142472428D01*
X154616666Y-142472428D02*
X154569047Y-142543857D01*
X154569047Y-142543857D02*
X154545238Y-142639095D01*
X154545238Y-142639095D02*
X154545238Y-142829571D01*
X154545238Y-142829571D02*
X154569047Y-142877190D01*
X154569047Y-142877190D02*
X154592857Y-142901000D01*
X154592857Y-142901000D02*
X154640476Y-142924809D01*
X154640476Y-142924809D02*
X154735714Y-142924809D01*
X154735714Y-142924809D02*
X154783333Y-142901000D01*
X154783333Y-142901000D02*
X154807142Y-142877190D01*
X154807142Y-142877190D02*
X154830952Y-142829571D01*
X154830952Y-142829571D02*
X154830952Y-142710523D01*
X154830952Y-142710523D02*
X154807142Y-142662904D01*
X154807142Y-142662904D02*
X154783333Y-142639095D01*
X154783333Y-142639095D02*
X154735714Y-142615285D01*
X154735714Y-142615285D02*
X154640476Y-142615285D01*
X154640476Y-142615285D02*
X154592857Y-142639095D01*
X154592857Y-142639095D02*
X154569047Y-142662904D01*
X154569047Y-142662904D02*
X154545238Y-142710523D01*
X185330953Y-151162904D02*
X185164286Y-151162904D01*
X185164286Y-151424809D02*
X185164286Y-150924809D01*
X185164286Y-150924809D02*
X185402381Y-150924809D01*
X185830952Y-151424809D02*
X185592857Y-151424809D01*
X185592857Y-151424809D02*
X185592857Y-150924809D01*
X186259524Y-151424809D02*
X185973810Y-151424809D01*
X186116667Y-151424809D02*
X186116667Y-150924809D01*
X186116667Y-150924809D02*
X186069048Y-150996238D01*
X186069048Y-150996238D02*
X186021429Y-151043857D01*
X186021429Y-151043857D02*
X185973810Y-151067666D01*
X182061905Y-115886714D02*
X182061905Y-116124809D01*
X181895239Y-115624809D02*
X182061905Y-115886714D01*
X182061905Y-115886714D02*
X182228572Y-115624809D01*
X182657143Y-116124809D02*
X182371429Y-116124809D01*
X182514286Y-116124809D02*
X182514286Y-115624809D01*
X182514286Y-115624809D02*
X182466667Y-115696238D01*
X182466667Y-115696238D02*
X182419048Y-115743857D01*
X182419048Y-115743857D02*
X182371429Y-115767666D01*
X168278571Y-138277190D02*
X168254762Y-138301000D01*
X168254762Y-138301000D02*
X168183333Y-138324809D01*
X168183333Y-138324809D02*
X168135714Y-138324809D01*
X168135714Y-138324809D02*
X168064286Y-138301000D01*
X168064286Y-138301000D02*
X168016667Y-138253380D01*
X168016667Y-138253380D02*
X167992857Y-138205761D01*
X167992857Y-138205761D02*
X167969048Y-138110523D01*
X167969048Y-138110523D02*
X167969048Y-138039095D01*
X167969048Y-138039095D02*
X167992857Y-137943857D01*
X167992857Y-137943857D02*
X168016667Y-137896238D01*
X168016667Y-137896238D02*
X168064286Y-137848619D01*
X168064286Y-137848619D02*
X168135714Y-137824809D01*
X168135714Y-137824809D02*
X168183333Y-137824809D01*
X168183333Y-137824809D02*
X168254762Y-137848619D01*
X168254762Y-137848619D02*
X168278571Y-137872428D01*
X168754762Y-138324809D02*
X168469048Y-138324809D01*
X168611905Y-138324809D02*
X168611905Y-137824809D01*
X168611905Y-137824809D02*
X168564286Y-137896238D01*
X168564286Y-137896238D02*
X168516667Y-137943857D01*
X168516667Y-137943857D02*
X168469048Y-137967666D01*
X168921428Y-137824809D02*
X169254761Y-137824809D01*
X169254761Y-137824809D02*
X169040476Y-138324809D01*
X172816666Y-126424809D02*
X172650000Y-126186714D01*
X172530952Y-126424809D02*
X172530952Y-125924809D01*
X172530952Y-125924809D02*
X172721428Y-125924809D01*
X172721428Y-125924809D02*
X172769047Y-125948619D01*
X172769047Y-125948619D02*
X172792857Y-125972428D01*
X172792857Y-125972428D02*
X172816666Y-126020047D01*
X172816666Y-126020047D02*
X172816666Y-126091476D01*
X172816666Y-126091476D02*
X172792857Y-126139095D01*
X172792857Y-126139095D02*
X172769047Y-126162904D01*
X172769047Y-126162904D02*
X172721428Y-126186714D01*
X172721428Y-126186714D02*
X172530952Y-126186714D01*
X173245238Y-126091476D02*
X173245238Y-126424809D01*
X173126190Y-125901000D02*
X173007143Y-126258142D01*
X173007143Y-126258142D02*
X173316666Y-126258142D01*
X187369048Y-139376809D02*
X187654762Y-139376809D01*
X187511905Y-139876809D02*
X187511905Y-139376809D01*
X187821428Y-139876809D02*
X187821428Y-139376809D01*
X187821428Y-139376809D02*
X188011904Y-139376809D01*
X188011904Y-139376809D02*
X188059523Y-139400619D01*
X188059523Y-139400619D02*
X188083333Y-139424428D01*
X188083333Y-139424428D02*
X188107142Y-139472047D01*
X188107142Y-139472047D02*
X188107142Y-139543476D01*
X188107142Y-139543476D02*
X188083333Y-139591095D01*
X188083333Y-139591095D02*
X188059523Y-139614904D01*
X188059523Y-139614904D02*
X188011904Y-139638714D01*
X188011904Y-139638714D02*
X187821428Y-139638714D01*
X188297619Y-139424428D02*
X188321428Y-139400619D01*
X188321428Y-139400619D02*
X188369047Y-139376809D01*
X188369047Y-139376809D02*
X188488095Y-139376809D01*
X188488095Y-139376809D02*
X188535714Y-139400619D01*
X188535714Y-139400619D02*
X188559523Y-139424428D01*
X188559523Y-139424428D02*
X188583333Y-139472047D01*
X188583333Y-139472047D02*
X188583333Y-139519666D01*
X188583333Y-139519666D02*
X188559523Y-139591095D01*
X188559523Y-139591095D02*
X188273809Y-139876809D01*
X188273809Y-139876809D02*
X188583333Y-139876809D01*
X151533333Y-139424809D02*
X151533333Y-139781952D01*
X151533333Y-139781952D02*
X151509524Y-139853380D01*
X151509524Y-139853380D02*
X151461905Y-139901000D01*
X151461905Y-139901000D02*
X151390476Y-139924809D01*
X151390476Y-139924809D02*
X151342857Y-139924809D01*
X152009523Y-139424809D02*
X151771428Y-139424809D01*
X151771428Y-139424809D02*
X151747619Y-139662904D01*
X151747619Y-139662904D02*
X151771428Y-139639095D01*
X151771428Y-139639095D02*
X151819047Y-139615285D01*
X151819047Y-139615285D02*
X151938095Y-139615285D01*
X151938095Y-139615285D02*
X151985714Y-139639095D01*
X151985714Y-139639095D02*
X152009523Y-139662904D01*
X152009523Y-139662904D02*
X152033333Y-139710523D01*
X152033333Y-139710523D02*
X152033333Y-139829571D01*
X152033333Y-139829571D02*
X152009523Y-139877190D01*
X152009523Y-139877190D02*
X151985714Y-139901000D01*
X151985714Y-139901000D02*
X151938095Y-139924809D01*
X151938095Y-139924809D02*
X151819047Y-139924809D01*
X151819047Y-139924809D02*
X151771428Y-139901000D01*
X151771428Y-139901000D02*
X151747619Y-139877190D01*
X165116666Y-134877190D02*
X165092857Y-134901000D01*
X165092857Y-134901000D02*
X165021428Y-134924809D01*
X165021428Y-134924809D02*
X164973809Y-134924809D01*
X164973809Y-134924809D02*
X164902381Y-134901000D01*
X164902381Y-134901000D02*
X164854762Y-134853380D01*
X164854762Y-134853380D02*
X164830952Y-134805761D01*
X164830952Y-134805761D02*
X164807143Y-134710523D01*
X164807143Y-134710523D02*
X164807143Y-134639095D01*
X164807143Y-134639095D02*
X164830952Y-134543857D01*
X164830952Y-134543857D02*
X164854762Y-134496238D01*
X164854762Y-134496238D02*
X164902381Y-134448619D01*
X164902381Y-134448619D02*
X164973809Y-134424809D01*
X164973809Y-134424809D02*
X165021428Y-134424809D01*
X165021428Y-134424809D02*
X165092857Y-134448619D01*
X165092857Y-134448619D02*
X165116666Y-134472428D01*
X165283333Y-134424809D02*
X165616666Y-134424809D01*
X165616666Y-134424809D02*
X165402381Y-134924809D01*
X175661905Y-129886714D02*
X175661905Y-130124809D01*
X175495239Y-129624809D02*
X175661905Y-129886714D01*
X175661905Y-129886714D02*
X175828572Y-129624809D01*
X175971429Y-129672428D02*
X175995238Y-129648619D01*
X175995238Y-129648619D02*
X176042857Y-129624809D01*
X176042857Y-129624809D02*
X176161905Y-129624809D01*
X176161905Y-129624809D02*
X176209524Y-129648619D01*
X176209524Y-129648619D02*
X176233333Y-129672428D01*
X176233333Y-129672428D02*
X176257143Y-129720047D01*
X176257143Y-129720047D02*
X176257143Y-129767666D01*
X176257143Y-129767666D02*
X176233333Y-129839095D01*
X176233333Y-129839095D02*
X175947619Y-130124809D01*
X175947619Y-130124809D02*
X176257143Y-130124809D01*
X168827190Y-148521428D02*
X168851000Y-148545237D01*
X168851000Y-148545237D02*
X168874809Y-148616666D01*
X168874809Y-148616666D02*
X168874809Y-148664285D01*
X168874809Y-148664285D02*
X168851000Y-148735713D01*
X168851000Y-148735713D02*
X168803380Y-148783332D01*
X168803380Y-148783332D02*
X168755761Y-148807142D01*
X168755761Y-148807142D02*
X168660523Y-148830951D01*
X168660523Y-148830951D02*
X168589095Y-148830951D01*
X168589095Y-148830951D02*
X168493857Y-148807142D01*
X168493857Y-148807142D02*
X168446238Y-148783332D01*
X168446238Y-148783332D02*
X168398619Y-148735713D01*
X168398619Y-148735713D02*
X168374809Y-148664285D01*
X168374809Y-148664285D02*
X168374809Y-148616666D01*
X168374809Y-148616666D02*
X168398619Y-148545237D01*
X168398619Y-148545237D02*
X168422428Y-148521428D01*
X168422428Y-148330951D02*
X168398619Y-148307142D01*
X168398619Y-148307142D02*
X168374809Y-148259523D01*
X168374809Y-148259523D02*
X168374809Y-148140475D01*
X168374809Y-148140475D02*
X168398619Y-148092856D01*
X168398619Y-148092856D02*
X168422428Y-148069047D01*
X168422428Y-148069047D02*
X168470047Y-148045237D01*
X168470047Y-148045237D02*
X168517666Y-148045237D01*
X168517666Y-148045237D02*
X168589095Y-148069047D01*
X168589095Y-148069047D02*
X168874809Y-148354761D01*
X168874809Y-148354761D02*
X168874809Y-148045237D01*
X168874809Y-147569047D02*
X168874809Y-147854761D01*
X168874809Y-147711904D02*
X168374809Y-147711904D01*
X168374809Y-147711904D02*
X168446238Y-147759523D01*
X168446238Y-147759523D02*
X168493857Y-147807142D01*
X168493857Y-147807142D02*
X168517666Y-147854761D01*
X165816666Y-145424809D02*
X165578571Y-145424809D01*
X165578571Y-145424809D02*
X165578571Y-144924809D01*
X165959524Y-144972428D02*
X165983333Y-144948619D01*
X165983333Y-144948619D02*
X166030952Y-144924809D01*
X166030952Y-144924809D02*
X166150000Y-144924809D01*
X166150000Y-144924809D02*
X166197619Y-144948619D01*
X166197619Y-144948619D02*
X166221428Y-144972428D01*
X166221428Y-144972428D02*
X166245238Y-145020047D01*
X166245238Y-145020047D02*
X166245238Y-145067666D01*
X166245238Y-145067666D02*
X166221428Y-145139095D01*
X166221428Y-145139095D02*
X165935714Y-145424809D01*
X165935714Y-145424809D02*
X166245238Y-145424809D01*
D11*
X177750000Y-117430000D02*
X182250000Y-117430000D01*
X182250000Y-121930000D01*
X177750000Y-121930000D01*
X177750000Y-117430000D01*
D12*
X158600378Y-147840000D02*
X159399622Y-147840000D01*
X158600378Y-148960000D02*
X159399622Y-148960000D01*
X162790000Y-129740580D02*
X162790000Y-129459420D01*
X163810000Y-129740580D02*
X163810000Y-129459420D01*
X158746359Y-135920000D02*
X159053641Y-135920000D01*
X158746359Y-136680000D02*
X159053641Y-136680000D01*
X170150000Y-115000000D02*
X170650000Y-115000000D01*
X170150000Y-115500000D02*
X170150000Y-115000000D01*
X170150000Y-120200000D02*
X170150000Y-119700000D01*
X170650000Y-120200000D02*
X170150000Y-120200000D01*
X172950000Y-115000000D02*
X173450000Y-115000000D01*
X173150000Y-120200000D02*
X172400000Y-120200000D01*
X173450000Y-115000000D02*
X173450000Y-115500000D01*
X173350000Y-120560000D02*
X173350000Y-120200000D01*
X173710000Y-120200000D01*
X173350000Y-120560000D01*
G36*
X173350000Y-120560000D02*
G01*
X173350000Y-120200000D01*
X173710000Y-120200000D01*
X173350000Y-120560000D01*
G37*
D13*
X183260000Y-136354000D02*
X183260000Y-139446000D01*
X183260000Y-139446000D02*
X185540000Y-139446000D01*
X185540000Y-136354000D02*
X183260000Y-136354000D01*
X185540000Y-139446000D02*
X185540000Y-136354000D01*
X186000000Y-138500000D02*
G75*
G02*
X185800000Y-138500000I-100000J0D01*
G01*
X185800000Y-138500000D02*
G75*
G02*
X186000000Y-138500000I100000J0D01*
G01*
X186000000Y-138500000D02*
G75*
G02*
X185800000Y-138500000I-100000J0D01*
G01*
X185800000Y-138500000D02*
G75*
G02*
X186000000Y-138500000I100000J0D01*
G01*
D12*
X173740000Y-130792164D02*
X173740000Y-131007836D01*
X174460000Y-130792164D02*
X174460000Y-131007836D01*
X188215000Y-150085000D02*
X188215000Y-148715000D01*
X188215000Y-150085000D02*
X189385000Y-150085000D01*
X188415000Y-148515000D02*
X189385000Y-148515000D01*
X189385000Y-150085000D02*
X189385000Y-148515000D01*
D11*
X188200000Y-148500000D02*
X187840000Y-148500000D01*
X188200000Y-148140000D01*
X188200000Y-148500000D01*
G36*
X188200000Y-148500000D02*
G01*
X187840000Y-148500000D01*
X188200000Y-148140000D01*
X188200000Y-148500000D01*
G37*
D12*
X176700000Y-142250000D02*
X176700000Y-145550000D01*
X179500000Y-142250000D02*
X176700000Y-142250000D01*
X159620000Y-144053641D02*
X159620000Y-143746359D01*
X160380000Y-144053641D02*
X160380000Y-143746359D01*
X176507836Y-149540000D02*
X176292164Y-149540000D01*
X176507836Y-150260000D02*
X176292164Y-150260000D01*
X158046359Y-144620000D02*
X158353641Y-144620000D01*
X158046359Y-145380000D02*
X158353641Y-145380000D01*
X176507836Y-150640000D02*
X176292164Y-150640000D01*
X176507836Y-151360000D02*
X176292164Y-151360000D01*
X166815580Y-121690000D02*
X166534420Y-121690000D01*
X166815580Y-122710000D02*
X166534420Y-122710000D01*
X168218200Y-135645000D02*
X168218200Y-133000000D01*
X168863200Y-132355000D02*
X171018200Y-132355000D01*
X171018200Y-132355000D02*
X171018200Y-135645000D01*
X171018200Y-135645000D02*
X168218200Y-135645000D01*
X168218200Y-132355000D02*
X167718200Y-132355000D01*
X168218200Y-131855000D01*
X168218200Y-132355000D01*
G36*
X168218200Y-132355000D02*
G01*
X167718200Y-132355000D01*
X168218200Y-131855000D01*
X168218200Y-132355000D01*
G37*
X162253641Y-142220000D02*
X161946359Y-142220000D01*
X162253641Y-142980000D02*
X161946359Y-142980000D01*
X159800000Y-129800000D02*
G75*
G02*
X158400000Y-129800000I-700000J0D01*
G01*
X158400000Y-129800000D02*
G75*
G02*
X159800000Y-129800000I700000J0D01*
G01*
X162353641Y-139620000D02*
X162046359Y-139620000D01*
X162353641Y-140380000D02*
X162046359Y-140380000D01*
X192500000Y-148000000D02*
X192700000Y-147800000D01*
X192500000Y-148600000D02*
X192000000Y-148600000D01*
X192500000Y-148600000D02*
X192500000Y-148000000D01*
X192500000Y-150000000D02*
X192000000Y-150000000D01*
X192500000Y-150800000D02*
X192500000Y-150000000D01*
X192700000Y-150800000D02*
X192500000Y-150800000D01*
X195300000Y-147800000D02*
X195500000Y-147800000D01*
X195500000Y-147800000D02*
X195500000Y-148600000D01*
X195500000Y-150000000D02*
X195500000Y-150800000D01*
X195500000Y-150800000D02*
X195300000Y-150800000D01*
X191370000Y-139080000D02*
X191370000Y-126320000D01*
X194030000Y-126320000D02*
X191370000Y-126320000D01*
X194030000Y-139080000D02*
X191370000Y-139080000D01*
X194030000Y-139080000D02*
X194030000Y-126320000D01*
X194030000Y-140350000D02*
X194030000Y-141680000D01*
X194030000Y-141680000D02*
X192700000Y-141680000D01*
X190292164Y-148940000D02*
X190507836Y-148940000D01*
X190292164Y-149660000D02*
X190507836Y-149660000D01*
X163440000Y-140000000D02*
X163440000Y-139200000D01*
X163440000Y-140000000D02*
X163440000Y-140800000D01*
X166560000Y-140000000D02*
X166560000Y-139200000D01*
X166560000Y-140000000D02*
X166560000Y-140800000D01*
X166840000Y-138940000D02*
X166510000Y-138700000D01*
X166840000Y-138460000D01*
X166840000Y-138940000D01*
G36*
X166840000Y-138940000D02*
G01*
X166510000Y-138700000D01*
X166840000Y-138460000D01*
X166840000Y-138940000D01*
G37*
X164390000Y-129740580D02*
X164390000Y-129459420D01*
X165410000Y-129740580D02*
X165410000Y-129459420D01*
X163946359Y-121520000D02*
X164253641Y-121520000D01*
X163946359Y-122280000D02*
X164253641Y-122280000D01*
X184507836Y-145640000D02*
X184292164Y-145640000D01*
X184507836Y-146360000D02*
X184292164Y-146360000D01*
D14*
X151667900Y-122628400D02*
X151667900Y-125371600D01*
X151667900Y-125371600D02*
X152011659Y-125371600D01*
X153488338Y-125371600D02*
X155511662Y-125371600D01*
X153761660Y-122628400D02*
X151667900Y-122628400D01*
X156988341Y-125371600D02*
X157332100Y-125371600D01*
X157332100Y-122628400D02*
X155238340Y-122628400D01*
X157332100Y-125371600D02*
X157332100Y-122628400D01*
X152826200Y-127407499D02*
G75*
G02*
X152673800Y-127407499I-76200J0D01*
G01*
X152673800Y-127407499D02*
G75*
G02*
X152826200Y-127407499I76200J0D01*
G01*
D12*
X178207836Y-141240000D02*
X177992164Y-141240000D01*
X178207836Y-141960000D02*
X177992164Y-141960000D01*
X181940000Y-144707836D02*
X181940000Y-144492164D01*
X182660000Y-144707836D02*
X182660000Y-144492164D01*
D15*
X189535420Y-117231900D02*
X194464580Y-117231900D01*
X194464580Y-114768100D02*
X189535420Y-114768100D01*
X187093901Y-116000000D02*
G75*
G02*
X186941501Y-116000000I-76200J0D01*
G01*
X186941501Y-116000000D02*
G75*
G02*
X187093901Y-116000000I76200J0D01*
G01*
D12*
X173240000Y-138192164D02*
X173240000Y-138407836D01*
X173960000Y-138192164D02*
X173960000Y-138407836D01*
X172620000Y-122753641D02*
X172620000Y-122446359D01*
X173380000Y-122753641D02*
X173380000Y-122446359D01*
X189720000Y-147353641D02*
X189720000Y-147046359D01*
X190480000Y-147353641D02*
X190480000Y-147046359D01*
X160000000Y-132440000D02*
X159200000Y-132440000D01*
X160000000Y-132440000D02*
X160800000Y-132440000D01*
X160000000Y-135560000D02*
X159200000Y-135560000D01*
X160000000Y-135560000D02*
X160800000Y-135560000D01*
X161540000Y-135840000D02*
X161060000Y-135840000D01*
X161300000Y-135510000D01*
X161540000Y-135840000D01*
G36*
X161540000Y-135840000D02*
G01*
X161060000Y-135840000D01*
X161300000Y-135510000D01*
X161540000Y-135840000D01*
G37*
X165620000Y-142946359D02*
X165620000Y-143253641D01*
X166380000Y-142946359D02*
X166380000Y-143253641D01*
X177220000Y-135153641D02*
X177220000Y-134846359D01*
X177980000Y-135153641D02*
X177980000Y-134846359D01*
X153000000Y-141035000D02*
X155285000Y-141035000D01*
X155285000Y-139565000D02*
X153000000Y-139565000D01*
X155285000Y-141035000D02*
X155285000Y-139565000D01*
X153453641Y-127520000D02*
X153146359Y-127520000D01*
X153453641Y-128280000D02*
X153146359Y-128280000D01*
X161490000Y-137759420D02*
X161490000Y-138040580D01*
X162510000Y-137759420D02*
X162510000Y-138040580D01*
X172640000Y-130707836D02*
X172640000Y-130492164D01*
X173360000Y-130707836D02*
X173360000Y-130492164D01*
X182007836Y-136240000D02*
X181792164Y-136240000D01*
X182007836Y-136960000D02*
X181792164Y-136960000D01*
D14*
X154167900Y-117070700D02*
X154167900Y-119813900D01*
X154167900Y-119813900D02*
X156261660Y-119813900D01*
X154511659Y-117070700D02*
X154167900Y-117070700D01*
X157738340Y-119813900D02*
X159832100Y-119813900D01*
X158011662Y-117070700D02*
X155988338Y-117070700D01*
X159832100Y-117070700D02*
X159488341Y-117070700D01*
X159832100Y-119813900D02*
X159832100Y-117070700D01*
X158826200Y-115034801D02*
G75*
G02*
X158673800Y-115034801I-76200J0D01*
G01*
X158673800Y-115034801D02*
G75*
G02*
X158826200Y-115034801I76200J0D01*
G01*
D12*
X169640000Y-121792164D02*
X169640000Y-122007836D01*
X170360000Y-121792164D02*
X170360000Y-122007836D01*
X176440000Y-117587836D02*
X176440000Y-117372164D01*
X177160000Y-117587836D02*
X177160000Y-117372164D01*
D14*
X156870599Y-140723001D02*
X156870599Y-140942662D01*
X156870599Y-142857340D02*
X156870599Y-143077001D01*
X156870599Y-143077001D02*
X159224599Y-143077001D01*
X159224599Y-140723001D02*
X156870599Y-140723001D01*
X159224599Y-140942662D02*
X159224599Y-140723001D01*
X159224599Y-143077001D02*
X159224599Y-142857340D01*
X156360058Y-141473829D02*
G75*
G02*
X156360058Y-141326173I-18859J73828D01*
G01*
D12*
X163265000Y-149038748D02*
X163265000Y-149561252D01*
X164735000Y-149038748D02*
X164735000Y-149561252D01*
X156092164Y-144740000D02*
X156307836Y-144740000D01*
X156092164Y-145460000D02*
X156307836Y-145460000D01*
X183290000Y-143740580D02*
X183290000Y-143459420D01*
X184310000Y-143740580D02*
X184310000Y-143459420D01*
X188640000Y-147307836D02*
X188640000Y-147092164D01*
X189360000Y-147307836D02*
X189360000Y-147092164D01*
X172140000Y-136292164D02*
X172140000Y-136507836D01*
X172860000Y-136292164D02*
X172860000Y-136507836D01*
X183446359Y-121300000D02*
X183753641Y-121300000D01*
X183446359Y-122060000D02*
X183753641Y-122060000D01*
X156046359Y-143620000D02*
X156353641Y-143620000D01*
X156046359Y-144380000D02*
X156353641Y-144380000D01*
X173740000Y-132692164D02*
X173740000Y-132907836D01*
X174460000Y-132692164D02*
X174460000Y-132907836D01*
D14*
X166817911Y-142425400D02*
X166817911Y-143974800D01*
X169281711Y-143974800D02*
X169281711Y-142425400D01*
X168901600Y-141493474D02*
G75*
G02*
X168698400Y-141493474I-101600J0D01*
G01*
X168698400Y-141493474D02*
G75*
G02*
X168901600Y-141493474I101600J0D01*
G01*
D12*
X160946359Y-131320000D02*
X161253641Y-131320000D01*
X160946359Y-132080000D02*
X161253641Y-132080000D01*
X152520000Y-120953641D02*
X152520000Y-120646359D01*
X153280000Y-120953641D02*
X153280000Y-120646359D01*
X179820000Y-145346359D02*
X179820000Y-145653641D01*
X180580000Y-145346359D02*
X180580000Y-145653641D01*
X159030000Y-127430000D02*
X159030000Y-126100000D01*
X160360000Y-127430000D02*
X159030000Y-127430000D01*
X161630000Y-124770000D02*
X169310000Y-124770000D01*
X161630000Y-127430000D02*
X161630000Y-124770000D01*
X161630000Y-127430000D02*
X169310000Y-127430000D01*
X169310000Y-127430000D02*
X169310000Y-124770000D01*
X179140000Y-147027500D02*
X179615000Y-147027500D01*
X179140000Y-147502500D02*
X179140000Y-147027500D01*
X179140000Y-150772500D02*
X179140000Y-151247500D01*
X179140000Y-151247500D02*
X179615000Y-151247500D01*
X182885000Y-147027500D02*
X183120000Y-147027500D01*
X183360000Y-147502500D02*
X183360000Y-147327500D01*
X183360000Y-150772500D02*
X183360000Y-151247500D01*
X183360000Y-151247500D02*
X182885000Y-151247500D01*
X183690000Y-147267500D02*
X183360000Y-147027500D01*
X183690000Y-146787500D01*
X183690000Y-147267500D01*
G36*
X183690000Y-147267500D02*
G01*
X183360000Y-147027500D01*
X183690000Y-146787500D01*
X183690000Y-147267500D01*
G37*
X177040000Y-147100378D02*
X177040000Y-147899622D01*
X178160000Y-147100378D02*
X178160000Y-147899622D01*
X161946359Y-143220000D02*
X162253641Y-143220000D01*
X161946359Y-143980000D02*
X162253641Y-143980000D01*
X174270000Y-120370000D02*
X175600000Y-120370000D01*
X174270000Y-121700000D02*
X174270000Y-120370000D01*
X174270000Y-122970000D02*
X174270000Y-125570000D01*
X174270000Y-122970000D02*
X176930000Y-122970000D01*
X174270000Y-125570000D02*
X176930000Y-125570000D01*
X176930000Y-122970000D02*
X176930000Y-125570000D01*
D14*
X157334800Y-145839600D02*
X157334800Y-147160400D01*
X159265200Y-147160400D02*
X159265200Y-145839600D01*
D12*
X161165000Y-149038748D02*
X161165000Y-149561252D01*
X162635000Y-149038748D02*
X162635000Y-149561252D01*
X158046359Y-143520000D02*
X158353641Y-143520000D01*
X158046359Y-144280000D02*
X158353641Y-144280000D01*
X164800000Y-143100000D02*
G75*
G02*
X163400000Y-143100000I-700000J0D01*
G01*
X163400000Y-143100000D02*
G75*
G02*
X164800000Y-143100000I700000J0D01*
G01*
X182720000Y-120333641D02*
X182720000Y-120026359D01*
X183480000Y-120333641D02*
X183480000Y-120026359D01*
X170120000Y-126546359D02*
X170120000Y-126853641D01*
X170880000Y-126546359D02*
X170880000Y-126853641D01*
X158540000Y-137900000D02*
X158540000Y-139300000D01*
X160860000Y-137890000D02*
X160860000Y-139300000D01*
X161140000Y-137760000D02*
X160810000Y-137520000D01*
X161140000Y-137280000D01*
X161140000Y-137760000D01*
G36*
X161140000Y-137760000D02*
G01*
X160810000Y-137520000D01*
X161140000Y-137280000D01*
X161140000Y-137760000D01*
G37*
X188707836Y-150840000D02*
X188492164Y-150840000D01*
X188707836Y-151560000D02*
X188492164Y-151560000D01*
X180940000Y-145392164D02*
X180940000Y-145607836D01*
X181660000Y-145392164D02*
X181660000Y-145607836D01*
X177240000Y-137387836D02*
X177240000Y-137172164D01*
X177960000Y-137387836D02*
X177960000Y-137172164D01*
X177240000Y-132107836D02*
X177240000Y-131892164D01*
X177960000Y-132107836D02*
X177960000Y-131892164D01*
X164359420Y-136590000D02*
X164640580Y-136590000D01*
X164359420Y-137610000D02*
X164640580Y-137610000D01*
X174490000Y-135880000D02*
X174490000Y-136520000D01*
X175760000Y-137560000D02*
X175430000Y-137560000D01*
X175770000Y-134840000D02*
X175430000Y-134840000D01*
X175980000Y-137760000D02*
X176670000Y-137760000D01*
X176710000Y-135880000D02*
X176710000Y-136520000D01*
X175980000Y-137759999D02*
G75*
G02*
X175760000Y-137560000I90001J320001D01*
G01*
X171640581Y-137690000D02*
X171359419Y-137690000D01*
X171640581Y-138710000D02*
X171359419Y-138710000D01*
D14*
X160528000Y-115433000D02*
X160528000Y-120767000D01*
X169672000Y-120767000D02*
X169672000Y-115433000D01*
D16*
X169005000Y-121850000D02*
G75*
G02*
X168695000Y-121850000I-155000J0D01*
G01*
X168695000Y-121850000D02*
G75*
G02*
X169005000Y-121850000I155000J0D01*
G01*
D17*
G36*
X163957000Y-120958699D02*
G01*
X163703000Y-120958699D01*
X163703000Y-120577699D01*
X163957000Y-120577699D01*
X163957000Y-120958699D01*
G37*
D12*
X157053641Y-139520000D02*
X156746359Y-139520000D01*
X157053641Y-140280000D02*
X156746359Y-140280000D01*
X186292164Y-146340000D02*
X186507836Y-146340000D01*
X186292164Y-147060000D02*
X186507836Y-147060000D01*
X155365000Y-147138748D02*
X155365000Y-147661252D01*
X156835000Y-147138748D02*
X156835000Y-147661252D01*
X153453641Y-141320000D02*
X153146359Y-141320000D01*
X153453641Y-142080000D02*
X153146359Y-142080000D01*
X161559420Y-140790000D02*
X161840580Y-140790000D01*
X161559420Y-141810000D02*
X161840580Y-141810000D01*
X186290000Y-150110000D02*
X185965000Y-150110000D01*
X187110000Y-147890000D02*
X187435000Y-147890000D01*
X187110000Y-150110000D02*
X187435000Y-150110000D01*
X185960000Y-147880000D02*
X185720000Y-147550000D01*
X186200000Y-147550000D01*
X185960000Y-147880000D01*
G36*
X185960000Y-147880000D02*
G01*
X185720000Y-147550000D01*
X186200000Y-147550000D01*
X185960000Y-147880000D01*
G37*
X179025000Y-115005000D02*
X180375000Y-115005000D01*
X179025000Y-116755000D02*
X180375000Y-116755000D01*
X167090000Y-140240580D02*
X167090000Y-139959420D01*
X168110000Y-140240580D02*
X168110000Y-139959420D01*
X172520000Y-124953641D02*
X172520000Y-124646359D01*
X173280000Y-124953641D02*
X173280000Y-124646359D01*
X188700000Y-141100000D02*
G75*
G02*
X187300000Y-141100000I-700000J0D01*
G01*
X187300000Y-141100000D02*
G75*
G02*
X188700000Y-141100000I700000J0D01*
G01*
X153100000Y-129330000D02*
X154800000Y-129330000D01*
X153100000Y-138670000D02*
X154800000Y-138670000D01*
X166407836Y-135140000D02*
X166192164Y-135140000D01*
X166407836Y-135860000D02*
X166192164Y-135860000D01*
X175025000Y-133075000D02*
X175025000Y-131725000D01*
X176775000Y-133075000D02*
X176775000Y-131725000D01*
X165890000Y-147488748D02*
X165890000Y-148911252D01*
X167710000Y-147488748D02*
X167710000Y-148911252D01*
X162497936Y-144440000D02*
X163702064Y-144440000D01*
X162497936Y-147160000D02*
X163702064Y-147160000D01*
%LPC*%
D18*
X180491527Y-126644533D02*
X180424156Y-126695843D01*
X180561978Y-126587088D02*
X180491527Y-126644533D01*
X180602381Y-126552370D02*
X180561978Y-126587088D01*
X180644706Y-126514399D02*
X180602381Y-126552370D01*
X180687807Y-126473732D02*
X180644706Y-126514399D01*
X180730536Y-126430927D02*
X180687807Y-126473732D01*
X180771747Y-126386541D02*
X180730536Y-126430927D01*
X180810293Y-126341134D02*
X180771747Y-126386541D01*
X180845027Y-126295261D02*
X180810293Y-126341134D01*
X180860606Y-126272325D02*
X180845027Y-126295261D01*
X180874801Y-126249482D02*
X180860606Y-126272325D01*
X180887471Y-126226801D02*
X180874801Y-126249482D01*
X180898470Y-126204353D02*
X180887471Y-126226801D01*
X180907657Y-126182207D02*
X180898470Y-126204353D01*
X180914886Y-126160432D02*
X180907657Y-126182207D01*
X180914886Y-126160432D02*
X180914886Y-126160432D01*
X180924460Y-126122173D02*
X180914886Y-126160432D01*
X180932641Y-126079625D02*
X180924460Y-126122173D01*
X180939589Y-126033495D02*
X180932641Y-126079625D01*
X180945458Y-125984494D02*
X180939589Y-126033495D01*
X180954588Y-125880717D02*
X180945458Y-125984494D01*
X180961286Y-125773969D02*
X180954588Y-125880717D01*
X180972398Y-125574258D02*
X180961286Y-125773969D01*
X180979318Y-125492646D02*
X180972398Y-125574258D01*
X180983667Y-125458885D02*
X180979318Y-125492646D01*
X180988819Y-125430764D02*
X180983667Y-125458885D01*
X180988819Y-125430764D02*
X180988819Y-125430764D01*
X180993513Y-125411038D02*
X180988819Y-125430764D01*
X180998664Y-125391701D02*
X180993513Y-125411038D01*
X181004232Y-125372769D02*
X180998664Y-125391701D01*
X181010176Y-125354256D02*
X181004232Y-125372769D01*
X181016458Y-125336180D02*
X181010176Y-125354256D01*
X181023038Y-125318555D02*
X181016458Y-125336180D01*
X181029875Y-125301397D02*
X181023038Y-125318555D01*
X181036930Y-125284721D02*
X181029875Y-125301397D01*
X181044164Y-125268544D02*
X181036930Y-125284721D01*
X181051536Y-125252880D02*
X181044164Y-125268544D01*
X181059008Y-125237745D02*
X181051536Y-125252880D01*
X181066539Y-125223154D02*
X181059008Y-125237745D01*
X181081620Y-125195670D02*
X181066539Y-125223154D01*
X181096462Y-125170550D02*
X181081620Y-125195670D01*
X181110747Y-125147920D02*
X181096462Y-125170550D01*
X181124158Y-125127904D02*
X181110747Y-125147920D01*
X181136377Y-125110626D02*
X181124158Y-125127904D01*
X181147087Y-125096210D02*
X181136377Y-125110626D01*
X181162707Y-125076464D02*
X181147087Y-125096210D01*
X181168479Y-125069661D02*
X181162707Y-125076464D01*
D19*
X181380696Y-124828149D02*
X181318445Y-125200418D01*
X180982712Y-125054236D01*
X181212828Y-124755045D01*
X181380696Y-124828149D01*
G36*
X181380696Y-124828149D02*
G01*
X181318445Y-125200418D01*
X180982712Y-125054236D01*
X181212828Y-124755045D01*
X181380696Y-124828149D01*
G37*
X181920615Y-122352528D02*
X181947484Y-122353595D01*
X181974371Y-122355335D01*
X182001261Y-122357752D01*
X182028145Y-122360852D01*
X182055010Y-122364640D01*
X182081845Y-122369120D01*
X182108638Y-122374298D01*
X182135377Y-122380178D01*
X182162051Y-122386766D01*
X182188648Y-122394066D01*
X182215156Y-122402084D01*
X182241564Y-122410823D01*
X182267860Y-122420290D01*
X182294033Y-122430489D01*
X182320070Y-122441426D01*
X182371114Y-122465247D01*
X182420353Y-122491422D01*
X182467754Y-122519857D01*
X182513279Y-122550457D01*
X182556893Y-122583129D01*
X182598561Y-122617777D01*
X182638245Y-122654309D01*
X182675912Y-122692629D01*
X182711524Y-122732644D01*
X182745047Y-122774259D01*
X182776443Y-122817380D01*
X182805679Y-122861913D01*
X182832717Y-122907763D01*
X182857522Y-122954837D01*
X182880059Y-123003041D01*
X182900291Y-123052279D01*
X182918183Y-123102458D01*
X182933699Y-123153484D01*
X182946803Y-123205262D01*
X182957460Y-123257699D01*
X182965633Y-123310700D01*
X182971287Y-123364170D01*
X182974386Y-123418016D01*
X182974895Y-123472144D01*
X182972777Y-123526458D01*
X182967997Y-123580866D01*
X182960520Y-123635273D01*
X182950308Y-123689584D01*
X182937327Y-123743706D01*
X182921541Y-123797544D01*
X182902914Y-123851004D01*
X182881410Y-123903992D01*
X182829726Y-124008921D01*
X182765912Y-124114975D01*
X182691147Y-124220649D01*
X182606614Y-124324439D01*
X182513493Y-124424841D01*
X182412966Y-124520351D01*
X182306214Y-124609465D01*
X182194419Y-124690679D01*
X182078762Y-124762490D01*
X182019854Y-124794398D01*
X181960424Y-124823392D01*
X181900619Y-124849282D01*
X181840587Y-124871882D01*
X181780475Y-124891002D01*
X181720431Y-124906456D01*
X181660604Y-124918054D01*
X181601139Y-124925609D01*
X181542186Y-124928934D01*
X181483891Y-124927839D01*
X181426403Y-124922137D01*
X181369870Y-124911641D01*
X181314437Y-124896161D01*
X181260255Y-124875510D01*
X181208227Y-124849914D01*
X181159133Y-124819880D01*
X181112935Y-124785645D01*
X181069598Y-124747445D01*
X181029084Y-124705516D01*
X180991356Y-124660095D01*
X180956376Y-124611417D01*
X180924109Y-124559719D01*
X180894516Y-124505237D01*
X180867561Y-124448207D01*
X180821417Y-124327447D01*
X180785380Y-124199329D01*
X180759155Y-124065743D01*
X180742444Y-123928577D01*
X180734953Y-123789722D01*
X180736384Y-123651065D01*
X180746442Y-123514497D01*
X180764830Y-123381907D01*
X180791253Y-123255185D01*
X180825414Y-123136218D01*
X180867018Y-123026898D01*
X180904097Y-122949804D01*
X180946259Y-122876768D01*
X180993188Y-122807919D01*
X181044568Y-122743384D01*
X181100087Y-122683291D01*
X181159427Y-122627770D01*
X181222275Y-122576948D01*
X181288316Y-122530952D01*
X181357233Y-122489911D01*
X181428714Y-122453954D01*
X181502442Y-122423208D01*
X181578103Y-122397801D01*
X181655381Y-122377862D01*
X181733962Y-122363518D01*
X181813531Y-122354897D01*
X181893773Y-122352129D01*
X181920615Y-122352528D01*
G36*
X181920615Y-122352528D02*
G01*
X181947484Y-122353595D01*
X181974371Y-122355335D01*
X182001261Y-122357752D01*
X182028145Y-122360852D01*
X182055010Y-122364640D01*
X182081845Y-122369120D01*
X182108638Y-122374298D01*
X182135377Y-122380178D01*
X182162051Y-122386766D01*
X182188648Y-122394066D01*
X182215156Y-122402084D01*
X182241564Y-122410823D01*
X182267860Y-122420290D01*
X182294033Y-122430489D01*
X182320070Y-122441426D01*
X182371114Y-122465247D01*
X182420353Y-122491422D01*
X182467754Y-122519857D01*
X182513279Y-122550457D01*
X182556893Y-122583129D01*
X182598561Y-122617777D01*
X182638245Y-122654309D01*
X182675912Y-122692629D01*
X182711524Y-122732644D01*
X182745047Y-122774259D01*
X182776443Y-122817380D01*
X182805679Y-122861913D01*
X182832717Y-122907763D01*
X182857522Y-122954837D01*
X182880059Y-123003041D01*
X182900291Y-123052279D01*
X182918183Y-123102458D01*
X182933699Y-123153484D01*
X182946803Y-123205262D01*
X182957460Y-123257699D01*
X182965633Y-123310700D01*
X182971287Y-123364170D01*
X182974386Y-123418016D01*
X182974895Y-123472144D01*
X182972777Y-123526458D01*
X182967997Y-123580866D01*
X182960520Y-123635273D01*
X182950308Y-123689584D01*
X182937327Y-123743706D01*
X182921541Y-123797544D01*
X182902914Y-123851004D01*
X182881410Y-123903992D01*
X182829726Y-124008921D01*
X182765912Y-124114975D01*
X182691147Y-124220649D01*
X182606614Y-124324439D01*
X182513493Y-124424841D01*
X182412966Y-124520351D01*
X182306214Y-124609465D01*
X182194419Y-124690679D01*
X182078762Y-124762490D01*
X182019854Y-124794398D01*
X181960424Y-124823392D01*
X181900619Y-124849282D01*
X181840587Y-124871882D01*
X181780475Y-124891002D01*
X181720431Y-124906456D01*
X181660604Y-124918054D01*
X181601139Y-124925609D01*
X181542186Y-124928934D01*
X181483891Y-124927839D01*
X181426403Y-124922137D01*
X181369870Y-124911641D01*
X181314437Y-124896161D01*
X181260255Y-124875510D01*
X181208227Y-124849914D01*
X181159133Y-124819880D01*
X181112935Y-124785645D01*
X181069598Y-124747445D01*
X181029084Y-124705516D01*
X180991356Y-124660095D01*
X180956376Y-124611417D01*
X180924109Y-124559719D01*
X180894516Y-124505237D01*
X180867561Y-124448207D01*
X180821417Y-124327447D01*
X180785380Y-124199329D01*
X180759155Y-124065743D01*
X180742444Y-123928577D01*
X180734953Y-123789722D01*
X180736384Y-123651065D01*
X180746442Y-123514497D01*
X180764830Y-123381907D01*
X180791253Y-123255185D01*
X180825414Y-123136218D01*
X180867018Y-123026898D01*
X180904097Y-122949804D01*
X180946259Y-122876768D01*
X180993188Y-122807919D01*
X181044568Y-122743384D01*
X181100087Y-122683291D01*
X181159427Y-122627770D01*
X181222275Y-122576948D01*
X181288316Y-122530952D01*
X181357233Y-122489911D01*
X181428714Y-122453954D01*
X181502442Y-122423208D01*
X181578103Y-122397801D01*
X181655381Y-122377862D01*
X181733962Y-122363518D01*
X181813531Y-122354897D01*
X181893773Y-122352129D01*
X181920615Y-122352528D01*
G37*
D20*
X178000000Y-117680000D03*
X178500000Y-117680000D03*
X179000000Y-117680000D03*
X179500000Y-117680000D03*
X180000000Y-117680000D03*
X180500000Y-117680000D03*
X181000000Y-117680000D03*
X181500000Y-117680000D03*
X182010711Y-117668389D03*
X178000000Y-118180000D03*
X178500000Y-118180000D03*
X181500000Y-118180000D03*
X182000000Y-118180000D03*
X178000000Y-118680000D03*
X179000000Y-118680000D03*
X179500000Y-118680000D03*
X180000000Y-118680000D03*
X180500000Y-118680000D03*
X181000000Y-118680000D03*
X182000000Y-118680000D03*
X178000000Y-119180000D03*
X178500000Y-119180000D03*
X182000000Y-119180000D03*
X178000000Y-119680000D03*
X178500000Y-119680000D03*
X179000000Y-119680000D03*
X179500000Y-119680000D03*
X181000000Y-119680000D03*
X182000000Y-119680000D03*
X178000000Y-120180000D03*
X179000000Y-120180000D03*
X179500000Y-120180000D03*
X181000000Y-120180000D03*
X182000000Y-120180000D03*
X178000000Y-120680000D03*
X179000000Y-120680000D03*
X179500000Y-120680000D03*
X180000000Y-120680000D03*
X180500000Y-120680000D03*
X181000000Y-120680000D03*
X182000000Y-120680000D03*
X178000000Y-121180000D03*
X181500000Y-121180000D03*
X182000000Y-121180000D03*
X178000000Y-121680000D03*
X178500000Y-121680000D03*
X179000000Y-121680000D03*
X179500000Y-121680000D03*
X180000000Y-121680000D03*
X180500000Y-121680000D03*
X181000000Y-121680000D03*
X181500000Y-121680000D03*
X182000000Y-121680000D03*
D21*
X157937500Y-148400000D03*
X160062500Y-148400000D03*
D22*
X163300000Y-130375000D03*
X163300000Y-128825000D03*
D23*
X158390000Y-136300000D03*
X159410000Y-136300000D03*
D24*
X172875000Y-119475000D03*
X172875000Y-118225000D03*
X172875000Y-116975000D03*
X172875000Y-115725000D03*
X170725000Y-115725000D03*
X170725000Y-116975000D03*
X170725000Y-118225000D03*
X170725000Y-119475000D03*
D25*
X184800000Y-138500000D03*
X184000000Y-138500000D03*
X184400000Y-138200000D03*
X184800000Y-137900000D03*
X184000000Y-137900000D03*
X184400000Y-137600000D03*
X184800000Y-137300000D03*
X184000000Y-137300000D03*
D26*
X174100000Y-130420000D03*
X174100000Y-131380000D03*
D27*
X188600000Y-148900000D03*
X188600000Y-149300000D03*
X188600000Y-149700000D03*
X189000000Y-149700000D03*
X189000000Y-149300000D03*
X189000000Y-148900000D03*
D28*
X177400000Y-143025000D03*
X177400000Y-144775000D03*
X178800000Y-144775000D03*
X178800000Y-143025000D03*
D29*
X160000000Y-144410000D03*
X160000000Y-143390000D03*
D30*
X176880000Y-149900000D03*
X175920000Y-149900000D03*
D23*
X157690000Y-145000000D03*
X158710000Y-145000000D03*
D30*
X176880000Y-151000000D03*
X175920000Y-151000000D03*
D31*
X167450000Y-122200000D03*
X165900000Y-122200000D03*
D32*
X168618200Y-133000000D03*
X169018200Y-133000000D03*
X169418200Y-133000000D03*
X169818200Y-133000000D03*
X170218200Y-133000000D03*
X170618200Y-133000000D03*
X168618200Y-133400000D03*
X169018200Y-133400000D03*
X169418200Y-133400000D03*
X169818200Y-133400000D03*
X170218200Y-133400000D03*
X170618200Y-133400000D03*
X168618200Y-133800000D03*
X169018200Y-133800000D03*
X169418200Y-133800000D03*
X169818200Y-133800000D03*
X170218200Y-133800000D03*
X170618200Y-133800000D03*
X168618200Y-134200000D03*
X169018200Y-134200000D03*
X169418200Y-134200000D03*
X169818200Y-134200000D03*
X170218200Y-134200000D03*
X170618200Y-134200000D03*
X168618200Y-134600000D03*
X169018200Y-134600000D03*
X169418200Y-134600000D03*
X169818200Y-134600000D03*
X170218200Y-134600000D03*
X170618200Y-134600000D03*
X168618200Y-135000000D03*
X169018200Y-135000000D03*
X169418200Y-135000000D03*
X169818200Y-135000000D03*
X170218200Y-135000000D03*
X170618200Y-135000000D03*
D33*
X162610000Y-142600000D03*
X161590000Y-142600000D03*
D34*
X159100000Y-129800000D03*
D33*
X162710000Y-140000000D03*
X161690000Y-140000000D03*
D35*
X192500000Y-149300000D03*
D36*
X194000000Y-147825000D03*
D35*
X195500000Y-149300000D03*
D36*
X194000000Y-150775000D03*
D37*
X192700000Y-140350000D03*
D38*
X192700000Y-137810000D03*
X192700000Y-135270000D03*
X192700000Y-132730000D03*
X192700000Y-130190000D03*
X192700000Y-127650000D03*
D39*
X189920000Y-149300000D03*
X190880000Y-149300000D03*
D40*
X165950000Y-138862500D03*
X165000000Y-138862500D03*
X164050000Y-138862500D03*
X164050000Y-141137500D03*
X165950000Y-141137500D03*
D22*
X164900000Y-130375000D03*
X164900000Y-128825000D03*
D23*
X163590000Y-121900000D03*
X164610000Y-121900000D03*
D30*
X184880000Y-146000000D03*
X183920000Y-146000000D03*
D41*
X152749998Y-125942300D03*
X156250002Y-125942300D03*
X154500000Y-122057700D03*
D30*
X178580000Y-141600000D03*
X177620000Y-141600000D03*
D42*
X182300000Y-145080000D03*
X182300000Y-144120000D03*
D43*
X195462701Y-116000000D03*
X188537299Y-116000000D03*
D26*
X173600000Y-137820000D03*
X173600000Y-138780000D03*
D29*
X173000000Y-123110000D03*
X173000000Y-122090000D03*
X190100000Y-147710000D03*
X190100000Y-146690000D03*
D44*
X161137500Y-134950000D03*
X161137500Y-134000000D03*
X161137500Y-133050000D03*
X158862500Y-133050000D03*
X158862500Y-134000000D03*
X158862500Y-134950000D03*
D45*
X166000000Y-142590000D03*
X166000000Y-143610000D03*
D29*
X177600000Y-135510000D03*
X177600000Y-134490000D03*
D46*
X154587500Y-140300000D03*
X153012500Y-140300000D03*
D33*
X153810000Y-127900000D03*
X152790000Y-127900000D03*
D47*
X162000000Y-137125000D03*
X162000000Y-138675000D03*
D42*
X173000000Y-131080000D03*
X173000000Y-130120000D03*
D30*
X182380000Y-136600000D03*
X181420000Y-136600000D03*
D48*
X158750002Y-116500000D03*
X155249998Y-116500000D03*
X157000000Y-120384600D03*
D26*
X170000000Y-121420000D03*
X170000000Y-122380000D03*
D42*
X176800000Y-117960000D03*
X176800000Y-117000000D03*
D49*
X157095198Y-141400002D03*
X157095198Y-141900001D03*
X157095198Y-142400000D03*
X159000000Y-142400000D03*
X159000000Y-141900001D03*
X159000000Y-141400002D03*
D50*
X158047599Y-141900001D03*
D51*
X164000000Y-148350000D03*
X164000000Y-150250000D03*
D39*
X155720000Y-145100000D03*
X156680000Y-145100000D03*
D22*
X183800000Y-144375000D03*
X183800000Y-142825000D03*
D42*
X189000000Y-147680000D03*
X189000000Y-146720000D03*
D26*
X172500000Y-135920000D03*
X172500000Y-136880000D03*
D23*
X183090000Y-121680000D03*
X184110000Y-121680000D03*
X155690000Y-144000000D03*
X156710000Y-144000000D03*
D26*
X174100000Y-132320000D03*
X174100000Y-133280000D03*
D52*
X168800000Y-142400000D03*
X168299874Y-142400000D03*
X167799748Y-142400000D03*
X167299622Y-142400000D03*
X167299622Y-144000200D03*
X167799748Y-144000200D03*
X168299874Y-144000200D03*
X168800000Y-144000200D03*
D53*
X187200000Y-133800000D03*
D23*
X160590000Y-131700000D03*
X161610000Y-131700000D03*
D29*
X152900000Y-121310000D03*
X152900000Y-120290000D03*
D45*
X180200000Y-144990000D03*
X180200000Y-146010000D03*
D54*
X160360000Y-126100000D03*
D38*
X162900000Y-126100000D03*
X165440000Y-126100000D03*
X167980000Y-126100000D03*
D55*
X182500000Y-147200000D03*
X182000000Y-147200000D03*
X181500000Y-147200000D03*
X181000000Y-147200000D03*
X180500000Y-147200000D03*
X180000000Y-147200000D03*
D56*
X179312500Y-147887500D03*
X179312500Y-148387500D03*
X179312500Y-148887500D03*
X179312500Y-149387500D03*
X179312500Y-149887500D03*
X179312500Y-150387500D03*
D55*
X180000000Y-151075000D03*
X180500000Y-151075000D03*
X181000000Y-151075000D03*
X181500000Y-151075000D03*
X182000000Y-151075000D03*
X182500000Y-151075000D03*
D56*
X183187500Y-150387500D03*
X183187500Y-149887500D03*
X183187500Y-149387500D03*
X183187500Y-148887500D03*
X183187500Y-148387500D03*
X183187500Y-147887500D03*
D57*
X181250000Y-149137500D03*
D58*
X177600000Y-146437500D03*
X177600000Y-148562500D03*
D23*
X161590000Y-143600000D03*
X162610000Y-143600000D03*
D59*
X175600000Y-121700000D03*
D38*
X175600000Y-124240000D03*
D60*
X158800000Y-146250000D03*
X158800000Y-146750000D03*
X158300000Y-146250000D03*
X158300000Y-146750000D03*
X157800000Y-146250000D03*
X157800000Y-146750000D03*
D51*
X161900000Y-148350000D03*
X161900000Y-150250000D03*
D23*
X157690000Y-143900000D03*
X158710000Y-143900000D03*
D34*
X164100000Y-143100000D03*
D29*
X183100000Y-120690000D03*
X183100000Y-119670000D03*
D45*
X170500000Y-126190000D03*
X170500000Y-127210000D03*
D61*
X160350000Y-137650000D03*
X159700000Y-137650000D03*
X159050000Y-137650000D03*
X159050000Y-139550000D03*
X159700000Y-139550000D03*
X160350000Y-139550000D03*
D30*
X189080000Y-151200000D03*
X188120000Y-151200000D03*
D62*
X173600000Y-135815000D03*
X173600000Y-136785000D03*
D26*
X181300000Y-145020000D03*
X181300000Y-145980000D03*
D42*
X177600000Y-137760000D03*
X177600000Y-136800000D03*
X177600000Y-132480000D03*
X177600000Y-131520000D03*
D63*
X163725000Y-137100000D03*
X165275000Y-137100000D03*
D64*
X176325000Y-137125000D03*
X176325000Y-135275000D03*
X174875000Y-135275000D03*
X174875000Y-137125000D03*
D62*
X184800000Y-147315000D03*
X184800000Y-148285000D03*
D31*
X172275000Y-138200000D03*
X170725000Y-138200000D03*
D65*
X168910000Y-120132000D03*
X168910000Y-116068000D03*
X167640000Y-120132000D03*
X167640000Y-116068000D03*
X166370000Y-120132000D03*
X166370000Y-116068000D03*
X165100000Y-120132000D03*
X165100000Y-116068000D03*
X163830000Y-120132000D03*
X163830000Y-116068000D03*
X162560000Y-120132000D03*
X162560000Y-116068000D03*
X161290000Y-120132000D03*
X161290000Y-116068000D03*
D33*
X157410000Y-139900000D03*
X156390000Y-139900000D03*
D39*
X185920000Y-146700000D03*
X186880000Y-146700000D03*
D51*
X156100000Y-146450000D03*
X156100000Y-148350000D03*
D33*
X153810000Y-141700000D03*
X152790000Y-141700000D03*
D63*
X160925000Y-141300000D03*
X162475000Y-141300000D03*
D66*
X186000000Y-148250000D03*
X186000000Y-148750000D03*
X186000000Y-149250000D03*
X186000000Y-149750000D03*
D67*
X186700000Y-150062500D03*
D66*
X187400000Y-149750000D03*
X187400000Y-149250000D03*
X187400000Y-148750000D03*
X187400000Y-148250000D03*
D67*
X186700000Y-147937500D03*
D68*
X180950000Y-115880000D03*
X178450000Y-115880000D03*
D22*
X167600000Y-140875000D03*
X167600000Y-139325000D03*
D29*
X172900000Y-125310000D03*
X172900000Y-124290000D03*
D34*
X188000000Y-141100000D03*
D53*
X170900000Y-150200000D03*
D69*
X155605000Y-131110000D03*
X155605000Y-136890000D03*
D70*
X156680000Y-130800000D03*
X156680000Y-131600000D03*
D71*
X156680000Y-132750000D03*
X156680000Y-133750000D03*
X156680000Y-134250000D03*
X156680000Y-135250000D03*
D70*
X156680000Y-136400000D03*
X156680000Y-137200000D03*
X156680000Y-137200000D03*
X156680000Y-136400000D03*
D71*
X156680000Y-135750000D03*
X156680000Y-134750000D03*
X156680000Y-133250000D03*
X156680000Y-132250000D03*
D70*
X156680000Y-131600000D03*
X156680000Y-130800000D03*
D72*
X156105000Y-129680000D03*
D73*
X151925000Y-129680000D03*
D72*
X156105000Y-138320000D03*
D73*
X151925000Y-138320000D03*
D30*
X166780000Y-135500000D03*
X165820000Y-135500000D03*
D74*
X175900000Y-131150000D03*
X175900000Y-133650000D03*
D75*
X166800000Y-146725000D03*
X166800000Y-149675000D03*
D76*
X161700000Y-145800000D03*
X164500000Y-145800000D03*
D77*
X153800000Y-146500000D03*
D78*
X153800000Y-148500000D03*
%LPD*%
M02*
