G04 #@! TF.GenerationSoftware,KiCad,Pcbnew,8.0.1*
G04 #@! TF.CreationDate,2024-10-08T21:23:53-04:00*
G04 #@! TF.ProjectId,Digital,44696769-7461-46c2-9e6b-696361645f70,rev?*
G04 #@! TF.SameCoordinates,Original*
G04 #@! TF.FileFunction,Soldermask,Bot*
G04 #@! TF.FilePolarity,Negative*
%FSLAX46Y46*%
G04 Gerber Fmt 4.6, Leading zero omitted, Abs format (unit mm)*
G04 Created by KiCad (PCBNEW 8.0.1) date 2024-10-08 21:23:53*
%MOMM*%
%LPD*%
G01*
G04 APERTURE LIST*
G04 APERTURE END LIST*
G36*
X171211428Y-149105442D02*
G01*
X171407250Y-149181304D01*
X171585798Y-149291856D01*
X171740992Y-149433334D01*
X171867547Y-149600920D01*
X171961153Y-149788907D01*
X172018623Y-149990893D01*
X172038000Y-150200000D01*
X172018623Y-150409107D01*
X171961153Y-150611093D01*
X171867547Y-150799080D01*
X171740992Y-150966666D01*
X171585798Y-151108144D01*
X171407250Y-151218696D01*
X171211428Y-151294558D01*
X171005001Y-151333145D01*
X170794999Y-151333145D01*
X170588572Y-151294558D01*
X170392750Y-151218696D01*
X170214202Y-151108144D01*
X170059008Y-150966666D01*
X169932453Y-150799080D01*
X169838847Y-150611093D01*
X169781377Y-150409107D01*
X169762000Y-150200000D01*
X169781377Y-149990893D01*
X169838847Y-149788907D01*
X169932453Y-149600920D01*
X170059008Y-149433334D01*
X170214202Y-149291856D01*
X170392750Y-149181304D01*
X170588572Y-149105442D01*
X170794999Y-149066855D01*
X171005001Y-149066855D01*
X171211428Y-149105442D01*
G37*
G36*
X154074407Y-148195462D02*
G01*
X154244000Y-148270969D01*
X154394188Y-148380087D01*
X154518407Y-148518047D01*
X154611228Y-148678818D01*
X154668595Y-148855374D01*
X154688000Y-149040000D01*
X154668595Y-149224626D01*
X154611228Y-149401182D01*
X154518407Y-149561953D01*
X154394188Y-149699913D01*
X154244000Y-149809031D01*
X154074407Y-149884538D01*
X153892821Y-149923135D01*
X153707179Y-149923135D01*
X153525593Y-149884538D01*
X153356000Y-149809031D01*
X153205812Y-149699913D01*
X153081593Y-149561953D01*
X152988772Y-149401182D01*
X152931405Y-149224626D01*
X152912000Y-149040000D01*
X152931405Y-148855374D01*
X152988772Y-148678818D01*
X153081593Y-148518047D01*
X153205812Y-148380087D01*
X153356000Y-148270969D01*
X153525593Y-148195462D01*
X153707179Y-148156865D01*
X153892821Y-148156865D01*
X154074407Y-148195462D01*
G37*
G36*
X154664542Y-145614893D02*
G01*
X154676870Y-145623130D01*
X154685107Y-145635458D01*
X154688000Y-145650000D01*
X154688000Y-147350000D01*
X154685107Y-147364542D01*
X154676870Y-147376870D01*
X154664542Y-147385107D01*
X154650000Y-147388000D01*
X152950000Y-147388000D01*
X152935458Y-147385107D01*
X152923130Y-147376870D01*
X152914893Y-147364542D01*
X152912000Y-147350000D01*
X152912000Y-145650000D01*
X152914893Y-145635458D01*
X152923130Y-145623130D01*
X152935458Y-145614893D01*
X152950000Y-145612000D01*
X154650000Y-145612000D01*
X154664542Y-145614893D01*
G37*
G36*
X193564542Y-139464893D02*
G01*
X193576870Y-139473130D01*
X193585107Y-139485458D01*
X193588000Y-139500000D01*
X193588000Y-141200000D01*
X193585107Y-141214542D01*
X193576870Y-141226870D01*
X193564542Y-141235107D01*
X193550000Y-141238000D01*
X191850000Y-141238000D01*
X191835458Y-141235107D01*
X191823130Y-141226870D01*
X191814893Y-141214542D01*
X191812000Y-141200000D01*
X191812000Y-139500000D01*
X191814893Y-139485458D01*
X191823130Y-139473130D01*
X191835458Y-139464893D01*
X191850000Y-139462000D01*
X193550000Y-139462000D01*
X193564542Y-139464893D01*
G37*
G36*
X152395223Y-137786603D02*
G01*
X152530884Y-137822953D01*
X152652514Y-137893176D01*
X152751824Y-137992486D01*
X152822047Y-138114116D01*
X152858397Y-138249777D01*
X152858397Y-138390223D01*
X152822047Y-138525884D01*
X152751824Y-138647514D01*
X152652514Y-138746824D01*
X152530884Y-138817047D01*
X152395223Y-138853397D01*
X151525000Y-138858000D01*
X151454777Y-138853397D01*
X151319116Y-138817047D01*
X151197486Y-138746824D01*
X151098176Y-138647514D01*
X151027953Y-138525884D01*
X150991603Y-138390223D01*
X150991603Y-138249777D01*
X151027953Y-138114116D01*
X151098176Y-137992486D01*
X151197486Y-137893176D01*
X151319116Y-137822953D01*
X151454777Y-137786603D01*
X152325000Y-137782000D01*
X152395223Y-137786603D01*
G37*
G36*
X156725223Y-137786603D02*
G01*
X156860884Y-137822953D01*
X156982514Y-137893176D01*
X157081824Y-137992486D01*
X157152047Y-138114116D01*
X157188397Y-138249777D01*
X157188397Y-138390223D01*
X157152047Y-138525884D01*
X157081824Y-138647514D01*
X156982514Y-138746824D01*
X156860884Y-138817047D01*
X156725223Y-138853397D01*
X155555000Y-138858000D01*
X155484777Y-138853397D01*
X155349116Y-138817047D01*
X155227486Y-138746824D01*
X155128176Y-138647514D01*
X155057953Y-138525884D01*
X155021603Y-138390223D01*
X155021603Y-138249777D01*
X155057953Y-138114116D01*
X155128176Y-137992486D01*
X155227486Y-137893176D01*
X155349116Y-137822953D01*
X155484777Y-137786603D01*
X156655000Y-137782000D01*
X156725223Y-137786603D01*
G37*
G36*
X159591204Y-138155169D02*
G01*
X159647329Y-138192671D01*
X159684831Y-138248796D01*
X159698000Y-138315000D01*
X159698000Y-138685000D01*
X159684831Y-138751204D01*
X159647329Y-138807329D01*
X159591204Y-138844831D01*
X159525000Y-138858000D01*
X159255000Y-138858000D01*
X159188796Y-138844831D01*
X159132671Y-138807329D01*
X159095169Y-138751204D01*
X159082000Y-138685000D01*
X159082000Y-138315000D01*
X159095169Y-138248796D01*
X159132671Y-138192671D01*
X159188796Y-138155169D01*
X159255000Y-138142000D01*
X159525000Y-138142000D01*
X159591204Y-138155169D01*
G37*
G36*
X160611204Y-138155169D02*
G01*
X160667329Y-138192671D01*
X160704831Y-138248796D01*
X160718000Y-138315000D01*
X160718000Y-138685000D01*
X160704831Y-138751204D01*
X160667329Y-138807329D01*
X160611204Y-138844831D01*
X160545000Y-138858000D01*
X160275000Y-138858000D01*
X160208796Y-138844831D01*
X160152671Y-138807329D01*
X160115169Y-138751204D01*
X160102000Y-138685000D01*
X160102000Y-138315000D01*
X160115169Y-138248796D01*
X160152671Y-138192671D01*
X160208796Y-138155169D01*
X160275000Y-138142000D01*
X160545000Y-138142000D01*
X160611204Y-138155169D01*
G37*
G36*
X192974407Y-136965462D02*
G01*
X193144000Y-137040969D01*
X193294188Y-137150087D01*
X193418407Y-137288047D01*
X193511228Y-137448818D01*
X193568595Y-137625374D01*
X193588000Y-137810000D01*
X193568595Y-137994626D01*
X193511228Y-138171182D01*
X193418407Y-138331953D01*
X193294188Y-138469913D01*
X193144000Y-138579031D01*
X192974407Y-138654538D01*
X192792821Y-138693135D01*
X192607179Y-138693135D01*
X192425593Y-138654538D01*
X192256000Y-138579031D01*
X192105812Y-138469913D01*
X191981593Y-138331953D01*
X191888772Y-138171182D01*
X191831405Y-137994626D01*
X191812000Y-137810000D01*
X191831405Y-137625374D01*
X191888772Y-137448818D01*
X191981593Y-137288047D01*
X192105812Y-137150087D01*
X192256000Y-137040969D01*
X192425593Y-136965462D01*
X192607179Y-136926865D01*
X192792821Y-136926865D01*
X192974407Y-136965462D01*
G37*
G36*
X155717173Y-136544766D02*
G01*
X155818366Y-136596327D01*
X155898673Y-136676634D01*
X155950234Y-136777827D01*
X155968000Y-136890000D01*
X155950234Y-137002173D01*
X155898673Y-137103366D01*
X155818366Y-137183673D01*
X155717173Y-137235234D01*
X155605000Y-137253000D01*
X155492827Y-137235234D01*
X155391634Y-137183673D01*
X155311327Y-137103366D01*
X155259766Y-137002173D01*
X155242000Y-136890000D01*
X155259766Y-136777827D01*
X155311327Y-136676634D01*
X155391634Y-136596327D01*
X155492827Y-136544766D01*
X155605000Y-136527000D01*
X155717173Y-136544766D01*
G37*
G36*
X192974407Y-134425462D02*
G01*
X193144000Y-134500969D01*
X193294188Y-134610087D01*
X193418407Y-134748047D01*
X193511228Y-134908818D01*
X193568595Y-135085374D01*
X193588000Y-135270000D01*
X193568595Y-135454626D01*
X193511228Y-135631182D01*
X193418407Y-135791953D01*
X193294188Y-135929913D01*
X193144000Y-136039031D01*
X192974407Y-136114538D01*
X192792821Y-136153135D01*
X192607179Y-136153135D01*
X192425593Y-136114538D01*
X192256000Y-136039031D01*
X192105812Y-135929913D01*
X191981593Y-135791953D01*
X191888772Y-135631182D01*
X191831405Y-135454626D01*
X191812000Y-135270000D01*
X191831405Y-135085374D01*
X191888772Y-134908818D01*
X191981593Y-134748047D01*
X192105812Y-134610087D01*
X192256000Y-134500969D01*
X192425593Y-134425462D01*
X192607179Y-134386865D01*
X192792821Y-134386865D01*
X192974407Y-134425462D01*
G37*
G36*
X187511428Y-132705442D02*
G01*
X187707250Y-132781304D01*
X187885798Y-132891856D01*
X188040992Y-133033334D01*
X188167547Y-133200920D01*
X188261153Y-133388907D01*
X188318623Y-133590893D01*
X188338000Y-133800000D01*
X188318623Y-134009107D01*
X188261153Y-134211093D01*
X188167547Y-134399080D01*
X188040992Y-134566666D01*
X187885798Y-134708144D01*
X187707250Y-134818696D01*
X187511428Y-134894558D01*
X187305001Y-134933145D01*
X187094999Y-134933145D01*
X186888572Y-134894558D01*
X186692750Y-134818696D01*
X186514202Y-134708144D01*
X186359008Y-134566666D01*
X186232453Y-134399080D01*
X186138847Y-134211093D01*
X186081377Y-134009107D01*
X186062000Y-133800000D01*
X186081377Y-133590893D01*
X186138847Y-133388907D01*
X186232453Y-133200920D01*
X186359008Y-133033334D01*
X186514202Y-132891856D01*
X186692750Y-132781304D01*
X186888572Y-132705442D01*
X187094999Y-132666855D01*
X187305001Y-132666855D01*
X187511428Y-132705442D01*
G37*
G36*
X192974407Y-131885462D02*
G01*
X193144000Y-131960969D01*
X193294188Y-132070087D01*
X193418407Y-132208047D01*
X193511228Y-132368818D01*
X193568595Y-132545374D01*
X193588000Y-132730000D01*
X193568595Y-132914626D01*
X193511228Y-133091182D01*
X193418407Y-133251953D01*
X193294188Y-133389913D01*
X193144000Y-133499031D01*
X192974407Y-133574538D01*
X192792821Y-133613135D01*
X192607179Y-133613135D01*
X192425593Y-133574538D01*
X192256000Y-133499031D01*
X192105812Y-133389913D01*
X191981593Y-133251953D01*
X191888772Y-133091182D01*
X191831405Y-132914626D01*
X191812000Y-132730000D01*
X191831405Y-132545374D01*
X191888772Y-132368818D01*
X191981593Y-132208047D01*
X192105812Y-132070087D01*
X192256000Y-131960969D01*
X192425593Y-131885462D01*
X192607179Y-131846865D01*
X192792821Y-131846865D01*
X192974407Y-131885462D01*
G37*
G36*
X155717173Y-130764766D02*
G01*
X155818366Y-130816327D01*
X155898673Y-130896634D01*
X155950234Y-130997827D01*
X155968000Y-131110000D01*
X155950234Y-131222173D01*
X155898673Y-131323366D01*
X155818366Y-131403673D01*
X155717173Y-131455234D01*
X155605000Y-131473000D01*
X155492827Y-131455234D01*
X155391634Y-131403673D01*
X155311327Y-131323366D01*
X155259766Y-131222173D01*
X155242000Y-131110000D01*
X155259766Y-130997827D01*
X155311327Y-130896634D01*
X155391634Y-130816327D01*
X155492827Y-130764766D01*
X155605000Y-130747000D01*
X155717173Y-130764766D01*
G37*
G36*
X192974407Y-129345462D02*
G01*
X193144000Y-129420969D01*
X193294188Y-129530087D01*
X193418407Y-129668047D01*
X193511228Y-129828818D01*
X193568595Y-130005374D01*
X193588000Y-130190000D01*
X193568595Y-130374626D01*
X193511228Y-130551182D01*
X193418407Y-130711953D01*
X193294188Y-130849913D01*
X193144000Y-130959031D01*
X192974407Y-131034538D01*
X192792821Y-131073135D01*
X192607179Y-131073135D01*
X192425593Y-131034538D01*
X192256000Y-130959031D01*
X192105812Y-130849913D01*
X191981593Y-130711953D01*
X191888772Y-130551182D01*
X191831405Y-130374626D01*
X191812000Y-130190000D01*
X191831405Y-130005374D01*
X191888772Y-129828818D01*
X191981593Y-129668047D01*
X192105812Y-129530087D01*
X192256000Y-129420969D01*
X192425593Y-129345462D01*
X192607179Y-129306865D01*
X192792821Y-129306865D01*
X192974407Y-129345462D01*
G37*
G36*
X152395223Y-129146603D02*
G01*
X152530884Y-129182953D01*
X152652514Y-129253176D01*
X152751824Y-129352486D01*
X152822047Y-129474116D01*
X152858397Y-129609777D01*
X152858397Y-129750223D01*
X152822047Y-129885884D01*
X152751824Y-130007514D01*
X152652514Y-130106824D01*
X152530884Y-130177047D01*
X152395223Y-130213397D01*
X151525000Y-130218000D01*
X151454777Y-130213397D01*
X151319116Y-130177047D01*
X151197486Y-130106824D01*
X151098176Y-130007514D01*
X151027953Y-129885884D01*
X150991603Y-129750223D01*
X150991603Y-129609777D01*
X151027953Y-129474116D01*
X151098176Y-129352486D01*
X151197486Y-129253176D01*
X151319116Y-129182953D01*
X151454777Y-129146603D01*
X152325000Y-129142000D01*
X152395223Y-129146603D01*
G37*
G36*
X156725223Y-129146603D02*
G01*
X156860884Y-129182953D01*
X156982514Y-129253176D01*
X157081824Y-129352486D01*
X157152047Y-129474116D01*
X157188397Y-129609777D01*
X157188397Y-129750223D01*
X157152047Y-129885884D01*
X157081824Y-130007514D01*
X156982514Y-130106824D01*
X156860884Y-130177047D01*
X156725223Y-130213397D01*
X155555000Y-130218000D01*
X155484777Y-130213397D01*
X155349116Y-130177047D01*
X155227486Y-130106824D01*
X155128176Y-130007514D01*
X155057953Y-129885884D01*
X155021603Y-129750223D01*
X155021603Y-129609777D01*
X155057953Y-129474116D01*
X155128176Y-129352486D01*
X155227486Y-129253176D01*
X155349116Y-129182953D01*
X155484777Y-129146603D01*
X156655000Y-129142000D01*
X156725223Y-129146603D01*
G37*
G36*
X192974407Y-126805462D02*
G01*
X193144000Y-126880969D01*
X193294188Y-126990087D01*
X193418407Y-127128047D01*
X193511228Y-127288818D01*
X193568595Y-127465374D01*
X193588000Y-127650000D01*
X193568595Y-127834626D01*
X193511228Y-128011182D01*
X193418407Y-128171953D01*
X193294188Y-128309913D01*
X193144000Y-128419031D01*
X192974407Y-128494538D01*
X192792821Y-128533135D01*
X192607179Y-128533135D01*
X192425593Y-128494538D01*
X192256000Y-128419031D01*
X192105812Y-128309913D01*
X191981593Y-128171953D01*
X191888772Y-128011182D01*
X191831405Y-127834626D01*
X191812000Y-127650000D01*
X191831405Y-127465374D01*
X191888772Y-127288818D01*
X191981593Y-127128047D01*
X192105812Y-126990087D01*
X192256000Y-126880969D01*
X192425593Y-126805462D01*
X192607179Y-126766865D01*
X192792821Y-126766865D01*
X192974407Y-126805462D01*
G37*
G36*
X161274407Y-125655462D02*
G01*
X161444000Y-125730969D01*
X161594188Y-125840087D01*
X161718407Y-125978047D01*
X161811228Y-126138818D01*
X161868595Y-126315374D01*
X161888000Y-126500000D01*
X161868595Y-126684626D01*
X161811228Y-126861182D01*
X161718407Y-127021953D01*
X161594188Y-127159913D01*
X161444000Y-127269031D01*
X161274407Y-127344538D01*
X161092821Y-127383135D01*
X160907179Y-127383135D01*
X160725593Y-127344538D01*
X160556000Y-127269031D01*
X160405812Y-127159913D01*
X160281593Y-127021953D01*
X160188772Y-126861182D01*
X160131405Y-126684626D01*
X160112000Y-126500000D01*
X160131405Y-126315374D01*
X160188772Y-126138818D01*
X160281593Y-125978047D01*
X160405812Y-125840087D01*
X160556000Y-125730969D01*
X160725593Y-125655462D01*
X160907179Y-125616865D01*
X161092821Y-125616865D01*
X161274407Y-125655462D01*
G37*
G36*
X165274407Y-125655462D02*
G01*
X165444000Y-125730969D01*
X165594188Y-125840087D01*
X165718407Y-125978047D01*
X165811228Y-126138818D01*
X165868595Y-126315374D01*
X165888000Y-126500000D01*
X165868595Y-126684626D01*
X165811228Y-126861182D01*
X165718407Y-127021953D01*
X165594188Y-127159913D01*
X165444000Y-127269031D01*
X165274407Y-127344538D01*
X165092821Y-127383135D01*
X164907179Y-127383135D01*
X164725593Y-127344538D01*
X164556000Y-127269031D01*
X164405812Y-127159913D01*
X164281593Y-127021953D01*
X164188772Y-126861182D01*
X164131405Y-126684626D01*
X164112000Y-126500000D01*
X164131405Y-126315374D01*
X164188772Y-126138818D01*
X164281593Y-125978047D01*
X164405812Y-125840087D01*
X164556000Y-125730969D01*
X164725593Y-125655462D01*
X164907179Y-125616865D01*
X165092821Y-125616865D01*
X165274407Y-125655462D01*
G37*
G36*
X175874407Y-123395462D02*
G01*
X176044000Y-123470969D01*
X176194188Y-123580087D01*
X176318407Y-123718047D01*
X176411228Y-123878818D01*
X176468595Y-124055374D01*
X176488000Y-124240000D01*
X176468595Y-124424626D01*
X176411228Y-124601182D01*
X176318407Y-124761953D01*
X176194188Y-124899913D01*
X176044000Y-125009031D01*
X175874407Y-125084538D01*
X175692821Y-125123135D01*
X175507179Y-125123135D01*
X175325593Y-125084538D01*
X175156000Y-125009031D01*
X175005812Y-124899913D01*
X174881593Y-124761953D01*
X174788772Y-124601182D01*
X174731405Y-124424626D01*
X174712000Y-124240000D01*
X174731405Y-124055374D01*
X174788772Y-123878818D01*
X174881593Y-123718047D01*
X175005812Y-123580087D01*
X175156000Y-123470969D01*
X175325593Y-123395462D01*
X175507179Y-123356865D01*
X175692821Y-123356865D01*
X175874407Y-123395462D01*
G37*
G36*
X161274407Y-123115462D02*
G01*
X161444000Y-123190969D01*
X161594188Y-123300087D01*
X161718407Y-123438047D01*
X161811228Y-123598818D01*
X161868595Y-123775374D01*
X161888000Y-123960000D01*
X161868595Y-124144626D01*
X161811228Y-124321182D01*
X161718407Y-124481953D01*
X161594188Y-124619913D01*
X161444000Y-124729031D01*
X161274407Y-124804538D01*
X161092821Y-124843135D01*
X160907179Y-124843135D01*
X160725593Y-124804538D01*
X160556000Y-124729031D01*
X160405812Y-124619913D01*
X160281593Y-124481953D01*
X160188772Y-124321182D01*
X160131405Y-124144626D01*
X160112000Y-123960000D01*
X160131405Y-123775374D01*
X160188772Y-123598818D01*
X160281593Y-123438047D01*
X160405812Y-123300087D01*
X160556000Y-123190969D01*
X160725593Y-123115462D01*
X160907179Y-123076865D01*
X161092821Y-123076865D01*
X161274407Y-123115462D01*
G37*
G36*
X165274407Y-123115462D02*
G01*
X165444000Y-123190969D01*
X165594188Y-123300087D01*
X165718407Y-123438047D01*
X165811228Y-123598818D01*
X165868595Y-123775374D01*
X165888000Y-123960000D01*
X165868595Y-124144626D01*
X165811228Y-124321182D01*
X165718407Y-124481953D01*
X165594188Y-124619913D01*
X165444000Y-124729031D01*
X165274407Y-124804538D01*
X165092821Y-124843135D01*
X164907179Y-124843135D01*
X164725593Y-124804538D01*
X164556000Y-124729031D01*
X164405812Y-124619913D01*
X164281593Y-124481953D01*
X164188772Y-124321182D01*
X164131405Y-124144626D01*
X164112000Y-123960000D01*
X164131405Y-123775374D01*
X164188772Y-123598818D01*
X164281593Y-123438047D01*
X164405812Y-123300087D01*
X164556000Y-123190969D01*
X164725593Y-123115462D01*
X164907179Y-123076865D01*
X165092821Y-123076865D01*
X165274407Y-123115462D01*
G37*
G36*
X176464542Y-120814893D02*
G01*
X176476870Y-120823130D01*
X176485107Y-120835458D01*
X176488000Y-120850000D01*
X176488000Y-122550000D01*
X176485107Y-122564542D01*
X176476870Y-122576870D01*
X176464542Y-122585107D01*
X176450000Y-122588000D01*
X174750000Y-122588000D01*
X174735458Y-122585107D01*
X174723130Y-122576870D01*
X174714893Y-122564542D01*
X174712000Y-122550000D01*
X174712000Y-120850000D01*
X174714893Y-120835458D01*
X174723130Y-120823130D01*
X174735458Y-120814893D01*
X174750000Y-120812000D01*
X176450000Y-120812000D01*
X176464542Y-120814893D01*
G37*
G36*
X161274407Y-120575462D02*
G01*
X161444000Y-120650969D01*
X161594188Y-120760087D01*
X161718407Y-120898047D01*
X161811228Y-121058818D01*
X161868595Y-121235374D01*
X161888000Y-121420000D01*
X161868595Y-121604626D01*
X161811228Y-121781182D01*
X161718407Y-121941953D01*
X161594188Y-122079913D01*
X161444000Y-122189031D01*
X161274407Y-122264538D01*
X161092821Y-122303135D01*
X160907179Y-122303135D01*
X160725593Y-122264538D01*
X160556000Y-122189031D01*
X160405812Y-122079913D01*
X160281593Y-121941953D01*
X160188772Y-121781182D01*
X160131405Y-121604626D01*
X160112000Y-121420000D01*
X160131405Y-121235374D01*
X160188772Y-121058818D01*
X160281593Y-120898047D01*
X160405812Y-120760087D01*
X160556000Y-120650969D01*
X160725593Y-120575462D01*
X160907179Y-120536865D01*
X161092821Y-120536865D01*
X161274407Y-120575462D01*
G37*
G36*
X165274407Y-120575462D02*
G01*
X165444000Y-120650969D01*
X165594188Y-120760087D01*
X165718407Y-120898047D01*
X165811228Y-121058818D01*
X165868595Y-121235374D01*
X165888000Y-121420000D01*
X165868595Y-121604626D01*
X165811228Y-121781182D01*
X165718407Y-121941953D01*
X165594188Y-122079913D01*
X165444000Y-122189031D01*
X165274407Y-122264538D01*
X165092821Y-122303135D01*
X164907179Y-122303135D01*
X164725593Y-122264538D01*
X164556000Y-122189031D01*
X164405812Y-122079913D01*
X164281593Y-121941953D01*
X164188772Y-121781182D01*
X164131405Y-121604626D01*
X164112000Y-121420000D01*
X164131405Y-121235374D01*
X164188772Y-121058818D01*
X164281593Y-120898047D01*
X164405812Y-120760087D01*
X164556000Y-120650969D01*
X164725593Y-120575462D01*
X164907179Y-120536865D01*
X165092821Y-120536865D01*
X165274407Y-120575462D01*
G37*
G36*
X161274407Y-118035462D02*
G01*
X161444000Y-118110969D01*
X161594188Y-118220087D01*
X161718407Y-118358047D01*
X161811228Y-118518818D01*
X161868595Y-118695374D01*
X161888000Y-118880000D01*
X161868595Y-119064626D01*
X161811228Y-119241182D01*
X161718407Y-119401953D01*
X161594188Y-119539913D01*
X161444000Y-119649031D01*
X161274407Y-119724538D01*
X161092821Y-119763135D01*
X160907179Y-119763135D01*
X160725593Y-119724538D01*
X160556000Y-119649031D01*
X160405812Y-119539913D01*
X160281593Y-119401953D01*
X160188772Y-119241182D01*
X160131405Y-119064626D01*
X160112000Y-118880000D01*
X160131405Y-118695374D01*
X160188772Y-118518818D01*
X160281593Y-118358047D01*
X160405812Y-118220087D01*
X160556000Y-118110969D01*
X160725593Y-118035462D01*
X160907179Y-117996865D01*
X161092821Y-117996865D01*
X161274407Y-118035462D01*
G37*
G36*
X165274407Y-118035462D02*
G01*
X165444000Y-118110969D01*
X165594188Y-118220087D01*
X165718407Y-118358047D01*
X165811228Y-118518818D01*
X165868595Y-118695374D01*
X165888000Y-118880000D01*
X165868595Y-119064626D01*
X165811228Y-119241182D01*
X165718407Y-119401953D01*
X165594188Y-119539913D01*
X165444000Y-119649031D01*
X165274407Y-119724538D01*
X165092821Y-119763135D01*
X164907179Y-119763135D01*
X164725593Y-119724538D01*
X164556000Y-119649031D01*
X164405812Y-119539913D01*
X164281593Y-119401953D01*
X164188772Y-119241182D01*
X164131405Y-119064626D01*
X164112000Y-118880000D01*
X164131405Y-118695374D01*
X164188772Y-118518818D01*
X164281593Y-118358047D01*
X164405812Y-118220087D01*
X164556000Y-118110969D01*
X164725593Y-118035462D01*
X164907179Y-117996865D01*
X165092821Y-117996865D01*
X165274407Y-118035462D01*
G37*
G36*
X161864542Y-115454893D02*
G01*
X161876870Y-115463130D01*
X161885107Y-115475458D01*
X161888000Y-115490000D01*
X161888000Y-117190000D01*
X161885107Y-117204542D01*
X161876870Y-117216870D01*
X161864542Y-117225107D01*
X161850000Y-117228000D01*
X160150000Y-117228000D01*
X160135458Y-117225107D01*
X160123130Y-117216870D01*
X160114893Y-117204542D01*
X160112000Y-117190000D01*
X160112000Y-115490000D01*
X160114893Y-115475458D01*
X160123130Y-115463130D01*
X160135458Y-115454893D01*
X160150000Y-115452000D01*
X161850000Y-115452000D01*
X161864542Y-115454893D01*
G37*
G36*
X165864542Y-115454893D02*
G01*
X165876870Y-115463130D01*
X165885107Y-115475458D01*
X165888000Y-115490000D01*
X165888000Y-117190000D01*
X165885107Y-117204542D01*
X165876870Y-117216870D01*
X165864542Y-117225107D01*
X165850000Y-117228000D01*
X164150000Y-117228000D01*
X164135458Y-117225107D01*
X164123130Y-117216870D01*
X164114893Y-117204542D01*
X164112000Y-117190000D01*
X164112000Y-115490000D01*
X164114893Y-115475458D01*
X164123130Y-115463130D01*
X164135458Y-115454893D01*
X164150000Y-115452000D01*
X165850000Y-115452000D01*
X165864542Y-115454893D01*
G37*
M02*
