M48
; DRILL file {KiCad 8.0.1} date 2024-09-12T17:06:43-0400
; FORMAT={-:-/ absolute / metric / decimal}
; #@! TF.CreationDate,2024-09-12T17:06:43-04:00
; #@! TF.GenerationSoftware,Kicad,Pcbnew,8.0.1
; #@! TF.FileFunction,Plated,1,6,PTH
FMAT,2
METRIC
; #@! TA.AperFunction,Plated,PTH,ViaDrill
T1C0.200
; #@! TA.AperFunction,Plated,PTH,ViaDrill
T2C0.300
; #@! TA.AperFunction,Plated,PTH,ViaDrill
T3C0.400
; #@! TA.AperFunction,Plated,PTH,ComponentDrill
T4C0.600
; #@! TA.AperFunction,Plated,PTH,ComponentDrill
T5C0.750
; #@! TA.AperFunction,Plated,PTH,ComponentDrill
T6C1.000
%
G90
G05
T1
X169.018Y-133.4
X169.018Y-133.8
X169.018Y-134.2
X169.018Y-134.6
X169.418Y-133.4
X169.418Y-134.6
X169.818Y-133.4
X169.818Y-134.6
X170.218Y-133.4
X170.218Y-133.8
X170.218Y-134.2
X170.218Y-134.6
T2
X151.0Y-117.0
X151.0Y-119.0
X151.0Y-121.0
X151.0Y-123.0
X151.0Y-125.0
X151.0Y-127.0
X151.0Y-131.0
X151.0Y-133.0
X151.0Y-135.0
X151.0Y-137.0
X151.0Y-139.0
X151.0Y-141.0
X151.0Y-143.0
X151.0Y-145.0
X151.0Y-147.0
X151.0Y-149.0
X151.0Y-151.0
X153.0Y-115.0
X153.0Y-117.0
X153.0Y-119.0
X153.0Y-123.0
X153.0Y-131.0
X153.0Y-133.0
X153.0Y-135.0
X153.0Y-137.0
X153.0Y-143.0
X153.0Y-151.0
X153.0Y-153.0
X154.6Y-127.9
X154.7Y-141.8
X154.8Y-132.7
X155.0Y-115.0
X155.0Y-119.0
X155.0Y-125.0
X155.0Y-127.0
X155.0Y-135.0
X155.0Y-151.0
X155.0Y-153.0
X155.4Y-122.6
X155.7Y-133.8
X155.7Y-134.8
X155.72Y-145.1
X156.0Y-140.8
X157.0Y-115.0
X157.0Y-117.0
X157.0Y-119.0
X157.0Y-123.0
X157.0Y-127.0
X157.0Y-151.0
X157.0Y-153.0
X157.7Y-145.0
X158.6Y-143.0
X158.9Y-123.4
X159.0Y-115.0
X159.0Y-118.0
X159.0Y-119.0
X159.0Y-125.0
X159.0Y-127.0
X159.0Y-151.0
X159.0Y-153.0
X159.2Y-131.1
X159.3Y-145.9
X159.7Y-139.55
X159.8Y-135.7
X160.0Y-143.39
X160.0Y-145.4
X160.0Y-146.2
X160.0Y-147.1
X160.062Y-148.4
X160.35Y-118.95
X160.5Y-139.55
X160.6Y-119.8
X160.625Y-136.6
X161.0Y-123.0
X161.0Y-129.0
X161.0Y-153.0
X161.5Y-131.0
X161.8Y-128.9
X161.9Y-151.2
X162.3Y-118.2
X162.61Y-142.6
X162.8Y-135.5
X163.0Y-153.0
X163.7Y-135.6
X163.9Y-131.5
X164.0Y-118.0
X164.0Y-122.7
X164.0Y-151.2
X164.1Y-134.8
X164.9Y-122.9
X164.9Y-131.4
X164.9Y-132.4
X165.0Y-153.0
X165.8Y-135.5
X166.0Y-118.0
X166.0Y-143.61
X166.1Y-134.2
X166.2Y-128.1
X166.2Y-129.2
X166.2Y-131.3
X166.4Y-136.8
X166.4Y-144.5
X166.8Y-122.8
X166.8Y-151.0
X166.9Y-131.3
X166.9Y-143.1
X167.0Y-153.0
X167.3Y-138.3
X167.6Y-117.8
X167.8Y-135.3
X168.1Y-136.0
X168.4Y-131.9
X168.5Y-131.1
X168.5Y-137.4
X168.7Y-117.7
X168.9Y-130.2
X169.0Y-151.0
X169.0Y-153.0
X169.2Y-118.4
X169.2Y-122.4
X169.2Y-136.4
X169.7Y-141.8
X170.1Y-120.7
X170.1Y-130.1
X170.1Y-137.2
X170.1Y-139.3
X170.3Y-142.7
X170.4Y-131.2
X170.4Y-132.5
X170.8Y-142.0
X170.9Y-144.2
X171.0Y-140.4
X171.0Y-153.0
X171.4Y-121.5
X171.4Y-122.4
X171.5Y-123.4
X171.7Y-140.1
X171.8Y-115.7
X172.0Y-120.5
X172.0Y-124.7
X172.0Y-141.3
X172.1Y-126.5
X172.1Y-127.2
X172.1Y-130.0
X172.1Y-130.8
X172.2Y-131.7
X172.3Y-123.8
X172.4Y-133.5
X172.4Y-139.8
X172.5Y-135.92
X172.5Y-136.9
X172.7Y-135.0
X172.9Y-116.4
X172.9Y-118.8
X173.0Y-145.0
X173.0Y-147.0
X173.0Y-149.0
X173.0Y-151.0
X173.0Y-153.0
X173.6Y-125.3
X173.7Y-123.7
X174.1Y-130.42
X174.1Y-133.28
X174.4Y-126.5
X174.672Y-125.661
X174.9Y-130.0
X174.9Y-138.7
X175.0Y-115.0
X175.0Y-117.0
X175.0Y-119.0
X175.0Y-142.0
X175.0Y-145.0
X175.0Y-147.0
X175.0Y-149.0
X175.0Y-151.0
X175.0Y-153.0
X175.5Y-143.3
X175.7Y-138.2
X176.0Y-118.0
X176.2Y-142.7
X176.7Y-141.6
X177.0Y-115.0
X177.0Y-119.0
X177.0Y-126.0
X177.0Y-153.0
X177.3Y-124.0
X177.6Y-130.7
X177.621Y-151.911
X177.8Y-133.6
X178.0Y-149.7
X178.0Y-150.5
X178.3Y-138.7
X178.4Y-151.5
X178.5Y-134.49
X178.5Y-136.3
X178.6Y-132.1
X178.884Y-145.983
X179.0Y-124.0
X179.0Y-126.0
X179.1Y-146.8
X179.3Y-152.1
X179.4Y-130.8
X179.7Y-132.3
X179.7Y-133.6
X179.8Y-122.3
X179.9Y-138.2
X179.9Y-143.0
X180.1Y-135.0
X180.1Y-152.1
X180.2Y-119.5
X180.4Y-139.8
X180.6Y-136.6
X180.8Y-132.5
X180.9Y-138.2
X180.9Y-152.1
X181.0Y-120.68
X181.0Y-124.0
X181.0Y-125.986
X181.0Y-130.4
X181.7Y-152.1
X182.3Y-135.7
X182.3Y-143.3
X182.3Y-146.1
X182.4Y-137.7
X182.4Y-138.6
X182.5Y-152.1
X182.6Y-129.1
X182.8Y-141.4
X183.0Y-115.0
X183.0Y-117.0
X183.0Y-124.0
X183.0Y-126.0
X183.09Y-121.68
X183.3Y-152.1
X183.6Y-132.0
X183.6Y-141.3
X184.2Y-129.8
X184.3Y-151.1
X184.5Y-141.3
X184.9Y-142.8
X185.0Y-115.0
X185.0Y-117.0
X185.0Y-127.0
X185.0Y-134.0
X185.0Y-145.0
X185.0Y-150.3
X185.0Y-153.0
X185.134Y-140.878
X185.3Y-139.0
X185.7Y-137.6
X185.9Y-130.7
X186.4Y-141.3
X186.5Y-151.0
X187.0Y-127.0
X187.0Y-139.0
X187.0Y-143.0
X187.0Y-145.0
X187.0Y-153.0
X187.2Y-147.6
X187.3Y-151.2
X189.0Y-127.0
X189.0Y-130.0
X189.0Y-135.0
X189.0Y-143.0
X189.0Y-144.934
X189.0Y-153.0
X189.6Y-136.7
X190.0Y-151.2
X191.0Y-127.0
X191.0Y-130.0
X191.0Y-132.0
X191.0Y-139.0
X191.0Y-145.0
X191.0Y-151.0
X191.0Y-153.0
X191.103Y-143.0
X193.0Y-143.0
X193.0Y-145.0
X193.0Y-153.0
X195.0Y-127.0
X195.0Y-129.0
X195.0Y-131.0
X195.0Y-133.0
X195.0Y-135.0
X195.0Y-137.0
X195.0Y-139.0
X195.0Y-141.0
X195.0Y-143.0
X195.0Y-145.0
X195.0Y-153.0
X197.0Y-127.0
X197.0Y-129.0
X197.0Y-131.0
X197.0Y-133.0
X197.0Y-135.0
X197.0Y-137.0
X197.0Y-139.0
X197.0Y-141.0
X197.0Y-143.0
X197.0Y-145.0
X197.0Y-147.0
X197.0Y-149.0
X197.0Y-151.0
T3
X156.68Y-136.4
X157.7Y-131.6
X159.8Y-134.0
X162.2Y-134.0
X163.725Y-137.1
X166.6Y-137.6
X169.125Y-140.075
X169.125Y-141.075
X169.2Y-145.4
X169.2Y-146.4
X170.0Y-144.1
X170.125Y-140.075
X170.125Y-141.075
X170.2Y-145.4
X170.2Y-146.4
X171.2Y-145.4
X171.2Y-146.4
X190.1Y-145.8
X191.0Y-147.0
T5
X153.8Y-146.5
X153.8Y-148.5
T6
X160.36Y-126.1
X162.9Y-126.1
X165.44Y-126.1
X167.98Y-126.1
X175.6Y-121.7
X175.6Y-124.24
X192.7Y-127.65
X192.7Y-130.19
X192.7Y-132.73
X192.7Y-135.27
X192.7Y-137.81
X192.7Y-140.35
T4
X152.325Y-129.68G85X151.525Y-129.68
G05
X152.325Y-138.32G85X151.525Y-138.32
G05
X156.655Y-129.68G85X155.555Y-129.68
G05
X156.655Y-138.32G85X155.555Y-138.32
G05
M30
