G04 #@! TF.GenerationSoftware,KiCad,Pcbnew,8.0.1*
G04 #@! TF.CreationDate,2024-09-12T17:06:28-04:00*
G04 #@! TF.ProjectId,Digital,44696769-7461-46c2-9e6b-696361645f70,rev?*
G04 #@! TF.SameCoordinates,Original*
G04 #@! TF.FileFunction,Soldermask,Bot*
G04 #@! TF.FilePolarity,Negative*
%FSLAX46Y46*%
G04 Gerber Fmt 4.6, Leading zero omitted, Abs format (unit mm)*
G04 Created by KiCad (PCBNEW 8.0.1) date 2024-09-12 17:06:28*
%MOMM*%
%LPD*%
G01*
G04 APERTURE LIST*
G04 APERTURE END LIST*
G36*
X171211428Y-149105442D02*
G01*
X171407250Y-149181304D01*
X171585798Y-149291856D01*
X171740992Y-149433334D01*
X171867547Y-149600920D01*
X171961153Y-149788907D01*
X172018623Y-149990893D01*
X172038000Y-150200000D01*
X172018623Y-150409107D01*
X171961153Y-150611093D01*
X171867547Y-150799080D01*
X171740992Y-150966666D01*
X171585798Y-151108144D01*
X171407250Y-151218696D01*
X171211428Y-151294558D01*
X171005001Y-151333145D01*
X170794999Y-151333145D01*
X170588572Y-151294558D01*
X170392750Y-151218696D01*
X170214202Y-151108144D01*
X170059008Y-150966666D01*
X169932453Y-150799080D01*
X169838847Y-150611093D01*
X169781377Y-150409107D01*
X169762000Y-150200000D01*
X169781377Y-149990893D01*
X169838847Y-149788907D01*
X169932453Y-149600920D01*
X170059008Y-149433334D01*
X170214202Y-149291856D01*
X170392750Y-149181304D01*
X170588572Y-149105442D01*
X170794999Y-149066855D01*
X171005001Y-149066855D01*
X171211428Y-149105442D01*
G37*
G36*
X154137535Y-147865072D02*
G01*
X154260202Y-147889472D01*
X154375751Y-147937334D01*
X154479743Y-148006819D01*
X154568181Y-148095257D01*
X154637666Y-148199249D01*
X154685528Y-148314798D01*
X154709928Y-148437465D01*
X154709928Y-148562535D01*
X154685528Y-148685202D01*
X154637666Y-148800751D01*
X154568181Y-148904743D01*
X154479743Y-148993181D01*
X154375751Y-149062666D01*
X154260202Y-149110528D01*
X154137535Y-149134928D01*
X153525000Y-149138000D01*
X153462465Y-149134928D01*
X153339798Y-149110528D01*
X153224249Y-149062666D01*
X153120257Y-148993181D01*
X153031819Y-148904743D01*
X152962334Y-148800751D01*
X152914472Y-148685202D01*
X152890072Y-148562535D01*
X152890072Y-148437465D01*
X152914472Y-148314798D01*
X152962334Y-148199249D01*
X153031819Y-148095257D01*
X153120257Y-148006819D01*
X153224249Y-147937334D01*
X153339798Y-147889472D01*
X153462465Y-147865072D01*
X154075000Y-147862000D01*
X154137535Y-147865072D01*
G37*
G36*
X154490938Y-145869650D02*
G01*
X154495653Y-145871732D01*
X154498326Y-145872084D01*
X154531770Y-145887679D01*
X154587759Y-145912401D01*
X154662599Y-145987241D01*
X154687330Y-146043251D01*
X154702915Y-146076673D01*
X154703266Y-146079343D01*
X154705350Y-146084062D01*
X154713000Y-146150000D01*
X154713000Y-146850000D01*
X154705350Y-146915938D01*
X154703266Y-146920656D01*
X154702915Y-146923326D01*
X154687338Y-146956730D01*
X154662599Y-147012759D01*
X154587759Y-147087599D01*
X154531730Y-147112338D01*
X154498326Y-147127915D01*
X154495656Y-147128266D01*
X154490938Y-147130350D01*
X154425000Y-147138000D01*
X153175000Y-147138000D01*
X153109062Y-147130350D01*
X153104343Y-147128266D01*
X153101673Y-147127915D01*
X153068251Y-147112330D01*
X153012241Y-147087599D01*
X152937401Y-147012759D01*
X152912679Y-146956770D01*
X152897084Y-146923326D01*
X152896732Y-146920653D01*
X152894650Y-146915938D01*
X152887000Y-146850000D01*
X152887000Y-146150000D01*
X152894650Y-146084062D01*
X152896732Y-146079346D01*
X152897084Y-146076673D01*
X152912687Y-146043210D01*
X152937401Y-145987241D01*
X153012241Y-145912401D01*
X153068210Y-145887687D01*
X153101673Y-145872084D01*
X153104346Y-145871732D01*
X153109062Y-145869650D01*
X153175000Y-145862000D01*
X154425000Y-145862000D01*
X154490938Y-145869650D01*
G37*
G36*
X193564542Y-139464893D02*
G01*
X193576870Y-139473130D01*
X193585107Y-139485458D01*
X193588000Y-139500000D01*
X193588000Y-141200000D01*
X193585107Y-141214542D01*
X193576870Y-141226870D01*
X193564542Y-141235107D01*
X193550000Y-141238000D01*
X191850000Y-141238000D01*
X191835458Y-141235107D01*
X191823130Y-141226870D01*
X191814893Y-141214542D01*
X191812000Y-141200000D01*
X191812000Y-139500000D01*
X191814893Y-139485458D01*
X191823130Y-139473130D01*
X191835458Y-139464893D01*
X191850000Y-139462000D01*
X193550000Y-139462000D01*
X193564542Y-139464893D01*
G37*
G36*
X152395223Y-137786603D02*
G01*
X152530884Y-137822953D01*
X152652514Y-137893176D01*
X152751824Y-137992486D01*
X152822047Y-138114116D01*
X152858397Y-138249777D01*
X152858397Y-138390223D01*
X152822047Y-138525884D01*
X152751824Y-138647514D01*
X152652514Y-138746824D01*
X152530884Y-138817047D01*
X152395223Y-138853397D01*
X151525000Y-138858000D01*
X151454777Y-138853397D01*
X151319116Y-138817047D01*
X151197486Y-138746824D01*
X151098176Y-138647514D01*
X151027953Y-138525884D01*
X150991603Y-138390223D01*
X150991603Y-138249777D01*
X151027953Y-138114116D01*
X151098176Y-137992486D01*
X151197486Y-137893176D01*
X151319116Y-137822953D01*
X151454777Y-137786603D01*
X152325000Y-137782000D01*
X152395223Y-137786603D01*
G37*
G36*
X156725223Y-137786603D02*
G01*
X156860884Y-137822953D01*
X156982514Y-137893176D01*
X157081824Y-137992486D01*
X157152047Y-138114116D01*
X157188397Y-138249777D01*
X157188397Y-138390223D01*
X157152047Y-138525884D01*
X157081824Y-138647514D01*
X156982514Y-138746824D01*
X156860884Y-138817047D01*
X156725223Y-138853397D01*
X155555000Y-138858000D01*
X155484777Y-138853397D01*
X155349116Y-138817047D01*
X155227486Y-138746824D01*
X155128176Y-138647514D01*
X155057953Y-138525884D01*
X155021603Y-138390223D01*
X155021603Y-138249777D01*
X155057953Y-138114116D01*
X155128176Y-137992486D01*
X155227486Y-137893176D01*
X155349116Y-137822953D01*
X155484777Y-137786603D01*
X156655000Y-137782000D01*
X156725223Y-137786603D01*
G37*
G36*
X159591204Y-138155169D02*
G01*
X159647329Y-138192671D01*
X159684831Y-138248796D01*
X159698000Y-138315000D01*
X159698000Y-138685000D01*
X159684831Y-138751204D01*
X159647329Y-138807329D01*
X159591204Y-138844831D01*
X159525000Y-138858000D01*
X159255000Y-138858000D01*
X159188796Y-138844831D01*
X159132671Y-138807329D01*
X159095169Y-138751204D01*
X159082000Y-138685000D01*
X159082000Y-138315000D01*
X159095169Y-138248796D01*
X159132671Y-138192671D01*
X159188796Y-138155169D01*
X159255000Y-138142000D01*
X159525000Y-138142000D01*
X159591204Y-138155169D01*
G37*
G36*
X160611204Y-138155169D02*
G01*
X160667329Y-138192671D01*
X160704831Y-138248796D01*
X160718000Y-138315000D01*
X160718000Y-138685000D01*
X160704831Y-138751204D01*
X160667329Y-138807329D01*
X160611204Y-138844831D01*
X160545000Y-138858000D01*
X160275000Y-138858000D01*
X160208796Y-138844831D01*
X160152671Y-138807329D01*
X160115169Y-138751204D01*
X160102000Y-138685000D01*
X160102000Y-138315000D01*
X160115169Y-138248796D01*
X160152671Y-138192671D01*
X160208796Y-138155169D01*
X160275000Y-138142000D01*
X160545000Y-138142000D01*
X160611204Y-138155169D01*
G37*
G36*
X192974407Y-136965462D02*
G01*
X193144000Y-137040969D01*
X193294188Y-137150087D01*
X193418407Y-137288047D01*
X193511228Y-137448818D01*
X193568595Y-137625374D01*
X193588000Y-137810000D01*
X193568595Y-137994626D01*
X193511228Y-138171182D01*
X193418407Y-138331953D01*
X193294188Y-138469913D01*
X193144000Y-138579031D01*
X192974407Y-138654538D01*
X192792821Y-138693135D01*
X192607179Y-138693135D01*
X192425593Y-138654538D01*
X192256000Y-138579031D01*
X192105812Y-138469913D01*
X191981593Y-138331953D01*
X191888772Y-138171182D01*
X191831405Y-137994626D01*
X191812000Y-137810000D01*
X191831405Y-137625374D01*
X191888772Y-137448818D01*
X191981593Y-137288047D01*
X192105812Y-137150087D01*
X192256000Y-137040969D01*
X192425593Y-136965462D01*
X192607179Y-136926865D01*
X192792821Y-136926865D01*
X192974407Y-136965462D01*
G37*
G36*
X155717173Y-136544766D02*
G01*
X155818366Y-136596327D01*
X155898673Y-136676634D01*
X155950234Y-136777827D01*
X155968000Y-136890000D01*
X155950234Y-137002173D01*
X155898673Y-137103366D01*
X155818366Y-137183673D01*
X155717173Y-137235234D01*
X155605000Y-137253000D01*
X155492827Y-137235234D01*
X155391634Y-137183673D01*
X155311327Y-137103366D01*
X155259766Y-137002173D01*
X155242000Y-136890000D01*
X155259766Y-136777827D01*
X155311327Y-136676634D01*
X155391634Y-136596327D01*
X155492827Y-136544766D01*
X155605000Y-136527000D01*
X155717173Y-136544766D01*
G37*
G36*
X192974407Y-134425462D02*
G01*
X193144000Y-134500969D01*
X193294188Y-134610087D01*
X193418407Y-134748047D01*
X193511228Y-134908818D01*
X193568595Y-135085374D01*
X193588000Y-135270000D01*
X193568595Y-135454626D01*
X193511228Y-135631182D01*
X193418407Y-135791953D01*
X193294188Y-135929913D01*
X193144000Y-136039031D01*
X192974407Y-136114538D01*
X192792821Y-136153135D01*
X192607179Y-136153135D01*
X192425593Y-136114538D01*
X192256000Y-136039031D01*
X192105812Y-135929913D01*
X191981593Y-135791953D01*
X191888772Y-135631182D01*
X191831405Y-135454626D01*
X191812000Y-135270000D01*
X191831405Y-135085374D01*
X191888772Y-134908818D01*
X191981593Y-134748047D01*
X192105812Y-134610087D01*
X192256000Y-134500969D01*
X192425593Y-134425462D01*
X192607179Y-134386865D01*
X192792821Y-134386865D01*
X192974407Y-134425462D01*
G37*
G36*
X187511428Y-132705442D02*
G01*
X187707250Y-132781304D01*
X187885798Y-132891856D01*
X188040992Y-133033334D01*
X188167547Y-133200920D01*
X188261153Y-133388907D01*
X188318623Y-133590893D01*
X188338000Y-133800000D01*
X188318623Y-134009107D01*
X188261153Y-134211093D01*
X188167547Y-134399080D01*
X188040992Y-134566666D01*
X187885798Y-134708144D01*
X187707250Y-134818696D01*
X187511428Y-134894558D01*
X187305001Y-134933145D01*
X187094999Y-134933145D01*
X186888572Y-134894558D01*
X186692750Y-134818696D01*
X186514202Y-134708144D01*
X186359008Y-134566666D01*
X186232453Y-134399080D01*
X186138847Y-134211093D01*
X186081377Y-134009107D01*
X186062000Y-133800000D01*
X186081377Y-133590893D01*
X186138847Y-133388907D01*
X186232453Y-133200920D01*
X186359008Y-133033334D01*
X186514202Y-132891856D01*
X186692750Y-132781304D01*
X186888572Y-132705442D01*
X187094999Y-132666855D01*
X187305001Y-132666855D01*
X187511428Y-132705442D01*
G37*
G36*
X192974407Y-131885462D02*
G01*
X193144000Y-131960969D01*
X193294188Y-132070087D01*
X193418407Y-132208047D01*
X193511228Y-132368818D01*
X193568595Y-132545374D01*
X193588000Y-132730000D01*
X193568595Y-132914626D01*
X193511228Y-133091182D01*
X193418407Y-133251953D01*
X193294188Y-133389913D01*
X193144000Y-133499031D01*
X192974407Y-133574538D01*
X192792821Y-133613135D01*
X192607179Y-133613135D01*
X192425593Y-133574538D01*
X192256000Y-133499031D01*
X192105812Y-133389913D01*
X191981593Y-133251953D01*
X191888772Y-133091182D01*
X191831405Y-132914626D01*
X191812000Y-132730000D01*
X191831405Y-132545374D01*
X191888772Y-132368818D01*
X191981593Y-132208047D01*
X192105812Y-132070087D01*
X192256000Y-131960969D01*
X192425593Y-131885462D01*
X192607179Y-131846865D01*
X192792821Y-131846865D01*
X192974407Y-131885462D01*
G37*
G36*
X155717173Y-130764766D02*
G01*
X155818366Y-130816327D01*
X155898673Y-130896634D01*
X155950234Y-130997827D01*
X155968000Y-131110000D01*
X155950234Y-131222173D01*
X155898673Y-131323366D01*
X155818366Y-131403673D01*
X155717173Y-131455234D01*
X155605000Y-131473000D01*
X155492827Y-131455234D01*
X155391634Y-131403673D01*
X155311327Y-131323366D01*
X155259766Y-131222173D01*
X155242000Y-131110000D01*
X155259766Y-130997827D01*
X155311327Y-130896634D01*
X155391634Y-130816327D01*
X155492827Y-130764766D01*
X155605000Y-130747000D01*
X155717173Y-130764766D01*
G37*
G36*
X192974407Y-129345462D02*
G01*
X193144000Y-129420969D01*
X193294188Y-129530087D01*
X193418407Y-129668047D01*
X193511228Y-129828818D01*
X193568595Y-130005374D01*
X193588000Y-130190000D01*
X193568595Y-130374626D01*
X193511228Y-130551182D01*
X193418407Y-130711953D01*
X193294188Y-130849913D01*
X193144000Y-130959031D01*
X192974407Y-131034538D01*
X192792821Y-131073135D01*
X192607179Y-131073135D01*
X192425593Y-131034538D01*
X192256000Y-130959031D01*
X192105812Y-130849913D01*
X191981593Y-130711953D01*
X191888772Y-130551182D01*
X191831405Y-130374626D01*
X191812000Y-130190000D01*
X191831405Y-130005374D01*
X191888772Y-129828818D01*
X191981593Y-129668047D01*
X192105812Y-129530087D01*
X192256000Y-129420969D01*
X192425593Y-129345462D01*
X192607179Y-129306865D01*
X192792821Y-129306865D01*
X192974407Y-129345462D01*
G37*
G36*
X152395223Y-129146603D02*
G01*
X152530884Y-129182953D01*
X152652514Y-129253176D01*
X152751824Y-129352486D01*
X152822047Y-129474116D01*
X152858397Y-129609777D01*
X152858397Y-129750223D01*
X152822047Y-129885884D01*
X152751824Y-130007514D01*
X152652514Y-130106824D01*
X152530884Y-130177047D01*
X152395223Y-130213397D01*
X151525000Y-130218000D01*
X151454777Y-130213397D01*
X151319116Y-130177047D01*
X151197486Y-130106824D01*
X151098176Y-130007514D01*
X151027953Y-129885884D01*
X150991603Y-129750223D01*
X150991603Y-129609777D01*
X151027953Y-129474116D01*
X151098176Y-129352486D01*
X151197486Y-129253176D01*
X151319116Y-129182953D01*
X151454777Y-129146603D01*
X152325000Y-129142000D01*
X152395223Y-129146603D01*
G37*
G36*
X156725223Y-129146603D02*
G01*
X156860884Y-129182953D01*
X156982514Y-129253176D01*
X157081824Y-129352486D01*
X157152047Y-129474116D01*
X157188397Y-129609777D01*
X157188397Y-129750223D01*
X157152047Y-129885884D01*
X157081824Y-130007514D01*
X156982514Y-130106824D01*
X156860884Y-130177047D01*
X156725223Y-130213397D01*
X155555000Y-130218000D01*
X155484777Y-130213397D01*
X155349116Y-130177047D01*
X155227486Y-130106824D01*
X155128176Y-130007514D01*
X155057953Y-129885884D01*
X155021603Y-129750223D01*
X155021603Y-129609777D01*
X155057953Y-129474116D01*
X155128176Y-129352486D01*
X155227486Y-129253176D01*
X155349116Y-129182953D01*
X155484777Y-129146603D01*
X156655000Y-129142000D01*
X156725223Y-129146603D01*
G37*
G36*
X192974407Y-126805462D02*
G01*
X193144000Y-126880969D01*
X193294188Y-126990087D01*
X193418407Y-127128047D01*
X193511228Y-127288818D01*
X193568595Y-127465374D01*
X193588000Y-127650000D01*
X193568595Y-127834626D01*
X193511228Y-128011182D01*
X193418407Y-128171953D01*
X193294188Y-128309913D01*
X193144000Y-128419031D01*
X192974407Y-128494538D01*
X192792821Y-128533135D01*
X192607179Y-128533135D01*
X192425593Y-128494538D01*
X192256000Y-128419031D01*
X192105812Y-128309913D01*
X191981593Y-128171953D01*
X191888772Y-128011182D01*
X191831405Y-127834626D01*
X191812000Y-127650000D01*
X191831405Y-127465374D01*
X191888772Y-127288818D01*
X191981593Y-127128047D01*
X192105812Y-126990087D01*
X192256000Y-126880969D01*
X192425593Y-126805462D01*
X192607179Y-126766865D01*
X192792821Y-126766865D01*
X192974407Y-126805462D01*
G37*
G36*
X161224542Y-125214893D02*
G01*
X161236870Y-125223130D01*
X161245107Y-125235458D01*
X161248000Y-125250000D01*
X161248000Y-126950000D01*
X161245107Y-126964542D01*
X161236870Y-126976870D01*
X161224542Y-126985107D01*
X161210000Y-126988000D01*
X159510000Y-126988000D01*
X159495458Y-126985107D01*
X159483130Y-126976870D01*
X159474893Y-126964542D01*
X159472000Y-126950000D01*
X159472000Y-125250000D01*
X159474893Y-125235458D01*
X159483130Y-125223130D01*
X159495458Y-125214893D01*
X159510000Y-125212000D01*
X161210000Y-125212000D01*
X161224542Y-125214893D01*
G37*
G36*
X163174407Y-125255462D02*
G01*
X163344000Y-125330969D01*
X163494188Y-125440087D01*
X163618407Y-125578047D01*
X163711228Y-125738818D01*
X163768595Y-125915374D01*
X163788000Y-126100000D01*
X163768595Y-126284626D01*
X163711228Y-126461182D01*
X163618407Y-126621953D01*
X163494188Y-126759913D01*
X163344000Y-126869031D01*
X163174407Y-126944538D01*
X162992821Y-126983135D01*
X162807179Y-126983135D01*
X162625593Y-126944538D01*
X162456000Y-126869031D01*
X162305812Y-126759913D01*
X162181593Y-126621953D01*
X162088772Y-126461182D01*
X162031405Y-126284626D01*
X162012000Y-126100000D01*
X162031405Y-125915374D01*
X162088772Y-125738818D01*
X162181593Y-125578047D01*
X162305812Y-125440087D01*
X162456000Y-125330969D01*
X162625593Y-125255462D01*
X162807179Y-125216865D01*
X162992821Y-125216865D01*
X163174407Y-125255462D01*
G37*
G36*
X165714407Y-125255462D02*
G01*
X165884000Y-125330969D01*
X166034188Y-125440087D01*
X166158407Y-125578047D01*
X166251228Y-125738818D01*
X166308595Y-125915374D01*
X166328000Y-126100000D01*
X166308595Y-126284626D01*
X166251228Y-126461182D01*
X166158407Y-126621953D01*
X166034188Y-126759913D01*
X165884000Y-126869031D01*
X165714407Y-126944538D01*
X165532821Y-126983135D01*
X165347179Y-126983135D01*
X165165593Y-126944538D01*
X164996000Y-126869031D01*
X164845812Y-126759913D01*
X164721593Y-126621953D01*
X164628772Y-126461182D01*
X164571405Y-126284626D01*
X164552000Y-126100000D01*
X164571405Y-125915374D01*
X164628772Y-125738818D01*
X164721593Y-125578047D01*
X164845812Y-125440087D01*
X164996000Y-125330969D01*
X165165593Y-125255462D01*
X165347179Y-125216865D01*
X165532821Y-125216865D01*
X165714407Y-125255462D01*
G37*
G36*
X168254407Y-125255462D02*
G01*
X168424000Y-125330969D01*
X168574188Y-125440087D01*
X168698407Y-125578047D01*
X168791228Y-125738818D01*
X168848595Y-125915374D01*
X168868000Y-126100000D01*
X168848595Y-126284626D01*
X168791228Y-126461182D01*
X168698407Y-126621953D01*
X168574188Y-126759913D01*
X168424000Y-126869031D01*
X168254407Y-126944538D01*
X168072821Y-126983135D01*
X167887179Y-126983135D01*
X167705593Y-126944538D01*
X167536000Y-126869031D01*
X167385812Y-126759913D01*
X167261593Y-126621953D01*
X167168772Y-126461182D01*
X167111405Y-126284626D01*
X167092000Y-126100000D01*
X167111405Y-125915374D01*
X167168772Y-125738818D01*
X167261593Y-125578047D01*
X167385812Y-125440087D01*
X167536000Y-125330969D01*
X167705593Y-125255462D01*
X167887179Y-125216865D01*
X168072821Y-125216865D01*
X168254407Y-125255462D01*
G37*
G36*
X175874407Y-123395462D02*
G01*
X176044000Y-123470969D01*
X176194188Y-123580087D01*
X176318407Y-123718047D01*
X176411228Y-123878818D01*
X176468595Y-124055374D01*
X176488000Y-124240000D01*
X176468595Y-124424626D01*
X176411228Y-124601182D01*
X176318407Y-124761953D01*
X176194188Y-124899913D01*
X176044000Y-125009031D01*
X175874407Y-125084538D01*
X175692821Y-125123135D01*
X175507179Y-125123135D01*
X175325593Y-125084538D01*
X175156000Y-125009031D01*
X175005812Y-124899913D01*
X174881593Y-124761953D01*
X174788772Y-124601182D01*
X174731405Y-124424626D01*
X174712000Y-124240000D01*
X174731405Y-124055374D01*
X174788772Y-123878818D01*
X174881593Y-123718047D01*
X175005812Y-123580087D01*
X175156000Y-123470969D01*
X175325593Y-123395462D01*
X175507179Y-123356865D01*
X175692821Y-123356865D01*
X175874407Y-123395462D01*
G37*
G36*
X176464542Y-120814893D02*
G01*
X176476870Y-120823130D01*
X176485107Y-120835458D01*
X176488000Y-120850000D01*
X176488000Y-122550000D01*
X176485107Y-122564542D01*
X176476870Y-122576870D01*
X176464542Y-122585107D01*
X176450000Y-122588000D01*
X174750000Y-122588000D01*
X174735458Y-122585107D01*
X174723130Y-122576870D01*
X174714893Y-122564542D01*
X174712000Y-122550000D01*
X174712000Y-120850000D01*
X174714893Y-120835458D01*
X174723130Y-120823130D01*
X174735458Y-120814893D01*
X174750000Y-120812000D01*
X176450000Y-120812000D01*
X176464542Y-120814893D01*
G37*
M02*
