G04 #@! TF.GenerationSoftware,KiCad,Pcbnew,8.0.1*
G04 #@! TF.CreationDate,2024-10-08T21:23:53-04:00*
G04 #@! TF.ProjectId,Digital,44696769-7461-46c2-9e6b-696361645f70,rev?*
G04 #@! TF.SameCoordinates,Original*
G04 #@! TF.FileFunction,Legend,Bot*
G04 #@! TF.FilePolarity,Positive*
%FSLAX46Y46*%
G04 Gerber Fmt 4.6, Leading zero omitted, Abs format (unit mm)*
G04 Created by KiCad (PCBNEW 8.0.1) date 2024-10-08 21:23:53*
%MOMM*%
%LPD*%
G01*
G04 APERTURE LIST*
G04 Aperture macros list*
%AMRoundRect*
0 Rectangle with rounded corners*
0 $1 Rounding radius*
0 $2 $3 $4 $5 $6 $7 $8 $9 X,Y pos of 4 corners*
0 Add a 4 corners polygon primitive as box body*
4,1,4,$2,$3,$4,$5,$6,$7,$8,$9,$2,$3,0*
0 Add four circle primitives for the rounded corners*
1,1,$1+$1,$2,$3*
1,1,$1+$1,$4,$5*
1,1,$1+$1,$6,$7*
1,1,$1+$1,$8,$9*
0 Add four rect primitives between the rounded corners*
20,1,$1+$1,$2,$3,$4,$5,0*
20,1,$1+$1,$4,$5,$6,$7,0*
20,1,$1+$1,$6,$7,$8,$9,0*
20,1,$1+$1,$8,$9,$2,$3,0*%
G04 Aperture macros list end*
%ADD10C,0.100000*%
%ADD11C,0.125000*%
%ADD12C,0.150000*%
%ADD13C,0.120000*%
%ADD14RoundRect,0.038000X-0.850000X-0.850000X0.850000X-0.850000X0.850000X0.850000X-0.850000X0.850000X0*%
%ADD15O,1.776000X1.776000*%
%ADD16RoundRect,0.038000X0.850000X0.850000X-0.850000X0.850000X-0.850000X-0.850000X0.850000X-0.850000X0*%
%ADD17C,2.276000*%
%ADD18C,0.726000*%
%ADD19O,2.176000X1.076000*%
%ADD20O,1.876000X1.076000*%
%ADD21RoundRect,0.154000X0.154000X0.204000X-0.154000X0.204000X-0.154000X-0.204000X0.154000X-0.204000X0*%
G04 APERTURE END LIST*
D10*
X151000000Y-115000000D02*
X151000000Y-140400000D01*
X151000000Y-140400000D02*
X183500000Y-140400000D01*
X183500000Y-115000000D02*
X183500000Y-140400000D01*
X151000000Y-115000000D02*
X183500000Y-115000000D01*
D11*
X152109523Y-146434333D02*
X152490476Y-146434333D01*
X152299999Y-146624809D02*
X152299999Y-146243857D01*
D10*
X188195556Y-118244360D02*
X187445556Y-118244360D01*
X187445556Y-118244360D02*
X187981270Y-118494360D01*
X187981270Y-118494360D02*
X187445556Y-118744360D01*
X187445556Y-118744360D02*
X188195556Y-118744360D01*
X188195556Y-119101503D02*
X187695556Y-119101503D01*
X187445556Y-119101503D02*
X187481270Y-119065789D01*
X187481270Y-119065789D02*
X187516984Y-119101503D01*
X187516984Y-119101503D02*
X187481270Y-119137217D01*
X187481270Y-119137217D02*
X187445556Y-119101503D01*
X187445556Y-119101503D02*
X187516984Y-119101503D01*
X188159842Y-119780075D02*
X188195556Y-119708646D01*
X188195556Y-119708646D02*
X188195556Y-119565789D01*
X188195556Y-119565789D02*
X188159842Y-119494360D01*
X188159842Y-119494360D02*
X188124127Y-119458646D01*
X188124127Y-119458646D02*
X188052699Y-119422932D01*
X188052699Y-119422932D02*
X187838413Y-119422932D01*
X187838413Y-119422932D02*
X187766984Y-119458646D01*
X187766984Y-119458646D02*
X187731270Y-119494360D01*
X187731270Y-119494360D02*
X187695556Y-119565789D01*
X187695556Y-119565789D02*
X187695556Y-119708646D01*
X187695556Y-119708646D02*
X187731270Y-119780075D01*
X188195556Y-120101503D02*
X187445556Y-120101503D01*
X188195556Y-120422932D02*
X187802699Y-120422932D01*
X187802699Y-120422932D02*
X187731270Y-120387217D01*
X187731270Y-120387217D02*
X187695556Y-120315789D01*
X187695556Y-120315789D02*
X187695556Y-120208646D01*
X187695556Y-120208646D02*
X187731270Y-120137217D01*
X187731270Y-120137217D02*
X187766984Y-120101503D01*
X188195556Y-121101503D02*
X187802699Y-121101503D01*
X187802699Y-121101503D02*
X187731270Y-121065788D01*
X187731270Y-121065788D02*
X187695556Y-120994360D01*
X187695556Y-120994360D02*
X187695556Y-120851503D01*
X187695556Y-120851503D02*
X187731270Y-120780074D01*
X188159842Y-121101503D02*
X188195556Y-121030074D01*
X188195556Y-121030074D02*
X188195556Y-120851503D01*
X188195556Y-120851503D02*
X188159842Y-120780074D01*
X188159842Y-120780074D02*
X188088413Y-120744360D01*
X188088413Y-120744360D02*
X188016984Y-120744360D01*
X188016984Y-120744360D02*
X187945556Y-120780074D01*
X187945556Y-120780074D02*
X187909842Y-120851503D01*
X187909842Y-120851503D02*
X187909842Y-121030074D01*
X187909842Y-121030074D02*
X187874127Y-121101503D01*
X188159842Y-121744359D02*
X188195556Y-121672931D01*
X188195556Y-121672931D02*
X188195556Y-121530074D01*
X188195556Y-121530074D02*
X188159842Y-121458645D01*
X188159842Y-121458645D02*
X188088413Y-121422931D01*
X188088413Y-121422931D02*
X187802699Y-121422931D01*
X187802699Y-121422931D02*
X187731270Y-121458645D01*
X187731270Y-121458645D02*
X187695556Y-121530074D01*
X187695556Y-121530074D02*
X187695556Y-121672931D01*
X187695556Y-121672931D02*
X187731270Y-121744359D01*
X187731270Y-121744359D02*
X187802699Y-121780074D01*
X187802699Y-121780074D02*
X187874127Y-121780074D01*
X187874127Y-121780074D02*
X187945556Y-121422931D01*
X188195556Y-122208645D02*
X188159842Y-122137216D01*
X188159842Y-122137216D02*
X188088413Y-122101502D01*
X188088413Y-122101502D02*
X187445556Y-122101502D01*
X188159842Y-123030074D02*
X188195556Y-123137217D01*
X188195556Y-123137217D02*
X188195556Y-123315788D01*
X188195556Y-123315788D02*
X188159842Y-123387217D01*
X188159842Y-123387217D02*
X188124127Y-123422931D01*
X188124127Y-123422931D02*
X188052699Y-123458645D01*
X188052699Y-123458645D02*
X187981270Y-123458645D01*
X187981270Y-123458645D02*
X187909842Y-123422931D01*
X187909842Y-123422931D02*
X187874127Y-123387217D01*
X187874127Y-123387217D02*
X187838413Y-123315788D01*
X187838413Y-123315788D02*
X187802699Y-123172931D01*
X187802699Y-123172931D02*
X187766984Y-123101502D01*
X187766984Y-123101502D02*
X187731270Y-123065788D01*
X187731270Y-123065788D02*
X187659842Y-123030074D01*
X187659842Y-123030074D02*
X187588413Y-123030074D01*
X187588413Y-123030074D02*
X187516984Y-123065788D01*
X187516984Y-123065788D02*
X187481270Y-123101502D01*
X187481270Y-123101502D02*
X187445556Y-123172931D01*
X187445556Y-123172931D02*
X187445556Y-123351502D01*
X187445556Y-123351502D02*
X187481270Y-123458645D01*
X188195556Y-123780074D02*
X187445556Y-123780074D01*
X188195556Y-124101503D02*
X187802699Y-124101503D01*
X187802699Y-124101503D02*
X187731270Y-124065788D01*
X187731270Y-124065788D02*
X187695556Y-123994360D01*
X187695556Y-123994360D02*
X187695556Y-123887217D01*
X187695556Y-123887217D02*
X187731270Y-123815788D01*
X187731270Y-123815788D02*
X187766984Y-123780074D01*
X188195556Y-124458645D02*
X187695556Y-124458645D01*
X187445556Y-124458645D02*
X187481270Y-124422931D01*
X187481270Y-124422931D02*
X187516984Y-124458645D01*
X187516984Y-124458645D02*
X187481270Y-124494359D01*
X187481270Y-124494359D02*
X187445556Y-124458645D01*
X187445556Y-124458645D02*
X187516984Y-124458645D01*
X187695556Y-124815788D02*
X188445556Y-124815788D01*
X187731270Y-124815788D02*
X187695556Y-124887217D01*
X187695556Y-124887217D02*
X187695556Y-125030074D01*
X187695556Y-125030074D02*
X187731270Y-125101502D01*
X187731270Y-125101502D02*
X187766984Y-125137217D01*
X187766984Y-125137217D02*
X187838413Y-125172931D01*
X187838413Y-125172931D02*
X188052699Y-125172931D01*
X188052699Y-125172931D02*
X188124127Y-125137217D01*
X188124127Y-125137217D02*
X188159842Y-125101502D01*
X188159842Y-125101502D02*
X188195556Y-125030074D01*
X188195556Y-125030074D02*
X188195556Y-124887217D01*
X188195556Y-124887217D02*
X188159842Y-124815788D01*
X188195556Y-125494359D02*
X187695556Y-125494359D01*
X187766984Y-125494359D02*
X187731270Y-125530073D01*
X187731270Y-125530073D02*
X187695556Y-125601502D01*
X187695556Y-125601502D02*
X187695556Y-125708645D01*
X187695556Y-125708645D02*
X187731270Y-125780073D01*
X187731270Y-125780073D02*
X187802699Y-125815788D01*
X187802699Y-125815788D02*
X188195556Y-125815788D01*
X187802699Y-125815788D02*
X187731270Y-125851502D01*
X187731270Y-125851502D02*
X187695556Y-125922930D01*
X187695556Y-125922930D02*
X187695556Y-126030073D01*
X187695556Y-126030073D02*
X187731270Y-126101502D01*
X187731270Y-126101502D02*
X187802699Y-126137216D01*
X187802699Y-126137216D02*
X188195556Y-126137216D01*
X188195556Y-126815788D02*
X187802699Y-126815788D01*
X187802699Y-126815788D02*
X187731270Y-126780073D01*
X187731270Y-126780073D02*
X187695556Y-126708645D01*
X187695556Y-126708645D02*
X187695556Y-126565788D01*
X187695556Y-126565788D02*
X187731270Y-126494359D01*
X188159842Y-126815788D02*
X188195556Y-126744359D01*
X188195556Y-126744359D02*
X188195556Y-126565788D01*
X188195556Y-126565788D02*
X188159842Y-126494359D01*
X188159842Y-126494359D02*
X188088413Y-126458645D01*
X188088413Y-126458645D02*
X188016984Y-126458645D01*
X188016984Y-126458645D02*
X187945556Y-126494359D01*
X187945556Y-126494359D02*
X187909842Y-126565788D01*
X187909842Y-126565788D02*
X187909842Y-126744359D01*
X187909842Y-126744359D02*
X187874127Y-126815788D01*
X187695556Y-127172930D02*
X188195556Y-127172930D01*
X187766984Y-127172930D02*
X187731270Y-127208644D01*
X187731270Y-127208644D02*
X187695556Y-127280073D01*
X187695556Y-127280073D02*
X187695556Y-127387216D01*
X187695556Y-127387216D02*
X187731270Y-127458644D01*
X187731270Y-127458644D02*
X187802699Y-127494359D01*
X187802699Y-127494359D02*
X188195556Y-127494359D01*
X188653014Y-118137217D02*
X189403014Y-118387217D01*
X189403014Y-118387217D02*
X188653014Y-118637217D01*
X188653014Y-119030074D02*
X188653014Y-119101503D01*
X188653014Y-119101503D02*
X188688728Y-119172931D01*
X188688728Y-119172931D02*
X188724442Y-119208646D01*
X188724442Y-119208646D02*
X188795871Y-119244360D01*
X188795871Y-119244360D02*
X188938728Y-119280074D01*
X188938728Y-119280074D02*
X189117300Y-119280074D01*
X189117300Y-119280074D02*
X189260157Y-119244360D01*
X189260157Y-119244360D02*
X189331585Y-119208646D01*
X189331585Y-119208646D02*
X189367300Y-119172931D01*
X189367300Y-119172931D02*
X189403014Y-119101503D01*
X189403014Y-119101503D02*
X189403014Y-119030074D01*
X189403014Y-119030074D02*
X189367300Y-118958646D01*
X189367300Y-118958646D02*
X189331585Y-118922931D01*
X189331585Y-118922931D02*
X189260157Y-118887217D01*
X189260157Y-118887217D02*
X189117300Y-118851503D01*
X189117300Y-118851503D02*
X188938728Y-118851503D01*
X188938728Y-118851503D02*
X188795871Y-118887217D01*
X188795871Y-118887217D02*
X188724442Y-118922931D01*
X188724442Y-118922931D02*
X188688728Y-118958646D01*
X188688728Y-118958646D02*
X188653014Y-119030074D01*
X189331585Y-119601503D02*
X189367300Y-119637217D01*
X189367300Y-119637217D02*
X189403014Y-119601503D01*
X189403014Y-119601503D02*
X189367300Y-119565789D01*
X189367300Y-119565789D02*
X189331585Y-119601503D01*
X189331585Y-119601503D02*
X189403014Y-119601503D01*
X188653014Y-120101503D02*
X188653014Y-120172932D01*
X188653014Y-120172932D02*
X188688728Y-120244360D01*
X188688728Y-120244360D02*
X188724442Y-120280075D01*
X188724442Y-120280075D02*
X188795871Y-120315789D01*
X188795871Y-120315789D02*
X188938728Y-120351503D01*
X188938728Y-120351503D02*
X189117300Y-120351503D01*
X189117300Y-120351503D02*
X189260157Y-120315789D01*
X189260157Y-120315789D02*
X189331585Y-120280075D01*
X189331585Y-120280075D02*
X189367300Y-120244360D01*
X189367300Y-120244360D02*
X189403014Y-120172932D01*
X189403014Y-120172932D02*
X189403014Y-120101503D01*
X189403014Y-120101503D02*
X189367300Y-120030075D01*
X189367300Y-120030075D02*
X189331585Y-119994360D01*
X189331585Y-119994360D02*
X189260157Y-119958646D01*
X189260157Y-119958646D02*
X189117300Y-119922932D01*
X189117300Y-119922932D02*
X188938728Y-119922932D01*
X188938728Y-119922932D02*
X188795871Y-119958646D01*
X188795871Y-119958646D02*
X188724442Y-119994360D01*
X188724442Y-119994360D02*
X188688728Y-120030075D01*
X188688728Y-120030075D02*
X188653014Y-120101503D01*
X189403014Y-124458645D02*
X189403014Y-124030074D01*
X189403014Y-124244359D02*
X188653014Y-124244359D01*
X188653014Y-124244359D02*
X188760157Y-124172931D01*
X188760157Y-124172931D02*
X188831585Y-124101502D01*
X188831585Y-124101502D02*
X188867300Y-124030074D01*
X188653014Y-124922931D02*
X188653014Y-124994360D01*
X188653014Y-124994360D02*
X188688728Y-125065788D01*
X188688728Y-125065788D02*
X188724442Y-125101503D01*
X188724442Y-125101503D02*
X188795871Y-125137217D01*
X188795871Y-125137217D02*
X188938728Y-125172931D01*
X188938728Y-125172931D02*
X189117300Y-125172931D01*
X189117300Y-125172931D02*
X189260157Y-125137217D01*
X189260157Y-125137217D02*
X189331585Y-125101503D01*
X189331585Y-125101503D02*
X189367300Y-125065788D01*
X189367300Y-125065788D02*
X189403014Y-124994360D01*
X189403014Y-124994360D02*
X189403014Y-124922931D01*
X189403014Y-124922931D02*
X189367300Y-124851503D01*
X189367300Y-124851503D02*
X189331585Y-124815788D01*
X189331585Y-124815788D02*
X189260157Y-124780074D01*
X189260157Y-124780074D02*
X189117300Y-124744360D01*
X189117300Y-124744360D02*
X188938728Y-124744360D01*
X188938728Y-124744360D02*
X188795871Y-124780074D01*
X188795871Y-124780074D02*
X188724442Y-124815788D01*
X188724442Y-124815788D02*
X188688728Y-124851503D01*
X188688728Y-124851503D02*
X188653014Y-124922931D01*
X188617300Y-126030074D02*
X189581585Y-125387217D01*
X188653014Y-126422931D02*
X188653014Y-126494360D01*
X188653014Y-126494360D02*
X188688728Y-126565788D01*
X188688728Y-126565788D02*
X188724442Y-126601503D01*
X188724442Y-126601503D02*
X188795871Y-126637217D01*
X188795871Y-126637217D02*
X188938728Y-126672931D01*
X188938728Y-126672931D02*
X189117300Y-126672931D01*
X189117300Y-126672931D02*
X189260157Y-126637217D01*
X189260157Y-126637217D02*
X189331585Y-126601503D01*
X189331585Y-126601503D02*
X189367300Y-126565788D01*
X189367300Y-126565788D02*
X189403014Y-126494360D01*
X189403014Y-126494360D02*
X189403014Y-126422931D01*
X189403014Y-126422931D02*
X189367300Y-126351503D01*
X189367300Y-126351503D02*
X189331585Y-126315788D01*
X189331585Y-126315788D02*
X189260157Y-126280074D01*
X189260157Y-126280074D02*
X189117300Y-126244360D01*
X189117300Y-126244360D02*
X188938728Y-126244360D01*
X188938728Y-126244360D02*
X188795871Y-126280074D01*
X188795871Y-126280074D02*
X188724442Y-126315788D01*
X188724442Y-126315788D02*
X188688728Y-126351503D01*
X188688728Y-126351503D02*
X188653014Y-126422931D01*
X188974442Y-127101503D02*
X188938728Y-127030074D01*
X188938728Y-127030074D02*
X188903014Y-126994360D01*
X188903014Y-126994360D02*
X188831585Y-126958646D01*
X188831585Y-126958646D02*
X188795871Y-126958646D01*
X188795871Y-126958646D02*
X188724442Y-126994360D01*
X188724442Y-126994360D02*
X188688728Y-127030074D01*
X188688728Y-127030074D02*
X188653014Y-127101503D01*
X188653014Y-127101503D02*
X188653014Y-127244360D01*
X188653014Y-127244360D02*
X188688728Y-127315789D01*
X188688728Y-127315789D02*
X188724442Y-127351503D01*
X188724442Y-127351503D02*
X188795871Y-127387217D01*
X188795871Y-127387217D02*
X188831585Y-127387217D01*
X188831585Y-127387217D02*
X188903014Y-127351503D01*
X188903014Y-127351503D02*
X188938728Y-127315789D01*
X188938728Y-127315789D02*
X188974442Y-127244360D01*
X188974442Y-127244360D02*
X188974442Y-127101503D01*
X188974442Y-127101503D02*
X189010157Y-127030074D01*
X189010157Y-127030074D02*
X189045871Y-126994360D01*
X189045871Y-126994360D02*
X189117300Y-126958646D01*
X189117300Y-126958646D02*
X189260157Y-126958646D01*
X189260157Y-126958646D02*
X189331585Y-126994360D01*
X189331585Y-126994360D02*
X189367300Y-127030074D01*
X189367300Y-127030074D02*
X189403014Y-127101503D01*
X189403014Y-127101503D02*
X189403014Y-127244360D01*
X189403014Y-127244360D02*
X189367300Y-127315789D01*
X189367300Y-127315789D02*
X189331585Y-127351503D01*
X189331585Y-127351503D02*
X189260157Y-127387217D01*
X189260157Y-127387217D02*
X189117300Y-127387217D01*
X189117300Y-127387217D02*
X189045871Y-127351503D01*
X189045871Y-127351503D02*
X189010157Y-127315789D01*
X189010157Y-127315789D02*
X188974442Y-127244360D01*
X188617300Y-128244360D02*
X189581585Y-127601503D01*
X188724442Y-128458646D02*
X188688728Y-128494360D01*
X188688728Y-128494360D02*
X188653014Y-128565789D01*
X188653014Y-128565789D02*
X188653014Y-128744360D01*
X188653014Y-128744360D02*
X188688728Y-128815789D01*
X188688728Y-128815789D02*
X188724442Y-128851503D01*
X188724442Y-128851503D02*
X188795871Y-128887217D01*
X188795871Y-128887217D02*
X188867300Y-128887217D01*
X188867300Y-128887217D02*
X188974442Y-128851503D01*
X188974442Y-128851503D02*
X189403014Y-128422931D01*
X189403014Y-128422931D02*
X189403014Y-128887217D01*
X188653014Y-129351503D02*
X188653014Y-129422932D01*
X188653014Y-129422932D02*
X188688728Y-129494360D01*
X188688728Y-129494360D02*
X188724442Y-129530075D01*
X188724442Y-129530075D02*
X188795871Y-129565789D01*
X188795871Y-129565789D02*
X188938728Y-129601503D01*
X188938728Y-129601503D02*
X189117300Y-129601503D01*
X189117300Y-129601503D02*
X189260157Y-129565789D01*
X189260157Y-129565789D02*
X189331585Y-129530075D01*
X189331585Y-129530075D02*
X189367300Y-129494360D01*
X189367300Y-129494360D02*
X189403014Y-129422932D01*
X189403014Y-129422932D02*
X189403014Y-129351503D01*
X189403014Y-129351503D02*
X189367300Y-129280075D01*
X189367300Y-129280075D02*
X189331585Y-129244360D01*
X189331585Y-129244360D02*
X189260157Y-129208646D01*
X189260157Y-129208646D02*
X189117300Y-129172932D01*
X189117300Y-129172932D02*
X188938728Y-129172932D01*
X188938728Y-129172932D02*
X188795871Y-129208646D01*
X188795871Y-129208646D02*
X188724442Y-129244360D01*
X188724442Y-129244360D02*
X188688728Y-129280075D01*
X188688728Y-129280075D02*
X188653014Y-129351503D01*
X188724442Y-129887218D02*
X188688728Y-129922932D01*
X188688728Y-129922932D02*
X188653014Y-129994361D01*
X188653014Y-129994361D02*
X188653014Y-130172932D01*
X188653014Y-130172932D02*
X188688728Y-130244361D01*
X188688728Y-130244361D02*
X188724442Y-130280075D01*
X188724442Y-130280075D02*
X188795871Y-130315789D01*
X188795871Y-130315789D02*
X188867300Y-130315789D01*
X188867300Y-130315789D02*
X188974442Y-130280075D01*
X188974442Y-130280075D02*
X189403014Y-129851503D01*
X189403014Y-129851503D02*
X189403014Y-130315789D01*
X188903014Y-130958647D02*
X189403014Y-130958647D01*
X188617300Y-130780075D02*
X189153014Y-130601504D01*
X189153014Y-130601504D02*
X189153014Y-131065789D01*
D12*
X186150414Y-118170112D02*
X186150414Y-118598684D01*
X186900414Y-118384398D02*
X186150414Y-118384398D01*
X186864700Y-119134398D02*
X186900414Y-119062970D01*
X186900414Y-119062970D02*
X186900414Y-118920113D01*
X186900414Y-118920113D02*
X186864700Y-118848684D01*
X186864700Y-118848684D02*
X186793271Y-118812970D01*
X186793271Y-118812970D02*
X186507557Y-118812970D01*
X186507557Y-118812970D02*
X186436128Y-118848684D01*
X186436128Y-118848684D02*
X186400414Y-118920113D01*
X186400414Y-118920113D02*
X186400414Y-119062970D01*
X186400414Y-119062970D02*
X186436128Y-119134398D01*
X186436128Y-119134398D02*
X186507557Y-119170113D01*
X186507557Y-119170113D02*
X186578985Y-119170113D01*
X186578985Y-119170113D02*
X186650414Y-118812970D01*
X186900414Y-119491541D02*
X186400414Y-119491541D01*
X186543271Y-119491541D02*
X186471842Y-119527255D01*
X186471842Y-119527255D02*
X186436128Y-119562970D01*
X186436128Y-119562970D02*
X186400414Y-119634398D01*
X186400414Y-119634398D02*
X186400414Y-119705827D01*
X186900414Y-119955827D02*
X186400414Y-119955827D01*
X186471842Y-119955827D02*
X186436128Y-119991541D01*
X186436128Y-119991541D02*
X186400414Y-120062970D01*
X186400414Y-120062970D02*
X186400414Y-120170113D01*
X186400414Y-120170113D02*
X186436128Y-120241541D01*
X186436128Y-120241541D02*
X186507557Y-120277256D01*
X186507557Y-120277256D02*
X186900414Y-120277256D01*
X186507557Y-120277256D02*
X186436128Y-120312970D01*
X186436128Y-120312970D02*
X186400414Y-120384398D01*
X186400414Y-120384398D02*
X186400414Y-120491541D01*
X186400414Y-120491541D02*
X186436128Y-120562970D01*
X186436128Y-120562970D02*
X186507557Y-120598684D01*
X186507557Y-120598684D02*
X186900414Y-120598684D01*
X186900414Y-120955827D02*
X186400414Y-120955827D01*
X186150414Y-120955827D02*
X186186128Y-120920113D01*
X186186128Y-120920113D02*
X186221842Y-120955827D01*
X186221842Y-120955827D02*
X186186128Y-120991541D01*
X186186128Y-120991541D02*
X186150414Y-120955827D01*
X186150414Y-120955827D02*
X186221842Y-120955827D01*
X186400414Y-121312970D02*
X186900414Y-121312970D01*
X186471842Y-121312970D02*
X186436128Y-121348684D01*
X186436128Y-121348684D02*
X186400414Y-121420113D01*
X186400414Y-121420113D02*
X186400414Y-121527256D01*
X186400414Y-121527256D02*
X186436128Y-121598684D01*
X186436128Y-121598684D02*
X186507557Y-121634399D01*
X186507557Y-121634399D02*
X186900414Y-121634399D01*
X186900414Y-122312970D02*
X186507557Y-122312970D01*
X186507557Y-122312970D02*
X186436128Y-122277255D01*
X186436128Y-122277255D02*
X186400414Y-122205827D01*
X186400414Y-122205827D02*
X186400414Y-122062970D01*
X186400414Y-122062970D02*
X186436128Y-121991541D01*
X186864700Y-122312970D02*
X186900414Y-122241541D01*
X186900414Y-122241541D02*
X186900414Y-122062970D01*
X186900414Y-122062970D02*
X186864700Y-121991541D01*
X186864700Y-121991541D02*
X186793271Y-121955827D01*
X186793271Y-121955827D02*
X186721842Y-121955827D01*
X186721842Y-121955827D02*
X186650414Y-121991541D01*
X186650414Y-121991541D02*
X186614700Y-122062970D01*
X186614700Y-122062970D02*
X186614700Y-122241541D01*
X186614700Y-122241541D02*
X186578985Y-122312970D01*
X186400414Y-122562969D02*
X186400414Y-122848683D01*
X186150414Y-122670112D02*
X186793271Y-122670112D01*
X186793271Y-122670112D02*
X186864700Y-122705826D01*
X186864700Y-122705826D02*
X186900414Y-122777255D01*
X186900414Y-122777255D02*
X186900414Y-122848683D01*
X186900414Y-123205826D02*
X186864700Y-123134397D01*
X186864700Y-123134397D02*
X186828985Y-123098683D01*
X186828985Y-123098683D02*
X186757557Y-123062969D01*
X186757557Y-123062969D02*
X186543271Y-123062969D01*
X186543271Y-123062969D02*
X186471842Y-123098683D01*
X186471842Y-123098683D02*
X186436128Y-123134397D01*
X186436128Y-123134397D02*
X186400414Y-123205826D01*
X186400414Y-123205826D02*
X186400414Y-123312969D01*
X186400414Y-123312969D02*
X186436128Y-123384397D01*
X186436128Y-123384397D02*
X186471842Y-123420112D01*
X186471842Y-123420112D02*
X186543271Y-123455826D01*
X186543271Y-123455826D02*
X186757557Y-123455826D01*
X186757557Y-123455826D02*
X186828985Y-123420112D01*
X186828985Y-123420112D02*
X186864700Y-123384397D01*
X186864700Y-123384397D02*
X186900414Y-123312969D01*
X186900414Y-123312969D02*
X186900414Y-123205826D01*
X186900414Y-123777254D02*
X186400414Y-123777254D01*
X186543271Y-123777254D02*
X186471842Y-123812968D01*
X186471842Y-123812968D02*
X186436128Y-123848683D01*
X186436128Y-123848683D02*
X186400414Y-123920111D01*
X186400414Y-123920111D02*
X186400414Y-123991540D01*
X186900414Y-125170112D02*
X186900414Y-124812969D01*
X186900414Y-124812969D02*
X186150414Y-124812969D01*
X186900414Y-125527255D02*
X186864700Y-125455826D01*
X186864700Y-125455826D02*
X186828985Y-125420112D01*
X186828985Y-125420112D02*
X186757557Y-125384398D01*
X186757557Y-125384398D02*
X186543271Y-125384398D01*
X186543271Y-125384398D02*
X186471842Y-125420112D01*
X186471842Y-125420112D02*
X186436128Y-125455826D01*
X186436128Y-125455826D02*
X186400414Y-125527255D01*
X186400414Y-125527255D02*
X186400414Y-125634398D01*
X186400414Y-125634398D02*
X186436128Y-125705826D01*
X186436128Y-125705826D02*
X186471842Y-125741541D01*
X186471842Y-125741541D02*
X186543271Y-125777255D01*
X186543271Y-125777255D02*
X186757557Y-125777255D01*
X186757557Y-125777255D02*
X186828985Y-125741541D01*
X186828985Y-125741541D02*
X186864700Y-125705826D01*
X186864700Y-125705826D02*
X186900414Y-125634398D01*
X186900414Y-125634398D02*
X186900414Y-125527255D01*
X186400414Y-126420112D02*
X187007557Y-126420112D01*
X187007557Y-126420112D02*
X187078985Y-126384397D01*
X187078985Y-126384397D02*
X187114700Y-126348683D01*
X187114700Y-126348683D02*
X187150414Y-126277254D01*
X187150414Y-126277254D02*
X187150414Y-126170112D01*
X187150414Y-126170112D02*
X187114700Y-126098683D01*
X186864700Y-126420112D02*
X186900414Y-126348683D01*
X186900414Y-126348683D02*
X186900414Y-126205826D01*
X186900414Y-126205826D02*
X186864700Y-126134397D01*
X186864700Y-126134397D02*
X186828985Y-126098683D01*
X186828985Y-126098683D02*
X186757557Y-126062969D01*
X186757557Y-126062969D02*
X186543271Y-126062969D01*
X186543271Y-126062969D02*
X186471842Y-126098683D01*
X186471842Y-126098683D02*
X186436128Y-126134397D01*
X186436128Y-126134397D02*
X186400414Y-126205826D01*
X186400414Y-126205826D02*
X186400414Y-126348683D01*
X186400414Y-126348683D02*
X186436128Y-126420112D01*
X186900414Y-126777254D02*
X186400414Y-126777254D01*
X186150414Y-126777254D02*
X186186128Y-126741540D01*
X186186128Y-126741540D02*
X186221842Y-126777254D01*
X186221842Y-126777254D02*
X186186128Y-126812968D01*
X186186128Y-126812968D02*
X186150414Y-126777254D01*
X186150414Y-126777254D02*
X186221842Y-126777254D01*
X186864700Y-127455826D02*
X186900414Y-127384397D01*
X186900414Y-127384397D02*
X186900414Y-127241540D01*
X186900414Y-127241540D02*
X186864700Y-127170111D01*
X186864700Y-127170111D02*
X186828985Y-127134397D01*
X186828985Y-127134397D02*
X186757557Y-127098683D01*
X186757557Y-127098683D02*
X186543271Y-127098683D01*
X186543271Y-127098683D02*
X186471842Y-127134397D01*
X186471842Y-127134397D02*
X186436128Y-127170111D01*
X186436128Y-127170111D02*
X186400414Y-127241540D01*
X186400414Y-127241540D02*
X186400414Y-127384397D01*
X186400414Y-127384397D02*
X186436128Y-127455826D01*
X186507557Y-128598683D02*
X186543271Y-128705826D01*
X186543271Y-128705826D02*
X186578985Y-128741540D01*
X186578985Y-128741540D02*
X186650414Y-128777254D01*
X186650414Y-128777254D02*
X186757557Y-128777254D01*
X186757557Y-128777254D02*
X186828985Y-128741540D01*
X186828985Y-128741540D02*
X186864700Y-128705826D01*
X186864700Y-128705826D02*
X186900414Y-128634397D01*
X186900414Y-128634397D02*
X186900414Y-128348683D01*
X186900414Y-128348683D02*
X186150414Y-128348683D01*
X186150414Y-128348683D02*
X186150414Y-128598683D01*
X186150414Y-128598683D02*
X186186128Y-128670112D01*
X186186128Y-128670112D02*
X186221842Y-128705826D01*
X186221842Y-128705826D02*
X186293271Y-128741540D01*
X186293271Y-128741540D02*
X186364700Y-128741540D01*
X186364700Y-128741540D02*
X186436128Y-128705826D01*
X186436128Y-128705826D02*
X186471842Y-128670112D01*
X186471842Y-128670112D02*
X186507557Y-128598683D01*
X186507557Y-128598683D02*
X186507557Y-128348683D01*
X186900414Y-129205826D02*
X186864700Y-129134397D01*
X186864700Y-129134397D02*
X186828985Y-129098683D01*
X186828985Y-129098683D02*
X186757557Y-129062969D01*
X186757557Y-129062969D02*
X186543271Y-129062969D01*
X186543271Y-129062969D02*
X186471842Y-129098683D01*
X186471842Y-129098683D02*
X186436128Y-129134397D01*
X186436128Y-129134397D02*
X186400414Y-129205826D01*
X186400414Y-129205826D02*
X186400414Y-129312969D01*
X186400414Y-129312969D02*
X186436128Y-129384397D01*
X186436128Y-129384397D02*
X186471842Y-129420112D01*
X186471842Y-129420112D02*
X186543271Y-129455826D01*
X186543271Y-129455826D02*
X186757557Y-129455826D01*
X186757557Y-129455826D02*
X186828985Y-129420112D01*
X186828985Y-129420112D02*
X186864700Y-129384397D01*
X186864700Y-129384397D02*
X186900414Y-129312969D01*
X186900414Y-129312969D02*
X186900414Y-129205826D01*
X186900414Y-130098683D02*
X186507557Y-130098683D01*
X186507557Y-130098683D02*
X186436128Y-130062968D01*
X186436128Y-130062968D02*
X186400414Y-129991540D01*
X186400414Y-129991540D02*
X186400414Y-129848683D01*
X186400414Y-129848683D02*
X186436128Y-129777254D01*
X186864700Y-130098683D02*
X186900414Y-130027254D01*
X186900414Y-130027254D02*
X186900414Y-129848683D01*
X186900414Y-129848683D02*
X186864700Y-129777254D01*
X186864700Y-129777254D02*
X186793271Y-129741540D01*
X186793271Y-129741540D02*
X186721842Y-129741540D01*
X186721842Y-129741540D02*
X186650414Y-129777254D01*
X186650414Y-129777254D02*
X186614700Y-129848683D01*
X186614700Y-129848683D02*
X186614700Y-130027254D01*
X186614700Y-130027254D02*
X186578985Y-130098683D01*
X186900414Y-130455825D02*
X186400414Y-130455825D01*
X186543271Y-130455825D02*
X186471842Y-130491539D01*
X186471842Y-130491539D02*
X186436128Y-130527254D01*
X186436128Y-130527254D02*
X186400414Y-130598682D01*
X186400414Y-130598682D02*
X186400414Y-130670111D01*
X186900414Y-131241540D02*
X186150414Y-131241540D01*
X186864700Y-131241540D02*
X186900414Y-131170111D01*
X186900414Y-131170111D02*
X186900414Y-131027254D01*
X186900414Y-131027254D02*
X186864700Y-130955825D01*
X186864700Y-130955825D02*
X186828985Y-130920111D01*
X186828985Y-130920111D02*
X186757557Y-130884397D01*
X186757557Y-130884397D02*
X186543271Y-130884397D01*
X186543271Y-130884397D02*
X186471842Y-130920111D01*
X186471842Y-130920111D02*
X186436128Y-130955825D01*
X186436128Y-130955825D02*
X186400414Y-131027254D01*
X186400414Y-131027254D02*
X186400414Y-131170111D01*
X186400414Y-131170111D02*
X186436128Y-131241540D01*
D11*
X159524809Y-136978571D02*
X159286714Y-136811905D01*
X159524809Y-136692857D02*
X159024809Y-136692857D01*
X159024809Y-136692857D02*
X159024809Y-136883333D01*
X159024809Y-136883333D02*
X159048619Y-136930952D01*
X159048619Y-136930952D02*
X159072428Y-136954762D01*
X159072428Y-136954762D02*
X159120047Y-136978571D01*
X159120047Y-136978571D02*
X159191476Y-136978571D01*
X159191476Y-136978571D02*
X159239095Y-136954762D01*
X159239095Y-136954762D02*
X159262904Y-136930952D01*
X159262904Y-136930952D02*
X159286714Y-136883333D01*
X159286714Y-136883333D02*
X159286714Y-136692857D01*
X159524809Y-137454762D02*
X159524809Y-137169048D01*
X159524809Y-137311905D02*
X159024809Y-137311905D01*
X159024809Y-137311905D02*
X159096238Y-137264286D01*
X159096238Y-137264286D02*
X159143857Y-137216667D01*
X159143857Y-137216667D02*
X159167666Y-137169048D01*
X159024809Y-137621428D02*
X159024809Y-137930952D01*
X159024809Y-137930952D02*
X159215285Y-137764285D01*
X159215285Y-137764285D02*
X159215285Y-137835714D01*
X159215285Y-137835714D02*
X159239095Y-137883333D01*
X159239095Y-137883333D02*
X159262904Y-137907142D01*
X159262904Y-137907142D02*
X159310523Y-137930952D01*
X159310523Y-137930952D02*
X159429571Y-137930952D01*
X159429571Y-137930952D02*
X159477190Y-137907142D01*
X159477190Y-137907142D02*
X159501000Y-137883333D01*
X159501000Y-137883333D02*
X159524809Y-137835714D01*
X159524809Y-137835714D02*
X159524809Y-137692857D01*
X159524809Y-137692857D02*
X159501000Y-137645238D01*
X159501000Y-137645238D02*
X159477190Y-137621428D01*
X154192856Y-144132904D02*
X154121428Y-144156714D01*
X154121428Y-144156714D02*
X154097618Y-144180523D01*
X154097618Y-144180523D02*
X154073809Y-144228142D01*
X154073809Y-144228142D02*
X154073809Y-144299571D01*
X154073809Y-144299571D02*
X154097618Y-144347190D01*
X154097618Y-144347190D02*
X154121428Y-144371000D01*
X154121428Y-144371000D02*
X154169047Y-144394809D01*
X154169047Y-144394809D02*
X154359523Y-144394809D01*
X154359523Y-144394809D02*
X154359523Y-143894809D01*
X154359523Y-143894809D02*
X154192856Y-143894809D01*
X154192856Y-143894809D02*
X154145237Y-143918619D01*
X154145237Y-143918619D02*
X154121428Y-143942428D01*
X154121428Y-143942428D02*
X154097618Y-143990047D01*
X154097618Y-143990047D02*
X154097618Y-144037666D01*
X154097618Y-144037666D02*
X154121428Y-144085285D01*
X154121428Y-144085285D02*
X154145237Y-144109095D01*
X154145237Y-144109095D02*
X154192856Y-144132904D01*
X154192856Y-144132904D02*
X154359523Y-144132904D01*
X153930951Y-143894809D02*
X153645237Y-143894809D01*
X153788094Y-144394809D02*
X153788094Y-143894809D01*
X153216666Y-144394809D02*
X153502380Y-144394809D01*
X153359523Y-144394809D02*
X153359523Y-143894809D01*
X153359523Y-143894809D02*
X153407142Y-143966238D01*
X153407142Y-143966238D02*
X153454761Y-144013857D01*
X153454761Y-144013857D02*
X153502380Y-144037666D01*
D13*
X159746359Y-138120000D02*
X160053641Y-138120000D01*
X159746359Y-138880000D02*
X160053641Y-138880000D01*
X152470000Y-147770000D02*
X155130000Y-147770000D01*
X152470000Y-150370000D02*
X152470000Y-147770000D01*
X152470000Y-150370000D02*
X155130000Y-150370000D01*
X153800000Y-145170000D02*
X155130000Y-145170000D01*
X155130000Y-145170000D02*
X155130000Y-146500000D01*
X155130000Y-150370000D02*
X155130000Y-147770000D01*
%LPC*%
D14*
X165000000Y-116340000D03*
D15*
X165000000Y-118880000D03*
X165000000Y-121420000D03*
X165000000Y-123960000D03*
X165000000Y-126500000D03*
D16*
X192700000Y-140350000D03*
D15*
X192700000Y-137810000D03*
X192700000Y-135270000D03*
X192700000Y-132730000D03*
X192700000Y-130190000D03*
X192700000Y-127650000D03*
D17*
X187200000Y-133800000D03*
D14*
X161000000Y-116340000D03*
D15*
X161000000Y-118880000D03*
X161000000Y-121420000D03*
X161000000Y-123960000D03*
X161000000Y-126500000D03*
D14*
X175600000Y-121700000D03*
D15*
X175600000Y-124240000D03*
D17*
X170900000Y-150200000D03*
D18*
X155605000Y-131110000D03*
X155605000Y-136890000D03*
D19*
X156105000Y-129680000D03*
D20*
X151925000Y-129680000D03*
D19*
X156105000Y-138320000D03*
D20*
X151925000Y-138320000D03*
D21*
X160410000Y-138500000D03*
X159390000Y-138500000D03*
D16*
X153800000Y-146500000D03*
D15*
X153800000Y-149040000D03*
%LPD*%
M02*
