G04 #@! TF.GenerationSoftware,KiCad,Pcbnew,8.0.1*
G04 #@! TF.CreationDate,2024-10-08T21:23:53-04:00*
G04 #@! TF.ProjectId,Digital,44696769-7461-46c2-9e6b-696361645f70,rev?*
G04 #@! TF.SameCoordinates,Original*
G04 #@! TF.FileFunction,Paste,Top*
G04 #@! TF.FilePolarity,Positive*
%FSLAX46Y46*%
G04 Gerber Fmt 4.6, Leading zero omitted, Abs format (unit mm)*
G04 Created by KiCad (PCBNEW 8.0.1) date 2024-10-08 21:23:53*
%MOMM*%
%LPD*%
G01*
G04 APERTURE LIST*
G04 Aperture macros list*
%AMRoundRect*
0 Rectangle with rounded corners*
0 $1 Rounding radius*
0 $2 $3 $4 $5 $6 $7 $8 $9 X,Y pos of 4 corners*
0 Add a 4 corners polygon primitive as box body*
4,1,4,$2,$3,$4,$5,$6,$7,$8,$9,$2,$3,0*
0 Add four circle primitives for the rounded corners*
1,1,$1+$1,$2,$3*
1,1,$1+$1,$4,$5*
1,1,$1+$1,$6,$7*
1,1,$1+$1,$8,$9*
0 Add four rect primitives between the rounded corners*
20,1,$1+$1,$2,$3,$4,$5,0*
20,1,$1+$1,$4,$5,$6,$7,0*
20,1,$1+$1,$6,$7,$8,$9,0*
20,1,$1+$1,$8,$9,$2,$3,0*%
G04 Aperture macros list end*
%ADD10C,0.270000*%
%ADD11RoundRect,0.218750X-0.218750X-0.381250X0.218750X-0.381250X0.218750X0.381250X-0.218750X0.381250X0*%
%ADD12RoundRect,0.225000X0.250000X-0.225000X0.250000X0.225000X-0.250000X0.225000X-0.250000X-0.225000X0*%
%ADD13RoundRect,0.135000X-0.135000X-0.185000X0.135000X-0.185000X0.135000X0.185000X-0.135000X0.185000X0*%
%ADD14R,0.950000X0.550000*%
%ADD15C,0.200000*%
%ADD16RoundRect,0.140000X0.170000X-0.140000X0.170000X0.140000X-0.170000X0.140000X-0.170000X-0.140000X0*%
%ADD17C,0.250000*%
%ADD18R,1.000000X1.150000*%
%ADD19RoundRect,0.135000X0.185000X-0.135000X0.185000X0.135000X-0.185000X0.135000X-0.185000X-0.135000X0*%
%ADD20RoundRect,0.140000X0.140000X0.170000X-0.140000X0.170000X-0.140000X-0.170000X0.140000X-0.170000X0*%
%ADD21RoundRect,0.135000X0.135000X0.185000X-0.135000X0.185000X-0.135000X-0.185000X0.135000X-0.185000X0*%
%ADD22RoundRect,0.232500X0.232500X0.232500X-0.232500X0.232500X-0.232500X-0.232500X0.232500X-0.232500X0*%
%ADD23RoundRect,0.062500X0.375000X0.062500X-0.375000X0.062500X-0.375000X-0.062500X0.375000X-0.062500X0*%
%ADD24RoundRect,0.062500X0.062500X0.375000X-0.062500X0.375000X-0.062500X-0.375000X0.062500X-0.375000X0*%
%ADD25R,1.000000X1.000000*%
%ADD26R,2.200000X1.050000*%
%ADD27RoundRect,0.140000X-0.140000X-0.170000X0.140000X-0.170000X0.140000X0.170000X-0.140000X0.170000X0*%
%ADD28RoundRect,0.150000X-0.150000X0.512500X-0.150000X-0.512500X0.150000X-0.512500X0.150000X0.512500X0*%
%ADD29R,0.811200X1.406398*%
%ADD30R,1.362800X2.259800*%
%ADD31RoundRect,0.150000X0.512500X0.150000X-0.512500X0.150000X-0.512500X-0.150000X0.512500X-0.150000X0*%
%ADD32RoundRect,0.135000X-0.185000X0.135000X-0.185000X-0.135000X0.185000X-0.135000X0.185000X0.135000X0*%
%ADD33RoundRect,0.218750X0.218750X0.256250X-0.218750X0.256250X-0.218750X-0.256250X0.218750X-0.256250X0*%
%ADD34RoundRect,0.225000X-0.250000X0.225000X-0.250000X-0.225000X0.250000X-0.225000X0.250000X0.225000X0*%
%ADD35RoundRect,0.140000X-0.170000X0.140000X-0.170000X-0.140000X0.170000X-0.140000X0.170000X0.140000X0*%
%ADD36R,0.804800X0.249200*%
%ADD37R,0.610000X1.420000*%
%ADD38RoundRect,0.250000X-0.475000X0.250000X-0.475000X-0.250000X0.475000X-0.250000X0.475000X0.250000X0*%
%ADD39R,0.228600X0.711200*%
%ADD40RoundRect,0.250000X-0.275000X0.275000X-0.275000X-0.275000X0.275000X-0.275000X0.275000X0.275000X0*%
%ADD41RoundRect,0.062500X-0.062500X0.350000X-0.062500X-0.350000X0.062500X-0.350000X0.062500X0.350000X0*%
%ADD42RoundRect,0.062500X-0.350000X0.062500X-0.350000X-0.062500X0.350000X-0.062500X0.350000X0.062500X0*%
%ADD43RoundRect,0.218750X-0.381250X0.218750X-0.381250X-0.218750X0.381250X-0.218750X0.381250X0.218750X0*%
%ADD44C,0.279400*%
%ADD45RoundRect,0.100000X-0.100000X0.225000X-0.100000X-0.225000X0.100000X-0.225000X0.100000X0.225000X0*%
%ADD46RoundRect,0.147500X0.147500X0.172500X-0.147500X0.172500X-0.147500X-0.172500X0.147500X-0.172500X0*%
%ADD47RoundRect,0.225000X-0.225000X-0.250000X0.225000X-0.250000X0.225000X0.250000X-0.225000X0.250000X0*%
%ADD48RoundRect,0.200000X-0.250000X0.200000X-0.250000X-0.200000X0.250000X-0.200000X0.250000X0.200000X0*%
%ADD49RoundRect,0.147500X-0.172500X0.147500X-0.172500X-0.147500X0.172500X-0.147500X0.172500X0.147500X0*%
%ADD50RoundRect,0.075000X-0.225000X-0.075000X0.225000X-0.075000X0.225000X0.075000X-0.225000X0.075000X0*%
%ADD51RoundRect,0.075000X-0.075000X-0.237500X0.075000X-0.237500X0.075000X0.237500X-0.075000X0.237500X0*%
%ADD52R,1.000000X1.800000*%
%ADD53RoundRect,0.150000X-0.425000X0.150000X-0.425000X-0.150000X0.425000X-0.150000X0.425000X0.150000X0*%
%ADD54RoundRect,0.075000X-0.500000X0.075000X-0.500000X-0.075000X0.500000X-0.075000X0.500000X0.075000X0*%
%ADD55O,2.100000X1.000000*%
%ADD56O,1.800000X1.000000*%
%ADD57R,1.800000X1.000000*%
%ADD58RoundRect,0.250000X-0.650000X0.325000X-0.650000X-0.325000X0.650000X-0.325000X0.650000X0.325000X0*%
%ADD59RoundRect,0.250000X-0.375000X-1.075000X0.375000X-1.075000X0.375000X1.075000X-0.375000X1.075000X0*%
G04 APERTURE END LIST*
D10*
X178000000Y-117680000D03*
X178500000Y-117680000D03*
X179000000Y-117680000D03*
X179500000Y-117680000D03*
X180000000Y-117680000D03*
X180500000Y-117680000D03*
X181000000Y-117680000D03*
X181500000Y-117680000D03*
X182010711Y-117668389D03*
X178000000Y-118180000D03*
X178500000Y-118180000D03*
X181500000Y-118180000D03*
X182000000Y-118180000D03*
X178000000Y-118680000D03*
X179000000Y-118680000D03*
X179500000Y-118680000D03*
X180000000Y-118680000D03*
X180500000Y-118680000D03*
X181000000Y-118680000D03*
X182000000Y-118680000D03*
X178000000Y-119180000D03*
X178500000Y-119180000D03*
X182000000Y-119180000D03*
X178000000Y-119680000D03*
X178500000Y-119680000D03*
X179000000Y-119680000D03*
X179500000Y-119680000D03*
X181000000Y-119680000D03*
X182000000Y-119680000D03*
X178000000Y-120180000D03*
X179000000Y-120180000D03*
X179500000Y-120180000D03*
X181000000Y-120180000D03*
X182000000Y-120180000D03*
X178000000Y-120680000D03*
X179000000Y-120680000D03*
X179500000Y-120680000D03*
X180000000Y-120680000D03*
X180500000Y-120680000D03*
X181000000Y-120680000D03*
X182000000Y-120680000D03*
X178000000Y-121180000D03*
X181500000Y-121180000D03*
X182000000Y-121180000D03*
X178000000Y-121680000D03*
X178500000Y-121680000D03*
X179000000Y-121680000D03*
X179500000Y-121680000D03*
X180000000Y-121680000D03*
X180500000Y-121680000D03*
X181000000Y-121680000D03*
X181500000Y-121680000D03*
X182000000Y-121680000D03*
D11*
X157937500Y-148400000D03*
X160062500Y-148400000D03*
D12*
X162900000Y-130675000D03*
X162900000Y-129125000D03*
D13*
X158390000Y-136300000D03*
X159410000Y-136300000D03*
D14*
X172875000Y-119475000D03*
X172875000Y-118225000D03*
X172875000Y-116975000D03*
X172875000Y-115725000D03*
X170725000Y-115725000D03*
X170725000Y-116975000D03*
X170725000Y-118225000D03*
X170725000Y-119475000D03*
D15*
X184800000Y-138500000D03*
X184000000Y-138500000D03*
X184400000Y-138200000D03*
X184800000Y-137900000D03*
X184000000Y-137900000D03*
X184400000Y-137600000D03*
X184800000Y-137300000D03*
X184000000Y-137300000D03*
D16*
X174900000Y-136680000D03*
X174900000Y-135720000D03*
D17*
X188600000Y-148900000D03*
X188600000Y-149300000D03*
X188600000Y-149700000D03*
X189000000Y-148900000D03*
X189000000Y-149300000D03*
X189000000Y-149700000D03*
D18*
X177400000Y-143025000D03*
X177400000Y-144775000D03*
X178800000Y-144775000D03*
X178800000Y-143025000D03*
D13*
X156490000Y-121300000D03*
X157510000Y-121300000D03*
D19*
X160000000Y-144410000D03*
X160000000Y-143390000D03*
D20*
X176880000Y-149900000D03*
X175920000Y-149900000D03*
D13*
X157690000Y-145000000D03*
X158710000Y-145000000D03*
D20*
X176880000Y-151000000D03*
X175920000Y-151000000D03*
D12*
X168800000Y-118000000D03*
X168800000Y-116450000D03*
D21*
X162610000Y-142600000D03*
X161590000Y-142600000D03*
D22*
X171050000Y-134350000D03*
X171050000Y-133200000D03*
X171050000Y-132050000D03*
X169900000Y-134350000D03*
X169900000Y-133200000D03*
X169900000Y-132050000D03*
X168750000Y-134350000D03*
X168750000Y-133200000D03*
X168750000Y-132050000D03*
D23*
X172337500Y-134950000D03*
X172337500Y-134450000D03*
X172337500Y-133950000D03*
X172337500Y-133450000D03*
X172337500Y-132950000D03*
X172337500Y-132450000D03*
X172337500Y-131950000D03*
X172337500Y-131450000D03*
D24*
X171650000Y-130762500D03*
X171150000Y-130762500D03*
X170650000Y-130762500D03*
X170150000Y-130762500D03*
X169650000Y-130762500D03*
X169150000Y-130762500D03*
X168650000Y-130762500D03*
X168150000Y-130762500D03*
D23*
X167462500Y-131450000D03*
X167462500Y-131950000D03*
X167462500Y-132450000D03*
X167462500Y-132950000D03*
X167462500Y-133450000D03*
X167462500Y-133950000D03*
X167462500Y-134450000D03*
X167462500Y-134950000D03*
D24*
X168150000Y-135637500D03*
X168650000Y-135637500D03*
X169150000Y-135637500D03*
X169650000Y-135637500D03*
X170150000Y-135637500D03*
X170650000Y-135637500D03*
X171150000Y-135637500D03*
X171650000Y-135637500D03*
D21*
X162710000Y-140000000D03*
X161690000Y-140000000D03*
D25*
X192500000Y-149300000D03*
D26*
X194000000Y-147825000D03*
D25*
X195500000Y-149300000D03*
D26*
X194000000Y-150775000D03*
D27*
X189920000Y-149300000D03*
X190880000Y-149300000D03*
D28*
X165950000Y-138862500D03*
X165000000Y-138862500D03*
X164050000Y-138862500D03*
X164050000Y-141137500D03*
X165950000Y-141137500D03*
D20*
X184880000Y-146000000D03*
X183920000Y-146000000D03*
D29*
X152649998Y-127277200D03*
X156150002Y-127277200D03*
X154400000Y-123392600D03*
D20*
X178580000Y-141600000D03*
X177620000Y-141600000D03*
D16*
X182300000Y-145080000D03*
X182300000Y-144120000D03*
D30*
X195462701Y-116000000D03*
X188537299Y-116000000D03*
D27*
X178020000Y-133200000D03*
X178980000Y-133200000D03*
D19*
X173000000Y-123110000D03*
X173000000Y-122090000D03*
X190100000Y-147710000D03*
X190100000Y-146690000D03*
D31*
X161137500Y-134950000D03*
X161137500Y-134000000D03*
X161137500Y-133050000D03*
X158862500Y-133050000D03*
X158862500Y-134000000D03*
X158862500Y-134950000D03*
D32*
X166000000Y-142590000D03*
X166000000Y-143610000D03*
D19*
X181200000Y-129810000D03*
X181200000Y-128790000D03*
D33*
X154587500Y-140300000D03*
X153012500Y-140300000D03*
D19*
X158300000Y-125510000D03*
X158300000Y-124490000D03*
D34*
X162000000Y-137125000D03*
X162000000Y-138675000D03*
D16*
X158300000Y-116180000D03*
X158300000Y-115220000D03*
D20*
X182380000Y-136600000D03*
X181420000Y-136600000D03*
D29*
X156750002Y-116822801D03*
X153249998Y-116822801D03*
X155000000Y-120707401D03*
D35*
X170500000Y-121920000D03*
X170500000Y-122880000D03*
D16*
X176800000Y-117960000D03*
X176800000Y-117000000D03*
D36*
X157095198Y-141400002D03*
X157095198Y-141900001D03*
X157095198Y-142400000D03*
X159000000Y-142400000D03*
X159000000Y-141900001D03*
X159000000Y-141400002D03*
D37*
X158047599Y-141900001D03*
D38*
X164000000Y-148350000D03*
X164000000Y-150250000D03*
D27*
X155720000Y-145100000D03*
X156680000Y-145100000D03*
D12*
X183800000Y-144375000D03*
X183800000Y-142825000D03*
D16*
X189000000Y-147680000D03*
X189000000Y-146720000D03*
D35*
X173600000Y-136320000D03*
X173600000Y-137280000D03*
D13*
X183090000Y-121680000D03*
X184110000Y-121680000D03*
X155690000Y-144000000D03*
X156710000Y-144000000D03*
D16*
X174900000Y-134780000D03*
X174900000Y-133820000D03*
D39*
X168800000Y-142400000D03*
X168299874Y-142400000D03*
X167799748Y-142400000D03*
X167299622Y-142400000D03*
X167299622Y-144000200D03*
X167799748Y-144000200D03*
X168299874Y-144000200D03*
X168800000Y-144000200D03*
D13*
X159990000Y-131700000D03*
X161010000Y-131700000D03*
D32*
X180200000Y-144990000D03*
X180200000Y-146010000D03*
D40*
X181900000Y-148487500D03*
X180600000Y-148487500D03*
X181900000Y-149787500D03*
X180600000Y-149787500D03*
D41*
X182500000Y-147200000D03*
X182000000Y-147200000D03*
X181500000Y-147200000D03*
X181000000Y-147200000D03*
X180500000Y-147200000D03*
X180000000Y-147200000D03*
D42*
X179312500Y-147887500D03*
X179312500Y-148387500D03*
X179312500Y-148887500D03*
X179312500Y-149387500D03*
X179312500Y-149887500D03*
X179312500Y-150387500D03*
D41*
X180000000Y-151075000D03*
X180500000Y-151075000D03*
X181000000Y-151075000D03*
X181500000Y-151075000D03*
X182000000Y-151075000D03*
X182500000Y-151075000D03*
D42*
X183187500Y-150387500D03*
X183187500Y-149887500D03*
X183187500Y-149387500D03*
X183187500Y-148887500D03*
X183187500Y-148387500D03*
X183187500Y-147887500D03*
D43*
X177600000Y-146437500D03*
X177600000Y-148562500D03*
D13*
X161590000Y-143600000D03*
X162610000Y-143600000D03*
D44*
X158800000Y-146250000D03*
X158800000Y-146750000D03*
X158300000Y-146250000D03*
X158300000Y-146750000D03*
X157800000Y-146250000D03*
X157800000Y-146750000D03*
D38*
X161900000Y-148350000D03*
X161900000Y-150250000D03*
D13*
X157690000Y-143900000D03*
X158710000Y-143900000D03*
D19*
X183100000Y-120690000D03*
X183100000Y-119670000D03*
D32*
X171000000Y-125190000D03*
X171000000Y-126210000D03*
D45*
X160350000Y-137650000D03*
X159700000Y-137650000D03*
X159050000Y-137650000D03*
X159050000Y-139550000D03*
X159700000Y-139550000D03*
X160350000Y-139550000D03*
D20*
X189080000Y-151200000D03*
X188120000Y-151200000D03*
D46*
X178985000Y-132200000D03*
X178015000Y-132200000D03*
D35*
X181300000Y-145020000D03*
X181300000Y-145980000D03*
D16*
X177400000Y-129980000D03*
X177400000Y-129020000D03*
D20*
X173880000Y-139800000D03*
X172920000Y-139800000D03*
D47*
X163725000Y-137100000D03*
X165275000Y-137100000D03*
D48*
X176125000Y-129075000D03*
X174275000Y-129075000D03*
X174275000Y-130525000D03*
X176125000Y-130525000D03*
D49*
X184800000Y-147315000D03*
X184800000Y-148285000D03*
D12*
X178700000Y-130875000D03*
X178700000Y-129325000D03*
D21*
X157410000Y-139900000D03*
X156390000Y-139900000D03*
D27*
X185920000Y-146700000D03*
X186880000Y-146700000D03*
D38*
X156100000Y-146450000D03*
X156100000Y-148350000D03*
D21*
X153810000Y-141700000D03*
X152790000Y-141700000D03*
D47*
X160925000Y-141300000D03*
X162475000Y-141300000D03*
D50*
X186000000Y-148250000D03*
X186000000Y-148750000D03*
X186000000Y-149250000D03*
X186000000Y-149750000D03*
D51*
X186700000Y-150062500D03*
D50*
X187400000Y-149750000D03*
X187400000Y-149250000D03*
X187400000Y-148750000D03*
X187400000Y-148250000D03*
D51*
X186700000Y-147937500D03*
D52*
X180950000Y-115880000D03*
X178450000Y-115880000D03*
D12*
X167600000Y-140875000D03*
X167600000Y-139325000D03*
D19*
X172900000Y-125310000D03*
X172900000Y-124290000D03*
D53*
X156680000Y-130800000D03*
X156680000Y-131600000D03*
D54*
X156680000Y-132750000D03*
X156680000Y-133750000D03*
X156680000Y-134250000D03*
X156680000Y-135250000D03*
D53*
X156680000Y-136400000D03*
X156680000Y-137200000D03*
X156680000Y-137200000D03*
X156680000Y-136400000D03*
D54*
X156680000Y-135750000D03*
X156680000Y-134750000D03*
X156680000Y-133250000D03*
X156680000Y-132250000D03*
D53*
X156680000Y-131600000D03*
X156680000Y-130800000D03*
D55*
X156105000Y-129680000D03*
D56*
X151925000Y-129680000D03*
D55*
X156105000Y-138320000D03*
D56*
X151925000Y-138320000D03*
D16*
X166200000Y-130980000D03*
X166200000Y-130020000D03*
D57*
X176600000Y-137350000D03*
X176600000Y-134850000D03*
D58*
X166800000Y-146725000D03*
X166800000Y-149675000D03*
D59*
X161700000Y-145800000D03*
X164500000Y-145800000D03*
M02*
