G04 #@! TF.GenerationSoftware,KiCad,Pcbnew,8.0.1*
G04 #@! TF.CreationDate,2024-10-08T21:23:53-04:00*
G04 #@! TF.ProjectId,Digital,44696769-7461-46c2-9e6b-696361645f70,rev?*
G04 #@! TF.SameCoordinates,Original*
G04 #@! TF.FileFunction,Copper,L6,Bot*
G04 #@! TF.FilePolarity,Positive*
%FSLAX46Y46*%
G04 Gerber Fmt 4.6, Leading zero omitted, Abs format (unit mm)*
G04 Created by KiCad (PCBNEW 8.0.1) date 2024-10-08 21:23:53*
%MOMM*%
%LPD*%
G01*
G04 APERTURE LIST*
G04 Aperture macros list*
%AMRoundRect*
0 Rectangle with rounded corners*
0 $1 Rounding radius*
0 $2 $3 $4 $5 $6 $7 $8 $9 X,Y pos of 4 corners*
0 Add a 4 corners polygon primitive as box body*
4,1,4,$2,$3,$4,$5,$6,$7,$8,$9,$2,$3,0*
0 Add four circle primitives for the rounded corners*
1,1,$1+$1,$2,$3*
1,1,$1+$1,$4,$5*
1,1,$1+$1,$6,$7*
1,1,$1+$1,$8,$9*
0 Add four rect primitives between the rounded corners*
20,1,$1+$1,$2,$3,$4,$5,0*
20,1,$1+$1,$4,$5,$6,$7,0*
20,1,$1+$1,$6,$7,$8,$9,0*
20,1,$1+$1,$8,$9,$2,$3,0*%
G04 Aperture macros list end*
G04 #@! TA.AperFunction,ComponentPad*
%ADD10R,1.700000X1.700000*%
G04 #@! TD*
G04 #@! TA.AperFunction,ComponentPad*
%ADD11O,1.700000X1.700000*%
G04 #@! TD*
G04 #@! TA.AperFunction,ComponentPad*
%ADD12O,2.100000X1.000000*%
G04 #@! TD*
G04 #@! TA.AperFunction,ComponentPad*
%ADD13O,1.800000X1.000000*%
G04 #@! TD*
G04 #@! TA.AperFunction,SMDPad,CuDef*
%ADD14RoundRect,0.135000X0.135000X0.185000X-0.135000X0.185000X-0.135000X-0.185000X0.135000X-0.185000X0*%
G04 #@! TD*
G04 #@! TA.AperFunction,ViaPad*
%ADD15C,0.600000*%
G04 #@! TD*
G04 #@! TA.AperFunction,ViaPad*
%ADD16C,0.500000*%
G04 #@! TD*
G04 #@! TA.AperFunction,ViaPad*
%ADD17C,0.400000*%
G04 #@! TD*
G04 #@! TA.AperFunction,Conductor*
%ADD18C,0.220000*%
G04 #@! TD*
G04 #@! TA.AperFunction,Conductor*
%ADD19C,0.200000*%
G04 #@! TD*
G04 APERTURE END LIST*
D10*
X165000000Y-116340000D03*
D11*
X165000000Y-118880000D03*
X165000000Y-121420000D03*
X165000000Y-123960000D03*
X165000000Y-126500000D03*
D10*
X192700000Y-140350000D03*
D11*
X192700000Y-137810000D03*
X192700000Y-135270000D03*
X192700000Y-132730000D03*
X192700000Y-130190000D03*
X192700000Y-127650000D03*
D10*
X161000000Y-116340000D03*
D11*
X161000000Y-118880000D03*
X161000000Y-121420000D03*
X161000000Y-123960000D03*
X161000000Y-126500000D03*
D10*
X175600000Y-121700000D03*
D11*
X175600000Y-124240000D03*
D12*
X156105000Y-129680000D03*
D13*
X151925000Y-129680000D03*
D12*
X156105000Y-138320000D03*
D13*
X151925000Y-138320000D03*
D14*
X160410000Y-138500000D03*
X159390000Y-138500000D03*
D10*
X153800000Y-146500000D03*
D11*
X153800000Y-149040000D03*
D15*
X185133598Y-140877534D03*
X197000000Y-129000000D03*
X153000000Y-135000000D03*
X181000000Y-124000000D03*
X197000000Y-127000000D03*
X191000000Y-132000000D03*
X187000000Y-127000000D03*
X159800000Y-135700000D03*
D16*
X174300000Y-129100000D03*
D15*
X155000000Y-115000000D03*
X157000000Y-127000000D03*
X160800000Y-129200000D03*
X189600000Y-136700000D03*
X159000000Y-153000000D03*
X151000000Y-149000000D03*
X191000000Y-130000000D03*
X195000000Y-133000000D03*
X185000000Y-127000000D03*
X155000000Y-127000000D03*
X169000000Y-151000000D03*
X191000000Y-151000000D03*
X166800000Y-151000000D03*
X179000000Y-123999999D03*
X174600000Y-132300000D03*
X170800000Y-142000000D03*
X153000000Y-143000000D03*
X197000000Y-135000000D03*
X195000000Y-143000000D03*
X195000000Y-135000000D03*
X151000000Y-137000000D03*
X180600000Y-136600000D03*
X151000000Y-143000000D03*
X175000000Y-115000000D03*
X165500000Y-135500000D03*
X195000000Y-129000000D03*
X159000000Y-119000000D03*
X155000000Y-135000000D03*
X171800000Y-115700000D03*
X182300000Y-143300000D03*
X155000000Y-125000000D03*
X195000000Y-131000000D03*
D16*
X172920000Y-139800000D03*
D15*
X167600000Y-139325000D03*
X187200000Y-147600000D03*
X191000000Y-127000000D03*
X180200000Y-119500000D03*
X195000000Y-141000000D03*
X151000000Y-119000000D03*
X175000000Y-119000000D03*
X189000000Y-127000000D03*
X187000000Y-153000000D03*
X159000000Y-127000000D03*
X163900000Y-135300000D03*
X178700000Y-129325000D03*
X183600000Y-132000000D03*
X197000000Y-143000000D03*
X193000000Y-145000000D03*
X195000000Y-137000000D03*
X185000000Y-115000000D03*
X157000000Y-115000000D03*
X164000000Y-151200000D03*
D16*
X174000000Y-137280000D03*
D15*
X176700000Y-141400000D03*
X162200000Y-134000000D03*
X169700000Y-124200000D03*
X183000000Y-124000000D03*
X185000000Y-134000000D03*
X161900000Y-151200000D03*
X185000000Y-117000000D03*
X181000000Y-125986223D03*
X197000000Y-131000000D03*
D17*
X169155643Y-133858313D03*
D15*
X180800000Y-132500000D03*
X175000000Y-149000000D03*
X166900000Y-143100000D03*
X177000000Y-115000000D03*
X177100000Y-131500000D03*
X173000000Y-153000000D03*
X151000000Y-141000000D03*
X185900000Y-130700000D03*
X151000000Y-123000000D03*
X186500000Y-151000000D03*
D16*
X166200000Y-130020000D03*
D15*
X173000000Y-145000000D03*
X175000000Y-147000000D03*
X183000000Y-126000000D03*
X193000000Y-153000000D03*
X195000000Y-145000000D03*
X153000000Y-153000000D03*
X167600000Y-137800000D03*
X195000000Y-139000000D03*
X183000000Y-115000000D03*
X174671863Y-125661489D03*
X157000000Y-123000000D03*
X166400000Y-144500000D03*
X153000000Y-131000000D03*
X191000000Y-153000000D03*
X157000000Y-151000000D03*
X154800000Y-132700000D03*
X169700000Y-127300000D03*
X191000000Y-139000000D03*
X195000000Y-153000000D03*
X189000000Y-143000000D03*
X189000000Y-135000000D03*
X169700000Y-141800000D03*
X169700000Y-122800000D03*
X197000000Y-151000000D03*
X153000000Y-115000000D03*
X153000000Y-133000000D03*
X177621117Y-151911268D03*
X167000000Y-153000000D03*
X185000000Y-150300000D03*
X186400000Y-141300000D03*
X166200000Y-128100000D03*
X151000000Y-135000000D03*
D16*
X179000000Y-133200000D03*
D15*
X184200000Y-129800000D03*
X187000000Y-139000000D03*
X151000000Y-117000000D03*
X160900000Y-130900000D03*
D16*
X154100000Y-116900000D03*
D17*
X169140958Y-132588106D03*
D15*
X160000000Y-147100000D03*
X197000000Y-139000000D03*
X185300000Y-139000000D03*
X191000000Y-147000000D03*
X151000000Y-127000000D03*
X155000000Y-151000000D03*
X159000000Y-151000000D03*
X176300000Y-133100000D03*
X178884052Y-145982607D03*
D16*
X168000000Y-129500000D03*
D15*
X153000000Y-137000000D03*
X173000000Y-149000000D03*
X161000000Y-153000000D03*
X160000000Y-143390000D03*
X197000000Y-141000000D03*
X175000000Y-151000000D03*
X197000000Y-147000000D03*
X187000000Y-145000000D03*
X187300000Y-151200000D03*
X175000000Y-145000000D03*
X160000000Y-145400000D03*
X189000000Y-130000000D03*
X167900000Y-120400000D03*
X171500000Y-123400000D03*
X173000000Y-147000000D03*
D17*
X169171328Y-134543565D03*
D15*
X151000000Y-147000000D03*
X197000000Y-137000000D03*
X177000000Y-126000000D03*
X173000000Y-151000000D03*
X159200000Y-131100000D03*
X153000000Y-123000000D03*
X177300000Y-124000000D03*
X177000000Y-119000000D03*
X195000000Y-127000000D03*
X157000000Y-153000000D03*
D17*
X169133616Y-131890594D03*
D15*
X172000000Y-141500000D03*
X175000000Y-117000000D03*
X151000000Y-125000000D03*
X197000000Y-133000000D03*
X151000000Y-133000000D03*
X166400000Y-136800000D03*
X193000000Y-143000000D03*
X191000000Y-145000000D03*
X153000000Y-119000000D03*
X169000000Y-153000000D03*
X155000000Y-153000000D03*
D16*
X174900000Y-136680000D03*
D15*
X164200000Y-132400000D03*
X151000000Y-121000000D03*
X178300000Y-135700000D03*
X171800000Y-124500000D03*
X162900000Y-129125000D03*
X171000000Y-153000000D03*
X182600000Y-129100000D03*
X185000000Y-145000000D03*
X197000000Y-149000000D03*
X187000000Y-143000000D03*
X172000000Y-120500000D03*
X151000000Y-139000000D03*
X177000000Y-153000000D03*
X170900000Y-144200000D03*
X183000000Y-117000000D03*
X191102525Y-143000000D03*
X160000000Y-146200000D03*
X197000000Y-145000000D03*
X158300000Y-115220000D03*
X175500000Y-143300000D03*
X163000000Y-153000000D03*
X151000000Y-151000000D03*
X179000000Y-126000000D03*
X184900000Y-142800000D03*
X175000000Y-142000000D03*
X151000000Y-145000000D03*
X151000000Y-131000000D03*
X175000000Y-153000000D03*
X153000000Y-151000000D03*
X189000000Y-144934021D03*
X165000000Y-153000000D03*
X189000000Y-153000000D03*
X172900000Y-116400000D03*
X179300000Y-137500000D03*
X156000000Y-140800000D03*
X157000000Y-119000000D03*
X185000000Y-153000000D03*
X155000000Y-119000000D03*
X157700000Y-145000000D03*
X163725000Y-137100000D03*
X159800000Y-134000000D03*
X166600000Y-137600000D03*
X160625000Y-136600000D03*
X157700000Y-131600000D03*
X156680000Y-136400000D03*
X178000000Y-149700000D03*
D16*
X158300000Y-125510000D03*
D15*
X171200000Y-145400000D03*
X169700000Y-141075032D03*
D16*
X166200000Y-130980000D03*
D15*
X162900000Y-130675000D03*
X168700000Y-140075032D03*
X168700000Y-141075032D03*
X182300000Y-146100000D03*
X179800000Y-122300000D03*
D16*
X170200000Y-137700000D03*
D15*
X169700000Y-140075032D03*
X171200000Y-146400000D03*
D16*
X155900000Y-117200000D03*
D15*
X173600000Y-125300000D03*
D16*
X168800000Y-118000000D03*
X173800000Y-136300000D03*
D15*
X182300000Y-135700000D03*
X190000000Y-151200000D03*
X170200000Y-145400000D03*
X169200000Y-146400000D03*
X176000000Y-118000000D03*
X173700000Y-123700000D03*
X178985000Y-132200000D03*
D16*
X177400000Y-129980000D03*
D15*
X169200000Y-145400000D03*
X172900000Y-118800000D03*
X170200000Y-146400000D03*
D16*
X171100000Y-124300000D03*
D15*
X178000000Y-150500000D03*
X170100000Y-120700000D03*
X173300000Y-126200000D03*
D16*
X173700000Y-133700000D03*
D15*
X180900000Y-152100000D03*
X173900000Y-139780000D03*
D16*
X157600000Y-122300000D03*
D15*
X169600000Y-125000000D03*
D16*
X158700000Y-118100000D03*
D15*
X180400000Y-139800000D03*
X167100000Y-120200000D03*
D16*
X166500000Y-131900000D03*
X166400000Y-135000000D03*
X167400000Y-135500000D03*
D15*
X176125000Y-129075000D03*
D16*
X181200000Y-129810000D03*
X170200000Y-136900000D03*
X171700000Y-122100000D03*
D15*
X172300000Y-123800000D03*
D16*
X172400000Y-137400000D03*
D15*
X171900000Y-121300000D03*
X182400000Y-139300000D03*
X182800000Y-141400000D03*
X182500000Y-152100000D03*
D16*
X170700000Y-140300000D03*
X169300000Y-129000000D03*
D15*
X181700000Y-152100000D03*
D16*
X181100000Y-138700000D03*
D15*
X185700000Y-137600000D03*
D16*
X171400000Y-140100000D03*
X170700000Y-129600000D03*
D15*
X182500000Y-138400000D03*
X183300000Y-152100000D03*
X183600000Y-141300000D03*
D16*
X172900000Y-127400000D03*
X173000000Y-130700000D03*
D15*
X171800000Y-126800000D03*
D16*
X171800000Y-128500000D03*
D15*
X179100000Y-146800000D03*
X179900000Y-143000000D03*
D16*
X163200000Y-135900000D03*
X166000000Y-133000000D03*
D15*
X178400000Y-151500000D03*
X190100000Y-145800000D03*
D16*
X169100000Y-129700000D03*
D15*
X184300000Y-151100000D03*
X184500000Y-141300000D03*
D16*
X168700000Y-137500000D03*
D15*
X180500000Y-135800000D03*
D16*
X173700000Y-138000000D03*
X172700000Y-138000000D03*
X171300000Y-129600000D03*
X169800000Y-128600000D03*
X166400000Y-120600000D03*
D17*
X155700000Y-133800000D03*
X155700000Y-134800000D03*
X181000000Y-120680000D03*
X183090000Y-121680000D03*
D15*
X170000000Y-144100000D03*
X166000000Y-143610000D03*
X176200000Y-143200000D03*
X170300000Y-142700000D03*
D16*
X164900000Y-131800000D03*
D15*
X179300000Y-152100000D03*
X180100000Y-152100000D03*
D16*
X172000000Y-139900000D03*
X171100000Y-127500000D03*
X171900000Y-136800000D03*
D15*
X160062500Y-148400000D03*
X155720000Y-145100000D03*
X158600000Y-143000000D03*
X154700000Y-141800000D03*
X160500000Y-139550000D03*
X159700000Y-139550000D03*
X159300000Y-145900000D03*
X162610000Y-142600000D03*
D18*
X157700000Y-145000000D02*
X156900000Y-144200000D01*
X153800000Y-145200000D02*
X153800000Y-146500000D01*
X154800000Y-144200000D02*
X153800000Y-145200000D01*
X156900000Y-144200000D02*
X154800000Y-144200000D01*
X173700000Y-126600000D02*
X173300000Y-126200000D01*
X158400000Y-118400000D02*
X158400000Y-121500000D01*
X169000000Y-123700000D02*
X169000000Y-124500000D01*
X167100000Y-121800000D02*
X169000000Y-123700000D01*
D19*
X173200000Y-139080000D02*
X173200000Y-134200000D01*
X173200000Y-134200000D02*
X173700000Y-133700000D01*
D18*
X173700000Y-127200000D02*
X173700000Y-126600000D01*
X158400000Y-121500000D02*
X157600000Y-122300000D01*
X158700000Y-118100000D02*
X158400000Y-118400000D01*
D19*
X181200000Y-151800000D02*
X180900000Y-152100000D01*
D18*
X169000000Y-124500000D02*
X169400000Y-124900000D01*
X169500000Y-125000000D02*
X169600000Y-125000000D01*
D19*
X173900000Y-139780000D02*
X173200000Y-139080000D01*
D18*
X169400000Y-124900000D02*
X169500000Y-125000000D01*
D19*
X181200000Y-140600000D02*
X181200000Y-151800000D01*
X180400000Y-139800000D02*
X181200000Y-140600000D01*
D18*
X167100000Y-120200000D02*
X167100000Y-121800000D01*
X173700000Y-127200000D02*
X173700000Y-133700000D01*
X166500000Y-131900000D02*
X166000000Y-131900000D01*
X165300000Y-128500000D02*
X161000000Y-124200000D01*
X165300000Y-131200000D02*
X165300000Y-128500000D01*
X161000000Y-124200000D02*
X161000000Y-123960000D01*
X166000000Y-131900000D02*
X165300000Y-131200000D01*
X167000000Y-125960000D02*
X165000000Y-123960000D01*
X166400000Y-135000000D02*
X167000000Y-134400000D01*
X167000000Y-134400000D02*
X167000000Y-125960000D01*
X167500000Y-123920000D02*
X165000000Y-121420000D01*
X167400000Y-135500000D02*
X167500000Y-135400000D01*
X167500000Y-135400000D02*
X167500000Y-123920000D01*
X178400000Y-129900000D02*
X177575000Y-129075000D01*
X181200000Y-129810000D02*
X181110000Y-129900000D01*
X181110000Y-129900000D02*
X178400000Y-129900000D01*
X177575000Y-129075000D02*
X176125000Y-129075000D01*
X170300000Y-129200000D02*
X170300000Y-123500000D01*
X170200000Y-136900000D02*
X170200000Y-129300000D01*
X170300000Y-123500000D02*
X171700000Y-122100000D01*
X170200000Y-129300000D02*
X170300000Y-129200000D01*
D19*
X172600000Y-124100000D02*
X172300000Y-123800000D01*
X171900000Y-121300000D02*
X172300000Y-121700000D01*
X172600000Y-126900000D02*
X172600000Y-124100000D01*
X172300000Y-121700000D02*
X172300000Y-123800000D01*
X172400000Y-127100000D02*
X172600000Y-126900000D01*
X172400000Y-137400000D02*
X172400000Y-127100000D01*
X182400000Y-139300000D02*
X182400000Y-141000000D01*
X183100000Y-141700000D02*
X183100000Y-143500000D01*
D18*
X169300000Y-129000000D02*
X169600000Y-129300000D01*
X183100000Y-151500000D02*
X183100000Y-143500000D01*
X169600000Y-129300000D02*
X169600000Y-139200000D01*
D19*
X182400000Y-141000000D02*
X182800000Y-141400000D01*
D18*
X169600000Y-139200000D02*
X170700000Y-140300000D01*
D19*
X182800000Y-141400000D02*
X183100000Y-141700000D01*
D18*
X182500000Y-152100000D02*
X183100000Y-151500000D01*
X181700000Y-152100000D02*
X181700000Y-139300000D01*
X185700000Y-137600000D02*
X182200000Y-137600000D01*
X181700000Y-139300000D02*
X181100000Y-138700000D01*
X181700000Y-138100000D02*
X182200000Y-137600000D01*
X181700000Y-139300000D02*
X181700000Y-138100000D01*
D19*
X171400000Y-140100000D02*
X171400000Y-138500000D01*
X182500000Y-138400000D02*
X183600000Y-139500000D01*
D18*
X170700000Y-129600000D02*
X170700000Y-137800000D01*
D19*
X171400000Y-138500000D02*
X170700000Y-137800000D01*
D18*
X183300000Y-152100000D02*
X183600000Y-151800000D01*
D19*
X183600000Y-141300000D02*
X183600000Y-143200000D01*
D18*
X183600000Y-151800000D02*
X183600000Y-143200000D01*
D19*
X183600000Y-139500000D02*
X183600000Y-141300000D01*
D18*
X173000000Y-127500000D02*
X172900000Y-127400000D01*
X173000000Y-130700000D02*
X173000000Y-127500000D01*
X171800000Y-126800000D02*
X171800000Y-128500000D01*
X162100000Y-131500000D02*
X162100000Y-129300000D01*
X159500000Y-120380000D02*
X161000000Y-118880000D01*
X163200000Y-135900000D02*
X163200000Y-132600000D01*
X159500000Y-126700000D02*
X159500000Y-120380000D01*
X163200000Y-132600000D02*
X162100000Y-131500000D01*
X162100000Y-129300000D02*
X159500000Y-126700000D01*
X190100000Y-146600000D02*
X190100000Y-145800000D01*
X178400000Y-151500000D02*
X178400000Y-152500000D01*
X178800000Y-152900000D02*
X183800000Y-152900000D01*
X178400000Y-152500000D02*
X178800000Y-152900000D01*
X183800000Y-152900000D02*
X190100000Y-146600000D01*
X184500000Y-141800000D02*
X184100000Y-142200000D01*
X168700000Y-130100000D02*
X168700000Y-137500000D01*
X184100000Y-150200000D02*
X184300000Y-150400000D01*
X184300000Y-150400000D02*
X184300000Y-151100000D01*
X184500000Y-141300000D02*
X184500000Y-141800000D01*
X169100000Y-129700000D02*
X168700000Y-130100000D01*
X184100000Y-142200000D02*
X184100000Y-150200000D01*
X180500000Y-135800000D02*
X179300000Y-135800000D01*
X171300000Y-137700000D02*
X171600000Y-138000000D01*
X171300000Y-129600000D02*
X171300000Y-137700000D01*
X177100000Y-138000000D02*
X173700000Y-138000000D01*
X171600000Y-138000000D02*
X172700000Y-138000000D01*
X179300000Y-135800000D02*
X177100000Y-138000000D01*
X166400000Y-121900000D02*
X166400000Y-120600000D01*
X168400000Y-127200000D02*
X168400000Y-123900000D01*
X168400000Y-123900000D02*
X166400000Y-121900000D01*
X169800000Y-128600000D02*
X168400000Y-127200000D01*
D19*
X155700000Y-133800000D02*
X155700000Y-134800000D01*
D18*
X183090000Y-121680000D02*
X182000000Y-121680000D01*
X182000000Y-121680000D02*
X181000000Y-120680000D01*
X169600000Y-143700000D02*
X166090000Y-143700000D01*
X166090000Y-143700000D02*
X166000000Y-143610000D01*
X170000000Y-144100000D02*
X169600000Y-143700000D01*
D19*
X164900000Y-139700000D02*
X167900000Y-142700000D01*
X176200000Y-144900000D02*
X179300000Y-148000000D01*
X167900000Y-142700000D02*
X170300000Y-142700000D01*
X179300000Y-148000000D02*
X179300000Y-152100000D01*
X176200000Y-143200000D02*
X176200000Y-144900000D01*
X164900000Y-131800000D02*
X164900000Y-139700000D01*
D18*
X172000000Y-139900000D02*
X173100000Y-141000000D01*
X180100000Y-145700000D02*
X180100000Y-152100000D01*
X175400000Y-141000000D02*
X180100000Y-145700000D01*
X173100000Y-141000000D02*
X175400000Y-141000000D01*
X171100000Y-128600000D02*
X171900000Y-129400000D01*
X171100000Y-127500000D02*
X171100000Y-128600000D01*
X171900000Y-129400000D02*
X171900000Y-136800000D01*
X155720000Y-145100000D02*
X159020000Y-148400000D01*
X159020000Y-148400000D02*
X160062500Y-148400000D01*
X157400000Y-141800000D02*
X154700000Y-141800000D01*
X158600000Y-143000000D02*
X157400000Y-141800000D01*
X160410000Y-139460000D02*
X160500000Y-139550000D01*
X160410000Y-138500000D02*
X160410000Y-139460000D01*
X159600000Y-138710000D02*
X159600000Y-139450000D01*
X159600000Y-139450000D02*
X159700000Y-139550000D01*
X159390000Y-138500000D02*
X159600000Y-138710000D01*
X159300000Y-145900000D02*
X159300000Y-145000000D01*
X161700000Y-142600000D02*
X162610000Y-142600000D01*
X159300000Y-145000000D02*
X161700000Y-142600000D01*
G04 #@! TA.AperFunction,Conductor*
G36*
X157361017Y-144501611D02*
G01*
X157804941Y-144718027D01*
X157810875Y-144724732D01*
X157810636Y-144732987D01*
X157702563Y-144996184D01*
X157696251Y-145002536D01*
X157696184Y-145002563D01*
X157432987Y-145110636D01*
X157424032Y-145110609D01*
X157418027Y-145104941D01*
X157201611Y-144661017D01*
X157201066Y-144652079D01*
X157203853Y-144647619D01*
X157347618Y-144503854D01*
X157355890Y-144500428D01*
X157361017Y-144501611D01*
G37*
G04 #@! TD.AperFunction*
G04 #@! TA.AperFunction,Conductor*
G36*
X154012839Y-144847155D02*
G01*
X154160029Y-144994345D01*
X154161129Y-144995616D01*
X154643938Y-145641886D01*
X154646144Y-145650564D01*
X154642838Y-145657161D01*
X153808337Y-146491662D01*
X153800064Y-146495089D01*
X153791791Y-146491662D01*
X153791088Y-146490893D01*
X153095400Y-145658731D01*
X153092722Y-145650186D01*
X153096625Y-145642464D01*
X153996819Y-144846661D01*
X154005285Y-144843750D01*
X154012839Y-144847155D01*
G37*
G04 #@! TD.AperFunction*
G04 #@! TA.AperFunction,Conductor*
G36*
X173575418Y-126089615D02*
G01*
X173581679Y-126095844D01*
X173625419Y-126199000D01*
X173743365Y-126477164D01*
X173803103Y-126618048D01*
X173803177Y-126627002D01*
X173796898Y-126633387D01*
X173792331Y-126634315D01*
X173592191Y-126634315D01*
X173587957Y-126633522D01*
X173587609Y-126633387D01*
X173530430Y-126611189D01*
X173196335Y-126481488D01*
X173189863Y-126475299D01*
X173189662Y-126466347D01*
X173189754Y-126466117D01*
X173298141Y-126203503D01*
X173304460Y-126197168D01*
X173566465Y-126089588D01*
X173575418Y-126089615D01*
G37*
G04 #@! TD.AperFunction*
G04 #@! TA.AperFunction,Conductor*
G36*
X173478988Y-133608410D02*
G01*
X173696177Y-133697436D01*
X173702531Y-133703744D01*
X173702564Y-133703823D01*
X173791588Y-133921008D01*
X173791555Y-133929963D01*
X173786083Y-133935866D01*
X173424734Y-134120394D01*
X173415808Y-134121105D01*
X173411140Y-134118247D01*
X173281752Y-133988859D01*
X173278325Y-133980586D01*
X173279604Y-133975268D01*
X173464135Y-133613914D01*
X173470948Y-133608106D01*
X173478988Y-133608410D01*
G37*
G04 #@! TD.AperFunction*
G04 #@! TA.AperFunction,Conductor*
G36*
X157881931Y-121874825D02*
G01*
X158025174Y-122018068D01*
X158028601Y-122026341D01*
X158027198Y-122031896D01*
X157835966Y-122386408D01*
X157829023Y-122392062D01*
X157821232Y-122391679D01*
X157603824Y-122302564D01*
X157597468Y-122296255D01*
X157597435Y-122296175D01*
X157508320Y-122078767D01*
X157508353Y-122069813D01*
X157513589Y-122064034D01*
X157868103Y-121872800D01*
X157877012Y-121871889D01*
X157881931Y-121874825D01*
G37*
G04 #@! TD.AperFunction*
G04 #@! TA.AperFunction,Conductor*
G36*
X158480125Y-118008876D02*
G01*
X158695482Y-118097148D01*
X158701838Y-118103457D01*
X158701861Y-118103513D01*
X158791544Y-118320964D01*
X158791531Y-118329919D01*
X158786017Y-118335861D01*
X158512494Y-118474473D01*
X158507205Y-118475737D01*
X158306959Y-118475737D01*
X158298686Y-118472310D01*
X158295259Y-118464037D01*
X158296021Y-118459883D01*
X158433779Y-118097148D01*
X158464767Y-118015553D01*
X158470907Y-118009038D01*
X158479858Y-118008771D01*
X158480125Y-118008876D01*
G37*
G04 #@! TD.AperFunction*
G04 #@! TA.AperFunction,Conductor*
G36*
X181293889Y-151627691D02*
G01*
X181297316Y-151635964D01*
X181297071Y-151638347D01*
X181180032Y-152201014D01*
X181174992Y-152208416D01*
X181166194Y-152210086D01*
X181164133Y-152209454D01*
X180904510Y-152102852D01*
X180898160Y-152096542D01*
X180788952Y-151831938D01*
X180788963Y-151822986D01*
X180793523Y-151817582D01*
X181097140Y-151626067D01*
X181103382Y-151624264D01*
X181285616Y-151624264D01*
X181293889Y-151627691D01*
G37*
G04 #@! TD.AperFunction*
G04 #@! TA.AperFunction,Conductor*
G36*
X169220298Y-124560149D02*
G01*
X169635866Y-124696866D01*
X169702862Y-124718907D01*
X169709650Y-124724748D01*
X169710320Y-124733677D01*
X169710029Y-124734465D01*
X169602563Y-124996184D01*
X169596251Y-125002536D01*
X169596184Y-125002563D01*
X169331740Y-125111148D01*
X169322785Y-125111121D01*
X169317533Y-125106772D01*
X169063159Y-124721430D01*
X169061462Y-124712639D01*
X169064649Y-124706715D01*
X169208374Y-124562990D01*
X169216646Y-124559564D01*
X169220298Y-124560149D01*
G37*
G04 #@! TD.AperFunction*
G04 #@! TA.AperFunction,Conductor*
G36*
X173553864Y-139288475D02*
G01*
X174004671Y-139498123D01*
X174010726Y-139504718D01*
X174010559Y-139513175D01*
X173902563Y-139776184D01*
X173896251Y-139782536D01*
X173896184Y-139782563D01*
X173633175Y-139890559D01*
X173624220Y-139890532D01*
X173618123Y-139884671D01*
X173408475Y-139433865D01*
X173408095Y-139424920D01*
X173410810Y-139420662D01*
X173540661Y-139290811D01*
X173548933Y-139287385D01*
X173553864Y-139288475D01*
G37*
G04 #@! TD.AperFunction*
G04 #@! TA.AperFunction,Conductor*
G36*
X180675779Y-139689467D02*
G01*
X180681877Y-139695329D01*
X180891523Y-140146132D01*
X180891904Y-140155079D01*
X180889187Y-140159339D01*
X180759339Y-140289187D01*
X180751066Y-140292614D01*
X180746132Y-140291523D01*
X180452736Y-140155079D01*
X180295328Y-140081876D01*
X180289273Y-140075281D01*
X180289439Y-140066825D01*
X180397436Y-139803814D01*
X180403746Y-139797464D01*
X180666825Y-139689440D01*
X180675779Y-139689467D01*
G37*
G04 #@! TD.AperFunction*
G04 #@! TA.AperFunction,Conductor*
G36*
X167367038Y-120310574D02*
G01*
X167373350Y-120316926D01*
X167373589Y-120325181D01*
X167212718Y-120792111D01*
X167206783Y-120798817D01*
X167201656Y-120800000D01*
X166998344Y-120800000D01*
X166990071Y-120796573D01*
X166987282Y-120792111D01*
X166826410Y-120325178D01*
X166826955Y-120316243D01*
X166832959Y-120310575D01*
X167095490Y-120200883D01*
X167104444Y-120200857D01*
X167367038Y-120310574D01*
G37*
G04 #@! TD.AperFunction*
G04 #@! TA.AperFunction,Conductor*
G36*
X173809561Y-133203427D02*
G01*
X173812497Y-133208346D01*
X173927953Y-133594245D01*
X173927041Y-133603154D01*
X173921261Y-133608392D01*
X173704517Y-133699109D01*
X173695563Y-133699142D01*
X173695483Y-133699109D01*
X173478738Y-133608392D01*
X173472429Y-133602036D01*
X173472046Y-133594247D01*
X173587503Y-133208346D01*
X173593157Y-133201403D01*
X173598712Y-133200000D01*
X173801288Y-133200000D01*
X173809561Y-133203427D01*
G37*
G04 #@! TD.AperFunction*
G04 #@! TA.AperFunction,Conductor*
G36*
X166403154Y-131672958D02*
G01*
X166408392Y-131678738D01*
X166499109Y-131895483D01*
X166499142Y-131904437D01*
X166499109Y-131904517D01*
X166408392Y-132121261D01*
X166402036Y-132127570D01*
X166394245Y-132127953D01*
X166008346Y-132012497D01*
X166001403Y-132006843D01*
X166000000Y-132001288D01*
X166000000Y-131798711D01*
X166003427Y-131790438D01*
X166008342Y-131787503D01*
X166394247Y-131672046D01*
X166403154Y-131672958D01*
G37*
G04 #@! TD.AperFunction*
G04 #@! TA.AperFunction,Conductor*
G36*
X161781443Y-123640017D02*
G01*
X161787768Y-123646356D01*
X161788364Y-123648233D01*
X162134565Y-125174134D01*
X162133054Y-125182961D01*
X162131428Y-125184996D01*
X161986153Y-125330271D01*
X161977880Y-125333698D01*
X161973058Y-125332658D01*
X160685030Y-124749962D01*
X160678904Y-124743430D01*
X160679037Y-124734839D01*
X160997438Y-123963783D01*
X161003759Y-123957448D01*
X161772489Y-123640008D01*
X161781443Y-123640017D01*
G37*
G04 #@! TD.AperFunction*
G04 #@! TA.AperFunction,Conductor*
G36*
X165782736Y-123639483D02*
G01*
X165789061Y-123645822D01*
X165789320Y-123646510D01*
X166277509Y-125077402D01*
X166276937Y-125086339D01*
X166274709Y-125089453D01*
X166129453Y-125234709D01*
X166121180Y-125238136D01*
X166117402Y-125237509D01*
X164686510Y-124749320D01*
X164679787Y-124743406D01*
X164679215Y-124734469D01*
X164679465Y-124733804D01*
X164997438Y-123963783D01*
X165003759Y-123957448D01*
X165773783Y-123639474D01*
X165782736Y-123639483D01*
G37*
G04 #@! TD.AperFunction*
G04 #@! TA.AperFunction,Conductor*
G36*
X166681931Y-134574825D02*
G01*
X166825174Y-134718068D01*
X166828601Y-134726341D01*
X166827198Y-134731896D01*
X166635966Y-135086408D01*
X166629023Y-135092062D01*
X166621232Y-135091679D01*
X166403824Y-135002564D01*
X166397468Y-134996255D01*
X166397435Y-134996175D01*
X166308320Y-134778767D01*
X166308353Y-134769813D01*
X166313589Y-134764034D01*
X166668103Y-134572800D01*
X166677012Y-134571889D01*
X166681931Y-134574825D01*
G37*
G04 #@! TD.AperFunction*
G04 #@! TA.AperFunction,Conductor*
G36*
X165782736Y-121099483D02*
G01*
X165789061Y-121105822D01*
X165789320Y-121106510D01*
X166277509Y-122537402D01*
X166276937Y-122546339D01*
X166274709Y-122549453D01*
X166129453Y-122694709D01*
X166121180Y-122698136D01*
X166117402Y-122697509D01*
X164686510Y-122209320D01*
X164679787Y-122203406D01*
X164679215Y-122194469D01*
X164679465Y-122193804D01*
X164997438Y-121423783D01*
X165003759Y-121417448D01*
X165773783Y-121099474D01*
X165782736Y-121099483D01*
G37*
G04 #@! TD.AperFunction*
G04 #@! TA.AperFunction,Conductor*
G36*
X167607511Y-135025350D02*
G01*
X167610897Y-135032647D01*
X167648943Y-135487374D01*
X167646218Y-135495905D01*
X167638260Y-135500009D01*
X167637331Y-135500050D01*
X167402374Y-135500990D01*
X167397810Y-135500083D01*
X167181295Y-135409462D01*
X167174986Y-135403106D01*
X167175019Y-135394152D01*
X167175674Y-135392830D01*
X167386622Y-135027769D01*
X167393728Y-135022321D01*
X167396752Y-135021923D01*
X167599238Y-135021923D01*
X167607511Y-135025350D01*
G37*
G04 #@! TD.AperFunction*
G04 #@! TA.AperFunction,Conductor*
G36*
X181108814Y-129589909D02*
G01*
X181109338Y-129590999D01*
X181200083Y-129807810D01*
X181200990Y-129812374D01*
X181200051Y-130047075D01*
X181196591Y-130055334D01*
X181188304Y-130058728D01*
X181187144Y-130058666D01*
X180728395Y-130011088D01*
X180720520Y-130006826D01*
X180717902Y-129999450D01*
X180717902Y-129796941D01*
X180721329Y-129788668D01*
X180723987Y-129786677D01*
X181092942Y-129585246D01*
X181101842Y-129584290D01*
X181108814Y-129589909D01*
G37*
G04 #@! TD.AperFunction*
G04 #@! TA.AperFunction,Conductor*
G36*
X176717111Y-128962282D02*
G01*
X176723817Y-128968217D01*
X176725000Y-128973344D01*
X176725000Y-129176655D01*
X176721573Y-129184928D01*
X176717111Y-129187717D01*
X176250181Y-129348589D01*
X176241243Y-129348044D01*
X176235574Y-129342038D01*
X176125883Y-129079509D01*
X176125857Y-129070556D01*
X176125862Y-129070542D01*
X176235574Y-128807960D01*
X176241926Y-128801649D01*
X176250178Y-128801410D01*
X176717111Y-128962282D01*
G37*
G04 #@! TD.AperFunction*
G04 #@! TA.AperFunction,Conductor*
G36*
X170309561Y-136403427D02*
G01*
X170312497Y-136408346D01*
X170427953Y-136794245D01*
X170427041Y-136803154D01*
X170421261Y-136808392D01*
X170204517Y-136899109D01*
X170195563Y-136899142D01*
X170195483Y-136899109D01*
X169978738Y-136808392D01*
X169972429Y-136802036D01*
X169972046Y-136794247D01*
X170087503Y-136408346D01*
X170093157Y-136401403D01*
X170098712Y-136400000D01*
X170301288Y-136400000D01*
X170309561Y-136403427D01*
G37*
G04 #@! TD.AperFunction*
G04 #@! TA.AperFunction,Conductor*
G36*
X171478766Y-122008319D02*
G01*
X171696175Y-122097435D01*
X171702531Y-122103744D01*
X171702564Y-122103824D01*
X171791679Y-122321232D01*
X171791646Y-122330186D01*
X171786408Y-122335966D01*
X171431896Y-122527198D01*
X171422987Y-122528110D01*
X171418068Y-122525174D01*
X171274825Y-122381931D01*
X171271398Y-122373658D01*
X171272801Y-122368103D01*
X171464034Y-122013589D01*
X171470976Y-122007937D01*
X171478766Y-122008319D01*
G37*
G04 #@! TD.AperFunction*
G04 #@! TA.AperFunction,Conductor*
G36*
X172573088Y-123690572D02*
G01*
X172579400Y-123696924D01*
X172580032Y-123698985D01*
X172697071Y-124261653D01*
X172695401Y-124270451D01*
X172687999Y-124275491D01*
X172685616Y-124275736D01*
X172503382Y-124275736D01*
X172497140Y-124273932D01*
X172193525Y-124082418D01*
X172188356Y-124075106D01*
X172188951Y-124068061D01*
X172298141Y-123803503D01*
X172304460Y-123797168D01*
X172564134Y-123690545D01*
X172573088Y-123690572D01*
G37*
G04 #@! TD.AperFunction*
G04 #@! TA.AperFunction,Conductor*
G36*
X172175251Y-121189684D02*
G01*
X172181563Y-121196036D01*
X172181581Y-121196081D01*
X172393467Y-121718216D01*
X172393403Y-121727170D01*
X172387025Y-121733456D01*
X172382626Y-121734315D01*
X172202142Y-121734315D01*
X172197997Y-121733556D01*
X171796461Y-121581432D01*
X171789938Y-121575297D01*
X171789665Y-121566346D01*
X171789779Y-121566055D01*
X171898141Y-121303503D01*
X171904460Y-121297168D01*
X172166297Y-121189657D01*
X172175251Y-121189684D01*
G37*
G04 #@! TD.AperFunction*
G04 #@! TA.AperFunction,Conductor*
G36*
X172400090Y-123203427D02*
G01*
X172402807Y-123207687D01*
X172573330Y-123674694D01*
X172572949Y-123683641D01*
X172566851Y-123689503D01*
X172304511Y-123799115D01*
X172295556Y-123799142D01*
X172295489Y-123799115D01*
X172033148Y-123689503D01*
X172026836Y-123683151D01*
X172026669Y-123674697D01*
X172197193Y-123207686D01*
X172203249Y-123201091D01*
X172208183Y-123200000D01*
X172391817Y-123200000D01*
X172400090Y-123203427D01*
G37*
G04 #@! TD.AperFunction*
G04 #@! TA.AperFunction,Conductor*
G36*
X172499764Y-136903427D02*
G01*
X172502622Y-136908095D01*
X172627652Y-137294087D01*
X172626941Y-137303013D01*
X172621038Y-137308485D01*
X172404517Y-137399109D01*
X172395563Y-137399142D01*
X172395483Y-137399109D01*
X172178961Y-137308485D01*
X172172652Y-137302129D01*
X172172347Y-137294088D01*
X172297378Y-136908095D01*
X172303188Y-136901280D01*
X172308509Y-136900000D01*
X172491491Y-136900000D01*
X172499764Y-136903427D01*
G37*
G04 #@! TD.AperFunction*
G04 #@! TA.AperFunction,Conductor*
G36*
X182666851Y-139410496D02*
G01*
X182673163Y-139416848D01*
X182673330Y-139425305D01*
X182502807Y-139892313D01*
X182496751Y-139898909D01*
X182491817Y-139900000D01*
X182308183Y-139900000D01*
X182299910Y-139896573D01*
X182297193Y-139892313D01*
X182126669Y-139425302D01*
X182127050Y-139416358D01*
X182133147Y-139410496D01*
X182395490Y-139300883D01*
X182404444Y-139300857D01*
X182666851Y-139410496D01*
G37*
G04 #@! TD.AperFunction*
G04 #@! TA.AperFunction,Conductor*
G36*
X169528812Y-128908916D02*
G01*
X169535121Y-128915272D01*
X169535233Y-128915555D01*
X169703979Y-129359883D01*
X169703712Y-129368834D01*
X169697195Y-129374975D01*
X169693041Y-129375737D01*
X169492795Y-129375737D01*
X169487506Y-129374473D01*
X169213982Y-129235861D01*
X169208152Y-129229065D01*
X169208454Y-129220966D01*
X169298139Y-129003511D01*
X169304458Y-128997172D01*
X169519859Y-128908883D01*
X169528812Y-128908916D01*
G37*
G04 #@! TD.AperFunction*
G04 #@! TA.AperFunction,Conductor*
G36*
X182502003Y-140966444D02*
G01*
X182903538Y-141118567D01*
X182910061Y-141124702D01*
X182910334Y-141133653D01*
X182910208Y-141133972D01*
X182801860Y-141396493D01*
X182795536Y-141402833D01*
X182795489Y-141402852D01*
X182533703Y-141510342D01*
X182524748Y-141510315D01*
X182518436Y-141503963D01*
X182518418Y-141503918D01*
X182306533Y-140981784D01*
X182306597Y-140972830D01*
X182312975Y-140966544D01*
X182317374Y-140965685D01*
X182497858Y-140965685D01*
X182502003Y-140966444D01*
G37*
G04 #@! TD.AperFunction*
G04 #@! TA.AperFunction,Conductor*
G36*
X170431896Y-139872801D02*
G01*
X170583473Y-139954565D01*
X170786408Y-140064033D01*
X170792062Y-140070976D01*
X170791679Y-140078767D01*
X170702564Y-140296175D01*
X170696255Y-140302531D01*
X170696175Y-140302564D01*
X170478767Y-140391679D01*
X170469813Y-140391646D01*
X170464033Y-140386408D01*
X170272801Y-140031896D01*
X170271889Y-140022987D01*
X170274823Y-140018070D01*
X170418069Y-139874824D01*
X170426341Y-139871398D01*
X170431896Y-139872801D01*
G37*
G04 #@! TD.AperFunction*
G04 #@! TA.AperFunction,Conductor*
G36*
X183073088Y-141290572D02*
G01*
X183079400Y-141296924D01*
X183080032Y-141298985D01*
X183197071Y-141861653D01*
X183195401Y-141870451D01*
X183187999Y-141875491D01*
X183185616Y-141875736D01*
X183003382Y-141875736D01*
X182997140Y-141873932D01*
X182693525Y-141682418D01*
X182688356Y-141675106D01*
X182688951Y-141668061D01*
X182798141Y-141403503D01*
X182804460Y-141397168D01*
X183064134Y-141290545D01*
X183073088Y-141290572D01*
G37*
G04 #@! TD.AperFunction*
G04 #@! TA.AperFunction,Conductor*
G36*
X182852382Y-151603855D02*
G01*
X182996144Y-151747617D01*
X182999571Y-151755890D01*
X182998388Y-151761017D01*
X182781973Y-152204940D01*
X182775267Y-152210875D01*
X182767012Y-152210636D01*
X182503815Y-152102563D01*
X182497463Y-152096251D01*
X182497436Y-152096184D01*
X182389363Y-151832987D01*
X182389390Y-151824032D01*
X182395056Y-151818028D01*
X182838982Y-151601610D01*
X182847920Y-151601066D01*
X182852382Y-151603855D01*
G37*
G04 #@! TD.AperFunction*
G04 #@! TA.AperFunction,Conductor*
G36*
X181809929Y-151503427D02*
G01*
X181812718Y-151507889D01*
X181973589Y-151974818D01*
X181973044Y-151983756D01*
X181967038Y-151989425D01*
X181704511Y-152099115D01*
X181695556Y-152099142D01*
X181695489Y-152099115D01*
X181432961Y-151989425D01*
X181426649Y-151983073D01*
X181426410Y-151974821D01*
X181587282Y-151507888D01*
X181593217Y-151501183D01*
X181598344Y-151500000D01*
X181801656Y-151500000D01*
X181809929Y-151503427D01*
G37*
G04 #@! TD.AperFunction*
G04 #@! TA.AperFunction,Conductor*
G36*
X185583756Y-137326955D02*
G01*
X185589425Y-137332961D01*
X185699115Y-137595489D01*
X185699142Y-137604444D01*
X185699115Y-137604511D01*
X185589425Y-137867038D01*
X185583073Y-137873350D01*
X185574818Y-137873588D01*
X185502241Y-137848584D01*
X185107889Y-137712717D01*
X185101183Y-137706782D01*
X185100000Y-137701655D01*
X185100000Y-137498344D01*
X185103427Y-137490071D01*
X185107889Y-137487282D01*
X185574820Y-137326410D01*
X185583756Y-137326955D01*
G37*
G04 #@! TD.AperFunction*
G04 #@! TA.AperFunction,Conductor*
G36*
X181330186Y-138608353D02*
G01*
X181335966Y-138613591D01*
X181527198Y-138968103D01*
X181528110Y-138977012D01*
X181525174Y-138981931D01*
X181381931Y-139125174D01*
X181373658Y-139128601D01*
X181368103Y-139127198D01*
X181013591Y-138935966D01*
X181007937Y-138929023D01*
X181008319Y-138921233D01*
X181097436Y-138703822D01*
X181103743Y-138697468D01*
X181321233Y-138608320D01*
X181330186Y-138608353D01*
G37*
G04 #@! TD.AperFunction*
G04 #@! TA.AperFunction,Conductor*
G36*
X171499764Y-139603427D02*
G01*
X171502622Y-139608095D01*
X171627652Y-139994087D01*
X171626941Y-140003013D01*
X171621038Y-140008485D01*
X171404517Y-140099109D01*
X171395563Y-140099142D01*
X171395483Y-140099109D01*
X171178961Y-140008485D01*
X171172652Y-140002129D01*
X171172347Y-139994088D01*
X171297378Y-139608095D01*
X171303188Y-139601280D01*
X171308509Y-139600000D01*
X171491491Y-139600000D01*
X171499764Y-139603427D01*
G37*
G04 #@! TD.AperFunction*
G04 #@! TA.AperFunction,Conductor*
G36*
X182775779Y-138289467D02*
G01*
X182781877Y-138295329D01*
X182991523Y-138746132D01*
X182991904Y-138755079D01*
X182989187Y-138759339D01*
X182859339Y-138889187D01*
X182851066Y-138892614D01*
X182846132Y-138891523D01*
X182552736Y-138755079D01*
X182395328Y-138681876D01*
X182389273Y-138675281D01*
X182389439Y-138666825D01*
X182497436Y-138403814D01*
X182503746Y-138397464D01*
X182766825Y-138289440D01*
X182775779Y-138289467D01*
G37*
G04 #@! TD.AperFunction*
G04 #@! TA.AperFunction,Conductor*
G36*
X170921261Y-129691607D02*
G01*
X170927570Y-129697963D01*
X170927953Y-129705754D01*
X170812497Y-130091654D01*
X170806843Y-130098597D01*
X170801288Y-130100000D01*
X170598712Y-130100000D01*
X170590439Y-130096573D01*
X170587503Y-130091654D01*
X170585074Y-130083537D01*
X170472046Y-129705752D01*
X170472958Y-129696845D01*
X170478736Y-129691608D01*
X170695484Y-129600889D01*
X170704437Y-129600857D01*
X170921261Y-129691607D01*
G37*
G04 #@! TD.AperFunction*
G04 #@! TA.AperFunction,Conductor*
G36*
X183703649Y-151627691D02*
G01*
X183707076Y-151635964D01*
X183706791Y-151638532D01*
X183580204Y-152201286D01*
X183575045Y-152208605D01*
X183566221Y-152210133D01*
X183564345Y-152209541D01*
X183304510Y-152102852D01*
X183298160Y-152096542D01*
X183188897Y-151831805D01*
X183188908Y-151822851D01*
X183193326Y-151817539D01*
X183487089Y-151626161D01*
X183493475Y-151624264D01*
X183695376Y-151624264D01*
X183703649Y-151627691D01*
G37*
G04 #@! TD.AperFunction*
G04 #@! TA.AperFunction,Conductor*
G36*
X183866851Y-141410496D02*
G01*
X183873163Y-141416848D01*
X183873330Y-141425305D01*
X183702807Y-141892313D01*
X183696751Y-141898909D01*
X183691817Y-141900000D01*
X183508183Y-141900000D01*
X183499910Y-141896573D01*
X183497193Y-141892313D01*
X183326669Y-141425302D01*
X183327050Y-141416358D01*
X183333147Y-141410496D01*
X183595490Y-141300883D01*
X183604444Y-141300857D01*
X183866851Y-141410496D01*
G37*
G04 #@! TD.AperFunction*
G04 #@! TA.AperFunction,Conductor*
G36*
X183700090Y-140703427D02*
G01*
X183702807Y-140707687D01*
X183873330Y-141174694D01*
X183872949Y-141183641D01*
X183866851Y-141189503D01*
X183604511Y-141299115D01*
X183595556Y-141299142D01*
X183595489Y-141299115D01*
X183333148Y-141189503D01*
X183326836Y-141183151D01*
X183326669Y-141174697D01*
X183497193Y-140707686D01*
X183503249Y-140701091D01*
X183508183Y-140700000D01*
X183691817Y-140700000D01*
X183700090Y-140703427D01*
G37*
G04 #@! TD.AperFunction*
G04 #@! TA.AperFunction,Conductor*
G36*
X173109561Y-130203427D02*
G01*
X173112497Y-130208346D01*
X173227953Y-130594245D01*
X173227041Y-130603154D01*
X173221261Y-130608392D01*
X173004517Y-130699109D01*
X172995563Y-130699142D01*
X172995483Y-130699109D01*
X172778738Y-130608392D01*
X172772429Y-130602036D01*
X172772046Y-130594247D01*
X172887503Y-130208346D01*
X172893157Y-130201403D01*
X172898712Y-130200000D01*
X173101288Y-130200000D01*
X173109561Y-130203427D01*
G37*
G04 #@! TD.AperFunction*
G04 #@! TA.AperFunction,Conductor*
G36*
X173137331Y-127399949D02*
G01*
X173145590Y-127403409D01*
X173148984Y-127411696D01*
X173148943Y-127412625D01*
X173110897Y-127867353D01*
X173106793Y-127875311D01*
X173099238Y-127878077D01*
X172896752Y-127878077D01*
X172888479Y-127874650D01*
X172886622Y-127872231D01*
X172869549Y-127842685D01*
X172675681Y-127507182D01*
X172674510Y-127498306D01*
X172679958Y-127491200D01*
X172681287Y-127490540D01*
X172897812Y-127399915D01*
X172902371Y-127399009D01*
X173137331Y-127399949D01*
G37*
G04 #@! TD.AperFunction*
G04 #@! TA.AperFunction,Conductor*
G36*
X172067038Y-126910574D02*
G01*
X172073350Y-126916926D01*
X172073589Y-126925181D01*
X171912718Y-127392111D01*
X171906783Y-127398817D01*
X171901656Y-127400000D01*
X171698344Y-127400000D01*
X171690071Y-127396573D01*
X171687282Y-127392111D01*
X171526410Y-126925178D01*
X171526955Y-126916243D01*
X171532959Y-126910575D01*
X171795490Y-126800883D01*
X171804444Y-126800857D01*
X172067038Y-126910574D01*
G37*
G04 #@! TD.AperFunction*
G04 #@! TA.AperFunction,Conductor*
G36*
X171909561Y-128003427D02*
G01*
X171912497Y-128008346D01*
X172027953Y-128394245D01*
X172027041Y-128403154D01*
X172021261Y-128408392D01*
X171804517Y-128499109D01*
X171795563Y-128499142D01*
X171795483Y-128499109D01*
X171578738Y-128408392D01*
X171572429Y-128402036D01*
X171572046Y-128394247D01*
X171687503Y-128008346D01*
X171693157Y-128001403D01*
X171698712Y-128000000D01*
X171901288Y-128000000D01*
X171909561Y-128003427D01*
G37*
G04 #@! TD.AperFunction*
G04 #@! TA.AperFunction,Conductor*
G36*
X160226206Y-118559469D02*
G01*
X160996215Y-118877438D01*
X161002552Y-118883761D01*
X161002562Y-118883785D01*
X161320525Y-119653781D01*
X161320516Y-119662736D01*
X161314177Y-119669061D01*
X161313489Y-119669320D01*
X159882597Y-120157509D01*
X159873660Y-120156937D01*
X159870546Y-120154709D01*
X159725290Y-120009453D01*
X159721863Y-120001180D01*
X159722490Y-119997402D01*
X159834425Y-119669320D01*
X160210679Y-118566509D01*
X160216593Y-118559787D01*
X160225530Y-118559215D01*
X160226206Y-118559469D01*
G37*
G04 #@! TD.AperFunction*
G04 #@! TA.AperFunction,Conductor*
G36*
X163309561Y-135403427D02*
G01*
X163312497Y-135408346D01*
X163427953Y-135794245D01*
X163427041Y-135803154D01*
X163421261Y-135808392D01*
X163204517Y-135899109D01*
X163195563Y-135899142D01*
X163195483Y-135899109D01*
X162978738Y-135808392D01*
X162972429Y-135802036D01*
X162972046Y-135794247D01*
X163087503Y-135408346D01*
X163093157Y-135401403D01*
X163098712Y-135400000D01*
X163301288Y-135400000D01*
X163309561Y-135403427D01*
G37*
G04 #@! TD.AperFunction*
G04 #@! TA.AperFunction,Conductor*
G36*
X190367038Y-145910574D02*
G01*
X190373350Y-145916926D01*
X190373589Y-145925181D01*
X190212718Y-146392111D01*
X190206783Y-146398817D01*
X190201656Y-146400000D01*
X189998344Y-146400000D01*
X189990071Y-146396573D01*
X189987282Y-146392111D01*
X189826410Y-145925178D01*
X189826955Y-145916243D01*
X189832959Y-145910575D01*
X190095490Y-145800883D01*
X190104444Y-145800857D01*
X190367038Y-145910574D01*
G37*
G04 #@! TD.AperFunction*
G04 #@! TA.AperFunction,Conductor*
G36*
X178667038Y-151610574D02*
G01*
X178673350Y-151616926D01*
X178673589Y-151625181D01*
X178512718Y-152092111D01*
X178506783Y-152098817D01*
X178501656Y-152100000D01*
X178298344Y-152100000D01*
X178290071Y-152096573D01*
X178287282Y-152092111D01*
X178126410Y-151625178D01*
X178126955Y-151616243D01*
X178132959Y-151610575D01*
X178395490Y-151500883D01*
X178404444Y-151500857D01*
X178667038Y-151610574D01*
G37*
G04 #@! TD.AperFunction*
G04 #@! TA.AperFunction,Conductor*
G36*
X168809561Y-137003427D02*
G01*
X168812497Y-137008346D01*
X168927953Y-137394245D01*
X168927041Y-137403154D01*
X168921261Y-137408392D01*
X168704517Y-137499109D01*
X168695563Y-137499142D01*
X168695483Y-137499109D01*
X168478738Y-137408392D01*
X168472429Y-137402036D01*
X168472046Y-137394247D01*
X168587503Y-137008346D01*
X168593157Y-137001403D01*
X168598712Y-137000000D01*
X168801288Y-137000000D01*
X168809561Y-137003427D01*
G37*
G04 #@! TD.AperFunction*
G04 #@! TA.AperFunction,Conductor*
G36*
X184409929Y-150503427D02*
G01*
X184412718Y-150507889D01*
X184573589Y-150974818D01*
X184573044Y-150983756D01*
X184567038Y-150989425D01*
X184304511Y-151099115D01*
X184295556Y-151099142D01*
X184295489Y-151099115D01*
X184032961Y-150989425D01*
X184026649Y-150983073D01*
X184026410Y-150974821D01*
X184187282Y-150507888D01*
X184193217Y-150501183D01*
X184198344Y-150500000D01*
X184401656Y-150500000D01*
X184409929Y-150503427D01*
G37*
G04 #@! TD.AperFunction*
G04 #@! TA.AperFunction,Conductor*
G36*
X184765553Y-141409953D02*
G01*
X184771865Y-141416305D01*
X184771838Y-141425260D01*
X184771481Y-141426032D01*
X184514363Y-141934082D01*
X184507570Y-141939916D01*
X184498641Y-141939238D01*
X184495651Y-141937072D01*
X184353433Y-141794854D01*
X184350630Y-141790350D01*
X184226364Y-141425173D01*
X184226943Y-141416237D01*
X184232947Y-141410601D01*
X184496206Y-141301163D01*
X184505159Y-141301153D01*
X184765553Y-141409953D01*
G37*
G04 #@! TD.AperFunction*
G04 #@! TA.AperFunction,Conductor*
G36*
X168878766Y-129608319D02*
G01*
X169096175Y-129697435D01*
X169102531Y-129703744D01*
X169102564Y-129703824D01*
X169191679Y-129921232D01*
X169191646Y-129930186D01*
X169186408Y-129935966D01*
X168831896Y-130127198D01*
X168822987Y-130128110D01*
X168818068Y-130125174D01*
X168674825Y-129981931D01*
X168671398Y-129973658D01*
X168672801Y-129968103D01*
X168864034Y-129613589D01*
X168870976Y-129607937D01*
X168878766Y-129608319D01*
G37*
G04 #@! TD.AperFunction*
G04 #@! TA.AperFunction,Conductor*
G36*
X180383756Y-135526955D02*
G01*
X180389425Y-135532961D01*
X180499115Y-135795489D01*
X180499142Y-135804444D01*
X180499115Y-135804511D01*
X180389425Y-136067038D01*
X180383073Y-136073350D01*
X180374818Y-136073588D01*
X180302241Y-136048584D01*
X179907889Y-135912717D01*
X179901183Y-135906782D01*
X179900000Y-135901655D01*
X179900000Y-135698344D01*
X179903427Y-135690071D01*
X179907889Y-135687282D01*
X180374820Y-135526410D01*
X180383756Y-135526955D01*
G37*
G04 #@! TD.AperFunction*
G04 #@! TA.AperFunction,Conductor*
G36*
X171521261Y-129691607D02*
G01*
X171527570Y-129697963D01*
X171527953Y-129705754D01*
X171412497Y-130091654D01*
X171406843Y-130098597D01*
X171401288Y-130100000D01*
X171198712Y-130100000D01*
X171190439Y-130096573D01*
X171187503Y-130091654D01*
X171185074Y-130083537D01*
X171072046Y-129705752D01*
X171072958Y-129696845D01*
X171078736Y-129691608D01*
X171295484Y-129600889D01*
X171304437Y-129600857D01*
X171521261Y-129691607D01*
G37*
G04 #@! TD.AperFunction*
G04 #@! TA.AperFunction,Conductor*
G36*
X174191655Y-137887503D02*
G01*
X174198597Y-137893156D01*
X174200000Y-137898711D01*
X174200000Y-138101288D01*
X174196573Y-138109561D01*
X174191654Y-138112497D01*
X173805754Y-138227953D01*
X173796845Y-138227041D01*
X173791607Y-138221261D01*
X173700889Y-138004515D01*
X173700857Y-137995563D01*
X173791608Y-137778736D01*
X173797963Y-137772429D01*
X173805751Y-137772046D01*
X174191655Y-137887503D01*
G37*
G04 #@! TD.AperFunction*
G04 #@! TA.AperFunction,Conductor*
G36*
X172603154Y-137772958D02*
G01*
X172608392Y-137778738D01*
X172699109Y-137995483D01*
X172699142Y-138004437D01*
X172699109Y-138004517D01*
X172608392Y-138221261D01*
X172602036Y-138227570D01*
X172594245Y-138227953D01*
X172208346Y-138112497D01*
X172201403Y-138106843D01*
X172200000Y-138101288D01*
X172200000Y-137898711D01*
X172203427Y-137890438D01*
X172208342Y-137887503D01*
X172594247Y-137772046D01*
X172603154Y-137772958D01*
G37*
G04 #@! TD.AperFunction*
G04 #@! TA.AperFunction,Conductor*
G36*
X166621261Y-120691607D02*
G01*
X166627570Y-120697963D01*
X166627953Y-120705754D01*
X166512497Y-121091654D01*
X166506843Y-121098597D01*
X166501288Y-121100000D01*
X166298712Y-121100000D01*
X166290439Y-121096573D01*
X166287503Y-121091654D01*
X166285074Y-121083537D01*
X166172046Y-120705752D01*
X166172958Y-120696845D01*
X166178736Y-120691608D01*
X166395484Y-120600889D01*
X166404437Y-120600857D01*
X166621261Y-120691607D01*
G37*
G04 #@! TD.AperFunction*
G04 #@! TA.AperFunction,Conductor*
G36*
X169531896Y-128172801D02*
G01*
X169683473Y-128254565D01*
X169886408Y-128364033D01*
X169892062Y-128370976D01*
X169891679Y-128378767D01*
X169802564Y-128596175D01*
X169796255Y-128602531D01*
X169796175Y-128602564D01*
X169578767Y-128691679D01*
X169569813Y-128691646D01*
X169564033Y-128686408D01*
X169372801Y-128331896D01*
X169371889Y-128322987D01*
X169374823Y-128318070D01*
X169518069Y-128174824D01*
X169526341Y-128171398D01*
X169531896Y-128172801D01*
G37*
G04 #@! TD.AperFunction*
G04 #@! TA.AperFunction,Conductor*
G36*
X155875411Y-133872607D02*
G01*
X155881713Y-133878967D01*
X155882201Y-133886361D01*
X155802289Y-134191266D01*
X155796876Y-134198400D01*
X155790971Y-134200000D01*
X155609029Y-134200000D01*
X155600756Y-134196573D01*
X155597711Y-134191266D01*
X155589856Y-134161298D01*
X155517798Y-133886359D01*
X155519016Y-133877490D01*
X155524586Y-133872608D01*
X155695474Y-133800898D01*
X155704428Y-133800858D01*
X155875411Y-133872607D01*
G37*
G04 #@! TD.AperFunction*
G04 #@! TA.AperFunction,Conductor*
G36*
X155799244Y-134403427D02*
G01*
X155802289Y-134408734D01*
X155882201Y-134713638D01*
X155880983Y-134722509D01*
X155875410Y-134727393D01*
X155704527Y-134799100D01*
X155695572Y-134799141D01*
X155695473Y-134799100D01*
X155524589Y-134727393D01*
X155518286Y-134721032D01*
X155517798Y-134713641D01*
X155597711Y-134408734D01*
X155603124Y-134401600D01*
X155609029Y-134400000D01*
X155790971Y-134400000D01*
X155799244Y-134403427D01*
G37*
G04 #@! TD.AperFunction*
G04 #@! TA.AperFunction,Conductor*
G36*
X183012686Y-121498920D02*
G01*
X183017278Y-121504317D01*
X183089100Y-121675473D01*
X183089141Y-121684427D01*
X183089100Y-121684527D01*
X183017278Y-121855682D01*
X183010916Y-121861985D01*
X183003854Y-121862554D01*
X182699065Y-121792095D01*
X182691776Y-121786893D01*
X182690000Y-121780696D01*
X182690000Y-121579303D01*
X182693427Y-121571030D01*
X182699063Y-121567904D01*
X183003854Y-121497445D01*
X183012686Y-121498920D01*
G37*
G04 #@! TD.AperFunction*
G04 #@! TA.AperFunction,Conductor*
G36*
X181184602Y-120607235D02*
G01*
X181189999Y-120611827D01*
X181347957Y-120864776D01*
X181355696Y-120877168D01*
X181357171Y-120886000D01*
X181354045Y-120891638D01*
X181211638Y-121034045D01*
X181203365Y-121037472D01*
X181197168Y-121035696D01*
X181194524Y-121034045D01*
X180931827Y-120869999D01*
X180926625Y-120862710D01*
X180927193Y-120855650D01*
X180997435Y-120683836D01*
X181003738Y-120677476D01*
X181003780Y-120677458D01*
X181175649Y-120607194D01*
X181184602Y-120607235D01*
G37*
G04 #@! TD.AperFunction*
G04 #@! TA.AperFunction,Conductor*
G36*
X166125089Y-143338571D02*
G01*
X166126212Y-143339113D01*
X166576039Y-143586666D01*
X166581635Y-143593656D01*
X166582098Y-143596915D01*
X166582098Y-143800138D01*
X166578671Y-143808411D01*
X166572379Y-143811669D01*
X166013634Y-143907657D01*
X166004900Y-143905680D01*
X166000122Y-143898107D01*
X165999953Y-143896175D01*
X165999007Y-143612362D01*
X165999909Y-143607822D01*
X166109783Y-143344854D01*
X166116134Y-143338544D01*
X166125089Y-143338571D01*
G37*
G04 #@! TD.AperFunction*
G04 #@! TA.AperFunction,Conductor*
G36*
X169581949Y-143596896D02*
G01*
X170104155Y-143818320D01*
X170110434Y-143824705D01*
X170110411Y-143833536D01*
X170002852Y-144095489D01*
X169996540Y-144101840D01*
X169996510Y-144101852D01*
X169996493Y-144101860D01*
X169733882Y-144210245D01*
X169724927Y-144210234D01*
X169718603Y-144203894D01*
X169718511Y-144203664D01*
X169566478Y-143812042D01*
X169565685Y-143807808D01*
X169565685Y-143607669D01*
X169569112Y-143599396D01*
X169577385Y-143595969D01*
X169581949Y-143596896D01*
G37*
G04 #@! TD.AperFunction*
G04 #@! TA.AperFunction,Conductor*
G36*
X170183641Y-142427050D02*
G01*
X170189503Y-142433148D01*
X170299115Y-142695489D01*
X170299142Y-142704444D01*
X170299115Y-142704511D01*
X170189503Y-142966851D01*
X170183151Y-142973163D01*
X170174694Y-142973329D01*
X170040947Y-142924493D01*
X169707687Y-142802806D01*
X169701091Y-142796750D01*
X169700000Y-142791816D01*
X169700000Y-142608183D01*
X169703427Y-142599910D01*
X169707687Y-142597193D01*
X170174697Y-142426669D01*
X170183641Y-142427050D01*
G37*
G04 #@! TD.AperFunction*
G04 #@! TA.AperFunction,Conductor*
G36*
X179400090Y-151503427D02*
G01*
X179402807Y-151507687D01*
X179573330Y-151974694D01*
X179572949Y-151983641D01*
X179566851Y-151989503D01*
X179304511Y-152099115D01*
X179295556Y-152099142D01*
X179295489Y-152099115D01*
X179033148Y-151989503D01*
X179026836Y-151983151D01*
X179026669Y-151974697D01*
X179197193Y-151507686D01*
X179203249Y-151501091D01*
X179208183Y-151500000D01*
X179391817Y-151500000D01*
X179400090Y-151503427D01*
G37*
G04 #@! TD.AperFunction*
G04 #@! TA.AperFunction,Conductor*
G36*
X176466851Y-143310496D02*
G01*
X176473163Y-143316848D01*
X176473330Y-143325305D01*
X176302807Y-143792313D01*
X176296751Y-143798909D01*
X176291817Y-143800000D01*
X176108183Y-143800000D01*
X176099910Y-143796573D01*
X176097193Y-143792313D01*
X175926669Y-143325302D01*
X175927050Y-143316358D01*
X175933147Y-143310496D01*
X176195490Y-143200883D01*
X176204444Y-143200857D01*
X176466851Y-143310496D01*
G37*
G04 #@! TD.AperFunction*
G04 #@! TA.AperFunction,Conductor*
G36*
X165121038Y-131891514D02*
G01*
X165127347Y-131897870D01*
X165127652Y-131905912D01*
X165002622Y-132291905D01*
X164996812Y-132298720D01*
X164991491Y-132300000D01*
X164808509Y-132300000D01*
X164800236Y-132296573D01*
X164797378Y-132291905D01*
X164672347Y-131905912D01*
X164673058Y-131896986D01*
X164678960Y-131891514D01*
X164895484Y-131800889D01*
X164904437Y-131800857D01*
X165121038Y-131891514D01*
G37*
G04 #@! TD.AperFunction*
G04 #@! TA.AperFunction,Conductor*
G36*
X172230186Y-139808353D02*
G01*
X172235966Y-139813591D01*
X172427198Y-140168103D01*
X172428110Y-140177012D01*
X172425174Y-140181931D01*
X172281931Y-140325174D01*
X172273658Y-140328601D01*
X172268103Y-140327198D01*
X171913591Y-140135966D01*
X171907937Y-140129023D01*
X171908319Y-140121233D01*
X171997436Y-139903822D01*
X172003743Y-139897468D01*
X172221233Y-139808320D01*
X172230186Y-139808353D01*
G37*
G04 #@! TD.AperFunction*
G04 #@! TA.AperFunction,Conductor*
G36*
X180209929Y-151503427D02*
G01*
X180212718Y-151507889D01*
X180373589Y-151974818D01*
X180373044Y-151983756D01*
X180367038Y-151989425D01*
X180104511Y-152099115D01*
X180095556Y-152099142D01*
X180095489Y-152099115D01*
X179832961Y-151989425D01*
X179826649Y-151983073D01*
X179826410Y-151974821D01*
X179987282Y-151507888D01*
X179993217Y-151501183D01*
X179998344Y-151500000D01*
X180201656Y-151500000D01*
X180209929Y-151503427D01*
G37*
G04 #@! TD.AperFunction*
G04 #@! TA.AperFunction,Conductor*
G36*
X171321261Y-127591607D02*
G01*
X171327570Y-127597963D01*
X171327953Y-127605754D01*
X171212497Y-127991654D01*
X171206843Y-127998597D01*
X171201288Y-128000000D01*
X170998712Y-128000000D01*
X170990439Y-127996573D01*
X170987503Y-127991654D01*
X170985074Y-127983537D01*
X170872046Y-127605752D01*
X170872958Y-127596845D01*
X170878736Y-127591608D01*
X171095484Y-127500889D01*
X171104437Y-127500857D01*
X171321261Y-127591607D01*
G37*
G04 #@! TD.AperFunction*
G04 #@! TA.AperFunction,Conductor*
G36*
X172009561Y-136303427D02*
G01*
X172012497Y-136308346D01*
X172127953Y-136694245D01*
X172127041Y-136703154D01*
X172121261Y-136708392D01*
X171904517Y-136799109D01*
X171895563Y-136799142D01*
X171895483Y-136799109D01*
X171678738Y-136708392D01*
X171672429Y-136702036D01*
X171672046Y-136694247D01*
X171787503Y-136308346D01*
X171793157Y-136301403D01*
X171798712Y-136300000D01*
X172001288Y-136300000D01*
X172009561Y-136303427D01*
G37*
G04 #@! TD.AperFunction*
G04 #@! TA.AperFunction,Conductor*
G36*
X155995967Y-144989390D02*
G01*
X156001973Y-144995059D01*
X156218388Y-145438982D01*
X156218933Y-145447920D01*
X156216144Y-145452382D01*
X156072382Y-145596144D01*
X156064109Y-145599571D01*
X156058982Y-145598388D01*
X155615059Y-145381973D01*
X155609124Y-145375267D01*
X155609362Y-145367013D01*
X155717436Y-145103814D01*
X155723746Y-145097464D01*
X155987013Y-144989363D01*
X155995967Y-144989390D01*
G37*
G04 #@! TD.AperFunction*
G04 #@! TA.AperFunction,Conductor*
G36*
X159946256Y-148126955D02*
G01*
X159951925Y-148132961D01*
X160061615Y-148395489D01*
X160061642Y-148404444D01*
X160061615Y-148404511D01*
X159951925Y-148667038D01*
X159945573Y-148673350D01*
X159937318Y-148673588D01*
X159864741Y-148648584D01*
X159470389Y-148512717D01*
X159463683Y-148506782D01*
X159462500Y-148501655D01*
X159462500Y-148298344D01*
X159465927Y-148290071D01*
X159470389Y-148287282D01*
X159937320Y-148126410D01*
X159946256Y-148126955D01*
G37*
G04 #@! TD.AperFunction*
G04 #@! TA.AperFunction,Conductor*
G36*
X155292111Y-141687282D02*
G01*
X155298817Y-141693217D01*
X155300000Y-141698344D01*
X155300000Y-141901655D01*
X155296573Y-141909928D01*
X155292111Y-141912717D01*
X154825181Y-142073589D01*
X154816243Y-142073044D01*
X154810574Y-142067038D01*
X154700883Y-141804509D01*
X154700857Y-141795556D01*
X154700862Y-141795542D01*
X154810574Y-141532960D01*
X154816926Y-141526649D01*
X154825178Y-141526410D01*
X155292111Y-141687282D01*
G37*
G04 #@! TD.AperFunction*
G04 #@! TA.AperFunction,Conductor*
G36*
X158261017Y-142501611D02*
G01*
X158704941Y-142718027D01*
X158710875Y-142724732D01*
X158710636Y-142732987D01*
X158602563Y-142996184D01*
X158596251Y-143002536D01*
X158596184Y-143002563D01*
X158332987Y-143110636D01*
X158324032Y-143110609D01*
X158318027Y-143104941D01*
X158101611Y-142661017D01*
X158101066Y-142652079D01*
X158103853Y-142647619D01*
X158247618Y-142503854D01*
X158255890Y-142500428D01*
X158261017Y-142501611D01*
G37*
G04 #@! TD.AperFunction*
G04 #@! TA.AperFunction,Conductor*
G36*
X160417898Y-138506227D02*
G01*
X160663622Y-138731078D01*
X160667413Y-138739192D01*
X160666497Y-138744275D01*
X160523023Y-139082865D01*
X160516640Y-139089145D01*
X160512250Y-139090000D01*
X160307750Y-139090000D01*
X160299477Y-139086573D01*
X160296977Y-139082865D01*
X160153502Y-138744275D01*
X160153430Y-138735320D01*
X160156374Y-138731081D01*
X160402102Y-138506226D01*
X160410518Y-138503170D01*
X160417898Y-138506227D01*
G37*
G04 #@! TD.AperFunction*
G04 #@! TA.AperFunction,Conductor*
G36*
X160521357Y-138971329D02*
G01*
X160523334Y-138973961D01*
X160770882Y-139423780D01*
X160771869Y-139432680D01*
X160766273Y-139439671D01*
X160765143Y-139440217D01*
X160502182Y-139550088D01*
X160497632Y-139550992D01*
X160213834Y-139550046D01*
X160205572Y-139546592D01*
X160202173Y-139538307D01*
X160202342Y-139536365D01*
X160218954Y-139439671D01*
X160298330Y-138977620D01*
X160303108Y-138970048D01*
X160309861Y-138967902D01*
X160513084Y-138967902D01*
X160521357Y-138971329D01*
G37*
G04 #@! TD.AperFunction*
G04 #@! TA.AperFunction,Conductor*
G36*
X159656064Y-138454644D02*
G01*
X159660900Y-138462181D01*
X159661046Y-138463301D01*
X159708969Y-139051480D01*
X159706226Y-139060004D01*
X159698258Y-139064091D01*
X159697308Y-139064130D01*
X159494585Y-139064130D01*
X159486635Y-139061014D01*
X159225236Y-138818942D01*
X159221496Y-138810808D01*
X159222919Y-138804751D01*
X159387316Y-138503910D01*
X159394289Y-138498296D01*
X159395494Y-138498012D01*
X159647316Y-138452736D01*
X159656064Y-138454644D01*
G37*
G04 #@! TD.AperFunction*
G04 #@! TA.AperFunction,Conductor*
G36*
X159711500Y-138973318D02*
G01*
X159713373Y-138975765D01*
X159970556Y-139423687D01*
X159971704Y-139432568D01*
X159966236Y-139439659D01*
X159964921Y-139440309D01*
X159702182Y-139550088D01*
X159697632Y-139550992D01*
X159413609Y-139550045D01*
X159405347Y-139546591D01*
X159401948Y-139538306D01*
X159402085Y-139536557D01*
X159488463Y-138979796D01*
X159493118Y-138972147D01*
X159500025Y-138969891D01*
X159703227Y-138969891D01*
X159711500Y-138973318D01*
G37*
G04 #@! TD.AperFunction*
G04 #@! TA.AperFunction,Conductor*
G36*
X159409929Y-145303427D02*
G01*
X159412718Y-145307889D01*
X159573589Y-145774818D01*
X159573044Y-145783756D01*
X159567038Y-145789425D01*
X159304511Y-145899115D01*
X159295556Y-145899142D01*
X159295489Y-145899115D01*
X159032961Y-145789425D01*
X159026649Y-145783073D01*
X159026410Y-145774821D01*
X159187282Y-145307888D01*
X159193217Y-145301183D01*
X159198344Y-145300000D01*
X159401656Y-145300000D01*
X159409929Y-145303427D01*
G37*
G04 #@! TD.AperFunction*
G04 #@! TA.AperFunction,Conductor*
G36*
X162493756Y-142326955D02*
G01*
X162499425Y-142332961D01*
X162609115Y-142595489D01*
X162609142Y-142604444D01*
X162609115Y-142604511D01*
X162499425Y-142867038D01*
X162493073Y-142873350D01*
X162484818Y-142873588D01*
X162412241Y-142848584D01*
X162017889Y-142712717D01*
X162011183Y-142706782D01*
X162010000Y-142701655D01*
X162010000Y-142498344D01*
X162013427Y-142490071D01*
X162017889Y-142487282D01*
X162484820Y-142326410D01*
X162493756Y-142326955D01*
G37*
G04 #@! TD.AperFunction*
M02*
