G04 #@! TF.GenerationSoftware,KiCad,Pcbnew,8.0.1*
G04 #@! TF.CreationDate,2024-09-12T17:06:28-04:00*
G04 #@! TF.ProjectId,Digital,44696769-7461-46c2-9e6b-696361645f70,rev?*
G04 #@! TF.SameCoordinates,Original*
G04 #@! TF.FileFunction,Copper,L2,Inr*
G04 #@! TF.FilePolarity,Positive*
%FSLAX46Y46*%
G04 Gerber Fmt 4.6, Leading zero omitted, Abs format (unit mm)*
G04 Created by KiCad (PCBNEW 8.0.1) date 2024-09-12 17:06:28*
%MOMM*%
%LPD*%
G01*
G04 APERTURE LIST*
G04 Aperture macros list*
%AMRoundRect*
0 Rectangle with rounded corners*
0 $1 Rounding radius*
0 $2 $3 $4 $5 $6 $7 $8 $9 X,Y pos of 4 corners*
0 Add a 4 corners polygon primitive as box body*
4,1,4,$2,$3,$4,$5,$6,$7,$8,$9,$2,$3,0*
0 Add four circle primitives for the rounded corners*
1,1,$1+$1,$2,$3*
1,1,$1+$1,$4,$5*
1,1,$1+$1,$6,$7*
1,1,$1+$1,$8,$9*
0 Add four rect primitives between the rounded corners*
20,1,$1+$1,$2,$3,$4,$5,0*
20,1,$1+$1,$4,$5,$6,$7,0*
20,1,$1+$1,$6,$7,$8,$9,0*
20,1,$1+$1,$8,$9,$2,$3,0*%
G04 Aperture macros list end*
G04 #@! TA.AperFunction,ComponentPad*
%ADD10R,1.700000X1.700000*%
G04 #@! TD*
G04 #@! TA.AperFunction,ComponentPad*
%ADD11O,1.700000X1.700000*%
G04 #@! TD*
G04 #@! TA.AperFunction,ComponentPad*
%ADD12O,2.100000X1.000000*%
G04 #@! TD*
G04 #@! TA.AperFunction,ComponentPad*
%ADD13O,1.800000X1.000000*%
G04 #@! TD*
G04 #@! TA.AperFunction,ComponentPad*
%ADD14RoundRect,0.250000X-0.625000X0.350000X-0.625000X-0.350000X0.625000X-0.350000X0.625000X0.350000X0*%
G04 #@! TD*
G04 #@! TA.AperFunction,ComponentPad*
%ADD15O,1.750000X1.200000*%
G04 #@! TD*
G04 #@! TA.AperFunction,ViaPad*
%ADD16C,0.600000*%
G04 #@! TD*
G04 #@! TA.AperFunction,ViaPad*
%ADD17C,0.400000*%
G04 #@! TD*
G04 #@! TA.AperFunction,ViaPad*
%ADD18C,0.500000*%
G04 #@! TD*
G04 #@! TA.AperFunction,ViaPad*
%ADD19C,0.300000*%
G04 #@! TD*
G04 APERTURE END LIST*
D10*
X192700000Y-140350000D03*
D11*
X192700000Y-137810000D03*
X192700000Y-135270000D03*
X192700000Y-132730000D03*
X192700000Y-130190000D03*
X192700000Y-127650000D03*
D10*
X160360000Y-126100000D03*
D11*
X162900000Y-126100000D03*
X165440000Y-126100000D03*
X167980000Y-126100000D03*
D10*
X175600000Y-121700000D03*
D11*
X175600000Y-124240000D03*
D12*
X156105000Y-129680000D03*
D13*
X151925000Y-129680000D03*
D12*
X156105000Y-138320000D03*
D13*
X151925000Y-138320000D03*
D14*
X153800000Y-146500000D03*
D15*
X153800000Y-148500000D03*
D16*
X185133598Y-140877534D03*
X197000000Y-129000000D03*
X153000000Y-135000000D03*
X181000000Y-124000000D03*
X197000000Y-127000000D03*
X191000000Y-132000000D03*
X187000000Y-127000000D03*
X159800000Y-135700000D03*
X155000000Y-115000000D03*
X157000000Y-127000000D03*
X164900000Y-122900000D03*
X161000000Y-129000000D03*
X189600000Y-136700000D03*
X159000000Y-153000000D03*
X168500000Y-131100000D03*
X151000000Y-149000000D03*
X191000000Y-130000000D03*
X195000000Y-133000000D03*
X185000000Y-127000000D03*
X177600000Y-130700000D03*
X172100000Y-126500000D03*
X155000000Y-127000000D03*
X169000000Y-151000000D03*
X191000000Y-151000000D03*
X166800000Y-151000000D03*
X179000000Y-123999999D03*
X170800000Y-142000000D03*
X153000000Y-143000000D03*
X197000000Y-135000000D03*
X195000000Y-143000000D03*
X195000000Y-135000000D03*
X159000000Y-125000000D03*
D17*
X174100000Y-130420000D03*
D16*
X155400000Y-122600000D03*
X151000000Y-137000000D03*
X180600000Y-136600000D03*
X151000000Y-143000000D03*
X175000000Y-115000000D03*
X195000000Y-129000000D03*
X159000000Y-119000000D03*
X155000000Y-135000000D03*
X171800000Y-115700000D03*
X182300000Y-143300000D03*
X155000000Y-125000000D03*
X195000000Y-131000000D03*
X187200000Y-147600000D03*
X191000000Y-127000000D03*
X180200000Y-119500000D03*
X195000000Y-141000000D03*
X151000000Y-119000000D03*
X175000000Y-119000000D03*
X172500000Y-136900000D03*
X189000000Y-127000000D03*
X187000000Y-153000000D03*
X159000000Y-127000000D03*
X164900000Y-132400000D03*
X165800000Y-135500000D03*
X183600000Y-132000000D03*
D17*
X174100000Y-133280000D03*
D16*
X197000000Y-143000000D03*
X193000000Y-145000000D03*
X166000000Y-118000000D03*
X195000000Y-137000000D03*
X185000000Y-115000000D03*
X157000000Y-115000000D03*
X164000000Y-151200000D03*
X176700000Y-141600000D03*
X162200000Y-134000000D03*
X183000000Y-124000000D03*
X185000000Y-134000000D03*
X161900000Y-151200000D03*
X185000000Y-117000000D03*
X181000000Y-125986223D03*
X197000000Y-131000000D03*
X180800000Y-132500000D03*
X178500000Y-134490000D03*
X175000000Y-149000000D03*
X166900000Y-143100000D03*
X177000000Y-115000000D03*
X173000000Y-153000000D03*
X178300000Y-138700000D03*
X179400000Y-130800000D03*
X151000000Y-141000000D03*
X185900000Y-130700000D03*
X151000000Y-123000000D03*
X186500000Y-151000000D03*
X179700000Y-132300000D03*
X173000000Y-145000000D03*
X175000000Y-147000000D03*
X183000000Y-126000000D03*
X193000000Y-153000000D03*
X195000000Y-145000000D03*
X153000000Y-153000000D03*
X168500000Y-137400000D03*
X195000000Y-139000000D03*
X161000000Y-123000000D03*
X183000000Y-115000000D03*
X174671863Y-125661489D03*
X157000000Y-123000000D03*
X166400000Y-144500000D03*
X157000000Y-117000000D03*
X168700000Y-117700000D03*
X153000000Y-131000000D03*
X191000000Y-153000000D03*
X157000000Y-151000000D03*
X164100000Y-134800000D03*
X154800000Y-132700000D03*
X191000000Y-139000000D03*
X195000000Y-153000000D03*
X189000000Y-143000000D03*
X189000000Y-135000000D03*
X169700000Y-141800000D03*
X169200000Y-122400000D03*
X197000000Y-151000000D03*
X153000000Y-115000000D03*
X153000000Y-133000000D03*
X177621117Y-151911268D03*
X167000000Y-153000000D03*
X185000000Y-150300000D03*
X186400000Y-141300000D03*
X166200000Y-128100000D03*
X151000000Y-135000000D03*
X184200000Y-129800000D03*
X187000000Y-139000000D03*
X151000000Y-117000000D03*
X161500000Y-131000000D03*
X160000000Y-147100000D03*
X197000000Y-139000000D03*
X185300000Y-139000000D03*
X191000000Y-147000000D03*
X164000000Y-118000000D03*
X174900000Y-138700000D03*
X151000000Y-127000000D03*
X155000000Y-151000000D03*
X159000000Y-151000000D03*
X178884052Y-145982607D03*
X153000000Y-137000000D03*
X173000000Y-149000000D03*
X161000000Y-153000000D03*
X160000000Y-143390000D03*
X197000000Y-141000000D03*
X172100000Y-130800000D03*
X175000000Y-151000000D03*
X197000000Y-147000000D03*
X187000000Y-145000000D03*
X187300000Y-151200000D03*
X175000000Y-145000000D03*
X160000000Y-145400000D03*
X189000000Y-130000000D03*
X173000000Y-147000000D03*
X180900000Y-138200000D03*
X151000000Y-147000000D03*
X197000000Y-137000000D03*
X177000000Y-126000000D03*
X173000000Y-151000000D03*
X159200000Y-131100000D03*
X153000000Y-123000000D03*
X177300000Y-124000000D03*
D18*
X167300000Y-138300000D03*
D16*
X177000000Y-119000000D03*
X195000000Y-127000000D03*
X157000000Y-153000000D03*
X172000000Y-141300000D03*
X175000000Y-117000000D03*
X151000000Y-125000000D03*
X178500000Y-136300000D03*
X197000000Y-133000000D03*
X151000000Y-133000000D03*
X166400000Y-136800000D03*
X179700000Y-133600000D03*
X193000000Y-143000000D03*
X191000000Y-145000000D03*
X153000000Y-119000000D03*
X169000000Y-153000000D03*
X155000000Y-153000000D03*
X160600000Y-119800000D03*
X151000000Y-121000000D03*
X162300000Y-118200000D03*
X172000000Y-124700000D03*
X161800000Y-128900000D03*
X171000000Y-153000000D03*
X182600000Y-129100000D03*
X185000000Y-145000000D03*
X197000000Y-149000000D03*
X187000000Y-143000000D03*
X172000000Y-120500000D03*
X151000000Y-139000000D03*
X177000000Y-153000000D03*
X170900000Y-144200000D03*
X183000000Y-117000000D03*
X164000000Y-122700000D03*
X191102525Y-143000000D03*
X160000000Y-146200000D03*
X197000000Y-145000000D03*
X159000000Y-115000000D03*
X175500000Y-143300000D03*
X163000000Y-153000000D03*
X153000000Y-117000000D03*
X168100000Y-136000000D03*
X151000000Y-151000000D03*
X179000000Y-126000000D03*
X184900000Y-142800000D03*
X175000000Y-142000000D03*
X151000000Y-145000000D03*
X151000000Y-131000000D03*
X175000000Y-153000000D03*
X153000000Y-151000000D03*
X189000000Y-144934021D03*
X165000000Y-153000000D03*
X189000000Y-153000000D03*
X172900000Y-116400000D03*
X179900000Y-138200000D03*
X156000000Y-140800000D03*
X157000000Y-119000000D03*
X185000000Y-153000000D03*
X170400000Y-132500000D03*
X155000000Y-119000000D03*
X157700000Y-145000000D03*
X163725000Y-137100000D03*
X159800000Y-134000000D03*
X166600000Y-137600000D03*
X160625000Y-136600000D03*
X157700000Y-131600000D03*
X156680000Y-136400000D03*
X178000000Y-149700000D03*
X172200000Y-131700000D03*
X159000000Y-118000000D03*
X171200000Y-145400000D03*
X170124968Y-141075032D03*
X154600000Y-127900000D03*
X166800000Y-122800000D03*
X169124968Y-140075032D03*
X169124968Y-141075032D03*
X182300000Y-146100000D03*
X179800000Y-122300000D03*
X170124968Y-140075032D03*
X171200000Y-146400000D03*
X167800000Y-135300000D03*
X173600000Y-125300000D03*
X182300000Y-135700000D03*
X190000000Y-151200000D03*
X170200000Y-145400000D03*
X169200000Y-146400000D03*
X176000000Y-118000000D03*
X173700000Y-123700000D03*
X172500000Y-135920000D03*
X169200000Y-145400000D03*
X164900000Y-131400000D03*
X172900000Y-118800000D03*
X163900000Y-131500000D03*
X170200000Y-146400000D03*
X175700000Y-138200000D03*
X178000000Y-150500000D03*
X170100000Y-120700000D03*
X174400000Y-126500000D03*
X180900000Y-152100000D03*
X160350000Y-118950000D03*
X172400000Y-139800000D03*
X172700000Y-135000000D03*
X158900000Y-123400000D03*
X177800000Y-133600000D03*
X180400000Y-139800000D03*
X162800000Y-135500000D03*
X163700000Y-135600000D03*
D19*
X169018200Y-133400000D03*
D16*
X167600000Y-117800000D03*
X168900000Y-130200000D03*
X169200000Y-118400000D03*
D19*
X170218200Y-133800000D03*
D16*
X171500000Y-123400000D03*
D19*
X170218200Y-133400000D03*
D16*
X171400000Y-122400000D03*
X172300000Y-123800000D03*
X171400000Y-121500000D03*
X170100000Y-130100000D03*
X170400000Y-131200000D03*
X172100000Y-127200000D03*
D19*
X169818200Y-133400000D03*
D16*
X172100000Y-130000000D03*
X171000000Y-140400000D03*
D19*
X169418200Y-134600000D03*
D16*
X182400000Y-138600000D03*
X182800000Y-141400000D03*
X182500000Y-152100000D03*
X181700000Y-152100000D03*
X181000000Y-130400000D03*
X185700000Y-137600000D03*
X171700000Y-140100000D03*
D19*
X169818200Y-134600000D03*
D16*
X182400000Y-137700000D03*
X183300000Y-152100000D03*
X183600000Y-141300000D03*
X166200000Y-129200000D03*
D19*
X169018200Y-134600000D03*
D16*
X180100000Y-152100000D03*
X168400000Y-131900000D03*
D19*
X169418200Y-133400000D03*
D16*
X178600000Y-132100000D03*
X172400000Y-133500000D03*
D19*
X170218200Y-134200000D03*
D16*
X179100000Y-146800000D03*
X179900000Y-143000000D03*
X176200000Y-142700000D03*
X170300000Y-142700000D03*
X166100000Y-134200000D03*
X179300000Y-152100000D03*
D19*
X170218200Y-134600000D03*
D16*
X174900000Y-130000000D03*
D19*
X169018200Y-134200000D03*
D16*
X166200000Y-131300000D03*
D19*
X169018200Y-133800000D03*
D16*
X166900000Y-131300000D03*
X178400000Y-151500000D03*
X190100000Y-145800000D03*
X169200000Y-136400000D03*
X170100000Y-139300000D03*
X184300000Y-151100000D03*
X184500000Y-141300000D03*
X180100000Y-135000000D03*
X170100000Y-137200000D03*
D17*
X155700000Y-133800000D03*
X155700000Y-134800000D03*
X181000000Y-120680000D03*
X183090000Y-121680000D03*
D16*
X170000000Y-144100000D03*
X166000000Y-143610000D03*
X160062500Y-148400000D03*
X155720000Y-145100000D03*
X158600000Y-143000000D03*
X154700000Y-141800000D03*
X160500000Y-139550000D03*
X159700000Y-139550000D03*
X159300000Y-145900000D03*
X162610000Y-142600000D03*
G04 #@! TA.AperFunction,Conductor*
G36*
X185419191Y-114519407D02*
G01*
X185455155Y-114568907D01*
X185460000Y-114599500D01*
X185460000Y-125670000D01*
X197400500Y-125670000D01*
X197458691Y-125688907D01*
X197494655Y-125738407D01*
X197499500Y-125769000D01*
X197499500Y-151996460D01*
X197499248Y-152003523D01*
X197484742Y-152206337D01*
X197482732Y-152220318D01*
X197440264Y-152415542D01*
X197436284Y-152429095D01*
X197366466Y-152616284D01*
X197360598Y-152629133D01*
X197264854Y-152804474D01*
X197257218Y-152816356D01*
X197137493Y-152976290D01*
X197128243Y-152986966D01*
X196986966Y-153128243D01*
X196976290Y-153137493D01*
X196816356Y-153257218D01*
X196804474Y-153264854D01*
X196629133Y-153360598D01*
X196616284Y-153366466D01*
X196429095Y-153436284D01*
X196415542Y-153440264D01*
X196220318Y-153482732D01*
X196206337Y-153484742D01*
X196003523Y-153499248D01*
X195996460Y-153499500D01*
X152003540Y-153499500D01*
X151996477Y-153499248D01*
X151793662Y-153484742D01*
X151779681Y-153482732D01*
X151584457Y-153440264D01*
X151570904Y-153436284D01*
X151383715Y-153366466D01*
X151370875Y-153360602D01*
X151195525Y-153264854D01*
X151183643Y-153257218D01*
X151023709Y-153137493D01*
X151013033Y-153128243D01*
X150871756Y-152986966D01*
X150862506Y-152976290D01*
X150742781Y-152816356D01*
X150735145Y-152804474D01*
X150702815Y-152745266D01*
X150639394Y-152629118D01*
X150633537Y-152616292D01*
X150563713Y-152429088D01*
X150559737Y-152415549D01*
X150517265Y-152220308D01*
X150515258Y-152206345D01*
X150500752Y-152003522D01*
X150500500Y-151996460D01*
X150500500Y-150294484D01*
X169699500Y-150294484D01*
X169729058Y-150481113D01*
X169787453Y-150660832D01*
X169871929Y-150826627D01*
X169873240Y-150829199D01*
X169984310Y-150982073D01*
X170117927Y-151115690D01*
X170270801Y-151226760D01*
X170439168Y-151312547D01*
X170618882Y-151370940D01*
X170618883Y-151370940D01*
X170618886Y-151370941D01*
X170805516Y-151400500D01*
X170805519Y-151400500D01*
X170994484Y-151400500D01*
X171181113Y-151370941D01*
X171181114Y-151370940D01*
X171181118Y-151370940D01*
X171360832Y-151312547D01*
X171529199Y-151226760D01*
X171682073Y-151115690D01*
X171815690Y-150982073D01*
X171926760Y-150829199D01*
X172012547Y-150660832D01*
X172064804Y-150500002D01*
X177494353Y-150500002D01*
X177514834Y-150642456D01*
X177540886Y-150699500D01*
X177574623Y-150773373D01*
X177658270Y-150869907D01*
X177668873Y-150882144D01*
X177786197Y-150957543D01*
X177789947Y-150959953D01*
X177865275Y-150982071D01*
X177928035Y-151000499D01*
X177928036Y-151000499D01*
X177928039Y-151000500D01*
X177928041Y-151000500D01*
X177953783Y-151000500D01*
X178011974Y-151019407D01*
X178047938Y-151068907D01*
X178047938Y-151130093D01*
X178028602Y-151164331D01*
X177974623Y-151226626D01*
X177914834Y-151357543D01*
X177894353Y-151499997D01*
X177894353Y-151500002D01*
X177914834Y-151642456D01*
X177955416Y-151731317D01*
X177974623Y-151773373D01*
X178068872Y-151882143D01*
X178068873Y-151882144D01*
X178122860Y-151916839D01*
X178189947Y-151959953D01*
X178294012Y-151990509D01*
X178328035Y-152000499D01*
X178328036Y-152000499D01*
X178328039Y-152000500D01*
X178328041Y-152000500D01*
X178471959Y-152000500D01*
X178471961Y-152000500D01*
X178610053Y-151959953D01*
X178652936Y-151932393D01*
X178712109Y-151916839D01*
X178769125Y-151939037D01*
X178802205Y-151990509D01*
X178804450Y-152029766D01*
X178794353Y-152099995D01*
X178794353Y-152100002D01*
X178814834Y-152242456D01*
X178874622Y-152373371D01*
X178874623Y-152373373D01*
X178965840Y-152478644D01*
X178968873Y-152482144D01*
X178968875Y-152482145D01*
X179089947Y-152559953D01*
X179196403Y-152591211D01*
X179228035Y-152600499D01*
X179228036Y-152600499D01*
X179228039Y-152600500D01*
X179228041Y-152600500D01*
X179371959Y-152600500D01*
X179371961Y-152600500D01*
X179510053Y-152559953D01*
X179631128Y-152482143D01*
X179631136Y-152482133D01*
X179635165Y-152478644D01*
X179691523Y-152454824D01*
X179751119Y-152468679D01*
X179764835Y-152478644D01*
X179768866Y-152482137D01*
X179768872Y-152482143D01*
X179889947Y-152559953D01*
X179996403Y-152591211D01*
X180028035Y-152600499D01*
X180028036Y-152600499D01*
X180028039Y-152600500D01*
X180028041Y-152600500D01*
X180171959Y-152600500D01*
X180171961Y-152600500D01*
X180310053Y-152559953D01*
X180431128Y-152482143D01*
X180431136Y-152482133D01*
X180435165Y-152478644D01*
X180491523Y-152454824D01*
X180551119Y-152468679D01*
X180564835Y-152478644D01*
X180568866Y-152482137D01*
X180568872Y-152482143D01*
X180689947Y-152559953D01*
X180796403Y-152591211D01*
X180828035Y-152600499D01*
X180828036Y-152600499D01*
X180828039Y-152600500D01*
X180828041Y-152600500D01*
X180971959Y-152600500D01*
X180971961Y-152600500D01*
X181110053Y-152559953D01*
X181231128Y-152482143D01*
X181231136Y-152482133D01*
X181235165Y-152478644D01*
X181291523Y-152454824D01*
X181351119Y-152468679D01*
X181364835Y-152478644D01*
X181368866Y-152482137D01*
X181368872Y-152482143D01*
X181489947Y-152559953D01*
X181596403Y-152591211D01*
X181628035Y-152600499D01*
X181628036Y-152600499D01*
X181628039Y-152600500D01*
X181628041Y-152600500D01*
X181771959Y-152600500D01*
X181771961Y-152600500D01*
X181910053Y-152559953D01*
X182031128Y-152482143D01*
X182031136Y-152482133D01*
X182035165Y-152478644D01*
X182091523Y-152454824D01*
X182151119Y-152468679D01*
X182164835Y-152478644D01*
X182168866Y-152482137D01*
X182168872Y-152482143D01*
X182289947Y-152559953D01*
X182396403Y-152591211D01*
X182428035Y-152600499D01*
X182428036Y-152600499D01*
X182428039Y-152600500D01*
X182428041Y-152600500D01*
X182571959Y-152600500D01*
X182571961Y-152600500D01*
X182710053Y-152559953D01*
X182831128Y-152482143D01*
X182831136Y-152482133D01*
X182835165Y-152478644D01*
X182891523Y-152454824D01*
X182951119Y-152468679D01*
X182964835Y-152478644D01*
X182968866Y-152482137D01*
X182968872Y-152482143D01*
X183089947Y-152559953D01*
X183196403Y-152591211D01*
X183228035Y-152600499D01*
X183228036Y-152600499D01*
X183228039Y-152600500D01*
X183228041Y-152600500D01*
X183371959Y-152600500D01*
X183371961Y-152600500D01*
X183510053Y-152559953D01*
X183631128Y-152482143D01*
X183725377Y-152373373D01*
X183785165Y-152242457D01*
X183805647Y-152100000D01*
X183805646Y-152099995D01*
X183785165Y-151957543D01*
X183750731Y-151882144D01*
X183725377Y-151826627D01*
X183631128Y-151717857D01*
X183631127Y-151717856D01*
X183631126Y-151717855D01*
X183510057Y-151640049D01*
X183510054Y-151640047D01*
X183510053Y-151640047D01*
X183510050Y-151640046D01*
X183371964Y-151599500D01*
X183371961Y-151599500D01*
X183228039Y-151599500D01*
X183228035Y-151599500D01*
X183089949Y-151640046D01*
X183089942Y-151640049D01*
X182968872Y-151717856D01*
X182964830Y-151721359D01*
X182908471Y-151745176D01*
X182848876Y-151731317D01*
X182835170Y-151721359D01*
X182831127Y-151717856D01*
X182710057Y-151640049D01*
X182710054Y-151640047D01*
X182710053Y-151640047D01*
X182710050Y-151640046D01*
X182571964Y-151599500D01*
X182571961Y-151599500D01*
X182428039Y-151599500D01*
X182428035Y-151599500D01*
X182289949Y-151640046D01*
X182289942Y-151640049D01*
X182168872Y-151717856D01*
X182164830Y-151721359D01*
X182108471Y-151745176D01*
X182048876Y-151731317D01*
X182035170Y-151721359D01*
X182031127Y-151717856D01*
X181910057Y-151640049D01*
X181910054Y-151640047D01*
X181910053Y-151640047D01*
X181910050Y-151640046D01*
X181771964Y-151599500D01*
X181771961Y-151599500D01*
X181628039Y-151599500D01*
X181628035Y-151599500D01*
X181489949Y-151640046D01*
X181489942Y-151640049D01*
X181368872Y-151717856D01*
X181364830Y-151721359D01*
X181308471Y-151745176D01*
X181248876Y-151731317D01*
X181235170Y-151721359D01*
X181231127Y-151717856D01*
X181110057Y-151640049D01*
X181110054Y-151640047D01*
X181110053Y-151640047D01*
X181110050Y-151640046D01*
X180971964Y-151599500D01*
X180971961Y-151599500D01*
X180828039Y-151599500D01*
X180828035Y-151599500D01*
X180689949Y-151640046D01*
X180689942Y-151640049D01*
X180568872Y-151717856D01*
X180564830Y-151721359D01*
X180508471Y-151745176D01*
X180448876Y-151731317D01*
X180435170Y-151721359D01*
X180431127Y-151717856D01*
X180310057Y-151640049D01*
X180310054Y-151640047D01*
X180310053Y-151640047D01*
X180310050Y-151640046D01*
X180171964Y-151599500D01*
X180171961Y-151599500D01*
X180028039Y-151599500D01*
X180028035Y-151599500D01*
X179889949Y-151640046D01*
X179889942Y-151640049D01*
X179768872Y-151717856D01*
X179764830Y-151721359D01*
X179708471Y-151745176D01*
X179648876Y-151731317D01*
X179635170Y-151721359D01*
X179631127Y-151717856D01*
X179510057Y-151640049D01*
X179510054Y-151640047D01*
X179510053Y-151640047D01*
X179510050Y-151640046D01*
X179371964Y-151599500D01*
X179371961Y-151599500D01*
X179228039Y-151599500D01*
X179228035Y-151599500D01*
X179089949Y-151640046D01*
X179089943Y-151640048D01*
X179047063Y-151667606D01*
X178987888Y-151683159D01*
X178930872Y-151660960D01*
X178897793Y-151609487D01*
X178895549Y-151570231D01*
X178897028Y-151559950D01*
X178905647Y-151500000D01*
X178901818Y-151473371D01*
X178885165Y-151357543D01*
X178825438Y-151226761D01*
X178825377Y-151226627D01*
X178731128Y-151117857D01*
X178731127Y-151117856D01*
X178731126Y-151117855D01*
X178703346Y-151100002D01*
X183794353Y-151100002D01*
X183814834Y-151242456D01*
X183873512Y-151370940D01*
X183874623Y-151373373D01*
X183961271Y-151473371D01*
X183968873Y-151482144D01*
X183996661Y-151500002D01*
X184089947Y-151559953D01*
X184196403Y-151591211D01*
X184228035Y-151600499D01*
X184228036Y-151600499D01*
X184228039Y-151600500D01*
X184228041Y-151600500D01*
X184371959Y-151600500D01*
X184371961Y-151600500D01*
X184510053Y-151559953D01*
X184631128Y-151482143D01*
X184725377Y-151373373D01*
X184785165Y-151242457D01*
X184791269Y-151200002D01*
X189494353Y-151200002D01*
X189514834Y-151342456D01*
X189574622Y-151473371D01*
X189574623Y-151473373D01*
X189658550Y-151570231D01*
X189668873Y-151582144D01*
X189789942Y-151659950D01*
X189789947Y-151659953D01*
X189896403Y-151691211D01*
X189928035Y-151700499D01*
X189928036Y-151700499D01*
X189928039Y-151700500D01*
X189928041Y-151700500D01*
X190071959Y-151700500D01*
X190071961Y-151700500D01*
X190210053Y-151659953D01*
X190331128Y-151582143D01*
X190425377Y-151473373D01*
X190485165Y-151342457D01*
X190499543Y-151242456D01*
X190505647Y-151200002D01*
X190505647Y-151199997D01*
X190485165Y-151057543D01*
X190459114Y-151000500D01*
X190425377Y-150926627D01*
X190331128Y-150817857D01*
X190331127Y-150817856D01*
X190331126Y-150817855D01*
X190210057Y-150740049D01*
X190210054Y-150740047D01*
X190210053Y-150740047D01*
X190210050Y-150740046D01*
X190071964Y-150699500D01*
X190071961Y-150699500D01*
X189928039Y-150699500D01*
X189928035Y-150699500D01*
X189789949Y-150740046D01*
X189789942Y-150740049D01*
X189668873Y-150817855D01*
X189574622Y-150926628D01*
X189514834Y-151057543D01*
X189494353Y-151199997D01*
X189494353Y-151200002D01*
X184791269Y-151200002D01*
X184796398Y-151164331D01*
X184805647Y-151100002D01*
X184805647Y-151099997D01*
X184785165Y-150957543D01*
X184725377Y-150826627D01*
X184631128Y-150717857D01*
X184631127Y-150717856D01*
X184631126Y-150717855D01*
X184510057Y-150640049D01*
X184510054Y-150640047D01*
X184510053Y-150640047D01*
X184510050Y-150640046D01*
X184371964Y-150599500D01*
X184371961Y-150599500D01*
X184228039Y-150599500D01*
X184228035Y-150599500D01*
X184089949Y-150640046D01*
X184089942Y-150640049D01*
X183968873Y-150717855D01*
X183874622Y-150826628D01*
X183814834Y-150957543D01*
X183794353Y-151099997D01*
X183794353Y-151100002D01*
X178703346Y-151100002D01*
X178610057Y-151040049D01*
X178610054Y-151040047D01*
X178610053Y-151040047D01*
X178610050Y-151040046D01*
X178471964Y-150999500D01*
X178471961Y-150999500D01*
X178446217Y-150999500D01*
X178388026Y-150980593D01*
X178352062Y-150931093D01*
X178352062Y-150869907D01*
X178371398Y-150835669D01*
X178386833Y-150817855D01*
X178425377Y-150773373D01*
X178485165Y-150642457D01*
X178505647Y-150500000D01*
X178502932Y-150481118D01*
X178485165Y-150357543D01*
X178425377Y-150226627D01*
X178371828Y-150164828D01*
X178348012Y-150108473D01*
X178361870Y-150048877D01*
X178371820Y-150035180D01*
X178425377Y-149973373D01*
X178485165Y-149842457D01*
X178505647Y-149700000D01*
X178487071Y-149570803D01*
X178485165Y-149557543D01*
X178425377Y-149426627D01*
X178331128Y-149317857D01*
X178331127Y-149317856D01*
X178331126Y-149317855D01*
X178210057Y-149240049D01*
X178210054Y-149240047D01*
X178210053Y-149240047D01*
X178210050Y-149240046D01*
X178071964Y-149199500D01*
X178071961Y-149199500D01*
X177928039Y-149199500D01*
X177928035Y-149199500D01*
X177789949Y-149240046D01*
X177789942Y-149240049D01*
X177668873Y-149317855D01*
X177574622Y-149426628D01*
X177514834Y-149557543D01*
X177494353Y-149699997D01*
X177494353Y-149700002D01*
X177514834Y-149842456D01*
X177574623Y-149973373D01*
X177628169Y-150035170D01*
X177651986Y-150091529D01*
X177638127Y-150151124D01*
X177628169Y-150164830D01*
X177574623Y-150226626D01*
X177514834Y-150357543D01*
X177494353Y-150499997D01*
X177494353Y-150500002D01*
X172064804Y-150500002D01*
X172070940Y-150481118D01*
X172100500Y-150294481D01*
X172100500Y-150105519D01*
X172100500Y-150105515D01*
X172070941Y-149918886D01*
X172070940Y-149918882D01*
X172012547Y-149739168D01*
X171926760Y-149570801D01*
X171815690Y-149417927D01*
X171682073Y-149284310D01*
X171529199Y-149173240D01*
X171529198Y-149173239D01*
X171529196Y-149173238D01*
X171360832Y-149087453D01*
X171181113Y-149029058D01*
X170994484Y-148999500D01*
X170994481Y-148999500D01*
X170805519Y-148999500D01*
X170805516Y-148999500D01*
X170618886Y-149029058D01*
X170439167Y-149087453D01*
X170270803Y-149173238D01*
X170117928Y-149284309D01*
X169984309Y-149417928D01*
X169873238Y-149570803D01*
X169787453Y-149739167D01*
X169729058Y-149918886D01*
X169699500Y-150105515D01*
X169699500Y-150294484D01*
X150500500Y-150294484D01*
X150500500Y-148750000D01*
X152450886Y-148750000D01*
X152452086Y-148757586D01*
X152505588Y-148922248D01*
X152584195Y-149076524D01*
X152584197Y-149076528D01*
X152685962Y-149216596D01*
X152808403Y-149339037D01*
X152948471Y-149440802D01*
X152948475Y-149440804D01*
X153102751Y-149519411D01*
X153267420Y-149572915D01*
X153438425Y-149600000D01*
X153549999Y-149600000D01*
X153550000Y-149599999D01*
X153550000Y-148780330D01*
X153569745Y-148800075D01*
X153655255Y-148849444D01*
X153750630Y-148875000D01*
X153849370Y-148875000D01*
X153944745Y-148849444D01*
X154030255Y-148800075D01*
X154050000Y-148780330D01*
X154050000Y-149599999D01*
X154050001Y-149600000D01*
X154161575Y-149600000D01*
X154332579Y-149572915D01*
X154497248Y-149519411D01*
X154651524Y-149440804D01*
X154651528Y-149440802D01*
X154791596Y-149339037D01*
X154914037Y-149216596D01*
X155015802Y-149076528D01*
X155015804Y-149076524D01*
X155094411Y-148922248D01*
X155147913Y-148757586D01*
X155149114Y-148750000D01*
X154080330Y-148750000D01*
X154100075Y-148730255D01*
X154149444Y-148644745D01*
X154175000Y-148549370D01*
X154175000Y-148450630D01*
X154161434Y-148400002D01*
X159556853Y-148400002D01*
X159577334Y-148542456D01*
X159580492Y-148549370D01*
X159637123Y-148673373D01*
X159731372Y-148782143D01*
X159731373Y-148782144D01*
X159852442Y-148859950D01*
X159852447Y-148859953D01*
X159958903Y-148891211D01*
X159990535Y-148900499D01*
X159990536Y-148900499D01*
X159990539Y-148900500D01*
X159990541Y-148900500D01*
X160134459Y-148900500D01*
X160134461Y-148900500D01*
X160272553Y-148859953D01*
X160393628Y-148782143D01*
X160487877Y-148673373D01*
X160547665Y-148542457D01*
X160568147Y-148400000D01*
X160547665Y-148257543D01*
X160487877Y-148126627D01*
X160393628Y-148017857D01*
X160393627Y-148017856D01*
X160393626Y-148017855D01*
X160272557Y-147940049D01*
X160272554Y-147940047D01*
X160272553Y-147940047D01*
X160272550Y-147940046D01*
X160134464Y-147899500D01*
X160134461Y-147899500D01*
X159990539Y-147899500D01*
X159990535Y-147899500D01*
X159852449Y-147940046D01*
X159852442Y-147940049D01*
X159731373Y-148017855D01*
X159637122Y-148126628D01*
X159577334Y-148257543D01*
X159556853Y-148399997D01*
X159556853Y-148400002D01*
X154161434Y-148400002D01*
X154149444Y-148355255D01*
X154100075Y-148269745D01*
X154080330Y-148250000D01*
X155149114Y-148250000D01*
X155147913Y-148242413D01*
X155094411Y-148077751D01*
X155015804Y-147923475D01*
X155015802Y-147923471D01*
X154914037Y-147783403D01*
X154791596Y-147660962D01*
X154651528Y-147559197D01*
X154651524Y-147559195D01*
X154495832Y-147479867D01*
X154452567Y-147436602D01*
X154442996Y-147376170D01*
X154470773Y-147321654D01*
X154508079Y-147298213D01*
X154531032Y-147290181D01*
X154637882Y-147252793D01*
X154747150Y-147172150D01*
X154827793Y-147062882D01*
X154872646Y-146934699D01*
X154875499Y-146904273D01*
X154875500Y-146904273D01*
X154875500Y-146095727D01*
X154875499Y-146095725D01*
X154873403Y-146073373D01*
X154872646Y-146065301D01*
X154827793Y-145937118D01*
X154826908Y-145935919D01*
X154800400Y-145900002D01*
X158794353Y-145900002D01*
X158814834Y-146042456D01*
X158853275Y-146126628D01*
X158874623Y-146173373D01*
X158968872Y-146282143D01*
X158968873Y-146282144D01*
X159089942Y-146359950D01*
X159089947Y-146359953D01*
X159196403Y-146391211D01*
X159228035Y-146400499D01*
X159228036Y-146400499D01*
X159228039Y-146400500D01*
X159228041Y-146400500D01*
X159371959Y-146400500D01*
X159371961Y-146400500D01*
X159373657Y-146400002D01*
X168694353Y-146400002D01*
X168714834Y-146542456D01*
X168774622Y-146673371D01*
X168774623Y-146673373D01*
X168868872Y-146782143D01*
X168868873Y-146782144D01*
X168896653Y-146799997D01*
X168989947Y-146859953D01*
X169096403Y-146891211D01*
X169128035Y-146900499D01*
X169128036Y-146900499D01*
X169128039Y-146900500D01*
X169128041Y-146900500D01*
X169271959Y-146900500D01*
X169271961Y-146900500D01*
X169410053Y-146859953D01*
X169531128Y-146782143D01*
X169625182Y-146673597D01*
X169677576Y-146642003D01*
X169738537Y-146647238D01*
X169774816Y-146673596D01*
X169868872Y-146782143D01*
X169868873Y-146782144D01*
X169896653Y-146799997D01*
X169989947Y-146859953D01*
X170096403Y-146891211D01*
X170128035Y-146900499D01*
X170128036Y-146900499D01*
X170128039Y-146900500D01*
X170128041Y-146900500D01*
X170271959Y-146900500D01*
X170271961Y-146900500D01*
X170410053Y-146859953D01*
X170531128Y-146782143D01*
X170625182Y-146673597D01*
X170677576Y-146642003D01*
X170738537Y-146647238D01*
X170774816Y-146673596D01*
X170868872Y-146782143D01*
X170868873Y-146782144D01*
X170896653Y-146799997D01*
X170989947Y-146859953D01*
X171096403Y-146891211D01*
X171128035Y-146900499D01*
X171128036Y-146900499D01*
X171128039Y-146900500D01*
X171128041Y-146900500D01*
X171271959Y-146900500D01*
X171271961Y-146900500D01*
X171410053Y-146859953D01*
X171503339Y-146800002D01*
X178594353Y-146800002D01*
X178614834Y-146942456D01*
X178669832Y-147062882D01*
X178674623Y-147073373D01*
X178760208Y-147172144D01*
X178768873Y-147182144D01*
X178889942Y-147259950D01*
X178889947Y-147259953D01*
X178996403Y-147291211D01*
X179028035Y-147300499D01*
X179028036Y-147300499D01*
X179028039Y-147300500D01*
X179028041Y-147300500D01*
X179171959Y-147300500D01*
X179171961Y-147300500D01*
X179310053Y-147259953D01*
X179431128Y-147182143D01*
X179525377Y-147073373D01*
X179585165Y-146942457D01*
X179605647Y-146800000D01*
X179587473Y-146673599D01*
X179585165Y-146657543D01*
X179559114Y-146600500D01*
X179525377Y-146526627D01*
X179431128Y-146417857D01*
X179431127Y-146417856D01*
X179431126Y-146417855D01*
X179310057Y-146340049D01*
X179310054Y-146340047D01*
X179310053Y-146340047D01*
X179310050Y-146340046D01*
X179171964Y-146299500D01*
X179171961Y-146299500D01*
X179028039Y-146299500D01*
X179028035Y-146299500D01*
X178889949Y-146340046D01*
X178889942Y-146340049D01*
X178768873Y-146417855D01*
X178674622Y-146526628D01*
X178614834Y-146657543D01*
X178594353Y-146799997D01*
X178594353Y-146800002D01*
X171503339Y-146800002D01*
X171531128Y-146782143D01*
X171625377Y-146673373D01*
X171685165Y-146542457D01*
X171705575Y-146400500D01*
X171705647Y-146400002D01*
X171705647Y-146399997D01*
X171685165Y-146257543D01*
X171650731Y-146182144D01*
X171625377Y-146126627D01*
X171602306Y-146100002D01*
X181794353Y-146100002D01*
X181814834Y-146242456D01*
X181859403Y-146340046D01*
X181874623Y-146373373D01*
X181931728Y-146439276D01*
X181968873Y-146482144D01*
X182089942Y-146559950D01*
X182089947Y-146559953D01*
X182196403Y-146591211D01*
X182228035Y-146600499D01*
X182228036Y-146600499D01*
X182228039Y-146600500D01*
X182228041Y-146600500D01*
X182371959Y-146600500D01*
X182371961Y-146600500D01*
X182510053Y-146559953D01*
X182631128Y-146482143D01*
X182725377Y-146373373D01*
X182785165Y-146242457D01*
X182801819Y-146126627D01*
X182805647Y-146100002D01*
X182805647Y-146099997D01*
X182785165Y-145957543D01*
X182775836Y-145937116D01*
X182725377Y-145826627D01*
X182702306Y-145800002D01*
X189594353Y-145800002D01*
X189614834Y-145942456D01*
X189670938Y-146065305D01*
X189674623Y-146073373D01*
X189743412Y-146152760D01*
X189768873Y-146182144D01*
X189886197Y-146257543D01*
X189889947Y-146259953D01*
X189996403Y-146291211D01*
X190028035Y-146300499D01*
X190028036Y-146300499D01*
X190028039Y-146300500D01*
X190028041Y-146300500D01*
X190171959Y-146300500D01*
X190171961Y-146300500D01*
X190310053Y-146259953D01*
X190431128Y-146182143D01*
X190525377Y-146073373D01*
X190585165Y-145942457D01*
X190601819Y-145826627D01*
X190605647Y-145800002D01*
X190605647Y-145799997D01*
X190585165Y-145657543D01*
X190559114Y-145600500D01*
X190525377Y-145526627D01*
X190431128Y-145417857D01*
X190431127Y-145417856D01*
X190431126Y-145417855D01*
X190310057Y-145340049D01*
X190310054Y-145340047D01*
X190310053Y-145340047D01*
X190310050Y-145340046D01*
X190171964Y-145299500D01*
X190171961Y-145299500D01*
X190028039Y-145299500D01*
X190028035Y-145299500D01*
X189889949Y-145340046D01*
X189889942Y-145340049D01*
X189768873Y-145417855D01*
X189674622Y-145526628D01*
X189614834Y-145657543D01*
X189594353Y-145799997D01*
X189594353Y-145800002D01*
X182702306Y-145800002D01*
X182631128Y-145717857D01*
X182631127Y-145717856D01*
X182631126Y-145717855D01*
X182510057Y-145640049D01*
X182510054Y-145640047D01*
X182510053Y-145640047D01*
X182510050Y-145640046D01*
X182371964Y-145599500D01*
X182371961Y-145599500D01*
X182228039Y-145599500D01*
X182228035Y-145599500D01*
X182089949Y-145640046D01*
X182089942Y-145640049D01*
X181968873Y-145717855D01*
X181874622Y-145826628D01*
X181814834Y-145957543D01*
X181794353Y-146099997D01*
X181794353Y-146100002D01*
X171602306Y-146100002D01*
X171531128Y-146017857D01*
X171531127Y-146017856D01*
X171531126Y-146017855D01*
X171477331Y-145983284D01*
X171438600Y-145935919D01*
X171435106Y-145874833D01*
X171468185Y-145823360D01*
X171477331Y-145816716D01*
X171531128Y-145782143D01*
X171625377Y-145673373D01*
X171685165Y-145542457D01*
X171705647Y-145400000D01*
X171705575Y-145399500D01*
X171685165Y-145257543D01*
X171639703Y-145157996D01*
X171625377Y-145126627D01*
X171531128Y-145017857D01*
X171531127Y-145017856D01*
X171531126Y-145017855D01*
X171410057Y-144940049D01*
X171410054Y-144940047D01*
X171410053Y-144940047D01*
X171410050Y-144940046D01*
X171271964Y-144899500D01*
X171271961Y-144899500D01*
X171128039Y-144899500D01*
X171128035Y-144899500D01*
X170989949Y-144940046D01*
X170989942Y-144940049D01*
X170868872Y-145017856D01*
X170868870Y-145017858D01*
X170774819Y-145126400D01*
X170722424Y-145157996D01*
X170661463Y-145152760D01*
X170625181Y-145126400D01*
X170531129Y-145017858D01*
X170531127Y-145017856D01*
X170410057Y-144940049D01*
X170410054Y-144940047D01*
X170410053Y-144940047D01*
X170410050Y-144940046D01*
X170271964Y-144899500D01*
X170271961Y-144899500D01*
X170128039Y-144899500D01*
X170128035Y-144899500D01*
X169989949Y-144940046D01*
X169989942Y-144940049D01*
X169868872Y-145017856D01*
X169868870Y-145017858D01*
X169774819Y-145126400D01*
X169722424Y-145157996D01*
X169661463Y-145152760D01*
X169625181Y-145126400D01*
X169531129Y-145017858D01*
X169531127Y-145017856D01*
X169410057Y-144940049D01*
X169410054Y-144940047D01*
X169410053Y-144940047D01*
X169410050Y-144940046D01*
X169271964Y-144899500D01*
X169271961Y-144899500D01*
X169128039Y-144899500D01*
X169128035Y-144899500D01*
X168989949Y-144940046D01*
X168989942Y-144940049D01*
X168868873Y-145017855D01*
X168774622Y-145126628D01*
X168714834Y-145257543D01*
X168694353Y-145399997D01*
X168694353Y-145400002D01*
X168714834Y-145542456D01*
X168774622Y-145673371D01*
X168774623Y-145673373D01*
X168868872Y-145782143D01*
X168922669Y-145816716D01*
X168961400Y-145864082D01*
X168964893Y-145925168D01*
X168931813Y-145976640D01*
X168922669Y-145983284D01*
X168868872Y-146017857D01*
X168774622Y-146126628D01*
X168714834Y-146257543D01*
X168694353Y-146399997D01*
X168694353Y-146400002D01*
X159373657Y-146400002D01*
X159510053Y-146359953D01*
X159631128Y-146282143D01*
X159725377Y-146173373D01*
X159785165Y-146042457D01*
X159800483Y-145935919D01*
X159805647Y-145900002D01*
X159805647Y-145899997D01*
X159785165Y-145757543D01*
X159758657Y-145699500D01*
X159725377Y-145626627D01*
X159631128Y-145517857D01*
X159631127Y-145517856D01*
X159631126Y-145517855D01*
X159510057Y-145440049D01*
X159510054Y-145440047D01*
X159510053Y-145440047D01*
X159510050Y-145440046D01*
X159371964Y-145399500D01*
X159371961Y-145399500D01*
X159228039Y-145399500D01*
X159228035Y-145399500D01*
X159089949Y-145440046D01*
X159089942Y-145440049D01*
X158968873Y-145517855D01*
X158874622Y-145626628D01*
X158814834Y-145757543D01*
X158794353Y-145899997D01*
X158794353Y-145900002D01*
X154800400Y-145900002D01*
X154747154Y-145827855D01*
X154747152Y-145827853D01*
X154747150Y-145827850D01*
X154747146Y-145827847D01*
X154747144Y-145827845D01*
X154637883Y-145747207D01*
X154509703Y-145702355D01*
X154509694Y-145702353D01*
X154479274Y-145699500D01*
X154479266Y-145699500D01*
X153120734Y-145699500D01*
X153120725Y-145699500D01*
X153090305Y-145702353D01*
X153090296Y-145702355D01*
X152962116Y-145747207D01*
X152852855Y-145827845D01*
X152852845Y-145827855D01*
X152772207Y-145937116D01*
X152727355Y-146065296D01*
X152727353Y-146065305D01*
X152724500Y-146095725D01*
X152724500Y-146904274D01*
X152727353Y-146934694D01*
X152727355Y-146934703D01*
X152772207Y-147062883D01*
X152852845Y-147172144D01*
X152852847Y-147172146D01*
X152852850Y-147172150D01*
X152852853Y-147172152D01*
X152852855Y-147172154D01*
X152962116Y-147252792D01*
X152962117Y-147252792D01*
X152962118Y-147252793D01*
X153011453Y-147270056D01*
X153091920Y-147298213D01*
X153140600Y-147335278D01*
X153158197Y-147393879D01*
X153137989Y-147451630D01*
X153104167Y-147479867D01*
X152948475Y-147559195D01*
X152948471Y-147559197D01*
X152808403Y-147660962D01*
X152685962Y-147783403D01*
X152584197Y-147923471D01*
X152584195Y-147923475D01*
X152505588Y-148077751D01*
X152452086Y-148242413D01*
X152450886Y-148250000D01*
X153519670Y-148250000D01*
X153499925Y-148269745D01*
X153450556Y-148355255D01*
X153425000Y-148450630D01*
X153425000Y-148549370D01*
X153450556Y-148644745D01*
X153499925Y-148730255D01*
X153519670Y-148750000D01*
X152450886Y-148750000D01*
X150500500Y-148750000D01*
X150500500Y-145100002D01*
X155214353Y-145100002D01*
X155234834Y-145242456D01*
X155248953Y-145273371D01*
X155294623Y-145373373D01*
X155388872Y-145482143D01*
X155388873Y-145482144D01*
X155509942Y-145559950D01*
X155509947Y-145559953D01*
X155616403Y-145591211D01*
X155648035Y-145600499D01*
X155648036Y-145600499D01*
X155648039Y-145600500D01*
X155648041Y-145600500D01*
X155791959Y-145600500D01*
X155791961Y-145600500D01*
X155930053Y-145559953D01*
X156051128Y-145482143D01*
X156145377Y-145373373D01*
X156205165Y-145242457D01*
X156221819Y-145126627D01*
X156225647Y-145100002D01*
X156225647Y-145099997D01*
X156211270Y-145000002D01*
X157194353Y-145000002D01*
X157214834Y-145142456D01*
X157274622Y-145273371D01*
X157274623Y-145273373D01*
X157332395Y-145340046D01*
X157368873Y-145382144D01*
X157489942Y-145459950D01*
X157489947Y-145459953D01*
X157596403Y-145491211D01*
X157628035Y-145500499D01*
X157628036Y-145500499D01*
X157628039Y-145500500D01*
X157628041Y-145500500D01*
X157771959Y-145500500D01*
X157771961Y-145500500D01*
X157910053Y-145459953D01*
X158031128Y-145382143D01*
X158125377Y-145273373D01*
X158185165Y-145142457D01*
X158191992Y-145094971D01*
X158205647Y-145000002D01*
X158205647Y-144999997D01*
X158185165Y-144857543D01*
X158125377Y-144726628D01*
X158125377Y-144726627D01*
X158031128Y-144617857D01*
X158031127Y-144617856D01*
X158031126Y-144617855D01*
X157910057Y-144540049D01*
X157910054Y-144540047D01*
X157910053Y-144540047D01*
X157910050Y-144540046D01*
X157771964Y-144499500D01*
X157771961Y-144499500D01*
X157628039Y-144499500D01*
X157628035Y-144499500D01*
X157489949Y-144540046D01*
X157489942Y-144540049D01*
X157368873Y-144617855D01*
X157274622Y-144726628D01*
X157214834Y-144857543D01*
X157194353Y-144999997D01*
X157194353Y-145000002D01*
X156211270Y-145000002D01*
X156205165Y-144957543D01*
X156145377Y-144826628D01*
X156145377Y-144826627D01*
X156051128Y-144717857D01*
X156051127Y-144717856D01*
X156051126Y-144717855D01*
X155930057Y-144640049D01*
X155930054Y-144640047D01*
X155930053Y-144640047D01*
X155930050Y-144640046D01*
X155791964Y-144599500D01*
X155791961Y-144599500D01*
X155648039Y-144599500D01*
X155648035Y-144599500D01*
X155509949Y-144640046D01*
X155509942Y-144640049D01*
X155388873Y-144717855D01*
X155294622Y-144826628D01*
X155234834Y-144957543D01*
X155214353Y-145099997D01*
X155214353Y-145100002D01*
X150500500Y-145100002D01*
X150500500Y-143610002D01*
X165494353Y-143610002D01*
X165514834Y-143752456D01*
X165548708Y-143826628D01*
X165574623Y-143883373D01*
X165638891Y-143957543D01*
X165668873Y-143992144D01*
X165789942Y-144069950D01*
X165789947Y-144069953D01*
X165892269Y-144099997D01*
X165928035Y-144110499D01*
X165928036Y-144110499D01*
X165928039Y-144110500D01*
X165928041Y-144110500D01*
X166071959Y-144110500D01*
X166071961Y-144110500D01*
X166107714Y-144100002D01*
X169494353Y-144100002D01*
X169514834Y-144242456D01*
X169574622Y-144373371D01*
X169574623Y-144373373D01*
X169668872Y-144482143D01*
X169668873Y-144482144D01*
X169789942Y-144559950D01*
X169789947Y-144559953D01*
X169896403Y-144591211D01*
X169928035Y-144600499D01*
X169928036Y-144600499D01*
X169928039Y-144600500D01*
X169928041Y-144600500D01*
X170071959Y-144600500D01*
X170071961Y-144600500D01*
X170210053Y-144559953D01*
X170331128Y-144482143D01*
X170425377Y-144373373D01*
X170485165Y-144242457D01*
X170491992Y-144194971D01*
X170505647Y-144100002D01*
X170505647Y-144099997D01*
X170485165Y-143957543D01*
X170425377Y-143826628D01*
X170425377Y-143826627D01*
X170331128Y-143717857D01*
X170331127Y-143717856D01*
X170331126Y-143717855D01*
X170210057Y-143640049D01*
X170210054Y-143640047D01*
X170210053Y-143640047D01*
X170210050Y-143640046D01*
X170071964Y-143599500D01*
X170071961Y-143599500D01*
X169928039Y-143599500D01*
X169928035Y-143599500D01*
X169789949Y-143640046D01*
X169789942Y-143640049D01*
X169668873Y-143717855D01*
X169574622Y-143826628D01*
X169514834Y-143957543D01*
X169494353Y-144099997D01*
X169494353Y-144100002D01*
X166107714Y-144100002D01*
X166210053Y-144069953D01*
X166331128Y-143992143D01*
X166425377Y-143883373D01*
X166485165Y-143752457D01*
X166505647Y-143610000D01*
X166504137Y-143599500D01*
X166485165Y-143467543D01*
X166446164Y-143382144D01*
X166425377Y-143336627D01*
X166331128Y-143227857D01*
X166331127Y-143227856D01*
X166331126Y-143227855D01*
X166210057Y-143150049D01*
X166210054Y-143150047D01*
X166210053Y-143150047D01*
X166184204Y-143142457D01*
X166071964Y-143109500D01*
X166071961Y-143109500D01*
X165928039Y-143109500D01*
X165928035Y-143109500D01*
X165789949Y-143150046D01*
X165789942Y-143150049D01*
X165668873Y-143227855D01*
X165574622Y-143336628D01*
X165514834Y-143467543D01*
X165494353Y-143609997D01*
X165494353Y-143610002D01*
X150500500Y-143610002D01*
X150500500Y-143000002D01*
X158094353Y-143000002D01*
X158114834Y-143142456D01*
X158153835Y-143227855D01*
X158174623Y-143273373D01*
X158268872Y-143382143D01*
X158268873Y-143382144D01*
X158389942Y-143459950D01*
X158389947Y-143459953D01*
X158496403Y-143491211D01*
X158528035Y-143500499D01*
X158528036Y-143500499D01*
X158528039Y-143500500D01*
X158528041Y-143500500D01*
X158671959Y-143500500D01*
X158671961Y-143500500D01*
X158810053Y-143459953D01*
X158931128Y-143382143D01*
X159025377Y-143273373D01*
X159085165Y-143142457D01*
X159105647Y-143000000D01*
X159101818Y-142973371D01*
X159085165Y-142857543D01*
X159025377Y-142726628D01*
X159025377Y-142726627D01*
X158931128Y-142617857D01*
X158931127Y-142617856D01*
X158931126Y-142617855D01*
X158903346Y-142600002D01*
X162104353Y-142600002D01*
X162124834Y-142742456D01*
X162184622Y-142873371D01*
X162184623Y-142873373D01*
X162271271Y-142973371D01*
X162278873Y-142982144D01*
X162306653Y-142999997D01*
X162399947Y-143059953D01*
X162506403Y-143091211D01*
X162538035Y-143100499D01*
X162538036Y-143100499D01*
X162538039Y-143100500D01*
X162538041Y-143100500D01*
X162681959Y-143100500D01*
X162681961Y-143100500D01*
X162820053Y-143059953D01*
X162941128Y-142982143D01*
X163035377Y-142873373D01*
X163095165Y-142742457D01*
X163101269Y-142700002D01*
X169794353Y-142700002D01*
X169814834Y-142842456D01*
X169828953Y-142873371D01*
X169874623Y-142973373D01*
X169968872Y-143082143D01*
X169968873Y-143082144D01*
X170074531Y-143150046D01*
X170089947Y-143159953D01*
X170196403Y-143191211D01*
X170228035Y-143200499D01*
X170228036Y-143200499D01*
X170228039Y-143200500D01*
X170228041Y-143200500D01*
X170371959Y-143200500D01*
X170371961Y-143200500D01*
X170510053Y-143159953D01*
X170631128Y-143082143D01*
X170725377Y-142973373D01*
X170785165Y-142842457D01*
X170805647Y-142700002D01*
X175694353Y-142700002D01*
X175714834Y-142842456D01*
X175728953Y-142873371D01*
X175774623Y-142973373D01*
X175868872Y-143082143D01*
X175868873Y-143082144D01*
X175974531Y-143150046D01*
X175989947Y-143159953D01*
X176096403Y-143191211D01*
X176128035Y-143200499D01*
X176128036Y-143200499D01*
X176128039Y-143200500D01*
X176128041Y-143200500D01*
X176271959Y-143200500D01*
X176271961Y-143200500D01*
X176410053Y-143159953D01*
X176531128Y-143082143D01*
X176602303Y-143000002D01*
X179394353Y-143000002D01*
X179414834Y-143142456D01*
X179453835Y-143227855D01*
X179474623Y-143273373D01*
X179568872Y-143382143D01*
X179568873Y-143382144D01*
X179689942Y-143459950D01*
X179689947Y-143459953D01*
X179796403Y-143491211D01*
X179828035Y-143500499D01*
X179828036Y-143500499D01*
X179828039Y-143500500D01*
X179828041Y-143500500D01*
X179971959Y-143500500D01*
X179971961Y-143500500D01*
X180110053Y-143459953D01*
X180231128Y-143382143D01*
X180325377Y-143273373D01*
X180385165Y-143142457D01*
X180405647Y-143000000D01*
X180401818Y-142973371D01*
X180385165Y-142857543D01*
X180325377Y-142726628D01*
X180325377Y-142726627D01*
X180231128Y-142617857D01*
X180231127Y-142617856D01*
X180231126Y-142617855D01*
X180110057Y-142540049D01*
X180110054Y-142540047D01*
X180110053Y-142540047D01*
X180110050Y-142540046D01*
X179971964Y-142499500D01*
X179971961Y-142499500D01*
X179828039Y-142499500D01*
X179828035Y-142499500D01*
X179689949Y-142540046D01*
X179689942Y-142540049D01*
X179568873Y-142617855D01*
X179474622Y-142726628D01*
X179414834Y-142857543D01*
X179394353Y-142999997D01*
X179394353Y-143000002D01*
X176602303Y-143000002D01*
X176625377Y-142973373D01*
X176685165Y-142842457D01*
X176705647Y-142700000D01*
X176693836Y-142617855D01*
X176685165Y-142557543D01*
X176625377Y-142426628D01*
X176625377Y-142426627D01*
X176531128Y-142317857D01*
X176531127Y-142317856D01*
X176531126Y-142317855D01*
X176410057Y-142240049D01*
X176410054Y-142240047D01*
X176410053Y-142240047D01*
X176410050Y-142240046D01*
X176271964Y-142199500D01*
X176271961Y-142199500D01*
X176128039Y-142199500D01*
X176128035Y-142199500D01*
X175989949Y-142240046D01*
X175989942Y-142240049D01*
X175868873Y-142317855D01*
X175774622Y-142426628D01*
X175714834Y-142557543D01*
X175694353Y-142699997D01*
X175694353Y-142700002D01*
X170805647Y-142700002D01*
X170805647Y-142700000D01*
X170793836Y-142617855D01*
X170785165Y-142557543D01*
X170725377Y-142426628D01*
X170725377Y-142426627D01*
X170631128Y-142317857D01*
X170631127Y-142317856D01*
X170631126Y-142317855D01*
X170510057Y-142240049D01*
X170510054Y-142240047D01*
X170510053Y-142240047D01*
X170510050Y-142240046D01*
X170371964Y-142199500D01*
X170371961Y-142199500D01*
X170228039Y-142199500D01*
X170228035Y-142199500D01*
X170089949Y-142240046D01*
X170089942Y-142240049D01*
X169968873Y-142317855D01*
X169874622Y-142426628D01*
X169814834Y-142557543D01*
X169794353Y-142699997D01*
X169794353Y-142700002D01*
X163101269Y-142700002D01*
X163115647Y-142600000D01*
X163107027Y-142540049D01*
X163095165Y-142457543D01*
X163035377Y-142326628D01*
X163035377Y-142326627D01*
X162941128Y-142217857D01*
X162941127Y-142217856D01*
X162941126Y-142217855D01*
X162820057Y-142140049D01*
X162820054Y-142140047D01*
X162820053Y-142140047D01*
X162820050Y-142140046D01*
X162681964Y-142099500D01*
X162681961Y-142099500D01*
X162538039Y-142099500D01*
X162538035Y-142099500D01*
X162399949Y-142140046D01*
X162399942Y-142140049D01*
X162278873Y-142217855D01*
X162184622Y-142326628D01*
X162124834Y-142457543D01*
X162104353Y-142599997D01*
X162104353Y-142600002D01*
X158903346Y-142600002D01*
X158810057Y-142540049D01*
X158810054Y-142540047D01*
X158810053Y-142540047D01*
X158810050Y-142540046D01*
X158671964Y-142499500D01*
X158671961Y-142499500D01*
X158528039Y-142499500D01*
X158528035Y-142499500D01*
X158389949Y-142540046D01*
X158389942Y-142540049D01*
X158268873Y-142617855D01*
X158174622Y-142726628D01*
X158114834Y-142857543D01*
X158094353Y-142999997D01*
X158094353Y-143000002D01*
X150500500Y-143000002D01*
X150500500Y-141800002D01*
X154194353Y-141800002D01*
X154214834Y-141942456D01*
X154274622Y-142073371D01*
X154274623Y-142073373D01*
X154332395Y-142140046D01*
X154368873Y-142182144D01*
X154489942Y-142259950D01*
X154489947Y-142259953D01*
X154596403Y-142291211D01*
X154628035Y-142300499D01*
X154628036Y-142300499D01*
X154628039Y-142300500D01*
X154628041Y-142300500D01*
X154771959Y-142300500D01*
X154771961Y-142300500D01*
X154910053Y-142259953D01*
X155031128Y-142182143D01*
X155125377Y-142073373D01*
X155185165Y-141942457D01*
X155205575Y-141800500D01*
X155205647Y-141800002D01*
X155205647Y-141799997D01*
X155185165Y-141657543D01*
X155173181Y-141631303D01*
X155125377Y-141526627D01*
X155031128Y-141417857D01*
X155031127Y-141417856D01*
X155031126Y-141417855D01*
X154910057Y-141340049D01*
X154910054Y-141340047D01*
X154910053Y-141340047D01*
X154910050Y-141340046D01*
X154771964Y-141299500D01*
X154771961Y-141299500D01*
X154628039Y-141299500D01*
X154628035Y-141299500D01*
X154489949Y-141340046D01*
X154489942Y-141340049D01*
X154368873Y-141417855D01*
X154274622Y-141526628D01*
X154214834Y-141657543D01*
X154194353Y-141799997D01*
X154194353Y-141800002D01*
X150500500Y-141800002D01*
X150500500Y-141075034D01*
X168619321Y-141075034D01*
X168639802Y-141217488D01*
X168697831Y-141344552D01*
X168699591Y-141348405D01*
X168759771Y-141417857D01*
X168793841Y-141457176D01*
X168901911Y-141526628D01*
X168914915Y-141534985D01*
X169021371Y-141566243D01*
X169053003Y-141575531D01*
X169053004Y-141575531D01*
X169053007Y-141575532D01*
X169053009Y-141575532D01*
X169196927Y-141575532D01*
X169196929Y-141575532D01*
X169335021Y-141534985D01*
X169456096Y-141457175D01*
X169550150Y-141348629D01*
X169602544Y-141317035D01*
X169663505Y-141322270D01*
X169699784Y-141348628D01*
X169781086Y-141442456D01*
X169793841Y-141457176D01*
X169901911Y-141526628D01*
X169914915Y-141534985D01*
X170021371Y-141566243D01*
X170053003Y-141575531D01*
X170053004Y-141575531D01*
X170053007Y-141575532D01*
X170053009Y-141575532D01*
X170196927Y-141575532D01*
X170196929Y-141575532D01*
X170335021Y-141534985D01*
X170456096Y-141457175D01*
X170505636Y-141400002D01*
X182294353Y-141400002D01*
X182314834Y-141542456D01*
X182374622Y-141673371D01*
X182374623Y-141673373D01*
X182468871Y-141782142D01*
X182468873Y-141782144D01*
X182497436Y-141800500D01*
X182589947Y-141859953D01*
X182696403Y-141891211D01*
X182728035Y-141900499D01*
X182728036Y-141900499D01*
X182728039Y-141900500D01*
X182728041Y-141900500D01*
X182871959Y-141900500D01*
X182871961Y-141900500D01*
X183010053Y-141859953D01*
X183131128Y-141782143D01*
X183179876Y-141725883D01*
X183232272Y-141694287D01*
X183293233Y-141699522D01*
X183308219Y-141707430D01*
X183389947Y-141759953D01*
X183496403Y-141791211D01*
X183528035Y-141800499D01*
X183528036Y-141800499D01*
X183528039Y-141800500D01*
X183528041Y-141800500D01*
X183671959Y-141800500D01*
X183671961Y-141800500D01*
X183810053Y-141759953D01*
X183931128Y-141682143D01*
X183975181Y-141631302D01*
X184027576Y-141599707D01*
X184088537Y-141604942D01*
X184124817Y-141631301D01*
X184161271Y-141673371D01*
X184168873Y-141682144D01*
X184187768Y-141694287D01*
X184289947Y-141759953D01*
X184396403Y-141791211D01*
X184428035Y-141800499D01*
X184428036Y-141800499D01*
X184428039Y-141800500D01*
X184428041Y-141800500D01*
X184571959Y-141800500D01*
X184571961Y-141800500D01*
X184710053Y-141759953D01*
X184831128Y-141682143D01*
X184925377Y-141573373D01*
X184985165Y-141442457D01*
X184998655Y-141348631D01*
X185005647Y-141300002D01*
X185005647Y-141299997D01*
X184994109Y-141219746D01*
X191649500Y-141219746D01*
X191649501Y-141219758D01*
X191661132Y-141278227D01*
X191661134Y-141278233D01*
X191702439Y-141340049D01*
X191705448Y-141344552D01*
X191771769Y-141388867D01*
X191816231Y-141397711D01*
X191830241Y-141400498D01*
X191830246Y-141400498D01*
X191830252Y-141400500D01*
X191830253Y-141400500D01*
X193569747Y-141400500D01*
X193569748Y-141400500D01*
X193628231Y-141388867D01*
X193694552Y-141344552D01*
X193738867Y-141278231D01*
X193750500Y-141219748D01*
X193750500Y-139480252D01*
X193738867Y-139421769D01*
X193694552Y-139355448D01*
X193694548Y-139355445D01*
X193628233Y-139311134D01*
X193628231Y-139311133D01*
X193628228Y-139311132D01*
X193628227Y-139311132D01*
X193569758Y-139299501D01*
X193569748Y-139299500D01*
X191830252Y-139299500D01*
X191830251Y-139299500D01*
X191830241Y-139299501D01*
X191771772Y-139311132D01*
X191771766Y-139311134D01*
X191705451Y-139355445D01*
X191705445Y-139355451D01*
X191661134Y-139421766D01*
X191661132Y-139421772D01*
X191649501Y-139480241D01*
X191649500Y-139480253D01*
X191649500Y-141219746D01*
X184994109Y-141219746D01*
X184985165Y-141157543D01*
X184947483Y-141075032D01*
X184925377Y-141026627D01*
X184831128Y-140917857D01*
X184831127Y-140917856D01*
X184831126Y-140917855D01*
X184710057Y-140840049D01*
X184710054Y-140840047D01*
X184710053Y-140840047D01*
X184699257Y-140836877D01*
X184571964Y-140799500D01*
X184571961Y-140799500D01*
X184428039Y-140799500D01*
X184428035Y-140799500D01*
X184289949Y-140840046D01*
X184289942Y-140840049D01*
X184168872Y-140917856D01*
X184168870Y-140917858D01*
X184124819Y-140968696D01*
X184072423Y-141000292D01*
X184011462Y-140995056D01*
X183975181Y-140968696D01*
X183931129Y-140917858D01*
X183931127Y-140917856D01*
X183810057Y-140840049D01*
X183810054Y-140840047D01*
X183810053Y-140840047D01*
X183799257Y-140836877D01*
X183671964Y-140799500D01*
X183671961Y-140799500D01*
X183528039Y-140799500D01*
X183528035Y-140799500D01*
X183389949Y-140840046D01*
X183389942Y-140840049D01*
X183268872Y-140917856D01*
X183220122Y-140974117D01*
X183167726Y-141005712D01*
X183106765Y-141000476D01*
X183091780Y-140992569D01*
X183010057Y-140940049D01*
X183010054Y-140940047D01*
X183010053Y-140940047D01*
X183009239Y-140939808D01*
X182871964Y-140899500D01*
X182871961Y-140899500D01*
X182728039Y-140899500D01*
X182728035Y-140899500D01*
X182589949Y-140940046D01*
X182589942Y-140940049D01*
X182468873Y-141017855D01*
X182374622Y-141126628D01*
X182314834Y-141257543D01*
X182294353Y-141399997D01*
X182294353Y-141400002D01*
X170505636Y-141400002D01*
X170550345Y-141348405D01*
X170610133Y-141217489D01*
X170630615Y-141075032D01*
X170623655Y-141026627D01*
X170611173Y-140939808D01*
X170621606Y-140879519D01*
X170665484Y-140836877D01*
X170726047Y-140828169D01*
X170762689Y-140842435D01*
X170789947Y-140859953D01*
X170896403Y-140891211D01*
X170928035Y-140900499D01*
X170928036Y-140900499D01*
X170928039Y-140900500D01*
X170928041Y-140900500D01*
X171071959Y-140900500D01*
X171071961Y-140900500D01*
X171210053Y-140859953D01*
X171331128Y-140782143D01*
X171425377Y-140673373D01*
X171443048Y-140634677D01*
X171484420Y-140589599D01*
X171544386Y-140577448D01*
X171560982Y-140580810D01*
X171628039Y-140600500D01*
X171628041Y-140600500D01*
X171771959Y-140600500D01*
X171771961Y-140600500D01*
X171910053Y-140559953D01*
X172031128Y-140482143D01*
X172125377Y-140373373D01*
X172143048Y-140334677D01*
X172184420Y-140289599D01*
X172244386Y-140277448D01*
X172260982Y-140280810D01*
X172328039Y-140300500D01*
X172328041Y-140300500D01*
X172471959Y-140300500D01*
X172471961Y-140300500D01*
X172610053Y-140259953D01*
X172731128Y-140182143D01*
X172825377Y-140073373D01*
X172885165Y-139942457D01*
X172898076Y-139852659D01*
X172905647Y-139800002D01*
X179894353Y-139800002D01*
X179914834Y-139942456D01*
X179949269Y-140017857D01*
X179974623Y-140073373D01*
X180068872Y-140182143D01*
X180068873Y-140182144D01*
X180180072Y-140253607D01*
X180189947Y-140259953D01*
X180290913Y-140289599D01*
X180328035Y-140300499D01*
X180328036Y-140300499D01*
X180328039Y-140300500D01*
X180328041Y-140300500D01*
X180471959Y-140300500D01*
X180471961Y-140300500D01*
X180610053Y-140259953D01*
X180731128Y-140182143D01*
X180825377Y-140073373D01*
X180885165Y-139942457D01*
X180898076Y-139852659D01*
X180905647Y-139800002D01*
X180905647Y-139799997D01*
X180885165Y-139657543D01*
X180869184Y-139622550D01*
X180825377Y-139526627D01*
X180731128Y-139417857D01*
X180731127Y-139417856D01*
X180731126Y-139417855D01*
X180610057Y-139340049D01*
X180610054Y-139340047D01*
X180610053Y-139340047D01*
X180610050Y-139340046D01*
X180471964Y-139299500D01*
X180471961Y-139299500D01*
X180328039Y-139299500D01*
X180328035Y-139299500D01*
X180189949Y-139340046D01*
X180189942Y-139340049D01*
X180068873Y-139417855D01*
X179974622Y-139526628D01*
X179914834Y-139657543D01*
X179894353Y-139799997D01*
X179894353Y-139800002D01*
X172905647Y-139800002D01*
X172905647Y-139799997D01*
X172885165Y-139657543D01*
X172869184Y-139622550D01*
X172825377Y-139526627D01*
X172731128Y-139417857D01*
X172731127Y-139417856D01*
X172731126Y-139417855D01*
X172610057Y-139340049D01*
X172610054Y-139340047D01*
X172610053Y-139340047D01*
X172610050Y-139340046D01*
X172471964Y-139299500D01*
X172471961Y-139299500D01*
X172328039Y-139299500D01*
X172328035Y-139299500D01*
X172189949Y-139340046D01*
X172189942Y-139340049D01*
X172068873Y-139417855D01*
X171974622Y-139526627D01*
X171956950Y-139565324D01*
X171915577Y-139610401D01*
X171855610Y-139622550D01*
X171839006Y-139619186D01*
X171771964Y-139599500D01*
X171771961Y-139599500D01*
X171628039Y-139599500D01*
X171628035Y-139599500D01*
X171489949Y-139640046D01*
X171489942Y-139640049D01*
X171368873Y-139717855D01*
X171274622Y-139826627D01*
X171256950Y-139865324D01*
X171215577Y-139910401D01*
X171155610Y-139922550D01*
X171139006Y-139919186D01*
X171071964Y-139899500D01*
X171071961Y-139899500D01*
X170928039Y-139899500D01*
X170928035Y-139899500D01*
X170789949Y-139940046D01*
X170789947Y-139940047D01*
X170760025Y-139959277D01*
X170749685Y-139965922D01*
X170690509Y-139981475D01*
X170633493Y-139959277D01*
X170606109Y-139923763D01*
X170550346Y-139801660D01*
X170550345Y-139801658D01*
X170495132Y-139737939D01*
X170471314Y-139681580D01*
X170485173Y-139621984D01*
X170495133Y-139608276D01*
X170525377Y-139573373D01*
X170585165Y-139442457D01*
X170591992Y-139394971D01*
X170605647Y-139300002D01*
X170605647Y-139299997D01*
X170585165Y-139157543D01*
X170559114Y-139100500D01*
X170525377Y-139026627D01*
X170431128Y-138917857D01*
X170431127Y-138917856D01*
X170431126Y-138917855D01*
X170310057Y-138840049D01*
X170310054Y-138840047D01*
X170310053Y-138840047D01*
X170310050Y-138840046D01*
X170171964Y-138799500D01*
X170171961Y-138799500D01*
X170028039Y-138799500D01*
X170028035Y-138799500D01*
X169889949Y-138840046D01*
X169889942Y-138840049D01*
X169768873Y-138917855D01*
X169674622Y-139026628D01*
X169614834Y-139157543D01*
X169594353Y-139299997D01*
X169594353Y-139300002D01*
X169614834Y-139442456D01*
X169674623Y-139573373D01*
X169729835Y-139637092D01*
X169753653Y-139693451D01*
X169739794Y-139753047D01*
X169729835Y-139766755D01*
X169699786Y-139801433D01*
X169647390Y-139833028D01*
X169586429Y-139827792D01*
X169550150Y-139801434D01*
X169456096Y-139692889D01*
X169456095Y-139692888D01*
X169456094Y-139692887D01*
X169335025Y-139615081D01*
X169335022Y-139615079D01*
X169335021Y-139615079D01*
X169335018Y-139615078D01*
X169196932Y-139574532D01*
X169196929Y-139574532D01*
X169053007Y-139574532D01*
X169053003Y-139574532D01*
X168914917Y-139615078D01*
X168914910Y-139615081D01*
X168793841Y-139692887D01*
X168699590Y-139801660D01*
X168639802Y-139932575D01*
X168619321Y-140075029D01*
X168619321Y-140075034D01*
X168639802Y-140217488D01*
X168687655Y-140322270D01*
X168699591Y-140348405D01*
X168793840Y-140457175D01*
X168832693Y-140482144D01*
X168847637Y-140491748D01*
X168886368Y-140539114D01*
X168889861Y-140600200D01*
X168856781Y-140651672D01*
X168847637Y-140658316D01*
X168793840Y-140692889D01*
X168699590Y-140801660D01*
X168639802Y-140932575D01*
X168619321Y-141075029D01*
X168619321Y-141075034D01*
X150500500Y-141075034D01*
X150500500Y-139550002D01*
X159194353Y-139550002D01*
X159214834Y-139692456D01*
X159235606Y-139737939D01*
X159274623Y-139823373D01*
X159357645Y-139919186D01*
X159368873Y-139932144D01*
X159411093Y-139959277D01*
X159489947Y-140009953D01*
X159577822Y-140035755D01*
X159628035Y-140050499D01*
X159628036Y-140050499D01*
X159628039Y-140050500D01*
X159628041Y-140050500D01*
X159771959Y-140050500D01*
X159771961Y-140050500D01*
X159910053Y-140009953D01*
X160031128Y-139932143D01*
X160031136Y-139932133D01*
X160035165Y-139928644D01*
X160091523Y-139904824D01*
X160151119Y-139918679D01*
X160164835Y-139928644D01*
X160168866Y-139932137D01*
X160168872Y-139932143D01*
X160289947Y-140009953D01*
X160377822Y-140035755D01*
X160428035Y-140050499D01*
X160428036Y-140050499D01*
X160428039Y-140050500D01*
X160428041Y-140050500D01*
X160571959Y-140050500D01*
X160571961Y-140050500D01*
X160710053Y-140009953D01*
X160831128Y-139932143D01*
X160925377Y-139823373D01*
X160985165Y-139692457D01*
X161005647Y-139550000D01*
X160995617Y-139480241D01*
X160985165Y-139407543D01*
X160945185Y-139320000D01*
X160925377Y-139276627D01*
X160831128Y-139167857D01*
X160831127Y-139167856D01*
X160831126Y-139167855D01*
X160710057Y-139090049D01*
X160710054Y-139090047D01*
X160710053Y-139090047D01*
X160710050Y-139090046D01*
X160571964Y-139049500D01*
X160571961Y-139049500D01*
X160428039Y-139049500D01*
X160428035Y-139049500D01*
X160289949Y-139090046D01*
X160289942Y-139090049D01*
X160168872Y-139167856D01*
X160164830Y-139171359D01*
X160108471Y-139195176D01*
X160048876Y-139181317D01*
X160035170Y-139171359D01*
X160031127Y-139167856D01*
X159910057Y-139090049D01*
X159910054Y-139090047D01*
X159910053Y-139090047D01*
X159910050Y-139090046D01*
X159771964Y-139049500D01*
X159771961Y-139049500D01*
X159628039Y-139049500D01*
X159628035Y-139049500D01*
X159489949Y-139090046D01*
X159489942Y-139090049D01*
X159368873Y-139167855D01*
X159274622Y-139276628D01*
X159214834Y-139407543D01*
X159194353Y-139549997D01*
X159194353Y-139550002D01*
X150500500Y-139550002D01*
X150500500Y-138913040D01*
X150519407Y-138854849D01*
X150568907Y-138818885D01*
X150630093Y-138818885D01*
X150679593Y-138854849D01*
X150681815Y-138858038D01*
X150748249Y-138957462D01*
X150748252Y-138957466D01*
X150887533Y-139096747D01*
X150887537Y-139096750D01*
X151051314Y-139206185D01*
X151051326Y-139206191D01*
X151233310Y-139281570D01*
X151426506Y-139319999D01*
X151426510Y-139320000D01*
X151674999Y-139320000D01*
X151675000Y-139319999D01*
X151675000Y-138620000D01*
X152175000Y-138620000D01*
X152175000Y-139319999D01*
X152175001Y-139320000D01*
X152423490Y-139320000D01*
X152423493Y-139319999D01*
X152616688Y-139281570D01*
X152616690Y-139281570D01*
X152798673Y-139206191D01*
X152798685Y-139206185D01*
X152962462Y-139096750D01*
X152962466Y-139096747D01*
X153101747Y-138957466D01*
X153101750Y-138957462D01*
X153211185Y-138793685D01*
X153211191Y-138793673D01*
X153286568Y-138611695D01*
X153286571Y-138611684D01*
X153294863Y-138570000D01*
X154585137Y-138570000D01*
X154593428Y-138611684D01*
X154593431Y-138611695D01*
X154668808Y-138793673D01*
X154668814Y-138793685D01*
X154778249Y-138957462D01*
X154778252Y-138957466D01*
X154917533Y-139096747D01*
X154917537Y-139096750D01*
X155081314Y-139206185D01*
X155081326Y-139206191D01*
X155263310Y-139281570D01*
X155456506Y-139319999D01*
X155456510Y-139320000D01*
X155854999Y-139320000D01*
X155855000Y-139319999D01*
X155855000Y-138620000D01*
X156355000Y-138620000D01*
X156355000Y-139319999D01*
X156355001Y-139320000D01*
X156753490Y-139320000D01*
X156753493Y-139319999D01*
X156946688Y-139281570D01*
X156946690Y-139281570D01*
X157128673Y-139206191D01*
X157128685Y-139206185D01*
X157292462Y-139096750D01*
X157292466Y-139096747D01*
X157431747Y-138957466D01*
X157431750Y-138957462D01*
X157541185Y-138793685D01*
X157541191Y-138793673D01*
X157616568Y-138611695D01*
X157616571Y-138611684D01*
X157624863Y-138570000D01*
X156821988Y-138570000D01*
X156839205Y-138560060D01*
X156895060Y-138504205D01*
X156934556Y-138435796D01*
X156955000Y-138359496D01*
X156955000Y-138280504D01*
X156934556Y-138204204D01*
X156932130Y-138200002D01*
X175194353Y-138200002D01*
X175214834Y-138342456D01*
X175274622Y-138473371D01*
X175274623Y-138473373D01*
X175346578Y-138556414D01*
X175368873Y-138582144D01*
X175489942Y-138659950D01*
X175489947Y-138659953D01*
X175584388Y-138687683D01*
X175628035Y-138700499D01*
X175628036Y-138700499D01*
X175628039Y-138700500D01*
X175628041Y-138700500D01*
X175771959Y-138700500D01*
X175771961Y-138700500D01*
X175910053Y-138659953D01*
X176003339Y-138600002D01*
X181894353Y-138600002D01*
X181914834Y-138742456D01*
X181938230Y-138793685D01*
X181974623Y-138873373D01*
X182068872Y-138982143D01*
X182068873Y-138982144D01*
X182189942Y-139059950D01*
X182189947Y-139059953D01*
X182292436Y-139090046D01*
X182328035Y-139100499D01*
X182328036Y-139100499D01*
X182328039Y-139100500D01*
X182328041Y-139100500D01*
X182471959Y-139100500D01*
X182471961Y-139100500D01*
X182610053Y-139059953D01*
X182731128Y-138982143D01*
X182825377Y-138873373D01*
X182885165Y-138742457D01*
X182897028Y-138659950D01*
X182905647Y-138600002D01*
X182905647Y-138599997D01*
X182885165Y-138457543D01*
X182832606Y-138342457D01*
X182825377Y-138326627D01*
X182731128Y-138217857D01*
X182728506Y-138214831D01*
X182704688Y-138158472D01*
X182718547Y-138098876D01*
X182728506Y-138085169D01*
X182741651Y-138069999D01*
X182825377Y-137973373D01*
X182885165Y-137842457D01*
X182905575Y-137700500D01*
X182905647Y-137700002D01*
X182905647Y-137699997D01*
X182891270Y-137600002D01*
X185194353Y-137600002D01*
X185214834Y-137742456D01*
X185260504Y-137842457D01*
X185274623Y-137873373D01*
X185361271Y-137973371D01*
X185368873Y-137982144D01*
X185440700Y-138028304D01*
X185489947Y-138059953D01*
X185575826Y-138085169D01*
X185628035Y-138100499D01*
X185628036Y-138100499D01*
X185628039Y-138100500D01*
X185628041Y-138100500D01*
X185771959Y-138100500D01*
X185771961Y-138100500D01*
X185910053Y-138059953D01*
X186031128Y-137982143D01*
X186125377Y-137873373D01*
X186154317Y-137810003D01*
X191644417Y-137810003D01*
X191664698Y-138015929D01*
X191664699Y-138015934D01*
X191724768Y-138213954D01*
X191822316Y-138396452D01*
X191953585Y-138556404D01*
X191953590Y-138556410D01*
X191953595Y-138556414D01*
X192113547Y-138687683D01*
X192113548Y-138687683D01*
X192113550Y-138687685D01*
X192296046Y-138785232D01*
X192433997Y-138827078D01*
X192494065Y-138845300D01*
X192494070Y-138845301D01*
X192699997Y-138865583D01*
X192700000Y-138865583D01*
X192700003Y-138865583D01*
X192905929Y-138845301D01*
X192905934Y-138845300D01*
X192923254Y-138840046D01*
X193103954Y-138785232D01*
X193286450Y-138687685D01*
X193446410Y-138556410D01*
X193577685Y-138396450D01*
X193675232Y-138213954D01*
X193735300Y-138015934D01*
X193735301Y-138015929D01*
X193755583Y-137810003D01*
X193755583Y-137809996D01*
X193735301Y-137604070D01*
X193735300Y-137604065D01*
X193716852Y-137543249D01*
X193675232Y-137406046D01*
X193577685Y-137223550D01*
X193573011Y-137217855D01*
X193446414Y-137063595D01*
X193446410Y-137063590D01*
X193435013Y-137054237D01*
X193286452Y-136932316D01*
X193103954Y-136834768D01*
X192905934Y-136774699D01*
X192905929Y-136774698D01*
X192700003Y-136754417D01*
X192699997Y-136754417D01*
X192494070Y-136774698D01*
X192494065Y-136774699D01*
X192296045Y-136834768D01*
X192113547Y-136932316D01*
X191953595Y-137063585D01*
X191953585Y-137063595D01*
X191822316Y-137223547D01*
X191724768Y-137406045D01*
X191664699Y-137604065D01*
X191664698Y-137604070D01*
X191644417Y-137809996D01*
X191644417Y-137810003D01*
X186154317Y-137810003D01*
X186185165Y-137742457D01*
X186205062Y-137604070D01*
X186205647Y-137600002D01*
X186205647Y-137599997D01*
X186185165Y-137457543D01*
X186146725Y-137373373D01*
X186125377Y-137326627D01*
X186031128Y-137217857D01*
X186031127Y-137217856D01*
X186031126Y-137217855D01*
X185910057Y-137140049D01*
X185910054Y-137140047D01*
X185910053Y-137140047D01*
X185910050Y-137140046D01*
X185771964Y-137099500D01*
X185771961Y-137099500D01*
X185628039Y-137099500D01*
X185628035Y-137099500D01*
X185489949Y-137140046D01*
X185489942Y-137140049D01*
X185368873Y-137217855D01*
X185274622Y-137326628D01*
X185214834Y-137457543D01*
X185194353Y-137599997D01*
X185194353Y-137600002D01*
X182891270Y-137600002D01*
X182885165Y-137557543D01*
X182850731Y-137482144D01*
X182825377Y-137426627D01*
X182731128Y-137317857D01*
X182731127Y-137317856D01*
X182731126Y-137317855D01*
X182610057Y-137240049D01*
X182610054Y-137240047D01*
X182610053Y-137240047D01*
X182610050Y-137240046D01*
X182471964Y-137199500D01*
X182471961Y-137199500D01*
X182328039Y-137199500D01*
X182328035Y-137199500D01*
X182189949Y-137240046D01*
X182189942Y-137240049D01*
X182068873Y-137317855D01*
X181974622Y-137426628D01*
X181914834Y-137557543D01*
X181894353Y-137699997D01*
X181894353Y-137700002D01*
X181914834Y-137842456D01*
X181953275Y-137926628D01*
X181974623Y-137973373D01*
X182058349Y-138069999D01*
X182071494Y-138085169D01*
X182095311Y-138141529D01*
X182081452Y-138201124D01*
X182071494Y-138214831D01*
X181974622Y-138326628D01*
X181914834Y-138457543D01*
X181894353Y-138599997D01*
X181894353Y-138600002D01*
X176003339Y-138600002D01*
X176031128Y-138582143D01*
X176125377Y-138473373D01*
X176185165Y-138342457D01*
X176205043Y-138204204D01*
X176205647Y-138200002D01*
X176205647Y-138199997D01*
X176185165Y-138057543D01*
X176168019Y-138020000D01*
X176125377Y-137926627D01*
X176031128Y-137817857D01*
X176031127Y-137817856D01*
X176031126Y-137817855D01*
X175910057Y-137740049D01*
X175910054Y-137740047D01*
X175910053Y-137740047D01*
X175878714Y-137730845D01*
X175771964Y-137699500D01*
X175771961Y-137699500D01*
X175628039Y-137699500D01*
X175628035Y-137699500D01*
X175489949Y-137740046D01*
X175489942Y-137740049D01*
X175368873Y-137817855D01*
X175274622Y-137926628D01*
X175214834Y-138057543D01*
X175194353Y-138199997D01*
X175194353Y-138200002D01*
X156932130Y-138200002D01*
X156895060Y-138135795D01*
X156839205Y-138079940D01*
X156821988Y-138070000D01*
X157624862Y-138070000D01*
X157616571Y-138028315D01*
X157616568Y-138028304D01*
X157541191Y-137846326D01*
X157541185Y-137846314D01*
X157431750Y-137682537D01*
X157431747Y-137682533D01*
X157292466Y-137543252D01*
X157292462Y-137543249D01*
X157128685Y-137433814D01*
X157128673Y-137433808D01*
X156946689Y-137358429D01*
X156753493Y-137320000D01*
X156355001Y-137320000D01*
X156355000Y-137320001D01*
X156355000Y-138020000D01*
X155855000Y-138020000D01*
X155855000Y-137282755D01*
X155873907Y-137224564D01*
X155883990Y-137212757D01*
X155945485Y-137151263D01*
X155998205Y-137059950D01*
X156001501Y-137054241D01*
X156001501Y-137054239D01*
X156001503Y-137054237D01*
X156030500Y-136946018D01*
X156030500Y-136833982D01*
X156001503Y-136725763D01*
X156001501Y-136725760D01*
X156001501Y-136725758D01*
X155945486Y-136628739D01*
X155945485Y-136628737D01*
X155866263Y-136549515D01*
X155866260Y-136549513D01*
X155769240Y-136493498D01*
X155769242Y-136493498D01*
X155727251Y-136482247D01*
X155661018Y-136464500D01*
X155548982Y-136464500D01*
X155482748Y-136482247D01*
X155440758Y-136493498D01*
X155343739Y-136549513D01*
X155264513Y-136628739D01*
X155208498Y-136725758D01*
X155204669Y-136740049D01*
X155179500Y-136833982D01*
X155179500Y-136946018D01*
X155189180Y-136982143D01*
X155208498Y-137054241D01*
X155264513Y-137151260D01*
X155264515Y-137151263D01*
X155306391Y-137193139D01*
X155334167Y-137247654D01*
X155324596Y-137308086D01*
X155281331Y-137351351D01*
X155265141Y-137357873D01*
X155263316Y-137358426D01*
X155081326Y-137433808D01*
X155081314Y-137433814D01*
X154917537Y-137543249D01*
X154917533Y-137543252D01*
X154778252Y-137682533D01*
X154778249Y-137682537D01*
X154668814Y-137846314D01*
X154668808Y-137846326D01*
X154593431Y-138028304D01*
X154593428Y-138028315D01*
X154585137Y-138070000D01*
X155388012Y-138070000D01*
X155370795Y-138079940D01*
X155314940Y-138135795D01*
X155275444Y-138204204D01*
X155255000Y-138280504D01*
X155255000Y-138359496D01*
X155275444Y-138435796D01*
X155314940Y-138504205D01*
X155370795Y-138560060D01*
X155388012Y-138570000D01*
X154585137Y-138570000D01*
X153294863Y-138570000D01*
X152491988Y-138570000D01*
X152509205Y-138560060D01*
X152565060Y-138504205D01*
X152604556Y-138435796D01*
X152625000Y-138359496D01*
X152625000Y-138280504D01*
X152604556Y-138204204D01*
X152565060Y-138135795D01*
X152509205Y-138079940D01*
X152491988Y-138070000D01*
X153294862Y-138070000D01*
X153286571Y-138028315D01*
X153286568Y-138028304D01*
X153211191Y-137846326D01*
X153211185Y-137846314D01*
X153101750Y-137682537D01*
X153101747Y-137682533D01*
X152962466Y-137543252D01*
X152962462Y-137543249D01*
X152798685Y-137433814D01*
X152798673Y-137433808D01*
X152616689Y-137358429D01*
X152423493Y-137320000D01*
X152175001Y-137320000D01*
X152175000Y-137320001D01*
X152175000Y-138020000D01*
X151675000Y-138020000D01*
X151675000Y-137320001D01*
X151674999Y-137320000D01*
X151426506Y-137320000D01*
X151233311Y-137358429D01*
X151233309Y-137358429D01*
X151051326Y-137433808D01*
X151051314Y-137433814D01*
X150887537Y-137543249D01*
X150887533Y-137543252D01*
X150748248Y-137682537D01*
X150681815Y-137781961D01*
X150633765Y-137819840D01*
X150572626Y-137822242D01*
X150521753Y-137788248D01*
X150500576Y-137730845D01*
X150500500Y-137726959D01*
X150500500Y-136400002D01*
X156174353Y-136400002D01*
X156194834Y-136542456D01*
X156198057Y-136549513D01*
X156254623Y-136673373D01*
X156342421Y-136774698D01*
X156348873Y-136782144D01*
X156430758Y-136834768D01*
X156469947Y-136859953D01*
X156576403Y-136891211D01*
X156608035Y-136900499D01*
X156608036Y-136900499D01*
X156608039Y-136900500D01*
X156608041Y-136900500D01*
X156751959Y-136900500D01*
X156751961Y-136900500D01*
X156890053Y-136859953D01*
X157011128Y-136782143D01*
X157105377Y-136673373D01*
X157138885Y-136600002D01*
X160119353Y-136600002D01*
X160139834Y-136742456D01*
X160181634Y-136833983D01*
X160199623Y-136873373D01*
X160250697Y-136932316D01*
X160293873Y-136982144D01*
X160406059Y-137054241D01*
X160414947Y-137059953D01*
X160521403Y-137091211D01*
X160553035Y-137100499D01*
X160553036Y-137100499D01*
X160553039Y-137100500D01*
X160553041Y-137100500D01*
X160696959Y-137100500D01*
X160696961Y-137100500D01*
X160698657Y-137100002D01*
X163219353Y-137100002D01*
X163239834Y-137242456D01*
X163285504Y-137342457D01*
X163299623Y-137373373D01*
X163351990Y-137433808D01*
X163393873Y-137482144D01*
X163511197Y-137557543D01*
X163514947Y-137559953D01*
X163621403Y-137591211D01*
X163653035Y-137600499D01*
X163653036Y-137600499D01*
X163653039Y-137600500D01*
X163653041Y-137600500D01*
X163796959Y-137600500D01*
X163796961Y-137600500D01*
X163798657Y-137600002D01*
X166094353Y-137600002D01*
X166114834Y-137742456D01*
X166160504Y-137842457D01*
X166174623Y-137873373D01*
X166261271Y-137973371D01*
X166268873Y-137982144D01*
X166340700Y-138028304D01*
X166389947Y-138059953D01*
X166475826Y-138085169D01*
X166528035Y-138100499D01*
X166528036Y-138100499D01*
X166528039Y-138100500D01*
X166528041Y-138100500D01*
X166671959Y-138100500D01*
X166671961Y-138100500D01*
X166810053Y-138059953D01*
X166931128Y-137982143D01*
X167025377Y-137873373D01*
X167085165Y-137742457D01*
X167105062Y-137604070D01*
X167105647Y-137600002D01*
X167105647Y-137599997D01*
X167085165Y-137457543D01*
X167046725Y-137373373D01*
X167025377Y-137326627D01*
X166931128Y-137217857D01*
X166931127Y-137217856D01*
X166931126Y-137217855D01*
X166903346Y-137200002D01*
X169594353Y-137200002D01*
X169614834Y-137342456D01*
X169674622Y-137473371D01*
X169674623Y-137473373D01*
X169768872Y-137582143D01*
X169768873Y-137582144D01*
X169802991Y-137604070D01*
X169889947Y-137659953D01*
X169966862Y-137682537D01*
X170028035Y-137700499D01*
X170028036Y-137700499D01*
X170028039Y-137700500D01*
X170028041Y-137700500D01*
X170171959Y-137700500D01*
X170171961Y-137700500D01*
X170310053Y-137659953D01*
X170431128Y-137582143D01*
X170525377Y-137473373D01*
X170585165Y-137342457D01*
X170593749Y-137282755D01*
X170605647Y-137200002D01*
X170605647Y-137199997D01*
X170585165Y-137057543D01*
X170550731Y-136982144D01*
X170525377Y-136926627D01*
X170431128Y-136817857D01*
X170431127Y-136817856D01*
X170431126Y-136817855D01*
X170310057Y-136740049D01*
X170310054Y-136740047D01*
X170310053Y-136740047D01*
X170310050Y-136740046D01*
X170171964Y-136699500D01*
X170171961Y-136699500D01*
X170028039Y-136699500D01*
X170028035Y-136699500D01*
X169889949Y-136740046D01*
X169889942Y-136740049D01*
X169768873Y-136817855D01*
X169674622Y-136926628D01*
X169614834Y-137057543D01*
X169594353Y-137199997D01*
X169594353Y-137200002D01*
X166903346Y-137200002D01*
X166810057Y-137140049D01*
X166810054Y-137140047D01*
X166810053Y-137140047D01*
X166810050Y-137140046D01*
X166671964Y-137099500D01*
X166671961Y-137099500D01*
X166528039Y-137099500D01*
X166528035Y-137099500D01*
X166389949Y-137140046D01*
X166389942Y-137140049D01*
X166268873Y-137217855D01*
X166174622Y-137326628D01*
X166114834Y-137457543D01*
X166094353Y-137599997D01*
X166094353Y-137600002D01*
X163798657Y-137600002D01*
X163935053Y-137559953D01*
X164056128Y-137482143D01*
X164150377Y-137373373D01*
X164210165Y-137242457D01*
X164230575Y-137100500D01*
X164230647Y-137100002D01*
X164230647Y-137099997D01*
X164210165Y-136957543D01*
X164184114Y-136900500D01*
X164150377Y-136826627D01*
X164056128Y-136717857D01*
X164056127Y-136717856D01*
X164056126Y-136717855D01*
X163935057Y-136640049D01*
X163935054Y-136640047D01*
X163935053Y-136640047D01*
X163935050Y-136640046D01*
X163796964Y-136599500D01*
X163796961Y-136599500D01*
X163653039Y-136599500D01*
X163653035Y-136599500D01*
X163514949Y-136640046D01*
X163514942Y-136640049D01*
X163393873Y-136717855D01*
X163299622Y-136826628D01*
X163239834Y-136957543D01*
X163219353Y-137099997D01*
X163219353Y-137100002D01*
X160698657Y-137100002D01*
X160835053Y-137059953D01*
X160956128Y-136982143D01*
X161050377Y-136873373D01*
X161110165Y-136742457D01*
X161130647Y-136600000D01*
X161130575Y-136599500D01*
X161110165Y-136457543D01*
X161093247Y-136420499D01*
X161083886Y-136400002D01*
X168694353Y-136400002D01*
X168714834Y-136542456D01*
X168718057Y-136549513D01*
X168774623Y-136673373D01*
X168862421Y-136774698D01*
X168868873Y-136782144D01*
X168950758Y-136834768D01*
X168989947Y-136859953D01*
X169096403Y-136891211D01*
X169128035Y-136900499D01*
X169128036Y-136900499D01*
X169128039Y-136900500D01*
X169128041Y-136900500D01*
X169271959Y-136900500D01*
X169271961Y-136900500D01*
X169410053Y-136859953D01*
X169531128Y-136782143D01*
X169625377Y-136673373D01*
X169685165Y-136542457D01*
X169705647Y-136400000D01*
X169702764Y-136379950D01*
X169685165Y-136257543D01*
X169659114Y-136200500D01*
X169625377Y-136126627D01*
X169531128Y-136017857D01*
X169531127Y-136017856D01*
X169531126Y-136017855D01*
X169410057Y-135940049D01*
X169410054Y-135940047D01*
X169410053Y-135940047D01*
X169410050Y-135940046D01*
X169341787Y-135920002D01*
X171994353Y-135920002D01*
X172014834Y-136062456D01*
X172050270Y-136140049D01*
X172074623Y-136193373D01*
X172168872Y-136302143D01*
X172168873Y-136302144D01*
X172206971Y-136326628D01*
X172289947Y-136379953D01*
X172396403Y-136411211D01*
X172428035Y-136420499D01*
X172428036Y-136420499D01*
X172428039Y-136420500D01*
X172428041Y-136420500D01*
X172571959Y-136420500D01*
X172571961Y-136420500D01*
X172710053Y-136379953D01*
X172831128Y-136302143D01*
X172925377Y-136193373D01*
X172985165Y-136062457D01*
X172997973Y-135973373D01*
X173005647Y-135920002D01*
X173005647Y-135919997D01*
X172985165Y-135777543D01*
X172977130Y-135759950D01*
X172949753Y-135700002D01*
X181794353Y-135700002D01*
X181814834Y-135842456D01*
X181850248Y-135920000D01*
X181874623Y-135973373D01*
X181951813Y-136062456D01*
X181968873Y-136082144D01*
X182089942Y-136159950D01*
X182089947Y-136159953D01*
X182196403Y-136191211D01*
X182228035Y-136200499D01*
X182228036Y-136200499D01*
X182228039Y-136200500D01*
X182228041Y-136200500D01*
X182371959Y-136200500D01*
X182371961Y-136200500D01*
X182510053Y-136159953D01*
X182631128Y-136082143D01*
X182725377Y-135973373D01*
X182785165Y-135842457D01*
X182805647Y-135700000D01*
X182801902Y-135673954D01*
X182785165Y-135557543D01*
X182759114Y-135500500D01*
X182725377Y-135426627D01*
X182631128Y-135317857D01*
X182631127Y-135317856D01*
X182631126Y-135317855D01*
X182556667Y-135270003D01*
X191644417Y-135270003D01*
X191664698Y-135475929D01*
X191664699Y-135475934D01*
X191724768Y-135673954D01*
X191822316Y-135856452D01*
X191925468Y-135982143D01*
X191953590Y-136016410D01*
X191953595Y-136016414D01*
X192113547Y-136147683D01*
X192113548Y-136147683D01*
X192113550Y-136147685D01*
X192296046Y-136245232D01*
X192433997Y-136287078D01*
X192494065Y-136305300D01*
X192494070Y-136305301D01*
X192699997Y-136325583D01*
X192700000Y-136325583D01*
X192700003Y-136325583D01*
X192905929Y-136305301D01*
X192905934Y-136305300D01*
X192916341Y-136302143D01*
X193103954Y-136245232D01*
X193286450Y-136147685D01*
X193446410Y-136016410D01*
X193577685Y-135856450D01*
X193675232Y-135673954D01*
X193735300Y-135475934D01*
X193735301Y-135475929D01*
X193755583Y-135270003D01*
X193755583Y-135269996D01*
X193735301Y-135064070D01*
X193735300Y-135064065D01*
X193696907Y-134937500D01*
X193675232Y-134866046D01*
X193577685Y-134683550D01*
X193570415Y-134674692D01*
X193446414Y-134523595D01*
X193446410Y-134523590D01*
X193418275Y-134500500D01*
X193286452Y-134392316D01*
X193103954Y-134294768D01*
X192905934Y-134234699D01*
X192905929Y-134234698D01*
X192700003Y-134214417D01*
X192699997Y-134214417D01*
X192494070Y-134234698D01*
X192494065Y-134234699D01*
X192296045Y-134294768D01*
X192113547Y-134392316D01*
X191953595Y-134523585D01*
X191953585Y-134523595D01*
X191822316Y-134683547D01*
X191724768Y-134866045D01*
X191664699Y-135064065D01*
X191664698Y-135064070D01*
X191644417Y-135269996D01*
X191644417Y-135270003D01*
X182556667Y-135270003D01*
X182510057Y-135240049D01*
X182510054Y-135240047D01*
X182510053Y-135240047D01*
X182510050Y-135240046D01*
X182371964Y-135199500D01*
X182371961Y-135199500D01*
X182228039Y-135199500D01*
X182228035Y-135199500D01*
X182089949Y-135240046D01*
X182089942Y-135240049D01*
X181968873Y-135317855D01*
X181874622Y-135426628D01*
X181814834Y-135557543D01*
X181794353Y-135699997D01*
X181794353Y-135700002D01*
X172949753Y-135700002D01*
X172925377Y-135646627D01*
X172890818Y-135606743D01*
X172867000Y-135550383D01*
X172880859Y-135490788D01*
X172912112Y-135458629D01*
X173031128Y-135382143D01*
X173125377Y-135273373D01*
X173185165Y-135142457D01*
X173205647Y-135000002D01*
X179594353Y-135000002D01*
X179614834Y-135142456D01*
X179673084Y-135270003D01*
X179674623Y-135273373D01*
X179768872Y-135382143D01*
X179768873Y-135382144D01*
X179886197Y-135457543D01*
X179889947Y-135459953D01*
X179994963Y-135490788D01*
X180028035Y-135500499D01*
X180028036Y-135500499D01*
X180028039Y-135500500D01*
X180028041Y-135500500D01*
X180171959Y-135500500D01*
X180171961Y-135500500D01*
X180310053Y-135459953D01*
X180431128Y-135382143D01*
X180525377Y-135273373D01*
X180585165Y-135142457D01*
X180605647Y-135000000D01*
X180605575Y-134999500D01*
X180585165Y-134857543D01*
X180562807Y-134808586D01*
X180525377Y-134726627D01*
X180431128Y-134617857D01*
X180431127Y-134617856D01*
X180431126Y-134617855D01*
X180310057Y-134540049D01*
X180310054Y-134540047D01*
X180310053Y-134540047D01*
X180310050Y-134540046D01*
X180171964Y-134499500D01*
X180171961Y-134499500D01*
X180028039Y-134499500D01*
X180028035Y-134499500D01*
X179889949Y-134540046D01*
X179889942Y-134540049D01*
X179768873Y-134617855D01*
X179674622Y-134726628D01*
X179614834Y-134857543D01*
X179594353Y-134999997D01*
X179594353Y-135000002D01*
X173205647Y-135000002D01*
X173205647Y-135000000D01*
X173205575Y-134999500D01*
X173185165Y-134857543D01*
X173162807Y-134808586D01*
X173125377Y-134726627D01*
X173031128Y-134617857D01*
X173031127Y-134617856D01*
X173031126Y-134617855D01*
X172910057Y-134540049D01*
X172910054Y-134540047D01*
X172910053Y-134540047D01*
X172910050Y-134540046D01*
X172771964Y-134499500D01*
X172771961Y-134499500D01*
X172628039Y-134499500D01*
X172628035Y-134499500D01*
X172489949Y-134540046D01*
X172489942Y-134540049D01*
X172368873Y-134617855D01*
X172274622Y-134726628D01*
X172214834Y-134857543D01*
X172194353Y-134999997D01*
X172194353Y-135000002D01*
X172214834Y-135142456D01*
X172273084Y-135270003D01*
X172274623Y-135273373D01*
X172309182Y-135313256D01*
X172332999Y-135369616D01*
X172319140Y-135429211D01*
X172287886Y-135461371D01*
X172168872Y-135537857D01*
X172074622Y-135646628D01*
X172014834Y-135777543D01*
X171994353Y-135919997D01*
X171994353Y-135920002D01*
X169341787Y-135920002D01*
X169271964Y-135899500D01*
X169271961Y-135899500D01*
X169128039Y-135899500D01*
X169128035Y-135899500D01*
X168989949Y-135940046D01*
X168989942Y-135940049D01*
X168868873Y-136017855D01*
X168774622Y-136126628D01*
X168714834Y-136257543D01*
X168694353Y-136399997D01*
X168694353Y-136400002D01*
X161083886Y-136400002D01*
X161050377Y-136326627D01*
X160956128Y-136217857D01*
X160956127Y-136217856D01*
X160956126Y-136217855D01*
X160835057Y-136140049D01*
X160835054Y-136140047D01*
X160835053Y-136140047D01*
X160835050Y-136140046D01*
X160696964Y-136099500D01*
X160696961Y-136099500D01*
X160553039Y-136099500D01*
X160553035Y-136099500D01*
X160414949Y-136140046D01*
X160414942Y-136140049D01*
X160293873Y-136217855D01*
X160199622Y-136326628D01*
X160139834Y-136457543D01*
X160119353Y-136599997D01*
X160119353Y-136600002D01*
X157138885Y-136600002D01*
X157165165Y-136542457D01*
X157185647Y-136400000D01*
X157182764Y-136379950D01*
X157165165Y-136257543D01*
X157139114Y-136200500D01*
X157105377Y-136126627D01*
X157011128Y-136017857D01*
X157011127Y-136017856D01*
X157011126Y-136017855D01*
X156890057Y-135940049D01*
X156890054Y-135940047D01*
X156890053Y-135940047D01*
X156890050Y-135940046D01*
X156751964Y-135899500D01*
X156751961Y-135899500D01*
X156608039Y-135899500D01*
X156608035Y-135899500D01*
X156469949Y-135940046D01*
X156469942Y-135940049D01*
X156348873Y-136017855D01*
X156254622Y-136126628D01*
X156194834Y-136257543D01*
X156174353Y-136399997D01*
X156174353Y-136400002D01*
X150500500Y-136400002D01*
X150500500Y-135500002D01*
X162294353Y-135500002D01*
X162314834Y-135642456D01*
X162360504Y-135742457D01*
X162374623Y-135773373D01*
X162440767Y-135849708D01*
X162468873Y-135882144D01*
X162589942Y-135959950D01*
X162589947Y-135959953D01*
X162696403Y-135991211D01*
X162728035Y-136000499D01*
X162728036Y-136000499D01*
X162728039Y-136000500D01*
X162728041Y-136000500D01*
X162871959Y-136000500D01*
X162871961Y-136000500D01*
X163010053Y-135959953D01*
X163131128Y-135882143D01*
X163131853Y-135881305D01*
X163132646Y-135880827D01*
X163136481Y-135877505D01*
X163137055Y-135878168D01*
X163184247Y-135849708D01*
X163245208Y-135854941D01*
X163281493Y-135881301D01*
X163361271Y-135973371D01*
X163368873Y-135982144D01*
X163424441Y-136017855D01*
X163489947Y-136059953D01*
X163596403Y-136091211D01*
X163628035Y-136100499D01*
X163628036Y-136100499D01*
X163628039Y-136100500D01*
X163628041Y-136100500D01*
X163771959Y-136100500D01*
X163771961Y-136100500D01*
X163910053Y-136059953D01*
X164031128Y-135982143D01*
X164125377Y-135873373D01*
X164185165Y-135742457D01*
X164205647Y-135600000D01*
X164201818Y-135573371D01*
X164185165Y-135457543D01*
X164171046Y-135426627D01*
X164125377Y-135326627D01*
X164102306Y-135300002D01*
X167294353Y-135300002D01*
X167314834Y-135442456D01*
X167374622Y-135573371D01*
X167374623Y-135573373D01*
X167461776Y-135673954D01*
X167468873Y-135682144D01*
X167589942Y-135759950D01*
X167589947Y-135759953D01*
X167696403Y-135791211D01*
X167728035Y-135800499D01*
X167728036Y-135800499D01*
X167728039Y-135800500D01*
X167728041Y-135800500D01*
X167871959Y-135800500D01*
X167871961Y-135800500D01*
X168010053Y-135759953D01*
X168131128Y-135682143D01*
X168225377Y-135573373D01*
X168285165Y-135442457D01*
X168305647Y-135300000D01*
X168301818Y-135273371D01*
X168285165Y-135157543D01*
X168242475Y-135064066D01*
X168225377Y-135026627D01*
X168131128Y-134917857D01*
X168131127Y-134917856D01*
X168131126Y-134917855D01*
X168010057Y-134840049D01*
X168010054Y-134840047D01*
X168010053Y-134840047D01*
X168010050Y-134840046D01*
X167871964Y-134799500D01*
X167871961Y-134799500D01*
X167728039Y-134799500D01*
X167728035Y-134799500D01*
X167589949Y-134840046D01*
X167589942Y-134840049D01*
X167468873Y-134917855D01*
X167374622Y-135026628D01*
X167314834Y-135157543D01*
X167294353Y-135299997D01*
X167294353Y-135300002D01*
X164102306Y-135300002D01*
X164031128Y-135217857D01*
X164031127Y-135217856D01*
X164031126Y-135217855D01*
X163910057Y-135140049D01*
X163910054Y-135140047D01*
X163910053Y-135140047D01*
X163910050Y-135140046D01*
X163771964Y-135099500D01*
X163771961Y-135099500D01*
X163628039Y-135099500D01*
X163628035Y-135099500D01*
X163489949Y-135140046D01*
X163489942Y-135140049D01*
X163368872Y-135217856D01*
X163368864Y-135217862D01*
X163368135Y-135218705D01*
X163367339Y-135219184D01*
X163363519Y-135222495D01*
X163362945Y-135221833D01*
X163315735Y-135250295D01*
X163254775Y-135245051D01*
X163218506Y-135218697D01*
X163131128Y-135117857D01*
X163131127Y-135117856D01*
X163131126Y-135117855D01*
X163010057Y-135040049D01*
X163010054Y-135040047D01*
X163010053Y-135040047D01*
X163010050Y-135040046D01*
X162871964Y-134999500D01*
X162871961Y-134999500D01*
X162728039Y-134999500D01*
X162728035Y-134999500D01*
X162589949Y-135040046D01*
X162589942Y-135040049D01*
X162468873Y-135117855D01*
X162374622Y-135226628D01*
X162314834Y-135357543D01*
X162294353Y-135499997D01*
X162294353Y-135500002D01*
X150500500Y-135500002D01*
X150500500Y-134800000D01*
X155294508Y-134800000D01*
X155312622Y-134914371D01*
X155314354Y-134925303D01*
X155314355Y-134925307D01*
X155320568Y-134937500D01*
X155371950Y-135038342D01*
X155461658Y-135128050D01*
X155574696Y-135185646D01*
X155700000Y-135205492D01*
X155825304Y-135185646D01*
X155938342Y-135128050D01*
X156028050Y-135038342D01*
X156085646Y-134925304D01*
X156105492Y-134800000D01*
X156085646Y-134674696D01*
X156028050Y-134561658D01*
X155938342Y-134471950D01*
X155885340Y-134444944D01*
X155825307Y-134414355D01*
X155825304Y-134414354D01*
X155720664Y-134397780D01*
X155704571Y-134389581D01*
X155679334Y-134397781D01*
X155574696Y-134414354D01*
X155574692Y-134414355D01*
X155461659Y-134471949D01*
X155371949Y-134561659D01*
X155314355Y-134674692D01*
X155314354Y-134674696D01*
X155294508Y-134800000D01*
X150500500Y-134800000D01*
X150500500Y-133800000D01*
X155294508Y-133800000D01*
X155311876Y-133909661D01*
X155314354Y-133925303D01*
X155314355Y-133925307D01*
X155344523Y-133984514D01*
X155371950Y-134038342D01*
X155461658Y-134128050D01*
X155574696Y-134185646D01*
X155665306Y-134199997D01*
X155679334Y-134202219D01*
X155695427Y-134210418D01*
X155720665Y-134202219D01*
X155825304Y-134185646D01*
X155938342Y-134128050D01*
X156028050Y-134038342D01*
X156047585Y-134000002D01*
X159294353Y-134000002D01*
X159314834Y-134142456D01*
X159365604Y-134253624D01*
X159374623Y-134273373D01*
X159445401Y-134355056D01*
X159468873Y-134382144D01*
X159589942Y-134459950D01*
X159589947Y-134459953D01*
X159693420Y-134490335D01*
X159728035Y-134500499D01*
X159728036Y-134500499D01*
X159728039Y-134500500D01*
X159728041Y-134500500D01*
X159871959Y-134500500D01*
X159871961Y-134500500D01*
X160010053Y-134459953D01*
X160131128Y-134382143D01*
X160225377Y-134273373D01*
X160258885Y-134200002D01*
X165594353Y-134200002D01*
X165614834Y-134342456D01*
X165668493Y-134459950D01*
X165674623Y-134473373D01*
X165732395Y-134540046D01*
X165768873Y-134582144D01*
X165796658Y-134600000D01*
X165889947Y-134659953D01*
X165970302Y-134683547D01*
X166028035Y-134700499D01*
X166028036Y-134700499D01*
X166028039Y-134700500D01*
X166028041Y-134700500D01*
X166171959Y-134700500D01*
X166171961Y-134700500D01*
X166310053Y-134659953D01*
X166403342Y-134600000D01*
X168663331Y-134600000D01*
X168680700Y-134709661D01*
X168731105Y-134808587D01*
X168809613Y-134887095D01*
X168908539Y-134937500D01*
X169018200Y-134954869D01*
X169127861Y-134937500D01*
X169173254Y-134914370D01*
X169233686Y-134904799D01*
X169263145Y-134914370D01*
X169308537Y-134937499D01*
X169308539Y-134937500D01*
X169418200Y-134954869D01*
X169527861Y-134937500D01*
X169573254Y-134914370D01*
X169633686Y-134904799D01*
X169663145Y-134914370D01*
X169708537Y-134937499D01*
X169708539Y-134937500D01*
X169818200Y-134954869D01*
X169927861Y-134937500D01*
X169973254Y-134914370D01*
X170033686Y-134904799D01*
X170063145Y-134914370D01*
X170108537Y-134937499D01*
X170108539Y-134937500D01*
X170218200Y-134954869D01*
X170327861Y-134937500D01*
X170426787Y-134887095D01*
X170505295Y-134808587D01*
X170555700Y-134709661D01*
X170573069Y-134600000D01*
X170555700Y-134490339D01*
X170532570Y-134444945D01*
X170522999Y-134384514D01*
X170532571Y-134355054D01*
X170555700Y-134309661D01*
X170573069Y-134200000D01*
X170570795Y-134185646D01*
X170563955Y-134142457D01*
X170555700Y-134090339D01*
X170532570Y-134044945D01*
X170522999Y-133984514D01*
X170532571Y-133955054D01*
X170555699Y-133909662D01*
X170555700Y-133909661D01*
X170573069Y-133800000D01*
X170555700Y-133690339D01*
X170532570Y-133644945D01*
X170522999Y-133584514D01*
X170532571Y-133555054D01*
X170555700Y-133509661D01*
X170557230Y-133500002D01*
X171894353Y-133500002D01*
X171914834Y-133642456D01*
X171974622Y-133773371D01*
X171974623Y-133773373D01*
X172047556Y-133857543D01*
X172068873Y-133882144D01*
X172138092Y-133926628D01*
X172189947Y-133959953D01*
X172273595Y-133984514D01*
X172328035Y-134000499D01*
X172328036Y-134000499D01*
X172328039Y-134000500D01*
X172328041Y-134000500D01*
X172471959Y-134000500D01*
X172471961Y-134000500D01*
X172610053Y-133959953D01*
X172731128Y-133882143D01*
X172825377Y-133773373D01*
X172885165Y-133642457D01*
X172891269Y-133600002D01*
X177294353Y-133600002D01*
X177314834Y-133742456D01*
X177374622Y-133873371D01*
X177374623Y-133873373D01*
X177468872Y-133982143D01*
X177468873Y-133982144D01*
X177586197Y-134057543D01*
X177589947Y-134059953D01*
X177693420Y-134090335D01*
X177728035Y-134100499D01*
X177728036Y-134100499D01*
X177728039Y-134100500D01*
X177728041Y-134100500D01*
X177871959Y-134100500D01*
X177871961Y-134100500D01*
X178010053Y-134059953D01*
X178131128Y-133982143D01*
X178207084Y-133894484D01*
X185999500Y-133894484D01*
X186029058Y-134081113D01*
X186087453Y-134260832D01*
X186165676Y-134414355D01*
X186173240Y-134429199D01*
X186284310Y-134582073D01*
X186417927Y-134715690D01*
X186570801Y-134826760D01*
X186739168Y-134912547D01*
X186918882Y-134970940D01*
X186918883Y-134970940D01*
X186918886Y-134970941D01*
X187105516Y-135000500D01*
X187105519Y-135000500D01*
X187294484Y-135000500D01*
X187481113Y-134970941D01*
X187481114Y-134970940D01*
X187481118Y-134970940D01*
X187660832Y-134912547D01*
X187829199Y-134826760D01*
X187982073Y-134715690D01*
X188115690Y-134582073D01*
X188226760Y-134429199D01*
X188312547Y-134260832D01*
X188370940Y-134081118D01*
X188376669Y-134044946D01*
X188400500Y-133894484D01*
X188400500Y-133705515D01*
X188370941Y-133518886D01*
X188364805Y-133500002D01*
X188312547Y-133339168D01*
X188226760Y-133170801D01*
X188115690Y-133017927D01*
X187982073Y-132884310D01*
X187829199Y-132773240D01*
X187829198Y-132773239D01*
X187829196Y-132773238D01*
X187744342Y-132730003D01*
X191644417Y-132730003D01*
X191664698Y-132935929D01*
X191664699Y-132935934D01*
X191724768Y-133133954D01*
X191822316Y-133316452D01*
X191886375Y-133394508D01*
X191953590Y-133476410D01*
X191953595Y-133476414D01*
X192113547Y-133607683D01*
X192113548Y-133607683D01*
X192113550Y-133607685D01*
X192296046Y-133705232D01*
X192402421Y-133737500D01*
X192494065Y-133765300D01*
X192494070Y-133765301D01*
X192699997Y-133785583D01*
X192700000Y-133785583D01*
X192700003Y-133785583D01*
X192905929Y-133765301D01*
X192905934Y-133765300D01*
X193103954Y-133705232D01*
X193286450Y-133607685D01*
X193446410Y-133476410D01*
X193577685Y-133316450D01*
X193675232Y-133133954D01*
X193735300Y-132935934D01*
X193735301Y-132935929D01*
X193755583Y-132730003D01*
X193755583Y-132729996D01*
X193735301Y-132524070D01*
X193735300Y-132524065D01*
X193697817Y-132400500D01*
X193675232Y-132326046D01*
X193577685Y-132143550D01*
X193541946Y-132100002D01*
X193446414Y-131983595D01*
X193446410Y-131983590D01*
X193444647Y-131982143D01*
X193286452Y-131852316D01*
X193103954Y-131754768D01*
X192905934Y-131694699D01*
X192905929Y-131694698D01*
X192700003Y-131674417D01*
X192699997Y-131674417D01*
X192494070Y-131694698D01*
X192494065Y-131694699D01*
X192296045Y-131754768D01*
X192113547Y-131852316D01*
X191953595Y-131983585D01*
X191953585Y-131983595D01*
X191822316Y-132143547D01*
X191724768Y-132326045D01*
X191664699Y-132524065D01*
X191664698Y-132524070D01*
X191644417Y-132729996D01*
X191644417Y-132730003D01*
X187744342Y-132730003D01*
X187660832Y-132687453D01*
X187481113Y-132629058D01*
X187294484Y-132599500D01*
X187294481Y-132599500D01*
X187105519Y-132599500D01*
X187105516Y-132599500D01*
X186918886Y-132629058D01*
X186739167Y-132687453D01*
X186570803Y-132773238D01*
X186417928Y-132884309D01*
X186284309Y-133017928D01*
X186173238Y-133170803D01*
X186087453Y-133339167D01*
X186029058Y-133518886D01*
X185999500Y-133705515D01*
X185999500Y-133894484D01*
X178207084Y-133894484D01*
X178225377Y-133873373D01*
X178285165Y-133742457D01*
X178292659Y-133690335D01*
X178305647Y-133600002D01*
X178305647Y-133599997D01*
X178285165Y-133457543D01*
X178265441Y-133414354D01*
X178225377Y-133326627D01*
X178131128Y-133217857D01*
X178131127Y-133217856D01*
X178131126Y-133217855D01*
X178010057Y-133140049D01*
X178010054Y-133140047D01*
X178010053Y-133140047D01*
X178010050Y-133140046D01*
X177871964Y-133099500D01*
X177871961Y-133099500D01*
X177728039Y-133099500D01*
X177728035Y-133099500D01*
X177589949Y-133140046D01*
X177589942Y-133140049D01*
X177468873Y-133217855D01*
X177374622Y-133326628D01*
X177314834Y-133457543D01*
X177294353Y-133599997D01*
X177294353Y-133600002D01*
X172891269Y-133600002D01*
X172904258Y-133509661D01*
X172905647Y-133500002D01*
X172905647Y-133499997D01*
X172885165Y-133357543D01*
X172866398Y-133316450D01*
X172825377Y-133226627D01*
X172731128Y-133117857D01*
X172731127Y-133117856D01*
X172731126Y-133117855D01*
X172610057Y-133040049D01*
X172610054Y-133040047D01*
X172610053Y-133040047D01*
X172610050Y-133040046D01*
X172471964Y-132999500D01*
X172471961Y-132999500D01*
X172328039Y-132999500D01*
X172328035Y-132999500D01*
X172189949Y-133040046D01*
X172189942Y-133040049D01*
X172068873Y-133117855D01*
X171974622Y-133226628D01*
X171914834Y-133357543D01*
X171894353Y-133499997D01*
X171894353Y-133500002D01*
X170557230Y-133500002D01*
X170573069Y-133400000D01*
X170555700Y-133290339D01*
X170505295Y-133191413D01*
X170426787Y-133112905D01*
X170327861Y-133062500D01*
X170218200Y-133045131D01*
X170108541Y-133062499D01*
X170108535Y-133062501D01*
X170063144Y-133085629D01*
X170002711Y-133095200D01*
X169973256Y-133085629D01*
X169927864Y-133062501D01*
X169927858Y-133062499D01*
X169818200Y-133045131D01*
X169708541Y-133062499D01*
X169708535Y-133062501D01*
X169663144Y-133085629D01*
X169602711Y-133095200D01*
X169573256Y-133085629D01*
X169527864Y-133062501D01*
X169527858Y-133062499D01*
X169418200Y-133045131D01*
X169308541Y-133062499D01*
X169308535Y-133062501D01*
X169263144Y-133085629D01*
X169202711Y-133095200D01*
X169173256Y-133085629D01*
X169127864Y-133062501D01*
X169127858Y-133062499D01*
X169018200Y-133045131D01*
X168908538Y-133062500D01*
X168809613Y-133112905D01*
X168731105Y-133191413D01*
X168680700Y-133290338D01*
X168663331Y-133399999D01*
X168663331Y-133400000D01*
X168680699Y-133509658D01*
X168680701Y-133509664D01*
X168703829Y-133555056D01*
X168713400Y-133615489D01*
X168703829Y-133644944D01*
X168680701Y-133690335D01*
X168680699Y-133690341D01*
X168663331Y-133799999D01*
X168663331Y-133800000D01*
X168680699Y-133909658D01*
X168680701Y-133909664D01*
X168703829Y-133955056D01*
X168713400Y-134015489D01*
X168703829Y-134044944D01*
X168680701Y-134090335D01*
X168680699Y-134090341D01*
X168663331Y-134199999D01*
X168663331Y-134200000D01*
X168680699Y-134309658D01*
X168680701Y-134309664D01*
X168703829Y-134355056D01*
X168713400Y-134415489D01*
X168703829Y-134444944D01*
X168680701Y-134490335D01*
X168680699Y-134490341D01*
X168666170Y-134582073D01*
X168663331Y-134600000D01*
X166403342Y-134600000D01*
X166431128Y-134582143D01*
X166525377Y-134473373D01*
X166585165Y-134342457D01*
X166600658Y-134234698D01*
X166605647Y-134200002D01*
X166605647Y-134199997D01*
X166585165Y-134057543D01*
X166559114Y-134000500D01*
X166525377Y-133926627D01*
X166431128Y-133817857D01*
X166431127Y-133817856D01*
X166431126Y-133817855D01*
X166310057Y-133740049D01*
X166310054Y-133740047D01*
X166310053Y-133740047D01*
X166301379Y-133737500D01*
X166171964Y-133699500D01*
X166171961Y-133699500D01*
X166028039Y-133699500D01*
X166028035Y-133699500D01*
X165889949Y-133740046D01*
X165889942Y-133740049D01*
X165768873Y-133817855D01*
X165674622Y-133926628D01*
X165614834Y-134057543D01*
X165594353Y-134199997D01*
X165594353Y-134200002D01*
X160258885Y-134200002D01*
X160285165Y-134142457D01*
X160305575Y-134000500D01*
X160305647Y-134000002D01*
X160305647Y-133999997D01*
X160285165Y-133857543D01*
X160267040Y-133817855D01*
X160225377Y-133726627D01*
X160131128Y-133617857D01*
X160131127Y-133617856D01*
X160131126Y-133617855D01*
X160010057Y-133540049D01*
X160010054Y-133540047D01*
X160010053Y-133540047D01*
X160010050Y-133540046D01*
X159871964Y-133499500D01*
X159871961Y-133499500D01*
X159728039Y-133499500D01*
X159728035Y-133499500D01*
X159589949Y-133540046D01*
X159589942Y-133540049D01*
X159468873Y-133617855D01*
X159374622Y-133726628D01*
X159314834Y-133857543D01*
X159294353Y-133999997D01*
X159294353Y-134000002D01*
X156047585Y-134000002D01*
X156085646Y-133925304D01*
X156105492Y-133800000D01*
X156085646Y-133674696D01*
X156028050Y-133561658D01*
X155938342Y-133471950D01*
X155910067Y-133457543D01*
X155825307Y-133414355D01*
X155825304Y-133414354D01*
X155700000Y-133394508D01*
X155574696Y-133414354D01*
X155574692Y-133414355D01*
X155461659Y-133471949D01*
X155371949Y-133561659D01*
X155314355Y-133674692D01*
X155314354Y-133674696D01*
X155298726Y-133773371D01*
X155294508Y-133800000D01*
X150500500Y-133800000D01*
X150500500Y-131600002D01*
X157194353Y-131600002D01*
X157214834Y-131742456D01*
X157260504Y-131842457D01*
X157274623Y-131873373D01*
X157361271Y-131973371D01*
X157368873Y-131982144D01*
X157489942Y-132059950D01*
X157489947Y-132059953D01*
X157596403Y-132091211D01*
X157628035Y-132100499D01*
X157628036Y-132100499D01*
X157628039Y-132100500D01*
X157628041Y-132100500D01*
X157771959Y-132100500D01*
X157771961Y-132100500D01*
X157910053Y-132059953D01*
X158031128Y-131982143D01*
X158125377Y-131873373D01*
X158185165Y-131742457D01*
X158205647Y-131600000D01*
X158205575Y-131599500D01*
X158191270Y-131500002D01*
X163394353Y-131500002D01*
X163414834Y-131642456D01*
X163468493Y-131759950D01*
X163474623Y-131773373D01*
X163561271Y-131873371D01*
X163568873Y-131882144D01*
X163597436Y-131900500D01*
X163689947Y-131959953D01*
X163796403Y-131991211D01*
X163828035Y-132000499D01*
X163828036Y-132000499D01*
X163828039Y-132000500D01*
X163828041Y-132000500D01*
X163971959Y-132000500D01*
X163971961Y-132000500D01*
X164110053Y-131959953D01*
X164231128Y-131882143D01*
X164325377Y-131773373D01*
X164342801Y-131735219D01*
X164384172Y-131690142D01*
X164444138Y-131677991D01*
X164499795Y-131703408D01*
X164507664Y-131711505D01*
X164561271Y-131773371D01*
X164568873Y-131782144D01*
X164689942Y-131859950D01*
X164689947Y-131859953D01*
X164796403Y-131891211D01*
X164828035Y-131900499D01*
X164828036Y-131900499D01*
X164828039Y-131900500D01*
X164828041Y-131900500D01*
X164971959Y-131900500D01*
X164971961Y-131900500D01*
X164973657Y-131900002D01*
X167894353Y-131900002D01*
X167914834Y-132042456D01*
X167961002Y-132143547D01*
X167974623Y-132173373D01*
X168068872Y-132282143D01*
X168068873Y-132282144D01*
X168189942Y-132359950D01*
X168189947Y-132359953D01*
X168296403Y-132391211D01*
X168328035Y-132400499D01*
X168328036Y-132400499D01*
X168328039Y-132400500D01*
X168328041Y-132400500D01*
X168471959Y-132400500D01*
X168471961Y-132400500D01*
X168610053Y-132359953D01*
X168731128Y-132282143D01*
X168825377Y-132173373D01*
X168885165Y-132042457D01*
X168905575Y-131900500D01*
X168905647Y-131900002D01*
X168905647Y-131899997D01*
X168885165Y-131757543D01*
X168864144Y-131711515D01*
X168825377Y-131626627D01*
X168731128Y-131517857D01*
X168731127Y-131517856D01*
X168731126Y-131517855D01*
X168610057Y-131440049D01*
X168610054Y-131440047D01*
X168610053Y-131440047D01*
X168610050Y-131440046D01*
X168471964Y-131399500D01*
X168471961Y-131399500D01*
X168328039Y-131399500D01*
X168328035Y-131399500D01*
X168189949Y-131440046D01*
X168189942Y-131440049D01*
X168068873Y-131517855D01*
X167974622Y-131626628D01*
X167914834Y-131757543D01*
X167894353Y-131899997D01*
X167894353Y-131900002D01*
X164973657Y-131900002D01*
X165110053Y-131859953D01*
X165231128Y-131782143D01*
X165325377Y-131673373D01*
X165385165Y-131542457D01*
X165398388Y-131450486D01*
X165405647Y-131400002D01*
X165405647Y-131399997D01*
X165391270Y-131300002D01*
X165694353Y-131300002D01*
X165714834Y-131442456D01*
X165774622Y-131573371D01*
X165774623Y-131573373D01*
X165865274Y-131677991D01*
X165868873Y-131682144D01*
X165981879Y-131754768D01*
X165989947Y-131759953D01*
X166096403Y-131791211D01*
X166128035Y-131800499D01*
X166128036Y-131800499D01*
X166128039Y-131800500D01*
X166128041Y-131800500D01*
X166271959Y-131800500D01*
X166271961Y-131800500D01*
X166410053Y-131759953D01*
X166496477Y-131704412D01*
X166555652Y-131688857D01*
X166603523Y-131704412D01*
X166662722Y-131742457D01*
X166689947Y-131759953D01*
X166796403Y-131791211D01*
X166828035Y-131800499D01*
X166828036Y-131800499D01*
X166828039Y-131800500D01*
X166828041Y-131800500D01*
X166971959Y-131800500D01*
X166971961Y-131800500D01*
X167110053Y-131759953D01*
X167231128Y-131682143D01*
X167325377Y-131573373D01*
X167385165Y-131442457D01*
X167395401Y-131371263D01*
X167405647Y-131300002D01*
X167405647Y-131299997D01*
X167385165Y-131157543D01*
X167358657Y-131099500D01*
X167325377Y-131026627D01*
X167231128Y-130917857D01*
X167231127Y-130917856D01*
X167231126Y-130917855D01*
X167110057Y-130840049D01*
X167110054Y-130840047D01*
X167110053Y-130840047D01*
X167110050Y-130840046D01*
X166971964Y-130799500D01*
X166971961Y-130799500D01*
X166828039Y-130799500D01*
X166828035Y-130799500D01*
X166689949Y-130840046D01*
X166689947Y-130840047D01*
X166603523Y-130895588D01*
X166544347Y-130911141D01*
X166496477Y-130895588D01*
X166441027Y-130859953D01*
X166410053Y-130840047D01*
X166410050Y-130840046D01*
X166271964Y-130799500D01*
X166271961Y-130799500D01*
X166128039Y-130799500D01*
X166128035Y-130799500D01*
X165989949Y-130840046D01*
X165989942Y-130840049D01*
X165868873Y-130917855D01*
X165774622Y-131026628D01*
X165714834Y-131157543D01*
X165694353Y-131299997D01*
X165694353Y-131300002D01*
X165391270Y-131300002D01*
X165385165Y-131257543D01*
X165363388Y-131209858D01*
X165325377Y-131126627D01*
X165231128Y-131017857D01*
X165231127Y-131017856D01*
X165231126Y-131017855D01*
X165110057Y-130940049D01*
X165110054Y-130940047D01*
X165110053Y-130940047D01*
X165110050Y-130940046D01*
X164971964Y-130899500D01*
X164971961Y-130899500D01*
X164828039Y-130899500D01*
X164828035Y-130899500D01*
X164689949Y-130940046D01*
X164689942Y-130940049D01*
X164568873Y-131017855D01*
X164474622Y-131126627D01*
X164457198Y-131164781D01*
X164415825Y-131209858D01*
X164355858Y-131222007D01*
X164300202Y-131196589D01*
X164292325Y-131188483D01*
X164272857Y-131166016D01*
X164231128Y-131117857D01*
X164231127Y-131117856D01*
X164110057Y-131040049D01*
X164110054Y-131040047D01*
X164110053Y-131040047D01*
X164110050Y-131040046D01*
X163971964Y-130999500D01*
X163971961Y-130999500D01*
X163828039Y-130999500D01*
X163828035Y-130999500D01*
X163689949Y-131040046D01*
X163689942Y-131040049D01*
X163568873Y-131117855D01*
X163474622Y-131226628D01*
X163414834Y-131357543D01*
X163394353Y-131499997D01*
X163394353Y-131500002D01*
X158191270Y-131500002D01*
X158185165Y-131457543D01*
X158171046Y-131426627D01*
X158125377Y-131326627D01*
X158031128Y-131217857D01*
X158031127Y-131217856D01*
X158031126Y-131217855D01*
X157910057Y-131140049D01*
X157910054Y-131140047D01*
X157910053Y-131140047D01*
X157910050Y-131140046D01*
X157771964Y-131099500D01*
X157771961Y-131099500D01*
X157628039Y-131099500D01*
X157628035Y-131099500D01*
X157489949Y-131140046D01*
X157489942Y-131140049D01*
X157368873Y-131217855D01*
X157274622Y-131326628D01*
X157214834Y-131457543D01*
X157194353Y-131599997D01*
X157194353Y-131600002D01*
X150500500Y-131600002D01*
X150500500Y-130273040D01*
X150519407Y-130214849D01*
X150568907Y-130178885D01*
X150630093Y-130178885D01*
X150679593Y-130214849D01*
X150681815Y-130218038D01*
X150748249Y-130317462D01*
X150748252Y-130317466D01*
X150887533Y-130456747D01*
X150887537Y-130456750D01*
X151051314Y-130566185D01*
X151051326Y-130566191D01*
X151233310Y-130641570D01*
X151426506Y-130679999D01*
X151426510Y-130680000D01*
X151674999Y-130680000D01*
X151675000Y-130679999D01*
X151675000Y-129980000D01*
X152175000Y-129980000D01*
X152175000Y-130679999D01*
X152175001Y-130680000D01*
X152423490Y-130680000D01*
X152423493Y-130679999D01*
X152616688Y-130641570D01*
X152616690Y-130641570D01*
X152798673Y-130566191D01*
X152798685Y-130566185D01*
X152962462Y-130456750D01*
X152962466Y-130456747D01*
X153101747Y-130317466D01*
X153101750Y-130317462D01*
X153211185Y-130153685D01*
X153211191Y-130153673D01*
X153286568Y-129971695D01*
X153286571Y-129971684D01*
X153294863Y-129930000D01*
X154585137Y-129930000D01*
X154593428Y-129971684D01*
X154593431Y-129971695D01*
X154668808Y-130153673D01*
X154668814Y-130153685D01*
X154778249Y-130317462D01*
X154778252Y-130317466D01*
X154917533Y-130456747D01*
X154917537Y-130456750D01*
X155081314Y-130566185D01*
X155081326Y-130566191D01*
X155263309Y-130641570D01*
X155265128Y-130642122D01*
X155265840Y-130642618D01*
X155267804Y-130643432D01*
X155267625Y-130643862D01*
X155315323Y-130677109D01*
X155335367Y-130734918D01*
X155317604Y-130793468D01*
X155306390Y-130806861D01*
X155264514Y-130848737D01*
X155208498Y-130945758D01*
X155208497Y-130945763D01*
X155179500Y-131053982D01*
X155179500Y-131166018D01*
X155200819Y-131245583D01*
X155208498Y-131274241D01*
X155264513Y-131371260D01*
X155264515Y-131371263D01*
X155343737Y-131450485D01*
X155343739Y-131450486D01*
X155440759Y-131506501D01*
X155440757Y-131506501D01*
X155440761Y-131506502D01*
X155440763Y-131506503D01*
X155548982Y-131535500D01*
X155548984Y-131535500D01*
X155661016Y-131535500D01*
X155661018Y-131535500D01*
X155769237Y-131506503D01*
X155769239Y-131506501D01*
X155769241Y-131506501D01*
X155798064Y-131489859D01*
X155866263Y-131450485D01*
X155945485Y-131371263D01*
X156001503Y-131274237D01*
X156030500Y-131166018D01*
X156030500Y-131053982D01*
X156001503Y-130945763D01*
X156001501Y-130945760D01*
X156001501Y-130945758D01*
X155945486Y-130848739D01*
X155945485Y-130848737D01*
X155883994Y-130787246D01*
X155856219Y-130732732D01*
X155855000Y-130717245D01*
X155855000Y-129980000D01*
X156355000Y-129980000D01*
X156355000Y-130679999D01*
X156355001Y-130680000D01*
X156753490Y-130680000D01*
X156753493Y-130679999D01*
X156946688Y-130641570D01*
X156946690Y-130641570D01*
X157128673Y-130566191D01*
X157128685Y-130566185D01*
X157292462Y-130456750D01*
X157292466Y-130456747D01*
X157431747Y-130317466D01*
X157431750Y-130317462D01*
X157510236Y-130200002D01*
X168394353Y-130200002D01*
X168414834Y-130342456D01*
X168439255Y-130395929D01*
X168474623Y-130473373D01*
X168555050Y-130566191D01*
X168568873Y-130582144D01*
X168689942Y-130659950D01*
X168689947Y-130659953D01*
X168796403Y-130691211D01*
X168828035Y-130700499D01*
X168828036Y-130700499D01*
X168828039Y-130700500D01*
X168828041Y-130700500D01*
X168971959Y-130700500D01*
X168971961Y-130700500D01*
X169110053Y-130659953D01*
X169231128Y-130582143D01*
X169325377Y-130473373D01*
X169385165Y-130342457D01*
X169405647Y-130200000D01*
X169404209Y-130190000D01*
X169391270Y-130100002D01*
X169594353Y-130100002D01*
X169614834Y-130242456D01*
X169660504Y-130342457D01*
X169674623Y-130373373D01*
X169761271Y-130473371D01*
X169768873Y-130482144D01*
X169889942Y-130559950D01*
X169889947Y-130559953D01*
X169996403Y-130591211D01*
X170028035Y-130600499D01*
X170028036Y-130600499D01*
X170028039Y-130600500D01*
X170028041Y-130600500D01*
X170069923Y-130600500D01*
X170128114Y-130619407D01*
X170164078Y-130668907D01*
X170164078Y-130730093D01*
X170128114Y-130779593D01*
X170123447Y-130782784D01*
X170068872Y-130817857D01*
X169974622Y-130926628D01*
X169914834Y-131057543D01*
X169894353Y-131199997D01*
X169894353Y-131200002D01*
X169914834Y-131342456D01*
X169974622Y-131473371D01*
X169974623Y-131473373D01*
X170047556Y-131557543D01*
X170068873Y-131582144D01*
X170189942Y-131659950D01*
X170189947Y-131659953D01*
X170296403Y-131691211D01*
X170328035Y-131700499D01*
X170328036Y-131700499D01*
X170328039Y-131700500D01*
X170328041Y-131700500D01*
X170471959Y-131700500D01*
X170471961Y-131700500D01*
X170473657Y-131700002D01*
X171694353Y-131700002D01*
X171714834Y-131842456D01*
X171768493Y-131959950D01*
X171774623Y-131973373D01*
X171868872Y-132082143D01*
X171868873Y-132082144D01*
X171964423Y-132143550D01*
X171989947Y-132159953D01*
X172096403Y-132191211D01*
X172128035Y-132200499D01*
X172128036Y-132200499D01*
X172128039Y-132200500D01*
X172128041Y-132200500D01*
X172271959Y-132200500D01*
X172271961Y-132200500D01*
X172410053Y-132159953D01*
X172503339Y-132100002D01*
X178094353Y-132100002D01*
X178114834Y-132242456D01*
X178153009Y-132326045D01*
X178174623Y-132373373D01*
X178268872Y-132482143D01*
X178268873Y-132482144D01*
X178389942Y-132559950D01*
X178389947Y-132559953D01*
X178496403Y-132591211D01*
X178528035Y-132600499D01*
X178528036Y-132600499D01*
X178528039Y-132600500D01*
X178528041Y-132600500D01*
X178671959Y-132600500D01*
X178671961Y-132600500D01*
X178810053Y-132559953D01*
X178931128Y-132482143D01*
X179025377Y-132373373D01*
X179085165Y-132242457D01*
X179105575Y-132100500D01*
X179105647Y-132100002D01*
X179105647Y-132099997D01*
X179085165Y-131957543D01*
X179059114Y-131900500D01*
X179025377Y-131826627D01*
X178931128Y-131717857D01*
X178931127Y-131717856D01*
X178931126Y-131717855D01*
X178810057Y-131640049D01*
X178810054Y-131640047D01*
X178810053Y-131640047D01*
X178810050Y-131640046D01*
X178671964Y-131599500D01*
X178671961Y-131599500D01*
X178528039Y-131599500D01*
X178528035Y-131599500D01*
X178389949Y-131640046D01*
X178389942Y-131640049D01*
X178268873Y-131717855D01*
X178174622Y-131826628D01*
X178114834Y-131957543D01*
X178094353Y-132099997D01*
X178094353Y-132100002D01*
X172503339Y-132100002D01*
X172531128Y-132082143D01*
X172625377Y-131973373D01*
X172685165Y-131842457D01*
X172703080Y-131717855D01*
X172705647Y-131700002D01*
X172705647Y-131699997D01*
X172685165Y-131557543D01*
X172667040Y-131517855D01*
X172625377Y-131426627D01*
X172531128Y-131317857D01*
X172531127Y-131317856D01*
X172531126Y-131317855D01*
X172410057Y-131240049D01*
X172410054Y-131240047D01*
X172410053Y-131240047D01*
X172410050Y-131240046D01*
X172271964Y-131199500D01*
X172271961Y-131199500D01*
X172128039Y-131199500D01*
X172128035Y-131199500D01*
X171989949Y-131240046D01*
X171989942Y-131240049D01*
X171868873Y-131317855D01*
X171774622Y-131426628D01*
X171714834Y-131557543D01*
X171694353Y-131699997D01*
X171694353Y-131700002D01*
X170473657Y-131700002D01*
X170610053Y-131659953D01*
X170731128Y-131582143D01*
X170825377Y-131473373D01*
X170885165Y-131342457D01*
X170894973Y-131274241D01*
X170905647Y-131200002D01*
X170905647Y-131199997D01*
X170885165Y-131057543D01*
X170834114Y-130945758D01*
X170825377Y-130926627D01*
X170731128Y-130817857D01*
X170731127Y-130817856D01*
X170731126Y-130817855D01*
X170610057Y-130740049D01*
X170610054Y-130740047D01*
X170610053Y-130740047D01*
X170610050Y-130740046D01*
X170471964Y-130699500D01*
X170471961Y-130699500D01*
X170430077Y-130699500D01*
X170371886Y-130680593D01*
X170335922Y-130631093D01*
X170335922Y-130569907D01*
X170371886Y-130520407D01*
X170376553Y-130517216D01*
X170431128Y-130482143D01*
X170525377Y-130373373D01*
X170585165Y-130242457D01*
X170605647Y-130100000D01*
X170593836Y-130017855D01*
X170591269Y-130000002D01*
X171594353Y-130000002D01*
X171614834Y-130142456D01*
X171674471Y-130273040D01*
X171674623Y-130273373D01*
X171761271Y-130373371D01*
X171768873Y-130382144D01*
X171790323Y-130395929D01*
X171889947Y-130459953D01*
X171996403Y-130491211D01*
X172028035Y-130500499D01*
X172028036Y-130500499D01*
X172028039Y-130500500D01*
X172028041Y-130500500D01*
X172171959Y-130500500D01*
X172171961Y-130500500D01*
X172310053Y-130459953D01*
X172431128Y-130382143D01*
X172525377Y-130273373D01*
X172585165Y-130142457D01*
X172605647Y-130000002D01*
X174394353Y-130000002D01*
X174414834Y-130142456D01*
X174474471Y-130273040D01*
X174474623Y-130273373D01*
X174561271Y-130373371D01*
X174568873Y-130382144D01*
X174590323Y-130395929D01*
X174689947Y-130459953D01*
X174796403Y-130491211D01*
X174828035Y-130500499D01*
X174828036Y-130500499D01*
X174828039Y-130500500D01*
X174828041Y-130500500D01*
X174971959Y-130500500D01*
X174971961Y-130500500D01*
X175110053Y-130459953D01*
X175203339Y-130400002D01*
X180494353Y-130400002D01*
X180514834Y-130542456D01*
X180568493Y-130659950D01*
X180574623Y-130673373D01*
X180668872Y-130782143D01*
X180668873Y-130782144D01*
X180789942Y-130859950D01*
X180789947Y-130859953D01*
X180896403Y-130891211D01*
X180928035Y-130900499D01*
X180928036Y-130900499D01*
X180928039Y-130900500D01*
X180928041Y-130900500D01*
X181071959Y-130900500D01*
X181071961Y-130900500D01*
X181210053Y-130859953D01*
X181331128Y-130782143D01*
X181425377Y-130673373D01*
X181485165Y-130542457D01*
X181505647Y-130400000D01*
X181505062Y-130395934D01*
X181485165Y-130257543D01*
X181465667Y-130214849D01*
X181425377Y-130126627D01*
X181331128Y-130017857D01*
X181331127Y-130017856D01*
X181331126Y-130017855D01*
X181210057Y-129940049D01*
X181210054Y-129940047D01*
X181210053Y-129940047D01*
X181210050Y-129940046D01*
X181071964Y-129899500D01*
X181071961Y-129899500D01*
X180928039Y-129899500D01*
X180928035Y-129899500D01*
X180789949Y-129940046D01*
X180789942Y-129940049D01*
X180668873Y-130017855D01*
X180574622Y-130126628D01*
X180514834Y-130257543D01*
X180494353Y-130399997D01*
X180494353Y-130400002D01*
X175203339Y-130400002D01*
X175231128Y-130382143D01*
X175325377Y-130273373D01*
X175385165Y-130142457D01*
X175405647Y-130000000D01*
X175402771Y-129980000D01*
X175385165Y-129857543D01*
X175352513Y-129786046D01*
X175325377Y-129726627D01*
X175231128Y-129617857D01*
X175231127Y-129617856D01*
X175231126Y-129617855D01*
X175110057Y-129540049D01*
X175110054Y-129540047D01*
X175110053Y-129540047D01*
X175110050Y-129540046D01*
X174971964Y-129499500D01*
X174971961Y-129499500D01*
X174828039Y-129499500D01*
X174828035Y-129499500D01*
X174689949Y-129540046D01*
X174689942Y-129540049D01*
X174568873Y-129617855D01*
X174474622Y-129726628D01*
X174414834Y-129857543D01*
X174394353Y-129999997D01*
X174394353Y-130000002D01*
X172605647Y-130000002D01*
X172605647Y-130000000D01*
X172602771Y-129980000D01*
X172585165Y-129857543D01*
X172552513Y-129786046D01*
X172525377Y-129726627D01*
X172431128Y-129617857D01*
X172431127Y-129617856D01*
X172431126Y-129617855D01*
X172310057Y-129540049D01*
X172310054Y-129540047D01*
X172310053Y-129540047D01*
X172310050Y-129540046D01*
X172171964Y-129499500D01*
X172171961Y-129499500D01*
X172028039Y-129499500D01*
X172028035Y-129499500D01*
X171889949Y-129540046D01*
X171889942Y-129540049D01*
X171768873Y-129617855D01*
X171674622Y-129726628D01*
X171614834Y-129857543D01*
X171594353Y-129999997D01*
X171594353Y-130000002D01*
X170591269Y-130000002D01*
X170585165Y-129957543D01*
X170525377Y-129826628D01*
X170525377Y-129826627D01*
X170431128Y-129717857D01*
X170431127Y-129717856D01*
X170431126Y-129717855D01*
X170310057Y-129640049D01*
X170310054Y-129640047D01*
X170310053Y-129640047D01*
X170310050Y-129640046D01*
X170171964Y-129599500D01*
X170171961Y-129599500D01*
X170028039Y-129599500D01*
X170028035Y-129599500D01*
X169889949Y-129640046D01*
X169889942Y-129640049D01*
X169768873Y-129717855D01*
X169674622Y-129826628D01*
X169614834Y-129957543D01*
X169594353Y-130099997D01*
X169594353Y-130100002D01*
X169391270Y-130100002D01*
X169385165Y-130057543D01*
X169367040Y-130017855D01*
X169325377Y-129926627D01*
X169231128Y-129817857D01*
X169231127Y-129817856D01*
X169231126Y-129817855D01*
X169110057Y-129740049D01*
X169110054Y-129740047D01*
X169110053Y-129740047D01*
X169110050Y-129740046D01*
X168971964Y-129699500D01*
X168971961Y-129699500D01*
X168828039Y-129699500D01*
X168828035Y-129699500D01*
X168689949Y-129740046D01*
X168689942Y-129740049D01*
X168568873Y-129817855D01*
X168474622Y-129926628D01*
X168414834Y-130057543D01*
X168394353Y-130199997D01*
X168394353Y-130200002D01*
X157510236Y-130200002D01*
X157541185Y-130153685D01*
X157541191Y-130153673D01*
X157616568Y-129971695D01*
X157616571Y-129971684D01*
X157624863Y-129930000D01*
X156821988Y-129930000D01*
X156839205Y-129920060D01*
X156895060Y-129864205D01*
X156934556Y-129795796D01*
X156955000Y-129719496D01*
X156955000Y-129640504D01*
X156934556Y-129564204D01*
X156895060Y-129495795D01*
X156839205Y-129439940D01*
X156821988Y-129430000D01*
X157624862Y-129430000D01*
X157616571Y-129388315D01*
X157616568Y-129388304D01*
X157541191Y-129206326D01*
X157541185Y-129206314D01*
X157536967Y-129200002D01*
X165694353Y-129200002D01*
X165714834Y-129342456D01*
X165754815Y-129430000D01*
X165774623Y-129473373D01*
X165832395Y-129540046D01*
X165868873Y-129582144D01*
X165989942Y-129659950D01*
X165989947Y-129659953D01*
X166096403Y-129691211D01*
X166128035Y-129700499D01*
X166128036Y-129700499D01*
X166128039Y-129700500D01*
X166128041Y-129700500D01*
X166271959Y-129700500D01*
X166271961Y-129700500D01*
X166410053Y-129659953D01*
X166531128Y-129582143D01*
X166625377Y-129473373D01*
X166685165Y-129342457D01*
X166703524Y-129214768D01*
X166705647Y-129200002D01*
X166705647Y-129199997D01*
X166685165Y-129057543D01*
X166625377Y-128926628D01*
X166625377Y-128926627D01*
X166531128Y-128817857D01*
X166531127Y-128817856D01*
X166531126Y-128817855D01*
X166410057Y-128740049D01*
X166410054Y-128740047D01*
X166410053Y-128740047D01*
X166410050Y-128740046D01*
X166271964Y-128699500D01*
X166271961Y-128699500D01*
X166128039Y-128699500D01*
X166128035Y-128699500D01*
X165989949Y-128740046D01*
X165989942Y-128740049D01*
X165868873Y-128817855D01*
X165774622Y-128926628D01*
X165714834Y-129057543D01*
X165694353Y-129199997D01*
X165694353Y-129200002D01*
X157536967Y-129200002D01*
X157431750Y-129042537D01*
X157431747Y-129042533D01*
X157292466Y-128903252D01*
X157292462Y-128903249D01*
X157128685Y-128793814D01*
X157128673Y-128793808D01*
X156946689Y-128718429D01*
X156753493Y-128680000D01*
X156355001Y-128680000D01*
X156355000Y-128680001D01*
X156355000Y-129380000D01*
X155855000Y-129380000D01*
X155855000Y-128680001D01*
X155854999Y-128680000D01*
X155456506Y-128680000D01*
X155263311Y-128718429D01*
X155263309Y-128718429D01*
X155081326Y-128793808D01*
X155081314Y-128793814D01*
X154917537Y-128903249D01*
X154917533Y-128903252D01*
X154778252Y-129042533D01*
X154778249Y-129042537D01*
X154668814Y-129206314D01*
X154668808Y-129206326D01*
X154593431Y-129388304D01*
X154593428Y-129388315D01*
X154585137Y-129430000D01*
X155388012Y-129430000D01*
X155370795Y-129439940D01*
X155314940Y-129495795D01*
X155275444Y-129564204D01*
X155255000Y-129640504D01*
X155255000Y-129719496D01*
X155275444Y-129795796D01*
X155314940Y-129864205D01*
X155370795Y-129920060D01*
X155388012Y-129930000D01*
X154585137Y-129930000D01*
X153294863Y-129930000D01*
X152491988Y-129930000D01*
X152509205Y-129920060D01*
X152565060Y-129864205D01*
X152604556Y-129795796D01*
X152625000Y-129719496D01*
X152625000Y-129640504D01*
X152604556Y-129564204D01*
X152565060Y-129495795D01*
X152509205Y-129439940D01*
X152491988Y-129430000D01*
X153294862Y-129430000D01*
X153286571Y-129388315D01*
X153286568Y-129388304D01*
X153211191Y-129206326D01*
X153211185Y-129206314D01*
X153101750Y-129042537D01*
X153101747Y-129042533D01*
X152962466Y-128903252D01*
X152962462Y-128903249D01*
X152798685Y-128793814D01*
X152798673Y-128793808D01*
X152616689Y-128718429D01*
X152423493Y-128680000D01*
X152175001Y-128680000D01*
X152175000Y-128680001D01*
X152175000Y-129380000D01*
X151675000Y-129380000D01*
X151675000Y-128680001D01*
X151674999Y-128680000D01*
X151426506Y-128680000D01*
X151233311Y-128718429D01*
X151233309Y-128718429D01*
X151051326Y-128793808D01*
X151051314Y-128793814D01*
X150887537Y-128903249D01*
X150887533Y-128903252D01*
X150748248Y-129042537D01*
X150681815Y-129141961D01*
X150633765Y-129179840D01*
X150572626Y-129182242D01*
X150521753Y-129148248D01*
X150500576Y-129090845D01*
X150500500Y-129086959D01*
X150500500Y-127900000D01*
X154094353Y-127900000D01*
X154114834Y-128042456D01*
X154148387Y-128115925D01*
X154174623Y-128173373D01*
X154268872Y-128282143D01*
X154268873Y-128282144D01*
X154389942Y-128359950D01*
X154389947Y-128359953D01*
X154496403Y-128391211D01*
X154528035Y-128400499D01*
X154528036Y-128400499D01*
X154528039Y-128400500D01*
X154528041Y-128400500D01*
X154671959Y-128400500D01*
X154671961Y-128400500D01*
X154810053Y-128359953D01*
X154931128Y-128282143D01*
X155025377Y-128173373D01*
X155085165Y-128042457D01*
X155105647Y-127900000D01*
X191369364Y-127900000D01*
X191426569Y-128113489D01*
X191526399Y-128327577D01*
X191661886Y-128521073D01*
X191828926Y-128688113D01*
X192022422Y-128823600D01*
X192236509Y-128923430D01*
X192443213Y-128978816D01*
X192494527Y-129012140D01*
X192516454Y-129069261D01*
X192500619Y-129128362D01*
X192453069Y-129166867D01*
X192446329Y-129169180D01*
X192350637Y-129198208D01*
X192296046Y-129214768D01*
X192296044Y-129214768D01*
X192296044Y-129214769D01*
X192113547Y-129312316D01*
X191953595Y-129443585D01*
X191953585Y-129443595D01*
X191822316Y-129603547D01*
X191724768Y-129786045D01*
X191664699Y-129984065D01*
X191664698Y-129984070D01*
X191644417Y-130189996D01*
X191644417Y-130190003D01*
X191664698Y-130395929D01*
X191664699Y-130395934D01*
X191724768Y-130593954D01*
X191822316Y-130776452D01*
X191932852Y-130911141D01*
X191953590Y-130936410D01*
X191953595Y-130936414D01*
X192113547Y-131067683D01*
X192113548Y-131067683D01*
X192113550Y-131067685D01*
X192296046Y-131165232D01*
X192410662Y-131200000D01*
X192494065Y-131225300D01*
X192494070Y-131225301D01*
X192699997Y-131245583D01*
X192700000Y-131245583D01*
X192700003Y-131245583D01*
X192905929Y-131225301D01*
X192905934Y-131225300D01*
X192916790Y-131222007D01*
X193103954Y-131165232D01*
X193286450Y-131067685D01*
X193446410Y-130936410D01*
X193577685Y-130776450D01*
X193675232Y-130593954D01*
X193735300Y-130395934D01*
X193735301Y-130395929D01*
X193755583Y-130190003D01*
X193755583Y-130189996D01*
X193735301Y-129984070D01*
X193735300Y-129984065D01*
X193687542Y-129826628D01*
X193675232Y-129786046D01*
X193577685Y-129603550D01*
X193574361Y-129599500D01*
X193446414Y-129443595D01*
X193446410Y-129443590D01*
X193446404Y-129443585D01*
X193286452Y-129312316D01*
X193103954Y-129214768D01*
X192953671Y-129169180D01*
X192903474Y-129134195D01*
X192883428Y-129076387D01*
X192901189Y-129017836D01*
X192949974Y-128980907D01*
X192956786Y-128978816D01*
X193163490Y-128923430D01*
X193377577Y-128823600D01*
X193571073Y-128688113D01*
X193738113Y-128521073D01*
X193873600Y-128327577D01*
X193973430Y-128113489D01*
X194030636Y-127900000D01*
X193133012Y-127900000D01*
X193165925Y-127842993D01*
X193200000Y-127715826D01*
X193200000Y-127584174D01*
X193165925Y-127457007D01*
X193133012Y-127400000D01*
X194030636Y-127400000D01*
X193973429Y-127186505D01*
X193873605Y-126972432D01*
X193873601Y-126972424D01*
X193738113Y-126778926D01*
X193571073Y-126611886D01*
X193377577Y-126476399D01*
X193163489Y-126376569D01*
X192950000Y-126319364D01*
X192950000Y-127216988D01*
X192892993Y-127184075D01*
X192765826Y-127150000D01*
X192634174Y-127150000D01*
X192507007Y-127184075D01*
X192450000Y-127216988D01*
X192450000Y-126319364D01*
X192236505Y-126376570D01*
X192022432Y-126476394D01*
X192022424Y-126476398D01*
X191828926Y-126611886D01*
X191661886Y-126778926D01*
X191526398Y-126972424D01*
X191526394Y-126972432D01*
X191426570Y-127186505D01*
X191369364Y-127400000D01*
X192266988Y-127400000D01*
X192234075Y-127457007D01*
X192200000Y-127584174D01*
X192200000Y-127715826D01*
X192234075Y-127842993D01*
X192266988Y-127900000D01*
X191369364Y-127900000D01*
X155105647Y-127900000D01*
X155085165Y-127757543D01*
X155025377Y-127626627D01*
X154931128Y-127517857D01*
X154931127Y-127517856D01*
X154931126Y-127517855D01*
X154810057Y-127440049D01*
X154810054Y-127440047D01*
X154810053Y-127440047D01*
X154810050Y-127440046D01*
X154671964Y-127399500D01*
X154671961Y-127399500D01*
X154528039Y-127399500D01*
X154528035Y-127399500D01*
X154389949Y-127440046D01*
X154389942Y-127440049D01*
X154268873Y-127517855D01*
X154174622Y-127626628D01*
X154114834Y-127757543D01*
X154094353Y-127899997D01*
X154094353Y-127900000D01*
X150500500Y-127900000D01*
X150500500Y-126997824D01*
X159009999Y-126997824D01*
X159016401Y-127057370D01*
X159016403Y-127057381D01*
X159066646Y-127192088D01*
X159066647Y-127192090D01*
X159152807Y-127307184D01*
X159152815Y-127307192D01*
X159267909Y-127393352D01*
X159267911Y-127393353D01*
X159402618Y-127443596D01*
X159402629Y-127443598D01*
X159462176Y-127450000D01*
X160109999Y-127450000D01*
X160110000Y-127449999D01*
X160110000Y-126533012D01*
X160167007Y-126565925D01*
X160294174Y-126600000D01*
X160425826Y-126600000D01*
X160552993Y-126565925D01*
X160610000Y-126533012D01*
X160610000Y-127449999D01*
X160610001Y-127450000D01*
X161257824Y-127450000D01*
X161317370Y-127443598D01*
X161317381Y-127443596D01*
X161452088Y-127393353D01*
X161452090Y-127393352D01*
X161567184Y-127307192D01*
X161567192Y-127307184D01*
X161647429Y-127200002D01*
X171594353Y-127200002D01*
X171614834Y-127342456D01*
X171640886Y-127399500D01*
X171674623Y-127473373D01*
X171768872Y-127582143D01*
X171768873Y-127582144D01*
X171838092Y-127626628D01*
X171889947Y-127659953D01*
X171996403Y-127691211D01*
X172028035Y-127700499D01*
X172028036Y-127700499D01*
X172028039Y-127700500D01*
X172028041Y-127700500D01*
X172171959Y-127700500D01*
X172171961Y-127700500D01*
X172310053Y-127659953D01*
X172431128Y-127582143D01*
X172525377Y-127473373D01*
X172585165Y-127342457D01*
X172591992Y-127294971D01*
X172605647Y-127200002D01*
X172605647Y-127199997D01*
X172585165Y-127057543D01*
X172559114Y-127000500D01*
X172525377Y-126926627D01*
X172431128Y-126817857D01*
X172431127Y-126817856D01*
X172431126Y-126817855D01*
X172310057Y-126740049D01*
X172310054Y-126740047D01*
X172310053Y-126740047D01*
X172310050Y-126740046D01*
X172171964Y-126699500D01*
X172171961Y-126699500D01*
X172028039Y-126699500D01*
X172028035Y-126699500D01*
X171889949Y-126740046D01*
X171889942Y-126740049D01*
X171768873Y-126817855D01*
X171674622Y-126926628D01*
X171614834Y-127057543D01*
X171594353Y-127199997D01*
X171594353Y-127200002D01*
X161647429Y-127200002D01*
X161653352Y-127192090D01*
X161653353Y-127192088D01*
X161703596Y-127057381D01*
X161703598Y-127057370D01*
X161710000Y-126997824D01*
X161710000Y-126463361D01*
X161728907Y-126405170D01*
X161778407Y-126369206D01*
X161839593Y-126369206D01*
X161889093Y-126405170D01*
X161903737Y-126434623D01*
X161924768Y-126503954D01*
X162022316Y-126686452D01*
X162130157Y-126817857D01*
X162153590Y-126846410D01*
X162153595Y-126846414D01*
X162313547Y-126977683D01*
X162313548Y-126977683D01*
X162313550Y-126977685D01*
X162496046Y-127075232D01*
X162633997Y-127117078D01*
X162694065Y-127135300D01*
X162694070Y-127135301D01*
X162899997Y-127155583D01*
X162900000Y-127155583D01*
X162900003Y-127155583D01*
X163105929Y-127135301D01*
X163105934Y-127135300D01*
X163303954Y-127075232D01*
X163486450Y-126977685D01*
X163646410Y-126846410D01*
X163777685Y-126686450D01*
X163875232Y-126503954D01*
X163935300Y-126305934D01*
X163935301Y-126305929D01*
X163955583Y-126100003D01*
X164384417Y-126100003D01*
X164404698Y-126305929D01*
X164404699Y-126305934D01*
X164464768Y-126503954D01*
X164562316Y-126686452D01*
X164670157Y-126817857D01*
X164693590Y-126846410D01*
X164693595Y-126846414D01*
X164853547Y-126977683D01*
X164853548Y-126977683D01*
X164853550Y-126977685D01*
X165036046Y-127075232D01*
X165173997Y-127117078D01*
X165234065Y-127135300D01*
X165234070Y-127135301D01*
X165439997Y-127155583D01*
X165440000Y-127155583D01*
X165440003Y-127155583D01*
X165645929Y-127135301D01*
X165645934Y-127135300D01*
X165843954Y-127075232D01*
X166026450Y-126977685D01*
X166186410Y-126846410D01*
X166317685Y-126686450D01*
X166415232Y-126503954D01*
X166475300Y-126305934D01*
X166475301Y-126305929D01*
X166495583Y-126100003D01*
X166924417Y-126100003D01*
X166944698Y-126305929D01*
X166944699Y-126305934D01*
X167004768Y-126503954D01*
X167102316Y-126686452D01*
X167210157Y-126817857D01*
X167233590Y-126846410D01*
X167233595Y-126846414D01*
X167393547Y-126977683D01*
X167393548Y-126977683D01*
X167393550Y-126977685D01*
X167576046Y-127075232D01*
X167713997Y-127117078D01*
X167774065Y-127135300D01*
X167774070Y-127135301D01*
X167979997Y-127155583D01*
X167980000Y-127155583D01*
X167980003Y-127155583D01*
X168185929Y-127135301D01*
X168185934Y-127135300D01*
X168383954Y-127075232D01*
X168566450Y-126977685D01*
X168726410Y-126846410D01*
X168857685Y-126686450D01*
X168955232Y-126503954D01*
X168956431Y-126500002D01*
X173894353Y-126500002D01*
X173914834Y-126642456D01*
X173934926Y-126686450D01*
X173974623Y-126773373D01*
X174037913Y-126846414D01*
X174068873Y-126882144D01*
X174138092Y-126926628D01*
X174189947Y-126959953D01*
X174296403Y-126991211D01*
X174328035Y-127000499D01*
X174328036Y-127000499D01*
X174328039Y-127000500D01*
X174328041Y-127000500D01*
X174471959Y-127000500D01*
X174471961Y-127000500D01*
X174610053Y-126959953D01*
X174731128Y-126882143D01*
X174825377Y-126773373D01*
X174885165Y-126642457D01*
X174905647Y-126500000D01*
X174896247Y-126434623D01*
X174885165Y-126357543D01*
X174861593Y-126305929D01*
X174825377Y-126226627D01*
X174731128Y-126117857D01*
X174731127Y-126117856D01*
X174731126Y-126117855D01*
X174610057Y-126040049D01*
X174610054Y-126040047D01*
X174610053Y-126040047D01*
X174610050Y-126040046D01*
X174471964Y-125999500D01*
X174471961Y-125999500D01*
X174328039Y-125999500D01*
X174328035Y-125999500D01*
X174189949Y-126040046D01*
X174189942Y-126040049D01*
X174068873Y-126117855D01*
X173974622Y-126226628D01*
X173914834Y-126357543D01*
X173894353Y-126499997D01*
X173894353Y-126500002D01*
X168956431Y-126500002D01*
X169015300Y-126305934D01*
X169015301Y-126305929D01*
X169035583Y-126100003D01*
X169035583Y-126099996D01*
X169015301Y-125894070D01*
X169015300Y-125894065D01*
X168977362Y-125769000D01*
X168955232Y-125696046D01*
X168857685Y-125513550D01*
X168726410Y-125353590D01*
X168726404Y-125353585D01*
X168661113Y-125300002D01*
X173094353Y-125300002D01*
X173114834Y-125442456D01*
X173147301Y-125513547D01*
X173174623Y-125573373D01*
X173258349Y-125669999D01*
X173268873Y-125682144D01*
X173389942Y-125759950D01*
X173389947Y-125759953D01*
X173496403Y-125791211D01*
X173528035Y-125800499D01*
X173528036Y-125800499D01*
X173528039Y-125800500D01*
X173528041Y-125800500D01*
X173671959Y-125800500D01*
X173671961Y-125800500D01*
X173810053Y-125759953D01*
X173931128Y-125682143D01*
X174025377Y-125573373D01*
X174085165Y-125442457D01*
X174105647Y-125300000D01*
X174093459Y-125215232D01*
X174085165Y-125157543D01*
X174066961Y-125117683D01*
X174025377Y-125026627D01*
X173931128Y-124917857D01*
X173931127Y-124917856D01*
X173931126Y-124917855D01*
X173810057Y-124840049D01*
X173810054Y-124840047D01*
X173810053Y-124840047D01*
X173810050Y-124840046D01*
X173671964Y-124799500D01*
X173671961Y-124799500D01*
X173528039Y-124799500D01*
X173528035Y-124799500D01*
X173389949Y-124840046D01*
X173389942Y-124840049D01*
X173268873Y-124917855D01*
X173174622Y-125026628D01*
X173114834Y-125157543D01*
X173094353Y-125299997D01*
X173094353Y-125300002D01*
X168661113Y-125300002D01*
X168566452Y-125222316D01*
X168383954Y-125124768D01*
X168185934Y-125064699D01*
X168185929Y-125064698D01*
X167980003Y-125044417D01*
X167979997Y-125044417D01*
X167774070Y-125064698D01*
X167774065Y-125064699D01*
X167576045Y-125124768D01*
X167393547Y-125222316D01*
X167233595Y-125353585D01*
X167233585Y-125353595D01*
X167102316Y-125513547D01*
X167004768Y-125696045D01*
X166944699Y-125894065D01*
X166944698Y-125894070D01*
X166924417Y-126099996D01*
X166924417Y-126100003D01*
X166495583Y-126100003D01*
X166495583Y-126099996D01*
X166475301Y-125894070D01*
X166475300Y-125894065D01*
X166437362Y-125769000D01*
X166415232Y-125696046D01*
X166317685Y-125513550D01*
X166186410Y-125353590D01*
X166186404Y-125353585D01*
X166026452Y-125222316D01*
X165843954Y-125124768D01*
X165645934Y-125064699D01*
X165645929Y-125064698D01*
X165440003Y-125044417D01*
X165439997Y-125044417D01*
X165234070Y-125064698D01*
X165234065Y-125064699D01*
X165036045Y-125124768D01*
X164853547Y-125222316D01*
X164693595Y-125353585D01*
X164693585Y-125353595D01*
X164562316Y-125513547D01*
X164464768Y-125696045D01*
X164404699Y-125894065D01*
X164404698Y-125894070D01*
X164384417Y-126099996D01*
X164384417Y-126100003D01*
X163955583Y-126100003D01*
X163955583Y-126099996D01*
X163935301Y-125894070D01*
X163935300Y-125894065D01*
X163897362Y-125769000D01*
X163875232Y-125696046D01*
X163777685Y-125513550D01*
X163646410Y-125353590D01*
X163646404Y-125353585D01*
X163486452Y-125222316D01*
X163303954Y-125124768D01*
X163105934Y-125064699D01*
X163105929Y-125064698D01*
X162900003Y-125044417D01*
X162899997Y-125044417D01*
X162694070Y-125064698D01*
X162694065Y-125064699D01*
X162496045Y-125124768D01*
X162313547Y-125222316D01*
X162153595Y-125353585D01*
X162153585Y-125353595D01*
X162022316Y-125513547D01*
X161924768Y-125696045D01*
X161903737Y-125765376D01*
X161868752Y-125815573D01*
X161810943Y-125835619D01*
X161752393Y-125817858D01*
X161715464Y-125769073D01*
X161710000Y-125736638D01*
X161710000Y-125202175D01*
X161703598Y-125142629D01*
X161703596Y-125142618D01*
X161653353Y-125007911D01*
X161653352Y-125007909D01*
X161567192Y-124892815D01*
X161567184Y-124892807D01*
X161452090Y-124806647D01*
X161452088Y-124806646D01*
X161317381Y-124756403D01*
X161317370Y-124756401D01*
X161257824Y-124750000D01*
X160610001Y-124750000D01*
X160610000Y-124750001D01*
X160610000Y-125666988D01*
X160552993Y-125634075D01*
X160425826Y-125600000D01*
X160294174Y-125600000D01*
X160167007Y-125634075D01*
X160110000Y-125666988D01*
X160110000Y-124750001D01*
X160109999Y-124750000D01*
X159462176Y-124750000D01*
X159402629Y-124756401D01*
X159402618Y-124756403D01*
X159267911Y-124806646D01*
X159267909Y-124806647D01*
X159152815Y-124892807D01*
X159152807Y-124892815D01*
X159066647Y-125007909D01*
X159066646Y-125007911D01*
X159016403Y-125142618D01*
X159016401Y-125142629D01*
X159010000Y-125202175D01*
X159010000Y-125849999D01*
X159010001Y-125850000D01*
X159926988Y-125850000D01*
X159894075Y-125907007D01*
X159860000Y-126034174D01*
X159860000Y-126165826D01*
X159894075Y-126292993D01*
X159926988Y-126350000D01*
X159010001Y-126350000D01*
X159010000Y-126350001D01*
X159010000Y-126997824D01*
X159009999Y-126997824D01*
X150500500Y-126997824D01*
X150500500Y-123400002D01*
X158394353Y-123400002D01*
X158414834Y-123542456D01*
X158474622Y-123673371D01*
X158474623Y-123673373D01*
X158568872Y-123782143D01*
X158568873Y-123782144D01*
X158689942Y-123859950D01*
X158689947Y-123859953D01*
X158796403Y-123891211D01*
X158828035Y-123900499D01*
X158828036Y-123900499D01*
X158828039Y-123900500D01*
X158828041Y-123900500D01*
X158971959Y-123900500D01*
X158971961Y-123900500D01*
X159110053Y-123859953D01*
X159231128Y-123782143D01*
X159325377Y-123673373D01*
X159385165Y-123542457D01*
X159405647Y-123400000D01*
X159397027Y-123340049D01*
X159385165Y-123257543D01*
X159350731Y-123182144D01*
X159325377Y-123126627D01*
X159231128Y-123017857D01*
X159231127Y-123017856D01*
X159231126Y-123017855D01*
X159110057Y-122940049D01*
X159110054Y-122940047D01*
X159110053Y-122940047D01*
X159110050Y-122940046D01*
X158971964Y-122899500D01*
X158971961Y-122899500D01*
X158828039Y-122899500D01*
X158828035Y-122899500D01*
X158689949Y-122940046D01*
X158689942Y-122940049D01*
X158568873Y-123017855D01*
X158474622Y-123126628D01*
X158414834Y-123257543D01*
X158394353Y-123399997D01*
X158394353Y-123400002D01*
X150500500Y-123400002D01*
X150500500Y-122800002D01*
X166294353Y-122800002D01*
X166314834Y-122942456D01*
X166318805Y-122951151D01*
X166374623Y-123073373D01*
X166468872Y-123182143D01*
X166468873Y-123182144D01*
X166586195Y-123257542D01*
X166589947Y-123259953D01*
X166696403Y-123291211D01*
X166728035Y-123300499D01*
X166728036Y-123300499D01*
X166728039Y-123300500D01*
X166728041Y-123300500D01*
X166871959Y-123300500D01*
X166871961Y-123300500D01*
X167010053Y-123259953D01*
X167131128Y-123182143D01*
X167225377Y-123073373D01*
X167285165Y-122942457D01*
X167305575Y-122800500D01*
X167305647Y-122800002D01*
X167305647Y-122799997D01*
X167285165Y-122657543D01*
X167271779Y-122628233D01*
X167225377Y-122526627D01*
X167131128Y-122417857D01*
X167131127Y-122417856D01*
X167131126Y-122417855D01*
X167103346Y-122400002D01*
X170894353Y-122400002D01*
X170914834Y-122542456D01*
X170974622Y-122673371D01*
X170974623Y-122673373D01*
X171068872Y-122782143D01*
X171068873Y-122782144D01*
X171097436Y-122800500D01*
X171172668Y-122848849D01*
X171211399Y-122896213D01*
X171214893Y-122957299D01*
X171181814Y-123008772D01*
X171172675Y-123015412D01*
X171168873Y-123017855D01*
X171074622Y-123126628D01*
X171014834Y-123257543D01*
X170994353Y-123399997D01*
X170994353Y-123400002D01*
X171014834Y-123542456D01*
X171074622Y-123673371D01*
X171074623Y-123673373D01*
X171168872Y-123782143D01*
X171168873Y-123782144D01*
X171289942Y-123859950D01*
X171289947Y-123859953D01*
X171396403Y-123891211D01*
X171428035Y-123900499D01*
X171428036Y-123900499D01*
X171428039Y-123900500D01*
X171428041Y-123900500D01*
X171571959Y-123900500D01*
X171571961Y-123900500D01*
X171689587Y-123865962D01*
X171750743Y-123867709D01*
X171799196Y-123905072D01*
X171811288Y-123936117D01*
X171812839Y-123935662D01*
X171814833Y-123942455D01*
X171874622Y-124073371D01*
X171874623Y-124073373D01*
X171968872Y-124182143D01*
X171968873Y-124182144D01*
X171997436Y-124200500D01*
X172089947Y-124259953D01*
X172196403Y-124291211D01*
X172228035Y-124300499D01*
X172228036Y-124300499D01*
X172228039Y-124300500D01*
X172228041Y-124300500D01*
X172371959Y-124300500D01*
X172371961Y-124300500D01*
X172510053Y-124259953D01*
X172541096Y-124240003D01*
X174544417Y-124240003D01*
X174564698Y-124445929D01*
X174564699Y-124445934D01*
X174624768Y-124643954D01*
X174722316Y-124826452D01*
X174797330Y-124917857D01*
X174853590Y-124986410D01*
X174853595Y-124986414D01*
X175013547Y-125117683D01*
X175013548Y-125117683D01*
X175013550Y-125117685D01*
X175196046Y-125215232D01*
X175333997Y-125257078D01*
X175394065Y-125275300D01*
X175394070Y-125275301D01*
X175599997Y-125295583D01*
X175600000Y-125295583D01*
X175600003Y-125295583D01*
X175805929Y-125275301D01*
X175805934Y-125275300D01*
X176003954Y-125215232D01*
X176186450Y-125117685D01*
X176346410Y-124986410D01*
X176477685Y-124826450D01*
X176575232Y-124643954D01*
X176635300Y-124445934D01*
X176635301Y-124445929D01*
X176655583Y-124240003D01*
X176655583Y-124239996D01*
X176635301Y-124034070D01*
X176635300Y-124034065D01*
X176605450Y-123935662D01*
X176575232Y-123836046D01*
X176477685Y-123653550D01*
X176346410Y-123493590D01*
X176346404Y-123493585D01*
X176186452Y-123362316D01*
X176003954Y-123264768D01*
X175805934Y-123204699D01*
X175805929Y-123204698D01*
X175600003Y-123184417D01*
X175599997Y-123184417D01*
X175394070Y-123204698D01*
X175394065Y-123204699D01*
X175196045Y-123264768D01*
X175013547Y-123362316D01*
X174853595Y-123493585D01*
X174853585Y-123493595D01*
X174722316Y-123653547D01*
X174624768Y-123836045D01*
X174564699Y-124034065D01*
X174564698Y-124034070D01*
X174544417Y-124239996D01*
X174544417Y-124240003D01*
X172541096Y-124240003D01*
X172631128Y-124182143D01*
X172725377Y-124073373D01*
X172785165Y-123942457D01*
X172799543Y-123842456D01*
X172805647Y-123800002D01*
X172805647Y-123799997D01*
X172791270Y-123700002D01*
X173194353Y-123700002D01*
X173214834Y-123842456D01*
X173260504Y-123942457D01*
X173274623Y-123973373D01*
X173327217Y-124034070D01*
X173368873Y-124082144D01*
X173489942Y-124159950D01*
X173489947Y-124159953D01*
X173596403Y-124191211D01*
X173628035Y-124200499D01*
X173628036Y-124200499D01*
X173628039Y-124200500D01*
X173628041Y-124200500D01*
X173771959Y-124200500D01*
X173771961Y-124200500D01*
X173910053Y-124159953D01*
X174031128Y-124082143D01*
X174125377Y-123973373D01*
X174185165Y-123842457D01*
X174205647Y-123700000D01*
X174201818Y-123673371D01*
X174185165Y-123557543D01*
X174171046Y-123526627D01*
X174125377Y-123426627D01*
X174031128Y-123317857D01*
X174031127Y-123317856D01*
X174031126Y-123317855D01*
X173910057Y-123240049D01*
X173910054Y-123240047D01*
X173910053Y-123240047D01*
X173910050Y-123240046D01*
X173771964Y-123199500D01*
X173771961Y-123199500D01*
X173628039Y-123199500D01*
X173628035Y-123199500D01*
X173489949Y-123240046D01*
X173489942Y-123240049D01*
X173368873Y-123317855D01*
X173274622Y-123426628D01*
X173214834Y-123557543D01*
X173194353Y-123699997D01*
X173194353Y-123700002D01*
X172791270Y-123700002D01*
X172785165Y-123657543D01*
X172725377Y-123526628D01*
X172725377Y-123526627D01*
X172631128Y-123417857D01*
X172631127Y-123417856D01*
X172631126Y-123417855D01*
X172510057Y-123340049D01*
X172510054Y-123340047D01*
X172510053Y-123340047D01*
X172489585Y-123334037D01*
X172371964Y-123299500D01*
X172371961Y-123299500D01*
X172228039Y-123299500D01*
X172228035Y-123299500D01*
X172110414Y-123334037D01*
X172049254Y-123332289D01*
X172000801Y-123294926D01*
X171988720Y-123263880D01*
X171987161Y-123264339D01*
X171985165Y-123257542D01*
X171925378Y-123126629D01*
X171925377Y-123126628D01*
X171925377Y-123126627D01*
X171831128Y-123017857D01*
X171831127Y-123017856D01*
X171831126Y-123017855D01*
X171727331Y-122951151D01*
X171688600Y-122903785D01*
X171685106Y-122842700D01*
X171718185Y-122791227D01*
X171727334Y-122784581D01*
X171731128Y-122782143D01*
X171825377Y-122673373D01*
X171872702Y-122569746D01*
X174549500Y-122569746D01*
X174549501Y-122569758D01*
X174561132Y-122628227D01*
X174561133Y-122628231D01*
X174605448Y-122694552D01*
X174671769Y-122738867D01*
X174716231Y-122747711D01*
X174730241Y-122750498D01*
X174730246Y-122750498D01*
X174730252Y-122750500D01*
X174730253Y-122750500D01*
X176469747Y-122750500D01*
X176469748Y-122750500D01*
X176528231Y-122738867D01*
X176594552Y-122694552D01*
X176638867Y-122628231D01*
X176650500Y-122569748D01*
X176650500Y-122300002D01*
X179294353Y-122300002D01*
X179314834Y-122442456D01*
X179372967Y-122569748D01*
X179374623Y-122573373D01*
X179447556Y-122657543D01*
X179468873Y-122682144D01*
X179589942Y-122759950D01*
X179589947Y-122759953D01*
X179696403Y-122791211D01*
X179728035Y-122800499D01*
X179728036Y-122800499D01*
X179728039Y-122800500D01*
X179728041Y-122800500D01*
X179871959Y-122800500D01*
X179871961Y-122800500D01*
X180010053Y-122759953D01*
X180131128Y-122682143D01*
X180225377Y-122573373D01*
X180285165Y-122442457D01*
X180305647Y-122300000D01*
X180305575Y-122299500D01*
X180285165Y-122157543D01*
X180271046Y-122126627D01*
X180225377Y-122026627D01*
X180131128Y-121917857D01*
X180131127Y-121917856D01*
X180131126Y-121917855D01*
X180010057Y-121840049D01*
X180010054Y-121840047D01*
X180010053Y-121840047D01*
X180010050Y-121840046D01*
X179871964Y-121799500D01*
X179871961Y-121799500D01*
X179728039Y-121799500D01*
X179728035Y-121799500D01*
X179589949Y-121840046D01*
X179589942Y-121840049D01*
X179468873Y-121917855D01*
X179374622Y-122026628D01*
X179314834Y-122157543D01*
X179294353Y-122299997D01*
X179294353Y-122300002D01*
X176650500Y-122300002D01*
X176650500Y-121680000D01*
X182684508Y-121680000D01*
X182704354Y-121805303D01*
X182704355Y-121805307D01*
X182759944Y-121914406D01*
X182761950Y-121918342D01*
X182851658Y-122008050D01*
X182964696Y-122065646D01*
X183090000Y-122085492D01*
X183215304Y-122065646D01*
X183328342Y-122008050D01*
X183418050Y-121918342D01*
X183475646Y-121805304D01*
X183495492Y-121680000D01*
X183475646Y-121554696D01*
X183418050Y-121441658D01*
X183328342Y-121351950D01*
X183324406Y-121349944D01*
X183215307Y-121294355D01*
X183215304Y-121294354D01*
X183090000Y-121274508D01*
X182964696Y-121294354D01*
X182964692Y-121294355D01*
X182851659Y-121351949D01*
X182761949Y-121441659D01*
X182704355Y-121554692D01*
X182704354Y-121554696D01*
X182684508Y-121679999D01*
X182684508Y-121680000D01*
X176650500Y-121680000D01*
X176650500Y-120830252D01*
X176638867Y-120771769D01*
X176594552Y-120705448D01*
X176586399Y-120700000D01*
X176556467Y-120680000D01*
X180594508Y-120680000D01*
X180614354Y-120805303D01*
X180614355Y-120805307D01*
X180627066Y-120830253D01*
X180671950Y-120918342D01*
X180761658Y-121008050D01*
X180874696Y-121065646D01*
X181000000Y-121085492D01*
X181125304Y-121065646D01*
X181238342Y-121008050D01*
X181328050Y-120918342D01*
X181385646Y-120805304D01*
X181405492Y-120680000D01*
X181385646Y-120554696D01*
X181328050Y-120441658D01*
X181238342Y-120351950D01*
X181234406Y-120349944D01*
X181125307Y-120294355D01*
X181125304Y-120294354D01*
X181000000Y-120274508D01*
X180874696Y-120294354D01*
X180874692Y-120294355D01*
X180761659Y-120351949D01*
X180671949Y-120441659D01*
X180614355Y-120554692D01*
X180614354Y-120554696D01*
X180594508Y-120679999D01*
X180594508Y-120680000D01*
X176556467Y-120680000D01*
X176528233Y-120661134D01*
X176528231Y-120661133D01*
X176528228Y-120661132D01*
X176528227Y-120661132D01*
X176469758Y-120649501D01*
X176469748Y-120649500D01*
X174730252Y-120649500D01*
X174730251Y-120649500D01*
X174730241Y-120649501D01*
X174671772Y-120661132D01*
X174671766Y-120661134D01*
X174605451Y-120705445D01*
X174605445Y-120705451D01*
X174561134Y-120771766D01*
X174561132Y-120771772D01*
X174549501Y-120830241D01*
X174549500Y-120830253D01*
X174549500Y-122569746D01*
X171872702Y-122569746D01*
X171885165Y-122542457D01*
X171905647Y-122400000D01*
X171897027Y-122340049D01*
X171885165Y-122257543D01*
X171825377Y-122126628D01*
X171825377Y-122126627D01*
X171731128Y-122017857D01*
X171728506Y-122014831D01*
X171704688Y-121958472D01*
X171718547Y-121898876D01*
X171728506Y-121885169D01*
X171797706Y-121805307D01*
X171825377Y-121773373D01*
X171885165Y-121642457D01*
X171905647Y-121500000D01*
X171885165Y-121357543D01*
X171825377Y-121226627D01*
X171731128Y-121117857D01*
X171731127Y-121117856D01*
X171731126Y-121117855D01*
X171610057Y-121040049D01*
X171610054Y-121040047D01*
X171610053Y-121040047D01*
X171610050Y-121040046D01*
X171471964Y-120999500D01*
X171471961Y-120999500D01*
X171328039Y-120999500D01*
X171328035Y-120999500D01*
X171189949Y-121040046D01*
X171189942Y-121040049D01*
X171068873Y-121117855D01*
X170974622Y-121226628D01*
X170914834Y-121357543D01*
X170894353Y-121499997D01*
X170894353Y-121500002D01*
X170914834Y-121642456D01*
X170974622Y-121773371D01*
X170974623Y-121773373D01*
X171002294Y-121805307D01*
X171071494Y-121885169D01*
X171095311Y-121941529D01*
X171081452Y-122001124D01*
X171071494Y-122014831D01*
X170974622Y-122126628D01*
X170914834Y-122257543D01*
X170894353Y-122399997D01*
X170894353Y-122400002D01*
X167103346Y-122400002D01*
X167010057Y-122340049D01*
X167010054Y-122340047D01*
X167010053Y-122340047D01*
X167010050Y-122340046D01*
X166871964Y-122299500D01*
X166871961Y-122299500D01*
X166728039Y-122299500D01*
X166728035Y-122299500D01*
X166589949Y-122340046D01*
X166589942Y-122340049D01*
X166468873Y-122417855D01*
X166374622Y-122526628D01*
X166314834Y-122657543D01*
X166294353Y-122799997D01*
X166294353Y-122800002D01*
X150500500Y-122800002D01*
X150500500Y-120700002D01*
X169594353Y-120700002D01*
X169614834Y-120842456D01*
X169649490Y-120918340D01*
X169674623Y-120973373D01*
X169768872Y-121082143D01*
X169768873Y-121082144D01*
X169774083Y-121085492D01*
X169889947Y-121159953D01*
X169996403Y-121191211D01*
X170028035Y-121200499D01*
X170028036Y-121200499D01*
X170028039Y-121200500D01*
X170028041Y-121200500D01*
X170171959Y-121200500D01*
X170171961Y-121200500D01*
X170310053Y-121159953D01*
X170431128Y-121082143D01*
X170525377Y-120973373D01*
X170585165Y-120842457D01*
X170595329Y-120771766D01*
X170605647Y-120700002D01*
X170605647Y-120699997D01*
X170585165Y-120557543D01*
X170532242Y-120441659D01*
X170525377Y-120426627D01*
X170431128Y-120317857D01*
X170431127Y-120317856D01*
X170431126Y-120317855D01*
X170310057Y-120240049D01*
X170310054Y-120240047D01*
X170310053Y-120240047D01*
X170310050Y-120240046D01*
X170171964Y-120199500D01*
X170171961Y-120199500D01*
X170028039Y-120199500D01*
X170028035Y-120199500D01*
X169889949Y-120240046D01*
X169889942Y-120240049D01*
X169768873Y-120317855D01*
X169674622Y-120426628D01*
X169614834Y-120557543D01*
X169594353Y-120699997D01*
X169594353Y-120700002D01*
X150500500Y-120700002D01*
X150500500Y-118950002D01*
X159844353Y-118950002D01*
X159864834Y-119092456D01*
X159905794Y-119182144D01*
X159924623Y-119223373D01*
X160018872Y-119332143D01*
X160018873Y-119332144D01*
X160139942Y-119409950D01*
X160139947Y-119409953D01*
X160246403Y-119441211D01*
X160278035Y-119450499D01*
X160278036Y-119450499D01*
X160278039Y-119450500D01*
X160278041Y-119450500D01*
X160421959Y-119450500D01*
X160421961Y-119450500D01*
X160560053Y-119409953D01*
X160681128Y-119332143D01*
X160775377Y-119223373D01*
X160835165Y-119092457D01*
X160855647Y-118950000D01*
X160854562Y-118942457D01*
X160835165Y-118807543D01*
X160831719Y-118799997D01*
X160775377Y-118676627D01*
X160681128Y-118567857D01*
X160681127Y-118567856D01*
X160681126Y-118567855D01*
X160560057Y-118490049D01*
X160560054Y-118490047D01*
X160560053Y-118490047D01*
X160560050Y-118490046D01*
X160421964Y-118449500D01*
X160421961Y-118449500D01*
X160278039Y-118449500D01*
X160278035Y-118449500D01*
X160139949Y-118490046D01*
X160139942Y-118490049D01*
X160018873Y-118567855D01*
X159924622Y-118676628D01*
X159864834Y-118807543D01*
X159844353Y-118949997D01*
X159844353Y-118950002D01*
X150500500Y-118950002D01*
X150500500Y-118000002D01*
X158494353Y-118000002D01*
X158514834Y-118142456D01*
X158568493Y-118259950D01*
X158574623Y-118273373D01*
X158632395Y-118340046D01*
X158668873Y-118382144D01*
X158789942Y-118459950D01*
X158789947Y-118459953D01*
X158892436Y-118490046D01*
X158928035Y-118500499D01*
X158928036Y-118500499D01*
X158928039Y-118500500D01*
X158928041Y-118500500D01*
X159071959Y-118500500D01*
X159071961Y-118500500D01*
X159210053Y-118459953D01*
X159303339Y-118400002D01*
X168694353Y-118400002D01*
X168714834Y-118542456D01*
X168774622Y-118673371D01*
X168774623Y-118673373D01*
X168868872Y-118782143D01*
X168868873Y-118782144D01*
X168896653Y-118799997D01*
X168989947Y-118859953D01*
X169096403Y-118891211D01*
X169128035Y-118900499D01*
X169128036Y-118900499D01*
X169128039Y-118900500D01*
X169128041Y-118900500D01*
X169271959Y-118900500D01*
X169271961Y-118900500D01*
X169410053Y-118859953D01*
X169503339Y-118800002D01*
X172394353Y-118800002D01*
X172414834Y-118942456D01*
X172474622Y-119073371D01*
X172474623Y-119073373D01*
X172568872Y-119182143D01*
X172568873Y-119182144D01*
X172633024Y-119223371D01*
X172689947Y-119259953D01*
X172796403Y-119291211D01*
X172828035Y-119300499D01*
X172828036Y-119300499D01*
X172828039Y-119300500D01*
X172828041Y-119300500D01*
X172971959Y-119300500D01*
X172971961Y-119300500D01*
X173110053Y-119259953D01*
X173231128Y-119182143D01*
X173325377Y-119073373D01*
X173385165Y-118942457D01*
X173397028Y-118859950D01*
X173405647Y-118800002D01*
X173405647Y-118799997D01*
X173385165Y-118657543D01*
X173325377Y-118526628D01*
X173325377Y-118526627D01*
X173231128Y-118417857D01*
X173231127Y-118417856D01*
X173231126Y-118417855D01*
X173110057Y-118340049D01*
X173110054Y-118340047D01*
X173110053Y-118340047D01*
X173110050Y-118340046D01*
X172971964Y-118299500D01*
X172971961Y-118299500D01*
X172828039Y-118299500D01*
X172828035Y-118299500D01*
X172689949Y-118340046D01*
X172689942Y-118340049D01*
X172568873Y-118417855D01*
X172474622Y-118526628D01*
X172414834Y-118657543D01*
X172394353Y-118799997D01*
X172394353Y-118800002D01*
X169503339Y-118800002D01*
X169531128Y-118782143D01*
X169625377Y-118673373D01*
X169685165Y-118542457D01*
X169705647Y-118400000D01*
X169697027Y-118340049D01*
X169685165Y-118257543D01*
X169650731Y-118182144D01*
X169625377Y-118126627D01*
X169531128Y-118017857D01*
X169531127Y-118017856D01*
X169531126Y-118017855D01*
X169503346Y-118000002D01*
X175494353Y-118000002D01*
X175514834Y-118142456D01*
X175568493Y-118259950D01*
X175574623Y-118273373D01*
X175632395Y-118340046D01*
X175668873Y-118382144D01*
X175789942Y-118459950D01*
X175789947Y-118459953D01*
X175892436Y-118490046D01*
X175928035Y-118500499D01*
X175928036Y-118500499D01*
X175928039Y-118500500D01*
X175928041Y-118500500D01*
X176071959Y-118500500D01*
X176071961Y-118500500D01*
X176210053Y-118459953D01*
X176331128Y-118382143D01*
X176425377Y-118273373D01*
X176485165Y-118142457D01*
X176505647Y-118000000D01*
X176497027Y-117940049D01*
X176485165Y-117857543D01*
X176425377Y-117726627D01*
X176331128Y-117617857D01*
X176331127Y-117617856D01*
X176331126Y-117617855D01*
X176210057Y-117540049D01*
X176210054Y-117540047D01*
X176210053Y-117540047D01*
X176210050Y-117540046D01*
X176071964Y-117499500D01*
X176071961Y-117499500D01*
X175928039Y-117499500D01*
X175928035Y-117499500D01*
X175789949Y-117540046D01*
X175789942Y-117540049D01*
X175668873Y-117617855D01*
X175574622Y-117726628D01*
X175514834Y-117857543D01*
X175494353Y-117999997D01*
X175494353Y-118000002D01*
X169503346Y-118000002D01*
X169410057Y-117940049D01*
X169410054Y-117940047D01*
X169410053Y-117940047D01*
X169410050Y-117940046D01*
X169271964Y-117899500D01*
X169271961Y-117899500D01*
X169128039Y-117899500D01*
X169128035Y-117899500D01*
X168989949Y-117940046D01*
X168989942Y-117940049D01*
X168868873Y-118017855D01*
X168774622Y-118126628D01*
X168714834Y-118257543D01*
X168694353Y-118399997D01*
X168694353Y-118400002D01*
X159303339Y-118400002D01*
X159331128Y-118382143D01*
X159425377Y-118273373D01*
X159485165Y-118142457D01*
X159505647Y-118000000D01*
X159497027Y-117940049D01*
X159485165Y-117857543D01*
X159458887Y-117800002D01*
X167094353Y-117800002D01*
X167114834Y-117942456D01*
X167141113Y-117999997D01*
X167174623Y-118073373D01*
X167268872Y-118182143D01*
X167268873Y-118182144D01*
X167386197Y-118257543D01*
X167389947Y-118259953D01*
X167496403Y-118291211D01*
X167528035Y-118300499D01*
X167528036Y-118300499D01*
X167528039Y-118300500D01*
X167528041Y-118300500D01*
X167671959Y-118300500D01*
X167671961Y-118300500D01*
X167810053Y-118259953D01*
X167931128Y-118182143D01*
X168025377Y-118073373D01*
X168085165Y-117942457D01*
X168105647Y-117800000D01*
X168085165Y-117657543D01*
X168025377Y-117526627D01*
X167931128Y-117417857D01*
X167931127Y-117417856D01*
X167931126Y-117417855D01*
X167810057Y-117340049D01*
X167810054Y-117340047D01*
X167810053Y-117340047D01*
X167810050Y-117340046D01*
X167671964Y-117299500D01*
X167671961Y-117299500D01*
X167528039Y-117299500D01*
X167528035Y-117299500D01*
X167389949Y-117340046D01*
X167389942Y-117340049D01*
X167268873Y-117417855D01*
X167174622Y-117526628D01*
X167114834Y-117657543D01*
X167094353Y-117799997D01*
X167094353Y-117800002D01*
X159458887Y-117800002D01*
X159425377Y-117726627D01*
X159331128Y-117617857D01*
X159331127Y-117617856D01*
X159331126Y-117617855D01*
X159210057Y-117540049D01*
X159210054Y-117540047D01*
X159210053Y-117540047D01*
X159210050Y-117540046D01*
X159071964Y-117499500D01*
X159071961Y-117499500D01*
X158928039Y-117499500D01*
X158928035Y-117499500D01*
X158789949Y-117540046D01*
X158789942Y-117540049D01*
X158668873Y-117617855D01*
X158574622Y-117726628D01*
X158514834Y-117857543D01*
X158494353Y-117999997D01*
X158494353Y-118000002D01*
X150500500Y-118000002D01*
X150500500Y-116003539D01*
X150500752Y-115996477D01*
X150505213Y-115934108D01*
X150515258Y-115793652D01*
X150517265Y-115779693D01*
X150559737Y-115584447D01*
X150563711Y-115570914D01*
X150633539Y-115383701D01*
X150639391Y-115370886D01*
X150735150Y-115195516D01*
X150742777Y-115183648D01*
X150862515Y-115023698D01*
X150871749Y-115013040D01*
X151013040Y-114871749D01*
X151023698Y-114862515D01*
X151183648Y-114742777D01*
X151195516Y-114735150D01*
X151370886Y-114639391D01*
X151383701Y-114633539D01*
X151570914Y-114563711D01*
X151584447Y-114559737D01*
X151779693Y-114517265D01*
X151793652Y-114515258D01*
X151973568Y-114502390D01*
X151996478Y-114500752D01*
X152003540Y-114500500D01*
X152065892Y-114500500D01*
X185361000Y-114500500D01*
X185419191Y-114519407D01*
G37*
G04 #@! TD.AperFunction*
M02*
