G04 #@! TF.GenerationSoftware,KiCad,Pcbnew,8.0.1*
G04 #@! TF.CreationDate,2024-09-12T17:06:28-04:00*
G04 #@! TF.ProjectId,Digital,44696769-7461-46c2-9e6b-696361645f70,rev?*
G04 #@! TF.SameCoordinates,Original*
G04 #@! TF.FileFunction,Copper,L6,Bot*
G04 #@! TF.FilePolarity,Positive*
%FSLAX46Y46*%
G04 Gerber Fmt 4.6, Leading zero omitted, Abs format (unit mm)*
G04 Created by KiCad (PCBNEW 8.0.1) date 2024-09-12 17:06:28*
%MOMM*%
%LPD*%
G01*
G04 APERTURE LIST*
G04 Aperture macros list*
%AMRoundRect*
0 Rectangle with rounded corners*
0 $1 Rounding radius*
0 $2 $3 $4 $5 $6 $7 $8 $9 X,Y pos of 4 corners*
0 Add a 4 corners polygon primitive as box body*
4,1,4,$2,$3,$4,$5,$6,$7,$8,$9,$2,$3,0*
0 Add four circle primitives for the rounded corners*
1,1,$1+$1,$2,$3*
1,1,$1+$1,$4,$5*
1,1,$1+$1,$6,$7*
1,1,$1+$1,$8,$9*
0 Add four rect primitives between the rounded corners*
20,1,$1+$1,$2,$3,$4,$5,0*
20,1,$1+$1,$4,$5,$6,$7,0*
20,1,$1+$1,$6,$7,$8,$9,0*
20,1,$1+$1,$8,$9,$2,$3,0*%
G04 Aperture macros list end*
G04 #@! TA.AperFunction,ComponentPad*
%ADD10R,1.700000X1.700000*%
G04 #@! TD*
G04 #@! TA.AperFunction,ComponentPad*
%ADD11O,1.700000X1.700000*%
G04 #@! TD*
G04 #@! TA.AperFunction,ComponentPad*
%ADD12O,2.100000X1.000000*%
G04 #@! TD*
G04 #@! TA.AperFunction,ComponentPad*
%ADD13O,1.800000X1.000000*%
G04 #@! TD*
G04 #@! TA.AperFunction,SMDPad,CuDef*
%ADD14RoundRect,0.135000X0.135000X0.185000X-0.135000X0.185000X-0.135000X-0.185000X0.135000X-0.185000X0*%
G04 #@! TD*
G04 #@! TA.AperFunction,ComponentPad*
%ADD15RoundRect,0.250000X-0.625000X0.350000X-0.625000X-0.350000X0.625000X-0.350000X0.625000X0.350000X0*%
G04 #@! TD*
G04 #@! TA.AperFunction,ComponentPad*
%ADD16O,1.750000X1.200000*%
G04 #@! TD*
G04 #@! TA.AperFunction,ViaPad*
%ADD17C,0.600000*%
G04 #@! TD*
G04 #@! TA.AperFunction,ViaPad*
%ADD18C,0.400000*%
G04 #@! TD*
G04 #@! TA.AperFunction,ViaPad*
%ADD19C,0.500000*%
G04 #@! TD*
G04 #@! TA.AperFunction,ViaPad*
%ADD20C,0.300000*%
G04 #@! TD*
G04 #@! TA.AperFunction,Conductor*
%ADD21C,0.220000*%
G04 #@! TD*
G04 #@! TA.AperFunction,Conductor*
%ADD22C,0.200000*%
G04 #@! TD*
G04 APERTURE END LIST*
D10*
X192700000Y-140350000D03*
D11*
X192700000Y-137810000D03*
X192700000Y-135270000D03*
X192700000Y-132730000D03*
X192700000Y-130190000D03*
X192700000Y-127650000D03*
D10*
X160360000Y-126100000D03*
D11*
X162900000Y-126100000D03*
X165440000Y-126100000D03*
X167980000Y-126100000D03*
D10*
X175600000Y-121700000D03*
D11*
X175600000Y-124240000D03*
D12*
X156105000Y-129680000D03*
D13*
X151925000Y-129680000D03*
D12*
X156105000Y-138320000D03*
D13*
X151925000Y-138320000D03*
D14*
X160410000Y-138500000D03*
X159390000Y-138500000D03*
D15*
X153800000Y-146500000D03*
D16*
X153800000Y-148500000D03*
D17*
X185133598Y-140877534D03*
X197000000Y-129000000D03*
X153000000Y-135000000D03*
X181000000Y-124000000D03*
X197000000Y-127000000D03*
X191000000Y-132000000D03*
X187000000Y-127000000D03*
X159800000Y-135700000D03*
X155000000Y-115000000D03*
X157000000Y-127000000D03*
X164900000Y-122900000D03*
X161000000Y-129000000D03*
X189600000Y-136700000D03*
X159000000Y-153000000D03*
X168500000Y-131100000D03*
X151000000Y-149000000D03*
X191000000Y-130000000D03*
X195000000Y-133000000D03*
X185000000Y-127000000D03*
X177600000Y-130700000D03*
X172100000Y-126500000D03*
X155000000Y-127000000D03*
X169000000Y-151000000D03*
X191000000Y-151000000D03*
X166800000Y-151000000D03*
X179000000Y-123999999D03*
X170800000Y-142000000D03*
X153000000Y-143000000D03*
X197000000Y-135000000D03*
X195000000Y-143000000D03*
X195000000Y-135000000D03*
X159000000Y-125000000D03*
D18*
X174100000Y-130420000D03*
D17*
X155400000Y-122600000D03*
X151000000Y-137000000D03*
X180600000Y-136600000D03*
X151000000Y-143000000D03*
X175000000Y-115000000D03*
X195000000Y-129000000D03*
X159000000Y-119000000D03*
X155000000Y-135000000D03*
X171800000Y-115700000D03*
X182300000Y-143300000D03*
X155000000Y-125000000D03*
X195000000Y-131000000D03*
X187200000Y-147600000D03*
X191000000Y-127000000D03*
X180200000Y-119500000D03*
X195000000Y-141000000D03*
X151000000Y-119000000D03*
X175000000Y-119000000D03*
X172500000Y-136900000D03*
X189000000Y-127000000D03*
X187000000Y-153000000D03*
X159000000Y-127000000D03*
X164900000Y-132400000D03*
X165800000Y-135500000D03*
X183600000Y-132000000D03*
D18*
X174100000Y-133280000D03*
D17*
X197000000Y-143000000D03*
X193000000Y-145000000D03*
X166000000Y-118000000D03*
X195000000Y-137000000D03*
X185000000Y-115000000D03*
X157000000Y-115000000D03*
X164000000Y-151200000D03*
X176700000Y-141600000D03*
X162200000Y-134000000D03*
X183000000Y-124000000D03*
X185000000Y-134000000D03*
X161900000Y-151200000D03*
X185000000Y-117000000D03*
X181000000Y-125986223D03*
X197000000Y-131000000D03*
X180800000Y-132500000D03*
X178500000Y-134490000D03*
X175000000Y-149000000D03*
X166900000Y-143100000D03*
X177000000Y-115000000D03*
X173000000Y-153000000D03*
X178300000Y-138700000D03*
X179400000Y-130800000D03*
X151000000Y-141000000D03*
X185900000Y-130700000D03*
X151000000Y-123000000D03*
X186500000Y-151000000D03*
X179700000Y-132300000D03*
X173000000Y-145000000D03*
X175000000Y-147000000D03*
X183000000Y-126000000D03*
X193000000Y-153000000D03*
X195000000Y-145000000D03*
X153000000Y-153000000D03*
X168500000Y-137400000D03*
X195000000Y-139000000D03*
X161000000Y-123000000D03*
X183000000Y-115000000D03*
X174671863Y-125661489D03*
X157000000Y-123000000D03*
X166400000Y-144500000D03*
X157000000Y-117000000D03*
X168700000Y-117700000D03*
X153000000Y-131000000D03*
X191000000Y-153000000D03*
X157000000Y-151000000D03*
X164100000Y-134800000D03*
X154800000Y-132700000D03*
X191000000Y-139000000D03*
X195000000Y-153000000D03*
X189000000Y-143000000D03*
X189000000Y-135000000D03*
X169700000Y-141800000D03*
X169200000Y-122400000D03*
X197000000Y-151000000D03*
X153000000Y-115000000D03*
X153000000Y-133000000D03*
X177621117Y-151911268D03*
X167000000Y-153000000D03*
X185000000Y-150300000D03*
X186400000Y-141300000D03*
X166200000Y-128100000D03*
X151000000Y-135000000D03*
X184200000Y-129800000D03*
X187000000Y-139000000D03*
X151000000Y-117000000D03*
X161500000Y-131000000D03*
X160000000Y-147100000D03*
X197000000Y-139000000D03*
X185300000Y-139000000D03*
X191000000Y-147000000D03*
X164000000Y-118000000D03*
X174900000Y-138700000D03*
X151000000Y-127000000D03*
X155000000Y-151000000D03*
X159000000Y-151000000D03*
X178884052Y-145982607D03*
X153000000Y-137000000D03*
X173000000Y-149000000D03*
X161000000Y-153000000D03*
X160000000Y-143390000D03*
X197000000Y-141000000D03*
X172100000Y-130800000D03*
X175000000Y-151000000D03*
X197000000Y-147000000D03*
X187000000Y-145000000D03*
X187300000Y-151200000D03*
X175000000Y-145000000D03*
X160000000Y-145400000D03*
X189000000Y-130000000D03*
X173000000Y-147000000D03*
X180900000Y-138200000D03*
X151000000Y-147000000D03*
X197000000Y-137000000D03*
X177000000Y-126000000D03*
X173000000Y-151000000D03*
X159200000Y-131100000D03*
X153000000Y-123000000D03*
X177300000Y-124000000D03*
D19*
X167300000Y-138300000D03*
D17*
X177000000Y-119000000D03*
X195000000Y-127000000D03*
X157000000Y-153000000D03*
X172000000Y-141300000D03*
X175000000Y-117000000D03*
X151000000Y-125000000D03*
X178500000Y-136300000D03*
X197000000Y-133000000D03*
X151000000Y-133000000D03*
X166400000Y-136800000D03*
X179700000Y-133600000D03*
X193000000Y-143000000D03*
X191000000Y-145000000D03*
X153000000Y-119000000D03*
X169000000Y-153000000D03*
X155000000Y-153000000D03*
X160600000Y-119800000D03*
X151000000Y-121000000D03*
X162300000Y-118200000D03*
X172000000Y-124700000D03*
X161800000Y-128900000D03*
X171000000Y-153000000D03*
X182600000Y-129100000D03*
X185000000Y-145000000D03*
X197000000Y-149000000D03*
X187000000Y-143000000D03*
X172000000Y-120500000D03*
X151000000Y-139000000D03*
X177000000Y-153000000D03*
X170900000Y-144200000D03*
X183000000Y-117000000D03*
X164000000Y-122700000D03*
X191102525Y-143000000D03*
X160000000Y-146200000D03*
X197000000Y-145000000D03*
X159000000Y-115000000D03*
X175500000Y-143300000D03*
X163000000Y-153000000D03*
X153000000Y-117000000D03*
X168100000Y-136000000D03*
X151000000Y-151000000D03*
X179000000Y-126000000D03*
X184900000Y-142800000D03*
X175000000Y-142000000D03*
X151000000Y-145000000D03*
X151000000Y-131000000D03*
X175000000Y-153000000D03*
X153000000Y-151000000D03*
X189000000Y-144934021D03*
X165000000Y-153000000D03*
X189000000Y-153000000D03*
X172900000Y-116400000D03*
X179900000Y-138200000D03*
X156000000Y-140800000D03*
X157000000Y-119000000D03*
X185000000Y-153000000D03*
X170400000Y-132500000D03*
X155000000Y-119000000D03*
X157700000Y-145000000D03*
X163725000Y-137100000D03*
X159800000Y-134000000D03*
X166600000Y-137600000D03*
X160625000Y-136600000D03*
X157700000Y-131600000D03*
X156680000Y-136400000D03*
X178000000Y-149700000D03*
X172200000Y-131700000D03*
X159000000Y-118000000D03*
X171200000Y-145400000D03*
X170124968Y-141075032D03*
X154600000Y-127900000D03*
X166800000Y-122800000D03*
X169124968Y-140075032D03*
X169124968Y-141075032D03*
X182300000Y-146100000D03*
X179800000Y-122300000D03*
X170124968Y-140075032D03*
X171200000Y-146400000D03*
X167800000Y-135300000D03*
X173600000Y-125300000D03*
X182300000Y-135700000D03*
X190000000Y-151200000D03*
X170200000Y-145400000D03*
X169200000Y-146400000D03*
X176000000Y-118000000D03*
X173700000Y-123700000D03*
X172500000Y-135920000D03*
X169200000Y-145400000D03*
X164900000Y-131400000D03*
X172900000Y-118800000D03*
X163900000Y-131500000D03*
X170200000Y-146400000D03*
X175700000Y-138200000D03*
X178000000Y-150500000D03*
X170100000Y-120700000D03*
X174400000Y-126500000D03*
X180900000Y-152100000D03*
X160350000Y-118950000D03*
X172400000Y-139800000D03*
X172700000Y-135000000D03*
X158900000Y-123400000D03*
X177800000Y-133600000D03*
X180400000Y-139800000D03*
X162800000Y-135500000D03*
X163700000Y-135600000D03*
D20*
X169018200Y-133400000D03*
D17*
X167600000Y-117800000D03*
X168900000Y-130200000D03*
X169200000Y-118400000D03*
D20*
X170218200Y-133800000D03*
D17*
X171500000Y-123400000D03*
D20*
X170218200Y-133400000D03*
D17*
X171400000Y-122400000D03*
X172300000Y-123800000D03*
X171400000Y-121500000D03*
X170100000Y-130100000D03*
X170400000Y-131200000D03*
X172100000Y-127200000D03*
D20*
X169818200Y-133400000D03*
D17*
X172100000Y-130000000D03*
X171000000Y-140400000D03*
D20*
X169418200Y-134600000D03*
D17*
X182400000Y-138600000D03*
X182800000Y-141400000D03*
X182500000Y-152100000D03*
X181700000Y-152100000D03*
X181000000Y-130400000D03*
X185700000Y-137600000D03*
X171700000Y-140100000D03*
D20*
X169818200Y-134600000D03*
D17*
X182400000Y-137700000D03*
X183300000Y-152100000D03*
X183600000Y-141300000D03*
X166200000Y-129200000D03*
D20*
X169018200Y-134600000D03*
D17*
X180100000Y-152100000D03*
X168400000Y-131900000D03*
D20*
X169418200Y-133400000D03*
D17*
X178600000Y-132100000D03*
X172400000Y-133500000D03*
D20*
X170218200Y-134200000D03*
D17*
X179100000Y-146800000D03*
X179900000Y-143000000D03*
X176200000Y-142700000D03*
X170300000Y-142700000D03*
X166100000Y-134200000D03*
X179300000Y-152100000D03*
D20*
X170218200Y-134600000D03*
D17*
X174900000Y-130000000D03*
D20*
X169018200Y-134200000D03*
D17*
X166200000Y-131300000D03*
D20*
X169018200Y-133800000D03*
D17*
X166900000Y-131300000D03*
X178400000Y-151500000D03*
X190100000Y-145800000D03*
X169200000Y-136400000D03*
X170100000Y-139300000D03*
X184300000Y-151100000D03*
X184500000Y-141300000D03*
X180100000Y-135000000D03*
X170100000Y-137200000D03*
D18*
X155700000Y-133800000D03*
X155700000Y-134800000D03*
X181000000Y-120680000D03*
X183090000Y-121680000D03*
D17*
X170000000Y-144100000D03*
X166000000Y-143610000D03*
X160062500Y-148400000D03*
X155720000Y-145100000D03*
X158600000Y-143000000D03*
X154700000Y-141800000D03*
X160500000Y-139550000D03*
X159700000Y-139550000D03*
X159300000Y-145900000D03*
X162610000Y-142600000D03*
D21*
X154800000Y-144200000D02*
X153800000Y-145200000D01*
X156900000Y-144200000D02*
X154800000Y-144200000D01*
X157700000Y-145000000D02*
X156900000Y-144200000D01*
X153800000Y-145200000D02*
X153800000Y-146500000D01*
D22*
X173800000Y-135000000D02*
X174650000Y-134150000D01*
D21*
X175500000Y-133300000D02*
X174650000Y-134150000D01*
D22*
X172700000Y-135000000D02*
X173800000Y-135000000D01*
D21*
X177800000Y-133600000D02*
X177500000Y-133300000D01*
X174650000Y-134150000D02*
X174400000Y-134400000D01*
X177500000Y-133300000D02*
X175500000Y-133300000D01*
D22*
X181200000Y-151800000D02*
X180900000Y-152100000D01*
X181200000Y-140600000D02*
X181200000Y-151800000D01*
X174400000Y-134400000D02*
X174400000Y-137800000D01*
X180400000Y-139800000D02*
X181200000Y-140600000D01*
D21*
X158900000Y-120400000D02*
X160350000Y-118950000D01*
X175500000Y-127600000D02*
X175500000Y-133300000D01*
X158900000Y-123400000D02*
X158900000Y-120400000D01*
X174400000Y-126500000D02*
X175500000Y-127600000D01*
D22*
X174400000Y-137800000D02*
X172400000Y-139800000D01*
D21*
X162800000Y-126200000D02*
X162900000Y-126100000D01*
X162800000Y-135500000D02*
X162800000Y-126200000D01*
D22*
X163200000Y-128340000D02*
X165440000Y-126100000D01*
X163700000Y-135600000D02*
X163200000Y-135100000D01*
X163200000Y-135100000D02*
X163200000Y-128340000D01*
X164800000Y-126740000D02*
X165440000Y-126100000D01*
D21*
X166800000Y-126900000D02*
X167600000Y-127700000D01*
X167600000Y-117800000D02*
X168200000Y-118400000D01*
X167600000Y-127700000D02*
X167600000Y-131981800D01*
X167600000Y-131981800D02*
X168318200Y-132700000D01*
X168200000Y-124000000D02*
X166800000Y-125400000D01*
D22*
X169018200Y-133400000D02*
X168318200Y-132700000D01*
D21*
X166800000Y-125400000D02*
X166800000Y-126900000D01*
X168200000Y-118400000D02*
X168200000Y-124000000D01*
D22*
X169200000Y-118400000D02*
X168600000Y-119000000D01*
X168600000Y-124600000D02*
X169200000Y-125200000D01*
X169200000Y-125200000D02*
X169200000Y-129900000D01*
X169200000Y-129900000D02*
X168900000Y-130200000D01*
X168600000Y-119000000D02*
X168600000Y-124600000D01*
X170918200Y-133800000D02*
X171500000Y-133218200D01*
X171500000Y-133218200D02*
X171500000Y-123400000D01*
X170218200Y-133800000D02*
X170918200Y-133800000D01*
D21*
X170218200Y-133400000D02*
X170600000Y-133400000D01*
X171000000Y-124000000D02*
X170800000Y-123800000D01*
X170800000Y-123800000D02*
X170800000Y-123000000D01*
X170600000Y-133400000D02*
X171000000Y-133000000D01*
X171000000Y-133000000D02*
X171000000Y-124000000D01*
X170800000Y-123000000D02*
X171400000Y-122400000D01*
D22*
X171400000Y-121500000D02*
X170100000Y-122800000D01*
X172300000Y-122400000D02*
X172300000Y-123800000D01*
X171400000Y-121500000D02*
X172300000Y-122400000D01*
X170100000Y-122800000D02*
X170100000Y-130100000D01*
X169818200Y-133400000D02*
X169818200Y-133000000D01*
D21*
X169818200Y-131781800D02*
X169818200Y-133000000D01*
X172100000Y-127200000D02*
X172100000Y-130000000D01*
X170400000Y-131200000D02*
X169818200Y-131781800D01*
D22*
X171000000Y-140400000D02*
X171000000Y-137200000D01*
X183100000Y-141700000D02*
X183100000Y-143500000D01*
X169418200Y-135618200D02*
X169418200Y-134600000D01*
X182400000Y-141000000D02*
X182800000Y-141400000D01*
X182400000Y-138600000D02*
X182400000Y-141000000D01*
D21*
X183100000Y-151500000D02*
X183100000Y-143500000D01*
D22*
X171000000Y-137200000D02*
X169418200Y-135618200D01*
X182800000Y-141400000D02*
X183100000Y-141700000D01*
D21*
X182500000Y-152100000D02*
X183100000Y-151500000D01*
X181700000Y-131100000D02*
X181000000Y-130400000D01*
X181700000Y-133600000D02*
X181700000Y-132500000D01*
X181700000Y-132500000D02*
X181700000Y-131100000D01*
X185700000Y-137600000D02*
X181700000Y-133600000D01*
X181700000Y-152100000D02*
X181700000Y-133600000D01*
X183300000Y-152100000D02*
X183600000Y-151800000D01*
D22*
X183000000Y-138300000D02*
X183000000Y-140700000D01*
X169818200Y-135418200D02*
X169818200Y-134600000D01*
X183600000Y-141300000D02*
X183600000Y-143200000D01*
X171700000Y-140100000D02*
X171400000Y-139800000D01*
X182400000Y-137700000D02*
X183000000Y-138300000D01*
D21*
X183600000Y-151800000D02*
X183600000Y-143200000D01*
D22*
X183000000Y-140700000D02*
X183600000Y-141300000D01*
X171400000Y-137000000D02*
X169818200Y-135418200D01*
X171400000Y-139800000D02*
X171400000Y-137000000D01*
X165500000Y-132800000D02*
X167300000Y-134600000D01*
X165500000Y-129900000D02*
X165500000Y-132800000D01*
X167300000Y-134600000D02*
X169018200Y-134600000D01*
X166200000Y-129200000D02*
X165500000Y-129900000D01*
D21*
X179100000Y-144700000D02*
X179100000Y-132600000D01*
D22*
X168400000Y-131900000D02*
X169418200Y-132918200D01*
D21*
X180100000Y-152100000D02*
X180100000Y-145700000D01*
X179100000Y-132600000D02*
X178600000Y-132100000D01*
X180100000Y-145700000D02*
X179100000Y-144700000D01*
D22*
X169418200Y-132918200D02*
X169418200Y-133400000D01*
X172000000Y-134200000D02*
X170218200Y-134200000D01*
X172400000Y-133500000D02*
X172400000Y-133800000D01*
X172400000Y-133800000D02*
X172000000Y-134200000D01*
X167800000Y-136500000D02*
X167800000Y-141700000D01*
X167800000Y-141700000D02*
X168800000Y-142700000D01*
X166100000Y-134800000D02*
X167800000Y-136500000D01*
X179300000Y-148000000D02*
X179300000Y-152100000D01*
X176200000Y-142700000D02*
X176200000Y-144900000D01*
X176200000Y-144900000D02*
X179300000Y-148000000D01*
X166100000Y-134200000D02*
X166100000Y-134800000D01*
X168800000Y-142700000D02*
X170300000Y-142700000D01*
X174900000Y-130000000D02*
X174900000Y-133400000D01*
X174900000Y-133400000D02*
X174100000Y-134200000D01*
X172600000Y-134200000D02*
X171500000Y-135300000D01*
X171500000Y-135300000D02*
X170918200Y-135300000D01*
X170918200Y-135300000D02*
X170218200Y-134600000D01*
X174100000Y-134200000D02*
X172600000Y-134200000D01*
X168000000Y-134200000D02*
X166400000Y-132600000D01*
X166400000Y-132600000D02*
X166200000Y-132400000D01*
X169018200Y-134200000D02*
X168000000Y-134200000D01*
X166200000Y-132400000D02*
X166200000Y-131300000D01*
X168100000Y-133800000D02*
X169018200Y-133800000D01*
X166900000Y-131300000D02*
X166800000Y-131400000D01*
X166800000Y-132500000D02*
X168100000Y-133800000D01*
X166800000Y-131400000D02*
X166800000Y-132500000D01*
D21*
X190100000Y-146600000D02*
X190100000Y-145800000D01*
X178400000Y-151500000D02*
X178400000Y-152500000D01*
X178800000Y-152900000D02*
X183800000Y-152900000D01*
X178400000Y-152500000D02*
X178800000Y-152900000D01*
X183800000Y-152900000D02*
X190100000Y-146600000D01*
X184500000Y-141800000D02*
X184100000Y-142200000D01*
X169200000Y-136400000D02*
X169200000Y-138400000D01*
X184100000Y-150200000D02*
X184300000Y-150400000D01*
X184300000Y-150400000D02*
X184300000Y-151100000D01*
X184500000Y-141300000D02*
X184500000Y-141800000D01*
X169200000Y-138400000D02*
X170100000Y-139300000D01*
X184100000Y-142200000D02*
X184100000Y-150200000D01*
D22*
X155700000Y-133800000D02*
X155700000Y-134800000D01*
D21*
X183090000Y-121680000D02*
X182000000Y-121680000D01*
X182000000Y-121680000D02*
X181000000Y-120680000D01*
X169600000Y-143700000D02*
X166090000Y-143700000D01*
X166090000Y-143700000D02*
X166000000Y-143610000D01*
X170000000Y-144100000D02*
X169600000Y-143700000D01*
X155720000Y-145100000D02*
X159020000Y-148400000D01*
X159020000Y-148400000D02*
X160062500Y-148400000D01*
X157400000Y-141800000D02*
X154700000Y-141800000D01*
X158600000Y-143000000D02*
X157400000Y-141800000D01*
X160410000Y-139460000D02*
X160500000Y-139550000D01*
X160410000Y-138500000D02*
X160410000Y-139460000D01*
X159600000Y-138710000D02*
X159600000Y-139450000D01*
X159600000Y-139450000D02*
X159700000Y-139550000D01*
X159390000Y-138500000D02*
X159600000Y-138710000D01*
X159300000Y-145900000D02*
X159300000Y-145000000D01*
X161700000Y-142600000D02*
X162610000Y-142600000D01*
X159300000Y-145000000D02*
X161700000Y-142600000D01*
G04 #@! TA.AperFunction,Conductor*
G36*
X179400090Y-151503427D02*
G01*
X179402807Y-151507687D01*
X179573330Y-151974694D01*
X179572949Y-151983641D01*
X179566851Y-151989503D01*
X179304511Y-152099115D01*
X179295556Y-152099142D01*
X179295489Y-152099115D01*
X179033148Y-151989503D01*
X179026836Y-151983151D01*
X179026669Y-151974697D01*
X179197193Y-151507686D01*
X179203249Y-151501091D01*
X179208183Y-151500000D01*
X179391817Y-151500000D01*
X179400090Y-151503427D01*
G37*
G04 #@! TD.AperFunction*
G04 #@! TA.AperFunction,Conductor*
G36*
X181809929Y-151503427D02*
G01*
X181812718Y-151507889D01*
X181973589Y-151974818D01*
X181973044Y-151983756D01*
X181967038Y-151989425D01*
X181704511Y-152099115D01*
X181695556Y-152099142D01*
X181695489Y-152099115D01*
X181432961Y-151989425D01*
X181426649Y-151983073D01*
X181426410Y-151974821D01*
X181587282Y-151507888D01*
X181593217Y-151501183D01*
X181598344Y-151500000D01*
X181801656Y-151500000D01*
X181809929Y-151503427D01*
G37*
G04 #@! TD.AperFunction*
G04 #@! TA.AperFunction,Conductor*
G36*
X181293889Y-151627691D02*
G01*
X181297316Y-151635964D01*
X181297071Y-151638347D01*
X181180032Y-152201014D01*
X181174992Y-152208416D01*
X181166194Y-152210086D01*
X181164133Y-152209454D01*
X180904510Y-152102852D01*
X180898160Y-152096542D01*
X180788952Y-151831938D01*
X180788963Y-151822986D01*
X180793523Y-151817582D01*
X181097140Y-151626067D01*
X181103382Y-151624264D01*
X181285616Y-151624264D01*
X181293889Y-151627691D01*
G37*
G04 #@! TD.AperFunction*
G04 #@! TA.AperFunction,Conductor*
G36*
X169581949Y-143596896D02*
G01*
X170104155Y-143818320D01*
X170110434Y-143824705D01*
X170110411Y-143833536D01*
X170002852Y-144095489D01*
X169996540Y-144101840D01*
X169996510Y-144101852D01*
X169996493Y-144101860D01*
X169733882Y-144210245D01*
X169724927Y-144210234D01*
X169718603Y-144203894D01*
X169718511Y-144203664D01*
X169566478Y-143812042D01*
X169565685Y-143807808D01*
X169565685Y-143607669D01*
X169569112Y-143599396D01*
X169577385Y-143595969D01*
X169581949Y-143596896D01*
G37*
G04 #@! TD.AperFunction*
G04 #@! TA.AperFunction,Conductor*
G36*
X174675967Y-126389390D02*
G01*
X174681973Y-126395059D01*
X174898388Y-126838982D01*
X174898933Y-126847920D01*
X174896144Y-126852382D01*
X174752382Y-126996144D01*
X174744109Y-126999571D01*
X174738982Y-126998388D01*
X174295059Y-126781973D01*
X174289124Y-126775267D01*
X174289362Y-126767013D01*
X174397436Y-126503814D01*
X174403746Y-126497464D01*
X174667013Y-126389363D01*
X174675967Y-126389390D01*
G37*
G04 #@! TD.AperFunction*
G04 #@! TA.AperFunction,Conductor*
G36*
X181275967Y-130289390D02*
G01*
X181281973Y-130295059D01*
X181498388Y-130738982D01*
X181498933Y-130747920D01*
X181496144Y-130752382D01*
X181352382Y-130896144D01*
X181344109Y-130899571D01*
X181338982Y-130898388D01*
X180895059Y-130681973D01*
X180889124Y-130675267D01*
X180889362Y-130667013D01*
X180997436Y-130403814D01*
X181003746Y-130397464D01*
X181267013Y-130289363D01*
X181275967Y-130289390D01*
G37*
G04 #@! TD.AperFunction*
G04 #@! TA.AperFunction,Conductor*
G36*
X183253864Y-140808475D02*
G01*
X183704671Y-141018123D01*
X183710726Y-141024718D01*
X183710559Y-141033175D01*
X183602563Y-141296184D01*
X183596251Y-141302536D01*
X183596184Y-141302563D01*
X183333175Y-141410559D01*
X183324220Y-141410532D01*
X183318123Y-141404671D01*
X183108475Y-140953865D01*
X183108095Y-140944920D01*
X183110810Y-140940662D01*
X183240661Y-140810811D01*
X183248933Y-140807385D01*
X183253864Y-140808475D01*
G37*
G04 #@! TD.AperFunction*
G04 #@! TA.AperFunction,Conductor*
G36*
X169293889Y-129727691D02*
G01*
X169297316Y-129735964D01*
X169297071Y-129738347D01*
X169180032Y-130301014D01*
X169174992Y-130308416D01*
X169166194Y-130310086D01*
X169164133Y-130309454D01*
X168904510Y-130202852D01*
X168898160Y-130196542D01*
X168788952Y-129931938D01*
X168788963Y-129922986D01*
X168793523Y-129917582D01*
X169097140Y-129726067D01*
X169103382Y-129724264D01*
X169285616Y-129724264D01*
X169293889Y-129727691D01*
G37*
G04 #@! TD.AperFunction*
G04 #@! TA.AperFunction,Conductor*
G36*
X180675779Y-139689467D02*
G01*
X180681877Y-139695329D01*
X180891523Y-140146132D01*
X180891904Y-140155079D01*
X180889187Y-140159339D01*
X180759339Y-140289187D01*
X180751066Y-140292614D01*
X180746132Y-140291523D01*
X180452736Y-140155079D01*
X180295328Y-140081876D01*
X180289273Y-140075281D01*
X180289439Y-140066825D01*
X180397436Y-139803814D01*
X180403746Y-139797464D01*
X180666825Y-139689440D01*
X180675779Y-139689467D01*
G37*
G04 #@! TD.AperFunction*
G04 #@! TA.AperFunction,Conductor*
G36*
X170508424Y-133698370D02*
G01*
X170516021Y-133703111D01*
X170518200Y-133709911D01*
X170518200Y-133890088D01*
X170514773Y-133898361D01*
X170508423Y-133901629D01*
X170235099Y-133947182D01*
X170230893Y-133947116D01*
X170227516Y-133946444D01*
X170220070Y-133941468D01*
X170218100Y-133935051D01*
X170217200Y-133800000D01*
X170218100Y-133664947D01*
X170221581Y-133656701D01*
X170227513Y-133653555D01*
X170230899Y-133652881D01*
X170235096Y-133652816D01*
X170508424Y-133698370D01*
G37*
G04 #@! TD.AperFunction*
G04 #@! TA.AperFunction,Conductor*
G36*
X153912722Y-145303427D02*
G01*
X153913511Y-145304299D01*
X154393314Y-145891813D01*
X154395893Y-145900389D01*
X154392532Y-145907480D01*
X153808280Y-146492706D01*
X153800010Y-146496140D01*
X153791734Y-146492720D01*
X153791720Y-146492706D01*
X153636950Y-146337679D01*
X153207466Y-145907479D01*
X153204047Y-145899204D01*
X153206684Y-145891815D01*
X153686489Y-145304298D01*
X153694376Y-145300059D01*
X153695551Y-145300000D01*
X153904449Y-145300000D01*
X153912722Y-145303427D01*
G37*
G04 #@! TD.AperFunction*
G04 #@! TA.AperFunction,Conductor*
G36*
X171675779Y-121389467D02*
G01*
X171681877Y-121395329D01*
X171891523Y-121846132D01*
X171891904Y-121855079D01*
X171889187Y-121859339D01*
X171759339Y-121989187D01*
X171751066Y-121992614D01*
X171746132Y-121991523D01*
X171452736Y-121855079D01*
X171295328Y-121781876D01*
X171289273Y-121775281D01*
X171289439Y-121766825D01*
X171397436Y-121503814D01*
X171403746Y-121497464D01*
X171666825Y-121389440D01*
X171675779Y-121389467D01*
G37*
G04 #@! TD.AperFunction*
G04 #@! TA.AperFunction,Conductor*
G36*
X182852382Y-151603855D02*
G01*
X182996144Y-151747617D01*
X182999571Y-151755890D01*
X182998388Y-151761017D01*
X182781973Y-152204940D01*
X182775267Y-152210875D01*
X182767012Y-152210636D01*
X182503815Y-152102563D01*
X182497463Y-152096251D01*
X182497436Y-152096184D01*
X182389363Y-151832987D01*
X182389390Y-151824032D01*
X182395056Y-151818028D01*
X182838982Y-151601610D01*
X182847920Y-151601066D01*
X182852382Y-151603855D01*
G37*
G04 #@! TD.AperFunction*
G04 #@! TA.AperFunction,Conductor*
G36*
X160082987Y-118839363D02*
G01*
X160346184Y-118947436D01*
X160352536Y-118953748D01*
X160352563Y-118953815D01*
X160460636Y-119217012D01*
X160460609Y-119225967D01*
X160454940Y-119231973D01*
X160011017Y-119448388D01*
X160002079Y-119448933D01*
X159997617Y-119446144D01*
X159853855Y-119302382D01*
X159850428Y-119294109D01*
X159851611Y-119288982D01*
X160068028Y-118845057D01*
X160074732Y-118839124D01*
X160082987Y-118839363D01*
G37*
G04 #@! TD.AperFunction*
G04 #@! TA.AperFunction,Conductor*
G36*
X182502003Y-140966444D02*
G01*
X182903538Y-141118567D01*
X182910061Y-141124702D01*
X182910334Y-141133653D01*
X182910208Y-141133972D01*
X182801860Y-141396493D01*
X182795536Y-141402833D01*
X182795489Y-141402852D01*
X182533703Y-141510342D01*
X182524748Y-141510315D01*
X182518436Y-141503963D01*
X182518418Y-141503918D01*
X182306533Y-140981784D01*
X182306597Y-140972830D01*
X182312975Y-140966544D01*
X182317374Y-140965685D01*
X182497858Y-140965685D01*
X182502003Y-140966444D01*
G37*
G04 #@! TD.AperFunction*
G04 #@! TA.AperFunction,Conductor*
G36*
X177338528Y-133193208D02*
G01*
X177901286Y-133319795D01*
X177908605Y-133324954D01*
X177910133Y-133333778D01*
X177909541Y-133335654D01*
X177802852Y-133595489D01*
X177796540Y-133601840D01*
X177796510Y-133601852D01*
X177796493Y-133601860D01*
X177531806Y-133711102D01*
X177522851Y-133711091D01*
X177517539Y-133706673D01*
X177326161Y-133412910D01*
X177324264Y-133406524D01*
X177324264Y-133204624D01*
X177327691Y-133196351D01*
X177335964Y-133192924D01*
X177338528Y-133193208D01*
G37*
G04 #@! TD.AperFunction*
G04 #@! TA.AperFunction,Conductor*
G36*
X170132987Y-131089363D02*
G01*
X170396184Y-131197436D01*
X170402536Y-131203748D01*
X170402563Y-131203815D01*
X170510636Y-131467012D01*
X170510609Y-131475967D01*
X170504940Y-131481973D01*
X170061017Y-131698388D01*
X170052079Y-131698933D01*
X170047617Y-131696144D01*
X169903855Y-131552382D01*
X169900428Y-131544109D01*
X169901611Y-131538982D01*
X170118028Y-131095057D01*
X170124732Y-131089124D01*
X170132987Y-131089363D01*
G37*
G04 #@! TD.AperFunction*
G04 #@! TA.AperFunction,Conductor*
G36*
X170183641Y-142427050D02*
G01*
X170189503Y-142433148D01*
X170299115Y-142695489D01*
X170299142Y-142704444D01*
X170299115Y-142704511D01*
X170189503Y-142966851D01*
X170183151Y-142973163D01*
X170174694Y-142973329D01*
X170040947Y-142924493D01*
X169707687Y-142802806D01*
X169701091Y-142796750D01*
X169700000Y-142791816D01*
X169700000Y-142608183D01*
X169703427Y-142599910D01*
X169707687Y-142597193D01*
X170174697Y-142426669D01*
X170183641Y-142427050D01*
G37*
G04 #@! TD.AperFunction*
G04 #@! TA.AperFunction,Conductor*
G36*
X183703649Y-151627691D02*
G01*
X183707076Y-151635964D01*
X183706791Y-151638532D01*
X183580204Y-152201286D01*
X183575045Y-152208605D01*
X183566221Y-152210133D01*
X183564345Y-152209541D01*
X183304510Y-152102852D01*
X183298160Y-152096542D01*
X183188897Y-151831805D01*
X183188908Y-151822851D01*
X183193326Y-151817539D01*
X183487089Y-151626161D01*
X183493475Y-151624264D01*
X183695376Y-151624264D01*
X183703649Y-151627691D01*
G37*
G04 #@! TD.AperFunction*
G04 #@! TA.AperFunction,Conductor*
G36*
X169916561Y-133103427D02*
G01*
X169919829Y-133109777D01*
X169965382Y-133383099D01*
X169965316Y-133387305D01*
X169964644Y-133390682D01*
X169959668Y-133398128D01*
X169953247Y-133400099D01*
X169818277Y-133400999D01*
X169818121Y-133400999D01*
X169683151Y-133400099D01*
X169674901Y-133396617D01*
X169671754Y-133390683D01*
X169671754Y-133390682D01*
X169671089Y-133387340D01*
X169670867Y-133384836D01*
X169670869Y-133384754D01*
X169670868Y-133384748D01*
X169670869Y-133384729D01*
X169671025Y-133383049D01*
X169716570Y-133109775D01*
X169721311Y-133102179D01*
X169728111Y-133100000D01*
X169908288Y-133100000D01*
X169916561Y-133103427D01*
G37*
G04 #@! TD.AperFunction*
G04 #@! TA.AperFunction,Conductor*
G36*
X169005500Y-134052881D02*
G01*
X169008883Y-134053554D01*
X169016327Y-134058529D01*
X169018299Y-134064951D01*
X169019199Y-134199921D01*
X169019199Y-134200077D01*
X169018299Y-134335047D01*
X169014817Y-134343297D01*
X169008882Y-134346444D01*
X169005505Y-134347116D01*
X169001299Y-134347182D01*
X168727977Y-134301629D01*
X168720379Y-134296889D01*
X168718200Y-134290088D01*
X168718200Y-134109911D01*
X168721627Y-134101638D01*
X168727975Y-134098370D01*
X169001303Y-134052816D01*
X169005500Y-134052881D01*
G37*
G04 #@! TD.AperFunction*
G04 #@! TA.AperFunction,Conductor*
G36*
X160417898Y-138506227D02*
G01*
X160663622Y-138731078D01*
X160667413Y-138739192D01*
X160666497Y-138744275D01*
X160523023Y-139082865D01*
X160516640Y-139089145D01*
X160512250Y-139090000D01*
X160307750Y-139090000D01*
X160299477Y-139086573D01*
X160296977Y-139082865D01*
X160153502Y-138744275D01*
X160153430Y-138735320D01*
X160156374Y-138731081D01*
X160402102Y-138506226D01*
X160410518Y-138503170D01*
X160417898Y-138506227D01*
G37*
G04 #@! TD.AperFunction*
G04 #@! TA.AperFunction,Conductor*
G36*
X183073088Y-141290572D02*
G01*
X183079400Y-141296924D01*
X183080032Y-141298985D01*
X183197071Y-141861653D01*
X183195401Y-141870451D01*
X183187999Y-141875491D01*
X183185616Y-141875736D01*
X183003382Y-141875736D01*
X182997140Y-141873932D01*
X182693525Y-141682418D01*
X182688356Y-141675106D01*
X182688951Y-141668061D01*
X182798141Y-141403503D01*
X182804460Y-141397168D01*
X183064134Y-141290545D01*
X183073088Y-141290572D01*
G37*
G04 #@! TD.AperFunction*
G04 #@! TA.AperFunction,Conductor*
G36*
X163353864Y-135108475D02*
G01*
X163804671Y-135318123D01*
X163810726Y-135324718D01*
X163810559Y-135333175D01*
X163702563Y-135596184D01*
X163696251Y-135602536D01*
X163696184Y-135602563D01*
X163433175Y-135710559D01*
X163424220Y-135710532D01*
X163418123Y-135704671D01*
X163208475Y-135253865D01*
X163208095Y-135244920D01*
X163210810Y-135240662D01*
X163340661Y-135110811D01*
X163348933Y-135107385D01*
X163353864Y-135108475D01*
G37*
G04 #@! TD.AperFunction*
G04 #@! TA.AperFunction,Conductor*
G36*
X184765553Y-141409953D02*
G01*
X184771865Y-141416305D01*
X184771838Y-141425260D01*
X184771481Y-141426032D01*
X184514363Y-141934082D01*
X184507570Y-141939916D01*
X184498641Y-141939238D01*
X184495651Y-141937072D01*
X184353433Y-141794854D01*
X184350630Y-141790350D01*
X184226364Y-141425173D01*
X184226943Y-141416237D01*
X184232947Y-141410601D01*
X184496206Y-141301163D01*
X184505159Y-141301153D01*
X184765553Y-141409953D01*
G37*
G04 #@! TD.AperFunction*
G04 #@! TA.AperFunction,Conductor*
G36*
X181184602Y-120607235D02*
G01*
X181189999Y-120611827D01*
X181347957Y-120864776D01*
X181355696Y-120877168D01*
X181357171Y-120886000D01*
X181354045Y-120891638D01*
X181211638Y-121034045D01*
X181203365Y-121037472D01*
X181197168Y-121035696D01*
X181194524Y-121034045D01*
X180931827Y-120869999D01*
X180926625Y-120862710D01*
X180927193Y-120855650D01*
X180997435Y-120683836D01*
X181003738Y-120677476D01*
X181003780Y-120677458D01*
X181175649Y-120607194D01*
X181184602Y-120607235D01*
G37*
G04 #@! TD.AperFunction*
G04 #@! TA.AperFunction,Conductor*
G36*
X171502860Y-139626068D02*
G01*
X171806474Y-139817581D01*
X171811643Y-139824893D01*
X171811047Y-139831941D01*
X171701860Y-140096493D01*
X171695536Y-140102833D01*
X171695489Y-140102852D01*
X171435866Y-140209454D01*
X171426911Y-140209427D01*
X171420599Y-140203075D01*
X171419967Y-140201014D01*
X171302929Y-139638347D01*
X171304599Y-139629549D01*
X171312001Y-139624509D01*
X171314384Y-139624264D01*
X171496618Y-139624264D01*
X171502860Y-139626068D01*
G37*
G04 #@! TD.AperFunction*
G04 #@! TA.AperFunction,Conductor*
G36*
X170200090Y-129503427D02*
G01*
X170202807Y-129507687D01*
X170373330Y-129974694D01*
X170372949Y-129983641D01*
X170366851Y-129989503D01*
X170104511Y-130099115D01*
X170095556Y-130099142D01*
X170095489Y-130099115D01*
X169833148Y-129989503D01*
X169826836Y-129983151D01*
X169826669Y-129974697D01*
X169997193Y-129507686D01*
X170003249Y-129501091D01*
X170008183Y-129500000D01*
X170191817Y-129500000D01*
X170200090Y-129503427D01*
G37*
G04 #@! TD.AperFunction*
G04 #@! TA.AperFunction,Conductor*
G36*
X172209929Y-129403427D02*
G01*
X172212718Y-129407889D01*
X172373589Y-129874818D01*
X172373044Y-129883756D01*
X172367038Y-129889425D01*
X172104511Y-129999115D01*
X172095556Y-129999142D01*
X172095489Y-129999115D01*
X171832961Y-129889425D01*
X171826649Y-129883073D01*
X171826410Y-129874821D01*
X171987282Y-129407888D01*
X171993217Y-129401183D01*
X171998344Y-129400000D01*
X172201656Y-129400000D01*
X172209929Y-129403427D01*
G37*
G04 #@! TD.AperFunction*
G04 #@! TA.AperFunction,Conductor*
G36*
X183012686Y-121498920D02*
G01*
X183017278Y-121504317D01*
X183089100Y-121675473D01*
X183089141Y-121684427D01*
X183089100Y-121684527D01*
X183017278Y-121855682D01*
X183010916Y-121861985D01*
X183003854Y-121862554D01*
X182699065Y-121792095D01*
X182691776Y-121786893D01*
X182690000Y-121780696D01*
X182690000Y-121579303D01*
X182693427Y-121571030D01*
X182699063Y-121567904D01*
X183003854Y-121497445D01*
X183012686Y-121498920D01*
G37*
G04 #@! TD.AperFunction*
G04 #@! TA.AperFunction,Conductor*
G36*
X169005500Y-133652881D02*
G01*
X169008883Y-133653554D01*
X169016327Y-133658529D01*
X169018299Y-133664951D01*
X169019199Y-133799921D01*
X169019199Y-133800077D01*
X169018299Y-133935047D01*
X169014817Y-133943297D01*
X169008884Y-133946444D01*
X169006421Y-133946934D01*
X169005552Y-133947107D01*
X169003066Y-133947330D01*
X169002951Y-133947328D01*
X169001231Y-133947171D01*
X168727977Y-133901629D01*
X168720379Y-133896888D01*
X168718200Y-133890088D01*
X168718200Y-133709911D01*
X168721627Y-133701638D01*
X168727975Y-133698370D01*
X169001303Y-133652816D01*
X169005500Y-133652881D01*
G37*
G04 #@! TD.AperFunction*
G04 #@! TA.AperFunction,Conductor*
G36*
X169467038Y-136510574D02*
G01*
X169473350Y-136516926D01*
X169473589Y-136525181D01*
X169312718Y-136992111D01*
X169306783Y-136998817D01*
X169301656Y-137000000D01*
X169098344Y-137000000D01*
X169090071Y-136996573D01*
X169087282Y-136992111D01*
X168926410Y-136525178D01*
X168926955Y-136516243D01*
X168932959Y-136510575D01*
X169195490Y-136400883D01*
X169204444Y-136400857D01*
X169467038Y-136510574D01*
G37*
G04 #@! TD.AperFunction*
G04 #@! TA.AperFunction,Conductor*
G36*
X173292313Y-134897193D02*
G01*
X173298909Y-134903249D01*
X173300000Y-134908183D01*
X173300000Y-135091816D01*
X173296573Y-135100089D01*
X173292313Y-135102806D01*
X172825305Y-135273330D01*
X172816358Y-135272949D01*
X172810496Y-135266851D01*
X172700883Y-135004509D01*
X172700857Y-134995556D01*
X172700862Y-134995542D01*
X172810496Y-134733147D01*
X172816848Y-134726836D01*
X172825302Y-134726669D01*
X173292313Y-134897193D01*
G37*
G04 #@! TD.AperFunction*
G04 #@! TA.AperFunction,Conductor*
G36*
X171766851Y-123510496D02*
G01*
X171773163Y-123516848D01*
X171773330Y-123525305D01*
X171602807Y-123992313D01*
X171596751Y-123998909D01*
X171591817Y-124000000D01*
X171408183Y-124000000D01*
X171399910Y-123996573D01*
X171397193Y-123992313D01*
X171226669Y-123525302D01*
X171227050Y-123516358D01*
X171233147Y-123510496D01*
X171495490Y-123400883D01*
X171504444Y-123400857D01*
X171766851Y-123510496D01*
G37*
G04 #@! TD.AperFunction*
G04 #@! TA.AperFunction,Conductor*
G36*
X180209929Y-151503427D02*
G01*
X180212718Y-151507889D01*
X180373589Y-151974818D01*
X180373044Y-151983756D01*
X180367038Y-151989425D01*
X180104511Y-152099115D01*
X180095556Y-152099142D01*
X180095489Y-152099115D01*
X179832961Y-151989425D01*
X179826649Y-151983073D01*
X179826410Y-151974821D01*
X179987282Y-151507888D01*
X179993217Y-151501183D01*
X179998344Y-151500000D01*
X180201656Y-151500000D01*
X180209929Y-151503427D01*
G37*
G04 #@! TD.AperFunction*
G04 #@! TA.AperFunction,Conductor*
G36*
X172367038Y-127310574D02*
G01*
X172373350Y-127316926D01*
X172373589Y-127325181D01*
X172212718Y-127792111D01*
X172206783Y-127798817D01*
X172201656Y-127800000D01*
X171998344Y-127800000D01*
X171990071Y-127796573D01*
X171987282Y-127792111D01*
X171826410Y-127325178D01*
X171826955Y-127316243D01*
X171832959Y-127310575D01*
X172095490Y-127200883D01*
X172104444Y-127200857D01*
X172367038Y-127310574D01*
G37*
G04 #@! TD.AperFunction*
G04 #@! TA.AperFunction,Conductor*
G36*
X175166851Y-130110496D02*
G01*
X175173163Y-130116848D01*
X175173330Y-130125305D01*
X175002807Y-130592313D01*
X174996751Y-130598909D01*
X174991817Y-130600000D01*
X174808183Y-130600000D01*
X174799910Y-130596573D01*
X174797193Y-130592313D01*
X174626669Y-130125302D01*
X174627050Y-130116358D01*
X174633147Y-130110496D01*
X174895490Y-130000883D01*
X174904444Y-130000857D01*
X175166851Y-130110496D01*
G37*
G04 #@! TD.AperFunction*
G04 #@! TA.AperFunction,Conductor*
G36*
X166466851Y-131410496D02*
G01*
X166473163Y-131416848D01*
X166473330Y-131425305D01*
X166302807Y-131892313D01*
X166296751Y-131898909D01*
X166291817Y-131900000D01*
X166108183Y-131900000D01*
X166099910Y-131896573D01*
X166097193Y-131892313D01*
X165926669Y-131425302D01*
X165927050Y-131416358D01*
X165933147Y-131410496D01*
X166195490Y-131300883D01*
X166204444Y-131300857D01*
X166466851Y-131410496D01*
G37*
G04 #@! TD.AperFunction*
G04 #@! TA.AperFunction,Conductor*
G36*
X166366851Y-134310496D02*
G01*
X166373163Y-134316848D01*
X166373330Y-134325305D01*
X166202807Y-134792313D01*
X166196751Y-134798909D01*
X166191817Y-134800000D01*
X166008183Y-134800000D01*
X165999910Y-134796573D01*
X165997193Y-134792313D01*
X165826669Y-134325302D01*
X165827050Y-134316358D01*
X165833147Y-134310496D01*
X166095490Y-134200883D01*
X166104444Y-134200857D01*
X166366851Y-134310496D01*
G37*
G04 #@! TD.AperFunction*
G04 #@! TA.AperFunction,Conductor*
G36*
X172404102Y-133502711D02*
G01*
X172404149Y-133502758D01*
X172604106Y-133704052D01*
X172607505Y-133712337D01*
X172604272Y-133720373D01*
X172266847Y-134074172D01*
X172258657Y-134077794D01*
X172250305Y-134074564D01*
X172250107Y-134074370D01*
X172120398Y-133944661D01*
X172116980Y-133936842D01*
X172108566Y-133720373D01*
X172100471Y-133512124D01*
X172103574Y-133503725D01*
X172111708Y-133499980D01*
X172112108Y-133499971D01*
X172395821Y-133499304D01*
X172404102Y-133502711D01*
G37*
G04 #@! TD.AperFunction*
G04 #@! TA.AperFunction,Conductor*
G36*
X171133174Y-121389439D02*
G01*
X171296804Y-121456629D01*
X171396184Y-121497436D01*
X171402536Y-121503748D01*
X171402563Y-121503815D01*
X171510559Y-121766824D01*
X171510532Y-121775779D01*
X171504670Y-121781877D01*
X171053867Y-121991523D01*
X171044920Y-121991904D01*
X171040660Y-121989187D01*
X170910812Y-121859339D01*
X170907385Y-121851066D01*
X170908474Y-121846136D01*
X171118124Y-121395327D01*
X171124718Y-121389273D01*
X171133174Y-121389439D01*
G37*
G04 #@! TD.AperFunction*
G04 #@! TA.AperFunction,Conductor*
G36*
X168675779Y-131789467D02*
G01*
X168681877Y-131795329D01*
X168891523Y-132246132D01*
X168891904Y-132255079D01*
X168889187Y-132259339D01*
X168759339Y-132389187D01*
X168751066Y-132392614D01*
X168746132Y-132391523D01*
X168452736Y-132255079D01*
X168295328Y-132181876D01*
X168289273Y-132175281D01*
X168289439Y-132166825D01*
X168397436Y-131903814D01*
X168403746Y-131897464D01*
X168666825Y-131789440D01*
X168675779Y-131789467D01*
G37*
G04 #@! TD.AperFunction*
G04 #@! TA.AperFunction,Conductor*
G36*
X169553250Y-134599900D02*
G01*
X169561497Y-134603381D01*
X169564644Y-134609314D01*
X169565307Y-134612644D01*
X169565530Y-134615132D01*
X169565528Y-134615247D01*
X169565371Y-134616967D01*
X169519829Y-134890223D01*
X169515089Y-134897821D01*
X169508288Y-134900000D01*
X169328111Y-134900000D01*
X169319838Y-134896573D01*
X169316570Y-134890223D01*
X169271016Y-134616896D01*
X169271081Y-134612699D01*
X169271755Y-134609314D01*
X169276729Y-134601871D01*
X169283146Y-134599900D01*
X169418200Y-134599000D01*
X169553250Y-134599900D01*
G37*
G04 #@! TD.AperFunction*
G04 #@! TA.AperFunction,Conductor*
G36*
X162909929Y-134903427D02*
G01*
X162912718Y-134907889D01*
X163073589Y-135374818D01*
X163073044Y-135383756D01*
X163067038Y-135389425D01*
X162804511Y-135499115D01*
X162795556Y-135499142D01*
X162795489Y-135499115D01*
X162532961Y-135389425D01*
X162526649Y-135383073D01*
X162526410Y-135374821D01*
X162687282Y-134907888D01*
X162693217Y-134901183D01*
X162698344Y-134900000D01*
X162901656Y-134900000D01*
X162909929Y-134903427D01*
G37*
G04 #@! TD.AperFunction*
G04 #@! TA.AperFunction,Conductor*
G36*
X168933174Y-118289439D02*
G01*
X169096804Y-118356629D01*
X169196184Y-118397436D01*
X169202536Y-118403748D01*
X169202563Y-118403815D01*
X169310559Y-118666824D01*
X169310532Y-118675779D01*
X169304670Y-118681877D01*
X168853867Y-118891523D01*
X168844920Y-118891904D01*
X168840660Y-118889187D01*
X168710812Y-118759339D01*
X168707385Y-118751066D01*
X168708474Y-118746136D01*
X168918124Y-118295327D01*
X168924718Y-118289273D01*
X168933174Y-118289439D01*
G37*
G04 #@! TD.AperFunction*
G04 #@! TA.AperFunction,Conductor*
G36*
X164666282Y-125779501D02*
G01*
X165436215Y-126097438D01*
X165442552Y-126103761D01*
X165442562Y-126103785D01*
X165760497Y-126873714D01*
X165760488Y-126882669D01*
X165754149Y-126888994D01*
X165753396Y-126889275D01*
X164315495Y-127370494D01*
X164306562Y-127369870D01*
X164303509Y-127367672D01*
X164172327Y-127236490D01*
X164168900Y-127228217D01*
X164169503Y-127224510D01*
X164650725Y-125786601D01*
X164656599Y-125779845D01*
X164665532Y-125779221D01*
X164666282Y-125779501D01*
G37*
G04 #@! TD.AperFunction*
G04 #@! TA.AperFunction,Conductor*
G36*
X159009929Y-122803427D02*
G01*
X159012718Y-122807889D01*
X159173589Y-123274818D01*
X159173044Y-123283756D01*
X159167038Y-123289425D01*
X158904511Y-123399115D01*
X158895556Y-123399142D01*
X158895489Y-123399115D01*
X158632961Y-123289425D01*
X158626649Y-123283073D01*
X158626410Y-123274821D01*
X158787282Y-122807888D01*
X158793217Y-122801183D01*
X158798344Y-122800000D01*
X159001656Y-122800000D01*
X159009929Y-122803427D01*
G37*
G04 #@! TD.AperFunction*
G04 #@! TA.AperFunction,Conductor*
G36*
X169005540Y-134452889D02*
G01*
X169008883Y-134453554D01*
X169016328Y-134458530D01*
X169018299Y-134464951D01*
X169019199Y-134599922D01*
X169019199Y-134600078D01*
X169018291Y-134736281D01*
X169014809Y-134744531D01*
X169006513Y-134747903D01*
X169004668Y-134747744D01*
X168727977Y-134701629D01*
X168720379Y-134696888D01*
X168718200Y-134690088D01*
X168718200Y-134509911D01*
X168721627Y-134501638D01*
X168727975Y-134498370D01*
X169001249Y-134452825D01*
X169002929Y-134452669D01*
X169002948Y-134452668D01*
X169002954Y-134452669D01*
X169003036Y-134452667D01*
X169005540Y-134452889D01*
G37*
G04 #@! TD.AperFunction*
G04 #@! TA.AperFunction,Conductor*
G36*
X171132987Y-122289363D02*
G01*
X171396184Y-122397436D01*
X171402536Y-122403748D01*
X171402563Y-122403815D01*
X171510636Y-122667012D01*
X171510609Y-122675967D01*
X171504940Y-122681973D01*
X171061017Y-122898388D01*
X171052079Y-122898933D01*
X171047617Y-122896144D01*
X170903855Y-122752382D01*
X170900428Y-122744109D01*
X170901611Y-122738982D01*
X171118028Y-122295057D01*
X171124732Y-122289124D01*
X171132987Y-122289363D01*
G37*
G04 #@! TD.AperFunction*
G04 #@! TA.AperFunction,Conductor*
G36*
X170233444Y-134052669D02*
G01*
X170233449Y-134052668D01*
X170233469Y-134052669D01*
X170235153Y-134052825D01*
X170508424Y-134098370D01*
X170516021Y-134103111D01*
X170518200Y-134109911D01*
X170518200Y-134290088D01*
X170514773Y-134298361D01*
X170508423Y-134301629D01*
X170235099Y-134347182D01*
X170230893Y-134347116D01*
X170227516Y-134346444D01*
X170220070Y-134341468D01*
X170218100Y-134335051D01*
X170217200Y-134200000D01*
X170218100Y-134064947D01*
X170221581Y-134056701D01*
X170227512Y-134053555D01*
X170230859Y-134052889D01*
X170233361Y-134052667D01*
X170233444Y-134052669D01*
G37*
G04 #@! TD.AperFunction*
G04 #@! TA.AperFunction,Conductor*
G36*
X172400090Y-123203427D02*
G01*
X172402807Y-123207687D01*
X172573330Y-123674694D01*
X172572949Y-123683641D01*
X172566851Y-123689503D01*
X172304511Y-123799115D01*
X172295556Y-123799142D01*
X172295489Y-123799115D01*
X172033148Y-123689503D01*
X172026836Y-123683151D01*
X172026669Y-123674697D01*
X172197193Y-123207686D01*
X172203249Y-123201091D01*
X172208183Y-123200000D01*
X172391817Y-123200000D01*
X172400090Y-123203427D01*
G37*
G04 #@! TD.AperFunction*
G04 #@! TA.AperFunction,Conductor*
G36*
X172759339Y-139310812D02*
G01*
X172889187Y-139440660D01*
X172892614Y-139448933D01*
X172891523Y-139453867D01*
X172681877Y-139904670D01*
X172675281Y-139910726D01*
X172666824Y-139910559D01*
X172403815Y-139802563D01*
X172397463Y-139796251D01*
X172397436Y-139796184D01*
X172289440Y-139533175D01*
X172289467Y-139524220D01*
X172295326Y-139518124D01*
X172746134Y-139308475D01*
X172755079Y-139308095D01*
X172759339Y-139310812D01*
G37*
G04 #@! TD.AperFunction*
G04 #@! TA.AperFunction,Conductor*
G36*
X162904489Y-126100865D02*
G01*
X163673038Y-126420187D01*
X163679363Y-126426526D01*
X163679354Y-126435481D01*
X163678704Y-126436803D01*
X162913370Y-127774220D01*
X162906287Y-127779699D01*
X162903215Y-127780109D01*
X162697743Y-127780109D01*
X162689470Y-127776682D01*
X162686974Y-127772982D01*
X162460484Y-127239599D01*
X162119309Y-126436132D01*
X162119230Y-126427180D01*
X162125506Y-126420792D01*
X162895511Y-126100864D01*
X162904466Y-126100856D01*
X162904489Y-126100865D01*
G37*
G04 #@! TD.AperFunction*
G04 #@! TA.AperFunction,Conductor*
G36*
X165429872Y-126116452D02*
G01*
X165429876Y-126125407D01*
X165429872Y-126125416D01*
X165118788Y-126875486D01*
X165112454Y-126881815D01*
X165104561Y-126882193D01*
X165103324Y-126881815D01*
X165077944Y-126874056D01*
X164873499Y-126811562D01*
X164868646Y-126808646D01*
X164731353Y-126671353D01*
X164728437Y-126666500D01*
X164657806Y-126435436D01*
X164658665Y-126426525D01*
X164664511Y-126421212D01*
X165414584Y-126110126D01*
X165423538Y-126110123D01*
X165429872Y-126116452D01*
G37*
G04 #@! TD.AperFunction*
G04 #@! TA.AperFunction,Conductor*
G36*
X182675779Y-137589467D02*
G01*
X182681877Y-137595329D01*
X182891523Y-138046132D01*
X182891904Y-138055079D01*
X182889187Y-138059339D01*
X182759339Y-138189187D01*
X182751066Y-138192614D01*
X182746132Y-138191523D01*
X182452736Y-138055079D01*
X182295328Y-137981876D01*
X182289273Y-137975281D01*
X182289439Y-137966825D01*
X182397436Y-137703814D01*
X182403746Y-137697464D01*
X182666825Y-137589440D01*
X182675779Y-137589467D01*
G37*
G04 #@! TD.AperFunction*
G04 #@! TA.AperFunction,Conductor*
G36*
X178667038Y-151610574D02*
G01*
X178673350Y-151616926D01*
X178673589Y-151625181D01*
X178512718Y-152092111D01*
X178506783Y-152098817D01*
X178501656Y-152100000D01*
X178298344Y-152100000D01*
X178290071Y-152096573D01*
X178287282Y-152092111D01*
X178126410Y-151625178D01*
X178126955Y-151616243D01*
X178132959Y-151610575D01*
X178395490Y-151500883D01*
X178404444Y-151500857D01*
X178667038Y-151610574D01*
G37*
G04 #@! TD.AperFunction*
G04 #@! TA.AperFunction,Conductor*
G36*
X155799244Y-134403427D02*
G01*
X155802289Y-134408734D01*
X155882201Y-134713638D01*
X155880983Y-134722509D01*
X155875410Y-134727393D01*
X155704527Y-134799100D01*
X155695572Y-134799141D01*
X155695473Y-134799100D01*
X155524589Y-134727393D01*
X155518286Y-134721032D01*
X155517798Y-134713641D01*
X155597711Y-134408734D01*
X155603124Y-134401600D01*
X155609029Y-134400000D01*
X155790971Y-134400000D01*
X155799244Y-134403427D01*
G37*
G04 #@! TD.AperFunction*
G04 #@! TA.AperFunction,Conductor*
G36*
X190367038Y-145910574D02*
G01*
X190373350Y-145916926D01*
X190373589Y-145925181D01*
X190212718Y-146392111D01*
X190206783Y-146398817D01*
X190201656Y-146400000D01*
X189998344Y-146400000D01*
X189990071Y-146396573D01*
X189987282Y-146392111D01*
X189826410Y-145925178D01*
X189826955Y-145916243D01*
X189832959Y-145910575D01*
X190095490Y-145800883D01*
X190104444Y-145800857D01*
X190367038Y-145910574D01*
G37*
G04 #@! TD.AperFunction*
G04 #@! TA.AperFunction,Conductor*
G36*
X183866851Y-141410496D02*
G01*
X183873163Y-141416848D01*
X183873330Y-141425305D01*
X183702807Y-141892313D01*
X183696751Y-141898909D01*
X183691817Y-141900000D01*
X183508183Y-141900000D01*
X183499910Y-141896573D01*
X183497193Y-141892313D01*
X183326669Y-141425302D01*
X183327050Y-141416358D01*
X183333147Y-141410496D01*
X183595490Y-141300883D01*
X183604444Y-141300857D01*
X183866851Y-141410496D01*
G37*
G04 #@! TD.AperFunction*
G04 #@! TA.AperFunction,Conductor*
G36*
X169953250Y-134599900D02*
G01*
X169961497Y-134603381D01*
X169964644Y-134609316D01*
X169965316Y-134612693D01*
X169965382Y-134616899D01*
X169919829Y-134890223D01*
X169915089Y-134897821D01*
X169908288Y-134900000D01*
X169728111Y-134900000D01*
X169719838Y-134896573D01*
X169716570Y-134890223D01*
X169671016Y-134616896D01*
X169671081Y-134612699D01*
X169671755Y-134609314D01*
X169676729Y-134601871D01*
X169683146Y-134599900D01*
X169818200Y-134599000D01*
X169953250Y-134599900D01*
G37*
G04 #@! TD.AperFunction*
G04 #@! TA.AperFunction,Conductor*
G36*
X168884843Y-133122918D02*
G01*
X169113102Y-133285960D01*
X169117843Y-133293556D01*
X169115823Y-133302280D01*
X169114630Y-133303698D01*
X169018961Y-133400651D01*
X169018851Y-133400761D01*
X168921898Y-133496430D01*
X168913602Y-133499802D01*
X168905352Y-133496320D01*
X168904163Y-133494907D01*
X168741118Y-133266643D01*
X168739098Y-133257919D01*
X168742364Y-133251572D01*
X168869771Y-133124165D01*
X168878043Y-133120739D01*
X168884843Y-133122918D01*
G37*
G04 #@! TD.AperFunction*
G04 #@! TA.AperFunction,Conductor*
G36*
X170331047Y-134503679D02*
G01*
X170332240Y-134505097D01*
X170495281Y-134733356D01*
X170497301Y-134742080D01*
X170494033Y-134748429D01*
X170366629Y-134875833D01*
X170358356Y-134879260D01*
X170351556Y-134877081D01*
X170171442Y-134748429D01*
X170123296Y-134714039D01*
X170118556Y-134706443D01*
X170120576Y-134697719D01*
X170121765Y-134696305D01*
X170217493Y-134599293D01*
X170314502Y-134503568D01*
X170322797Y-134500197D01*
X170331047Y-134503679D01*
G37*
G04 #@! TD.AperFunction*
G04 #@! TA.AperFunction,Conductor*
G36*
X171100090Y-139803427D02*
G01*
X171102807Y-139807687D01*
X171273330Y-140274694D01*
X171272949Y-140283641D01*
X171266851Y-140289503D01*
X171004511Y-140399115D01*
X170995556Y-140399142D01*
X170995489Y-140399115D01*
X170733148Y-140289503D01*
X170726836Y-140283151D01*
X170726669Y-140274697D01*
X170897193Y-139807686D01*
X170903249Y-139801091D01*
X170908183Y-139800000D01*
X171091817Y-139800000D01*
X171100090Y-139803427D01*
G37*
G04 #@! TD.AperFunction*
G04 #@! TA.AperFunction,Conductor*
G36*
X169516561Y-133103427D02*
G01*
X169519829Y-133109777D01*
X169565382Y-133383099D01*
X169565316Y-133387305D01*
X169564644Y-133390682D01*
X169559668Y-133398128D01*
X169553247Y-133400099D01*
X169418277Y-133400999D01*
X169418121Y-133400999D01*
X169283151Y-133400099D01*
X169274901Y-133396617D01*
X169271754Y-133390683D01*
X169271081Y-133387300D01*
X169271016Y-133383103D01*
X169316570Y-133109775D01*
X169321311Y-133102179D01*
X169328111Y-133100000D01*
X169508288Y-133100000D01*
X169516561Y-133103427D01*
G37*
G04 #@! TD.AperFunction*
G04 #@! TA.AperFunction,Conductor*
G36*
X185361017Y-137101611D02*
G01*
X185804941Y-137318027D01*
X185810875Y-137324732D01*
X185810636Y-137332987D01*
X185702563Y-137596184D01*
X185696251Y-137602536D01*
X185696184Y-137602563D01*
X185432987Y-137710636D01*
X185424032Y-137710609D01*
X185418027Y-137704941D01*
X185201611Y-137261017D01*
X185201066Y-137252079D01*
X185203853Y-137247619D01*
X185347618Y-137103854D01*
X185355890Y-137100428D01*
X185361017Y-137101611D01*
G37*
G04 #@! TD.AperFunction*
G04 #@! TA.AperFunction,Conductor*
G36*
X170231352Y-133251753D02*
G01*
X170508046Y-133288646D01*
X170515794Y-133293136D01*
X170518200Y-133300243D01*
X170518200Y-133499756D01*
X170514773Y-133508029D01*
X170508046Y-133511353D01*
X170237724Y-133547395D01*
X170235314Y-133547466D01*
X170233472Y-133547329D01*
X170233447Y-133547328D01*
X170233297Y-133547331D01*
X170230847Y-133547107D01*
X170228954Y-133546730D01*
X170227514Y-133546444D01*
X170220070Y-133541467D01*
X170218100Y-133535051D01*
X170217200Y-133400000D01*
X170218111Y-133263271D01*
X170221593Y-133255023D01*
X170229889Y-133251651D01*
X170231352Y-133251753D01*
G37*
G04 #@! TD.AperFunction*
G04 #@! TA.AperFunction,Conductor*
G36*
X165933174Y-129089439D02*
G01*
X166096804Y-129156629D01*
X166196184Y-129197436D01*
X166202536Y-129203748D01*
X166202563Y-129203815D01*
X166310559Y-129466824D01*
X166310532Y-129475779D01*
X166304670Y-129481877D01*
X165853867Y-129691523D01*
X165844920Y-129691904D01*
X165840660Y-129689187D01*
X165710812Y-129559339D01*
X165707385Y-129551066D01*
X165708474Y-129546136D01*
X165918124Y-129095327D01*
X165924718Y-129089273D01*
X165933174Y-129089439D01*
G37*
G04 #@! TD.AperFunction*
G04 #@! TA.AperFunction,Conductor*
G36*
X169761017Y-138801611D02*
G01*
X170204941Y-139018027D01*
X170210875Y-139024732D01*
X170210636Y-139032987D01*
X170102563Y-139296184D01*
X170096251Y-139302536D01*
X170096184Y-139302563D01*
X169832987Y-139410636D01*
X169824032Y-139410609D01*
X169818027Y-139404941D01*
X169601611Y-138961017D01*
X169601066Y-138952079D01*
X169603853Y-138947619D01*
X169747618Y-138803854D01*
X169755890Y-138800428D01*
X169761017Y-138801611D01*
G37*
G04 #@! TD.AperFunction*
G04 #@! TA.AperFunction,Conductor*
G36*
X184409929Y-150503427D02*
G01*
X184412718Y-150507889D01*
X184573589Y-150974818D01*
X184573044Y-150983756D01*
X184567038Y-150989425D01*
X184304511Y-151099115D01*
X184295556Y-151099142D01*
X184295489Y-151099115D01*
X184032961Y-150989425D01*
X184026649Y-150983073D01*
X184026410Y-150974821D01*
X184187282Y-150507888D01*
X184193217Y-150501183D01*
X184198344Y-150500000D01*
X184401656Y-150500000D01*
X184409929Y-150503427D01*
G37*
G04 #@! TD.AperFunction*
G04 #@! TA.AperFunction,Conductor*
G36*
X159656064Y-138454644D02*
G01*
X159660900Y-138462181D01*
X159661046Y-138463301D01*
X159708969Y-139051480D01*
X159706226Y-139060004D01*
X159698258Y-139064091D01*
X159697308Y-139064130D01*
X159494585Y-139064130D01*
X159486635Y-139061014D01*
X159225236Y-138818942D01*
X159221496Y-138810808D01*
X159222919Y-138804751D01*
X159387316Y-138503910D01*
X159394289Y-138498296D01*
X159395494Y-138498012D01*
X159647316Y-138452736D01*
X159656064Y-138454644D01*
G37*
G04 #@! TD.AperFunction*
G04 #@! TA.AperFunction,Conductor*
G36*
X176466851Y-142810496D02*
G01*
X176473163Y-142816848D01*
X176473330Y-142825305D01*
X176302807Y-143292313D01*
X176296751Y-143298909D01*
X176291817Y-143300000D01*
X176108183Y-143300000D01*
X176099910Y-143296573D01*
X176097193Y-143292313D01*
X175926669Y-142825302D01*
X175927050Y-142816358D01*
X175933147Y-142810496D01*
X176195490Y-142700883D01*
X176204444Y-142700857D01*
X176466851Y-142810496D01*
G37*
G04 #@! TD.AperFunction*
G04 #@! TA.AperFunction,Conductor*
G36*
X155875411Y-133872607D02*
G01*
X155881713Y-133878967D01*
X155882201Y-133886361D01*
X155802289Y-134191266D01*
X155796876Y-134198400D01*
X155790971Y-134200000D01*
X155609029Y-134200000D01*
X155600756Y-134196573D01*
X155597711Y-134191266D01*
X155589856Y-134161298D01*
X155517798Y-133886359D01*
X155519016Y-133877490D01*
X155524586Y-133872608D01*
X155695474Y-133800898D01*
X155704428Y-133800858D01*
X155875411Y-133872607D01*
G37*
G04 #@! TD.AperFunction*
G04 #@! TA.AperFunction,Conductor*
G36*
X182666851Y-138710496D02*
G01*
X182673163Y-138716848D01*
X182673330Y-138725305D01*
X182502807Y-139192313D01*
X182496751Y-139198909D01*
X182491817Y-139200000D01*
X182308183Y-139200000D01*
X182299910Y-139196573D01*
X182297193Y-139192313D01*
X182126669Y-138725302D01*
X182127050Y-138716358D01*
X182133147Y-138710496D01*
X182395490Y-138600883D01*
X182404444Y-138600857D01*
X182666851Y-138710496D01*
G37*
G04 #@! TD.AperFunction*
G04 #@! TA.AperFunction,Conductor*
G36*
X167875967Y-117689390D02*
G01*
X167881973Y-117695059D01*
X168098388Y-118138982D01*
X168098933Y-118147920D01*
X168096144Y-118152382D01*
X167952382Y-118296144D01*
X167944109Y-118299571D01*
X167938982Y-118298388D01*
X167495059Y-118081973D01*
X167489124Y-118075267D01*
X167489362Y-118067013D01*
X167597436Y-117803814D01*
X167603746Y-117797464D01*
X167867013Y-117689363D01*
X167875967Y-117689390D01*
G37*
G04 #@! TD.AperFunction*
G04 #@! TA.AperFunction,Conductor*
G36*
X178875967Y-131989390D02*
G01*
X178881973Y-131995059D01*
X179098388Y-132438982D01*
X179098933Y-132447920D01*
X179096144Y-132452382D01*
X178952382Y-132596144D01*
X178944109Y-132599571D01*
X178938982Y-132598388D01*
X178495059Y-132381973D01*
X178489124Y-132375267D01*
X178489362Y-132367013D01*
X178597436Y-132103814D01*
X178603746Y-132097464D01*
X178867013Y-131989363D01*
X178875967Y-131989390D01*
G37*
G04 #@! TD.AperFunction*
G04 #@! TA.AperFunction,Conductor*
G36*
X166902178Y-131299910D02*
G01*
X167164721Y-131409606D01*
X167171033Y-131415958D01*
X167171006Y-131424913D01*
X167170262Y-131426389D01*
X166903402Y-131874396D01*
X166896224Y-131879751D01*
X166893350Y-131880109D01*
X166709856Y-131880109D01*
X166701583Y-131876682D01*
X166698326Y-131870397D01*
X166621787Y-131426389D01*
X166603189Y-131318505D01*
X166603164Y-131314698D01*
X166603937Y-131309814D01*
X166608615Y-131302182D01*
X166615448Y-131299948D01*
X166897636Y-131299007D01*
X166902178Y-131299910D01*
G37*
G04 #@! TD.AperFunction*
M02*
